<?xml version="1.0" encoding="utf-8"?>
<!-- Generator: Adobe Illustrator 18.1.1, SVG Export Plug-In . SVG Version: 6.00 Build 0)  -->
<!DOCTYPE svg PUBLIC "-//W3C//DTD SVG 1.1//EN" "http://www.w3.org/Graphics/SVG/1.1/DTD/svg11.dtd" [
	<!ENTITY ns_flows "http://ns.adobe.com/Flows/1.0/">
	<!ENTITY ns_extend "http://ns.adobe.com/Extensibility/1.0/">
	<!ENTITY ns_ai "http://ns.adobe.com/AdobeIllustrator/10.0/">
	<!ENTITY ns_graphs "http://ns.adobe.com/Graphs/1.0/">
]>
<svg version="1.1" id="WP_x5F_SEO" xmlns:x="&ns_extend;" xmlns:i="&ns_ai;" xmlns:graph="&ns_graphs;"
	 xmlns="http://www.w3.org/2000/svg" xmlns:xlink="http://www.w3.org/1999/xlink" xmlns:a="http://ns.adobe.com/AdobeSVGViewerExtensions/3.0/"
	 x="0px" y="0px" viewBox="0 0 256 256" enable-background="new 0 0 256 256" xml:space="preserve">
<g>
	<path fill="#7EADB9" d="M256,256H48c-26.5,0-48-21.5-48-48V48C0,21.5,21.5,0,48,0h160c26.5,0,48,21.5,48,48V256z"/>
</g>
<g id="border_1">
	<path opacity="0.8" fill="#FFFFFF" d="M178.2,84.8c-5.7,0-10.4-4.6-10.4-10.4V40.6c0-5.7,4.6-10.4,10.4-10.4h27.6l1.4-3.8h-29
		c-7.8,0-14.2,6.4-14.2,14.2v33.8c0,7.8,6.4,14.2,14.2,14.2h0.1v-3.8H178.2z"/>
	<path opacity="0.8" fill="#FFFFFF" d="M236,40.6c0-6.6-4.6-12.2-10.7-13.7l-1.3,3.6c4.7,1,8.3,5.2,8.3,10.2v44.2H203
		c-0.7,1.3-1.5,2.6-2.3,3.8H236V40.6z"/>
</g>
<g id="Y_1">
	<g opacity="0.8">
		<g>
			<path fill="#FFFFFF" stroke="#FFFFFF" stroke-width="0.6279" stroke-miterlimit="10" d="M183.5,85v7.6c4.7-0.2,8.4-1.7,11.5-4.9
				c3.2-3.2,6-8.3,8.7-15.8L223.8,18h-9.7l-16.2,45l-8.1-25.2h-8.9l11.8,30.4c1.1,2.9,1.1,6.2,0,9.1C191.5,80.3,189.4,83.9,183.5,85
				z"/>
		</g>
	</g>
</g>
<g id="icon_wp">
	<path fill="#5B2942" d="M146,205c0,17.8-14.4,32.2-32.1,32.2H58.1C40.4,237.1,26,222.7,26,205V79c0-17.8,14.4-32.2,32.1-32.2h55.8
		c17.7,0,32.1,14.4,32.1,32.2V205z"/>
	<path fill="#5B2942" stroke="#7EADB9" stroke-width="6" stroke-miterlimit="10" d="M133,205.3c0,11.6-7.9,21.7-19.5,21.7h-55
		C46.9,227,37,216.9,37,205.3V78.9C37,67.3,46.9,59,58.5,59h55c11.6,0,19.5,8.3,19.5,19.9V205.3z"/>
	<g>
		<circle fill="#F49A00" cx="86" cy="142" r="22.8"/>
		<circle fill="#77B227" cx="86" cy="90.9" r="22.8"/>
		<circle fill="#E31C15" cx="86" cy="193" r="22.8"/>
	</g>
	<g>
		<path fill="#FEC228" d="M74.6,161.7c-10.9-6.3-14.6-20.2-8.3-31.1c6.3-10.9,20.2-14.6,31.1-8.3"/>
		<path fill="#9FDA4F" d="M74.6,110.6c-10.9-6.3-14.6-20.2-8.3-31.1s20.2-14.6,31.1-8.3L74.6,110.6z"/>
		<path fill="#FF443D" d="M74.6,212.7c-10.9-6.3-14.6-20.2-8.3-31.1s20.2-14.6,31.1-8.3"/>
	</g>
</g>
</svg>
