<svg xmlns="http://www.w3.org/2000/svg" viewBox="0 0 500 500" role="img" aria-hidden="true" focusable="false">
	<path d="M63.25,0H436.75A63.25,63.25,0,0,1,500,63.25V500a0,0,0,0,1,0,0H63.25A63.25,63.25,0,0,1,0,436.75V63.25A63.25,63.25,0,0,1,63.25,0Z" fill="#a4286a"/><path d="M500,63.25A63.24,63.24,0,0,0,436.87,0L154.26,500H500Z" fill="#6c2548"/><path d="M74.4,335.2v34.9c21.6-.9,38.5-8,52.8-22.5s27.4-38,39.9-72.9l92.6-248H214.9L140.3,233.9l-37-116.2h-41l54.4,139.8a57.54,57.54,0,0,1,0,41.8C111.2,313.5,101.3,330.2,74.4,335.2Z" fill="#fff"/><path d="M416.2,35.9,320.4,205.4A97.35,97.35,0,0,0,416.2,35.9Z" fill="#77b227"/><path d="M283.5,72.8a97.31,97.31,0,0,0,36.86,132.58l0,0L416.2,35.9A97.3,97.3,0,0,0,283.59,72.64Z" fill="#9fda4f"/><path d="M294.5,250.5,231.9,361.3a63.63,63.63,0,1,0,62.6-110.8Z" fill="#f49a00"/><path d="M294.7,250.7A63.61,63.61,0,0,0,232,361.4Z" fill="#fec228"/><path d="M202.9,412.7l-37.6,66.5a38.2,38.2,0,0,0,37.5-66.5Z" fill="#ed261f"/><path d="M202.9,412.8A38.2,38.2,0,0,0,162,477.34c1.06.67,2.16,1.29,3.28,1.86Z" fill="#ff4e47"/>
</svg>