<svg fill="none" height="245" viewBox="0 0 245 245" width="245" xmlns="http://www.w3.org/2000/svg"><circle cx="122.5" cy="122.5" fill="#2a2a2a" r="114.5"/><path clip-rule="evenodd" d="m122.5 245c67.655 0 122.5-54.845 122.5-122.5 0-67.6549-54.845-122.5-122.5-122.5-67.6549 0-122.5 54.8451-122.5 122.5 0 67.655 54.8451 122.5 122.5 122.5zm0-5c64.893 0 117.5-52.607 117.5-117.5 0-64.8935-52.607-117.5-117.5-117.5-64.8935 0-117.5 52.6065-117.5 117.5 0 64.893 52.6065 117.5 117.5 117.5z" fill="#2a2a2a" fill-rule="evenodd"/><path clip-rule="evenodd" d="m65.0841 82.1586c1.4417-.8769 3.305-2.0104 5.4159-1.6586 1.1535.1922 2.3808 1.1236 3.7958 2.1973 2.2651 1.719 5.0111 3.8027 8.7042 3.8027 4.2606 0 6.5043-1.0085 7.8051-1.5932.5311-.2387.905-.4068 1.1949-.4068 1 0 2.5 1.5.5 3-.3295.2471-.7404.5893-1.2306.9973-2.4848 2.0688-7.005 5.8322-13.2694 7.5027-1.1904.3175-2.2927.5845-3.3108.8312-5.396 1.3074-8.4273 2.0418-9.6892 6.6688-1.5 5.5-.5 27.5 18 27.5 7.663 0 13.696-3.003 20.764-6.52 9.996-4.975 22.062-10.98 43.736-10.98 37 0 44.5 31.5 44.5 47.5s-18 38-49 38c-21.807 0-29.233-7.345-33.087-11.158-.529-.523-.991-.98-1.413-1.342 2.5 6.5 15 20.4 39 20-.333 1.833-8.6 5.5-39 5.5-38 0-67.5-34-67.5-64.5 0-21.71 5.5733-34.3 8.7857-41.557 1.3007-2.938 2.2143-5.002 2.2143-6.443 0-4.6576-5.2064-9.3152-9.961-13.5687-.3495-.3127-.6966-.6232-1.039-.9313-5-4.5-6-13-5.5-14.5s2.5-2 3 1 5.5 6 9 6c1.4336 0 2.1961-.1678 2.9403-.3315 1.0728-.236 2.1076-.4637 5.0597-.1685 2.4979.2498 5.5195 3.4129 7.2665 5.2419.2796.2926.5266.5512.7335.7581.4446-.1482.9769-.472 1.5841-.8414zm46.4159 90.8414c1.933 0 3.5-1.567 3.5-3.5s-1.567-3.5-3.5-3.5-3.5 1.567-3.5 3.5 1.567 3.5 3.5 3.5z" fill="#fff" fill-rule="evenodd"/><g fill="#cf3529"><path d="m94 61c-2 1.5555-2.302 5.5056-.2467 7.5248 2.058 2.3326 4.7467 2.2903 7.5247.2467 18.722-13.7715 68.222-13.2715 89.722-.2467 2.435 1.4752 5.345 1.8333 7.209-.0639 0 0 0 0 .155-.1581 2.019-2.0553 2.136-5.7634-.38-7.5193-25.484-17.7835-81.484-17.2835-103.984.2165z"/><path d="m106 79c-3 1.5-3 5-1.5 7.5s4.657 2.5504 7.5 1c21.157-9.4496 46.352-10.519 68 .5 2.419 1.231 6.5 1.5 8-1.5 1.432-2.8636 1.5-5.5-2-7.5-21.441-12.2519-55.564-13.6781-80 0z"/><path d="m117 98.5c-3 1.5-3.5 4.75-2 7 2.333 3.5 5.5 2.424 8.195 1.431 18.305-6.747 28.305-6.431 45.805-.247 3.547 1.253 6 1.316 8-1.184 1.5-2.5 1.198-5.8746-2.5-7.5-21.484-9.4427-39.5-9.5-57.5.5z"/></g></svg>