<svg version="1.1" id="Layer_1" xmlns="http://www.w3.org/2000/svg" xmlns:xlink="http://www.w3.org/1999/xlink" x="0px" y="0px"
	 height="50" width="50" viewBox="0 0 256 256" enable-background="new 0 0 256 256" xml:space="preserve">
<path fill="#57E9BE" opacity="1.000000" stroke="none"
	d="
M116.000000,257.000000
	C77.333336,257.000000 39.166672,257.000000 1.000005,257.000000
	C1.000003,171.666672 1.000003,86.333351 1.000002,1.000017
	C86.333321,1.000011 171.666641,1.000011 257.000000,1.000005
	C257.000000,86.333313 257.000000,171.666626 257.000000,256.999969
	C210.166672,257.000000 163.333328,257.000000 116.000000,257.000000
M96.391586,114.778275
	C93.210533,107.271202 90.183884,99.691582 86.719551,92.317596
	C86.017464,90.823166 83.790047,89.710121 82.032928,89.143593
	C80.372116,88.608124 78.377159,89.224846 76.578270,88.977623
	C72.872253,88.468300 71.055763,89.849800 69.643349,93.469582
	C60.205658,117.656723 50.479733,141.731354 40.867275,165.850449
	C40.337021,167.180923 39.984112,168.582077 39.325443,170.651688
	C43.851807,170.651688 47.797657,170.659210 51.743465,170.650116
	C59.968113,170.631134 60.144699,170.690933 62.930950,162.929413
	C64.091080,159.697708 65.741821,158.547760 69.122581,158.718414
	C74.439766,158.986847 79.822144,159.205475 85.099953,158.676819
	C90.850136,158.100861 94.021729,159.963303 95.527702,165.672348
	C96.019676,167.537399 98.393997,170.003342 100.157661,170.227722
	C105.243813,170.874786 110.458374,170.476074 115.620728,170.577682
	C117.860725,170.621750 119.199364,170.007507 119.351440,167.847656
	C120.576019,168.191528 121.800591,168.535385 123.715965,169.238861
	C131.267166,169.428146 138.818359,169.617416 147.234955,169.849030
	C149.642227,169.233322 152.135666,168.840683 154.437393,167.951691
	C158.274933,166.469543 161.989731,164.669571 165.877838,163.895981
	C165.877838,166.142853 165.877838,168.389709 165.877838,170.740570
	C172.833847,170.740570 178.927292,170.740570 185.714600,170.740570
	C185.714600,162.882294 185.709320,155.271866 185.716248,147.661453
	C185.722092,141.253830 185.728378,141.248779 192.331696,141.244370
	C200.416855,141.238953 208.502014,141.243073 216.585052,141.243073
	C216.585052,134.717072 216.585052,129.017426 216.585052,122.862961
	C206.212021,122.862961 196.281754,122.862961 185.714539,122.862961
	C185.714539,120.121994 185.702866,117.843285 185.716599,115.564728
	C185.767517,107.118889 185.104355,108.183388 193.281738,108.137672
	C201.705902,108.090576 210.130524,108.127213 218.656647,108.127213
	C218.656647,101.482887 218.656647,95.592461 218.656647,89.613876
	C200.963593,89.613876 183.623413,89.613876 166.159317,89.613876
	C166.003418,92.377167 165.872833,94.691666 165.006226,96.990211
	C163.345596,96.345947 161.710632,95.622795 160.019287,95.073013
	C155.838409,93.713974 151.631714,92.434357 146.659424,91.137863
	C145.521805,90.906219 144.382507,90.682472 143.246811,90.441757
	C126.140800,86.816124 107.903053,94.954140 99.387032,110.243568
	C98.597343,111.877594 97.807655,113.511612 96.391586,114.778275
z"/>
<path fill="#FDFFFE" opacity="1.000000" stroke="none"
	d="
M146.369553,169.806702
	C138.818359,169.617416 131.267166,169.428146 123.340149,168.684479
	C118.832527,157.801193 114.671326,147.483932 110.577721,137.139908
	C106.976051,128.038910 103.450012,118.907990 99.890564,109.790291
	C107.903053,94.954140 126.140800,86.816124 143.246811,90.441757
	C144.382507,90.682472 145.521805,90.906219 147.325592,91.391373
	C153.975693,95.393005 159.959641,99.141129 166.115143,103.190994
	C169.170883,109.212860 172.018707,114.951851 174.969070,120.637634
	C175.580307,121.815582 176.572449,122.795883 177.389038,123.867271
	C177.949203,123.512352 178.509369,123.157433 179.069534,122.802513
	C178.484634,113.292519 173.418869,106.085022 166.075897,99.638168
	C165.917480,98.512093 165.829865,97.759125 165.742249,97.006165
	C165.872833,94.691666 166.003418,92.377167 166.159317,89.613876
	C183.623413,89.613876 200.963593,89.613876 218.656647,89.613876
	C218.656647,95.592461 218.656647,101.482887 218.656647,108.127213
	C210.130524,108.127213 201.705902,108.090576 193.281738,108.137672
	C185.104355,108.183388 185.767517,107.118889 185.716599,115.564728
	C185.702866,117.843285 185.714539,120.121994 185.714539,122.862961
	C196.281754,122.862961 206.212021,122.862961 216.585052,122.862961
	C216.585052,129.017426 216.585052,134.717072 216.585052,141.243073
	C208.502014,141.243073 200.416855,141.238953 192.331696,141.244370
	C185.728378,141.248779 185.722092,141.253830 185.716248,147.661453
	C185.709320,155.271866 185.714600,162.882294 185.714600,170.740570
	C178.927292,170.740570 172.833847,170.740570 165.877838,170.740570
	C165.877838,168.389709 165.877838,166.142853 165.892395,163.081848
	C166.000214,161.522400 166.093491,160.777100 166.508972,159.945419
	C173.374191,155.181305 176.389465,148.247238 178.648041,140.930054
	C178.945618,139.966019 177.745773,138.539795 177.239456,137.327621
	C176.433060,138.192444 175.396057,138.934265 174.858322,139.942383
	C171.772476,145.727615 168.805084,151.576035 165.542023,157.566467
	C158.980881,161.755524 152.675217,165.781113 146.369553,169.806702
M131.734390,152.421143
	C140.163406,153.594513 147.591385,151.131348 152.405884,144.278519
	C155.818497,139.421082 158.646255,135.146576 165.559052,137.024445
	C165.559052,132.285355 165.559052,128.238220 165.559052,124.452171
	C162.116074,122.470840 157.721344,125.695259 155.267700,120.607819
	C150.668381,111.071518 142.590759,106.957489 131.207550,108.103653
	C129.768478,108.479408 128.283081,108.731628 126.897797,109.250862
	C117.487610,112.778038 111.229622,122.808952 112.398338,132.392822
	C113.678818,142.893311 121.102501,150.730774 131.734390,152.421143
z"/>
<path fill="#FDFFFE" opacity="1.000000" stroke="none"
	d="
M118.658958,167.453018
	C119.199364,170.007507 117.860725,170.621750 115.620728,170.577682
	C110.458374,170.476074 105.243813,170.874786 100.157661,170.227722
	C98.393997,170.003342 96.019676,167.537399 95.527702,165.672348
	C94.021729,159.963303 90.850136,158.100861 85.099953,158.676819
	C79.822144,159.205475 74.439766,158.986847 69.122581,158.718414
	C65.741821,158.547760 64.091080,159.697708 62.930950,162.929413
	C60.144699,170.690933 59.968113,170.631134 51.743465,170.650116
	C47.797657,170.659210 43.851807,170.651688 39.325443,170.651688
	C39.984112,168.582077 40.337021,167.180923 40.867275,165.850449
	C50.479733,141.731354 60.205658,117.656723 69.643349,93.469582
	C71.055763,89.849800 72.872253,88.468300 76.578270,88.977623
	C78.377159,89.224846 80.372116,88.608124 82.032928,89.143593
	C83.790047,89.710121 86.017464,90.823166 86.719551,92.317596
	C90.183884,99.691582 93.210533,107.271202 96.718292,115.330765
	C99.401558,121.868965 101.635185,127.906685 104.141075,133.829208
	C108.898026,145.071991 113.810867,156.248810 118.658958,167.453018
M81.983093,130.509735
	C80.933304,127.886185 79.883522,125.262642 78.407768,121.574562
	C76.074173,128.366348 74.160294,133.936569 72.180237,139.699387
	C76.761002,139.699387 80.750732,139.699387 85.304787,139.699387
	C84.132416,136.486069 83.176544,133.866150 81.983093,130.509735
z"/>
<path fill="#F1F3F2" opacity="1.000000" stroke="none"
	d="
M119.005203,167.650330
	C113.810867,156.248810 108.898026,145.071991 104.141075,133.829208
	C101.635185,127.906685 99.401558,121.868965 97.031479,115.514450
	C97.807655,113.511612 98.597343,111.877594 99.638794,110.016930
	C103.450012,118.907990 106.976051,128.038910 110.577721,137.139908
	C114.671326,147.483932 118.832527,157.801193 122.994751,168.504669
	C121.800591,168.535385 120.576019,168.191528 119.005203,167.650330
z"/>
<path fill="#63E1BC" opacity="1.000000" stroke="none"
	d="
M146.802246,169.827866
	C152.675217,165.781113 158.980881,161.755524 165.579346,157.895935
	C165.976990,158.718567 166.081863,159.375168 166.186768,160.031784
	C166.093491,160.777100 166.000214,161.522400 165.831573,162.635559
	C161.989731,164.669571 158.274933,166.469543 154.437393,167.951691
	C152.135666,168.840683 149.642227,169.233322 146.802246,169.827866
z"/>
<path fill="#5EE0BA" opacity="1.000000" stroke="none"
	d="
M165.374237,96.998184
	C165.829865,97.759125 165.917480,98.512093 166.014740,99.994263
	C165.997467,101.445404 165.970535,102.167328 165.943604,102.889252
	C159.959641,99.141129 153.975693,95.393005 147.713562,91.383850
	C151.631714,92.434357 155.838409,93.713974 160.019287,95.073013
	C161.710632,95.622795 163.345596,96.345947 165.374237,96.998184
z"/>
<path fill="#58E9BE" opacity="1.000000" stroke="none"
	d="
M131.962814,108.150742
	C142.590759,106.957489 150.668381,111.071518 155.267700,120.607819
	C157.721344,125.695259 162.116074,122.470840 165.559052,124.452171
	C165.559052,128.238220 165.559052,132.285355 165.559052,137.024445
	C158.646255,135.146576 155.818497,139.421082 152.405884,144.278519
	C147.591385,151.131348 140.163406,153.594513 131.158112,151.999878
	C129.235764,150.620514 127.877281,149.679321 126.545555,148.701660
	C115.412575,140.528625 113.279373,125.758743 122.170815,115.603943
	C124.818581,112.579971 128.665390,110.605881 131.962814,108.150742
z"/>
<path fill="#5ADFB8" opacity="1.000000" stroke="none"
	d="
M131.585175,108.127197
	C128.665390,110.605881 124.818581,112.579971 122.170815,115.603943
	C113.279373,125.758743 115.412575,140.528625 126.545555,148.701660
	C127.877281,149.679321 129.235764,150.620514 130.812103,151.827332
	C121.102501,150.730774 113.678818,142.893311 112.398338,132.392822
	C111.229622,122.808952 117.487610,112.778038 126.897797,109.250862
	C128.283081,108.731628 129.768478,108.479408 131.585175,108.127197
z"/>
<path fill="#F3F3F3" opacity="1.000000" stroke="none"
	d="
M166.115143,103.190994
	C165.970535,102.167328 165.997467,101.445404 166.085541,100.367386
	C173.418869,106.085022 178.484634,113.292519 179.069534,122.802513
	C178.509369,123.157433 177.949203,123.512352 177.389038,123.867271
	C176.572449,122.795883 175.580307,121.815582 174.969070,120.637634
	C172.018707,114.951851 169.170883,109.212860 166.115143,103.190994
z"/>
<path fill="#F2F3F2" opacity="1.000000" stroke="none"
	d="
M166.508972,159.945419
	C166.081863,159.375168 165.976990,158.718567 165.834808,157.732483
	C168.805084,151.576035 171.772476,145.727615 174.858322,139.942383
	C175.396057,138.934265 176.433060,138.192444 177.239456,137.327621
	C177.745773,138.539795 178.945618,139.966019 178.648041,140.930054
	C176.389465,148.247238 173.374191,155.181305 166.508972,159.945419
z"/>
<path fill="#5CEAC0" opacity="1.000000" stroke="none"
	d="
M82.101883,130.877991
	C83.176544,133.866150 84.132416,136.486069 85.304787,139.699387
	C80.750732,139.699387 76.761002,139.699387 72.180237,139.699387
	C74.160294,133.936569 76.074173,128.366348 78.407768,121.574562
	C79.883522,125.262642 80.933304,127.886185 82.101883,130.877991
z"/>
</svg>