<svg role="img" aria-hidden="true" focusable="false" xmlns="http://www.w3.org/2000/svg" viewBox="0 0 254 96"><defs><radialGradient id="c" cx="132.75" cy="69.66" r="12.85" fx="132.75" fy="69.66" gradientTransform="matrix(1 0 0 -1 0 98)" gradientUnits="userSpaceOnUse"><stop offset="0" stop-color="#9fda4f"/><stop offset="1" stop-color="#77b227"/></radialGradient><radialGradient id="d" cx="124.22" cy="44.84" r="10.3" fx="124.22" fy="44.84" gradientTransform="matrix(1 0 0 -1 0 98)" gradientUnits="userSpaceOnUse"><stop offset="0" stop-color="#fec228"/><stop offset=".22" stop-color="#fbb81e"/><stop offset="1" stop-color="#f49a00"/></radialGradient><radialGradient id="e" cx="113.13" cy="30.08" r="5.04" fx="113.13" fy="30.08" gradientTransform="matrix(1 0 0 -1 0 98)" gradientUnits="userSpaceOnUse"><stop offset="0" stop-color="#ff4e47"/><stop offset="1" stop-color="#ed261f"/></radialGradient><linearGradient id="a" x1="-1.91" x2="258.06" y1="97.88" y2="1.32" gradientTransform="matrix(1 0 0 -1 0 98)" gradientUnits="userSpaceOnUse"><stop offset=".17" stop-color="#6366f1"/><stop offset=".36" stop-color="#794ec3"/><stop offset=".59" stop-color="#913492"/><stop offset=".77" stop-color="#a02474"/><stop offset=".87" stop-color="#a61e69"/></linearGradient></defs><path fill="url(#a)" d="M-7.4 0h268.8v96H-7.4z"/><path fill="url(#c)" d="M146.82 22.22c-6.18-3.49-14.02-1.31-17.51 4.87S128 41.11 134.18 44.6s14.02 1.31 17.51-4.87 1.31-14.02-4.87-17.51"/><path fill="url(#d)" d="M133.83 48.96s-.01 0-.02-.01l-.02-.01a8.386 8.386 0 0 0-11.44 3.18c-2.28 4.04-.85 9.16 3.18 11.44 4.04 2.27 9.15.84 11.42-3.19a8.4 8.4 0 0 0-3.15-11.42"/><path fill="url(#e)" d="M122.05 70.4c0-1.76-.92-3.46-2.55-4.39-.78-.44-1.63-.65-2.48-.65-2.78 0-5.05 2.25-5.05 5.04s2.25 5.05 5.04 5.05 5.05-2.25 5.05-5.04"/><path fill="#fff" d="M102.23 61v4.58c2.83-.12 5.05-1.05 6.92-2.95s3.59-4.98 5.23-9.56l12.14-32.51h-5.87l-9.78 27.16-4.85-15.23h-5.37l7.13 18.33c.69 1.76.69 3.72 0 5.48-.72 1.86-2.02 4.05-5.54 4.71Z"/><path fill="#d4b8d5" fill-rule="evenodd" d="M150.02 67.33c.15 0 .28.1.32.24l.36 1.27c.16.55.59.99 1.15 1.15l1.27.36a.333.333 0 0 1 0 .64l-1.27.36c-.55.16-.99.59-1.15 1.15l-.36 1.27a.333.333 0 0 1-.64 0l-.36-1.27c-.16-.55-.59-.99-1.15-1.15l-1.27-.36a.333.333 0 0 1 0-.64l1.27-.36c.55-.16.99-.59 1.15-1.15l.36-1.27c.04-.14.17-.24.32-.24M146.76 64.73c.1 0 .19.07.21.17l.08.3c.07.28.28.49.56.56l.3.08c.12.03.19.15.16.27-.02.08-.08.14-.16.16l-.3.08a.76.76 0 0 0-.56.56l-.08.3a.22.22 0 0 1-.27.16.22.22 0 0 1-.16-.16l-.08-.3a.76.76 0 0 0-.56-.56l-.3-.08a.22.22 0 0 1-.16-.27c.02-.08.08-.14.16-.16l.3-.08a.76.76 0 0 0 .56-.56l.08-.3c.02-.1.11-.17.21-.17ZM144.26 70.04c.05 0 .1.03.12.09l.07.2c.02.07.08.13.16.16l.2.07c.07.02.1.09.08.16-.01.04-.04.07-.08.08l-.2.07c-.07.02-.13.08-.16.16l-.07.2c-.02.07-.09.1-.16.08a.11.11 0 0 1-.08-.08l-.07-.2a.25.25 0 0 0-.16-.16l-.2-.07c-.07-.02-.1-.09-.08-.16.01-.04.04-.07.08-.08l.2-.07c.07-.02.13-.08.16-.16l.07-.2c.02-.05.06-.09.12-.09M142.98 72.43c.05 0 .1.03.12.09l.07.2c.02.07.08.13.16.16l.2.07c.07.02.1.09.08.16-.01.04-.04.07-.08.08l-.2.07c-.07.02-.13.08-.16.16l-.07.2c-.02.07-.09.1-.16.08a.11.11 0 0 1-.08-.08l-.07-.2a.25.25 0 0 0-.16-.16l-.2-.07c-.07-.02-.1-.09-.08-.16.01-.04.04-.07.08-.08l.2-.07c.07-.02.13-.08.16-.16l.07-.2c.02-.05.06-.09.12-.09"/><path fill="#d4b8d5" d="M142.84 72.13c-.17-.46-.27-.95-.27-1.46 0-1.8 1.15-3.34 2.75-3.93l-.21-.56a4.79 4.79 0 0 0-3.14 4.49c0 .59.11 1.15.3 1.66zM149.36 73.93c-.71.57-1.62.91-2.6.91-1.2 0-2.29-.51-3.05-1.33l-.44.41c.87.94 2.12 1.52 3.5 1.52 1.12 0 2.16-.39 2.97-1.04l-.37-.48ZM146.76 68.43c.6 0 1.14.23 1.54.62l.4-.45a2.831 2.831 0 0 0-4.62 1.15l.56.21a2.24 2.24 0 0 1 2.12-1.52ZM148.29 72.29c-.4.38-.94.61-1.54.61-.99 0-1.83-.64-2.12-1.53l-.57.19a2.83 2.83 0 0 0 2.69 1.94c.75 0 1.44-.29 1.94-.77l-.41-.44Z"/></svg>