<svg xmlns="http://www.w3.org/2000/svg" width="120" height="60" fill-rule="evenodd"><path d="M13.07 12.505H40.7c2.72 0 4.94 2.06 4.94 4.607V42.9c0 2.537-2.2 4.605-4.94 4.605H13.07c-2.72 0-4.94-2.06-4.94-4.605V17.1c0-2.535 2.207-4.595 4.94-4.595" fill="#5468ff"/><path d="M30.8 20.316v-1.2c-.001-.838-.73-1.518-1.63-1.518h-3.797c-.9 0-1.628.68-1.63 1.518v1.232c0 .137.136.233.285.2 1.074-.3 2.187-.435 3.305-.434 1.083 0 2.156.137 3.192.402.138.032.274-.063.274-.2m-10.407 1.57l-.65-.605a1.69 1.69 0 0 0-1.151-.445 1.69 1.69 0 0 0-1.151.445l-.775.722c-.306.284-.478.67-.478 1.072s.172.788.478 1.072l.638.595c.103.095.252.073.342-.022.376-.482.792-.936 1.243-1.36a11.61 11.61 0 0 1 1.47-1.166c.114-.064.125-.213.034-.3m6.93 3.8v5.2c0 .15.172.255.32.18l4.948-2.388c.113-.052.147-.18.1-.286-1.026-1.678-2.93-2.824-5.13-2.898-.114 0-.228.085-.228.2m0 12.503c-4.126 0-7.477-3.12-7.477-6.963s3.352-6.96 7.477-6.96 7.478 3.12 7.478 6.96-3.34 6.963-7.478 6.963m0-16.853c-5.86 0-10.612 4.426-10.612 9.9s4.753 9.88 10.612 9.88 10.612-4.426 10.612-9.892-4.742-9.88-10.612-9.88" fill="#fff"/><path d="M66.942 36.43c-4.265.02-4.265-3.442-4.265-3.993L62.67 19.47l2.602-.413v12.888c0 .313 0 2.293 1.67 2.3v2.186zM56.396 34.3c.798 0 1.4-.047 1.803-.126V31.54a5.33 5.33 0 0 0-.626-.127 6.16 6.16 0 0 0-.905-.067c-.287 0-.58.02-.872.067-.293.04-.56.12-.792.233s-.426.273-.566.478c-.146.206-.213.326-.213.638 0 .6.213.964.6 1.196s.912.352 1.57.352zm-.226-9.434c.858 0 1.583.107 2.17.32s1.058.5 1.404.9c.353.385.592.897.74 1.442a6.64 6.64 0 0 1 .226 1.8v6.684l-1.816.305a18.82 18.82 0 0 1-2.735.18 8.32 8.32 0 0 1-1.843-.193c-.56-.126-1.03-.332-1.43-.618a3 3 0 0 1-.924-1.102c-.22-.453-.333-1.1-.333-1.754 0-.638.126-1.043.373-1.482s.6-.797 1.018-1.076.924-.478 1.5-.598a8.6 8.6 0 0 1 1.77-.18c.287 0 .586.02.905.053a8.17 8.17 0 0 1 1.012.18v-.425c0-.298-.034-.584-.107-.85a1.83 1.83 0 0 0-.373-.71c-.175-.205-.412-.366-.705-.478a3.1 3.1 0 0 0-1.112-.2c-.6 0-1.144.073-1.644.16s-.912.186-1.225.298L52.73 25.4c.326-.113.8-.226 1.437-.34.625-.12 1.298-.173 2.016-.173zm51.383 9.36c.8 0 1.4-.047 1.802-.127v-2.64a5.25 5.25 0 0 0-.625-.127 6.17 6.17 0 0 0-.905-.067 5.56 5.56 0 0 0-.872.067c-.292.04-.56.12-.8.233a1.42 1.42 0 0 0-.566.478.9.9 0 0 0-.213.638c0 .6.213.964.6 1.196.392.24.912.352 1.57.352zm-.22-9.427c.858 0 1.583.106 2.17.32s1.058.5 1.404.9.592.897.738 1.442a6.64 6.64 0 0 1 .226 1.8v6.683l-1.816.306a18.8 18.8 0 0 1-2.735.18c-.672 0-1.3-.067-1.842-.193a3.89 3.89 0 0 1-1.431-.618 3 3 0 0 1-.925-1.102c-.22-.452-.333-1.1-.333-1.754a2.75 2.75 0 0 1 .373-1.482 3.13 3.13 0 0 1 1.018-1.076c.433-.278.925-.478 1.5-.598a8.56 8.56 0 0 1 1.771-.179c.286 0 .585.02.904.053s.653.093 1 .18v-.425a3.21 3.21 0 0 0-.106-.851 1.82 1.82 0 0 0-.373-.711c-.18-.206-.412-.366-.705-.478a3.08 3.08 0 0 0-1.112-.199c-.6 0-1.144.073-1.644.16s-.912.186-1.225.3l-.312-2.133c.326-.113.8-.225 1.437-.34a11.16 11.16 0 0 1 2.016-.172zm-7.812-1.236c.87 0 1.584-.705 1.584-1.575s-.706-1.574-1.584-1.574-1.583.705-1.583 1.574a1.58 1.58 0 0 0 1.583 1.575zm1.3 12.854h-2.615v-11.2l2.615-.412V36.43zm-4.584 0c-4.265.02-4.265-3.442-4.265-3.993l-.007-12.968 2.602-.413V31.94c0 .313 0 2.293 1.67 2.3zm-8.457-5.74c0-1.123-.246-2.06-.725-2.7-.48-.658-1.15-.983-2-.983s-1.53.325-2 .983-.713 1.587-.713 2.7c0 1.136.24 1.9.72 2.557.48.664 1.15 1 2 1s1.53-.332 2-1c.48-.664.718-1.42.718-2.557zm2.66-.007a6.29 6.29 0 0 1-.386 2.265c-.26.724-.625 1.342-1.097 1.854s-1.04.9-1.704 1.2a6.93 6.93 0 0 1-2.202.438c-.513-.007-1.53-.152-2.2-.438s-1.225-.678-1.697-1.2-.84-1.13-1.105-1.854-.4-1.388-.4-2.265.12-1.72.386-2.44a5.4 5.4 0 0 1 1.118-1.84 4.99 4.99 0 0 1 1.703-1.183c.66-.28 1.384-.412 2.17-.412s1.5.14 2.176.412a4.71 4.71 0 0 1 1.704 1.183 5.47 5.47 0 0 1 1.104 1.84c.28.717.42 1.562.42 2.44zm-19.582 0c0 1.1.24 2.298.718 2.803s1.098.757 1.857.757a3.95 3.95 0 0 0 1.171-.172 3.32 3.32 0 0 0 .892-.405v-6.45a10.19 10.19 0 0 0-1.718-.219c-.945-.027-1.663.36-2.168.976s-.752 1.7-.752 2.7zm7.233 5.128c0 1.774-.453 3.07-1.365 3.893s-2.302 1.236-4.178 1.236a17.93 17.93 0 0 1-3.247-.385l.42-2.06c.952.2 2.2.253 2.868.253 1.044 0 1.8-.213 2.235-.638s.665-1.056.665-1.894v-.425a7.91 7.91 0 0 1-1.018.386c-.42.126-.904.193-1.45.193-.718 0-1.37-.113-1.962-.34a4.09 4.09 0 0 1-1.524-.997c-.42-.438-.752-1-.985-1.647s-.353-1.833-.353-2.697c0-.8.127-1.827.373-2.505a4.78 4.78 0 0 1 1.098-1.747c.48-.485 1.065-.857 1.75-1.13a6.4 6.4 0 0 1 2.36-.444c.846 0 1.624.106 2.383.233l1.93.404v10.3z" fill="#5468ff"/></svg>