<svg xmlns="http://www.w3.org/2000/svg" viewBox="0 0 752 247" stroke="#000" stroke-linecap="round" stroke-linejoin="round" fill="#fff" fill-rule="evenodd" aria-hidden="true"><g stroke="none" class="B"><path d="M307.671 13.343C314.3 6.76 322.367.552 332.022-.127c5.029-.88 10.204-.124 15.012 1.447 3.588 1.147 6.294 3.893 8.763 6.605 3.333-1.582 7.09-1.837 10.73-1.803 3.35-.13 6.796.842 9.52 2.803 4.045 3.932 7.322 8.847 8.678 14.367.711 3.808 1.084 7.888-.22 11.616.824 2.334 4.61 2.746 3.96 5.628-.706 2.373-2.616 4.209-4.356 5.898l-.61.543c-2.532.644-4.605 2.203-5.888 4.474-.322-1.92-2.644-1.864-3.955-2.842-5.977-3.813-10.734-9.52-13.356-16.119-1.266-3.435-2.768-6.938-2.475-10.684-2.983.661-6 1.86-8.068 4.198-2.977 2.887-4.452 6.831-6.819 10.164-1.746 2.334-1.825 5.453-3.56 7.786-1.118 1.7-3 2.599-4.587 3.774 1.378.305 2.898.373 4.073 1.243 1.113.944.673 2.898-.632 3.424-2.255.288-4.577-.26-6.803.305-2.825.898-4.994 3.023-7.011 5.09-.91 1.035-2.61-.22-2.441-1.418-.192-1.406.955-2.412 1.66-3.48-2.7.898-5.525 1.21-8.316 1.593-1.508 1.243-2.819 2.763-4.022 4.306-1.537-1.345-3.057-3.22-5.34-2.91 1.204 1.7 2.86 2.989 4.475 4.271.249 5.39 1.774 10.594 3.271 15.74.616 2.266 2.52 3.809 4.334 5.137 3.542 2.22 7.497 3.74 10.995 6.022 1.819 3.029 3.35 6.255 4.469 9.616.559 1.373 1.005 3.046 2.503 3.684 4.638 2.6 9.808 4 14.712 6.006 3.955-2.068 7.695-4.52 11.531-6.791.616-.463 1.503-.785 1.718-1.605 1.056-3.847 1.74-7.785 2.746-11.638.74-2.645 2.96-4.447 4.706-6.436 2.266-2.65 5.565-4.457 7-7.774.255-5.853.294-11.746-.621-17.554 1.294-1.633 2.508-3.328 3.797-4.96.05 3.101.536 6.163.983 9.226.26 3.66.35 7.339.712 10.988.067.746.242 1.498.683 2.114 2.334 3.045 7.08 3.785 10.311 1.762-1 3.289-3.932 5.362-6.226 7.707-.073.655.237 1.271.396 1.898 1.096 2.554 1.163 5.752-1.164 7.65.943 2.051 1.689 4.322 1.14 6.6-.208 1.463-1.536 2.287-2.604 3.118.175 2.079 1.04 4.26.181 6.294-1.113 1.842-3.266 2.599-5.175 3.328-.413 1.66-.769 3.457-2.04 4.706-1.034 1.18-2.723 1.153-4.13 1.492-1.13 2.248-2.537 4.655-4.96 5.678-2.125.548-4.25-.34-6.34-.673-1.525 1.6-3.101 3.385-5.373 3.86-2.39.796-4.712-.6-6.78-1.645-1.638 1.215-3.423 2.6-5.599 2.334-2.344.146-3.972-1.633-5.53-3.074-2.12 1.08-4.566 2-6.945 1.198-2.209-.537-3.356-2.656-4.604-4.35-2.825-.029-5.978-.029-8.226-2.006-1.695-1.322-2.362-3.424-3.034-5.368-1.916-.305-4.142-.367-5.526-1.932-1.35-1.605-2.31-3.554-2.83-5.588-.566-2.305.638-4.497 1.028-6.723-.95-1.085-2.43-1.565-3.582-2.418-3.136-1.577-3.548-5.6-2.424-8.571-1.565-1.107-2.836-2.548-4.22-3.853 3.463-.023 7.056-1.904 8.028-5.424.847-2.21.802-4.616.599-6.938-.43-4.531-1.509-8.967-2.435-13.413-.464-2.074-3.023-2.011-4.447-3.136-2.265-1.644-4.593-4.119-4.102-7.147 1.125-1.881 3.102-3.266 3.47-5.56-2.792-4.276-1.882-9.565-.927-14.26 1.44-5.215 3.83-10.328 7.768-14.13zm22.78 19.356c-2.655 2.78-4.39 6.238-6.282 9.543 2.271-.904 3.955-2.808 5.661-4.492 3.656-3.966 7.775-8.073 9.006-13.509-3.254 2.35-5.746 5.475-8.384 8.458zm3.74 8.317c-1.027 1.621-2.383 2.989-3.423 4.599 3.955-2.147 7.057-6.271 7.373-10.82-1.61 1.882-2.469 4.25-3.95 6.221zm18.42 7.673c4.3-2.515 10.073-3.125 14.322-.136 1.492.588 2.13 2.848.605 3.774-1.396 1.102-2.74-.424-4.074-.797-3.864-1.028-7.786.543-11.108 2.435-.853-.457-2.045-1.017-1.994-2.163-.215-1.498 1.232-2.34 2.249-3.113z" fill="#f17523"/><path d="M349.757 26.004c2.068-2.339 5.085-3.537 8.068-4.198-.293 3.746 1.21 7.25 2.475 10.684 2.622 6.6 7.379 12.306 13.356 16.12 1.311.977 3.633.92 3.955 2.841-2.084 2.876-4.356 5.622-6.361 8.554-1.899.644-3.809 1.266-5.78 1.656-1.402-4.707-7.797-6.023-11.47-3.193-.966.87-1.593 2.034-2.18 3.176-1.424-1.3-3.006-2.86-5.108-2.667-2.994.21-5.362 2.44-7.057 4.74-.796-2.859-3.43-5.13-6.452-5.09-3.893-.435-7.384 2.79-8.045 6.503-1.842.079-3.701.316-5.537.107-3.012-1.808-5.684-4.147-8.322-6.446 1.203-1.543 2.514-3.063 4.022-4.306 2.791-.384 5.616-.695 8.317-1.593-.706 1.068-1.853 2.074-1.661 3.48-.17 1.198 1.53 2.452 2.44 1.418 2.018-2.067 4.187-4.192 7.012-5.09 2.226-.565 4.548-.017 6.803-.305 1.305-.526 1.745-2.48.632-3.424-1.175-.87-2.695-.938-4.073-1.243 1.587-1.175 3.469-2.073 4.588-3.774 1.734-2.333 1.813-5.452 3.559-7.786 2.367-3.333 3.842-7.277 6.82-10.164zm2.853 22.685c-1.017.774-2.463 1.615-2.248 3.113-.051 1.147 1.141 1.706 1.994 2.164 3.322-1.893 7.243-3.464 11.108-2.435 1.333.372 2.678 1.898 4.074.796 1.525-.926.887-3.186-.605-3.774-4.249-2.989-10.023-2.379-14.322.136zm-22.158-15.99c2.638-2.983 5.13-6.107 8.384-8.458-1.232 5.436-5.35 9.543-9.006 13.51-1.706 1.683-3.39 3.587-5.661 4.491 1.893-3.305 3.627-6.763 6.283-9.543zm3.74 8.317c1.48-1.972 2.339-4.34 3.95-6.22-.317 4.548-3.419 8.672-7.374 10.819 1.04-1.61 2.396-2.978 3.424-4.599zm49.307 5.96l.61-.542c1.678-.53 3.339.921 4.09 2.34 2.656 4.208 3.39 9.44 2.367 14.271-1.04 3.509-2.638 7.503-6.508 8.616l-.085.266c-.44-.616-.616-1.368-.684-2.113-.361-3.65-.452-7.328-.711-10.99-.447-3.062-.933-6.124-.984-9.226a37.81 37.81 0 0 0 1.905-2.621zm-84.11 8.357c.542-.526 1.203-1.622 2.073-.893 1.424 1.125 3.983 1.062 4.447 3.136.926 4.446 2.005 8.882 2.435 13.413.203 2.322.248 4.729-.6 6.938-1.49-.243-3.044-.548-4.203-1.582-4.497-3.695-6.599-9.74-6.119-15.464.243-1.932.532-4.096 1.967-5.548zm74.019 5.085l4.39-5.86c.915 5.809.876 11.702.621 17.555-1.435 3.317-4.734 5.124-7 7.774-1.746 1.989-3.966 3.791-4.706 6.436-1.006 3.853-1.69 7.79-2.746 11.638-.215.82-1.102 1.142-1.718 1.605-3.836 2.271-7.576 4.723-11.531 6.791-4.904-2.006-10.074-3.407-14.712-6.006-1.498-.638-1.944-2.31-2.503-3.684-1.119-3.361-2.65-6.587-4.47-9.616-3.497-2.282-7.452-3.802-10.994-6.022-1.814-1.328-3.718-2.87-4.334-5.136-1.497-5.147-3.022-10.35-3.27-15.74 3.135 2.203 5.559 5.44 9.112 7.016 1.882.108 3.763-.056 5.645-.079.135 3.147 1.943 6.334 4.966 7.498 2.085.712 4.723.96 6.492-.627 2.322-1.786 3.164-4.78 3.435-7.577 1.768-2.05 3.3-4.723 6.147-5.367 2.35-.452 3.825 1.808 5.158 3.339-.17 2.4.678 4.774 2.187 6.627 2.83 3.656 9.644 2.729 11.283-1.633.841-1.74.66-3.717.683-5.593 2.181-.548 4.362-1.13 6.475-1.921.661-.215.96-.921 1.39-1.418zm-26.12 21.47c-2.717.372-5.231-1.865-7.96-1.244 2.011 1.955 4.678 3.424 7.401 4.029 3.158-.887 5.927-3 7.904-5.582-2.69.079-4.938 1.796-7.345 2.796zm13.577 1.423c-6.751 2.22-13.3 5.175-20.306 6.526.678.808 1.74.955 2.746.78 5.515-.78 10.65-3.029 15.876-4.831 1.69-.684 3.48-1.424 4.65-2.893-1.005.034-2.017.085-2.966.418zm43.905 73.37c2.842-.673 6.017-1.232 8.746.146 2.498 1.385 5.147 2.577 7.323 4.464 2.638 2.316 4.655 5.232 6.514 8.192 1.57 2.65 2.147 5.73 2.316 8.769.305 1.56.3 3.158.085 4.734-.503 3.752-.361 7.814-2.249 11.21-2.18 2.418-5.243 3.768-7.802 5.729-2.729 2.011-6.407 1.457-9.243-.023-2.497 2.56-7.198 3.983-10.046 1.226-2.09.3-4.096 1.407-6.248.96-1.718-.084-3.085-1.327-4.142-2.57-1.062-1.418-.232-3.181-.028-4.729 1.164-7.707 2.04-15.492 4.096-23.029-4.972.678-10.238 1.09-15.085-.458-1.746-.61-3.82-1.248-4.43-3.22-1.237-2.074-.395-5.136 2.09-5.752 3.905-.214 7.747 1.814 11.657 1.096 5.316-2.599 10.695-5.226 16.446-6.746zm-95.906 18.96c3.344-1.18 6.966-2.457 10.525-1.44 2.272 1.395 4.266 3.277 5.86 5.412 3.485 4.701 6.717 9.588 9.508 14.741.802 1.48 2.04 3.147 1.215 4.904-.746 2.068-3.147 2.356-5.029 2.622-1.938.339-3.345-1.322-4.446-2.656-3.627-4.887-6.232-10.672-10.921-14.684 2.463 4.226 4.7 8.594 6.616 13.102 1.005 2.385 1.231 4.99 2.067 7.419.673 1.542.385 3.598-1.27 4.372-2.357.61-4.837 1.097-7.278.78-1.215-.135-2.175-1.05-3.373-1.22-1.542.424-2.96 1.237-4.542 1.537-2.588.632-5.277-.13-7.87.497-2.882.678-5.877.101-8.594-.927-3.17-1.265-5.345-4.113-6.848-7.073a20.88 20.88 0 0 1-1.565-3.955 31.05 31.05 0 0 1-.367-8.916c.209-2.158 2.215-3.322 3.893-4.305 7.367-3.627 14.418-8.063 22.419-10.21z" fill="#fccda3"/><path d="M377.611 51.451c1.283-2.27 3.356-3.83 5.888-4.474l-1.904 2.621-3.797 4.96-4.39 5.86c-.43.497-.73 1.203-1.39 1.418-2.113.79-4.294 1.373-6.475 1.92l-.073-2.095c1.972-.39 3.881-1.012 5.78-1.656 2.005-2.932 4.277-5.678 6.361-8.554zm-71.652 4.43c2.283-.31 3.803 1.565 5.34 2.91 2.638 2.3 5.31 4.638 8.322 6.446 1.836.21 3.695-.028 5.537-.107l.034 1.96c-1.882.023-3.763.187-5.645.08-3.553-1.577-5.977-4.814-9.113-7.018-1.616-1.282-3.271-2.57-4.475-4.271zm33.696 7.836c1.695-2.3 4.063-4.53 7.057-4.74 2.102-.192 3.684 1.367 5.108 2.667l-.43 2.712c-1.333-1.531-2.808-3.791-5.158-3.34-2.848.645-4.379 3.317-6.147 5.368l-.43-2.667z" fill="#847972"/><path d="M354 58.468c3.673-2.83 10.069-1.514 11.47 3.193l.073 2.096c-.022 1.876.158 3.853-.683 5.593-1.639 4.362-8.453 5.289-11.283 1.633-1.509-1.853-2.356-4.226-2.187-6.627.096-.91.243-1.814.43-2.712.587-1.141 1.214-2.305 2.18-3.175zm5.181 5.888c-2.565 1.294-3.452 5.328-1.367 7.424 2.656 1.91 5.865-1.362 5.464-4.142.542-2.328-2.046-3.96-4.097-3.282zm-34.023.774c.66-3.712 4.152-6.938 8.045-6.503 3.023-.04 5.656 2.231 6.452 5.09.164.882.305 1.774.43 2.667-.272 2.797-1.113 5.791-3.435 7.577-1.769 1.587-4.407 1.338-6.492.627-3.023-1.164-4.83-4.35-4.966-7.498l-.034-1.96zm7.627 1.525c-3.034 1.486-2.842 7.368.955 7.644 3.424.006 4.977-4.508 3.345-7.141-1.074-1.141-2.984-1.401-4.3-.503zm27.77-.43c1.316-.615 1.779 2.153.316 1.848-.933.125-1.215-1.672-.317-1.847zm-25.889 2.26c.758-1.344 2.515.61 1.34 1.317-.82.95-1.712-.565-1.34-1.316z"/><path d="M359.181 64.356c2.051-.678 4.639.955 4.097 3.282.4 2.78-2.808 6.051-5.464 4.142-2.085-2.096-1.198-6.13 1.367-7.424zm1.373 1.87c-.898.175-.615 1.972.317 1.847 1.463.305 1-2.463-.317-1.847zm-27.769.43c1.316-.9 3.226-.64 4.3.502 1.633 2.633.079 7.147-3.345 7.141-3.797-.276-3.989-6.158-.955-7.644zm1.881 1.83c-.372.751.52 2.265 1.34 1.316 1.175-.706-.582-2.661-1.34-1.316zm337.48 82.296l79.115-9.526v4.74l-58.228 7.097-81.867 9.379L505.74 175.94c-10.77 1.684-21.623 2.718-32.437 4.023l-21.203 1.723c-7.447.469-14.877 1.401-22.346 1.3.215-1.577.22-3.176-.085-4.735 6.26.005 12.492-.616 18.735-1.068 11.984-1.006 24.024-1.605 35.928-3.407 14.955-1.3 29.724-4.102 44.606-5.994 47.645-6.385 95.432-11.656 143.208-17.001zm-299.213 21.696l6.074-1.176c4.848 1.549 10.113 1.136 15.085.458-2.056 7.537-2.932 15.323-4.096 23.029-3.695.814-7.424 1.463-11.13 2.226-.441-1.667-.718-3.379-1.238-5.023-1.938-.293-3.994.769-6.011.803-1.271-.034-3.328.672-3.91-.899-.621-.875.26-1.887 1.017-2.3 2.463-1.293 5.311-1.446 7.893-2.417l-1.446-5.854c-3.074.39-6.08 1.543-9.204 1.305-1.373-.491-1.525-2.678-.232-3.327 2.582-1.294 5.52-1.605 8.238-2.56l-1.04-4.265zm-47.685 7.135l15.334-2.005c2.164 7.717 3.509 15.639 4.684 23.56-6.916 1.69-13.955 2.915-21.007 3.892-.836-2.429-1.062-5.034-2.067-7.418-1.916-4.508-4.153-8.876-6.616-13.102 4.689 4.012 7.294 9.797 10.92 14.684 1.102 1.334 2.51 2.995 4.447 2.656 1.882-.266 4.283-.554 5.029-2.622.824-1.757-.413-3.424-1.215-4.904-2.791-5.153-6.023-10.04-9.509-14.74zM249.545 200.7c7.695-.706 15.447-.413 23.142-1.153 3.402-.3 6.814-.53 10.232-.474a20.91 20.91 0 0 0 1.565 3.955c-3.361.118-6.723.31-10.062.706-8.43 1.118-16.955 1.079-25.425 1.785-12.045.989-24.153.554-36.204 1.458l-1.023.424c-.723-.356-1.525-.39-2.31-.328-10.165.763-20.363.435-30.55.593l-75.685.011c-27.877-.101-55.754.266-83.624-.305-6.701-.712-13.464-1.135-20.1-2.339v-2.904l18.964.69 25.99.112 140.653-.062c8.809-.005 17.634-.079 26.425-.52 12.639-1.163 25.368-.548 38.012-1.65z" fill="#3e2723"/><path d="M347.288 81.887c2.407-1 4.656-2.717 7.345-2.796-1.977 2.582-4.746 4.695-7.904 5.582-2.723-.605-5.39-2.074-7.401-4.029 2.729-.621 5.243 1.616 7.96 1.243zm13.577 1.424c.95-.333 1.96-.384 2.966-.418-1.17 1.469-2.96 2.21-4.65 2.893-5.226 1.802-10.362 4.05-15.876 4.83-1.005.175-2.068.029-2.746-.78 7.006-1.35 13.554-4.305 20.306-6.525z" fill="#dba378"/><path d="M388.453 83.294c10.408.7 20.865 1.057 31.16 2.893 14.006 2.57 27.938 5.548 41.797 8.842 4.837 1.073 9.47 2.864 14.159 4.435 3.277 1.136 6.633 2.074 9.757 3.616 5.537 2.678 11.684 4.31 16.526 8.26 5.61 4.215 9.52 10.385 11.944 16.905 1.859 6.474 1.367 13.43-.265 19.893-.701 4.198-2.684 8.17-5.594 11.271-3.684 3.56-8.107 6.227-12.373 9.012-3.446 2.356-7.43 3.695-11.232 5.356-11.904 1.802-23.944 2.401-35.928 3.407-6.243.452-12.475 1.073-18.735 1.068-.17-3.04-.745-6.12-2.316-8.769-1.859-2.96-3.876-5.876-6.514-8.192-2.176-1.887-4.825-3.08-7.323-4.464-2.729-1.378-5.904-.819-8.746-.146-5.751 1.52-11.13 4.147-16.446 6.745-3.91.718-7.752-1.31-11.656-1.096-2.486.616-3.328 3.678-2.09 5.752.61 1.972 2.683 2.61 4.429 3.22-2.045.294-4.063.74-6.074 1.176a153.26 153.26 0 0 1 1.04 4.265c-2.718.955-5.656 1.266-8.238 2.56-1.294.65-1.141 2.836.232 3.327 3.124.238 6.13-.915 9.204-1.305.525 1.938.988 3.893 1.446 5.854-2.582.971-5.43 1.124-7.893 2.418-.757.412-1.639 1.424-1.017 2.3.582 1.57 2.639.864 3.91.898 2.017-.034 4.073-1.096 6.011-.803.52 1.644.797 3.356 1.238 5.023l11.13-2.226c-.204 1.548-1.034 3.31.028 4.729 1.057 1.243 2.424 2.486 4.142 2.57 2.152.447 4.158-.66 6.248-.96 2.848 2.757 7.549 1.334 10.046-1.226 2.836 1.48 6.514 2.034 9.243.023 2.56-1.96 5.622-3.311 7.802-5.73 1.888-3.395 1.746-7.457 2.25-11.209 7.468.102 14.898-.83 22.344-1.3.35 7.77 1.153 15.504 1.554 23.262-.028 4.14.757 8.226.785 12.361.187 9.718-.073 19.436-.05 29.148-65.155-.028-130.31.006-195.464-.017l.95-16.633c.112-5.08.05-10.158.073-15.238-6.588 1.707-13.487 2.034-20.25 1.498-9.808-.605-19.616-3.35-27.927-8.667l1.023-.424c12.051-.904 24.159-.47 36.204-1.458 8.47-.706 16.995-.667 25.425-1.785 3.339-.396 6.7-.588 10.062-.706 1.503 2.96 3.678 5.808 6.848 7.073 2.717 1.028 5.712 1.605 8.593.927 2.594-.627 5.283.135 7.87-.497 1.583-.3 3-1.113 4.543-1.537 1.198.17 2.158 1.085 3.373 1.22 2.44.317 4.921-.17 7.277-.78 1.656-.774 1.944-2.83 1.271-4.372 7.052-.978 14.091-2.204 21.007-3.893-1.175-7.921-2.52-15.843-4.684-23.56l-15.334 2.005c-1.593-2.135-3.587-4.017-5.859-5.412-3.56-1.017-7.18.26-10.525 1.44-8 2.147-15.052 6.583-22.42 10.21-1.677.983-3.683 2.147-3.892 4.305a31.05 31.05 0 0 0 .367 8.916c-3.418-.057-6.83.175-10.232.474-7.695.74-15.447.447-23.142 1.153-12.644 1.102-25.373.486-38.012 1.65a63.323 63.323 0 0 0-5.48-.057c-4.289-4.35-7.035-10.006-8.283-15.95-.497-2.904.39-5.762 1.005-8.576 1.012-5.17 3.712-9.803 6.628-14.12 3.18-4.677 7.492-8.384 11.424-12.395 2.237-2.622 4.57-5.204 7.39-7.22 4.548-3.6 9.226-7.03 13.983-10.357 10.04-7.26 20.696-13.593 31.075-20.345 4.712-3.266 10.085-5.345 15.153-7.972 5.034-2.379 9.927-5.124 15.266-6.786a44.715 44.715 0 0 0 6.667-2.796c1.152.853 2.632 1.333 3.582 2.418-.39 2.226-1.594 4.418-1.029 6.723.52 2.034 1.48 3.983 2.83 5.588 1.385 1.565 3.611 1.627 5.527 1.932.672 1.944 1.339 4.046 3.034 5.368 2.248 1.977 5.4 1.977 8.226 2.005 1.248 1.695 2.395 3.814 4.604 4.35 2.379.803 4.825-.118 6.944-1.197 1.56 1.44 3.187 3.22 5.531 3.074 2.176.265 3.96-1.12 5.6-2.334 2.067 1.045 4.39 2.44 6.78 1.644 2.27-.474 3.847-2.26 5.372-3.859 2.09.334 4.215 1.22 6.34.673 2.423-1.023 3.83-3.43 4.96-5.678 1.407-.34 3.096-.311 4.13-1.492 1.271-1.249 1.627-3.045 2.04-4.706 1.91-.73 4.062-1.486 5.175-3.328.859-2.034-.006-4.215-.18-6.294 1.067-.83 2.395-1.656 2.604-3.119.548-2.277-.198-4.548-1.141-6.599 2.327-1.898 2.26-5.096 1.163-7.65z" fill="#bf360c"/></g></svg>