<svg role="img" aria-hidden="true" focusable="false" xmlns="http://www.w3.org/2000/svg" viewBox="0 0 254 96"><defs><radialGradient id="e" cx="131.18" cy="64.28" r="9.34" fx="131.18" fy="64.28" gradientTransform="matrix(1 0 0 -1 0 98)" gradientUnits="userSpaceOnUse"><stop offset="0" stop-color="#9fda4f"/><stop offset="1" stop-color="#77b227"/></radialGradient><radialGradient id="g" cx="124.98" cy="46.26" r="7.48" fx="124.98" fy="46.26" gradientTransform="matrix(1 0 0 -1 0 98)" gradientUnits="userSpaceOnUse"><stop offset="0" stop-color="#fec228"/><stop offset=".22" stop-color="#fbb81e"/><stop offset="1" stop-color="#f49a00"/></radialGradient><radialGradient id="h" cx="116.92" cy="35.54" r="3.66" fx="116.92" fy="35.54" gradientTransform="matrix(1 0 0 -1 0 98)" gradientUnits="userSpaceOnUse"><stop offset="0" stop-color="#ff4e47"/><stop offset="1" stop-color="#ed261f"/></radialGradient><linearGradient id="a" x1="-1.92" x2="258.06" y1="97.88" y2="1.33" gradientTransform="matrix(1 0 0 -1 0 98)" gradientUnits="userSpaceOnUse"><stop offset=".17" stop-color="#e6aacb"/><stop offset=".39" stop-color="#d88fb7"/><stop offset=".7" stop-color="#c971a1"/><stop offset=".87" stop-color="#c46699"/></linearGradient><linearGradient id="c" x1="93.51" x2="160.26" y1="59.73" y2="34.94" gradientTransform="matrix(1 0 0 -1 0 98)" gradientUnits="userSpaceOnUse"><stop offset=".17" stop-color="#a61e69"/><stop offset=".33" stop-color="#951f5f"/><stop offset=".67" stop-color="#77234e"/><stop offset=".87" stop-color="#6c2548"/></linearGradient><linearGradient id="d" x1="139.71" x2="147.97" y1="68.89" y2="62.04" gradientTransform="matrix(1 0 0 -1 0 98)" gradientUnits="userSpaceOnUse"><stop offset="0" stop-color="#374151" stop-opacity=".4"/><stop offset=".92" stop-color="#111827" stop-opacity=".02"/></linearGradient></defs><path fill="url(#a)" d="M-7.4 0h268.8v96H-7.4z"/><path fill="url(#c)" d="M152.68 31.91v51.56h-45.64c-3.16 0-5.73-2.57-5.73-5.73V18.27c0-3.16 2.57-5.73 5.73-5.73h26.37c5.55 7.58 11.97 14.04 19.26 19.37Z"/><path fill="url(#d)" d="m134.83 29.9 17.85 17.95V31.91z"/><path fill="url(#e)" d="M141.4 29.28a9.34 9.34 0 0 0-12.72 3.54c-2.54 4.49-.95 10.18 3.54 12.72s10.18.95 12.72-3.54a9.34 9.34 0 0 0-3.54-12.72"/><path fill="url(#g)" d="M131.96 48.7h-.03c-3.1-1.71-6.72-.5-8.31 2.31a6.097 6.097 0 0 0 2.31 8.31c2.93 1.65 6.64.61 8.3-2.32a6.11 6.11 0 0 0-2.28-8.3"/><path fill="url(#h)" d="M123.4 64.27c0-1.28-.67-2.52-1.86-3.19a3.7 3.7 0 0 0-1.8-.48c-2.02 0-3.66 1.63-3.66 3.66s1.63 3.66 3.66 3.66 3.66-1.63 3.66-3.66"/><path fill="#fff" d="M109.01 57.44v3.32c2.06-.08 3.66-.76 5.03-2.14 1.36-1.38 2.61-3.62 3.8-6.94l8.82-23.61h-4.26l-7.1 19.73-3.52-11.06h-3.9l5.18 13.31c.5 1.28.5 2.7 0 3.98-.52 1.35-1.46 2.94-4.03 3.42Z"/><path fill="#e2accc" d="M133.42 26.18V12.54l19.26 19.37h-13.53c-3.16 0-5.73-2.57-5.73-5.73"/></svg>