<svg width="254" height="96" fill="none" xmlns="http://www.w3.org/2000/svg"><path fill="#5D237A" d="M0 0h254v96H0z"/><g clip-path="url(#clip0_23_505)"><path fill="#5D237A" d="M86 8h80v80H86z"/><path d="M98.8 8h54.4A12.799 12.799 0 0 1 166 20.8V88H98.8A12.8 12.8 0 0 1 86 75.2V20.8A12.8 12.8 0 0 1 98.8 8z" fill="#5D237A"/><path d="M131.411 66.643H95.632V14.405h28.344l7.435 7.235v45.003z" fill="#fff"/><path d="M123.976 21.64h7.395l-7.395-7.235v7.235z" fill="#fff"/><path d="M131.663 21.382l-7.423-7.224-.011-.01a.3.3 0 0 0-.075-.054l-.021-.01a.32.32 0 0 0-.086-.03.427.427 0 0 0-.064 0h-28.35a.36.36 0 0 0-.353.346v52.243a.36.36 0 0 0 .36.36h35.771a.36.36 0 0 0 .36-.36V21.64a.362.362 0 0 0-.108-.258zm-1.175-.102h-6.152v-6.02l6.152 6.02zM95.992 66.283v-51.52h27.624v6.88a.359.359 0 0 0 .36.36h7.075v44.28H95.992z" fill="#A4286A"/><path d="M106.509 40.144a3.164 3.164 0 0 1-1-.382c-.084-.048-.13-.08-.184-.117l-.13-.091c-.085-.064-.16-.132-.245-.204a3.37 3.37 0 0 1-.52-.601 3.196 3.196 0 0 1-.16-.272 3.292 3.292 0 0 1-.4-1.571v-9.463c0-.548.138-1.088.4-1.57.049-.093.102-.184.16-.273.059-.086.123-.173.192-.254.202-.247.439-.462.703-.64.088-.06.179-.116.272-.16a3.263 3.263 0 0 1 1.571-.4h8.189l.32-.884h-8.504a4.192 4.192 0 0 0-4.188 4.186v9.466a4.195 4.195 0 0 0 4.188 4.187h.547v-.885h-.547a3.306 3.306 0 0 1-.664-.072zm14.265-16.624l-.067-.024-.307.824.069.026a3.4 3.4 0 0 1 .417.19c.093.051.184.107.272.16a3.339 3.339 0 0 1 .895.894c.059.095.115.181.16.274a3.31 3.31 0 0 1 .4 1.57v12.768h-8.354l-.022.037c-.148.259-.301.505-.458.732l-.078.116h9.798V27.443a4.212 4.212 0 0 0-2.725-3.923z" fill="#A4286A"/><path d="M108.768 40.29v2.22c1.376-.052 2.45-.51 3.36-1.427.939-.944 1.746-2.416 2.539-4.64l5.893-15.768h-2.853l-4.742 13.171-2.359-7.385H108l3.461 8.89a3.658 3.658 0 0 1 0 2.66c-.352.903-.981 1.963-2.693 2.279z" fill="#A4286A"/><path d="M156.368 81.595h-35.779V29.357h28.345l7.434 7.235v45.003z" fill="#fff"/><path d="M148.934 36.592h7.396l-7.396-7.235v7.235z" fill="#fff"/><path d="M156.619 36.334l-7.434-7.235a.3.3 0 0 0-.076-.054l-.02-.011a.368.368 0 0 0-.088-.03.468.468 0 0 0-.067 0h-28.345a.36.36 0 0 0-.36.36V81.6a.358.358 0 0 0 .36.36h35.779a.359.359 0 0 0 .36-.36V36.592a.355.355 0 0 0-.109-.258zm-1.173-.102h-6.152v-6.02l6.152 6.02zm-34.497 45.003v-51.52h27.625v6.88a.358.358 0 0 0 .36.36h7.074v44.28h-35.059z" fill="#A4286A"/><path d="M131.468 54.42a4.128 4.128 0 0 1-.32-.08 2.809 2.809 0 0 1-.45-.18 4.83 4.83 0 0 1-.23-.123 2.072 2.072 0 0 1-.184-.115c-.053-.037-.088-.061-.13-.093a3.39 3.39 0 0 1-.765-.805 2.292 2.292 0 0 1-.16-.272 3.304 3.304 0 0 1-.4-1.571V41.72a3.304 3.304 0 0 1 .4-1.571c.051-.093.107-.184.16-.272a3.344 3.344 0 0 1 .895-.894c.088-.06.179-.116.272-.16a3.29 3.29 0 0 1 1.571-.4h8.193l.32-.884h-8.508a4.192 4.192 0 0 0-4.188 4.187v9.458a4.195 4.195 0 0 0 4.188 4.187h.545v-.883h-.545a3.28 3.28 0 0 1-.664-.067zm14.265-16.623l-.069-.026-.304.829.068.026c.144.053.284.117.419.192.093.048.184.102.272.16a3.344 3.344 0 0 1 .894.894c.058.088.111.179.16.272.263.482.401 1.022.402 1.571v12.768h-8.359l-.02.037a11.29 11.29 0 0 1-.458.733l-.078.113h9.798V41.72a4.205 4.205 0 0 0-2.725-3.923z" fill="#A4286A"/><path d="M133.726 54.56v2.22c1.376-.054 2.448-.511 3.36-1.428.939-.942 1.746-2.414 2.539-4.632l5.885-15.774h-2.845l-4.742 13.17-2.359-7.38h-2.606l3.461 8.89a3.658 3.658 0 0 1 0 2.66c-.352.904-.979 1.965-2.693 2.274z" fill="#A4286A"/><path d="M127.866 58.5l11.414 10.018-11.406 9.493v-5.59s-14.858.712-15.909-16.81c4.352 9.12 15.909 8.405 15.909 8.405l-.008-5.515z" fill="#96CB06"/></g><defs><clipPath id="clip0_23_505"><path fill="#fff" transform="translate(86 8)" d="M0 0h80v80H0z"/></clipPath></defs></svg>