<svg width="130" height="60" viewBox="0 0 339 157" xmlns="http://www.w3.org/2000/svg" fill-rule="evenodd" clip-rule="evenodd" stroke-linejoin="round" stroke-miterlimit="1.414"><g fill="#35495c" fill-rule="nonzero"><path d="M206.613 15.378C197.114 5.876 183.985 0 169.488 0c-14.501 0-27.628 5.876-37.13 15.378-9.504 9.502-15.38 22.631-15.38 37.13 0 14.499 5.876 27.628 15.378 37.13 9.502 9.504 22.631 15.378 37.132 15.378 14.499 0 27.628-5.879 37.127-15.378 9.502-9.504 15.378-22.631 15.378-37.13 0-14.499-5.878-27.628-15.38-37.13zm-1.732 72.524c-9.057 9.058-21.572 14.661-35.395 14.661-13.823 0-26.339-5.603-35.397-14.661s-14.661-21.572-14.661-35.394c0-13.823 5.603-26.337 14.661-35.395 9.058-9.058 21.572-14.661 35.395-14.661 13.823 0 26.337 5.603 35.395 14.661 9.058 9.058 14.66 21.572 14.66 35.395.002 13.822-5.601 26.337-14.658 35.394z"/><path d="M214.656 52.07c-.236-24.746-20.367-44.734-45.168-44.734-24.803 0-44.936 19.99-45.168 44.736l20.712-20.712 6.946 6.946-15.157 15.157h65.333l-15.157-15.157 6.946-6.946 20.713 20.71zm-45.17-7.762L150.24 24.112h12.79v-9.955c0-2.584 2.906-4.702 6.456-4.702 3.55 0 6.456 2.116 6.456 4.702v9.955h12.79l-19.246 20.196zM175.1 77.93c-1.026-.667-2.326-1.267-3.894-1.788-1.199-.413-2.186-.803-2.956-1.179-.764-.372-1.328-.785-1.689-1.221-.37-.444-.543-.976-.543-1.586 0-.488.147-.952.462-1.391.309-.438.792-.803 1.448-1.079.663-.28 1.507-.431 2.555-.436.844.004 1.615.072 2.312.193.689.125 1.3.276 1.823.449.53.179.958.348 1.295.507l1.166-3.516c-.705-.354-1.588-.648-2.66-.886-.91-.201-1.952-.317-3.135-.357v-3.638h-3.205v3.82c-.514.083-1.007.195-1.473.33-1.179.348-2.192.831-3.03 1.462-.831.628-1.475 1.363-1.917 2.205-.444.842-.663 1.77-.672 2.768.006 1.155.309 2.173.906 3.052.597.88 1.448 1.643 2.547 2.297 1.094.652 2.4 1.214 3.91 1.687 1.133.363 2.057.742 2.761 1.131.705.387 1.221.814 1.542 1.28.328.466.49 1.006.484 1.61 0 .663-.195 1.238-.575 1.735-.376.49-.932.875-1.663 1.148-.731.276-1.623.411-2.669.42a15.281 15.281 0 0 1-2.481-.217 15.934 15.934 0 0 1-2.24-.562 11.92 11.92 0 0 1-1.838-.766l-1.127 3.662c.51.28 1.146.532 1.925.764.779.234 1.636.42 2.575.562.932.138 1.89.208 2.864.217l.171-.002v3.761h3.205v-4.063a12.43 12.43 0 0 0 1.162-.282c1.286-.387 2.354-.915 3.199-1.591.851-.67 1.481-1.446 1.899-2.321a6.4 6.4 0 0 0 .624-2.787c0-1.155-.247-2.177-.757-3.056-.515-.887-1.281-1.664-2.311-2.336z"/></g><path d="M3.999 141.181c0 .701.099 1.38.298 2.034a4.99 4.99 0 0 0 .894 1.719c.397.491.9.883 1.508 1.175.608.293 1.333.439 2.175.439 1.169 0 2.11-.251 2.824-.754.713-.502 1.245-1.256 1.596-2.262h3.788a7.544 7.544 0 0 1-1.087 2.631 7.563 7.563 0 0 1-1.859 1.946 8.036 8.036 0 0 1-2.438 1.193 9.852 9.852 0 0 1-2.824.403c-1.427 0-2.689-.234-3.788-.701a7.828 7.828 0 0 1-2.789-1.965c-.76-.842-1.333-1.847-1.719-3.016-.385-1.17-.578-2.456-.578-3.859 0-1.286.205-2.508.614-3.665a9.387 9.387 0 0 1 1.754-3.052 8.378 8.378 0 0 1 2.754-2.087c1.075-.514 2.291-.772 3.648-.772 1.426 0 2.706.298 3.841.894a8.437 8.437 0 0 1 2.824 2.368c.748.982 1.292 2.111 1.631 3.385.339 1.275.427 2.59.263 3.946H3.999zm9.33-2.631a6.468 6.468 0 0 0-.404-1.824 4.885 4.885 0 0 0-.912-1.526 4.534 4.534 0 0 0-1.403-1.052 4.132 4.132 0 0 0-1.841-.404c-.702 0-1.339.123-1.912.369a4.369 4.369 0 0 0-1.473 1.017 5.038 5.038 0 0 0-.982 1.526 5.306 5.306 0 0 0-.403 1.894h9.33zm22.238 6.63c0 .491.064.842.193 1.052.128.21.38.316.754.316h.421c.163 0 .351-.023.561-.07v2.771c-.14.047-.322.099-.544.158-.223.058-.45.111-.684.158a7.387 7.387 0 0 1-1.298.14c-.819 0-1.497-.164-2.034-.491-.538-.327-.889-.9-1.052-1.719-.795.771-1.771 1.333-2.929 1.683-1.157.351-2.274.526-3.35.526a8.215 8.215 0 0 1-2.35-.333 6.15 6.15 0 0 1-1.982-.982 4.705 4.705 0 0 1-1.368-1.649c-.339-.666-.509-1.444-.509-2.333 0-1.122.204-2.034.614-2.736a4.557 4.557 0 0 1 1.613-1.649 7.278 7.278 0 0 1 2.245-.859c.83-.175 1.666-.31 2.508-.404.725-.14 1.415-.239 2.069-.298a9.71 9.71 0 0 0 1.736-.298c.503-.14.9-.356 1.193-.649.292-.292.438-.73.438-1.315 0-.514-.123-.935-.368-1.263a2.479 2.479 0 0 0-.912-.754 3.972 3.972 0 0 0-1.21-.351 9.788 9.788 0 0 0-1.263-.088c-1.122 0-2.047.234-2.771.702-.725.468-1.135 1.193-1.228 2.175h-3.999c.07-1.169.351-2.14.842-2.911a5.816 5.816 0 0 1 1.877-1.859 7.688 7.688 0 0 1 2.578-.982 15.35 15.35 0 0 1 2.946-.281c.888 0 1.765.094 2.631.281a7.5 7.5 0 0 1 2.333.912 5.065 5.065 0 0 1 1.666 1.631c.421.666.631 1.479.631 2.438v9.331h.002zm-3.998-5.052c-.608.398-1.356.638-2.245.719-.889.082-1.777.205-2.666.369-.421.07-.83.17-1.228.298a3.69 3.69 0 0 0-1.052.526 2.316 2.316 0 0 0-.719.877c-.175.363-.263.801-.263 1.315 0 .445.128.819.386 1.123.257.304.567.543.93.719.362.175.759.298 1.193.368.432.071.824.105 1.175.105.444 0 .924-.058 1.438-.175.514-.117 1-.316 1.456-.596.456-.28.836-.636 1.14-1.07.304-.432.456-.964.456-1.596v-2.982h-.001zm11.329 3.262c.117 1.17.561 1.988 1.333 2.456.772.468 1.695.701 2.771.701.374 0 .801-.029 1.28-.088.479-.058.93-.169 1.351-.333a2.531 2.531 0 0 0 1.035-.719c.268-.316.391-.731.368-1.245-.024-.514-.21-.935-.561-1.263-.351-.327-.801-.59-1.35-.789a13.15 13.15 0 0 0-1.877-.509 85.428 85.428 0 0 1-2.14-.456 19.787 19.787 0 0 1-2.157-.596 6.942 6.942 0 0 1-1.859-.947 4.36 4.36 0 0 1-1.315-1.526c-.328-.619-.491-1.386-.491-2.298 0-.982.239-1.806.719-2.473a5.506 5.506 0 0 1 1.824-1.613 7.934 7.934 0 0 1 2.455-.859c.9-.163 1.759-.245 2.578-.245.935 0 1.829.1 2.683.298a7.311 7.311 0 0 1 2.315.965 5.684 5.684 0 0 1 1.719 1.736c.456.714.742 1.573.86 2.578h-4.174c-.188-.958-.626-1.601-1.316-1.929-.69-.327-1.479-.491-2.368-.491-.281 0-.614.024-.999.07a4.647 4.647 0 0 0-1.087.263 2.29 2.29 0 0 0-.859.561c-.234.246-.351.567-.351.965 0 .491.169.889.509 1.193.339.304.783.556 1.333.754.549.199 1.175.368 1.876.508.702.14 1.426.293 2.175.456.724.164 1.438.363 2.14.596.701.234 1.327.55 1.877.947a4.6 4.6 0 0 1 1.333 1.508c.339.609.508 1.356.508 2.245 0 1.076-.246 1.988-.737 2.736a5.805 5.805 0 0 1-1.912 1.824 8.677 8.677 0 0 1-2.613 1.017c-.959.21-1.906.316-2.841.316-1.146 0-2.204-.129-3.174-.386-.971-.257-1.812-.649-2.525-1.175a5.66 5.66 0 0 1-1.684-1.964c-.409-.784-.626-1.713-.649-2.789h3.997zm13.188-12.311h4.385l4.735 13.539h.07l4.595-13.539h4.174l-7.05 19.116a142.32 142.32 0 0 1-.965 2.35 8.449 8.449 0 0 1-1.157 1.982 5 5 0 0 1-1.701 1.368c-.678.339-1.543.509-2.596.509-.936 0-1.859-.07-2.771-.21v-3.368c.327.047.643.1.947.158.304.058.619.088.947.088.467 0 .853-.058 1.157-.175a1.93 1.93 0 0 0 .754-.509c.198-.223.368-.486.509-.79.14-.304.268-.655.386-1.052l.456-1.403-6.875-18.064zm34.094 18.134v-3.438h-.07a5.2 5.2 0 0 1-1.035 1.614 6.68 6.68 0 0 1-1.561 1.245 8.07 8.07 0 0 1-1.877.789 7.308 7.308 0 0 1-1.982.281c-1.38 0-2.578-.251-3.595-.754a7.19 7.19 0 0 1-2.543-2.069c-.679-.877-1.181-1.894-1.508-3.052a13.386 13.386 0 0 1-.491-3.666c0-1.286.163-2.508.491-3.665.327-1.157.83-2.175 1.508-3.052a7.37 7.37 0 0 1 2.543-2.087c1.017-.514 2.215-.772 3.595-.772.678 0 1.339.082 1.982.245a6.668 6.668 0 0 1 1.807.754 6.366 6.366 0 0 1 1.491 1.245 5.244 5.244 0 0 1 1 1.719h.07v-10.382h2.21v25.044H90.18v.001zm-12.119-6.261a7.713 7.713 0 0 0 1.052 2.473 5.783 5.783 0 0 0 1.842 1.771c.748.456 1.649.684 2.701.684 1.169 0 2.157-.228 2.964-.684a5.854 5.854 0 0 0 1.964-1.771 7.272 7.272 0 0 0 1.087-2.473c.222-.924.333-1.853.333-2.789 0-.935-.111-1.864-.333-2.788a7.32 7.32 0 0 0-1.087-2.473 5.857 5.857 0 0 0-1.964-1.772c-.807-.456-1.795-.684-2.964-.684-1.052 0-1.953.228-2.701.684a5.786 5.786 0 0 0-1.842 1.772 7.69 7.69 0 0 0-1.052 2.473 11.893 11.893 0 0 0-.333 2.788c0 .936.111 1.866.333 2.789zm20.607-18.783v3.543h-2.21v-3.543h2.21zm0 6.945v18.099h-2.21v-18.099h2.21zm19.099 20.239c-.293 1.076-.754 1.988-1.386 2.736-.632.748-1.456 1.321-2.473 1.719-1.017.397-2.263.596-3.736.596a11.21 11.21 0 0 1-2.666-.316 7.566 7.566 0 0 1-2.332-.982 5.83 5.83 0 0 1-1.719-1.701c-.456-.69-.719-1.514-.789-2.473h2.21c.117.678.345 1.245.684 1.702.339.456.748.824 1.228 1.105a5.45 5.45 0 0 0 1.596.614 8.33 8.33 0 0 0 1.789.193c2.057 0 3.543-.585 4.455-1.754.912-1.17 1.368-2.853 1.368-5.051v-2.456h-.07a6.466 6.466 0 0 1-2.262 2.701c-.994.678-2.157 1.017-3.49 1.017-1.45 0-2.689-.24-3.718-.719s-1.877-1.14-2.543-1.982c-.666-.842-1.152-1.829-1.456-2.964a13.97 13.97 0 0 1-.456-3.63c0-1.239.181-2.414.544-3.525.362-1.11.888-2.081 1.578-2.911a7.341 7.341 0 0 1 2.561-1.964c1.017-.479 2.18-.719 3.49-.719a6.36 6.36 0 0 1 1.912.281c.596.188 1.14.45 1.631.789.491.339.93.731 1.316 1.175.386.445.684.912.894 1.403h.07v-3.122h2.21v16.626c-.001 1.332-.148 2.536-.44 3.612zm-5.068-4.823a5.762 5.762 0 0 0 1.824-1.613 7.108 7.108 0 0 0 1.105-2.297 9.7 9.7 0 0 0 .368-2.666c0-.888-.105-1.777-.316-2.666a7.709 7.709 0 0 0-1.017-2.42 5.534 5.534 0 0 0-1.806-1.754c-.737-.444-1.631-.666-2.683-.666-1.052 0-1.953.216-2.701.649a5.76 5.76 0 0 0-1.859 1.701 7.118 7.118 0 0 0-1.07 2.403c-.223.9-.333 1.818-.333 2.754 0 .912.117 1.801.351 2.666a6.82 6.82 0 0 0 1.087 2.297 5.616 5.616 0 0 0 1.859 1.613c.748.41 1.636.614 2.666.614.958-.001 1.8-.205 2.525-.615zm11.961-22.361v3.543h-2.21v-3.543h2.21zm0 6.945v18.099h-2.21v-18.099h2.21zm11.434 0v1.859h-3.683v12.207c0 .725.099 1.292.298 1.701.198.41.696.638 1.491.684.631 0 1.263-.035 1.894-.105v1.859c-.328 0-.655.011-.982.035-.328.023-.655.035-.982.035-1.473 0-2.503-.286-3.087-.86-.585-.573-.865-1.631-.842-3.174v-12.382h-3.157v-1.859h3.157v-5.437h2.21v5.437h3.683zm3.648 2.806a5.183 5.183 0 0 1 1.526-1.894c.643-.491 1.397-.853 2.262-1.087.865-.233 1.824-.351 2.877-.351.794 0 1.59.076 2.385.228a5.785 5.785 0 0 1 2.14.859c.631.421 1.146 1.012 1.543 1.772s.596 1.748.596 2.964v9.611c0 .888.433 1.332 1.298 1.332.257 0 .491-.047.701-.14v1.859c-.257.047-.486.082-.684.105a6.52 6.52 0 0 1-.754.035c-.561 0-1.011-.075-1.35-.228a1.819 1.819 0 0 1-.79-.649 2.432 2.432 0 0 1-.368-1 8.508 8.508 0 0 1-.088-1.281h-.07a14.82 14.82 0 0 1-1.21 1.561 5.98 5.98 0 0 1-1.368 1.14 6.291 6.291 0 0 1-1.719.701c-.643.163-1.409.246-2.297.246-.842 0-1.631-.1-2.367-.298a5.292 5.292 0 0 1-1.929-.947 4.52 4.52 0 0 1-1.298-1.649c-.316-.666-.474-1.455-.474-2.367 0-1.263.281-2.251.842-2.964.562-.713 1.303-1.256 2.227-1.631.924-.374 1.965-.637 3.122-.789 1.157-.152 2.333-.298 3.525-.438.467-.047.877-.105 1.228-.175.351-.07.643-.193.877-.368.233-.175.414-.415.543-.719.128-.304.193-.702.193-1.193 0-.748-.123-1.362-.369-1.841a2.918 2.918 0 0 0-1.017-1.14 4.098 4.098 0 0 0-1.508-.579 10.227 10.227 0 0 0-1.842-.158c-1.403 0-2.549.333-3.437 1-.889.666-1.356 1.736-1.404 3.209h-2.21c.071-1.052.293-1.964.668-2.736zm11.049 5.402c-.141.258-.41.445-.807.561a8.058 8.058 0 0 1-1.052.245c-.936.164-1.9.311-2.894.439-.994.129-1.9.322-2.718.579-.819.258-1.491.626-2.017 1.105-.526.48-.789 1.163-.789 2.052 0 .562.111 1.059.333 1.491.222.433.52.807.894 1.123.374.316.807.556 1.298.719.491.164.994.246 1.508.246.842 0 1.649-.128 2.42-.386a5.951 5.951 0 0 0 2.017-1.123 5.455 5.455 0 0 0 1.368-1.789c.339-.702.509-1.496.509-2.385v-2.876h-.07v-.001zm6.734-15.153h2.21v25.044h-2.21zm23.536 25.044h-3.788v-2.455h-.07c-.538 1.052-1.321 1.806-2.35 2.262a7.965 7.965 0 0 1-3.262.684c-1.427 0-2.672-.251-3.736-.754-1.064-.502-1.947-1.186-2.648-2.052-.702-.865-1.228-1.888-1.578-3.069-.351-1.18-.526-2.449-.526-3.806 0-1.636.222-3.052.666-4.244.444-1.193 1.035-2.175 1.772-2.946a6.852 6.852 0 0 1 2.525-1.701 8.047 8.047 0 0 1 2.894-.544 9.62 9.62 0 0 1 1.719.158 7.559 7.559 0 0 1 1.683.509 6.659 6.659 0 0 1 1.491.894c.456.363.836.789 1.14 1.28h.071v-9.26h3.998v25.044h-.001zm-13.96-8.874c0 .772.099 1.532.298 2.28.198.748.503 1.415.912 1.999.409.585.93 1.053 1.561 1.404.632.35 1.379.526 2.245.526.888 0 1.654-.187 2.298-.561a4.758 4.758 0 0 0 1.578-1.473 6.672 6.672 0 0 0 .912-2.052c.198-.76.298-1.538.298-2.333 0-2.01-.45-3.577-1.351-4.7-.901-1.123-2.122-1.684-3.665-1.684-.936 0-1.725.193-2.368.579a4.862 4.862 0 0 0-1.578 1.508 6.281 6.281 0 0 0-.877 2.105 10.981 10.981 0 0 0-.263 2.402zm26.623 9.365c-1.45 0-2.742-.24-3.876-.719-1.135-.479-2.093-1.14-2.876-1.982-.784-.842-1.38-1.847-1.789-3.017-.409-1.169-.613-2.455-.613-3.859 0-1.379.204-2.653.613-3.823.409-1.169 1.006-2.175 1.789-3.017.783-.842 1.742-1.502 2.876-1.982 1.134-.479 2.426-.719 3.876-.719 1.45 0 2.742.24 3.876.719 1.134.48 2.093 1.14 2.877 1.982.783.842 1.379 1.848 1.789 3.017.409 1.17.614 2.444.614 3.823 0 1.404-.205 2.69-.614 3.859-.409 1.17-1.006 2.175-1.789 3.017-.784.842-1.743 1.503-2.877 1.982-1.134.479-2.427.719-3.876.719zm0-3.157c.888 0 1.66-.187 2.315-.561a4.876 4.876 0 0 0 1.614-1.473 6.434 6.434 0 0 0 .93-2.052 9.219 9.219 0 0 0 0-4.648 6.204 6.204 0 0 0-.93-2.052 4.969 4.969 0 0 0-1.614-1.456c-.655-.374-1.427-.561-2.315-.561-.889 0-1.66.188-2.315.561a4.943 4.943 0 0 0-1.613 1.456 6.204 6.204 0 0 0-.93 2.052 9.174 9.174 0 0 0 0 4.648c.198.76.509 1.444.93 2.052a4.873 4.873 0 0 0 1.613 1.473c.654.375 1.426.561 2.315.561zm10.838-15.468h4.244l3.543 13.539h.071l3.402-13.539h4.034l3.262 13.539h.071l3.683-13.539h4.069l-5.682 18.134h-4.104l-3.367-13.469h-.07l-3.332 13.469h-4.209l-5.615-18.134zm28.937 0h3.788v2.666l.07.07a6.711 6.711 0 0 1 2.385-2.368c.982-.573 2.069-.859 3.262-.859 1.987 0 3.554.515 4.7 1.543 1.146 1.029 1.719 2.573 1.719 4.63v12.452h-3.998v-11.4c-.047-1.426-.351-2.461-.912-3.104-.562-.643-1.438-.965-2.631-.965-.678 0-1.286.123-1.824.369a3.953 3.953 0 0 0-1.368 1.017 4.807 4.807 0 0 0-.877 1.526 5.438 5.438 0 0 0-.316 1.859v10.698h-3.998v-18.134zm20.239-6.91h3.999v25.044h-3.999zm16.661 25.535c-1.45 0-2.742-.24-3.876-.719-1.135-.479-2.093-1.14-2.876-1.982-.784-.842-1.38-1.847-1.789-3.017-.409-1.169-.613-2.455-.613-3.859 0-1.379.204-2.653.613-3.823.409-1.169 1.006-2.175 1.789-3.017.783-.842 1.742-1.502 2.876-1.982 1.134-.479 2.426-.719 3.876-.719 1.45 0 2.742.24 3.876.719 1.134.48 2.093 1.14 2.877 1.982.783.842 1.379 1.848 1.789 3.017.409 1.17.614 2.444.614 3.823 0 1.404-.205 2.69-.614 3.859-.409 1.17-1.006 2.175-1.789 3.017-.784.842-1.743 1.503-2.877 1.982-1.135.479-2.427.719-3.876.719zm0-3.157c.888 0 1.66-.187 2.315-.561a4.876 4.876 0 0 0 1.614-1.473 6.434 6.434 0 0 0 .93-2.052 9.219 9.219 0 0 0 0-4.648 6.204 6.204 0 0 0-.93-2.052 4.969 4.969 0 0 0-1.614-1.456c-.655-.374-1.427-.561-2.315-.561-.889 0-1.66.188-2.315.561a4.943 4.943 0 0 0-1.613 1.456 6.204 6.204 0 0 0-.93 2.052 9.174 9.174 0 0 0 0 4.648c.198.76.509 1.444.93 2.052a4.873 4.873 0 0 0 1.613 1.473c.654.375 1.426.561 2.315.561zm27.674-1.367c0 .491.064.842.193 1.052.128.21.38.316.754.316h.421c.163 0 .35-.023.561-.07v2.771c-.14.047-.321.099-.543.158-.223.058-.451.111-.684.158a7.387 7.387 0 0 1-1.298.14c-.818 0-1.497-.164-2.034-.491-.538-.327-.889-.9-1.052-1.719-.795.771-1.772 1.333-2.929 1.683-1.158.351-2.274.526-3.349.526a8.215 8.215 0 0 1-2.35-.333 6.15 6.15 0 0 1-1.982-.982 4.705 4.705 0 0 1-1.368-1.649c-.339-.666-.509-1.444-.509-2.333 0-1.122.205-2.034.614-2.736a4.552 4.552 0 0 1 1.614-1.649 7.282 7.282 0 0 1 2.244-.859c.83-.175 1.666-.31 2.508-.404.725-.14 1.415-.239 2.069-.298a9.695 9.695 0 0 0 1.736-.298c.503-.14.9-.356 1.193-.649.292-.292.439-.73.439-1.315 0-.514-.123-.935-.369-1.263a2.479 2.479 0 0 0-.912-.754 3.972 3.972 0 0 0-1.21-.351 9.788 9.788 0 0 0-1.263-.088c-1.123 0-2.047.234-2.771.702-.725.468-1.135 1.193-1.228 2.175h-3.999c.071-1.169.351-2.14.842-2.911a5.806 5.806 0 0 1 1.877-1.859 7.671 7.671 0 0 1 2.578-.982 15.36 15.36 0 0 1 2.947-.281c.888 0 1.765.094 2.631.281a7.5 7.5 0 0 1 2.333.912 5.065 5.065 0 0 1 1.666 1.631c.421.666.631 1.479.631 2.438v9.331h-.001zm-3.998-5.052c-.609.398-1.357.638-2.245.719-.889.082-1.777.205-2.666.369-.421.07-.83.17-1.228.298a3.71 3.71 0 0 0-1.053.526 2.326 2.326 0 0 0-.719.877c-.175.363-.263.801-.263 1.315 0 .445.128.819.386 1.123a2.8 2.8 0 0 0 .929.719c.363.175.76.298 1.193.368.432.071.824.105 1.175.105a6.51 6.51 0 0 0 1.438-.175c.515-.117 1-.316 1.456-.596a3.82 3.82 0 0 0 1.14-1.07c.304-.432.456-.964.456-1.596v-2.982h.001zm25.395 9.085h-3.788v-2.455h-.07c-.538 1.052-1.321 1.806-2.35 2.262a7.965 7.965 0 0 1-3.262.684c-1.427 0-2.672-.251-3.736-.754-1.064-.502-1.947-1.186-2.648-2.052-.702-.865-1.228-1.888-1.578-3.069-.351-1.18-.526-2.449-.526-3.806 0-1.636.222-3.052.666-4.244.444-1.193 1.035-2.175 1.772-2.946a6.852 6.852 0 0 1 2.525-1.701 8.047 8.047 0 0 1 2.894-.544 9.62 9.62 0 0 1 1.719.158 7.559 7.559 0 0 1 1.683.509 6.659 6.659 0 0 1 1.491.894c.456.363.836.789 1.14 1.28h.071v-9.26h3.998v25.044h-.001zm-13.96-8.874c0 .772.099 1.532.298 2.28.198.748.503 1.415.912 1.999.409.585.93 1.053 1.561 1.404.632.35 1.379.526 2.245.526.888 0 1.654-.187 2.298-.561a4.758 4.758 0 0 0 1.578-1.473 6.672 6.672 0 0 0 .912-2.052c.198-.76.298-1.538.298-2.333 0-2.01-.45-3.577-1.351-4.7-.901-1.123-2.122-1.684-3.665-1.684-.936 0-1.725.193-2.368.579a4.862 4.862 0 0 0-1.578 1.508 6.281 6.281 0 0 0-.877 2.105 10.92 10.92 0 0 0-.263 2.402zm21.326 3.051c.117 1.17.561 1.988 1.333 2.456.772.468 1.695.701 2.771.701.373 0 .801-.029 1.28-.088.479-.058.93-.169 1.351-.333a2.528 2.528 0 0 0 1.034-.719c.269-.316.392-.731.369-1.245-.024-.514-.211-.935-.561-1.263-.351-.327-.801-.59-1.351-.789a13.17 13.17 0 0 0-1.876-.509 85.428 85.428 0 0 1-2.14-.456 19.787 19.787 0 0 1-2.157-.596 6.942 6.942 0 0 1-1.859-.947 4.36 4.36 0 0 1-1.315-1.526c-.328-.619-.491-1.386-.491-2.298 0-.982.24-1.806.719-2.473a5.495 5.495 0 0 1 1.824-1.613 7.934 7.934 0 0 1 2.455-.859c.9-.163 1.76-.245 2.578-.245.935 0 1.83.1 2.684.298a7.311 7.311 0 0 1 2.315.965 5.684 5.684 0 0 1 1.719 1.736c.456.714.742 1.573.86 2.578h-4.174c-.187-.958-.626-1.601-1.315-1.929-.69-.327-1.479-.491-2.367-.491-.281 0-.614.024-1 .07a4.647 4.647 0 0 0-1.087.263 2.303 2.303 0 0 0-.86.561c-.234.245-.35.567-.35.965 0 .491.169.889.508 1.193.339.304.784.556 1.333.754.549.199 1.175.368 1.877.508.701.14 1.426.293 2.174.456.725.164 1.438.363 2.14.596a6.93 6.93 0 0 1 1.876.947 4.6 4.6 0 0 1 1.333 1.508c.339.609.509 1.356.509 2.245 0 1.076-.246 1.988-.737 2.736a5.824 5.824 0 0 1-1.912 1.824 8.688 8.688 0 0 1-2.613 1.017c-.959.21-1.906.316-2.841.316-1.146 0-2.204-.129-3.174-.386-.971-.257-1.813-.649-2.526-1.175a5.647 5.647 0 0 1-1.683-1.964c-.41-.784-.626-1.713-.649-2.789h3.996z" fill="#35495c" fill-rule="nonzero"/></svg>