<svg xmlns="http://www.w3.org/2000/svg" width="170" height="70" viewBox="0 0 810 160" fill="none"><g clip-path="url(#clip0)" fill="#92003B"><path d="M505.95 73.98s-6.873 1.642-12.688 3.029l-8.839 2.015h-.081c0-2.388.174-4.905.744-7.224.733-2.97 2.338-6.443 5.129-7.969 3.035-1.654 6.734-1.853 9.944-.57 3.326 1.316 4.849 4.532 5.501 7.864.186.932.302 1.864.395 2.808l-.105.046zm23.051 5.044c0-23.104-14.526-33.03-33.087-33.03-20.981 0-34.123 14.551-34.123 33.147 0 20.215 11.188 33.38 35.274 33.38 13.026 0 20.399-2.307 29.168-6.699l-3.338-15.135c-6.687 3.006-12.909 4.847-21.213 4.847-9.106 0-14.293-3.46-16.259-9.927h42.997c.348-1.736.581-3.705.581-6.583zM312.998 73.98s-6.874 1.642-12.689 3.029l-8.838 2.015h-.082c0-2.388.175-4.905.744-7.224.733-2.97 2.338-6.443 5.129-7.969 3.036-1.654 6.734-1.853 9.944-.57 3.326 1.316 4.85 4.532 5.501 7.864.186.932.302 1.864.395 2.808l-.104.046zm23.05 5.044c0-23.104-14.526-33.03-33.087-33.03-20.98 0-34.122 14.551-34.122 33.147 0 20.215 11.188 33.38 35.273 33.38 13.026 0 20.399-2.307 29.168-6.699l-3.337-15.135c-6.688 3.006-12.91 4.847-21.214 4.847-9.106 0-14.293-3.46-16.258-9.927h42.996c.349-1.736.581-3.705.581-6.583zm-76.234-50.007h-21.295v81.186h21.295V29.017zm273.676 19.05h22.364l4.71 14.354c2.943-7.084 9.572-16.195 21.33-16.195 16.142 0 24.899 8.203 24.899 29.338v34.65h-22.364c0-7.223.012-14.435.023-21.66 0-3.308-.058-6.617-.011-9.926.034-3.052.255-6.21-1.373-8.948-1.105-1.853-2.907-3.216-4.849-4.148-3.943-1.887-8.223-1.84-12.096.187-.953.5-5.559 2.994-5.559 4.147v40.348H538.2v-45.38l-4.71-16.767zm90.214 16.288h-10.258V48.067h10.258V37.884l22.364-5.278v15.461h22.481v16.288h-22.481v18.246c0 7.166 3.455 10.51 8.642 10.51 5.303 0 8.303-.7 12.792-2.19l2.652 16.858c-6.106 2.657-13.712 3.927-21.446 3.927-16.258 0-25.016-7.737-25.016-22.755V64.355h.012zm86.69 29.676c8.187 0 13.025-5.896 13.025-15.356 0-9.461-4.605-14.902-12.676-14.902-8.188 0-12.909 5.43-12.909 15.24 0 9.25 4.605 15.018 12.56 15.018zm.233-48.387c20.98 0 36.308 13.166 36.308 33.602 0 20.552-15.328 32.914-36.541 32.914-21.097 0-36.088-12.7-36.088-32.914 0-20.436 14.875-33.602 36.321-33.602zM441.754 47.88c-3.954-1.63-8.432-2.236-12.712-1.619-2.175.315-4.303.944-6.28 1.923-5.42 2.68-9.641 8.796-11.909 14.25-1.489-6.28-5.827-11.92-12.165-14.542-3.954-1.63-8.432-2.237-12.712-1.62-2.174.316-4.303.945-6.28 1.923-5.408 2.668-9.618 8.762-11.897 14.203v-.396L363.24 48.09h-22.365l4.711 16.766v45.37h22.213V69.668c.081-.303 1.07-.862 1.244-.99 2.605-1.852 5.664-3.763 8.92-3.996 3.327-.245 6.606 1.444 8.583 4.09.21.29.407.582.593.885 1.629 2.738 1.408 5.895 1.373 8.948-.035 3.309.011 6.618.011 9.927-.011 7.224-.023 14.436-.023 21.659h22.365V69.692c.046-.291 1.07-.874 1.256-1.002 2.605-1.853 5.663-3.764 8.92-3.997 3.326-.244 6.606 1.445 8.583 4.09.209.291.407.582.593.885 1.628 2.738 1.407 5.896 1.372 8.949-.035 3.308.012 6.617.012 9.926-.012 7.224-.023 14.436-.023 21.66h22.364v-34.65c0-10.16-1.454-23.245-12.188-27.672zm358.073-1.654c-11.758 0-18.375 9.123-21.329 16.195l-4.711-14.354h-22.364l4.71 16.766v45.37h22.365V68.282c3.186-.56 20.48 2.633 23.76 3.833V46.308a40.988 40.988 0 0 0-2.431-.082zM206.444 73.98s-6.873 1.642-12.688 3.029l-8.839 2.015h-.081c0-2.388.174-4.905.744-7.224.733-2.97 2.338-6.443 5.129-7.969 3.035-1.654 6.734-1.853 9.944-.57 3.326 1.316 4.849 4.532 5.501 7.864.186.932.302 1.864.395 2.808l-.105.046zm23.051 5.044c0-23.104-14.526-33.03-33.087-33.03-20.981 0-34.123 14.551-34.123 33.147 0 20.215 11.188 33.38 35.274 33.38 13.026 0 20.399-2.307 29.168-6.699l-3.338-15.135c-6.687 3.006-12.909 4.847-21.213 4.847-9.106 0-14.293-3.46-16.259-9.927h42.996c.349-1.736.582-3.705.582-6.583zM66.141 16.05c-35.285 0-63.883 28.65-63.883 64 0 35.338 28.598 64 63.883 64 35.285 0 63.883-28.651 63.883-64-.011-35.35-28.609-64-63.883-64zm-15.968 90.657H39.532V53.38h10.641v53.327zm42.577 0H60.815v-10.66H92.75v10.66zm0-21.333H60.815v-10.66H92.75v10.66zm0-21.333H60.815V53.38H92.75v10.66z"/></g><defs><clipPath id="clip0"><path fill="#fff" transform="translate(2.258 16.05)" d="M0 0h795.828v127.901H0z"/></clipPath></defs></svg>