<?xml version="1.0" encoding="UTF-8"?>
<svg width="38px" height="38px" viewBox="0 0 38 38" version="1.1" xmlns="http://www.w3.org/2000/svg" xmlns:xlink="http://www.w3.org/1999/xlink">
    <title>Shape</title>
    <g id="Designs" stroke="none" stroke-width="1" fill="none" fill-rule="evenodd" stroke-linecap="round" stroke-linejoin="round">
        <g id="Indexables-page---All-dashboard-features-disabled" transform="translate(-763.000000, -438.000000)" stroke="#94A3B8" stroke-width="2">
            <g id="No-data-to-show-yet" transform="translate(180.000000, 399.000000)">
                <g id="Group" transform="translate(584.000000, 40.000000)">
                    <path d="M18,4.5 L18,0 M18,4.5 C15.5147186,4.5 13.5,6.51471863 13.5,9 C13.5,11.4852814 15.5147186,13.5 18,13.5 M18,4.5 C20.4852814,4.5 22.5,6.51471863 22.5,9 C22.5,11.4852814 20.4852814,13.5 18,13.5 M4.5,31.5 C6.98528137,31.5 9,29.4852814 9,27 C9,24.5147186 6.98528137,22.5 4.5,22.5 M4.5,31.5 C2.01471863,31.5 0,29.4852814 0,27 C0,24.5147186 2.01471863,22.5 4.5,22.5 M4.5,31.5 L4.5,36 M4.5,22.5 L4.5,0 M18,13.5 L18,36 M31.5,31.5 C33.9852814,31.5 36,29.4852814 36,27 C36,24.5147186 33.9852814,22.5 31.5,22.5 M31.5,31.5 C29.0147186,31.5 27,29.4852814 27,27 C27,24.5147186 29.0147186,22.5 31.5,22.5 M31.5,31.5 L31.5,36 M31.5,22.5 L31.5,0" id="Shape"></path>
                </g>
            </g>
        </g>
    </g>
</svg>