<svg width="14" height="14" fill="none" xmlns="http://www.w3.org/2000/svg"><path d="M12.613.445a1.26 1.26 0 0 0-1.22.937l-.156.583A40.97 40.97 0 0 0 .379 3.225c-.013 0-.022.007-.035.01a.503.503 0 0 0-.317.64 40.344 40.344 0 0 0 1.99 4.861c.084.173.26.282.455.282h7.542c.64 0 1.213.403 1.427 1.008h-10a.507.507 0 0 0 0 1.01h10.592a.507.507 0 0 0 .506-.505c0-1.149-.774-2.15-1.888-2.441l1.722-6.452a.25.25 0 0 1 .243-.185h.931a.507.507 0 0 0 0-1.011h-.931l-.003.003zm-1.085 13.114a1.008 1.008 0 1 1 0-2.016 1.008 1.008 0 0 1 0 2.016zm-8.573 0a1.008 1.008 0 1 1 0-2.016 1.008 1.008 0 0 1 0 2.016z" fill="#0075B3"/></svg>