<?xml version="1.0" encoding="UTF-8"?>
<svg width="36px" height="36px" viewBox="0 0 38 38" version="1.1" xmlns="http://www.w3.org/2000/svg" xmlns:xlink="http://www.w3.org/1999/xlink">
    <title>Icon</title>
    <g id="Designs" stroke="none" stroke-width="1" fill="none" fill-rule="evenodd" stroke-linecap="round" stroke-linejoin="round">
        <g id="Indexables-page---Emtpy-state" transform="translate(-705.000000, -193.000000)" stroke="#94A3B8" stroke-width="2">
            <g id="Icon" transform="translate(706.000000, 194.000000)">
                <path d="M10,25.9999996 L15.758,20.2419996 M15.758,20.2419996 C17.2693398,21.7785177 19.488669,22.3863981 21.5720371,21.8344806 C23.6554053,21.282563 25.2827019,19.6556499 25.8351105,17.572412 C26.3875191,15.489174 25.7801618,13.2697016 24.244,11.7579996 C21.895714,9.44710466 18.1233424,9.46201919 15.7934024,11.7914101 C13.4634623,14.120801 13.4476586,17.893169 15.758,20.2419996 Z M36,18 C36,24.4307803 32.5692195,30.3730667 27,33.5884571 C21.4307807,36.8038475 14.5692193,36.8038475 9,33.5884571 C3.4307805,30.3730667 8.8817842e-16,24.4307803 8.8817842e-16,18 C8.8817842e-16,8.05887427 8.05887465,0 18,0 C27.9411253,0 36,8.05887427 36,18 L36,18 Z" id="Shape"></path>
            </g>
        </g>
    </g>
</svg>