<svg role="img" aria-hidden="true" focusable="false" xmlns="http://www.w3.org/2000/svg" viewBox="0 0 289.98 291.69"><path fill="#006531" d="M178.09 168c6.2.88 11.73 57.74 10.9 64-1 7.61-20.47 21.56-35.83 16.83s-22.28-17.36-17.85-26.51 36.58-55.25 42.78-54.32Z"/><path fill="#f0ecf0" d="M256.47 217s6 6 13.08 13.82a131.19 131.19 0 1 0-181.07 40.45q3.55 2.25 7.23 4.27c.71-2.79 1.36-5 1.81-6.64 1.48-5.32 6.32-14.53 5.36-19.55s-4.13-7.68-3.54-20.08a114.5 114.5 0 0 1 3.54-25.72 14.88 14.88 0 0 0-7.09-1.77 113.17 113.17 0 0 1 10.95-12c6.87-21.57 17-42 23.64-51.22 6.22-8.64 29.37-10.27 52.71-6.72s47.75 28.12 40.37 63-28.46 44.21-30.79 49.23-5.57 18.8-3.65 23.67c1.29 3.28 6.19 9.05 11.85 17.05a130.91 130.91 0 0 0 48-28.94c-8.87-9.55-19.31-20.38-19.87-21.12 9.73-11.73 15.92-18.83 27.47-17.73Z"/><path fill="#006531" d="M150.14 131.06c-3.25-1.48-3.86-.12-7.4.48s-18.86-1.18-23.91.81c-9.9 3.91-14 11.82-16 20.27s.54 19.16 1.72 25.95-3.39 53.18-3.09 59.38 20.2 11.57 22.27.35 15.33-65.3 15.33-65.3 14.33-40.46 11.08-41.94Z"/><path fill="#b498c6" d="M49 177.58c26.5 32.94 70.46 51.81 71.35 58.6s-3.84 13.34-8.87 16.29-30.71-3.4-45.77-22.47c-15.55-19.67-28.56-37.13-28.56-37.13s5.68-8.18 11.85-15.29Z"/><path fill="#006531" d="M132.36 152.53c-4.21 2.95-21 27.42-26.52 32-4.18 3.48-14.36 15.36-15.25 23.63s6.39 19.91 16 25.4c5.24 3 23.88-5.3 25.65-13.27s4.32-70.72.12-67.76Z"/><path fill="#006531" d="M192.67 244.07c2.37-5 23.4-14.36 30.79-49.21s-17-59.44-40.37-63-46.49-1.86-52.71 6.74c-6.63 9.2-16.77 29.65-23.64 51.22 15.28-14.48 30.08-20.49 39.86-32.18-.3 1.55 8.49 23.45 11.81 28.36 4.15 6.13 14.16 17.89 20.38 31-10.34-1.92-21.49-1.6-31.9 2.41-2.66 6.3-2.07 16.93-.88 22.84-2.28 17.87-2.12 33.54.46 48.85 4.06.37 8.17.58 12.32.58a131.19 131.19 0 0 0 42.08-6.9c-5.66-8-10.56-13.77-11.85-17-1.92-4.91 1.29-18.69 3.65-23.71ZM112.56 231c-.27-7.26-.22-8.8.78-20.95-2.89-1.6-6.55-4.57-10.46-6.48a114.5 114.5 0 0 0-3.54 25.72c-.59 12.4 2.59 15.06 3.54 20.08S99 263.58 97.52 268.9c-.45 1.6-1.1 3.85-1.81 6.64a127.06 127.06 0 0 0 13.85 6.58c-1.44-18.61-1.04-36.3 3-51.12Z"/><path fill="#b498c6" d="M269.55 230.83C262.43 223 256.47 217 256.47 217c-11.55-1.11-17.74 6-27.47 17.72.56.74 11 11.57 19.88 21.12a132.58 132.58 0 0 0 20.67-25.01Z"/><path fill="#89bc3b" d="M95.79 201.78a14.88 14.88 0 0 1 7.09 1.77c1.1-4.56 2.4-9.17 3.86-13.73a113.74 113.74 0 0 0-10.95 11.96Z"/><path fill="#89bc3b" d="M112.56 231c-4 14.84-4.44 32.53-3 51.14a130.52 130.52 0 0 0 36.91 9c-2.58-15.31-2.74-31-.46-48.85-1.19-5.91-1.78-16.54.88-22.84 10.41-4 21.56-4.33 31.9-2.41-6.22-13.12-16.23-24.88-20.38-31-3.32-4.91-12.11-26.81-11.81-28.36-9.78 11.69-24.58 17.7-39.86 32.18-1.46 4.56-2.76 9.17-3.86 13.73 3.91 1.91 7.57 4.88 10.46 6.48-1 12.11-1.05 13.65-.78 20.93Z"/><path fill="#b498c6" d="M35.85 151.6s2.66 3.18 4.43 5.55 4.66 16 8.68 20.43-7 12.22-7 12.22c-12-.92-23-13.34-21-28.7 0 0 3.25-4.73 3.84-6.5s-.18-5-.18-5a34.85 34.85 0 0 1-4.29-6.21c-1.21-2.65-.84-6.46.37-9.18s4.56-2.56 4.68-1.89c.31 1.74 2 8.86 1.86 8.6-.87-2.01 2.67 2.19 8.61 10.68Z"/><path fill="#b498c6" d="M32.13 155.37c-12 4.78-18.36 1.3-24.56 4.84s1.22 17.61 1.22 17.61 1.84 6.8 5.39 11.23 24.27 4.41 24.27 4.41l10.15-13.52Z"/><path fill="#b498c6" d="M28.47 184.32c-.59.89-5.5 6.45-8.45 7.45s-6.34-.66-6.34-.66c-3.64-1.42-4.81-3.6-3.07-6.2 0 0 10.29-.52 7.34.18s7.57-4.31 7.57-4.31c1.96.66 3.09 1.77 2.95 3.54Z"/><path fill="#8b6c9c" d="M25.52 180.78c7.47.85-3.24 16.33-11.84 10.33 5.39 1.3 7.32.21 10.71-3.07 2.5-2.49 3.06-2.79 2.42-5.24a2.59 2.59 0 0 0-1.29-2.02Z"/><path fill="#b498c6" d="M5.48 176.94c-2.11 2.55-1.17 5.19 4.13 8l8.39 1.15 8.57-5.31a8.67 8.67 0 0 0-.89-6.8l-10.34 3.25Z"/><path fill="#8b6c9c" d="M9.61 184.91c7.51.44 7.78 1.78 12.14-.95 5-3.14 5.69-4.17 3.88-10 4.06 5.07 1.3 7.9-3.35 10.83-3.09 1.94-6.79 2.92-12.67.12Z"/><path fill="#b498c6" d="M1.34 168.67c-3.06 1.58-.35 9.08 2.77 9l11.18-.41s9.12-2 10.34-3.25c1.81-1.8-.57-7.7-1.48-7.38l-10.93 3Z"/><path fill="#8b6c9c" d="M4.11 177.64c11.75.39 10.61 4.06 19.09-3.93 1.37-1.34-.15-7.07-1.05-7.11 1.23-.32 4.11 5.64 1.75 7.82-5.45 5.13-8.43 7.58-19.79 3.22Z"/><path fill="#b498c6" d="M4.59 159.81c-2.79.54-3.52 2-3.54 5.43s-.94 2.44 1.29 3.43 13.88.88 13.88.88l7.93-3c.73-2.37.66-4.59-1.18-6.5l-9.4-.89a69.28 69.28 0 0 0-8.98.65Z"/><path fill="#8b6c9c" d="M2.34 168.67c1.27.26 12.13.39 13.88.38-.45.09-.73.24 7.76-2.92-.91 1 .41-.43.05-2.9-.51-3.6-2.16-2.54-5.81-3.09-4.5-.9-9.43-1.88 4.8-.54.53.05 3 2.56 1.61 7.14-.11.36.83-.09-8.31 3.31-3.68.02-10.94.14-13.98-1.38Z"/><path fill="#006531" d="M197.4 137.56c4.72.88 31.31 19.79 39.83 35.92 3.33 6.31 6 21.38 8.9 27.58s13.59 18.31 14.48 19.79c-17.13 2.66-27.18 19.2-27.18 19.2-4-3.26-43.16-44.31-44-46.38-3.25-7.97 3.24-57 7.97-56.11Z"/><path fill="#006531" d="M195.4 110.09c-1.55 13 2 27.47 2 27.47s-44.31 21.26-50.8 20.08-3-24.33-3-24.33-.88-13.29 1.48-17.13 4.75-9.93 13-11.11 38.1-1.57 37.32 5.02Z"/><path fill="#b498c6" d="M147.3 154.39s11.48-21.63 15-24.29 18.72-8.83 22.56-10 3.84-5.31 5-8.56 1.48-29.79 1.48-29.79l-45.29 2 4.73 39.81c.36 12.52-4.85 19.83-3.48 30.83Z"/><path fill="#89bc3b" d="M195.45 138.74s27.35 19.2 39.05 36.26c2.65 3.85 4.84 20.79 7.2 25.81s10.05 15.07 10.05 15.07l5.31.29 3.55 4.73c-9.41 1.64-18.27 9.31-27.18 19.2l-6.49-5.62c5.46-7.09 11.49-13 18.9-15.94 0 0-7.68-12.11-9.75-16.54s-4.52-21.19-7.2-26.41c-9-17.6-39.06-34.73-39.06-34.73Z"/><path fill="#093f22" d="m192.38 197.7 21.02 21.79-2.66 5.31-15.36 5.61 11.88-10.33-14.88-22.38zM120.65 147.17l1.55 13.29a79.66 79.66 0 0 1-7.31 11.54c-4.43 5.76-8.76 11.31-8.76 11.31L114 156l-.44 12Z"/><path fill="#8b6c9c" d="M191.38 81.73s1.91 5.52-1.07 17.09c-2.07 8-25.57 30.6-35 28.17-6-1.54-6-11.85-7.27-16.31L145 83.8Z"/><path fill="#b498c6" d="M172.22 6.3c-20-2.46-38.74 14.76-40.58 16.91-1.16 1.35-4.27 8.05-6.64 14.45 13.42-5 36.89-.82 67.51 9.88 1 6.7.06 12.11-.92 19.63 0 0-8.61 4.69-16 4.69s-16.29-2.46-18.45-5.23-8-9.63-13.77-10-11.37 5.87-13.89 6.59c-1.75.5-8 3-10.15 5.15v-.08a15.41 15.41 0 0 0-1.18 6.5c.8 8.65 6.53 18.51 8.69 21.59s2.72 9.45 6.41 14.07c3.13 3.91 15.33 3.46 20 2.1 7-2 29.38-9.37 32.77-14S198.23 70 198.23 70s12.4-8.23 13-14.69c2.12-22.13-11.91-45.67-39.01-49.01Z"/><path fill="#006531" d="M192.2 87.46c21.23 1.16 34.39 0 35.92-9.22s1.16-64.85-52.19-76.38c-50.56-10.93-60.49 29.65-61.72 37s7.59 8.91 7.59 8.91c-.61-3.09 1.55-2.73 3.19-10.14 15.18-3.18 61.91 7.92 64.68 12.84s-.54 12.68-.24 16.06 7.69 6.47 7.69 6.47Z"/><path fill="#093f22" d="M225.1 81.93c1.13-4.56-4.46-9.51-15.07-14.76l-5.22 5.23-4.92 15.37c12.11.23 23.63.05 25.21-5.84Z"/><path fill="#b498c6" d="M207 73.61c3.69 3.07 3.93 10.55 1.78 14.54s-14.78 8.49-17.21 7.57-4.92-3.88-4.92-3.88l10.45-18.62a12.33 12.33 0 0 1 4.49.11c.31 0 2.8-1 3.11-.91a6.32 6.32 0 0 1 2.3 1.19Z"/><path fill="#191a1a" d="M192.2 69s-19.69 37.82-22.44 39c.82.16 5.58-1.59 7.38-2.46s20-32.59 20-32.59Z"/><path fill="#093f22" d="m186.03 79.26 5.37 4.21-4.21 7.53-5.93-3.32 4.77-8.42z"/><path fill="#fcee21" d="M122.11 47.5a54.43 54.43 0 0 1 2.89-9.84c-4.93 9.91-10.22 24.17-5.7 30.66a35.07 35.07 0 0 1 5.58-8.22s-3.7-6.1-2.77-12.6Z"/><path fill="#fbb03b" d="M129.49 65.25c2.72-.78 8.83-7.61 14.37-6.38s11.14 8 13.29 10.76 11.07 5.23 18.45 5.23 16-7.69 16-7.69c1-7.52 1.93-12.93.92-19.63-30.62-10.7-54.09-14.89-67.52-9.88a54.43 54.43 0 0 0-2.89 9.84c-.93 6.45 2.76 12.6 2.76 12.6a35.07 35.07 0 0 0-5.58 8.22v.08c2.2-2.15 6.93-2.21 10.2-3.15Z"/><path fill="#4b3f51" d="M164.1 84.58s-10-6.68-19.87-7.87c-1.84-.22-2.48.64-3.69.59-1.78-.07-2.9-.67-4.28-.74-4.79-.22-5.77 2.37-5.77 2.37a4.35 4.35 0 0 0 1.93 4.43c1.77 1 2.51-1.11 3.32 1.77 17.72-1.66 22.26-.59 28.36-.55Z"/><path fill="#8b6c9c" d="M135.67 85c0 2.77-5.87 11.68 5.81 12.3 12.65.7 19.82-9.23 22.52-12.67-9.76-.11-19.34-2.38-28.33.37Z"/><path fill="#f2f2f2" d="M136.67 81.48c-.95 1.52-.25 7.58 4.61 8.3 7.75 1 16.17-1.77 22-5.22-9.55-1.06-11.88-2.62-16.38-3.49-2.54-.48-9.09-1.42-10.23.41Z"/><path fill="#fcee21" d="M124.87 60.1a20.07 20.07 0 0 0 12-.61s-2.15-7.92-6.76-7.61-5.24 8.22-5.24 8.22Z"/><path fill="#f15a24" d="M136.81 59.5c-3.13-10.48-10.72-10.06-11.88.6-1.93-.14-1.38-9.34 4.35-9.94 6.86-.67 8.23 9.15 7.53 9.34ZM138.4 40.73c1.26.46.58 3.28-.69 3.38s-7.64-.52-9.45.31-5.08 4.17-6.25 6.08c.21-1.54 3.68-7.57 5-8.85s10.14-1.38 11.39-.92Z"/><path fill="#8b6c9c" stroke="#8b6c9c" stroke-miterlimit="10" d="M150.7 66.25c.48 1.6 1 3.41-.85 4.33s-4-2.41-5.53-2.1-4 2.24-5.61 1.77c-3.34-1-3.69-2.69-3.69-2.69s-1.12 4.2 4.3 4.84c3.68.43 5.35-2.06 8.42-1.45s2.09 2.8 3.57 2.06c2.97-1.47.98-6.44-.61-6.76Z"/><path fill="#8b6c9c" d="M154.79 69.68c2.27 1.94 3.94 10 11.63 10.35 1.28 2-.13 5.41-1.89 9.58a20.53 20.53 0 0 0 7.07-12.91c-11.05.3-13.26-5.8-16.81-7.02ZM136.57 70.12s-2.47-.4-2.47.87a.37.37 0 0 1-.16.3.38.38 0 0 1-.34.06c-2.4-.79-1.79-4.72-.07-5.86-1.72 4.02 3.04 4.63 3.04 4.63Z"/><path fill="#8b6c9c" d="M132.48 68.63c-2 2.71-2.16 7-2 10.24 0 0-1-1.86-2-1.79s-.71 5.3.79 9a31 31 0 0 1-6-15.73c2.67 1.07 6 .5 9.27-3.38Z"/><ellipse cx="139.18" cy="184.17" fill="#fbb03b" stroke="#fc3" stroke-miterlimit="10" rx="8.75" ry="5.25" transform="rotate(-9.22 139.183 184.166)"/><path fill="#f19018" d="m129.81 195.84 18.24-2.09a100.85 100.85 0 0 0-14.23 16.57l8-.9a78.29 78.29 0 0 0-8.82 18.82c-3.2 9.33-2.81 18.19-3 17.84a47.74 47.74 0 0 1-3.75-14.91 56 56 0 0 1 .51-15.19c-3 .83-6 1.67-8.89 2.51a73.05 73.05 0 0 1 11.94-22.65Z"/><path fill="#fbb03b" stroke="#fc3" stroke-miterlimit="10" d="m129.81 195.84 18.24-2.09a100.85 100.85 0 0 0-14.23 16.57l8-.9a78.29 78.29 0 0 0-8.82 18.82c-3.2 9.33-2.81 18.19-3 17.84a47.74 47.74 0 0 1-3.75-14.91 56 56 0 0 1 .51-15.19c-3 .83-6 1.67-8.89 2.51a73.05 73.05 0 0 1 11.94-22.65Z"/><path fill="#f15a24" d="M136 56.78c1 1.52-.76 3.87-2.65 3.87s-3.66-1.26-3.66-3.1a3.38 3.38 0 0 1 3.43-3.32c1.88 0 1.51.55 2.88 2.55Z"/><path fill="#8b6c9c" d="M25 161.28c-.08 6.93 1.26 20.08 15.09 24.42 0 0-8.67 1.28-11.66-1.38s-6.92-16.88-3.43-23.04Z"/><path fill="#093f22" d="m120.68 47.53 4.32-9.87c19.53-1.66 62.46 8.77 64.68 12.84s.07 13.6-.24 16.06 7.68 6.44 7.68 6.44l4.61.31s-8.3-3.07-8-7.38 3.2-16.07-1.23-18.4c-27.06-14.19-61.36-15-69.48-13.76-6.46 1-8.44 6.4-7.22 10.09.85 2.58 4.88 3.67 4.88 3.67ZM168.45 21.48c-.92-2.15 18.91-8.27 30.13-7.68 6.17.32 13.26 10.33 5.91 9.45-14.77-1.77-35.11.38-36.04-1.77ZM172 32.7c-.59-3 28.35-3 39.26.35 6 1.8 2.55 12.33-1.84 10.45C198 38.61 172.38 34.61 172 32.7ZM133.79 18.6 131 9.07l-6.15 6.15s8.02 4.61 8.94 3.38ZM126.72 27.21C127 26 120.57 21.06 120 22s-2.77 8.3-2.77 8.3 9.18-1.86 9.49-3.09Z"/><path fill="#fc3" d="M181.6 46.59c-.06 10.33-1.83 19.86-6 28.27A30.57 30.57 0 0 1 163.36 73c3.15-11.43 5.89-22.37 5.61-29.76a90 90 0 0 1 12.63 3.35Z"/><path fill="#fcee21" d="M172.83 62.87c-5.55.17-12.05 1.5-16.91-1.54 0 0 .7-8.22 7.15-7s9.76 8.54 9.76 8.54Z"/><path fill="#f15a24" d="M155 42.88c-1.24.38-.16 2.92.92 3.39s8.91 1.14 11.65 1.79 6.2 4.36 8.64 6.81c-.22-1.86-4.87-8.63-7.68-9.53s-12.29-2.83-13.53-2.46ZM168.31 59.44a3.78 3.78 0 1 1-3.44-4.09 5 5 0 0 1 .56.09 4.28 4.28 0 0 1 2.88 4Z"/><path fill="#f15a24" d="M155.82 61.32c-2.89-12.19 15.29-11.67 17.1 1.51-.51.23-2.75-6.29-8.94-8.06-7.49-2.22-7.59 6.6-8.16 6.55Z"/></svg>