<svg role="img" aria-hidden="true" focusable="false" xmlns="http://www.w3.org/2000/svg" viewBox="0 0 262.37 284.15"><path fill="#f0ecf0" d="M262.37 153A131.19 131.19 0 1 0 54.71 259.56a28.08 28.08 0 0 1 1.91-7.37c2-4.92-12.06-11.1-7.52-26.48 3.49-11.81 30.9-25.16 37.1-41.56 2.4-6.32 12-30.34 29.69-35.66 9-2.7 48.29-13.29 60.25-11.07s37.48 11 31.66 41.46c-10.26 53.79-44.8 59.12-46.28 94.64a27.46 27.46 0 0 0 .65 6.94A131.23 131.23 0 0 0 262.37 153Z"/><path fill="#006531" d="M161.52 273.52c1.44-35.53 36-40.85 46.28-94.64 5.82-30.51-19.7-39.25-31.66-41.46s-51.23 8.37-60.25 11.07c-17.72 5.32-27.29 29.34-29.69 35.66-6.2 16.4-33.61 29.75-37.1 41.56-4.54 15.38 9.53 21.56 7.52 26.48a28.08 28.08 0 0 0-1.91 7.37 131.71 131.71 0 0 0 12.68 8.05 184.18 184.18 0 0 1 7.18-34.05c-4.12-2.43-8.32-4-19.15-2.33 16.06-23.66 34.79-45.11 64.9-65.12 2.54 22.59 3.65 40.75 14.49 60-14.93-3.2-25.12 0-32 4.77a103.74 103.74 0 0 0-4.6 49.12 132 132 0 0 0 64 .49 27.23 27.23 0 0 1-.69-6.97Z"/><path fill="#89bc3b" d="M102.8 230.9c6.89-4.73 17.08-8 32-4.77-10.84-19.27-12-37.43-14.49-60-30.11 20-48.84 41.46-64.9 65.12 10.83-1.66 15-.1 19.15 2.33a184.18 184.18 0 0 0-7.18 34A130.42 130.42 0 0 0 98.21 280a103.65 103.65 0 0 1 4.59-49.1Z"/><path fill="#093f22" d="M61.29 184.66c-4.39 13.11-15 33.6-14.52 47.42 11.9-18 34.83-42.28 46.73-60.26 2.69-4.08 1.49-10.8-3.21-13.29-3.83-2-8.45-.15-11.7 1.92-8.3 5.28-14.21 14.98-17.3 24.21ZM133.9 243.31l18.32-60.92s.51 11.07 1.1 9.3 16.4-28.8 16.4-28.8l-28.14 81Z"/><path fill="#006531" d="M169.31 113.64c.71 13.17 6.24 22.36 5.36 25.68-33.67 6.42-49.16 29.46-54 28.88-6.67-3.85-5.76-14.39-5.54-17.71 3.55-6.65-.12-17.65 1.77-23.89 1.4-4.6 9.38-12.6 18.1-14.53s33.93-5.54 34.31 1.57Z"/><path fill="#b498c6" d="M122.32 166.11c6.09-9.75 11.1-30.31 14.62-33.9 3.33-3.39 22.1-12 26.12-13.51 1.56-1.22 2-2.55 2.09-6.65l.23-19.82-45.16 16.39 2.53 37.22c.67 5.09.35 10.08-.43 20.27Z"/><path fill="#8b6c9c" d="m166.15 92.89-.64 7.17c-.94 12.77-25.4 31.3-38.1 30.12-4.6-.42-5.78-10.38-7.39-15.06l-2.61-9.52Z"/><path fill="#b498c6" d="M157.71 192S128 247.74 126 254s-.23 13.67 4.49 15.24 16.51.6 24.27-7.47c5.9-6.14 28.74-39.14 29.45-39.85.06-13.3-7.49-22.14-26.5-29.92Z"/><ellipse cx="106.71" cy="192.91" fill="#fbb03b" stroke="#fc3" stroke-miterlimit="10" rx="8.8" ry="5.58" transform="rotate(-19.17 106.716 192.914)"/><path fill="#f19018" d="M92.72 206.13c4.25-1.18 9.78-1.68 17-1.26-6.39 3.89-15.24 15.48-15.51 17.65a87.16 87.16 0 0 1 11-1.88c-16 10.81-23.79 31.12-22.85 30.75-1.24.41-3.63-21.77 6.06-31.06a32.05 32.05 0 0 0-7.73 1.1c1.68-4.03 6.97-11.62 12.03-15.3Z"/><path fill="#fbb03b" stroke="#fc3" stroke-miterlimit="10" d="M92.72 206.13c4.25-1.18 9.78-1.68 17-1.26-6.39 3.89-15.24 15.48-15.51 17.65a87.16 87.16 0 0 1 11-1.88c-16 10.81-23.79 31.12-22.85 30.75-1.24.41-3.63-21.77 6.06-31.06a32.05 32.05 0 0 0-7.73 1.1c1.68-4.03 6.97-11.62 12.03-15.3Z"/><path fill="#006531" d="M183.45 223.15c-3.73-9.11-19.27-19.94-31.68-20.38 7.54-16.39 11.46-29.12 19.31-42.24 0 0-5.74-22.74-1-22.2 8.52 1 19-7.56 33.67-4.23 14.25 3.23 20.27 23.26 17 38-4.47 19.9-40.04 54.49-37.3 51.05Z"/><path fill="#8b6c9c" d="M80 254.38C77.79 252.17 71.81 244 65.6 244s-33 6.87-33 6.87l-.45 9.3s16.69 1.77 19.94 2.22 16-3.55 16-3.55Z"/><path fill="#8b6c9c" d="M72.14 260.36c-12.31-.11-23.45 6.28-26.55 5.39-4.1-1.33-4.21.82-6.64.59s-6.7-3.65-6.7-3.65l.12-12.3 39 7.09Z"/><path fill="#8b6c9c" d="M50.63 262.9c-4.43-2.21-15.73 4.28-17.74 2.71-4.64-3.65-8.27-6.21-9.3-8.42s2.47-5.91 1.59-16.1c-.44-5.07 4.31-5.32 6.09-1.33.93 2.1 1.33 13.51 1.33 13.51l7.63 2.1Z"/><path fill="#b498c6" d="M100.38 163.12c.89 4-22.61 60.35-31.91 76.3S40.9 257.36 40.9 257.36s-14.48-.79-9.17-22.05 24.47-27.82 31.55-37.42 20.27-29 20.27-33.45c0-3.1 15.95-5.31 16.83-1.32Z"/><path fill="#8b6c9c" d="M100.48 163.09a3.78 3.78 0 0 1 0 .95 9.1 9.1 0 0 1-.16.91c-.12.6-.29 1.19-.44 1.78-.33 1.17-.69 2.34-1.06 3.5-.76 2.32-1.56 4.62-2.38 6.92Q94 184 91.28 190.83q-5.4 13.59-11.26 27-2.92 6.71-6 13.34A63.91 63.91 0 0 1 66.55 244 35.8 35.8 0 0 1 55 253.26a38.85 38.85 0 0 1-14.07 4.2v-.2a41.07 41.07 0 0 0 6.94-2.09 39.27 39.27 0 0 0 6.44-3.17A35.56 35.56 0 0 0 65 242.71a26.19 26.19 0 0 0 2-2.9c.66-1 1.22-2.05 1.8-3.1q1.74-3.18 3.36-6.44c2.2-4.33 4.31-8.71 6.37-13.12q6.14-13.23 11.79-26.7 2.85-6.72 5.53-13.51c.88-2.27 1.74-4.55 2.56-6.84.4-1.14.79-2.29 1.15-3.46.17-.58.35-1.16.48-1.75a6.54 6.54 0 0 0 .18-.88 3.19 3.19 0 0 0 .06-.87Z"/><path fill="#8b6c9c" d="M98.61 166.22s10.4-10 11.73-14c1.78-5.31-.21-15.41 2.56-22.17 1.13-2.77 5-12.4 5.3-13.28s-3.13-2.36-4.76-1.77a17.06 17.06 0 0 0-6.26 5.61c-1.33 2.22-.68 10.15-4.37 11.34s-18.23 10.61-18.38 17.4.44 11.85 14.18 16.87Z"/><path fill="#8b6c9c" d="m100.38 163.12 8.42-13.74-13.74-19s4.35-12 5.09-16.39 3.84-11.14.56-18.17c-2.12-4.55-4.79-5-5.09-2.1s-1.16 13.72-2.62 17.12-8.08 14.62-8.08 14.62l-12.4 14.62Z"/><path fill="#b498c6" d="M138.58 5.48c-20.7-.38-38 19.23-39.7 21.63-1.34 1.94-5.06 12-6.58 19.34.42-1.33.87-2.62 1.33-3.85 13.19-6.56 37.64-4.79 70.11 2.89 1.75 6.74 1.36 12.38 1.15 20.18 0 0-15.4 8.58-24.28 9.94-7.5 1.16-11.68-1.37-14.5-3.62-4-3.18-7.61-9.22-13.15-9.67-5.81-.47-7.83 9.3-10.72 9-1.73-.18-7.25.7-9.63 2.76a34.28 34.28 0 0 0-.24 9.16c1.25 5.91 5.63 11.61 8.16 14.52s4.19 11.43 8.45 15.76c9.81 9.93 47-6.94 55.48-17.25 3.75-4.53 8.8-28 8.8-28s10.52-10.21 10.46-16.87c-.21-22.82-17.07-45.4-45.14-45.92Z"/><path fill="#fcee21" d="M92.41 51.14a78.25 78.25 0 0 1 .88-8.53C83.1 69 92.42 74.26 92.61 74.09a39.64 39.64 0 0 1 2.9-8.67s-3.36-7.58-3.1-14.28Z"/><path fill="#fbb03b" d="M102.24 71.33c2.89.29 4.91-9.48 10.72-9 5.54.45 9.14 6.49 13.15 9.67 2.82 2.25 7 4.78 14.5 3.62 8.88-1.36 24.28-9.94 24.28-9.94.21-7.8.6-13.44-1.15-20.18-32.47-7.69-56.92-9.5-70.11-2.9-.89 2-1.63 13.3-1.63 13.3-.3 5 .89 6.64 3.47 9.52a42 42 0 0 0-2.82 8.67c2.35-2.09 7.86-2.94 9.59-2.76Z"/><path fill="#89bc3b" d="M156 194.13c7.53-.89 21.71 6.87 26.81 12.62 14.42-12.32 25.39-37.37 27.91-45.19 6.64-20.6-11.52-28.35-11.52-28.35l2.44.66s18.38 5.76 14.84 31.9c-1.24 9.13-14.64 33.72-28.8 46.3.89 1.55 2.22 3.32 2.66 4.87l-6.65 6.43c-2.66-8.42-22.81-20.82-31.9-20.6Z"/><path fill="#b498c6" d="M86.65 168.87c-.89-1.32-17.89-25.57-18.34-28.67s4.69-7.7 6.13-7c9.64 4.61 24.21 17.67 26 22.1s-.71 11.59-.71 11.59ZM77.79 130.77s12.14-11.89 15.09-12 10.11 6 13.11 7.91c3.2 2 3.87 7.13 8.23 10.45.44 2.07-2.22 3.42-5.62 2.39s-7.34-6.81-7.34-6.81l-7.12-3.46-8.38 6.88Z"/><path fill="#b498c6" d="M74.24 133s11.93-9 13.4-9 12.38 7.59 13.42 9.22 1.88 8.59 3.75 14.86c.65 2.17-3.28 5.17-6.53 1.33s-4.77-10.32-4.77-10.32l-7.33-4.61-5.29 3.85Z"/><path fill="#8b6c9c" d="M84.58 124.87a4.75 4.75 0 0 1 3-1.15 7.83 7.83 0 0 1 3.22.82 21.82 21.82 0 0 1 2.69 1.76c.86.62 1.71 1.25 2.56 1.89a47.7 47.7 0 0 1 4.94 4.14 4.21 4.21 0 0 1 .55.71 5.87 5.87 0 0 1 .36.81c.18.53.33 1.05.46 1.57.26 1 .48 2.08.7 3.12.44 2.07.87 4.14 1.37 6.19.25 1 .53 2 .82 3a2.42 2.42 0 0 1 .12 1 2.36 2.36 0 0 1-.26.93 3.58 3.58 0 0 1-1.21 1.34 4 4 0 0 1-3.47.47 5.93 5.93 0 0 1-2.73-2.06 12.37 12.37 0 0 1-2.52-5.93 36.66 36.66 0 0 0 3.3 5.3 5 5 0 0 0 2.26 1.74 3 3 0 0 0 2.6-.35 1.93 1.93 0 0 0 1-2.16c-.3-1-.58-2.06-.83-3.09-.51-2.07-.94-4.15-1.38-6.22-.22-1-.44-2.07-.69-3.08-.13-.51-.27-1-.43-1.49a2.76 2.76 0 0 0-.7-1.17 49.75 49.75 0 0 0-4.81-4c-.84-.63-1.69-1.26-2.55-1.88s-1.75-1.16-2.57-1.8a6.81 6.81 0 0 0-2.78-1.11 4.77 4.77 0 0 0-3.02.7Z"/><path fill="#b498c6" d="M72.62 133.87s5-4.31 6.43-4.66c2.52-.63 12.51 5.9 13.36 7.77 1.31 2.91 2.2 7.57 3.87 11.4.9 2.06-2.84 2.15-5.49.53s-3.57-6.71-3.57-6.71c-2.51-1.89-4.82-2.52-6.54-3.69-.3 2.47-2.6 5.07-7 8.07Z"/><path fill="#8b6c9c" d="M79.05 129.21a5.63 5.63 0 0 1 2.7.27c.88.26 1.73.57 2.58.91a28.34 28.34 0 0 1 4.81 2.54c.77.48 1.53 1 2.27 1.52a12.53 12.53 0 0 1 2.14 1.84 2.76 2.76 0 0 1 .45.71c.09.21.17.44.24.66a12.73 12.73 0 0 1 .38 1.34c.21.9.37 1.8.52 2.68a38.28 38.28 0 0 0 1.15 5.2c.13.41.29.82.46 1.22a2.2 2.2 0 0 1 .2.84 1.33 1.33 0 0 1-.37 1 2.48 2.48 0 0 1-1.56.62 6 6 0 0 1-1.47-.08 8.62 8.62 0 0 1-2.69-.94 5.84 5.84 0 0 1-2.1-2 15.27 15.27 0 0 1-2-5.2l.19.31a9.76 9.76 0 0 0-2.57-1.41 12.13 12.13 0 0 1-3-1.25l.74-.19a14 14 0 0 1-2.58 2.75 8.41 8.41 0 0 0-2.18 2.84 8.13 8.13 0 0 1 1.78-3.21 14.17 14.17 0 0 0 2.08-2.85l.23-.52.5.33a5.89 5.89 0 0 0 1.27.66l1.46.5a10.54 10.54 0 0 1 2.83 1.55l.15.11v.2a14.16 14.16 0 0 0 1.83 4.84 4.89 4.89 0 0 0 1.75 1.69 7.75 7.75 0 0 0 2.38.83 5 5 0 0 0 1.22.06 1.54 1.54 0 0 0 .92-.31c.13-.13.14-.32 0-.72s-.35-.86-.49-1.3a36.1 36.1 0 0 1-1.18-5.34c-.15-.88-.31-1.76-.51-2.61a13 13 0 0 0-.35-1.26 3.72 3.72 0 0 0-.49-1 11.48 11.48 0 0 0-1.94-1.67c-.72-.52-1.46-1-2.22-1.48-1.5-1-3.1-1.75-4.62-2.68-.78-.44-1.57-.86-2.38-1.22a5.79 5.79 0 0 0-2.53-.78Z"/><path fill="#006531" d="M167.62 84.35c22.06 1.45 35.92 5.68 36.5-3.92S197.69 6.63 141.9.54C89-5.24 83.2 37.33 82.73 45s7.68 8.3 7.68 8.3c.22-4 2.07-7.82 3.22-10.71 15.18-4.88 64.17 1.48 67.52 6.22s.8 13 1.47 16.45 9.68 6.8 9.68 6.8Z"/><path fill="#093f22" d="M202.05 84.6c2.39-1.92-8.89-16.64-20.3-20.87l-6 7.31-.26 12.81c7.99 2.15 22.68 3.88 26.56.75Z"/><path fill="#b498c6" d="M180.18 72.06c3.68 2.46 4 8.69 2.45 12.56s-10.89 10.8-13.28 11.15a26.88 26.88 0 0 1-5.15-.2L171 71.7s5.51-2.1 9.18.36Z"/><path fill="#191a1a" d="M165.72 67.49s-13.58 37.88-20.45 41.87c1 1 7.06-1.52 9-3.51 3.55-2.44 16.85-34.8 16.85-34.8Z"/><path fill="#093f22" d="M136.35 21.41c-1.17-2.11 21.15-11.14 32.7-11.14 2.66 0 10.64 6.2 11.52 9.74-15.29-.23-43.05 3.5-44.22 1.4ZM141.17 32.51c-.92-3 31.73-6.14 43.24-3.93 6.28 1.2 8.82 13.26 4.14 11.81-12.21-3.78-46.78-5.97-47.38-7.88ZM99.94 23c2.07-.89.29-4.14-1.48-10.93a19.93 19.93 0 0 0-7.35 7.62s6.76 4.16 8.83 3.31ZM94.28 31.72c.18-1.29-5.85-5.57-6.48-4.62a17.56 17.56 0 0 0-2.94 8.78s9.23-2.88 9.42-4.16Z"/><path fill="#fcee21" d="M95.9 65.56c4.07.42 7.79 1.24 12.23-1 0 0-4-8.79-8.72-8s-3.51 9-3.51 9Z"/><path fill="#f15a24" d="M108.08 64.63c-5.34-9-13.34-9.9-12.12.92-.49.07-1.34-1.88-1.61-2.93-1.29-5.79 4.65-9.51 9.59-5.14 3.17 2.79 4.45 7.01 4.14 7.15Z"/><path fill="#f15a24" d="M106.93 52c1.27.52 2.88 4 1.65 3.5A18.34 18.34 0 0 0 92 57.38c.7-5.91 13-6.22 14.93-5.38Z"/><path fill="#8b6c9c" d="M121.12 71.07c.66 1.59 1.38 3.39-.41 4.53s-4.33-2-5.87-1.57-3.88 2.72-5.55 2.41c-3.52-.66-3.15-3.48-3.15-3.48s-1.61 5.55 4 5.62c3.81 0 4.23-2.58 7.44-2.27s3.46 2.53 4.89 1.61c2.88-1.82.31-6.69-1.35-6.85Z"/><path fill="#8b6c9c" d="M106.73 75.68s-2.65.74-1.19 2.49c-3.18 0-3.08-4.59-1.32-6-.75 2.66 2.51 3.51 2.51 3.51Z"/><ellipse cx="98.36" cy="62.94" fill="#f15a24" rx="3.53" ry="3.42" transform="rotate(-5.96 98.33 62.903)"/><path fill="#8b6c9c" d="M138.73 83.69c-8.66 7.53-14.4 12.67-22.62 13-9.3.32-7.2-7.2-7.2-7.2s.85-2.54 5.63-2.77 20.66-2.78 24.19-3.03Z"/><path fill="#4b3f51" d="M108.91 89.78c.34-.46 1.86-1.93 2.29-1 1.92 3.93 8.45 1.71 28.05-5.2-15 2.26-17.88.24-20.85.48s-3.62 1.67-4.72 1.45-3.43-1.68-4.73-1.1c-3.03 1.27-2.05 3.67-.04 5.37Z"/><path fill="#8b6c9c" d="M132.64 76.68c1.08 1.47 9.51 5.88 9.51 5.88a60.71 60.71 0 0 1-2.89 6.3c.41 0 1.39-5-.85-6.64-1.72-1.22-4.64-2.58-5.77-5.54Z"/><path fill="#b498c6" d="M65.82 248.62c-4.13-.44-11-7.38-15.72-6.64s-9.53 5.31-9.53 5.31-12.7-4.87-16.84-4-9.45 2.36-10.63 3.54-.59 5.91 2.22 5.76 6.05-1 9.3-.44 8.73 6.36 12.41 8c14.17 6.2 29.24.44 29.24.44s3.73-11.52-.45-11.97Z"/><path fill="#8b6c9c" d="M64.15 248c-2.62.11-5-1.72-6.28-2.59-3.86-2.56-4.62-2.62-19.34 1.45-5.79-2.69-4.72-1.58-7.88-2.74a18.46 18.46 0 0 1 8.14 1.76c-.64 0 13-5.16 16.5-3.92s6.23 5.3 8.86 6.04Z"/><path fill="#093f22" d="M90.49 53.46a87 87 0 0 1 3.14-10.86c19.79-3.78 64.81 2.3 67.52 6.22s1.23 13.54 1.18 16.09 8.72 6.72 8.72 6.72l4.57-.74s-8.51-2.28-8.66-6.71 1.56-16.78-3.22-18.69c-29.19-11.62-64.36-8.8-72.53-6.65-6.5 1.7-9.09 6.62-7.44 10.27s6.72 4.35 6.72 4.35ZM160.49 78.05l7.38 2.95-3.99 9.31-7.34-2.07 3.95-10.19z"/><path fill="#b498c6" d="M153.33 236.52c-10.63-4-31.44 3.41-44.53 5.89-29.24 5.53-37.33 5.55-44.09 6-5 .33-3.44 8.5-2.43 12.17 34.11 6.21 41.2 8.42 72 8.92 22.36-5.62 29.72-28.99 19.05-32.98Z"/><path fill="#8b6c9c" d="M131.58 242.4c.39-2 .09-3.41.48-5.52l2.21-.22a53.48 53.48 0 0 0-2.69 5.74Z"/><path fill="#fc3" d="M148.89 45c2 6.65 5.32 17.43 2.44 27.4-2.29 1-10 3.61-12.33 3.39.66-5.76.44-23.11-3.77-32.64 2.31.14 8.22 1.03 13.66 1.85Z"/><path fill="#fcee21" d="M145.22 62.31c-3.94 1.59-12.14 3.79-17.43 1.19 0 0-1.22-9.33 5.51-8.76s11.92 7.57 11.92 7.57Z"/><path fill="#f15a24" d="M127.69 63.52c-1.85-4-.92-8.41 4.11-9.48 4.24-.75 11.08 1.85 13.5 8.21-.29.22-7.6-8.06-14-6.15-4.44 1.33-3.13 7.35-3.61 7.42ZM122.88 45.74c-1.23.51.14 4 1.3 4.36s9.23-2.79 12.1-2.41 8.81 4.79 11.58 7c-.44-1.88-7.92-9.3-10.88-9.92s-12.87.45-14.1.97Z"/><ellipse cx="131.8" cy="60.56" fill="#f15a24" rx="3.76" ry="3.99" transform="rotate(-5.96 131.772 60.6)"/></svg>