<svg xmlns="http://www.w3.org/2000/svg" width="153" height="108" viewBox="0 0 595.276 841.89"><path d="M-81.143 289.235c26.67-1.36 53.71 5.84 76.08 20.45 27.82 17.89 48.24 46.9 55.47 79.2 8.2 35.481.51 74.32-21.03 103.74-19.52 27.24-50.08 46.29-83.19 51.61-26.43 4.39-54.23.4-78.22-11.59-25.21-12.43-46.11-33.38-58.42-58.65-13.52-27.32-16.65-59.52-8.909-88.98 7.17-27.76 24.06-52.86 47-70.06 20.419-15.49 45.599-24.609 71.22-25.72zm-.42 25.35c-21.33 41.53-42.75 83.02-64.13 124.52 21.39-.02 42.79.01 64.18-.01-.02-41.51.09-83.01-.05-124.51zm13.05 81.5c-.01 41.51.02 83.03-.01 124.54 21.55-41.44 42.76-83.05 64.25-124.52-21.41-.07-42.82-.03-64.24-.02z" fill="#00be28" fill-rule="evenodd"/><path d="M-81.563 314.586c.14 41.5.03 83 .05 124.51-21.39.02-42.79-.01-64.18.01 21.38-41.5 42.8-82.99 64.13-124.52zm13.05 81.5c21.42-.01 42.83-.05 64.24.019-21.49 41.47-42.7 83.08-64.25 124.52.03-41.51 0-83.03.01-124.54z" fill="#fff" fill-rule="evenodd"/><path d="M120.697 334.555c15.17-.07 30.34-.01 45.51-.03-.02 37.16.01 74.32-.02 111.48-.09 10.56-1.43 21.5-6.7 30.851-6.76 12.1-19.02 19.62-31.07 25.68-3.69-5.51-7.02-11.241-10.68-16.76 7.79-4.801 15.83-10.2 20.31-18.44 2.9-5.291 3.87-11.39 3.92-17.361-.02-32.3 0-64.61-.01-96.92-7.06-.01-14.12 0-21.18 0-.08-6.17.03-12.34-.08-18.5zm535.206.05c7.607-.16 15.224-.06 22.83-.06-.09 25.501.172 51.01-.13 76.51 10.734-12.889 21.105-26.08 31.839-38.97 9.816.08 19.622-.03 29.439.06-12.339 14.3-24.506 28.74-36.844 43.03 13.428 15.98 26.916 31.91 40.375 47.88-9.898-.01-19.784 0-29.681-.01a28313.007 28313.007 0 0 0-35.008-42.99c.02 14.29-.01 28.57.02 42.86-7.576.29-15.173.07-22.76.12-.08-42.81.081-85.62-.08-128.43zm-359.887 11.81c7.611.05 15.231-.18 22.841.11-.16 8.53-.05 17.06-.06 25.58 9.48.02 18.97-.009 28.46.02-.03 5.87-.03 11.74-.01 17.61-9.49.04-18.98 0-28.47.02.05 16.09-.07 32.19.06 48.28-.08 4.02 2.87 7.8 6.86 8.52 6.67 1.39 13.36-.93 19.81-2.41-.07 5.77-.05 11.53-.011 17.3a72.497 72.497 0 0 1-26.859 3.76c-6.021-.39-12.33-2.21-16.58-6.7-4.47-4.61-6.01-11.27-6.02-17.51-.01-17.079.01-34.16-.01-51.24-4.18-.009-8.36.011-12.53-.02 0-5.81-.03-11.62.02-17.44 4.17 0 8.349 0 12.53-.01-.03-8.63.02-17.249-.03-25.87zm-93.4 32.47c10.68-8.83 25.611-10.97 38.91-8.21 9.32 1.82 17.92 7.52 22.64 15.84 6.37 10.76 6.201 23.79 4.82 35.82-19.459.02-38.92-.03-58.369.03.29 6.44 1.56 13.46 6.45 18.1 5.71 5.41 14.04 6.27 21.55 6.32 9.65.23 19.09-2.33 28.11-5.54-.01 6.28 0 12.56 0 18.84-14.54 4.51-30.08 6.5-45.21 4.34-9.97-1.5-19.89-6.06-26.05-14.26-7.42-9.68-9.37-22.32-9.25-34.21.14-13.85 5.47-28.16 16.4-37.07zm14.811 12.87c-4.2 4.08-5.83 9.94-6.68 15.55 11.8.08 23.6.01 35.4.04-.18-6.47-1.2-14.04-6.86-18.12-6.65-4.32-16.3-3.05-21.86 2.53zm170.06-11.52c8.569-6.66 19.19-10.9 30.15-10.67 10.46-.16 21.1 4.42 27.369 12.96 8.3 11.19 9.76 25.93 8.561 39.41-1.261 14.51-8.321 29.24-21.24 36.74-13.13 7.94-29.32 7.37-43.84 4.35-.01 16.03-.01 32.07 0 48.1-7.56.01-15.12 0-22.68.01.03-46.43-.04-92.85.04-139.27 7.2.11 14.41.08 21.61.01.03 2.78.049 5.57.03 8.36zm.99 17.91c-.05 15.72.12 31.45-.09 47.17 5.95 1.46 12.119 1.98 18.23 1.87 7-.13 14.28-3.06 18.28-9.01 5.06-7.329 5.8-16.63 5.49-25.27-.32-6.6-1.25-13.68-5.52-18.98-3.36-4.25-8.99-5.94-14.23-5.67-8.35.28-15.9 4.66-22.16 9.89zm83.38-22.6c11.48-3.94 23.63-6 35.769-5.97 9.17.13 19.08 1.86 26.01 8.35 6.78 6.37 8.91 16.07 9.11 25.04.04 20.02.01 40.05.01 60.07-7.02.04-14.04 0-21.05.03-.24-3.43-.16-6.87-.16-10.3-8.31 6.47-18.11 11.83-28.9 11.91-8.77.58-17.77-3.76-22.33-11.35-4.68-7.84-4.92-17.92-1.64-26.32 3.2-7.92 10.961-12.87 18.89-15.17 10.58-3.04 21.67-3.53 32.49-5.34-.04-4.82.14-10.2-2.98-14.21-2.9-3.78-8.03-4.52-12.47-4.64-10.59.06-20.96 2.7-30.95 5.99-.38-6.05-1.16-12.07-1.8-18.09zm28.88 48.07c-4.591.65-9.041 3.73-10.22 8.37-1.84 5.98.65 14.26 7.55 15.4 8.13.99 15.56-3.67 21.989-8.07-.09-6.25-.03-12.49-.04-18.73-6.42 1.08-12.87 1.94-19.28 3.03zm75.628-43.94c9.856-7.9 22.91-10.53 35.29-10.08 7.879.12 15.617 1.9 23.082 4.35.02 6.43-.01 12.86.02 19.28-10.754-3.83-22.558-6.81-33.908-4.12-8.08 1.91-14.174 8.91-15.859 16.9-1.907 8.81-1.715 18.34 1.513 26.83 2.442 6.53 8.313 11.52 15.123 12.99 11.552 2.62 23.477-.42 34.281-4.6-.02 6.29-.01 12.59 0 18.891-14.76 5.21-31.062 7.08-46.306 2.93-8.99-2.39-17.312-7.87-22.236-15.87-6.529-10.401-7.808-23.18-6.999-35.19.92-12.26 6.152-24.62 15.999-32.31z" fill-rule="evenodd"/></svg>