<?xml version="1.0" encoding="UTF-8"?>
<svg width="170px" height="31px" viewBox="0 0 170 31" version="1.1" xmlns="http://www.w3.org/2000/svg" xmlns:xlink="http://www.w3.org/1999/xlink">
    <title>Group</title>
    <g id="Jetpack-Boost-ad-in-Yoast-SEO" stroke="none" stroke-width="1" fill="none" fill-rule="evenodd">
        <g id="Jetpack-Boost-ad-in-Yoast-SEO---Integrations-page---Active" transform="translate(-812.000000, -328.000000)" fill-rule="nonzero">
            <g id="Group" transform="translate(812.000000, 328.000000)">
                <path d="M125.929075,12.8823731 C126.393095,12.9496681 126.807918,13.0731435 127.174761,13.2527992 C127.548892,13.4323942 127.867146,13.6643432 128.128917,13.948707 C128.398582,14.2256004 128.603868,14.5586134 128.746597,14.947746 C128.888718,15.3294081 128.959779,15.7671899 128.959779,16.2610914 C128.959779,16.6128109 128.906939,16.983237 128.802474,17.3723696 C128.697401,17.7540318 128.521876,18.1281627 128.274682,18.4948839 C128.035384,18.8540739 127.71713,19.1870869 127.320526,19.4939229 C126.931819,19.8006981 126.445327,20.0514144 125.861659,20.2460111 C125.412216,20.3956635 124.914792,20.5004323 124.368779,20.5602568 C123.822159,20.620142 123.16743,20.6500847 122.403984,20.6500847 L118.520554,20.6500847 L118.520554,5.63096227 L122.269759,5.63096227 C122.613522,5.63096227 122.924488,5.63844488 123.201442,5.65341012 C123.485684,5.66089274 123.74381,5.67586405 123.97582,5.69831191 C124.215118,5.72075977 124.436196,5.75069632 124.637838,5.78810941 C124.840087,5.81804596 125.030796,5.85546513 125.210574,5.90036084 C125.681882,6.02757751 126.108245,6.20346764 126.490272,6.42794621 C126.878979,6.64495431 127.208773,6.90684597 127.477832,7.21368193 C127.747497,7.5205179 127.953391,7.86847182 128.095512,8.25760445 C128.244921,8.64673707 128.319626,9.06957792 128.319626,9.52606627 C128.319626,9.89272674 128.274682,10.2444463 128.184793,10.5812249 C128.1028,10.9179427 127.964323,11.2285443 127.769969,11.5129081 C127.582904,11.7972719 127.33571,12.0516931 127.028996,12.2761717 C126.72957,12.500711 126.362727,12.6877764 125.929075,12.8374288 L125.929075,12.8823731 Z M123.134025,12.1302849 C123.492973,12.1302849 123.803331,12.1152832 124.065709,12.0853406 C124.327479,12.0479275 124.563133,11.9955735 124.77267,11.9282177 C125.333867,11.7411523 125.74201,11.4492572 125.996492,11.0526541 C126.258262,10.656051 126.388843,10.1883266 126.388843,9.64954163 C126.388843,9.09575494 126.254618,8.6430322 125.984952,8.29131267 C125.715286,7.93959314 125.292567,7.67764075 124.716794,7.50551622 C124.431944,7.42321956 124.102757,7.36709991 123.728626,7.33715729 C123.354496,7.2997442 122.912948,7.28103765 122.403984,7.28103765 L120.349908,7.28103765 L120.349908,12.1302849 L123.134025,12.1302849 Z M120.349908,13.7803481 L120.349908,19.0000214 L122.561289,19.0000214 C123.085437,19.0000214 123.571321,18.9775493 124.020764,18.9326657 C124.4696,18.8802509 124.851019,18.8017199 125.165629,18.6969511 C125.51,18.5846511 125.801531,18.4424691 126.040829,18.2703446 C126.280734,18.0907496 126.471444,17.8962137 126.613565,17.6866761 C126.762974,17.469668 126.868047,17.2414238 126.928175,17.0019435 C126.994984,16.7624633 127.028996,16.5192782 127.028996,16.2723275 C127.028996,15.9879636 126.994984,15.7223064 126.928175,15.4753557 C126.860758,15.2208737 126.748398,14.9963952 126.591093,14.8018592 C126.441683,14.5997921 126.239434,14.4239019 125.984952,14.2742496 C125.737758,14.1245972 125.4274,14.0085923 125.053269,13.9262956 C124.828547,13.8738809 124.570421,13.8364678 124.27889,13.8139956 C123.994648,13.7915842 123.638738,13.7803481 123.212374,13.7803481 L120.349908,13.7803481 Z" id="Shape" fill="#000000"></path>
                <path d="M139.28968,15.3294081 C139.28968,14.6708527 139.207687,14.0871841 139.043094,13.578281 C138.885789,13.0619681 138.661067,12.6278912 138.369536,12.2761717 C138.084687,11.9169817 137.744568,11.6476195 137.347965,11.4679638 C136.951362,11.2808983 136.517102,11.1873656 136.045795,11.1873656 C135.574487,11.1873656 135.140228,11.2808983 134.743625,11.4679638 C134.347021,11.6476195 134.002651,11.9169817 133.71112,12.2761717 C133.426878,12.6278912 133.202156,13.0619681 133.037563,13.578281 C132.880258,14.0871841 132.801909,14.6708527 132.801909,15.3294081 C132.801909,15.9804324 132.880258,16.5641617 133.037563,17.0805353 C133.202156,17.5893777 133.430522,18.019689 133.722053,18.3714086 C134.014191,18.7231281 134.358561,18.9924902 134.755164,19.1796164 C135.151767,19.3592114 135.585419,19.4489786 136.056727,19.4489786 C136.528642,19.4489786 136.95865,19.3592114 137.347965,19.1796164 C137.744568,18.9924902 138.084687,18.7231281 138.369536,18.3714086 C138.661067,18.019689 138.885789,17.5893777 139.043094,17.0805353 C139.207687,16.5641617 139.28968,15.9804324 139.28968,15.3294081 Z M141.108102,15.3294081 C141.108102,16.1675586 140.988453,16.9308222 140.749155,17.6193203 C140.509857,18.3077577 140.169131,18.8989575 139.727583,19.3928589 C139.293324,19.8792899 138.76614,20.2571864 138.144815,20.5266093 C137.52349,20.7960322 136.828068,20.9306829 136.056727,20.9306829 C135.263521,20.9306829 134.552915,20.7960322 133.924302,20.5266093 C133.302977,20.2571864 132.771541,19.8792899 132.329994,19.3928589 C131.896342,18.8989575 131.563512,18.3077577 131.331502,17.6193203 C131.099492,16.9308222 130.983487,16.1675586 130.983487,15.3294081 C130.983487,14.4837872 131.103136,13.716758 131.342434,13.0282599 C131.581732,12.3398225 131.918814,11.7486227 132.352466,11.2547213 C132.794014,10.7608199 133.32545,10.3791577 133.946774,10.1097348 C134.575387,9.8403727 135.275061,9.70566127 136.045795,9.70566127 C136.831713,9.70566127 137.538674,9.8403727 138.167287,10.1097348 C138.7959,10.3791577 139.327336,10.7608199 139.760988,11.2547213 C140.195247,11.7486227 140.528078,12.3398225 140.760087,13.0282599 C140.992097,13.716758 141.108102,14.4837872 141.108102,15.3294081 L141.108102,15.3294081 Z" id="Shape" fill="#000000"></path>
                <path d="M151.202957,15.3294081 C151.202957,14.6708527 151.120356,14.0871841 150.955763,13.578281 C150.798458,13.0619681 150.574344,12.6278912 150.282206,12.2761717 C149.997964,11.9169817 149.657237,11.6476195 149.260634,11.4679638 C148.864031,11.2808983 148.430379,11.1873656 147.958464,11.1873656 C147.487156,11.1873656 147.052897,11.2808983 146.656294,11.4679638 C146.259691,11.6476195 145.915928,11.9169817 145.62379,12.2761717 C145.339547,12.6278912 145.114826,13.0619681 144.950233,13.578281 C144.792928,14.0871841 144.714579,14.6708527 144.714579,15.3294081 C144.714579,15.9804324 144.792928,16.5641617 144.950233,17.0805353 C145.114826,17.5893777 145.343192,18.019689 145.63533,18.3714086 C145.92686,18.7231281 146.271231,18.9924902 146.667834,19.1796164 C147.064437,19.3592114 147.498696,19.4489786 147.970004,19.4489786 C148.441312,19.4489786 148.871927,19.3592114 149.260634,19.1796164 C149.657237,18.9924902 149.997964,18.7231281 150.282206,18.3714086 C150.574344,18.019689 150.798458,17.5893777 150.955763,17.0805353 C151.120356,16.5641617 151.202957,15.9804324 151.202957,15.3294081 L151.202957,15.3294081 Z M153.021379,15.3294081 C153.021379,16.1675586 152.90173,16.9308222 152.661824,17.6193203 C152.422526,18.3077577 152.0818,18.8989575 151.640253,19.3928589 C151.206601,19.8792899 150.678809,20.2571864 150.057484,20.5266093 C149.436767,20.7960322 148.740738,20.9306829 147.970004,20.9306829 C147.176798,20.9306829 146.465584,20.7960322 145.836972,20.5266093 C145.216254,20.2571864 144.684818,19.8792899 144.243271,19.3928589 C143.809012,18.8989575 143.476181,18.3077577 143.244171,17.6193203 C143.012161,16.9308222 142.896157,16.1675586 142.896157,15.3294081 C142.896157,14.4837872 143.015806,13.716758 143.255104,13.0282599 C143.495009,12.3398225 143.831484,11.7486227 144.265743,11.2547213 C144.70729,10.7608199 145.238726,10.3791577 145.859444,10.1097348 C146.488057,9.8403727 147.18773,9.70566127 147.958464,9.70566127 C148.744382,9.70566127 149.451344,9.8403727 150.079957,10.1097348 C150.708569,10.3791577 151.240005,10.7608199 151.674265,11.2547213 C152.107916,11.7486227 152.441354,12.3398225 152.673364,13.0282599 C152.905374,13.716758 153.021379,14.4837872 153.021379,15.3294081 L153.021379,15.3294081 Z" id="Shape" fill="#000000"></path>
                <path d="M156.548899,12.8261927 C156.548899,13.1180878 156.612672,13.357568 156.739609,13.5446335 C156.867154,13.731699 157.035391,13.8851169 157.244929,14.0048267 C157.461754,14.1171267 157.708948,14.2106594 157.985902,14.2854856 C158.270145,14.3603118 158.562283,14.4276675 158.861101,14.4875528 C159.272888,14.5773199 159.662203,14.6783839 160.029046,14.7906231 C160.395281,14.895392 160.732363,15.0562804 161.039078,15.2732885 C161.353081,15.4902966 161.603919,15.7858965 161.790984,16.1600882 C161.985945,16.5267486 162.083122,17.0057091 162.083122,17.5968482 C162.083122,18.1356939 161.978049,18.6145937 161.768512,19.0336689 C161.558974,19.4452737 161.263799,19.7932276 160.881773,20.0775914 C160.500354,20.3544848 160.043622,20.5640224 159.512186,20.7062043 C158.981358,20.8558567 158.397689,20.9306829 157.761181,20.9306829 C157.371866,20.9306829 157.016563,20.9082715 156.694665,20.8633879 C156.380662,20.8259141 156.100064,20.77356 155.85287,20.7062043 C155.613572,20.6463191 155.407678,20.582729 155.235797,20.5153732 C155.063308,20.4480175 154.921187,20.3844274 154.808826,20.3245422 L154.808826,18.86531 C155.258269,19.044905 155.70346,19.1870869 156.145008,19.2918557 C156.586555,19.3966245 157.073047,19.4489786 157.603876,19.4489786 C158.022951,19.4489786 158.401333,19.4115655 158.737808,19.3367393 C159.07489,19.2619131 159.362777,19.1534394 159.602075,19.0111968 C159.849269,18.8615444 160.036334,18.6782445 160.163271,18.4611757 C160.298104,18.2366971 160.365521,17.9785103 160.365521,17.6866761 C160.365521,17.3873106 160.305393,17.1403598 160.185744,16.9458239 C160.066095,16.7512272 159.905145,16.5903388 159.703503,16.4631585 C159.501254,16.3359176 159.2656,16.2311488 158.995934,16.1488521 C158.734164,16.0664947 158.45721,15.9916685 158.165679,15.9243128 C157.783653,15.8420161 157.394338,15.7447178 156.997735,15.6324785 C156.609027,15.5202392 156.253117,15.3630556 155.931826,15.1610492 C155.609928,14.9589821 155.348158,14.6858543 155.145908,14.3416053 C154.951554,13.9898857 154.85377,13.5408679 154.85377,12.9946124 C154.85377,12.4333552 154.955199,11.9469243 155.156841,11.5353195 C155.35909,11.1237755 155.6324,10.7832313 155.97677,10.5138691 C156.320534,10.2444463 156.721388,10.0423791 157.177512,9.90772842 C157.634243,9.77301698 158.116484,9.70566127 158.625447,9.70566127 C159.217012,9.70566127 159.763024,9.76178091 160.2647,9.87402019 C160.773056,9.98625948 161.233432,10.1284414 161.645219,10.3005659 L161.645219,11.7822702 C161.196383,11.6101457 160.739652,11.4717294 160.275632,11.3669606 C159.819508,11.2547213 159.347593,11.194836 158.861101,11.1873656 C158.449922,11.1873656 158.098263,11.2285443 157.806125,11.3108409 C157.514594,11.3931376 157.274689,11.5091425 157.087624,11.6587949 C156.900558,11.8009768 156.762081,11.9731013 156.672192,12.1751685 C156.590199,12.3697651 156.548899,12.5867732 156.548899,12.8261927 L156.548899,12.8261927 Z" id="Path" fill="#000000"></path>
                <path d="M170,20.6725568 C169.849983,20.7323813 169.621618,20.788501 169.314903,20.8409157 C169.008189,20.8932698 168.641346,20.9232124 168.214982,20.9306829 C167.653786,20.9306829 167.167294,20.8596223 166.755507,20.7174404 C166.344328,20.582729 165.999957,20.388193 165.723003,20.1337111 C165.453337,19.8718194 165.251695,19.557513 165.116862,19.1908525 C164.982029,18.8241313 164.914613,18.4162921 164.914613,17.9672743 L164.914613,11.4791999 L162.860537,11.4791999 L162.860537,9.98625948 L164.914613,9.98625948 L164.914613,7.06779516 L166.654686,7.06779516 L166.654686,9.98625948 L169.842695,9.98625948 L169.842695,11.4791999 L166.654686,11.4791999 L166.654686,17.6979121 C166.654686,17.9448628 166.688091,18.173107 166.755507,18.3826446 C166.830819,18.5921823 166.942573,18.7754821 167.09259,18.9326657 C167.249895,19.0823181 167.447892,19.2020279 167.687191,19.2918557 C167.927096,19.3741524 168.214982,19.4153311 168.551457,19.4153311 C168.783467,19.4153311 169.027017,19.3966245 169.281499,19.3592114 C169.543269,19.3217983 169.782567,19.2731492 170,19.2132639 L170,20.6725568 Z" id="Path" fill="#000000"></path>
                <path d="M15.1750791,30.349065 C23.5559767,30.349065 30.3501583,23.5548835 30.3501583,15.1739859 C30.3501583,6.79302756 23.5559767,0 15.1750791,0 C6.79418153,0 0,6.79418153 0,15.1750791 C0,23.5559767 6.79418153,30.349065 15.1750791,30.349065 Z" id="Path" fill="#069E08"></path>
                <polygon id="Path" fill="#FFFFFF" points="15.9282606 12.6264335 15.9282606 27.3373717 23.5157698 12.6264335"></polygon>
                <polygon id="Path" fill="#FFFFFF" points="14.3928661 17.6945109 14.3928661 3.01162657 6.83450994 17.6945109"></polygon>
                <g transform="translate(37.936574, 5.358011)" fill="#000000">
                    <path d="M1.24513937,19.8363681 C0.810212146,19.1699777 0.405652693,18.5047413 0,17.8675647 C2.1429929,16.5640585 2.86671764,15.5223225 2.86671764,13.5524258 L2.86671764,2.17107095 L0.3472251,2.17107095 L0.3472251,6.07355432e-06 L5.70525398,6.07355432e-06 L5.70525398,12.9736769 C5.70525398,16.275261 4.75006609,18.1283024 1.24513937,19.8363681 Z" id="Path"></path>
                    <path d="M23.6899593,12.0758233 C23.6899593,13.1759262 24.4716258,13.2916882 24.9933441,13.2916882 C25.5144551,13.2916882 26.2675758,13.1174986 26.8463855,12.9444631 L26.8463855,14.971694 C26.0349587,15.2324317 25.1955935,15.4346811 24.0367593,15.4346811 C22.6468264,15.4346811 21.0252481,14.9132664 21.0252481,12.480322 L21.0252481,6.51439111 L19.5486456,6.51439111 L19.5486456,4.45788562 L21.0252481,4.45788562 L21.0252481,1.41819315 L23.6899593,1.41819315 L23.6899593,4.45903959 L27.0486349,4.45903959 L27.0486349,6.51548435 L23.6899593,6.51548435 L23.6899593,12.0758233 Z" id="Path"></path>
                    <path d="M29.249691,20.8499836 L29.249691,4.4298258 L31.7981544,4.4298258 L31.7981544,5.41422748 C32.8118306,4.63207515 33.9415117,4.13987431 35.3317483,4.13987431 C37.7350537,4.13987431 39.6464012,5.81988017 39.6464012,9.4394756 C39.6464012,13.0309505 37.5619574,15.4054673 34.1158227,15.4054673 C33.2758501,15.4054673 32.6095812,15.2897053 31.9141592,15.1447296 L31.9141592,20.8207698 L29.249691,20.8207698 L29.249691,20.8499836 Z M34.6357189,6.34129481 C33.8534451,6.34129481 32.8695293,6.71773371 31.9420976,7.52909983 L31.9420976,13.1186526 C32.5209073,13.2343538 33.1300848,13.320902 33.940297,13.320902 C35.8224914,13.320902 36.8944738,12.1330969 36.8944738,9.64287894 C36.8944738,7.35491029 36.1122,6.34129481 34.6357189,6.34129481 L34.6357189,6.34129481 Z" id="Shape"></path>
                    <path d="M50.1287486,15.1739434 L47.6385914,15.1739434 L47.6385914,13.9861384 L47.5802852,13.9861384 C46.711767,14.6525287 45.6397846,15.3762535 44.0472987,15.3762535 C42.6570621,15.3762535 41.151428,14.362638 41.151428,12.3061325 C41.151428,9.55523755 43.4964273,9.03382291 45.1472194,8.80229902 L47.4928261,8.48428771 L47.4928261,8.16627641 C47.4928261,6.71773371 46.9140163,6.2548074 45.5517181,6.2548074 C44.8854492,6.2548074 43.3221163,6.45705676 42.0478846,6.97847139 L41.8164822,4.83547849 C42.9753164,4.4298258 44.5671949,4.14102829 45.9003401,4.14102829 C48.5065023,4.14102829 50.1864474,5.18385756 50.1864474,8.28203836 L50.1864474,15.1739434 L50.1287486,15.1739434 Z M47.4642804,10.1642936 L45.2632243,10.5115187 C44.5969554,10.5980668 43.9021407,11.0037195 43.9021407,11.9881212 C43.9021407,12.8568217 44.394706,13.3490225 45.1180663,13.3490225 C45.9003401,13.3490225 46.7397053,12.8860355 47.463673,12.3646208 L47.463673,10.1642936 L47.4642804,10.1642936 Z" id="Shape"></path>
                    <path d="M61.1340291,14.8267183 C60.033501,15.2031572 59.0495852,15.4346811 57.8032919,15.4346811 C53.8068931,15.4346811 52.2137998,13.1467124 52.2137998,9.81706847 C52.2137998,6.31323499 54.4148559,4.14102829 57.9763882,4.14102829 C59.3077113,4.14102829 60.1191381,4.37249144 61.0168095,4.66244293 L61.0168095,6.92113704 C60.235143,6.63124629 59.1054619,6.31323499 58.0055412,6.31323499 C56.3839022,6.31323499 54.9936656,7.18187473 54.9936656,9.67209273 C54.9936656,12.4230484 56.3839022,13.2635676 58.1500918,13.2635676 C58.9900644,13.2635676 59.9168888,13.0894388 61.1619674,12.597238 L61.1619674,14.8267183 L61.1340291,14.8267183 Z" id="Path"></path>
                    <path d="M66.1732571,9.06412995 C66.4046595,8.80345299 66.5789705,8.54271531 69.937646,4.45903959 L73.4123265,4.45903959 L69.0679131,9.55633079 L73.8168252,15.2031572 L70.3421448,15.2031572 L66.2011954,10.105866 L66.2011954,15.2031572 L63.5379419,15.2031572 L63.5379419,-2.15775995e-15 L66.2024101,-2.15775995e-15 L66.2024101,9.06412995 L66.1732571,9.06412995 Z" id="Path"></path>
                    <path d="M17.5494745,14.8267183 C16.1594201,15.2615848 14.9716151,15.4346811 13.5815,15.4346811 C10.1642146,15.4346811 8.05043551,13.7265547 8.05043551,9.72942709 C8.05043551,6.80428186 9.84620331,4.13987431 13.2916092,4.13987431 C16.7088945,4.13987431 17.8966996,6.51439111 17.8966996,8.77308522 C17.8966996,9.52602375 17.838272,9.93167644 17.8101514,10.3654497 L10.9182464,10.3654497 C10.976674,12.710692 12.3083008,13.2613204 14.3063179,13.2613204 C15.4064816,13.2613204 16.3908832,13.0006434 17.5213539,12.59493 L17.5213539,14.8244711 L17.5494745,14.8244711 L17.5494745,14.8267183 Z M15.117684,8.60004966 C15.117684,7.2964827 14.6828176,6.16710527 13.2646426,6.16710527 C11.9329551,6.16710527 11.1216497,7.12229316 10.9474602,8.60004966 L15.117684,8.60004966 Z" id="Shape"></path>
                </g>
            </g>
        </g>
    </g>
</svg>