<svg width="10" height="11" viewBox="0 0 10 11" fill="none" xmlns="http://www.w3.org/2000/svg">
	<path fill-rule="evenodd" clip-rule="evenodd" d="M2.5 5.46973V4.46973C2.5 3.08902 3.61929 1.96973 5 1.96973C6.3807 1.96973 7.5 3.08902 7.5 4.46973V5.46973C8.0523 5.46973 8.5 5.91744 8.5 6.46973V8.96973C8.5 9.52203 8.0523 9.96973 7.5 9.96973H2.5C1.94771 9.96973 1.5 9.52203 1.5 8.96973V6.46973C1.5 5.91744 1.94771 5.46973 2.5 5.46973ZM6.5 4.46973V5.46973H3.5V4.46973C3.5 3.6413 4.17158 2.96973 5 2.96973C5.82845 2.96973 6.5 3.6413 6.5 4.46973Z" fill="#78350F"/>
</svg>