<svg xmlns="http://www.w3.org/2000/svg" width="140" viewBox="0 0 713.359 175.868"><path fill="#2b90d9" d="M160.555 105.431c-2.413 12.407-21.598 25.983-43.634 28.614-11.491 1.373-22.804 2.631-34.867 2.079-19.73-.904-35.298-4.71-35.298-4.71 0 1.921.119 3.75.355 5.46 2.565 19.47 19.308 20.637 35.166 21.181 16.007.548 30.258-3.947 30.258-3.947l.659 14.472s-11.197 6.011-31.14 7.116c-11 .605-24.654-.276-40.56-4.485C6.999 162.08 1.066 125.31.159 88-.12 76.922.052 66.476.052 57.741.052 19.59 25.05 8.406 25.05 8.406 37.652 2.617 59.279.184 81.764 0h.552c22.484.184 44.125 2.618 56.729 8.406 0 0 24.996 11.183 24.996 49.335 0 0 .313 28.148-3.486 47.69"/><path fill="#282c37" d="M34.658 48.494c0-5.554 4.502-10.055 10.055-10.055s10.055 4.501 10.055 10.055c0 5.553-4.502 10.055-10.055 10.055s-10.055-4.503-10.055-10.055M178.865 60.7v46.195h-18.301V62.057c0-9.452-3.978-14.248-11.933-14.248-8.794 0-13.202 5.69-13.202 16.943v24.541h-18.194v-24.54c0-11.253-4.409-16.944-13.203-16.944-7.955 0-11.932 4.796-11.932 14.248v44.838H73.799V60.7c0-9.442 2.403-16.944 7.232-22.495 4.98-5.55 11.501-8.395 19.595-8.395 9.366 0 16.459 3.599 21.146 10.799l4.56 7.642 4.559-7.642c4.689-7.2 11.78-10.8 21.148-10.8 8.093 0 14.613 2.846 19.593 8.396 4.829 5.551 7.233 13.054 7.233 22.495m63.048 22.964c3.776-3.99 5.595-9.015 5.595-15.075 0-6.06-1.819-11.085-5.595-14.928-3.636-3.991-8.254-5.911-13.849-5.911-5.596 0-10.212 1.92-13.849 5.911-3.637 3.843-5.456 8.868-5.456 14.928 0 6.06 1.819 11.085 5.456 15.075 3.637 3.842 8.253 5.763 13.849 5.763 5.595 0 10.213-1.92 13.849-5.763m5.595-52.025h18.046v73.9h-18.046v-8.722c-5.455 7.243-13.01 10.79-22.801 10.79-9.373 0-17.347-3.695-24.062-11.233-6.573-7.538-9.931-16.85-9.931-27.785 0-10.79 3.358-20.102 9.931-27.64 6.715-7.537 14.689-11.38 24.062-11.38 9.79 0 17.346 3.548 22.8 10.79v-8.72zm78.762 35.62c5.315 3.99 7.973 9.606 7.833 16.7 0 7.538-2.658 13.45-8.113 17.588-5.457 3.992-12.03 6.06-20.004 6.06-14.409 0-24.201-5.912-29.378-17.588l15.669-9.31c2.098 6.353 6.714 9.606 13.709 9.606 6.434 0 9.652-2.07 9.652-6.356 0-3.104-4.197-5.912-12.73-8.128a117.46 117.46 0 0 1-7.973-2.514c-2.938-1.18-5.455-2.512-7.554-4.137-5.176-3.99-7.834-9.313-7.834-16.11 0-7.243 2.518-13.006 7.554-17.145 5.176-4.286 11.47-6.355 19.025-6.355 12.03 0 20.844 5.172 26.577 15.666l-15.386 8.868c-2.239-5.024-6.015-7.537-11.191-7.537-5.456 0-8.114 2.07-8.114 6.06 0 3.103 4.196 5.91 12.73 8.128 6.575 1.477 11.75 3.695 15.528 6.504m57.357-17.293h-15.808V80.71c0 3.695 1.4 5.91 4.058 6.945 1.958.74 5.875.887 11.75.59v17.295c-12.17 1.477-20.983.295-26.16-3.697-5.174-3.842-7.693-10.936-7.693-21.133V49.966h-12.17V31.64h12.17V16.71l18.045-5.764V31.64h15.808v18.327zm57.498 33.255c3.637-3.844 5.455-8.722 5.455-14.633s-1.818-10.789-5.455-14.631c-3.638-3.844-8.114-5.764-13.57-5.764-5.455 0-9.931 1.92-13.569 5.764-3.497 3.99-5.316 8.867-5.316 14.631 0 5.765 1.819 10.643 5.316 14.633 3.638 3.842 8.114 5.763 13.569 5.763 5.456 0 9.932-1.921 13.57-5.763m-39.869 13.153c-7.134-7.537-10.631-16.701-10.631-27.786 0-10.937 3.497-20.1 10.631-27.637 7.134-7.538 15.948-11.38 26.299-11.38 10.352 0 19.165 3.842 26.3 11.38 7.135 7.537 10.771 16.848 10.771 27.637 0 10.938-3.636 20.249-10.771 27.786-7.135 7.539-15.808 11.233-26.3 11.233-10.491 0-19.165-3.694-26.299-11.233m123.665-12.71c3.638-3.99 5.455-9.015 5.455-15.075 0-6.06-1.817-11.085-5.455-14.928-3.636-3.991-8.253-5.911-13.848-5.911-5.597 0-10.213 1.92-13.99 5.911-3.635 3.843-5.455 8.868-5.455 14.928 0 6.06 1.82 11.085 5.456 15.075 3.776 3.842 8.532 5.763 13.989 5.763 5.595 0 10.212-1.92 13.848-5.763m5.455-81.585h18.047v103.46h-18.047v-8.722c-5.315 7.243-12.87 10.79-22.661 10.79-9.372 0-17.485-3.695-24.2-11.233-6.575-7.538-9.932-16.85-9.932-27.785 0-10.79 3.357-20.102 9.932-27.64 6.715-7.537 14.828-11.38 24.2-11.38 9.791 0 17.346 3.548 22.661 10.79V2.079zm81.42 81.142c3.637-3.844 5.455-8.722 5.455-14.633s-1.818-10.789-5.455-14.631c-3.637-3.844-8.113-5.764-13.57-5.764-5.455 0-9.932 1.92-13.568 5.764-3.5 3.99-5.317 8.867-5.317 14.631 0 5.765 1.818 10.643 5.317 14.633 3.636 3.842 8.113 5.763 13.568 5.763 5.457 0 9.933-1.921 13.57-5.764m-39.868 13.154c-7.135-7.537-10.632-16.701-10.632-27.786 0-10.938 3.497-20.1 10.632-27.637 7.135-7.538 15.947-11.38 26.298-11.38 10.353 0 19.165 3.842 26.3 11.38 7.135 7.537 10.772 16.848 10.772 27.637 0 10.938-3.637 20.249-10.772 27.786-7.135 7.539-15.807 11.233-26.3 11.233-10.491 0-19.163-3.694-26.298-11.233m141.43-36.21v45.374h-18.045v-43.01c0-4.877-1.26-8.572-3.777-11.38-2.378-2.512-5.736-3.843-10.072-3.843-10.213 0-15.388 6.06-15.388 18.328v39.905H648.03v-73.9h18.046v8.277c4.337-6.946 11.19-10.345 20.844-10.345 7.694 0 13.989 2.66 18.885 8.129 5.035 5.469 7.554 12.859 7.554 22.465"/></svg>