<svg role="img" aria-hidden="true" focusable="false" xmlns="http://www.w3.org/2000/svg" viewBox="0 0 254 96"><defs><radialGradient id="c" cx="132.75" cy="69.66" r="12.86" fx="132.75" fy="69.66" gradientTransform="matrix(1 0 0 -1 0 98)" gradientUnits="userSpaceOnUse"><stop offset="0" stop-color="#9fda4f"/><stop offset="1" stop-color="#77b227"/></radialGradient><radialGradient id="d" cx="124.22" cy="44.84" r="10.3" fx="124.22" fy="44.84" gradientTransform="matrix(1 0 0 -1 0 98)" gradientUnits="userSpaceOnUse"><stop offset="0" stop-color="#fec228"/><stop offset=".22" stop-color="#fbb81e"/><stop offset="1" stop-color="#f49a00"/></radialGradient><radialGradient id="e" cx="113.13" cy="30.08" r="5.04" fx="113.13" fy="30.08" gradientTransform="matrix(1 0 0 -1 0 98)" gradientUnits="userSpaceOnUse"><stop offset="0" stop-color="#ff4e47"/><stop offset="1" stop-color="#ed261f"/></radialGradient><linearGradient id="a" x1="-1.92" x2="258.06" y1="97.88" y2="1.33" gradientTransform="matrix(1 0 0 -1 0 98)" gradientUnits="userSpaceOnUse"><stop offset=".17" stop-color="#5d237a"/><stop offset=".42" stop-color="#7c2072"/><stop offset=".71" stop-color="#9a1e6b"/><stop offset=".87" stop-color="#a61e69"/></linearGradient></defs><path fill="url(#a)" d="M-7.4 0h268.8v96H-7.4z"/><path fill="url(#c)" d="M146.82 22.22c-6.18-3.49-14.02-1.31-17.51 4.87S128 41.11 134.18 44.6s14.02 1.31 17.51-4.87 1.31-14.02-4.87-17.51"/><path fill="url(#d)" d="M133.83 48.96s-.01 0-.02-.01h-.02a8.386 8.386 0 0 0-11.44 3.18c-2.28 4.04-.86 9.16 3.18 11.44 4.04 2.27 9.15.84 11.42-3.19 2.28-4.03.86-9.13-3.14-11.42"/><path fill="url(#e)" d="M122.05 70.4c0-1.76-.92-3.46-2.56-4.39-.78-.44-1.63-.65-2.48-.65-2.78 0-5.05 2.25-5.05 5.04s2.25 5.05 5.04 5.05 5.05-2.25 5.05-5.04"/><path fill="#fff" d="M102.23 61v4.58c2.83-.12 5.05-1.05 6.92-2.95 1.88-1.9 3.59-4.98 5.23-9.56l12.14-32.51h-5.87l-9.78 27.16-4.85-15.23h-5.38l7.13 18.33c.69 1.76.69 3.72 0 5.48-.72 1.86-2.02 4.05-5.54 4.71Z"/><path fill="#cd82ab" d="M152.37 74.41h-11.8v1.04h11.8zM149.18 70.32l-2.71-4.99-2.71 4.99-4.17-2.96.98 6.68h11.8l.98-6.68z"/></svg>