<svg width="120" height="36" role="img" aria-label="Ryte" fill="none" xmlns="http://www.w3.org/2000/svg"><path d="M91.984 22.882c-.586-.487-.87-1.325-.87-2.494v-8.183h5.69V7.43h-5.69V2.19h-5.48V20.875c0 2.572.7 4.52 2.098 5.826 1.398 1.305 3.383 1.968 5.953 1.968 1.228 0 2.476-.175 3.78-.507v-4.734c-1.267.116-2.136.175-2.608.175-1.342 0-2.306-.234-2.873-.721z" fill="url(#prefix__paint0_linear)"></path><path d="M70.422 16.472l-3.527-9.211h-6.05l6.602 15.774 2.975-6.563z" fill="url(#prefix__paint1_linear)"></path><path d="M76.307 9.05l-4.83 11.167-2.806 6.497-.611 1.42c-.477 1.031-1.03 1.75-1.68 2.179-.649.428-1.508.622-2.539.622h-6.376l3.646 5.058h3.895c1.89 0 3.474-.506 4.753-1.498 1.28-1.011 2.406-2.587 3.322-4.727l9.736-22.507h-5.746l-.764 1.79z" fill="url(#prefix__paint2_linear)"></path><path d="M120 16.46c0-2.762-.9-5.089-2.702-6.962-1.802-1.874-4.102-2.8-6.901-2.8h-.21c-2.856 0-5.31 1.044-7.38 3.174-2.108 2.17-3.144 4.773-3.086 7.81-.058 3.057 1.016 5.66 3.201 7.83 2.185 2.169 4.849 3.214 7.974 3.155 2.99 0 5.712-1.046 8.165-3.136l-2.3-3.905c-1.782 1.42-3.68 2.13-5.693 2.13-1.476 0-2.722-.355-3.737-1.084-.997-.73-1.668-1.736-1.994-3.077h14.299c.249-1.065.364-2.11.364-3.136zm-14.682-.888c.307-1.302.901-2.327 1.783-3.096.881-.77 1.916-1.144 3.086-1.144 1.226 0 2.261.394 3.105 1.163.843.77 1.265 1.795 1.303 3.077h-9.277z" fill="url(#prefix__paint3_linear)"></path><path d="M53.69 17.277c.98-.486 1.805-1.088 2.496-1.827.384-.408.73-.875 1.037-1.361.845-1.38 1.267-2.936 1.267-4.666 0-2.644-.921-4.802-2.765-6.435C53.863 1.317 51.52.5 48.64.5H36.62v27.606h5.588V5.476h6.432c1.248 0 2.247.37 2.995 1.09.75.719 1.133 1.671 1.133 2.838 0 .991-.25 1.827-.748 2.488a2.17 2.17 0 01-.346.389c-.73.72-1.748 1.089-3.034 1.089h-4.186l3.61 4.976 7.066 9.74h6.279L53.69 17.277z" fill="url(#prefix__paint4_linear)"></path><path d="M36.62.5v27.606h5.634V.5H36.62z" fill="url(#prefix__paint5_linear)"></path><path d="M14.801 32.05l-3.807-4.59 9.72-21.985A8.336 8.336 0 0128.346.5h.386L14.801 32.05zm-5.662-6.827L0 14.192h6.917l4.619 5.573-2.397 5.458z" fill="url(#prefix__paint6_linear)"></path><defs><linearGradient id="prefix__paint0_linear" x1="85.662" y1="-0.111" x2="75.349" y2="20.239" gradientUnits="userSpaceOnUse"><stop offset="0.022" stop-color="#E297C2"></stop><stop offset="0.561" stop-color="#7D52AF"></stop><stop offset="1" stop-color="#4249A3"></stop></linearGradient><linearGradient id="prefix__paint1_linear" x1="68.281" y1="19.919" x2="64.526" y2="7.887" gradientUnits="userSpaceOnUse"><stop stop-color="#EF3D48"></stop><stop offset="0.991" stop-color="#F68E58"></stop></linearGradient><linearGradient id="prefix__paint2_linear" x1="63.867" y1="32.608" x2="82.87" y2="8.162" gradientUnits="userSpaceOnUse"><stop stop-color="#F68B68"></stop><stop offset="0.516" stop-color="#ED2541"></stop><stop offset="1" stop-color="#F4879A"></stop></linearGradient><linearGradient id="prefix__paint3_linear" x1="103.521" y1="30.341" x2="118.033" y2="10.489" gradientUnits="userSpaceOnUse"><stop stop-color="#4A50A2"></stop><stop offset="0.456" stop-color="#5980DB"></stop><stop offset="1" stop-color="#69B3DC"></stop></linearGradient><linearGradient id="prefix__paint4_linear" x1="51.708" y1="27.907" x2="41.998" y2="4.839" gradientUnits="userSpaceOnUse"><stop stop-color="#F26A63"></stop><stop offset="0.258" stop-color="#F78D38"></stop><stop offset="0.973" stop-color="#FDBD12"></stop></linearGradient><linearGradient id="prefix__paint5_linear" x1="39.437" y1="33.616" x2="39.437" y2="5.926" gradientUnits="userSpaceOnUse"><stop offset="0.358" stop-color="#A8CE60"></stop><stop offset="1" stop-color="#FDBD12"></stop></linearGradient><linearGradient id="prefix__paint6_linear" x1="5.437" y1="5.937" x2="21.194" y2="15.952" gradientUnits="userSpaceOnUse"><stop offset="0.137" stop-color="#79E090"></stop><stop offset="0.983" stop-color="#24A979"></stop></linearGradient></defs></svg>