<svg width="170" height="27" viewBox="0 0 200 27" fill="none" xmlns="http://www.w3.org/2000/svg"><path d="M138.086 10.413c0-3.276-2.013-5.651-5.869-5.651h-12.466v16.976h4.099v-5.797h4.85l4.753 5.795h4.619v-.374l-4.619-5.518c2.882-.594 4.633-2.71 4.633-5.431zm-6.329 2.1h-7.907V8.277h7.907c1.462 0 2.401.779 2.401 2.123-.001 1.366-.908 2.111-2.401 2.111zM200 4.762h-3.833v6.436h-10.331V4.762h-4.147v16.976h4.147v-6.685h10.331v6.685H200V4.762zm-91.22 0l-4.558 14.284h-.25L99.388 4.762h-7.3v16.976h3.905V7.793h.243l4.558 13.945h6.289l4.584-13.945h.241v13.945h4.027V4.762h-7.155zm-44.604 6.946c-1.448-.15-4.148-.397-5.597-.547-1.425-.146-2.249-.569-2.249-1.51 0-.903.875-1.665 4.403-1.665 3.113 0 5.986.666 8.494 1.876V6.064c-2.508-1.196-5.264-1.78-8.706-1.78-4.829 0-8.172 2.019-8.172 5.432 0 2.89 1.962 4.468 5.898 4.898 1.425.156 3.847.369 5.537.508 1.84.153 2.388.715 2.388 1.554 0 1.152-1.29 1.867-4.56 1.867-3.328 0-6.697-1.088-9.093-2.61v3.909c1.925 1.287 5.258 2.38 8.97 2.38 5.275 0 8.66-2.035 8.66-5.677 0-2.74-1.807-4.404-5.973-4.837zm8.658-6.946v16.976h15.835V18.27H76.737v-3.444h11.729v-3.442H76.737V8.229H88.67V4.762H72.834zm100.384 6.946c-1.448-.15-4.148-.398-5.597-.547-1.425-.146-2.249-.569-2.249-1.51 0-.903.875-1.665 4.402-1.665 3.114 0 5.987.666 8.495 1.876V6.064c-2.51-1.195-5.264-1.78-8.706-1.78-4.829 0-8.172 2.018-8.172 5.432 0 2.89 1.962 4.468 5.898 4.897 1.425.157 3.847.37 5.537.509 1.841.153 2.388.715 2.388 1.554 0 1.151-1.291 1.866-4.56 1.866-3.328 0-6.697-1.087-9.093-2.61v3.91c1.925 1.287 5.258 2.38 8.97 2.38 5.275 0 8.661-2.035 8.661-5.677 0-2.74-1.806-4.404-5.974-4.837zm-18.715-6.946v8.69c0 3.293-2 5.1-5.008 5.1-3.024 0-5.008-1.78-5.008-5.15v-8.64h-4.075v8.254c0 6.164 3.852 9.207 9.142 9.207 5.09 0 9.021-2.924 9.021-9.006V4.762h-4.072z" fill="#171A22"/><path d="M38.307 13.152c0 .827-.415.955-1.466.955-1.114 0-1.305-.192-1.433-1.02-.223-2.132-1.657-3.948-4.075-4.138-.764-.064-.955-.35-.955-1.306 0-.891.128-1.306.828-1.306 4.202 0 7.1 3.376 7.1 6.815zm6.114 0C44.42 6.752 40.09 0 30.09 0H10.214c-.4 0-.65.21-.65.576 0 .2.15.379.286.485.729.572 1.79 1.201 3.213 1.913 1.38.69 2.445 1.138 3.527 1.578.447.18.625.379.625.644 0 .346-.244.566-.747.566H.69c-.466 0-.691.3-.691.604 0 .258.09.465.31.693 1.281 1.336 3.317 2.947 6.293 4.809a92.427 92.427 0 0 0 8.386 4.617c.43.206.58.445.57.691-.012.286-.237.527-.734.527H7.593c-.411 0-.64.217-.64.549 0 .185.15.42.344.598 1.645 1.491 4.275 3.123 7.78 4.615 4.674 1.99 9.432 3.187 14.776 3.187 10.127 0 14.568-7.578 14.568-13.5zm-13.215 9.074c-4.968 0-9.107-4.044-9.107-9.074 0-4.968 4.139-8.948 9.107-8.948 5.095 0 9.074 3.981 9.074 8.948 0 5.03-3.98 9.074-9.075 9.074z" fill="#FF642D"/></svg>