<svg fill="none" height="24" viewBox="0 0 182 36" width="124" xmlns="http://www.w3.org/2000/svg"><clipPath id="a"><path d="M0 0h32.941v35H0z"/></clipPath><path d="M152.456 3.44h4.989v.165l-11.147 12.856 11.89 16.788v.165h-4.73l-9.762-13.986-4.606 5.32v8.667h-3.861V3.441h3.859V18.9h.164zm12.962 2.387c0 .745-.272 1.4-.799 1.93a2.626 2.626 0 0 1-1.931.8 2.65 2.65 0 0 1-1.93-.8 2.636 2.636 0 0 1-.801-1.93c0-.765.273-1.403.801-1.931a2.622 2.622 0 0 1 1.93-.802c.747 0 1.402.273 1.931.802.545.547.799 1.182.799 1.93zm-.781 7.082v20.523h-3.861V12.909zm12.328 20.851c-1.674 0-3.06-.509-4.17-1.548-1.11-1.038-1.675-2.477-1.693-4.316V16.423h-3.606V12.91h3.606V6.625h3.858v6.284h5.027v3.514h-5.025V26.64c0 1.365.273 2.294.801 2.785.528.493 1.129.729 1.802.729.31 0 .601-.036.911-.11.309-.072.565-.164.82-.273l1.22 3.442c-1.038.365-2.204.547-3.551.547zM54.889 31.829c-2.131-1.549-3.588-3.734-4.389-6.539l4.734-1.93c.475 1.766 1.312 3.185 2.532 4.314 1.202 1.112 2.659 1.675 4.352 1.675 1.584 0 2.913-.4 4.023-1.218 1.111-.821 1.658-1.95 1.658-3.37 0-1.31-.492-2.385-1.456-3.24-.966-.856-2.66-1.712-5.08-2.57l-2.004-.708c-2.15-.746-3.951-1.82-5.41-3.222-1.456-1.403-2.183-3.242-2.183-5.534 0-1.586.437-3.043 1.292-4.39.856-1.347 2.058-2.403 3.606-3.206 1.529-.782 3.26-1.182 5.207-1.182 2.805 0 5.045.673 6.701 2.039 1.675 1.366 2.787 2.877 3.35 4.59l-4.514 1.91c-.328-1.02-.946-1.912-1.875-2.677-.928-.784-2.112-1.166-3.568-1.166-1.457 0-2.695.364-3.697 1.11-1.001.747-1.494 1.694-1.494 2.86 0 1.11.457 2.004 1.347 2.731.893.71 2.295 1.402 4.208 2.058l2.004.673c2.748.947 4.86 2.204 6.37 3.734 1.513 1.529 2.26 3.586 2.26 6.154 0 2.094-.528 3.843-1.602 5.243a9.869 9.869 0 0 1-4.097 3.152 13.16 13.16 0 0 1-5.117 1.02c-2.66 0-5.044-.766-7.156-2.313zM76.722 6.372a3.202 3.202 0 0 1-.965-2.348c0-.93.328-1.713.965-2.35A3.202 3.202 0 0 1 79.07.708c.93 0 1.713.329 2.348.966.64.637.966 1.42.966 2.348 0 .93-.328 1.713-.964 2.348a3.202 3.202 0 0 1-2.348.968c-.93-.02-1.713-.329-2.35-.966zm-.11 4.261h4.916V33.43h-4.916zm15.605 22.67c-.892-.328-1.62-.765-2.184-1.293-1.275-1.275-1.931-3.022-1.931-5.225V14.966h-3.987V10.63h3.987V4.206h4.916v6.447h5.537v4.333h-5.537v10.725c0 1.22.238 2.095.711 2.586.455.6 1.22.892 2.332.892.509 0 .946-.073 1.346-.2.383-.127.802-.346 1.256-.656v4.79c-.983.455-2.167.673-3.568.673a8.228 8.228 0 0 1-2.878-.493zm13.494-.727a10.893 10.893 0 0 1-4.153-4.315c-1.001-1.84-1.492-3.897-1.492-6.19 0-2.188.492-4.19 1.456-6.065.966-1.859 2.314-3.35 4.043-4.443 1.729-1.094 3.696-1.659 5.9-1.659 2.294 0 4.279.51 5.972 1.512a10.059 10.059 0 0 1 3.843 4.152c.873 1.766 1.312 3.734 1.312 5.955 0 .42-.038.946-.128 1.565h-17.482c.182 2.114.93 3.752 2.258 4.898a6.834 6.834 0 0 0 4.626 1.713c1.402 0 2.622-.31 3.642-.965a7.003 7.003 0 0 0 2.476-2.623l4.151 1.967c-1.074 1.876-2.476 3.35-4.205 4.424-1.731 1.076-3.806 1.603-6.21 1.603-2.24.036-4.242-.473-6.009-1.529zm11.872-13.22a5.472 5.472 0 0 0-.765-2.386c-.455-.783-1.128-1.457-2.039-1.984-.91-.529-2.02-.801-3.334-.801-1.583 0-2.911.473-4.005 1.4-1.092.93-1.839 2.204-2.258 3.77z" fill="#5f6368"/><g clip-path="url(#a)" clip-rule="evenodd" fill-rule="evenodd"><path d="M1.726 10.032l5.668 4.335a10.001 10.001 0 0 0-.5 3.133c0 1.095.176 2.149.5 3.133l-5.669 4.335A16.87 16.87 0 0 1 0 17.5c0-2.686.62-5.22 1.726-7.468z" fill="#fbbc05"/><path d="M7.395 14.367l-5.67-4.335A16.804 16.804 0 0 1 16.855.647c4.29 0 8.12 1.608 11.108 4.213L23.06 9.763a9.743 9.743 0 0 0-6.205-2.222 9.94 9.94 0 0 0-9.46 6.826z" fill="#ea4335"/><path d="M1.724 24.963l5.666-4.344a9.94 9.94 0 0 0 9.464 6.84c4.673 0 8.197-2.375 9.04-6.512h-9.04v-6.511h15.704c.23.995.383 2.068.383 3.064 0 10.725-7.66 16.854-16.087 16.854a16.804 16.804 0 0 1-15.13-9.391z" fill="#34a853"/><path d="M27.839 30.155l-5.382-4.165c1.76-1.11 2.984-2.823 3.436-5.043h-9.04v-6.511h15.705c.23.995.383 2.068.383 3.064 0 5.493-2.01 9.78-5.102 12.655z" fill="#4285f4"/></g></svg>