<svg width="280" height="50" xmlns="http://www.w3.org/2000/svg"><path fill="#2a2a2a" d="M107.367 25c0 12.905-10.462 23.367-23.367 23.367-12.905 0-23.367-10.462-23.367-23.367C60.633 12.095 71.095 1.633 84 1.633c12.905 0 23.367 10.462 23.367 23.367z"/><path fill="#2a2a2a" fill-rule="evenodd" d="M84 50c13.807 0 25-11.193 25-25S97.807 0 84 0 59 11.193 59 25s11.193 25 25 25zm0-1.02c13.243 0 23.98-10.737 23.98-23.98 0-13.244-10.737-23.98-23.98-23.98-13.244 0-23.98 10.736-23.98 23.98 0 13.243 10.736 23.98 23.98 23.98z"/><path fill="#fff" fill-rule="evenodd" d="M72.282 16.767c.295-.179.675-.41 1.106-.338.235.039.486.229.774.448.463.35 1.023.776 1.777.776.87 0 1.327-.206 1.593-.325.108-.049.184-.083.244-.083.204 0 .51.306.102.612-.068.05-.152.12-.252.204-.507.422-1.43 1.19-2.708 1.53-.243.066-.468.12-.675.17-1.102.267-1.72.417-1.978 1.361-.306 1.123-.102 5.613 3.674 5.613 1.564 0 2.795-.613 4.237-1.33 2.04-1.016 4.503-2.242 8.926-2.242 7.551 0 9.082 6.429 9.082 9.694 0 3.265-3.674 7.755-10 7.755-4.45 0-5.966-1.499-6.753-2.277a5.993 5.993 0 0 0-.288-.274c.51 1.327 3.061 4.163 7.959 4.082-.068.374-1.755 1.122-7.96 1.122-7.754 0-13.775-6.938-13.775-13.163 0-4.43 1.138-7 1.793-8.481.266-.6.452-1.02.452-1.315 0-.95-1.062-1.9-2.033-2.769l-.212-.19c-1.02-.918-1.224-2.653-1.122-2.96.102-.305.51-.407.612.205.102.612 1.123 1.224 1.837 1.224.292 0 .448-.034.6-.067.219-.048.43-.095 1.033-.035.51.051 1.126.697 1.482 1.07l.15.155c.09-.03.2-.097.323-.172zm9.473 18.54a.714.714 0 1 0 0-1.43.714.714 0 0 0 0 1.43z"/><path fill="#cf3529" d="M78.184 12.449c-.408.317-.47 1.124-.05 1.536.42.476.968.467 1.535.05 3.82-2.81 13.923-2.708 18.31-.05.498.3 1.091.374 1.472-.013l.031-.033c.412-.42.436-1.176-.077-1.534-5.2-3.63-16.63-3.527-21.221.044z"/><path fill="#cf3529" d="M80.633 16.122c-.613.307-.613 1.02-.306 1.531.306.51.95.52 1.53.204 4.318-1.928 9.46-2.147 13.878.102.493.251 1.326.306 1.632-.306.293-.584.306-1.122-.408-1.53-4.376-2.5-11.34-2.792-16.326 0z"/><path fill="#cf3529" d="M82.878 20.102c-.613.306-.715.97-.409 1.429.477.714 1.123.494 1.673.292 3.736-1.377 5.776-1.313 9.348-.05.724.255 1.224.268 1.632-.242.307-.51.245-1.2-.51-1.531-4.384-1.927-8.061-1.939-11.734.102z"/><path fill-rule="evenodd" d="M208.695 24.455V13.416h1.504l.098.752c.341-.31.714-.538 1.119-.688.405-.149.885-.224 1.44-.224 1.087 0 1.936.297 2.544.889.608.592.912 1.57.912 2.935s-.315 2.387-.945 3.065c-.63.677-1.486 1.015-2.574 1.015-.917 0-1.703-.214-2.354-.64v3.935h-1.744zm-33.47-.639c-.576 0-1.068-.075-1.473-.224v-1.295c.181.064.35.105.504.127.155.021.313.031.473.031.33 0 .596-.051.798-.158.203-.107.383-.275.537-.504.155-.23.323-.526.504-.889l-3.377-7.488H175l2.432 5.633 2.464-5.633h1.792l-3.088 7.152c-.267.64-.552 1.203-.856 1.688-.304.485-.657.867-1.056 1.144-.4.278-.887.416-1.463.416zm-23.649-2.656c-1.365 0-2.365-.34-3-1.023-.635-.683-.953-1.66-.953-2.93 0-1.27.321-2.245.961-2.928.64-.682 1.637-1.023 2.992-1.023 1.366 0 2.368.34 3.008 1.023.64.683.96 1.659.96 2.928 0 1.27-.318 2.247-.952 2.93-.635.682-1.64 1.023-3.016 1.023zm7.44 0c-.907 0-1.603-.25-2.088-.752-.486-.501-.729-1.238-.729-2.209v-4.783h1.744v4.783c0 .566.139.982.416 1.248.278.267.706.4 1.282.4a2.9 2.9 0 0 0 1.183-.24 3.07 3.07 0 0 0 .944-.638v-5.553h1.728V21h-1.584l-.08-.783a4.76 4.76 0 0 1-1.217.672c-.47.181-1.002.271-1.6.271zm8.08 0a9.626 9.626 0 0 1-1.496-.111 7.027 7.027 0 0 1-1.176-.274v-1.47a6.41 6.41 0 0 0 1.199.318c.437.075.853.113 1.248.113.597 0 1.025-.053 1.281-.16.256-.106.383-.315.383-.625 0-.224-.076-.4-.23-.527-.155-.128-.386-.245-.69-.352-.304-.106-.69-.235-1.16-.384a7.635 7.635 0 0 1-1.168-.489 2.035 2.035 0 0 1-.767-.68c-.182-.277-.272-.64-.272-1.087 0-.694.25-1.23.752-1.608.501-.378 1.307-.568 2.416-.568.437 0 .853.032 1.248.096s.73.144 1.008.24v1.457a5.193 5.193 0 0 0-.984-.274 5.69 5.69 0 0 0-1-.095c-.555 0-.974.048-1.256.144-.283.096-.424.288-.424.576 0 .3.146.509.44.631.293.123.765.29 1.415.504.598.181 1.072.374 1.424.576.352.203.607.446.762.729.154.283.23.648.23 1.096 0 .746-.27 1.303-.814 1.671-.544.368-1.335.553-2.37.553zm5.824 0c-.619 0-1.088-.153-1.408-.457-.32-.304-.48-.808-.48-1.512v-8.974h1.743v8.814c0 .299.054.503.16.61.107.106.268.16.481.16.256 0 .502-.034.736-.098v1.266a2.857 2.857 0 0 1-.584.15 4.627 4.627 0 0 1-.648.041zm15.04 0c-1.332 0-2.405-.17-3.216-.512v-1.537c.459.171.953.31 1.48.416.529.107 1.054.16 1.577.16.821 0 1.437-.095 1.847-.287.411-.192.616-.576.616-1.152 0-.352-.086-.634-.256-.848-.17-.213-.453-.398-.848-.552-.395-.155-.94-.318-1.633-.489-1.109-.288-1.888-.653-2.336-1.095-.448-.443-.671-1.054-.671-1.832 0-.907.33-1.615.992-2.127.661-.512 1.649-.77 2.96-.77.598 0 1.16.044 1.688.13.528.084.942.18 1.24.286v1.537c-.81-.31-1.706-.465-2.687-.465-.768 0-1.366.102-1.793.305-.427.203-.64.57-.64 1.104 0 .309.075.56.224.752.15.192.407.357.775.496.368.138.879.294 1.53.465.842.213 1.495.466 1.959.76.464.293.79.633.976 1.023.187.39.28.83.28 1.32 0 .907-.336 1.62-1.008 2.137-.672.517-1.69.775-3.055.775zm30.976 0c-.62 0-1.089-.153-1.409-.457-.32-.304-.478-.808-.478-1.512v-8.974h1.744v8.814c0 .299.052.503.158.61.107.106.267.16.48.16.257 0 .502-.034.737-.098v1.266a2.858 2.858 0 0 1-.584.15 4.627 4.627 0 0 1-.648.041zm5.472 0c-1.322 0-2.347-.326-3.072-.976-.725-.651-1.088-1.649-1.088-2.993 0-1.216.31-2.174.928-2.878.618-.705 1.558-1.057 2.816-1.057 1.152 0 2.018.301 2.6.904.581.603.873 1.379.873 2.328v1.408h-5.553c.085.736.353 1.243.8 1.52.449.277 1.13.416 2.048.416.384 0 .778-.037 1.183-.111a5.763 5.763 0 0 0 1.057-.29v1.282a5.01 5.01 0 0 1-1.176.336 8.517 8.517 0 0 1-1.416.111zM139.561 21v-7.584h1.6l.095.88a6.995 6.995 0 0 1 1.297-.64 7.164 7.164 0 0 1 1.486-.4v.97l.098-.81h2.734V21h-1.742v-6.256h-1.152l.017-.15a9.345 9.345 0 0 0-.922.222 11.67 11.67 0 0 0-.984.336c-.31.123-.57.247-.783.375V21h-1.744zm53.584 0v-6.256h-1.153l.16-1.328h2.737V21h-1.744zm2.816 0v-7.584h1.6l.08.8a4.552 4.552 0 0 1 1.23-.704c.448-.171.93-.256 1.441-.256.545 0 .968.088 1.272.264.304.176.535.419.695.728a4.714 4.714 0 0 1 1.217-.713c.459-.187 1.009-.28 1.649-.28.874 0 1.52.225 1.935.673.416.448.623 1.136.623 2.064V21h-1.71v-4.832c0-.587-.125-.998-.37-1.232-.245-.235-.644-.352-1.2-.352-.362 0-.705.063-1.03.191-.326.128-.606.32-.84.577.032.117.052.24.062.369.01.128.018.266.018.416V21h-1.617v-4.816c0-.555-.095-.96-.287-1.215-.192-.256-.555-.385-1.088-.385-.374 0-.729.088-1.065.264a4.223 4.223 0 0 0-.904.632V21h-1.711zm16.383-1.152c1.472 0 2.209-.928 2.209-2.784 0-.896-.166-1.533-.496-1.912-.331-.378-.886-.568-1.664-.568-.78 0-1.43.267-1.954.8v3.792c.246.202.52.365.825.488.304.123.664.184 1.08.184zm-60.768-.16c.8 0 1.367-.195 1.703-.584.336-.39.504-1.022.504-1.897s-.168-1.503-.504-1.887c-.336-.384-.903-.576-1.703-.576-.79 0-1.351.192-1.687.576-.336.384-.504 1.012-.504 1.887s.168 1.507.504 1.897c.336.389.898.584 1.687.584zm70.336-2.928h4.016v-.528c0-.522-.144-.93-.432-1.224-.288-.294-.774-.44-1.457-.44-.81 0-1.368.176-1.672.528-.304.352-.455.906-.455 1.664zm-76.928-4.928v-1.44h1.905v1.44h-1.905zm48.016 0v-1.44h1.904v1.44H193zm-57.232 9.328c-1.323 0-2.347-.325-3.072-.976-.725-.65-1.088-1.648-1.088-2.992 0-1.216.31-2.176.928-2.88.619-.704 1.557-1.056 2.816-1.056 1.152 0 2.019.301 2.6.904s.872 1.379.872 2.328v1.408h-5.552c.085.736.352 1.243.8 1.52.448.277 1.13.416 2.048.416a6.53 6.53 0 0 0 1.184-.112c.405-.075.757-.17 1.056-.288v1.28c-.341.15-.733.261-1.176.336a8.515 8.515 0 0 1-1.416.112zm-2.496-4.4h4.016v-.528c0-.523-.144-.93-.432-1.224-.288-.293-.773-.44-1.456-.44-.81 0-1.368.176-1.672.528-.304.352-.456.907-.456 1.664zm-6.144 4.4c-1.333 0-2.405-.17-3.216-.512v-1.536c.459.17.952.31 1.48.416.528.107 1.053.16 1.576.16.821 0 1.437-.096 1.848-.288.41-.192.616-.576.616-1.152 0-.352-.085-.635-.256-.848-.17-.213-.453-.397-.848-.552-.395-.155-.939-.317-1.632-.488-1.11-.288-1.888-.653-2.336-1.096-.448-.443-.672-1.053-.672-1.832 0-.907.33-1.616.992-2.128.661-.512 1.648-.768 2.96-.768.597 0 1.16.043 1.688.128s.941.181 1.24.288v1.536c-.81-.31-1.707-.464-2.688-.464-.768 0-1.365.101-1.792.304-.427.203-.64.57-.64 1.104 0 .31.075.56.224.752.15.192.408.357.776.496.368.139.877.293 1.528.464.843.213 1.496.467 1.96.76.464.293.79.635.976 1.024.187.39.28.83.28 1.32 0 .907-.336 1.619-1.008 2.136-.672.517-1.69.776-3.056.776zM206.4 38.816a13.94 13.94 0 0 1-1.697-.103 6.935 6.935 0 0 1-1.44-.313v-1.343c.427.138.919.245 1.473.32.555.075 1.083.111 1.584.111.768 0 1.328-.043 1.68-.129.352-.085.527-.277.527-.576 0-.224-.085-.38-.256-.47-.17-.091-.494-.137-.974-.137h-2.049c-1.376 0-2.064-.485-2.064-1.455 0-.31.09-.599.271-.866.181-.266.47-.468.865-.607-.437-.213-.76-.507-.968-.88-.208-.374-.313-.822-.313-1.345 0-.97.292-1.674.873-2.11.581-.438 1.453-.657 2.615-.657.246 0 .503.02.77.056.267.038.474.072.623.104h2.783l-.047 1.137h-1.279c.203.17.351.382.447.638.096.256.145.534.145.832 0 .811-.246 1.449-.737 1.913-.49.464-1.232.697-2.224.697-.17 0-.329-.01-.473-.026-.144-.016-.3-.033-.47-.054-.32.032-.61.117-.866.256-.256.138-.383.324-.383.558 0 .16.064.277.192.346.128.07.342.103.64.103h2.127c.758 0 1.342.163 1.752.489.411.325.618.797.618 1.416 0 .746-.324 1.282-.97 1.607-.645.325-1.57.488-2.775.488zm-23.44-2.656a9.626 9.626 0 0 1-1.495-.111 7.056 7.056 0 0 1-1.178-.274v-1.47c.363.138.764.243 1.201.318.438.075.854.113 1.248.113.598 0 1.024-.053 1.28-.16.256-.106.384-.315.384-.625 0-.224-.077-.4-.232-.527-.155-.128-.384-.245-.688-.352-.304-.106-.69-.235-1.16-.385a7.634 7.634 0 0 1-1.168-.488 2.035 2.035 0 0 1-.767-.68c-.182-.277-.274-.64-.274-1.087 0-.694.251-1.23.752-1.608.502-.378 1.307-.568 2.416-.568.438 0 .854.032 1.248.096.395.064.73.144 1.008.24v1.457a5.173 5.173 0 0 0-.982-.274 5.69 5.69 0 0 0-1-.095c-.555 0-.973.048-1.256.144-.283.096-.426.288-.426.576 0 .3.148.509.441.631.294.123.766.29 1.417.504.597.181 1.071.374 1.423.576.352.203.605.446.76.729.155.283.233.648.233 1.096 0 .746-.273 1.303-.817 1.671-.544.368-1.332.553-2.367.553zm6.593 0c-.81 0-1.417-.216-1.817-.648-.4-.432-.6-1.021-.6-1.768v-3.969h-1.12v-1.359h1.12v-1.744l1.727-.527v2.271h2.018l-.113 1.36h-1.905v3.872c0 .438.102.744.305.92.203.176.533.264.992.264.288 0 .592-.053.912-.16v1.232c-.416.171-.922.256-1.52.256zm2.672-.16v-6.256h-1.153l.16-1.328h2.737V36h-1.744zm2.814 0v-7.584h1.602l.08.8a4.863 4.863 0 0 1 1.222-.68c.475-.188 1-.28 1.577-.28.98 0 1.696.229 2.144.687.448.459.672 1.174.672 2.145V36h-1.729v-4.832c0-.587-.119-.998-.359-1.232-.24-.235-.69-.352-1.352-.352-.394 0-.781.08-1.16.24-.378.16-.697.367-.953.623V36h-1.744zm11.488-3.473c.694 0 1.178-.117 1.45-.351.272-.235.408-.634.408-1.2 0-.565-.136-.976-.408-1.232-.272-.256-.756-.385-1.45-.385-.65 0-1.125.124-1.423.37-.3.245-.448.66-.448 1.248 0 .544.141.938.424 1.183.283.245.765.367 1.447.367zm-14.447-5.695v-1.44h1.904v1.44h-1.904zm-17.072 9.328c-.48 0-.925-.085-1.336-.256a2.22 2.22 0 0 1-.984-.776c-.245-.347-.368-.776-.368-1.288 0-.725.248-1.31.744-1.752.496-.443 1.261-.664 2.296-.664h2.432v-.336c0-.363-.056-.65-.168-.864-.112-.213-.315-.368-.608-.464-.293-.096-.723-.144-1.288-.144-.896 0-1.733.133-2.512.4V28.72c.341-.139.757-.25 1.248-.336a9.251 9.251 0 0 1 1.584-.128c1.11 0 1.955.224 2.536.672.581.448.872 1.179.872 2.192V36h-1.488l-.112-.768a3.11 3.11 0 0 1-1.144.688c-.453.16-1.021.24-1.704.24zm.464-1.248c.523 0 .979-.088 1.368-.264.39-.176.707-.413.952-.712v-1.328h-2.4c-.512 0-.883.099-1.112.296-.23.197-.344.499-.344.904 0 .395.133.677.4.848.267.17.645.256 1.136.256zm-5.728 1.248c-1.333 0-2.341-.339-3.024-1.016-.683-.677-1.024-1.656-1.024-2.936 0-1.333.376-2.325 1.128-2.976.752-.65 1.757-.976 3.016-.976.523 0 .963.037 1.32.112.357.075.701.192 1.032.352v1.296c-.555-.277-1.227-.416-2.016-.416-.875 0-1.547.195-2.016.584-.47.39-.704 1.064-.704 2.024 0 .907.208 1.57.624 1.992.416.421 1.104.632 2.064.632.757 0 1.445-.144 2.064-.432v1.328a6.149 6.149 0 0 1-1.128.32c-.4.075-.845.112-1.336.112zm-8.784 0c-.683 0-1.285-.117-1.808-.352-.523-.235-.928-.624-1.216-1.168-.288-.544-.432-1.275-.432-2.192 0-.907.155-1.672.464-2.296.31-.624.739-1.096 1.288-1.416.55-.32 1.17-.48 1.864-.48.459 0 .867.053 1.224.16.357.107.701.272 1.032.496v-3.696h1.744V36h-1.488l-.112-.752c-.341.31-.715.539-1.12.688-.405.15-.885.224-1.44.224zm.464-1.312c.779 0 1.43-.267 1.952-.8v-3.792c-.501-.448-1.13-.672-1.888-.672-.736 0-1.29.245-1.664.736-.373.49-.56 1.205-.56 2.144 0 .907.173 1.53.52 1.872.347.341.893.512 1.64.512zm-8.304 1.312c-1.365 0-2.365-.341-3-1.024-.635-.683-.952-1.659-.952-2.928 0-1.27.32-2.245.96-2.928.64-.683 1.637-1.024 2.992-1.024 1.365 0 2.368.341 3.008 1.024.64.683.96 1.659.96 2.928 0 1.27-.317 2.245-.952 2.928-.635.683-1.64 1.024-3.016 1.024zm0-1.472c.8 0 1.368-.195 1.704-.584.336-.39.504-1.021.504-1.896s-.168-1.504-.504-1.888c-.336-.384-.904-.576-1.704-.576-.79 0-1.352.192-1.688.576-.336.384-.504 1.013-.504 1.888s.168 1.507.504 1.896c.336.39.899.584 1.688.584zM141.008 36V25.696h4.592c.79 0 1.44.15 1.952.448.512.299.89.707 1.136 1.224.245.517.368 1.107.368 1.768 0 1.024-.317 1.845-.952 2.464s-1.49.928-2.568.928h-2.784V36zm1.744-4.848h2.464c.693 0 1.216-.181 1.568-.544.352-.363.528-.853.528-1.472 0-.661-.168-1.173-.504-1.536-.336-.363-.84-.544-1.512-.544h-2.544z"/></svg>