<?xml version="1.0" encoding="UTF-8"?>
<!-- Generated by Pixelmator Pro 3.1.1 -->
<svg width="280" height="50" viewBox="0 0 280 50" xmlns="http://www.w3.org/2000/svg" xmlns:xlink="http://www.w3.org/1999/xlink">
    <path id="Path" fill="#2a2a2a" stroke="none" d="M 78.36734 25 C 78.36734 37.90543 67.905426 48.367348 55 48.367348 C 42.094574 48.367348 31.632652 37.90543 31.632652 25 C 31.632652 12.09457 42.094574 1.632652 55 1.632652 C 67.905426 1.632652 78.36734 12.09457 78.36734 25 Z"/>
    <path id="path1" fill="#2a2a2a" fill-rule="evenodd" stroke="none" d="M 55 50 C 68.807144 50 80 38.807144 80 25 C 80 11.192875 68.807144 0 55 0 C 41.192879 0 30 11.192875 30 25 C 30 38.807144 41.192879 50 55 50 Z M 55 48.979591 C 68.243469 48.979591 78.979599 38.243469 78.979599 25 C 78.979599 11.756432 68.243469 1.020409 55 1.020409 C 41.756432 1.020409 31.020409 11.756432 31.020409 25 C 31.020409 38.243469 41.756432 48.979591 55 48.979591 Z"/>
    <path id="path2" fill="#ffffff" fill-rule="evenodd" stroke="none" d="M 43.282471 16.767059 C 43.576691 16.588104 43.956955 16.356773 44.387756 16.42857 C 44.623169 16.467796 44.873627 16.657875 45.162415 16.876999 C 45.62468 17.227814 46.185089 17.653061 46.938782 17.653061 C 47.808289 17.653061 48.26619 17.447247 48.531647 17.327919 C 48.640045 17.279202 48.716339 17.2449 48.775513 17.2449 C 48.979599 17.2449 49.285721 17.551022 48.877548 17.857143 C 48.810303 17.90757 48.726456 17.977406 48.626404 18.060673 C 48.119308 18.482878 47.196823 19.250917 45.918365 19.591837 C 45.67543 19.656633 45.45047 19.711123 45.242691 19.761471 C 44.141464 20.028288 43.522842 20.178164 43.265305 21.12245 C 42.959183 22.244898 43.163269 26.734694 46.938782 26.734694 C 48.502655 26.734694 49.733871 26.121838 51.176331 25.404083 C 53.216324 24.388775 55.678772 23.163265 60.102036 23.163265 C 67.653061 23.163265 69.18367 29.591837 69.18367 32.857143 C 69.18367 36.122448 65.510208 40.612244 59.18367 40.612244 C 54.733261 40.612244 53.217758 39.113266 52.431229 38.335102 C 52.323273 38.228367 52.228973 38.135101 52.142853 38.061226 C 52.653061 39.387756 55.204086 42.224487 60.102036 42.142857 C 60.034088 42.516937 58.346939 43.265305 52.142853 43.265305 C 44.387756 43.265305 38.367348 36.32653 38.367348 30.102041 C 38.367348 25.671429 39.504753 23.102039 40.160347 21.621019 C 40.425797 21.021429 40.612244 20.600206 40.612244 20.306122 C 40.612244 19.355593 39.549713 18.405062 38.579391 17.537003 C 38.508064 17.473183 38.437225 17.409817 38.367348 17.346939 C 37.346939 16.42857 37.14286 14.693878 37.244896 14.387756 C 37.346939 14.081635 37.755104 13.979591 37.85714 14.591835 C 37.959183 15.204082 38.979591 15.816326 39.693878 15.816326 C 39.98645 15.816326 40.142059 15.782082 40.293938 15.748672 C 40.512878 15.700508 40.72406 15.654041 41.32653 15.714287 C 41.836304 15.765266 42.452957 16.410797 42.809486 16.784061 C 42.866554 16.843777 42.916962 16.896549 42.959183 16.938774 C 43.049911 16.908531 43.158554 16.842449 43.282471 16.767059 Z M 52.755096 35.306122 C 53.149597 35.306122 53.469391 34.986328 53.469391 34.591835 C 53.469391 34.19735 53.149597 33.877548 52.755096 33.877548 C 52.360611 33.877548 52.040817 34.19735 52.040817 34.591835 C 52.040817 34.986328 52.360611 35.306122 52.755096 35.306122 Z"/>
    <path id="path3" fill="#cf3529" stroke="none" d="M 49.18367 12.448978 C 48.775513 12.766426 48.713882 13.572571 49.133331 13.984653 C 49.553329 14.460693 50.102036 14.452061 50.668976 14.035 C 54.489792 11.224491 64.591843 11.32653 68.979599 13.984653 C 69.476532 14.285713 70.070404 14.358795 70.450821 13.971615 C 70.450821 13.971615 70.450821 13.971615 70.482452 13.939346 C 70.894485 13.519897 70.918365 12.763142 70.404892 12.404797 C 65.204086 8.775509 53.775513 8.877552 49.18367 12.448978 Z"/>
    <path id="path4" fill="#cf3529" stroke="none" d="M 51.63266 16.122448 C 51.020401 16.42857 51.020401 17.142857 51.326538 17.653061 C 51.63266 18.163265 52.276932 18.173552 52.857147 17.857143 C 57.174896 15.928654 62.316742 15.710407 66.734695 17.959183 C 67.228363 18.210409 68.061218 18.265306 68.36734 17.653061 C 68.659592 17.068653 68.673462 16.530613 67.959183 16.122448 C 63.583466 13.622063 56.619598 13.331001 51.63266 16.122448 Z"/>
    <path id="path5" fill="#cf3529" stroke="none" d="M 53.877548 20.102041 C 53.265305 20.408163 53.163269 21.071428 53.469391 21.530613 C 53.945511 22.244898 54.591843 22.025309 55.14183 21.822653 C 58.877548 20.445713 60.918365 20.510204 64.489792 21.772243 C 65.213669 22.027958 65.714279 22.040817 66.122452 21.530613 C 66.428574 21.020409 66.366943 20.331713 65.612244 20 C 61.227753 18.072918 57.551025 18.061224 53.877548 20.102041 Z"/>
    <text id="Seriously-Simple-Podcasting" xml:space="preserve" x="84" y="28" font-family="Kanit" font-size="14" fill="#000000" letter-spacing="-0.84">Seriously Simple Podcasting</text>
</svg>
