<?xml version="1.0" encoding="UTF-8"?>
<!-- Generated by Pixelmator Pro 3.1.1 -->
<svg width="280" height="50" viewBox="0 0 280 50" xmlns="http://www.w3.org/2000/svg" xmlns:xlink="http://www.w3.org/1999/xlink">
    <path id="Path" fill="#2a2a2a" stroke="none" d="M 163.36734 25 C 163.36734 37.90543 152.905426 48.367348 140 48.367348 C 127.094574 48.367348 116.632652 37.90543 116.632652 25 C 116.632652 12.09457 127.094574 1.632652 140 1.632652 C 152.905426 1.632652 163.36734 12.09457 163.36734 25 Z"/>
    <path id="path1" fill="#2a2a2a" fill-rule="evenodd" stroke="none" d="M 140 50 C 153.807144 50 165 38.807144 165 25 C 165 11.192875 153.807144 0 140 0 C 126.192879 0 115 11.192875 115 25 C 115 38.807144 126.192879 50 140 50 Z M 140 48.979591 C 153.243469 48.979591 163.979599 38.243469 163.979599 25 C 163.979599 11.756432 153.243469 1.020409 140 1.020409 C 126.756432 1.020409 116.020409 11.756432 116.020409 25 C 116.020409 38.243469 126.756432 48.979591 140 48.979591 Z"/>
    <path id="path2" fill="#ffffff" fill-rule="evenodd" stroke="none" d="M 128.282471 16.767059 C 128.576691 16.588104 128.956955 16.356773 129.387756 16.42857 C 129.623169 16.467796 129.873627 16.657875 130.162415 16.876999 C 130.62468 17.227814 131.185089 17.653061 131.938782 17.653061 C 132.808289 17.653061 133.26619 17.447247 133.531647 17.327919 C 133.640045 17.279202 133.716339 17.2449 133.775513 17.2449 C 133.979599 17.2449 134.285721 17.551022 133.877548 17.857143 C 133.810303 17.90757 133.726456 17.977406 133.626404 18.060673 C 133.119308 18.482878 132.196823 19.250917 130.918365 19.591837 C 130.67543 19.656633 130.45047 19.711123 130.242691 19.761471 C 129.141464 20.028288 128.522842 20.178164 128.265305 21.12245 C 127.959183 22.244898 128.163269 26.734694 131.938782 26.734694 C 133.502655 26.734694 134.733871 26.121838 136.176331 25.404083 C 138.216324 24.388775 140.678772 23.163265 145.102036 23.163265 C 152.653061 23.163265 154.18367 29.591837 154.18367 32.857143 C 154.18367 36.122448 150.510208 40.612244 144.18367 40.612244 C 139.733261 40.612244 138.217758 39.113266 137.431229 38.335102 C 137.323273 38.228367 137.228973 38.135101 137.142853 38.061226 C 137.653061 39.387756 140.204086 42.224487 145.102036 42.142857 C 145.034088 42.516937 143.346939 43.265305 137.142853 43.265305 C 129.387756 43.265305 123.367348 36.32653 123.367348 30.102041 C 123.367348 25.671429 124.504753 23.102039 125.160347 21.621019 C 125.425797 21.021429 125.612244 20.600206 125.612244 20.306122 C 125.612244 19.355593 124.549713 18.405062 123.579391 17.537003 C 123.508064 17.473183 123.437225 17.409817 123.367348 17.346939 C 122.346939 16.42857 122.14286 14.693878 122.244896 14.387756 C 122.346939 14.081635 122.755104 13.979591 122.85714 14.591835 C 122.959183 15.204082 123.979591 15.816326 124.693878 15.816326 C 124.98645 15.816326 125.142059 15.782082 125.293938 15.748672 C 125.512878 15.700508 125.72406 15.654041 126.32653 15.714287 C 126.836304 15.765266 127.452957 16.410797 127.809486 16.784061 C 127.866554 16.843777 127.916962 16.896549 127.959183 16.938774 C 128.049911 16.908531 128.158554 16.842449 128.282471 16.767059 Z M 137.755096 35.306122 C 138.149597 35.306122 138.469391 34.986328 138.469391 34.591835 C 138.469391 34.19735 138.149597 33.877548 137.755096 33.877548 C 137.360611 33.877548 137.040817 34.19735 137.040817 34.591835 C 137.040817 34.986328 137.360611 35.306122 137.755096 35.306122 Z"/>
    <path id="path3" fill="#cf3529" stroke="none" d="M 134.18367 12.448978 C 133.775513 12.766426 133.713882 13.572571 134.133331 13.984653 C 134.553329 14.460693 135.102036 14.452061 135.668976 14.035 C 139.489792 11.224491 149.591843 11.32653 153.979599 13.984653 C 154.476532 14.285713 155.070404 14.358795 155.450821 13.971615 C 155.450821 13.971615 155.450821 13.971615 155.482452 13.939346 C 155.894485 13.519897 155.918365 12.763142 155.404892 12.404797 C 150.204086 8.775509 138.775513 8.877552 134.18367 12.448978 Z"/>
    <path id="path4" fill="#cf3529" stroke="none" d="M 136.63266 16.122448 C 136.020401 16.42857 136.020401 17.142857 136.326538 17.653061 C 136.63266 18.163265 137.276932 18.173552 137.857147 17.857143 C 142.174896 15.928654 147.316742 15.710407 151.734695 17.959183 C 152.228363 18.210409 153.061218 18.265306 153.36734 17.653061 C 153.659592 17.068653 153.673462 16.530613 152.959183 16.122448 C 148.583466 13.622063 141.619598 13.331001 136.63266 16.122448 Z"/>
    <path id="path5" fill="#cf3529" stroke="none" d="M 138.877548 20.102041 C 138.265305 20.408163 138.163269 21.071428 138.469391 21.530613 C 138.945511 22.244898 139.591843 22.025309 140.14183 21.822653 C 143.877548 20.445713 145.918365 20.510204 149.489792 21.772243 C 150.213669 22.027958 150.714279 22.040817 151.122452 21.530613 C 151.428574 21.020409 151.366943 20.331713 150.612244 20 C 146.227753 18.072918 142.551025 18.061224 138.877548 20.102041 Z"/>
</svg>
