<svg width="280" height="50" viewBox="0 0 280 119" fill="none" xmlns="http://www.w3.org/2000/svg"><path fill-rule="evenodd" clip-rule="evenodd" d="M143.062 49.198c-2.457.997-4.731 1.535-6.384 1.446-2.141-.12-3.055-1.064-3.058-1.42-.002-.252.796-1.044 3.261-1.224.386-.027.794-.045 1.214-.045 1.684 0 3.558.277 4.967 1.243m4.595 21.714c-9.008 2.484-18.527.192-24.255-5.844-4.053-4.271-5.412-9.617-3.729-14.665 3.385-10.158 19.608-16.255 29.976-16.255.112 0 .223 0 .333.002 3.863.05 6.539.984 6.983 2.439.248.814-.34 2.24-1.573 3.812-2.175 2.774-5.481 5.288-8.844 7.133-2.132-2.34-5.552-3.404-9.925-3.089-4.869.354-6.585 2.717-6.568 4.81.02 2.282 2.233 4.715 6.425 4.948 2.538.138 5.571-.643 8.616-1.976.447 1.754.309 4.054-.423 6.798a1.783 1.783 0 0 0 3.444.918c.994-3.728 1.068-6.854.225-9.337 3.976-2.232 7.651-5.196 9.855-8.006 2.068-2.636 2.8-5.009 2.177-7.052-.452-1.483-1.517-2.66-3.122-3.494.122-13.393 2.496-22.644 4.634-22.657h.013c.314 0 .739.07 1.259.588 1.737 1.726 3.806 7.392 3.806 24.587 0 16.966-1.452 31.41-19.307 36.34M130.651 31.34c-.002-.045.004-.089-.002-.134l-.024-.198c-.256-3.658.183-6.54 1.298-8.086.554-.767 1.249-1.178 2.188-1.294 1.308-.157 2.372.18 3.266 1.039 1.731 1.664 2.741 5.262 2.645 9.198a49.245 49.245 0 0 0-8.894 3.117 38.759 38.759 0 0 1-.477-3.642m15.354-6.21c.657-.715 1.494-1.062 2.562-1.062 1.698 0 2.435.555 2.843.973.975.999 1.501 2.936 1.573 5.757a23.71 23.71 0 0 0-3.317-.215c-1.609 0-3.363.14-5.193.405-.079-2.585.461-4.692 1.532-5.858m19.667-17.675c-1.07-1.063-2.375-1.624-3.776-1.624h-.032c-4.696.028-6.316 7.035-7.127 12.303a80.347 80.347 0 0 0-.564 4.65c-.07-.078-.138-.159-.212-.233-1.325-1.359-3.141-2.047-5.394-2.047-2.063 0-3.857.765-5.187 2.214a7.868 7.868 0 0 0-1 1.405c-.588-1.546-1.409-2.946-2.533-4.026-1.668-1.604-3.801-2.298-6.171-2.007-1.91.235-3.516 1.184-4.644 2.746-.004.007-.008.015-.013.021-1.953-9.74-5.666-21.503-12.145-20.83-1.595.167-3.003 1.025-4.074 2.48-4.998 6.794-2.653 26.999-.48 37.866a1.784 1.784 0 0 0 2.098 1.398 1.782 1.782 0 0 0 1.398-2.097c-3.639-18.196-2.827-31.408-.144-35.054.63-.858 1.201-1.01 1.575-1.048 3.576-.372 7.982 12.124 9.842 27.896.149 1.953.445 3.782.73 5.203.001.007.004.013.006.02-5.356 3.087-9.776 7.308-11.534 12.584-2.113 6.337-.463 12.988 4.525 18.246 4.871 5.132 12.057 7.938 19.6 7.938 2.714 0 5.475-.363 8.19-1.113 20.246-5.588 21.923-22.003 21.923-39.775 0-15.205-1.544-23.821-4.857-27.116M16.222 96.907H.344a.344.344 0 0 0-.344.344v2.724c0 .19.154.343.344.343h6.063v17.578c0 .189.154.344.344.344h3.094c.19 0 .344-.155.344-.344v-17.578h6.033c.19 0 .343-.153.343-.343V97.25a.344.344 0 0 0-.343-.344m10.996 5.325c-1.757 0-3.596.733-4.95 1.966v-6.946a.344.344 0 0 0-.343-.344H19.14a.344.344 0 0 0-.344.344v20.645c0 .19.154.344.344.344h2.785c.19 0 .343-.154.343-.344v-10.564c.74-.967 2.188-1.937 3.774-1.937 1.994 0 2.844.86 2.844 2.875v9.626c0 .19.154.344.344.344h2.786a.344.344 0 0 0 .343-.344v-10.555c0-3.342-1.778-5.11-5.14-5.11m15.576 2.978c2.618 0 3.98 1.881 4.182 3.769H38.6c.288-1.888 1.686-3.769 4.196-3.769m0-2.978c-4.466 0-7.834 3.515-7.834 8.175 0 4.831 3.324 8.205 8.082 8.205 2.53 0 4.69-.805 6.245-2.326a.342.342 0 0 0 .04-.445l-1.3-1.826a.342.342 0 0 0-.527-.041c-.997 1.024-2.598 1.66-4.18 1.66-3 0-4.395-2.112-4.688-3.955H50.07c.19 0 .343-.154.343-.343v-.682c0-4.959-3.132-8.422-7.617-8.422m29.754-5.324H58.682a.344.344 0 0 0-.344.344v20.645c0 .189.155.344.344.344h13.866c.19 0 .344-.155.344-.344v-2.724a.344.344 0 0 0-.344-.343H62.121v-5.751h10.211c.19 0 .344-.154.344-.343v-2.724a.344.344 0 0 0-.344-.344h-10.21v-5.349h10.427c.19 0 .344-.153.344-.343V97.25a.344.344 0 0 0-.344-.344m17.242 5.697h-3.003a.342.342 0 0 0-.319.216l-4.354 10.93-4.355-10.93a.341.341 0 0 0-.319-.216H74.47a.344.344 0 0 0-.317.474l6.159 14.95a.342.342 0 0 0 .317.212h3.002c.14 0 .264-.083.318-.212l6.16-14.95a.343.343 0 0 0-.318-.474m8.581 2.606c2.618 0 3.979 1.881 4.182 3.769h-8.378c.287-1.888 1.686-3.769 4.196-3.769m0-2.978c-4.466 0-7.834 3.515-7.834 8.175 0 4.831 3.323 8.205 8.082 8.205 2.531 0 4.689-.805 6.245-2.326a.343.343 0 0 0 .039-.445l-1.3-1.826a.342.342 0 0 0-.526-.041c-.997 1.024-2.598 1.66-4.18 1.66-3.002 0-4.395-2.112-4.688-3.955h11.436a.344.344 0 0 0 .343-.343v-.682c0-4.959-3.132-8.422-7.617-8.422m18.611 0c-2.476 0-4.218 1.296-4.95 1.964v-1.249a.344.344 0 0 0-.344-.343h-2.785a.344.344 0 0 0-.344.343v14.95c0 .19.154.344.344.344h2.785c.19 0 .344-.154.344-.344v-10.564c.74-.967 2.188-1.937 3.773-1.937 1.967 0 2.845.905 2.845 2.937v9.564c0 .19.153.344.343.344h2.786a.345.345 0 0 0 .344-.344v-10.492c0-3.384-1.778-5.173-5.141-5.173m16.173 12.862a.344.344 0 0 0-.254-.226.358.358 0 0 0-.327.106c-.206.229-.688.475-1.261.475-1.031 0-1.111-1.135-1.111-1.483v-8.23h2.69a.344.344 0 0 0 .343-.343v-2.446a.344.344 0 0 0-.343-.343h-2.69v-3.742a.344.344 0 0 0-.344-.344h-2.785a.344.344 0 0 0-.344.344v3.742h-2.132a.344.344 0 0 0-.344.343v2.446c0 .189.154.343.344.343h2.132v8.849c0 2.597 1.386 4.027 3.903 4.027 1.369 0 2.397-.345 3.146-1.053a.345.345 0 0 0 .089-.36l-.712-2.105zm9.317-6.477c-1.874-.437-3.201-.825-3.201-1.832 0-.991 1.043-1.606 2.721-1.606 1.677 0 3.31.668 4.161 1.701a.341.341 0 0 0 .265.125l.021-.001a.34.34 0 0 0 .269-.158l1.238-1.951a.345.345 0 0 0-.054-.433c-1.534-1.458-3.584-2.23-5.931-2.23-4.149 0-6.039 2.473-6.039 4.77 0 3.485 3.204 4.227 5.778 4.823 1.834.414 3.353.857 3.353 2.079 0 1.123-1.075 1.793-2.875 1.793-1.996 0-3.867-1.05-4.761-2.025a.344.344 0 0 0-.253-.112l-.028.002a.346.346 0 0 0-.26.155l-1.331 2.043a.343.343 0 0 0 .043.428c1.554 1.585 3.79 2.424 6.466 2.424 3.875 0 6.379-1.933 6.379-4.924 0-3.721-3.304-4.469-5.961-5.071m24.531-8.607c2.162 0 4.185 1.088 5.279 2.84a.351.351 0 0 0 .453.123l2.631-1.393a.344.344 0 0 0 .125-.494c-1.999-2.998-4.854-4.518-8.488-4.518-6.231 0-10.93 4.738-10.93 11.022s4.699 11.022 10.93 11.022c3.596 0 6.45-1.519 8.487-4.515a.346.346 0 0 0-.124-.497l-2.631-1.393a.352.352 0 0 0-.453.123c-1.095 1.752-3.117 2.84-5.279 2.84-3.89 0-6.504-3.046-6.504-7.58 0-4.605 2.553-7.58 6.504-7.58m20.425 12.186v2.302c-.746.925-2.05 1.477-3.494 1.477-1.821 0-3.092-1.081-3.092-2.627 0-1.548 1.271-2.629 3.092-2.629 1.444 0 2.748.552 3.494 1.477m-2.875-9.964c-2.507 0-4.65.856-6.369 2.544a.345.345 0 0 0-.05.428l1.207 1.92a.345.345 0 0 0 .534.059c1.264-1.265 2.653-1.88 4.244-1.88 2.01 0 3.309 1.031 3.309 2.628v1.649c-1.149-.98-2.717-1.498-4.546-1.498-2.67 0-5.544 1.638-5.544 5.234 0 3.44 2.856 5.296 5.544 5.296 1.781 0 3.349-.534 4.546-1.546v.831c0 .19.154.344.344.344h2.785c.19 0 .344-.154.344-.344v-10.09c0-3.543-2.314-5.575-6.348-5.575m13.557-5.324h-2.785a.344.344 0 0 0-.344.344v20.645c0 .189.154.344.344.344h2.785c.19 0 .344-.155.344-.344V97.251a.344.344 0 0 0-.344-.344m11.298 8.302c2.618 0 3.979 1.881 4.182 3.769h-8.378c.288-1.888 1.686-3.769 4.196-3.769m0-2.978c-4.466 0-7.833 3.515-7.833 8.175 0 4.831 3.323 8.205 8.081 8.205 2.531 0 4.69-.805 6.245-2.326a.343.343 0 0 0 .039-.445l-1.3-1.826a.342.342 0 0 0-.253-.144.369.369 0 0 0-.273.103c-.997 1.024-2.598 1.66-4.179 1.66-3.002 0-4.395-2.112-4.688-3.955h11.435c.19 0 .343-.154.343-.343v-.682c0-4.959-3.132-8.422-7.617-8.422m18.61 0c-2.476 0-4.217 1.296-4.949 1.964v-1.249a.344.344 0 0 0-.344-.343h-2.785a.344.344 0 0 0-.344.343v14.95c0 .19.154.344.344.344h2.785c.19 0 .344-.154.344-.344v-10.564c.74-.967 2.188-1.937 3.773-1.937 1.967 0 2.844.905 2.844 2.937v9.564c0 .19.154.344.344.344h2.786a.344.344 0 0 0 .343-.344v-10.492c0-3.384-1.777-5.173-5.141-5.173m19.288 5.121v6.17c-.775 1.134-2.335 1.926-3.804 1.926-2.497 0-4.175-2.014-4.175-5.011 0-3.016 1.678-5.042 4.175-5.042 1.432 0 3.028.822 3.804 1.957m3.129-10.445h-2.785a.344.344 0 0 0-.344.344v6.935c-1.238-1.262-2.846-1.955-4.546-1.955-4.205 0-7.03 3.298-7.03 8.206 0 4.889 2.825 8.174 7.03 8.174 1.674 0 3.321-.702 4.546-1.93v1.215c0 .189.154.344.344.344h2.785c.19 0 .344-.155.344-.344V97.251a.344.344 0 0 0-.344-.344m13.648 15.288v2.302c-.746.925-2.05 1.477-3.495 1.477-1.82 0-3.091-1.081-3.091-2.627 0-1.548 1.271-2.629 3.091-2.629 1.445 0 2.749.552 3.495 1.477m-2.875-9.964c-2.507 0-4.65.856-6.37 2.544a.345.345 0 0 0-.049.428l1.207 1.92a.343.343 0 0 0 .533.059c1.265-1.265 2.653-1.88 4.245-1.88 2.01 0 3.309 1.031 3.309 2.628v1.649c-1.149-.98-2.718-1.498-4.547-1.498-2.67 0-5.543 1.638-5.543 5.234 0 3.44 2.856 5.296 5.543 5.296 1.781 0 3.35-.534 4.547-1.546v.831c0 .19.154.344.344.344h2.785c.19 0 .344-.154.344-.344v-10.09c0-3.543-2.314-5.575-6.348-5.575m18.447.031c-1.614 0-3.262.748-4.546 2.057v-1.373a.344.344 0 0 0-.344-.343h-2.786a.344.344 0 0 0-.343.343v14.95c0 .189.154.343.343.343h2.786a.344.344 0 0 0 .344-.343v-10.304c.645-1.006 2.349-1.919 3.587-1.919.34 0 .629.028.885.085a.343.343 0 0 0 .418-.335v-2.817a.344.344 0 0 0-.344-.344" fill="#0F1031"/></svg>