<svg xmlns="http://www.w3.org/2000/svg" width="125" height="27" viewBox="0 0 566 122">
	<g fill="none" fill-rule="evenodd">
		<g transform="translate(183.8 37)" fill-rule="nonzero">
			<circle fill="#FFA23A" cx="375.8" cy="58.2" r="5.6"></circle>
			<path
				d="M31.805 62.112a2.4 2.4 0 01-2.282 1.656h-7.337a2.4 2.4 0 01-2.277-1.641L.323 3.365A2.4 2.4 0 012.6.206h8.895a2.4 2.4 0 012.298 1.708l12.37 41.04 13.974-41.12A2.4 2.4 0 0142.409.206h4.7a2.4 2.4 0 012.268 1.616l14.228 41.131 12.2-41.03A2.4 2.4 0 0178.107.205H87a2.4 2.4 0 012.278 3.156L69.77 62.124a2.4 2.4 0 01-2.278 1.644h-7.335a2.4 2.4 0 01-2.282-1.656L44.84 22.139 31.805 62.112zm74.538-45.22a2.4 2.4 0 012.4 2.4v42.076a2.4 2.4 0 01-2.4 2.4H98.95a2.4 2.4 0 01-2.4-2.4V19.292a2.4 2.4 0 012.4-2.4h7.393zM102.555.748c3.095 0 5.605 2.496 5.605 5.575 0 3.078-2.51 5.574-5.605 5.574-3.095 0-5.605-2.496-5.605-5.574 0-3.08 2.51-5.575 5.605-5.575zm29.076 60.62a2.4 2.4 0 01-2.4 2.4h-7.392a2.4 2.4 0 01-2.4-2.4V19.292a2.4 2.4 0 012.4-2.4h7.133a2.4 2.4 0 012.4 2.4v4.937c1.268-2.35 3.228-4.243 5.88-5.677 2.651-1.433 5.62-2.15 8.906-2.15 5.13 0 9.483 1.692 13.057 5.075s5.361 8.2 5.361 14.45v25.44a2.4 2.4 0 01-2.4 2.4h-7.392a2.4 2.4 0 01-2.4-2.4V39.196c0-3.67-.894-6.523-2.68-8.558-1.788-2.036-4.209-3.054-7.264-3.054-3.228 0-5.837.304-7.826 2.512-1.989 2.207-2.983 5.86-2.983 9.358v21.915zm67.176 3.432c-7.264 0-13.259-2.294-17.986-6.88-4.67-4.53-7.004-10.408-7.004-17.633s2.363-13.102 7.09-17.632c4.785-4.645 10.867-6.967 18.246-6.967 4.842 0 9.238 1.147 13.187 3.44 3.442 2 6.106 4.696 7.993 8.09.655 1.177.278 1.82-.526 2.258l-7.075 3.862c-1.022.557-1.66.252-2.336-.67-2.79-3.808-6.48-5.713-11.07-5.713-3.92 0-7.12 1.29-9.599 3.87-2.536 2.524-3.804 5.678-3.804 9.462 0 3.9 1.24 7.11 3.718 9.633 2.536 2.523 5.678 3.785 9.425 3.785 2.48 0 4.843-.66 7.09-1.979 1.763-1.033 3.153-2.295 4.171-3.786.478-.7 1.16-1.053 2.116-.495l7.327 4.284c.752.44.986 1.062.548 1.783-1.99 3.273-4.765 5.918-8.324 7.934-3.95 2.236-8.345 3.354-13.187 3.354zm44.45-3.432a2.4 2.4 0 01-2.4 2.4h-7.392a2.4 2.4 0 01-2.4-2.4V2.4a2.4 2.4 0 012.4-2.4h7.047a2.4 2.4 0 012.4 2.4v21.399c1.268-2.179 3.257-3.957 5.966-5.333 2.71-1.376 5.679-2.064 8.907-2.064 5.073 0 9.396 1.692 12.97 5.075 3.575 3.383 5.362 8.2 5.362 14.45v25.44a2.4 2.4 0 01-2.4 2.4h-7.393a2.4 2.4 0 01-2.4-2.4V39.196c0-3.67-.879-6.523-2.637-8.558-1.758-2.036-4.165-3.054-7.22-3.054-3.229 0-5.837 1.104-7.826 3.312-1.989 2.207-2.983 5.06-2.983 8.558v21.915zm68.25 3.432c-8.243 0-14.584-2.38-19.023-7.139-4.381-4.702-6.572-10.493-6.572-17.374 0-7.167 2.277-13.045 6.831-17.632 4.554-4.645 10.463-6.967 17.727-6.967 6.86 0 12.51 2.122 16.948 6.365 4.439 4.243 6.658 9.977 6.658 17.202 0 1.112-.086 2.43-.26 3.955-.107.942-.495 1.378-1.52 1.378h-34.019c1.73 6.651 6.313 9.977 13.75 9.977 4.925 0 9.524-1.276 13.797-3.827.806-.481 1.661-.481 2.11.307l3.406 5.99c.58 1.019.442 1.548-.388 2.096-5.722 3.78-12.203 5.669-19.445 5.669zm10.723-29.244c-.577-3.039-1.902-5.433-3.978-7.181-2.075-1.75-4.67-2.624-7.782-2.624-3.055 0-5.664.875-7.826 2.624-2.162 1.748-3.617 4.142-4.367 7.181h23.953zm33.924 25.812a2.4 2.4 0 01-2.4 2.4h-7.393a2.4 2.4 0 01-2.4-2.4V19.292a2.4 2.4 0 012.4-2.4h6.874a2.4 2.4 0 012.4 2.4v5.472c2.825-5.046 7.148-7.57 12.97-7.57 1.491 0 2.982.212 4.472.635.86.243 1.193.871 1.11 1.796l-.778 8.712c-.097 1.091-.567 1.348-1.636 1.091-1.487-.357-2.86-.536-4.119-.536-3.574 0-6.384 1.19-8.43 3.57-2.047 2.38-3.07 5.92-3.07 10.622v18.284z"
				fill="#1c1c1b"></path>
		</g>
		<path
			d="M154.949.162a3.423 3.423 0 012.235 4.308l-37.107 115.146a3.446 3.446 0 01-3.285 2.384H94.376c-.356 0-.71-.055-1.049-.162a3.423 3.423 0 01-2.235-4.308L128.199 2.384A3.446 3.446 0 01131.484 0h24.485c.356 0-1.36.055-1.02.162zm-70.7 14.231c.355 0 .707.055 1.046.162a3.423 3.423 0 012.24 4.305L55.247 119.613A3.446 3.446 0 0151.962 122H29.545c-.355 0-.708-.055-1.047-.162a3.423 3.423 0 01-2.239-4.305L58.545 16.78a3.446 3.446 0 013.286-2.387h22.417z"
			fill="#FF8F3B"></path>
		<path
			d="M107.849 65.53l14.936 45.68-2.708 8.406a3.446 3.446 0 01-3.285 2.384l-11.788-47.64 2.845-8.83zm-64.877-.151l14.976 45.805-2.7 8.429a3.425 3.425 0 01-.157.4l-15.13-45.236 3.011-9.398z"
			fill="#FF7F3B"></path>
		<path
			d="M84.376 14.393c1.501 0 2.83.966 3.285 2.387l32.287 100.753a3.423 3.423 0 01-2.24 4.305 3.468 3.468 0 01-1.046.162H94.245a3.446 3.446 0 01-3.286-2.387L58.673 18.86a3.423 3.423 0 012.24-4.305 3.468 3.468 0 011.045-.162zM26.454 37.011c1.497 0 2.823.96 3.282 2.376l25.363 78.135a3.423 3.423 0 01-2.224 4.313c-.342.11-.699.165-1.058.165H29.408a3.446 3.446 0 01-3.282-2.376L.763 41.49a3.423 3.423 0 012.224-4.314 3.485 3.485 0 011.058-.165z"
			fill="#FFA23A"></path>
	</g>
</svg>