<svg role="img" aria-hidden="true" focusable="false" xmlns="http://www.w3.org/2000/svg" viewBox="0 0 254 96"><defs><radialGradient id="c" cx="132.75" cy="69.66" r="12.86" fx="132.75" fy="69.66" gradientTransform="matrix(1 0 0 -1 0 98)" gradientUnits="userSpaceOnUse"><stop offset="0" stop-color="#9fda4f"/><stop offset="1" stop-color="#77b227"/></radialGradient><radialGradient id="d" cx="124.22" cy="44.84" r="10.3" fx="124.22" fy="44.84" gradientTransform="matrix(1 0 0 -1 0 98)" gradientUnits="userSpaceOnUse"><stop offset="0" stop-color="#fec228"/><stop offset=".22" stop-color="#fbb81e"/><stop offset="1" stop-color="#f49a00"/></radialGradient><radialGradient id="e" cx="113.13" cy="30.08" r="5.04" fx="113.13" fy="30.08" gradientTransform="matrix(1 0 0 -1 0 98)" gradientUnits="userSpaceOnUse"><stop offset="0" stop-color="#ff4e47"/><stop offset="1" stop-color="#ed261f"/></radialGradient><linearGradient id="a" x1="-1.92" x2="258.06" y1="97.88" y2="1.33" gradientTransform="matrix(1 0 0 -1 0 98)" gradientUnits="userSpaceOnUse"><stop offset=".17" stop-color="#0e1e65"/><stop offset=".48" stop-color="#064b8d"/><stop offset=".73" stop-color="#0169a8"/><stop offset=".87" stop-color="#0075b3"/></linearGradient></defs><path fill="url(#a)" d="M-7.4 0h268.8v96H-7.4z"/><path fill="url(#c)" d="M146.82 22.22c-6.18-3.49-14.02-1.31-17.51 4.87S128 41.11 134.18 44.6s14.02 1.31 17.51-4.87 1.31-14.02-4.87-17.51"/><path fill="url(#d)" d="M133.83 48.96s-.01 0-.02-.01h-.02a8.386 8.386 0 0 0-11.44 3.18c-2.28 4.04-.86 9.16 3.18 11.44 4.04 2.27 9.15.84 11.42-3.19 2.28-4.03.86-9.13-3.14-11.42"/><path fill="url(#e)" d="M122.05 70.4c0-1.76-.92-3.46-2.56-4.39-.78-.44-1.63-.65-2.48-.65-2.78 0-5.05 2.25-5.05 5.04s2.25 5.05 5.04 5.05 5.05-2.25 5.05-5.04"/><path fill="#fff" d="M102.23 61v4.58c2.83-.12 5.05-1.05 6.92-2.95 1.88-1.9 3.59-4.98 5.23-9.56l12.14-32.51h-5.87l-9.78 27.16-4.85-15.23h-5.38l7.13 18.33c.69 1.76.69 3.72 0 5.48-.72 1.86-2.02 4.05-5.54 4.71Z"/><path fill="#a1cce3" d="M152.19 64.83c-.46 0-.87.31-.99.76l-.13.47c-2.96-.06-5.92.29-8.79 1.02h-.03c-.22.07-.33.3-.26.52.45 1.34.99 2.66 1.61 3.94.07.14.21.23.37.23h6.1c.52 0 .98.33 1.16.82h-8.1c-.22 0-.41.18-.41.41s.18.41.41.41h8.58c.22 0 .41-.18.41-.41 0-.93-.63-1.74-1.53-1.98l1.39-5.22c.02-.09.1-.15.2-.15h.75c.22 0 .41-.18.41-.41s-.18-.41-.41-.41h-.76Zm-.88 10.61c-.45 0-.82-.36-.82-.82s.36-.82.82-.82.82.36.82.82-.36.82-.82.82m-6.94 0c-.45 0-.82-.36-.82-.82s.36-.82.82-.82.82.36.82.82-.36.82-.82.82"/></svg>