<svg width="153" height="58" role="img" aria-hidden="true" focusable="false" xmlns="http://www.w3.org/2000/svg" viewBox="0 0 107.51 40.69"><path fill="#7c579f" fill-rule="evenodd" d="M16.75 23.78h23.13c1.46 0 2.65 1.19 2.65 2.65v8.82c0 1.46-1.18 2.65-2.65 2.65h-8.3l1.14 2.79-5.01-2.79H16.75c-1.46 0-2.65-1.18-2.65-2.65v-8.82c0-1.46 1.19-2.65 2.65-2.65Z"/><path fill="#fff" d="M15.53 26.18c.17-.22.41-.34.73-.36.59-.04.93.24 1.02.83.36 2.42.75 4.48 1.17 6.17L21 27.98c.23-.44.52-.67.87-.69.51-.04.83.29.96.97.29 1.54.66 2.86 1.1 3.97.3-2.95.82-5.08 1.53-6.4a.92.92 0 0 1 .77-.52c.27-.02.52.06.73.23.22.17.34.39.35.67.01.2-.02.39-.11.55-.45.84-.83 2.24-1.12 4.2-.29 1.89-.4 3.37-.32 4.43.02.29-.02.55-.13.76-.14.26-.35.4-.62.42-.31.02-.61-.12-.92-.43-1.08-1.11-1.94-2.76-2.57-4.94-.75 1.49-1.31 2.6-1.68 3.35-.68 1.31-1.27 1.99-1.75 2.02-.32.02-.59-.24-.81-.8-.6-1.52-1.24-4.46-1.92-8.82-.04-.3.02-.57.18-.78ZM40.51 28c-.42-.73-1.04-1.18-1.86-1.35-.22-.05-.43-.07-.63-.07-1.11 0-2.02.58-2.73 1.74-.6.99-.9 2.08-.9 3.27 0 .9.19 1.66.56 2.3.42.73 1.04 1.18 1.86 1.35.22.05.43.07.63.07 1.13 0 2.03-.58 2.73-1.74.6-1 .9-2.1.9-3.29 0-.9-.19-1.66-.56-2.28Zm-1.47 3.22c-.16.76-.45 1.34-.89 1.72-.34.31-.65.43-.94.37-.28-.06-.51-.31-.68-.75-.14-.36-.2-.72-.2-1.06a3.847 3.847 0 0 1 .7-2.23c.39-.57.79-.81 1.21-.72.28.06.51.31.68.75.14.36.2.72.2 1.06 0 .3-.03.58-.09.85ZM33.22 28c-.42-.73-1.04-1.18-1.86-1.35-.22-.05-.43-.07-.63-.07-1.11 0-2.02.58-2.73 1.74-.6.99-.9 2.08-.9 3.27 0 .9.19 1.66.56 2.3.42.73 1.04 1.18 1.86 1.35.22.05.43.07.63.07 1.12 0 2.03-.58 2.73-1.74.6-1 .9-2.1.9-3.29 0-.9-.19-1.66-.56-2.28Zm-1.47 3.22c-.16.76-.45 1.34-.89 1.72-.34.31-.65.43-.94.37-.28-.06-.51-.31-.68-.75-.14-.36-.2-.72-.2-1.06a3.847 3.847 0 0 1 .7-2.23c.39-.57.79-.81 1.21-.72.28.06.51.31.68.75.14.36.2.72.2 1.06 0 .3-.03.58-.09.85Z"/><path d="M45.47 27.9c-.78.77-1.16 1.74-1.16 2.92 0 1.27.38 2.3 1.15 3.08.77.78 1.77 1.17 3.01 1.17.36 0 .76-.06 1.21-.18v-1.88c-.4.12-.76.18-1.06.18-.62 0-1.11-.21-1.48-.62-.37-.41-.55-.97-.55-1.69 0-.66.18-1.2.55-1.63.37-.43.83-.64 1.38-.64.36 0 .75.06 1.16.17V26.9c-.39-.1-.81-.15-1.27-.15-1.19 0-2.17.38-2.94 1.15Zm8.06-1.15c-1.07 0-1.91.36-2.51 1.07-.6.71-.9 1.71-.9 2.98 0 1.38.3 2.44.9 3.17.6.73 1.46 1.1 2.6 1.1s1.95-.37 2.54-1.1c.59-.73.89-1.76.89-3.09s-.3-2.35-.91-3.06c-.6-.71-1.48-1.07-2.62-1.07Zm.92 6.04c-.21.33-.52.49-.92.49-.37 0-.65-.16-.85-.49-.2-.33-.29-.98-.29-1.96 0-1.52.39-2.28 1.16-2.28.82 0 1.23.77 1.23 2.32 0 .96-.11 1.6-.32 1.93Zm8.36-5.82-.42 1.78c-.11.45-.21.92-.3 1.4l-.23 1.23c-.22-1.23-.52-2.7-.91-4.4h-2.7l-1.02 7.91h2.02l.55-5.45 1.38 5.45h1.45l1.32-5.44.57 5.44h2.12l-1.07-7.91h-2.76Zm9.68 0-.42 1.78c-.11.45-.21.92-.3 1.4l-.23 1.23c-.22-1.23-.52-2.7-.91-4.4h-2.7l-1.02 7.91h2.02l.55-5.45 1.38 5.45h1.45l1.32-5.44.57 5.44h2.12l-1.07-7.91h-2.76Zm6.57 4.78h1.9v-1.64h-1.9v-1.46h2.19v-1.68h-4.32v7.91h4.34v-1.69h-2.2v-1.44Zm8.22-1.25c.22-.36.33-.73.33-1.11 0-.75-.29-1.34-.87-1.77-.58-.43-1.38-.65-2.38-.65h-2.49v7.91h2.14v-3.6h.04l1.73 3.6h2.26l-1.71-3.57c.42-.18.75-.45.97-.81ZM84 30.37v-1.88c.51.01.87.1 1.09.25.22.16.33.42.33.79 0 .54-.47.82-1.42.84Zm4.88-2.47c-.78.77-1.16 1.74-1.16 2.92 0 1.27.38 2.3 1.15 3.08.77.78 1.77 1.17 3.01 1.17.36 0 .76-.06 1.21-.18v-1.88c-.4.12-.76.18-1.06.18-.62 0-1.11-.21-1.48-.62-.37-.41-.55-.97-.55-1.69 0-.66.18-1.2.55-1.63.37-.43.83-.64 1.38-.64.36 0 .75.06 1.16.17V26.9c-.39-.1-.81-.15-1.27-.15-1.18 0-2.17.38-2.94 1.15Zm6.94 5.29v-1.44h1.9v-1.64h-1.9v-1.46h2.19v-1.68h-4.32v7.91h4.34v-1.69h-2.2Z"/><g fill="#a71d69"><path d="M21.21 6.8c-4.96 0-6.94 3.33-6.94 7.03s1.95 7.18 6.94 7.18 6.93-3.48 6.92-6.95c-.01-4.22-2.15-7.26-6.92-7.26Zm-3 7.24c.12-4.96 3.93-4.95 5.2-3.18 1.16 1.62 1.4 7.15-2.2 7.11-1.66-.02-2.96-1.14-3-3.94ZM61.43 17.58V10.4H64V7.28h-2.57V3.51h-3.97v3.77h-2.01v3.12h2.01v6.77c0 3.85 2.68 6.14 5.52 6.61l1.18-3.19c-1.65-.21-2.72-1.44-2.74-3.02ZM41.42 16.44v-5.4c0-.2-.01-.38-.03-.56-.34-4.36-6.54-4.35-11.34-2.68l1.39 2.79c3.12-1.48 4.99-1.1 5.65-.37.02.02.03.04.05.06.33.45.25 1.16.25 1.72-4.08 0-8.43.54-8.43 5.02 0 3.4 4.27 5.59 8.72 2.35l.66 1.6h3.82c-.34-1.87-.75-3.48-.75-4.53Zm-3.99-.03c-3.14 3.51-6.02.21-3.07-1.24.87-.3 2.04-.31 3.07-.31v1.55ZM47.51 10.75c0-1.33 2.13-1.95 5.49-.42l1.16-2.82c-4.52-1.37-10.69-1.49-10.73 3.24-.02 2.27 1.43 3.48 3.53 4.26 1.45.54 3.54.82 3.54 1.97 0 1.51-3.25 1.74-6.2-.29l-1.19 3.06c4.03 2 11.52 2.06 11.48-2.96-.04-4.97-7.06-4.12-7.06-6.04ZM12.6 0 6.85 15.97 4.1 7.35H0l4.58 11.78c.39 1 .39 2.12 0 3.12-.51 1.31-1.37 2.44-3.44 2.72v3.49c4.05 0 6.23-2.49 8.19-7.94L16.98 0H12.6Z"/></g><g fill="#a71d69"><path d="M76.58 17.69c0 1.05-.38 1.87-1.14 2.46s-1.8.89-3.14.89-2.42-.21-3.27-.62V18.6c.54.25 1.11.45 1.71.6s1.17.22 1.69.22c.76 0 1.33-.14 1.69-.43s.54-.68.54-1.17c0-.44-.17-.81-.5-1.12-.33-.31-1.02-.67-2.06-1.09-1.07-.43-1.83-.93-2.27-1.49-.44-.56-.66-1.23-.66-2.01 0-.98.35-1.76 1.05-2.32.7-.56 1.64-.85 2.81-.85s2.25.25 3.37.74l-.61 1.57c-1.05-.44-1.98-.66-2.81-.66-.62 0-1.1.14-1.42.41-.32.27-.48.63-.48 1.08 0 .31.06.57.19.79s.34.42.64.62c.3.19.83.45 1.6.77.86.36 1.5.7 1.9 1.01.4.31.7.66.89 1.06.19.39.28.85.28 1.39ZM85.36 20.89h-6.67V9.12h6.67v1.63h-4.74v3.21h4.44v1.61h-4.44v3.7h4.74v1.63ZM98.21 14.98c0 1.92-.48 3.41-1.44 4.47-.96 1.06-2.32 1.59-4.07 1.59s-3.14-.53-4.1-1.58c-.95-1.06-1.43-2.55-1.43-4.5s.48-3.44 1.44-4.48c.96-1.04 2.33-1.56 4.11-1.56s3.11.53 4.06 1.59c.96 1.06 1.43 2.55 1.43 4.47Zm-9 0c0 1.45.29 2.55.88 3.3.59.75 1.45 1.12 2.6 1.12s2.01-.37 2.59-1.11c.58-.74.87-1.84.87-3.31s-.29-2.54-.87-3.29c-.58-.75-1.44-1.12-2.58-1.12s-2.03.37-2.62 1.12c-.59.75-.88 1.84-.88 3.29Z"/></g><path fill="#77b22b" d="m101.16 21.06 4.62-12.17h1.73l-4.61 12.17h-1.74z"/></svg>