<?xml version="1.0" encoding="UTF-8"?>
<svg id="Layer_1" data-name="Layer 1" xmlns="http://www.w3.org/2000/svg" xmlns:xlink="http://www.w3.org/1999/xlink" viewBox="0 0 200 200">
  <defs>
    <style>
      .cls-1 {
        fill: url(#radial-gradient-3);
      }

      .cls-2 {
        fill: url(#radial-gradient-2);
      }

      .cls-3 {
        fill: url(#radial-gradient);
      }

      .cls-4 {
        fill: url(#linear-gradient);
      }

      .cls-5 {
        fill: #fff;
      }

      .cls-6 {
        fill: #a61e69;
      }
    </style>
    <radialGradient id="radial-gradient" cx="116.36" cy="44.04" fx="116.36" fy="44.04" r="36.58" gradientUnits="userSpaceOnUse">
      <stop offset="0" stop-color="#9fda4f"/>
      <stop offset="1" stop-color="#77b227"/>
    </radialGradient>
    <radialGradient id="radial-gradient-2" cx="92.08" cy="114.68" fx="92.08" fy="114.68" r="29.3" gradientUnits="userSpaceOnUse">
      <stop offset="0" stop-color="#fec228"/>
      <stop offset=".22" stop-color="#fbb81e"/>
      <stop offset="1" stop-color="#f49a00"/>
    </radialGradient>
    <radialGradient id="radial-gradient-3" cx="60.52" cy="156.68" fx="60.52" fy="156.68" r="14.35" gradientUnits="userSpaceOnUse">
      <stop offset="0" stop-color="#ff4e47"/>
      <stop offset="1" stop-color="#ed261f"/>
    </radialGradient>
    <linearGradient id="linear-gradient" x1="61.93" y1="19.37" x2="61.93" y2="149.86" gradientUnits="userSpaceOnUse">
      <stop offset=".3" stop-color="#83af42"/>
      <stop offset=".44" stop-color="#7fac41"/>
      <stop offset=".54" stop-color="#75a23e"/>
      <stop offset=".64" stop-color="#64923b"/>
      <stop offset=".74" stop-color="#4d7c35"/>
      <stop offset=".8" stop-color="#396a31"/>
    </linearGradient>
  </defs>
  <path class="cls-6" d="M200,200H32c-17.67,0-32-14.33-32-32V32C0,14.33,14.33,0,32,0h136C185.67,0,200,14.33,200,32v168Z"/>
  <g>
    <path class="cls-3" d="M156.41,26.63c-17.59-9.93-39.9-3.73-49.84,13.86-9.94,17.59-3.73,39.9,13.86,49.84,17.59,9.94,39.9,3.73,49.84-13.86,9.93-17.59,3.73-39.9-13.86-49.84"/>
    <path class="cls-2" d="M119.44,102.75h0s-.04-.02-.06-.04c-.02,0-.03-.02-.05-.03h0c-12.13-6.71-26.33-1.98-32.56,9.06-6.49,11.5-2.43,26.07,9.06,32.57h0s.02,0,.03.02c0,0,.02,0,.03.02h0c11.49,6.45,26.03,2.4,32.51-9.08,6.47-11.46,2.46-25.98-8.95-32.5"/>
    <path class="cls-1" d="M85.91,163.76c0-5-2.62-9.85-7.27-12.49h0c-2.23-1.26-4.65-1.86-7.05-1.86-7.9,0-14.36,6.4-14.36,14.34s6.4,14.36,14.34,14.36,14.36-6.4,14.36-14.34"/>
  </g>
  <g>
    <path class="cls-4" d="M81.06,20.2l-26.74,74.2-12.83-40.12h-19.04l21.31,54.8c1.79,4.66,1.79,9.85,0,14.51-2.39,6.09-6.33,11.34-16,12.66v16.24c18.8,0,29.01-11.58,38.09-36.95L101.42,20.2h-20.36Z"/>
    <path class="cls-5" d="M27.76,154.13h-1.64v-19.31l1.42-.19c9.43-1.28,12.72-6.6,14.69-11.63,1.65-4.29,1.65-9.02,0-13.32l-22.18-57.03h22.64l11.73,36.66,25.5-70.75h23.87l-36.41,97.55c-8.16,22.81-18.02,38.02-39.62,38.02ZM29.4,137.65v13.17c16.28-.61,25.85-10.53,34.9-35.83L99.06,21.84h-16.84l-27.99,77.66-13.94-43.57h-15.44l20.44,52.56c1.95,5.06,1.95,10.63,0,15.69-2.09,5.34-5.79,11.6-15.89,13.47Z"/>
  </g>
</svg>