<svg fill="none" height="243" viewBox="0 0 432 243" width="432" xmlns="http://www.w3.org/2000/svg" xmlns:xlink="http://www.w3.org/1999/xlink"><linearGradient id="a"><stop offset="0" stop-color="#570732"/><stop offset=".04" stop-color="#610b39"/><stop offset=".15" stop-color="#79164b"/><stop offset=".29" stop-color="#8c1e59"/><stop offset=".44" stop-color="#9a2463"/><stop offset=".63" stop-color="#a22768"/><stop offset="1" stop-color="#a4286a"/></linearGradient><linearGradient id="b" gradientUnits="userSpaceOnUse" x1="98.467" x2="98.467" xlink:href="#a" y1="131.4" y2="111.729"/><linearGradient id="c" gradientUnits="userSpaceOnUse" x1="148.335" x2="148.335" xlink:href="#a" y1="135.23" y2="107.171"/><linearGradient id="d" gradientUnits="userSpaceOnUse" x1="117.889" x2="117.889" xlink:href="#a" y1="131.333" y2="111.669"/><linearGradient id="e" gradientUnits="userSpaceOnUse" x1="135.061" x2="135.061" xlink:href="#a" y1="131.412" y2="111.569"/><linearGradient id="f" gradientUnits="userSpaceOnUse" x1="61.989" x2="61.989" y1="101.254" y2="132.371"><stop offset="0" stop-color="#77b227"/><stop offset=".47" stop-color="#75b027"/><stop offset=".64" stop-color="#6eab27"/><stop offset=".75" stop-color="#63a027"/><stop offset=".85" stop-color="#529228"/><stop offset=".93" stop-color="#3c8028"/><stop offset="1" stop-color="#246b29"/></linearGradient><clipPath id="g"><path d="m284.501 110h22.4598v23.8635h-22.4598z"/></clipPath><path d="m0 0h432v243h-432z" fill="#fff"/><path clip-rule="evenodd" d="m79.2803 121.464c0-5.13 2.746-9.735 9.6075-9.735 6.604 0 9.5631 4.2 9.5791 10.048.0124 4.801-2.6767 9.623-9.5791 9.623s-9.6075-4.607-9.6075-9.936zm12.6482-4.109c-1.7602-2.46-7.032-2.46-7.199 4.398.0675 3.872 1.8668 5.421 4.1582 5.446 4.9751.056 4.6394-7.603 3.0408-9.844z" fill="url(#b)" fill-rule="evenodd"/><path d="m144.55 126.642v-9.947h3.553v-4.311h-3.553v-5.213h-5.488v5.213h-2.785v4.314h2.785v9.388c0 5.328 3.716 8.497 7.638 9.153l1.637-4.423c-2.286-.29-3.765-1.998-3.787-4.174z" fill="url(#c)"/><path clip-rule="evenodd" d="m116.849 117.593v7.472c0 1.05.294 2.504.638 4.204.133.654.273 1.346.406 2.064h-5.286l-.916-2.208c-6.176 4.491-12.0787 1.461-12.0787-3.252 0-6.197 6.0147-6.948 11.6647-6.948 0-.12.002-.245.005-.373.014-.699.03-1.478-.361-2.004 0-.003 0-.007 0-.011-.016-.021-.033-.041-.05-.06-.006-.007-.011-.013-.017-.019-.902-1.013-3.49-1.542-7.815.511l-1.924-3.863c6.641-2.318 15.215-2.332 15.691 3.707.027.259.041.519.043.78zm-9.781 5.714c-4.077 1.998-.096 6.577 4.252 1.712v-2.139c-1.423 0-3.052.018-4.252.427z" fill="url(#d)" fill-rule="evenodd"/><path d="m125.292 117.19c0-1.84 2.948-2.701 7.597-.579l1.607-3.907c-6.256-1.894-14.799-2.057-14.856 4.486-.025 3.137 1.986 4.824 4.883 5.901 2.005.746 4.902 1.131 4.893 2.73-.011 2.087-4.501 2.407-8.588-.402l-1.652 4.235c5.574 2.774 15.942 2.853 15.887-4.101-.046-6.874-9.771-5.697-9.771-8.363z" fill="url(#e)"/><path d="m76.9602 102.312-7.9574 22.102-3.81-11.934h-5.6679l6.3446 16.298c.5418 1.388.5418 2.928 0 4.316-.7105 1.819-1.8899 3.375-4.7655 3.762v4.831c5.6003 0 8.6288-3.442 11.3304-10.989l10.5898-28.386z" fill="url(#f)"/><path d="m213.147 167.596c25.712 0 46.556-20.843 46.556-46.555 0-25.7124-20.844-46.5561-46.556-46.5561s-46.556 20.8437-46.556 46.5561c0 25.712 20.844 46.555 46.556 46.555z" fill="#f0ecf0"/><path d="m210.801 111.035c8.457-9.437 5.469-.326 21.801-3.765 4.653-.98 13.004-3.177 15.112 1.387 2.378 5.154 6.69 5.785 5.352 9.118-2.353 5.852-10.768 7.531-13.146.926-3.031-2.055-14.966 3.734-18.611 4.624-1.356.33-1.448-3.396-2.793-3.612-.88-.142-.77-.284-1.565-.959-7.687-6.53-8.173-5.462-8.699-6.878.803-.191 1.583-.66 2.552-.837z" fill="#9e005d"/><path d="m248.775 114.116c-2.907-.926-6.431 1.313-5.025 4.447.34.76 2.054 3.986 2.775 4.227 2.722.919 9.419-3.712 2.25-8.674z" fill="#6c2548"/><path d="m249.62 116.42c-.753-.376-4.209.521-3.833 1.98.468 1.807 1.263 2.758 2.324 3.329 2.712 1.459 2.275 4.22 6.14 4.167 1.867-.025 6.704-2.595 6.864-.76.263 3.038.774 5.941 1.32 5.285 1.32-1.587 1.849-1.718 1.98-7.003.036-1.476-3.566-2.509-5.021-4.755-.788-1.221-4.887-1.189-9.778-2.247z" fill="#ffc399"/><path d="m188.58 99.2422c-3.503-2.9954-14.089 7.0478-13.291 10.2278.799-.851 1.977-2.509 3.29-2.193-4.532 3.063-5.32 10.807-2.974 15.431.263-1.224.731-2.541 1.494-3.538-1.295 5.061.777 13.759 7.119 18.121-.433-3.191-2.001-8.379.795-10.445 4.142-3.059 9.419-3.996 11.922-9.05 6.193-12.51-12.791-21.5208-8.355-18.5574z" fill="#be1e2d"/><path d="m192.172 117.378c-2.75.227-11.921 19.388.791 33.935 1.779 2.037 3.954 5.948 6.534 6.299 5.427.739 19.747-3.02 25.099-5.312 20.243-8.671 2.111-18.072-.515-27.988-2.367-8.943-2.875-14.604-13.213-14.994-4.866-.185-18.582 2.945-19.917 8.429-.372.181-.181-.132 1.221-.373z" fill="#9e005d"/><path d="m211.659 111.696c6.381 2.054 10.427 8.957 12.926 14.618-2.3-7.194-3.432-13.77-13.22-14.917-.022-.12.699-1.157.294.299z" fill="#6c2548"/><path d="m219.197 110.936c1.785 1.487 3.269 4.656 4.064 6.64.869 2.176.145 5.547.951 7.73-2.154-5.387-2.179-8.567-5.011-14.37z" fill="#6c2548"/><path d="m215.954 127.78c-1.764.624-4.83 1.128-6.839 2.079-3.645 1.729-8.227-2.874-12.187-1.98-1.431.323-6.41-1.455-6.804-3.237-.49-2.207-1.242-2.253-.131-3.698 4.365-5.671 4.692-2.612 4.887-11.495.032-1.476-.334-2.186.131-3.435.465-1.25.351.028 1.817-.238s4.994-1.75 6.449-1.086c2.555 1.164.855 6.619 2.683 8.51 1.898 1.963 6.402-.046 8.315 1.881 2.399 2.417 2.208 11.414 1.675 12.702z" fill="#ffc399"/><path d="m211.369 118.467c.475-.951.369-2.608-.043-4.312-1.959-.057-4.174.273-5.363-.958-1.082-1.118-.929-3.475-1.153-5.462-.316-.036-.649-.096-1.011-.202-2.105-.621-4.451-1.392-6.783-1.796-.063.014-.127.028-.184.039-.674.124-1.008-.096-1.221-.238-.117-.01-.234-.021-.355-.028-.067.081-.142.234-.241.504-.451 1.213-.121 1.927-.132 3.325 2.311 6.023 11.073 19.967 16.493 9.128z" fill="#e57c57"/><path d="m199.767 128.078c12.155 5.813 19.949 9.117 22.724 16.648-1.717-7.928-1.487-14.37-7.431-25.268 1.125 12.375-14.601 8.95-15.293 8.62z" fill="#f1f2f2"/><path d="m222.494 143.669c.263-6.474-1.76-30.941-7.399-33.428-1.761-.778-17.877 1.955-12.947 2.246 7.708.451 12.155 4.624 13.213 7.134 1.32 1.849 5.135 14.33 7.133 24.044z" fill="#6c2548"/><path d="m222.36 143.669c.262-6.473-3.216-31.206-8.852-33.691-1.76-.777-16.293 2.222-11.364 2.509 7.709.451 12.156 4.625 13.213 7.134 1.321 1.849 5.004 14.331 7.003 24.044z" fill="#9e005d"/><path d="m216.813 93.4607c.926 4.0956-.66 3.1693.131 5.8133.625 2.083 1.214 3.442 1.058 5.813-.401 6.094-4.973 11.46-5.143 11.63-2.417 2.417-5.22 2.158-9.128.128-7.272-3.776-11.495-8.322-12.553-19.704-.784-8.4537 6.271-14.746 15.023-13.8552 5.416.5536 9.082 3.3999 10.612 10.1714z" fill="#ffc399"/><path d="m197.102 87.648c6.572-.2981 5.032 3.2083 10.899 4.9544 4.656 1.3876 9.511-1.6858 8.62 6.2427-.791 7.0199 15.669-6.8602 2.435-12.6522-2.115-.9263-1.895-2.3565-3.964-5.0218-4.33-5.572-18.895-11.7578-25.102-1.4551-1.573 2.612 4.429 6.8353 7.108 7.9284z" fill="#be1e2d"/><path d="m196.804 87.8467c1.519 5.9943-.27 7.0483-1.09 9.1174-.901 2.2713-1.338 4.4149-2.477 6.5409-1.654-3.45-3.641-.529-8.794-7.2685-9.228-12.0665 16.304-28.1896 12.361-8.3898z" fill="#be1e2d"/><path d="m193.56 104.495c1.029-2.722-6.715-7.3853-5.998-1.739.348 2.736 2.527 4.291 4.855 5.253 3.822 1.575 1.991-2.793.948-5.097l.198 1.587z" fill="#ffc399"/><path d="m194.947 95.3774c.515 2.0833-.049 11.3566 2.974 14.9946-5.252-2.857-3.95-8.55-2.974-14.9946z" fill="#be1e2d"/><path d="m194.152 97.9536c-1.214.6921-2.403 5.6464-.539 9.5074.01-.035.805-8.1836.539-9.5074z" fill="#be1e2d"/><path d="m201.353 128.869c-4.795-2.9-9.181-3.446-7.875-11.999 1.444-1.675 1.246-3.162 1.345-5.64-1.849.661-6.811 3.248-9.057 4.426-3.308 1.732-7.268 5.682-4.096 8.983 1.172 1.217-2.931 3.204 1.562 11.264 2.509-4.362 4.518-8.092 6.101-8.223 5.55-.131 7.385 2.779 12.286 3.964 12.024 2.907 19.424 10.835 20.875 13.607.061-1.753-2.115-8.191-21.137-16.382z" fill="#9e005d"/><path d="m187.083 129.004c-13.763 19.047 4.514 20.719 8.919 38.329.198.802 1.093 1.952 2.505 2.204 8.418 1.505 18.139-2.907 26.437-11.534 2.346-2.438.411-8.17-2.577-9.412-3.865-2.577-12.297 6.704-21.677 4.986-1.129-1.7-2.509-22.461-13.607-24.573z" fill="#9e005d"/><path d="m265.022 139.374-.451 16.649-10.664-2.279-.157-16.187z" fill="#a0c9cb"/><path d="m265.466 155.725-.848.397c.142-18.494-.284-17.166.848-16.943v16.549z" fill="#75b0b3"/><path d="m257.942 140.265c4.12.461 5.352 10.899 4.163 15.062-.199-.199-5.945-1.388-6.143-1.189-2.864-3.272-1.654-14.281 1.98-13.873z" fill="#66a7ab"/><path d="m264.639 139.97s.255-3.169 0-3.368c-.256-.199-11.069-1.089-11.069-1.089-1.292 2.842-.717 2.136 11.069 4.457z" fill="#467d7f"/><path d="m260.284 122.726 4.802 14.072-11.215-1.917-5.511-15.026z" fill="#67a8ac"/><path d="m261.314 126.197c.057.011.114.021.167.032l-1.193-3.499-11.924-2.875 1.093 2.978z" fill="#55989b"/><path d="m254.276 134.981-1.877 1.189-4.465-14.235 2.083-1.487z" fill="#519093"/><path d="m260.991 122.133-1.537 1.782-10.92-1.682 1.448-1.686z" fill="#b1d3d4"/><path d="m265.746 138.647c0 1.753-1.742 1.753-1.742 0s1.742-1.753 1.742 0z" fill="#a0c9cb"/><path d="m252.398 136.17c2.502-1.583.096-1.469 12.855.529-2.3 1.98-.089 1.781-12.855-.529z" fill="#a0c9cb"/><path d="m265.257 136.798-1.729 1.388-4.074-14.469 1.537-1.782z" fill="#75b0b3"/><path d="m201.956 163.848c1.786-.496.1-3.268 1.189-8.102-3.286 6.736-2.832 8.557-1.189 8.102z" fill="#6b1523"/><path d="m206.315 152.158c.099-.991-4.855-14.864-15.162-15.46 5.746.199 17.49 15.293 14.086 15.658-3.087.891-10.125 3.865-7.35 6.541 2.179 1.288 2.676-5.252 7.712-6.491 7.613 1.469 12.397-6.566 17.358-3.123-4.681-5.838-8.936 3.567-16.648 2.875z" fill="#6b1523"/><path d="m219.322 149.745c.514-1.065 2.378-.66 3.893-2.602.749-.958 1.579-.337 2.811-.369 2.569-.071 4.241 4.994 2.896 6.917-.742 1.058-4.575 2.161-6.034 2.531-2.952.741-5.852-5.061-3.566-6.474z" fill="#6c2548"/><path d="m211.468 97.1626c-1.654 1.849 2.25 7.7334 1.647 10.4374-.472 2.115-3.045 1.175-4.362-.262 1.157.046 2.967.741 3.304.131 1.267-2.307-2.566-8.1912-.589-10.3064z" fill="#c44c31"/><path d="m213.051 110.457c-4.167.841-7.471.841-9.483-.323.965.916 3.293 3.177 5.448 3.145 2.154-.032 2.058-.948 2.257-1.849.128-.345.88-.543 1.774-.976z" fill="#be1e2d"/><path d="m201.981 110.407c0-1.025.909-1.384 1.792-1.551-.734.494-.152 1.47-.163 1.509-.802-.455-1.033-.291-1.629.042z" fill="#e57c57"/><path d="m257.357 139.499-4.955-.66.714 14.732 4.56-.039c3.734-.384 4.131-13.462-.319-14.033z" fill="#35602c"/><path d="m256.111 146.043c.475 9.799-6.229 10.125-6.705.323-.475-9.799 6.229-10.125 6.705-.323z" fill="#569d48"/><path d="m233.723 142.48c8.426-1.097 9.778-4.887 10.569-1.849.526 1.309-1.781 2.402-3.172 2.924-.739.273-1.739-.092-2.584-.174-1.867-.181-3.038.937-4.809 1.083-.206-1.051.493-1.743 0-1.981z" fill="#e57c57"/><path d="m239.455 143.974c.281-1.509 9.412-2.974 11.751-3.113 3.006-.177 3.602 10.111.791 10.306-3.935.274-7.477.597-11.452-.653-2.314-.724-3.173-.979-3.212-3.51-.028-1.866 1.249-3.446 2.122-3.03z" fill="#35602c"/><g fill="#ffc399"><path d="m224.872 147.995c6.264-1.789 11.676-7.971 12.815-6.704 1.818 2.019-.905 3.599-1.767 5.813-1.164 2.995 1.757-.06-.671 2.974-1.057 1.32-3.268.298-4.656.298-.926.263-3.105 2.215-4.163 2.477-1.718-.262-3.939-3.403-1.561-4.855z"/><path d="m237.829 140.737c5.398 1.135 8.206-.163 8.649 1.92.302 1.427 2.676 5.597 2.598 7.204-2.874.77-4.173-4.471-5.217-5.259-.71-.536-4.848.312-6.221.127-1.374-.184-2.296-3.651.191-3.992z"/><path d="m241.34 143.736c.954 3.304 3.574 5.242 2.516 6.317-1.412 1.438-2.818 2.339-3.354 2.105-3.293-1.452.536-1.948-.007-2.495s-3.325-3.531-3.9-3.663c.401-1.54-.156-2.104-.504-3.687.351.117 4.773.586 5.252 1.423z"/><path d="m235.846 142.742c1.597-.192 2.427 2.467 2.576 2.974.277.944 2.247 3.01 2.378 3.964.298 2.13-1.785 1.981-2.924 2.428-.941.497-3.319-1.239-1.139-2.626-1.558-.032-5.122-2.495-4.49-3.361.401-.007 1.913-3.972 3.595-3.375z"/><path d="m235.665 143.8c.926 1.849 1.718 6.605 1.455 7.133-.451.905-1.441 1.782-2.516 2.233-1.076.45-1.711-1.573-3.297-3.155 1.32-1.189 2.818-.213 2.775.397-.05.731.131-.529.66-.397-.397-.529-1.473-2.275-1.98-3.304-.724-1.466 1.057-4.227 2.906-2.907z"/><path d="m246.184 119.191c.792 2.907-.312 4.167-.397 5.153-.142 1.651 1.263 2.009 2.246 3.17 1.455 1.717 1.321 3.698 2.509 4.624 3.305-1.455.025-5.441-.322-6.31-.263-.66.056-4.791 3.36-5.054-2.246-2.775-5.415-3.698-7.399-1.586z"/></g><path d="m194.089 114.471c-3.173 1.551-9.806 4.124-11.229 7.531-.998 2.385 9.511 1.849 21.801 8.851-6.342-4.624-16.659-6.686-17.177-8.322-.178-.557 4.525-8.117 6.605-8.06z" fill="#6b1523"/><path d="m181.799 124.511c1.398 1.863 3.832 1.849 7.002 2.644-1.462-.724-7.964 1.395-7.269 0 .263-.529-.276-1.458.263-2.644z" fill="#6b1523"/><path d="m200.235 101.397c.011-.05.77-1.4128 3.677-1.6896 1.129-.1065 3.159.8486 2.992 1.9486-1.679.717-3.148 1.125-6.669-.259z" fill="#f1f2f2"/><path d="m206.911 101.478c-.102-.56-.734-1.256-1.529-1.277-.877-.025-1.725.915-1.739 1.494-.007.255.142.461.372.617 1.14.025 1.984-.269 2.889-.656.011-.061.011-.117.007-.178z" fill="#231f20"/><path d="m206.946 101.446c-.17-1.281-2.519-2.168-4.006-2.1716-2.073 0-2.485 1.9516-3.787 1.2246.294 1.171 1.902 1.547 3.002 1.554-3.879-1.157 3.567-3.8362 4.791-.607z" fill="#231f20"/><path d="m211.784 101.248c1.629.554 3.46-.316 4.067-1.235.986-1.4979-2.715-3.4427-4.067 1.235z" fill="#f1f2f2"/><path d="m213.377 100.729c-.074.27.015.476.203.621 1.008-.191 1.888-.752 2.275-1.338.088-.1344.138-.2728.156-.4076-.54-.976-2.076-.8979-2.634 1.1246z" fill="#231f20"/><path d="m211.749 101.28c.152-1.207.695-2.4634 2.214-3.1448 1.959-.8802 2.562 1.5331 3.23-.4472-.245 2.445-.987 2.459-2.538 3.311 1.704-.592 1.597-3.1761-.621-2.3386-1.771.6708-1.994 1.9196-2.282 2.6196z" fill="#231f20"/><path d="m216.373 96.3679c.862.976-.561-.2839-2.172-.0993-.536.0638-1.402.5855-1.87.6068.922-1.7922 2.771-1.9484 4.042-.5075z" fill="#be1e2d"/><path d="m205.846 96.8963c-5.171-1.2918-5.884.2946-7.807 2.9847 3.73-4.0778 5.863-.9795 8.553-3.2331-.408.039-.788.1703-.746.2484z" fill="#be1e2d"/><path d="m183.626 135.013c.692-2.378 2.75-5.799 3.858-6.012 6.846-1.32 23.494 8.39 28.743 9.777-8.422-2.079-20.907-9.018-28.537-8.127-.976.32-3.468 3.169-4.064 4.362z" fill="#6b1523"/><path d="m240.502 119.855c-.702-2.094-1.966-4.312-1.341-6.736.632-2.459 3.719-3.418 4.692-5.717-2.751-1.189-2.634 3.204-4.114 3.914-.064-1.302-.237-2.527-.216-3.872-2.566 3.379-1.171 8.188.983 12.415z" fill="#642243"/><path d="m218.307 107.37c13.081 1.189 12.088 11.892 20.807 10.505-9.117 2.377-11.694-10.505-20.807-10.505z" fill="#642243"/><path d="m207.209 104.495c0 .394-.99.394-.99 0s.99-.394.99 0z" fill="#c44c31"/><path d="m204.036 105.087c0 .394-.596.394-.596 0 0-.393.596-.393.596 0z" fill="#c44c31"/><path d="m213.65 103.7c0 .525-.791.525-.791 0 0-.526.791-.526.791 0z" fill="#c44c31"/><path d="m215.134 105.287c0 .394-.792.394-.792 0s.792-.394.792 0z" fill="#c44c31"/><path d="m215.73 103.306c0 .394-.791.394-.791 0s.791-.394.791 0z" fill="#c44c31"/><path d="m207.01 106.475c0 .394-.791.394-.791 0s.791-.394.791 0z" fill="#c44c31"/><path d="m234.625 150.004c-.607-.448-.884-1.094-.83-1.935-8.103 1.271-21.66 17.06-43.504 13.451 1.533 1.022 2.907 1.803 4.511 2.303 17.731 2.229 32.792-12.219 39.827-13.819z" fill="#569d48"/><path d="m388.448 112.347h3.401v.112l-7.6 8.765 8.107 11.447v.112h-3.225l-6.656-9.536-3.141 3.627v5.91h-2.632v-20.437h2.631v10.541h.112zm8.838 1.626c0 .509-.186.955-.546 1.316-.36.36-.794.546-1.316.546-.51 0-.956-.186-1.316-.546-.176-.17-.315-.375-.409-.601s-.141-.47-.137-.715c0-.521.186-.956.546-1.316.36-.361.795-.547 1.316-.547.509 0 .956.186 1.316.547.372.373.546.806.546 1.316zm-.533 4.829v13.993h-2.632v-13.993zm8.406 14.217c-1.142 0-2.087-.347-2.844-1.056-.757-.708-1.142-1.688-1.154-2.942v-7.823h-2.459v-2.396h2.459v-4.284h2.631v4.284h3.427v2.396h-3.426v6.966c0 .931.186 1.564.546 1.899.359.336.769.497 1.228.497.212 0 .41-.024.622-.075.21-.049.385-.112.558-.186l.832 2.347c-.707.248-1.502.373-2.42.373zm-83.234-1.317c-1.453-1.056-2.446-2.546-2.992-4.458l3.227-1.317c.324 1.205.895 2.172 1.727 2.943.819.758 1.812 1.142 2.967 1.142 1.08 0 1.986-.274 2.743-.831.758-.56 1.13-1.329 1.13-2.298 0-.893-.335-1.626-.993-2.21-.658-.583-1.813-1.166-3.464-1.751l-1.366-.483c-1.465-.509-2.693-1.241-3.687-2.197s-1.489-2.21-1.489-3.773c0-1.081.297-2.075.881-2.993.583-.919 1.402-1.639 2.458-2.186 1.043-.533 2.223-.806 3.55-.806 1.913 0 3.44.459 4.569 1.39 1.142.932 1.9 1.962 2.284 3.129l-3.077 1.303c-.224-.696-.645-1.304-1.279-1.825-.632-.534-1.44-.795-2.433-.795s-1.837.248-2.52.757-1.019 1.155-1.019 1.95c0 .757.312 1.366.918 1.862.609.483 1.565.956 2.87 1.403l1.366.459c1.874.646 3.314 1.502 4.344 2.546 1.031 1.042 1.54 2.445 1.54 4.196 0 1.427-.36 2.62-1.092 3.575-.724.951-1.688 1.693-2.794 2.148-1.105.462-2.291.699-3.488.695-1.814 0-3.44-.521-4.88-1.576zm14.886-17.357c-.213-.208-.381-.457-.494-.732-.114-.276-.169-.571-.164-.869 0-.634.224-1.168.658-1.602.208-.213.457-.381.733-.495.275-.113.571-.168.868-.163.634 0 1.168.224 1.601.658.436.434.659.968.659 1.601 0 .634-.224 1.168-.658 1.601-.207.213-.457.382-.732.495-.275.114-.571.17-.869.164-.633-.013-1.167-.223-1.602-.658zm-.075 2.906h3.352v15.543h-3.352zm10.64 15.456c-.608-.223-1.104-.521-1.489-.882-.869-.869-1.317-2.06-1.317-3.562v-8.058h-2.718v-2.956h2.718v-4.381h3.352v4.396h3.775v2.955h-3.775v7.312c0 .831.162 1.428.485 1.763.31.41.832.608 1.59.608.347 0 .645-.049.918-.137.261-.086.546-.235.856-.446v3.265c-.67.31-1.478.459-2.433.459-.669.006-1.333-.107-1.962-.336zm9.2-.495c-1.2-.697-2.181-1.717-2.831-2.943-.683-1.254-1.018-2.657-1.018-4.221 0-1.491.336-2.856.993-4.134.659-1.268 1.578-2.284 2.757-3.03 1.179-.745 2.52-1.131 4.022-1.131 1.565 0 2.918.349 4.072 1.032 1.127.673 2.036 1.655 2.62 2.83.596 1.205.895 2.546.895 4.061 0 .285-.026.644-.088 1.067h-11.919c.125 1.44.634 2.558 1.54 3.339.869.769 1.994 1.185 3.154 1.168.956 0 1.788-.212 2.483-.658.709-.439 1.291-1.055 1.688-1.788l2.831 1.341c-.733 1.279-1.689 2.284-2.868 3.016-1.18.733-2.595 1.093-4.234 1.093-1.527.024-2.892-.323-4.097-1.042zm8.095-9.014c-.046-.576-.224-1.132-.522-1.627-.31-.534-.769-.993-1.39-1.352-.62-.361-1.377-.547-2.273-.547-1.079 0-1.985.323-2.731.955-.744.634-1.254 1.503-1.539 2.571z" fill="#5f6368"/><g clip-path="url(#g)" clip-rule="evenodd" fill-rule="evenodd"><path d="m285.678 116.841 3.865 2.956c-.227.689-.342 1.41-.341 2.136 0 .747.12 1.465.341 2.136l-3.865 2.955c-.778-1.584-1.18-3.326-1.177-5.091 0-1.831.424-3.559 1.177-5.092z" fill="#fbbc05"/><path d="m289.543 119.797-3.865-2.956c.948-1.925 2.417-3.546 4.24-4.678 1.824-1.131 3.929-1.727 6.075-1.721 2.925 0 5.537 1.097 7.574 2.873l-3.343 3.343c-1.149-.941-2.612-1.515-4.231-1.515-3.014 0-5.557 1.945-6.45 4.654z" fill="#ea4335"/><path d="m285.677 127.02 3.863-2.961c.446 1.359 1.31 2.541 2.469 3.379s2.554 1.287 3.984 1.284c3.186 0 5.588-1.619 6.163-4.44h-6.163v-4.439h10.707c.157.679.261 1.41.261 2.089 0 7.313-5.223 11.491-10.968 11.491-2.147.006-4.252-.59-6.076-1.722s-3.293-2.754-4.24-4.681z" fill="#34a853"/><path d="m303.483 130.561-3.67-2.84c1.2-.757 2.035-1.924 2.343-3.438h-6.163v-4.44h10.707c.157.679.261 1.411.261 2.09 0 3.745-1.37 6.668-3.478 8.628z" fill="#4285f4"/></g></svg>