<svg viewBox="0 0 54 24" fill="none" xmlns="http://www.w3.org/2000/svg">
<path d="M17.8536 5.72015C13.6808 5.72015 12.0121 8.51784 12.0121 11.6334C12.0121 14.7489 13.6569 17.6692 17.8536 17.6692C22.0502 17.6692 23.6854 14.7391 23.6778 11.8232C23.668 8.27159 21.8695 5.71907 17.8536 5.71907V5.72015ZM15.3256 11.8091C15.4274 7.64132 18.6317 7.64458 19.703 9.13834C20.6791 10.4987 20.8793 15.1514 17.8536 15.1177C16.4608 15.1025 15.3668 14.162 15.3256 11.8091ZM51.6972 14.7782V8.73914H53.8582V6.11719H51.6972V2.95067H48.3598V6.11719H46.6662V8.73914H48.3598V14.4354C48.3598 17.6735 50.6193 19.5968 53.0033 19.995L54 17.3144C52.6094 17.1387 51.7101 16.1006 51.6972 14.7782ZM34.8576 13.8214V9.28153C34.8576 9.11556 34.8468 8.96043 34.8306 8.80856C34.5416 5.14087 29.3278 5.14847 25.2902 6.55653L26.4568 8.90294C29.0864 7.65543 30.6599 7.97653 31.2096 8.5916C31.2237 8.60788 31.2378 8.62306 31.2508 8.64042C31.2518 8.64259 31.254 8.64476 31.2551 8.64693C31.5354 9.02552 31.4683 9.62216 31.4683 10.0919C28.0324 10.0919 24.3747 10.5475 24.3747 14.3128C24.3747 17.1745 27.9642 19.0154 31.715 16.2882L32.2712 17.629H35.4864C35.1996 16.0539 34.8554 14.7044 34.8554 13.8214H34.8576ZM31.4953 13.7964C28.8516 16.7514 26.4308 13.97 28.91 12.7561C29.6394 12.5077 30.6307 12.4969 31.4953 12.4969V13.7964ZM39.9871 9.03745C39.9871 7.91903 41.7791 7.39616 44.6057 8.68598L45.5829 6.31462C41.7791 5.16582 36.5847 5.06277 36.5501 9.03745C36.5339 10.9424 37.7578 11.9675 39.5185 12.6216C40.7381 13.0751 42.4998 13.3094 42.4944 14.2792C42.4879 15.5473 39.7576 15.7415 37.273 14.0362L36.2688 16.6082C39.6581 18.294 45.9606 18.3407 45.9281 14.1175C45.8946 9.94217 39.9881 10.6571 39.9881 9.03854L39.9871 9.03745Z" fill="currentColor"/>
<path d="M10.6377 0L5.78308 13.471L3.45859 6.19635H0L3.87198 16.1309C4.20204 16.977 4.20204 17.9154 3.87198 18.7615C3.43911 19.8702 2.71948 20.8183 0.964207 21.0548V24C4.38168 24 6.22893 21.9009 7.87707 17.3014L14.3365 0H10.6377Z" fill="currentColor"/>
</svg>
