<svg viewBox="0 0 252 60" fill="none" xmlns="http://www.w3.org/2000/svg"><path fill-rule="evenodd" clip-rule="evenodd" d="M36.962 29.643c0-3.42 1.83-6.49 6.405-6.49 4.403 0 6.375 2.8 6.386 6.698.008 3.2-1.785 6.416-6.386 6.416-4.602 0-6.405-3.072-6.405-6.624zm8.432-2.74c-1.173-1.64-4.688-1.64-4.8 2.932.046 2.582 1.245 3.614 2.773 3.63 3.317.039 3.093-5.067 2.027-6.562z" fill="url(#paint0_linear_5038_4649)"/><path d="M80.475 33.094v-6.63h2.369v-2.875h-2.369v-3.475h-3.659v3.475H74.96v2.877h1.856v6.258c0 3.552 2.477 5.665 5.092 6.102L83 35.877c-1.524-.193-2.51-1.332-2.525-2.783z" fill="url(#paint1_linear_5038_4649)"/><path fill-rule="evenodd" clip-rule="evenodd" d="M62.008 27.062v4.981c0 .7.196 1.67.425 2.803.089.436.182.897.27 1.376H59.18l-.611-1.472c-4.117 2.994-8.052.974-8.052-2.168 0-4.131 4.01-4.632 7.776-4.632l.003-.249c.01-.465.02-.985-.24-1.336v-.007c-.01-.014-.022-.027-.034-.04l-.011-.013c-.602-.675-2.327-1.028-5.21.341l-1.283-2.575c4.428-1.546 10.144-1.555 10.461 2.47.018.174.028.347.029.52zm-6.521 3.81c-2.718 1.331-.064 4.384 2.835 1.14v-1.425c-.949 0-2.035.012-2.835.284z" fill="url(#paint2_linear_5038_4649)"/><path d="M67.636 26.794c0-1.227 1.966-1.801 5.065-.386l1.071-2.606c-4.17-1.262-9.866-1.37-9.904 2.992-.016 2.09 1.324 3.216 3.255 3.933 1.337.498 3.269.755 3.263 1.82-.007 1.392-3.001 1.605-5.726-.267l-1.1 2.823c3.715 1.85 10.627 1.901 10.59-2.734-.03-4.583-6.514-3.798-6.514-5.575z" fill="url(#paint3_linear_5038_4649)"/><path d="M35.415 16.875L30.11 31.609l-2.54-7.956h-3.779l4.23 10.866a3.957 3.957 0 0 1 0 2.877c-.473 1.213-1.26 2.25-3.177 2.508v3.221c3.734 0 5.753-2.295 7.554-7.326l7.06-18.924h-4.043z" fill="url(#paint4_linear_5038_4649)"/><circle cx="126" cy="30" r="30" fill="#DCFCE7"/><path d="M117.045 31.25l5 5 12.5-12.5" stroke="#16A34A" stroke-width="3" stroke-linecap="round" stroke-linejoin="round"/><path d="M238.632 23.564h2.267v.075l-5.066 5.844 5.405 7.63v.075h-2.151l-4.437-6.357-2.094 2.419v3.94h-1.754V23.564h1.754v7.027h.074l6.002-7.027zm5.892 1.085c0 .339-.124.637-.364.877a1.19 1.19 0 0 1-.877.364c-.34 0-.638-.124-.877-.364a1.198 1.198 0 0 1-.365-.877c0-.348.124-.637.365-.878.239-.24.53-.364.877-.364.339 0 .637.124.877.364.248.249.364.538.364.878zm-.355 3.22v9.328h-1.755v-9.329h1.755zm5.604 9.477c-.762 0-1.392-.232-1.896-.704-.505-.472-.762-1.126-.77-1.962v-5.215h-1.639v-1.597h1.639v-2.856h1.754v2.856h2.285v1.597h-2.284v4.644c0 .62.124 1.043.364 1.266.24.224.513.332.819.332.141 0 .273-.017.414-.05a2.19 2.19 0 0 0 .373-.124l.554 1.564c-.471.166-1.001.249-1.613.249zm-55.489-.878c-.969-.704-1.631-1.697-1.995-2.972l2.151-.878c.216.803.597 1.448 1.151 1.962.547.505 1.209.761 1.978.761.721 0 1.324-.182 1.829-.554.505-.373.754-.886.754-1.531 0-.596-.224-1.085-.662-1.474-.439-.389-1.209-.777-2.31-1.167l-.91-.323c-.977-.338-1.796-.827-2.459-1.464-.662-.637-.992-1.473-.992-2.515 0-.721.198-1.383.587-1.995.389-.613.935-1.093 1.639-1.458.695-.355 1.482-.537 2.367-.537 1.275 0 2.293.305 3.046.927.761.62 1.266 1.307 1.522 2.086l-2.051.868c-.15-.464-.43-.87-.853-1.217-.421-.356-.96-.53-1.622-.53-.662 0-1.224.166-1.68.505-.455.34-.679.77-.679 1.3 0 .505.207.91.612 1.241.406.323 1.043.638 1.913.935l.911.306c1.249.431 2.209 1.002 2.896 1.698.687.695 1.027 1.63 1.027 2.797 0 .952-.241 1.747-.729 2.383a4.482 4.482 0 0 1-1.862 1.433 5.981 5.981 0 0 1-2.326.463c-1.209 0-2.293-.348-3.253-1.05zm9.924-11.571a1.45 1.45 0 0 1-.439-1.067c0-.423.149-.779.439-1.069a1.444 1.444 0 0 1 1.067-.438c.422 0 .779.149 1.067.438.291.29.439.646.439 1.068 0 .422-.149.778-.438 1.067a1.455 1.455 0 0 1-1.067.44c-.423-.01-.779-.15-1.068-.44zm-.05 1.937h2.234v10.362h-2.234V26.834zm7.093 10.304a2.898 2.898 0 0 1-.993-.588c-.579-.579-.878-1.373-.878-2.375v-5.372h-1.812v-1.97h1.812v-2.92h2.235v2.93h2.517v1.97h-2.517v4.874c0 .555.108.952.323 1.176.207.273.555.405 1.06.405.231 0 .43-.033.612-.091.174-.058.364-.157.571-.298v2.177c-.447.207-.985.306-1.622.306a3.735 3.735 0 0 1-1.308-.224zm6.133-.33a4.946 4.946 0 0 1-1.887-1.962c-.455-.836-.679-1.771-.679-2.814 0-.994.224-1.904.662-2.756a5.157 5.157 0 0 1 1.838-2.02c.786-.497 1.68-.754 2.682-.754 1.043 0 1.945.232 2.714.688a4.572 4.572 0 0 1 1.747 1.887c.397.803.596 1.697.596 2.707 0 .19-.017.43-.058.711h-7.946c.083.96.423 1.706 1.026 2.227.58.512 1.33.79 2.103.778.637 0 1.192-.141 1.655-.439a3.185 3.185 0 0 0 1.126-1.192l1.887.894a5.577 5.577 0 0 1-1.912 2.011c-.786.489-1.73.729-2.823.729-1.018.016-1.927-.215-2.731-.695zm5.397-6.01a2.497 2.497 0 0 0-.348-1.084 2.486 2.486 0 0 0-.927-.902c-.413-.24-.918-.364-1.515-.364-.72 0-1.324.215-1.821.637-.496.422-.836 1.001-1.026 1.713h5.637z" fill="#5F6368"/><g clip-path="url(#clip0_5038_4649)" fill-rule="evenodd" clip-rule="evenodd"><path d="M170.119 26.56l2.576 1.97a4.563 4.563 0 0 0 0 2.85l-2.576 1.97a7.667 7.667 0 0 1-.785-3.395c0-1.22.283-2.373.785-3.394z" fill="#FBBC05"/><path d="M172.696 28.53l-2.577-1.97a7.64 7.64 0 0 1 6.877-4.266c1.95 0 3.691.731 5.049 1.915l-2.229 2.229a4.428 4.428 0 0 0-2.82-1.01 4.518 4.518 0 0 0-4.3 3.102z" fill="#EA4335"/><path d="M170.118 33.347l2.576-1.975a4.514 4.514 0 0 0 4.301 3.11c2.124 0 3.726-1.08 4.109-2.96h-4.109v-2.96h7.139c.104.452.174.94.174 1.392 0 4.875-3.482 7.661-7.313 7.661a7.637 7.637 0 0 1-6.877-4.268z" fill="#34A853"/><path d="M181.988 35.707l-2.446-1.893c.8-.505 1.357-1.283 1.562-2.293h-4.109v-2.96h7.138c.105.453.175.94.175 1.393 0 2.497-.914 4.446-2.32 5.753z" fill="#4285F4"/></g><defs><linearGradient id="paint0_linear_5038_4649" x1="49.753" y1="36.267" x2="49.753" y2="23.152" gradientUnits="userSpaceOnUse"><stop stop-color="#570732"/><stop offset=".04" stop-color="#610B39"/><stop offset=".15" stop-color="#79164B"/><stop offset=".29" stop-color="#8C1E59"/><stop offset=".44" stop-color="#9A2463"/><stop offset=".63" stop-color="#A22768"/><stop offset="1" stop-color="#A4286A"/></linearGradient><linearGradient id="paint1_linear_5038_4649" x1="82.999" y1="38.82" x2="82.999" y2="20.114" gradientUnits="userSpaceOnUse"><stop stop-color="#570732"/><stop offset=".04" stop-color="#610B39"/><stop offset=".15" stop-color="#79164B"/><stop offset=".29" stop-color="#8C1E59"/><stop offset=".44" stop-color="#9A2463"/><stop offset=".63" stop-color="#A22768"/><stop offset="1" stop-color="#A4286A"/></linearGradient><linearGradient id="paint2_linear_5038_4649" x1="62.701" y1="36.222" x2="62.701" y2="23.113" gradientUnits="userSpaceOnUse"><stop stop-color="#570732"/><stop offset=".04" stop-color="#610B39"/><stop offset=".15" stop-color="#79164B"/><stop offset=".29" stop-color="#8C1E59"/><stop offset=".44" stop-color="#9A2463"/><stop offset=".63" stop-color="#A22768"/><stop offset="1" stop-color="#A4286A"/></linearGradient><linearGradient id="paint3_linear_5038_4649" x1="74.149" y1="36.275" x2="74.149" y2="23.046" gradientUnits="userSpaceOnUse"><stop stop-color="#570732"/><stop offset=".04" stop-color="#610B39"/><stop offset=".15" stop-color="#79164B"/><stop offset=".29" stop-color="#8C1E59"/><stop offset=".44" stop-color="#9A2463"/><stop offset=".63" stop-color="#A22768"/><stop offset="1" stop-color="#A4286A"/></linearGradient><linearGradient id="paint4_linear_5038_4649" x1="25.434" y1="16.169" x2="25.434" y2="36.914" gradientUnits="userSpaceOnUse"><stop stop-color="#77B227"/><stop offset=".47" stop-color="#75B027"/><stop offset=".64" stop-color="#6EAB27"/><stop offset=".75" stop-color="#63A027"/><stop offset=".85" stop-color="#529228"/><stop offset=".93" stop-color="#3C8028"/><stop offset="1" stop-color="#246B29"/></linearGradient><clipPath id="clip0_5038_4649"><path fill="#fff" transform="translate(169.334 22)" d="M0 0h14.973v15.909H0z"/></clipPath></defs></svg>