<svg fill="none" viewBox="0 0 252 60" xmlns="http://www.w3.org/2000/svg" xmlns:xlink="http://www.w3.org/1999/xlink"><linearGradient id="a"><stop offset="0" stop-color="#570732"/><stop offset=".04" stop-color="#610b39"/><stop offset=".15" stop-color="#79164b"/><stop offset=".29" stop-color="#8c1e59"/><stop offset=".44" stop-color="#9a2463"/><stop offset=".63" stop-color="#a22768"/><stop offset="1" stop-color="#a4286a"/></linearGradient><linearGradient id="b" gradientUnits="userSpaceOnUse" x1="49.556" x2="49.556" xlink:href="#a" y1="36.267" y2="23.152"/><linearGradient id="c" gradientUnits="userSpaceOnUse" x1="82.801" x2="82.801" xlink:href="#a" y1="38.819" y2="20.113"/><linearGradient id="d" gradientUnits="userSpaceOnUse" x1="62.504" x2="62.504" xlink:href="#a" y1="36.222" y2="23.113"/><linearGradient id="e" gradientUnits="userSpaceOnUse" x1="73.951" x2="73.951" xlink:href="#a" y1="36.276" y2="23.046"/><linearGradient id="f" gradientUnits="userSpaceOnUse" x1="25.237" x2="25.237" y1="16.169" y2="36.914"><stop offset="0" stop-color="#77b227"/><stop offset=".47" stop-color="#75b027"/><stop offset=".64" stop-color="#6eab27"/><stop offset=".75" stop-color="#63a027"/><stop offset=".85" stop-color="#529228"/><stop offset=".93" stop-color="#3c8028"/><stop offset="1" stop-color="#246b29"/></linearGradient><clipPath id="g"><path d="M169.334 22h14.973v15.909h-14.973z"/></clipPath><path clip-rule="evenodd" d="M36.765 29.643c0-3.42 1.83-6.49 6.405-6.49 4.402 0 6.375 2.8 6.386 6.698.008 3.2-1.785 6.416-6.386 6.416-4.602 0-6.405-3.072-6.405-6.624zm8.432-2.74c-1.174-1.64-4.688-1.64-4.8 2.932.046 2.582 1.245 3.614 2.773 3.63 3.316.039 3.092-5.067 2.027-6.562z" fill="url(#b)" fill-rule="evenodd"/><path d="M80.278 33.094v-6.631h2.368v-2.874h-2.368v-3.476h-3.66v3.476h-1.856v2.876h1.857v6.258c0 3.553 2.477 5.665 5.092 6.102l1.092-2.949c-1.524-.192-2.51-1.332-2.525-2.782z" fill="url(#c)"/><path clip-rule="evenodd" d="M61.81 27.062v4.981c0 .7.196 1.67.426 2.803.088.436.182.897.27 1.376h-3.523l-.611-1.472c-4.118 2.994-8.053.974-8.053-2.168 0-4.131 4.01-4.632 7.777-4.632l.003-.249c.01-.465.02-.985-.24-1.336v-.007l-.034-.04-.011-.013c-.602-.675-2.327-1.028-5.21.341l-1.283-2.575c4.428-1.546 10.143-1.555 10.46 2.47.019.174.028.347.03.52zm-6.52 3.81c-2.718 1.331-.064 4.384 2.835 1.14v-1.425c-.949 0-2.035.012-2.835.284z" fill="url(#d)" fill-rule="evenodd"/><path d="M67.439 26.794c0-1.227 1.966-1.8 5.064-.386l1.072-2.605c-4.17-1.262-9.866-1.371-9.904 2.991-.017 2.091 1.324 3.216 3.255 3.934 1.337.497 3.268.754 3.262 1.82-.007 1.391-3 1.604-5.725-.268l-1.101 2.823c3.716 1.85 10.627 1.902 10.59-2.734-.03-4.583-6.513-3.798-6.513-5.575z" fill="url(#e)"/><path d="M35.218 16.875l-5.305 14.734-2.54-7.956h-3.779l4.23 10.866a3.956 3.956 0 0 1 0 2.877c-.474 1.213-1.26 2.25-3.177 2.508v3.221c3.734 0 5.753-2.295 7.554-7.326l7.06-18.924z" fill="url(#f)"/><path d="M124.088 57.357c15.427 0 27.934-12.506 27.934-27.933S139.515 1.49 124.088 1.49 96.155 13.997 96.155 29.424s12.506 27.933 27.933 27.933z" fill="#f0ecf0"/><path d="M122.68 23.422c5.075-5.662 3.282-.196 13.081-2.26 2.792-.587 7.802-1.905 9.067.833 1.427 3.092 4.014 3.471 3.211 5.47-1.412 3.512-6.46 4.52-7.887.556-1.819-1.232-8.98 2.24-11.167 2.775-.813.198-.868-2.038-1.675-2.168-.529-.085-.462-.17-.939-.575-4.613-3.918-4.904-3.277-5.22-4.126.482-.115.95-.396 1.531-.503z" fill="#9e005d"/><path d="M145.465 25.27c-1.744-.556-3.859.788-3.015 2.668.204.456 1.233 2.392 1.665 2.536 1.633.552 5.651-2.227 1.35-5.204z" fill="#6c2548"/><path d="M145.972 26.652c-.452-.226-2.526.313-2.3 1.188.281 1.084.758 1.655 1.395 1.998 1.627.875 1.365 2.531 3.684 2.5 1.12-.015 4.022-1.557 4.118-.456.157 1.823.464 3.564.792 3.17.792-.951 1.109-1.03 1.188-4.2.021-.887-2.14-1.506-3.013-2.854-.473-.733-2.932-.714-5.866-1.348z" fill="#ffc399"/><path d="M109.348 16.345c-2.102-1.797-8.454 4.23-7.974 6.137.479-.51 1.186-1.505 1.973-1.316-2.719 1.838-3.191 6.484-1.784 9.259.158-.735.439-1.525.897-2.123-.778 3.037.466 8.256 4.271 10.873-.26-1.915-1.201-5.028.477-6.267 2.485-1.836 5.651-2.398 7.153-5.43 3.716-7.506-7.675-12.913-5.013-11.135z" fill="#be1e2d"/><path d="M111.503 27.227c-1.65.136-7.152 11.633.475 20.361 1.067 1.223 2.372 3.57 3.92 3.78 3.256.443 11.848-1.812 15.059-3.188 12.146-5.202 1.267-10.842-.308-16.792-1.421-5.366-1.725-8.762-7.928-8.997-2.92-.11-11.15 1.768-11.95 5.058-.224.108-.109-.08.732-.224z" fill="#9e005d"/><path d="M123.196 23.817c3.828 1.233 6.256 5.375 7.755 8.771-1.38-4.316-2.059-8.262-7.932-8.95-.013-.072.419-.694.177.18z" fill="#6c2548"/><path d="M127.718 23.362c1.071.893 1.961 2.794 2.438 3.984.522 1.306.088 3.329.571 4.638-1.292-3.232-1.307-5.14-3.007-8.622z" fill="#6c2548"/><path d="M125.772 33.468c-1.058.375-2.898.677-4.103 1.248-2.187 1.037-4.936-1.725-7.313-1.188-.858.194-3.845-.873-4.082-1.942-.293-1.325-.745-1.352-.078-2.22 2.619-3.402 2.815-1.566 2.932-6.896.019-.886-.2-1.312.079-2.061.279-.75.21.017 1.09-.143.879-.16 2.996-1.05 3.869-.652 1.533.699.513 3.972 1.61 5.107 1.139 1.177 3.841-.028 4.989 1.128 1.439 1.45 1.324 6.848 1.005 7.621z" fill="#ffc399"/><path d="M123.021 27.88c.285-.57.221-1.564-.026-2.586-1.175-.034-2.504.164-3.217-.575-.65-.671-.558-2.085-.692-3.277a3.502 3.502 0 0 1-.607-.122c-1.263-.372-2.67-.835-4.069-1.077-.039.008-.077.017-.111.023-.405.075-.605-.057-.733-.143l-.213-.017c-.04.05-.085.141-.144.303-.271.728-.073 1.156-.079 1.995 1.386 3.614 6.644 11.98 9.895 5.477z" fill="#e57c57"/><path d="M116.06 33.648c7.293 3.488 11.969 5.47 13.635 9.989-1.031-4.757-.893-8.622-4.459-15.161.675 7.425-8.761 5.37-9.176 5.172z" fill="#f1f2f2"/><path d="M129.697 43.002c.157-3.884-1.057-18.564-4.44-20.057-1.056-.466-10.726 1.174-7.768 1.348 4.625.27 7.293 2.775 7.928 4.28.792 1.11 3.081 8.599 4.28 14.427z" fill="#6c2548"/><path d="M129.616 43.001c.157-3.884-1.93-18.724-5.311-20.214-1.056-.467-9.776 1.333-6.819 1.505 4.626.27 7.294 2.775 7.928 4.28.792 1.11 3.003 8.599 4.202 14.427z" fill="#9e005d"/><path d="M126.288 12.877c.555 2.457-.397 1.902.078 3.488.375 1.25.729 2.066.635 3.488-.241 3.656-2.983 6.876-3.086 6.978-1.45 1.45-3.132 1.295-5.476.077-4.364-2.266-6.898-4.994-7.532-11.823-.471-5.072 3.763-8.847 9.014-8.313 3.249.332 5.449 2.04 6.367 6.103z" fill="#ffc399"/><path d="M114.461 9.389c3.944-.179 3.02 1.925 6.539 2.973 2.794.832 5.707-1.012 5.173 3.745-.475 4.212 9.401-4.116 1.46-7.591-1.269-.556-1.137-1.414-2.378-3.013-2.598-3.343-11.337-7.055-15.061-.873-.944 1.567 2.657 4.101 4.265 4.757z" fill="#be1e2d"/><path d="M114.282 9.508c.912 3.597-.161 4.23-.653 5.47-.541 1.364-.803 2.65-1.487 3.925-.992-2.07-2.184-.317-5.276-4.36-5.537-7.24 9.782-16.915 7.416-5.035z" fill="#be1e2d"/><path d="M112.336 19.497c.617-1.633-4.029-4.43-3.599-1.043.209 1.642 1.516 2.574 2.913 3.151 2.294.946 1.195-1.675.569-3.057l.119.952z" fill="#ffc399"/><path d="M113.168 14.026c.309 1.25-.03 6.814 1.785 8.997-3.152-1.714-2.37-5.13-1.785-8.997z" fill="#be1e2d"/><path d="M112.691 15.573c-.728.415-1.441 3.388-.323 5.705.006-.021.483-4.91.323-5.705z" fill="#be1e2d"/><path d="M117.012 34.121c-2.877-1.74-5.509-2.068-4.725-7.2.867-1.004.747-1.897.807-3.383-1.109.396-4.086 1.948-5.434 2.655-1.985 1.04-4.361 3.41-2.458 5.39.703.73-1.758 1.923.937 6.759 1.506-2.617 2.711-4.855 3.661-4.934 3.33-.079 4.431 1.667 7.372 2.378 7.214 1.744 11.654 6.501 12.525 8.164.036-1.051-1.269-4.914-12.683-9.829z" fill="#9e005d"/><path d="M108.45 34.202c-8.258 11.429 2.709 12.432 5.351 22.998.119.48.656 1.17 1.503 1.322 5.051.903 10.884-1.744 15.862-6.92 1.408-1.463.247-4.902-1.546-5.648-2.319-1.546-7.378 4.023-13.006 2.992-.677-1.02-1.505-13.477-8.164-14.744z" fill="#9e005d"/><path d="M155.213 40.425l-.27 9.99-6.399-1.368-.094-9.712z" fill="#a0c9cb"/><path d="M155.48 50.235l-.509.238c.085-11.096-.171-10.3.509-10.166v9.93z" fill="#75b0b3"/><path d="M150.965 40.959c2.473.277 3.211 6.54 2.498 9.037-.119-.12-3.567-.833-3.686-.713-1.718-1.964-.992-8.57 1.188-8.324z" fill="#66a7ab"/><path d="M154.983 40.783s.153-1.902 0-2.02c-.153-.12-6.641-.655-6.641-.655-.776 1.706-.431 1.282 6.641 2.675z" fill="#467d7f"/><path d="M152.371 30.436l2.881 8.443-6.729-1.15-3.307-9.016z" fill="#67a8ac"/><path d="M152.988 32.518l.101.02-.716-2.1-7.155-1.725.656 1.786z" fill="#55989b"/><path d="M148.766 37.79l-1.127.713-2.679-8.541 1.25-.893z" fill="#519093"/><path d="M152.794 30.08l-.922 1.069-6.552-1.01.869-1.011z" fill="#b1d3d4"/><path d="M155.648 39.988c0 1.052-1.046 1.052-1.046 0s1.046-1.052 1.046 0z" fill="#a0c9cb"/><path d="M147.639 38.502c1.501-.95.058-.881 7.713.317-1.38 1.189-.053 1.07-7.713-.317z" fill="#a0c9cb"/><path d="M155.354 38.879l-1.037.832-2.444-8.681.922-1.07z" fill="#75b0b3"/><path d="M117.374 55.11c1.071-.299.06-1.962.713-4.862-1.972 4.042-1.699 5.134-.713 4.862z" fill="#6b1523"/><path d="M119.989 48.095c.059-.594-2.913-8.918-9.097-9.276 3.448.12 10.494 9.176 8.452 9.395-1.853.535-6.076 2.32-4.41 3.925 1.307.773 1.605-3.152 4.627-3.895 4.567.882 7.438-3.94 10.415-1.874-2.809-3.503-5.362 2.14-9.989 1.725z" fill="#6b1523"/><path d="M127.793 46.647c.309-.639 1.427-.396 2.336-1.56.449-.576.948-.203 1.687-.222 1.541-.043 2.544 2.996 1.737 4.15-.445.635-2.745 1.297-3.62 1.518-1.771.445-3.511-3.036-2.14-3.884z" fill="#6c2548"/><path d="M123.081 15.099c-.993 1.109 1.35 4.64.988 6.262-.284 1.27-1.827.705-2.617-.157.694.027 1.78.445 1.982.078.76-1.384-1.539-4.914-.353-6.183z" fill="#c44c31"/><path d="M124.031 23.074c-2.5.504-4.483.504-5.69-.194.579.55 1.976 1.906 3.268 1.887 1.293-.02 1.235-.569 1.355-1.11.076-.206.528-.326 1.064-.586z" fill="#be1e2d"/><path d="M117.389 23.045c0-.616.545-.83 1.075-.93-.441.295-.092.88-.098.904-.481-.272-.62-.174-.977.026z" fill="#e57c57"/><path d="M150.614 40.5l-2.973-.396.428 8.839 2.736-.024c2.241-.23 2.479-8.077-.191-8.42z" fill="#35602c"/><path d="M149.867 44.427c.285 5.88-3.738 6.075-4.023.194-.285-5.88 3.737-6.075 4.023-.194z" fill="#569d48"/><path d="M136.434 42.288c5.055-.658 5.866-2.932 6.341-1.11.315.786-1.069 1.442-1.903 1.755-.443.164-1.044-.055-1.551-.104-1.12-.109-1.822.562-2.885.65-.123-.631.296-1.046 0-1.189z" fill="#e57c57"/><path d="M139.873 43.184c.168-.905 5.647-1.784 7.051-1.867 1.803-.107 2.161 6.066.475 6.184-2.362.164-4.487.357-6.872-.392-1.388-.435-1.904-.588-1.927-2.106-.017-1.12.749-2.068 1.273-1.819z" fill="#35602c"/><g fill="#ffc399"><path d="M131.123 45.597c3.759-1.073 7.006-4.783 7.689-4.023 1.091 1.212-.543 2.16-1.06 3.489-.698 1.797 1.054-.037-.403 1.784-.634.792-1.961.179-2.793.179-.556.157-1.863 1.328-2.498 1.486-1.031-.158-2.364-2.042-.937-2.913z"/><path d="M138.898 41.243c3.239.682 4.923-.098 5.189 1.152.181.856 1.606 3.358 1.559 4.323-1.725.462-2.504-2.683-3.13-3.156-.426-.321-2.909.188-3.733.077-.824-.111-1.378-2.191.115-2.396z"/><path d="M141.004 43.042c.573 1.983 2.144 3.145 1.51 3.79-.848.863-1.691 1.404-2.013 1.263-1.976-.87.322-1.169-.004-1.496-.326-.328-1.995-2.12-2.34-2.198.24-.924-.094-1.263-.303-2.212.211.07 2.865.35 3.152.853z"/><path d="M137.707 42.446c.958-.115 1.457 1.48 1.546 1.784.166.567 1.348 1.806 1.427 2.379.179 1.277-1.071 1.188-1.755 1.456-.564.298-1.991-.743-.683-1.576-.935-.019-3.073-1.497-2.694-2.016.241-.004 1.148-2.383 2.157-2.025z"/><path d="M137.599 43.08c.556 1.11 1.03 3.964.873 4.28-.271.544-.865 1.07-1.51 1.34s-1.026-.943-1.978-1.893c.792-.713 1.691-.128 1.665.239-.03.438.079-.318.396-.239-.238-.317-.884-1.365-1.188-1.982-.434-.88.635-2.536 1.744-1.744zm6.311-14.765c.475 1.744-.187 2.5-.238 3.092-.085.99.758 1.205 1.348 1.901.873 1.031.792 2.22 1.505 2.775 1.983-.873.015-3.264-.193-3.786-.158-.396.034-2.875 2.016-3.032-1.348-1.665-3.249-2.22-4.44-.952z"/></g><path d="M112.653 25.483c-1.903.93-5.883 2.474-6.737 4.518-.599 1.431 5.707 1.11 13.081 5.31-3.805-2.774-9.996-4.01-10.307-4.992-.106-.335 2.715-4.87 3.963-4.836zm-7.374 6.024c.839 1.118 2.3 1.11 4.202 1.586-.878-.434-4.779.837-4.361 0 .157-.317-.167-.875.157-1.586z" fill="#6b1523"/><path d="M116.341 17.639c.007-.03.462-.848 2.206-1.014.678-.064 1.896.509 1.795 1.169-1.007.43-1.888.675-4.001-.155z" fill="#f1f2f2"/><path d="M120.347 17.688c-.062-.337-.441-.754-.918-.767-.526-.015-1.035.55-1.044.897-.004.153.086.276.224.37.684.015 1.19-.162 1.733-.394a.422.422 0 0 0 .005-.106z" fill="#231f20"/><path d="M120.368 17.667c-.102-.768-1.512-1.3-2.404-1.303-1.244 0-1.491 1.171-2.272.735.177.703 1.141.928 1.801.933-2.327-.695 2.14-2.302 2.875-.365z" fill="#231f20"/><path d="M123.27 17.549c.977.332 2.076-.19 2.44-.741.592-.899-1.629-2.066-2.44.74z" fill="#f1f2f2"/><path d="M124.226 17.238a.33.33 0 0 0 .122.373c.604-.115 1.132-.452 1.365-.803a.576.576 0 0 0 .093-.245c-.323-.585-1.245-.539-1.58.675z" fill="#231f20"/><path d="M123.249 17.568c.092-.724.417-1.478 1.329-1.887 1.175-.528 1.537.92 1.938-.268-.147 1.467-.592 1.476-1.523 1.987 1.022-.356.958-1.906-.373-1.403-1.062.402-1.196 1.152-1.369 1.571z" fill="#231f20"/><path d="M126.024 14.621c.517.586-.337-.17-1.304-.06-.321.039-.841.352-1.122.365.554-1.076 1.663-1.17 2.426-.305zm-6.316.317c-3.103-.775-3.531.177-4.685 1.791 2.238-2.446 3.518-.587 5.132-1.94-.245.024-.473.103-.447.15z" fill="#be1e2d"/><path d="M106.375 37.808c.416-1.427 1.651-3.48 2.315-3.607 4.108-.792 14.097 5.034 17.246 5.866-5.053-1.248-12.544-5.41-17.122-4.876-.586.192-2.081 1.901-2.439 2.617z" fill="#6b1523"/><path d="M140.501 28.713c-.421-1.256-1.179-2.587-.805-4.042.379-1.475 2.232-2.05 2.815-3.43-1.65-.713-1.58 1.923-2.468 2.349-.038-.782-.142-1.516-.129-2.324-1.54 2.028-.703 4.913.589 7.45zm-13.317-7.491c7.849.713 7.253 7.135 12.485 6.303-5.471 1.426-7.017-6.303-12.485-6.303z" fill="#642243"/><path d="M120.525 19.497c0 .236-.594.236-.594 0s.594-.237.594 0zm-1.903.355c0 .236-.358.236-.358 0s.358-.236.358 0zm5.768-.832c0 .316-.474.316-.474 0 0-.315.474-.315.474 0zm.89.952c0 .237-.475.237-.475 0s.475-.236.475 0zm.358-1.188c0 .236-.474.236-.474 0 0-.237.474-.237.474 0zm-5.232 1.901c0 .236-.475.236-.475 0s.475-.236.475 0z" fill="#c44c31"/><path d="M136.975 46.802c-.364-.268-.53-.656-.498-1.16-4.862.762-12.996 10.236-26.102 8.07.919.613 1.743 1.082 2.706 1.382 10.638 1.337 19.676-7.332 23.896-8.292z" fill="#569d48"/><path d="M238.632 23.564h2.267v.075l-5.066 5.844 5.405 7.63v.075h-2.151l-4.437-6.357-2.094 2.419v3.94h-1.754V23.563h1.754v7.028h.074zm5.892 1.085c0 .339-.124.637-.364.877s-.529.364-.877.364c-.34 0-.638-.124-.877-.364a1.198 1.198 0 0 1-.365-.877c0-.348.124-.637.365-.878.239-.24.53-.364.877-.364.339 0 .637.124.877.364.248.249.364.538.364.878zm-.355 3.22v9.327h-1.755v-9.328zm5.604 9.477c-.762 0-1.392-.232-1.896-.704-.505-.472-.762-1.126-.77-1.962v-5.215h-1.639v-1.597h1.639v-2.856h1.754v2.856h2.285v1.597h-2.284v4.644c0 .62.124 1.043.364 1.266.24.224.513.332.819.332.141 0 .273-.017.414-.05a2.19 2.19 0 0 0 .373-.124l.554 1.564c-.471.166-1.001.249-1.613.249zm-55.489-.878c-.969-.704-1.631-1.697-1.995-2.972l2.151-.878c.216.803.597 1.448 1.151 1.962.547.505 1.209.761 1.978.761.721 0 1.324-.182 1.829-.554.505-.373.754-.886.754-1.531 0-.596-.224-1.085-.662-1.474-.439-.389-1.209-.778-2.31-1.167l-.91-.323c-.977-.338-1.796-.827-2.459-1.464-.662-.637-.992-1.473-.992-2.515 0-.721.198-1.383.587-1.995.389-.613.935-1.093 1.639-1.458.695-.355 1.482-.538 2.367-.538 1.275 0 2.293.306 3.046.927.761.621 1.266 1.308 1.522 2.087l-2.051.868c-.15-.464-.43-.87-.853-1.217-.421-.356-.96-.53-1.622-.53s-1.224.166-1.68.505c-.455.34-.679.77-.679 1.3 0 .504.207.91.612 1.241.406.323 1.043.638 1.913.935l.911.306c1.249.431 2.209 1.002 2.896 1.698.687.695 1.027 1.63 1.027 2.797 0 .952-.241 1.747-.729 2.383a4.482 4.482 0 0 1-1.862 1.433 5.981 5.981 0 0 1-2.326.463c-1.209 0-2.293-.348-3.253-1.05zm9.924-11.571a1.45 1.45 0 0 1-.439-1.067c0-.423.149-.779.439-1.069a1.444 1.444 0 0 1 1.067-.439c.422 0 .778.15 1.067.44.291.289.439.645.439 1.067 0 .422-.149.778-.438 1.067a1.455 1.455 0 0 1-1.067.44c-.423-.01-.779-.15-1.068-.44zm-.05 1.937h2.234v10.362h-2.234zm7.093 10.304a2.898 2.898 0 0 1-.993-.588c-.579-.579-.878-1.373-.878-2.375v-5.372h-1.812v-1.97h1.812v-2.92h2.235v2.93h2.517v1.97h-2.517v4.874c0 .555.108.952.323 1.176.207.273.555.405 1.06.405.231 0 .43-.033.612-.091.174-.058.364-.157.571-.298v2.177c-.447.207-.985.306-1.622.306a3.735 3.735 0 0 1-1.308-.224zm6.133-.33a4.946 4.946 0 0 1-1.887-1.962c-.455-.836-.679-1.771-.679-2.814 0-.994.224-1.904.662-2.756.439-.845 1.052-1.523 1.838-2.02s1.68-.754 2.682-.754c1.043 0 1.945.232 2.714.688a4.572 4.572 0 0 1 1.747 1.887c.397.803.596 1.697.596 2.707 0 .19-.017.43-.058.711h-7.946c.083.96.423 1.706 1.026 2.227.58.512 1.33.79 2.103.778.637 0 1.192-.141 1.655-.439a3.185 3.185 0 0 0 1.126-1.192l1.887.894a5.577 5.577 0 0 1-1.912 2.011c-.786.489-1.73.729-2.823.729-1.018.016-1.927-.215-2.731-.695zm5.397-6.01a2.497 2.497 0 0 0-.348-1.084 2.486 2.486 0 0 0-.927-.902c-.413-.24-.918-.364-1.515-.364-.72 0-1.324.215-1.821.637-.496.422-.836 1.001-1.026 1.714z" fill="#5f6368"/><g clip-path="url(#g)" clip-rule="evenodd" fill-rule="evenodd"><path d="M170.119 26.56l2.576 1.97a4.563 4.563 0 0 0 0 2.85l-2.576 1.97a7.667 7.667 0 0 1-.785-3.395c0-1.22.283-2.373.785-3.394z" fill="#fbbc05"/><path d="M172.696 28.53l-2.577-1.97a7.64 7.64 0 0 1 6.877-4.266c1.95 0 3.691.731 5.049 1.915l-2.229 2.229a4.428 4.428 0 0 0-2.82-1.01 4.518 4.518 0 0 0-4.3 3.103z" fill="#ea4335"/><path d="M170.118 33.347l2.576-1.975a4.514 4.514 0 0 0 4.301 3.11c2.124 0 3.726-1.08 4.109-2.96h-4.109v-2.96h7.139c.104.452.174.94.174 1.392 0 4.875-3.482 7.661-7.313 7.661a7.637 7.637 0 0 1-6.877-4.268z" fill="#34a853"/><path d="M181.988 35.707l-2.446-1.893c.8-.505 1.357-1.284 1.562-2.293h-4.109v-2.96h7.138c.105.453.175.94.175 1.393 0 2.497-.914 4.446-2.32 5.753z" fill="#4285f4"/></g></svg>