<svg viewBox="0 0 54 24" fill="none" xmlns="http://www.w3.org/2000/svg"><path d="M17.854 5.72c-4.173 0-5.842 2.798-5.842 5.913 0 3.116 1.645 6.036 5.842 6.036 4.196 0 5.831-2.93 5.824-5.846-.01-3.551-1.809-6.104-5.824-6.104v.001zm-2.528 6.09c.101-4.169 3.306-4.165 4.377-2.672.976 1.36 1.176 6.013-1.85 5.98-1.392-.016-2.486-.956-2.527-3.309zm36.371 2.968V8.74h2.161V6.117h-2.16V2.951H48.36v3.166h-1.694V8.74h1.694v5.696c0 3.239 2.26 5.162 4.643 5.56l.997-2.68c-1.39-.176-2.29-1.214-2.303-2.537zm-16.84-.957v-4.54c0-.165-.01-.32-.026-.472-.29-3.668-5.503-3.66-9.54-2.252l1.166 2.346c2.63-1.248 4.203-.926 4.753-.311.014.016.028.031.04.048l.005.007c.28.379.213.975.213 1.445-3.436 0-7.093.455-7.093 4.22 0 2.862 3.59 4.703 7.34 1.976l.556 1.341h3.215c-.286-1.575-.63-2.925-.63-3.808h.002zm-3.362-.025c-2.643 2.955-5.064.174-2.585-1.04.73-.248 1.72-.26 2.585-.26v1.3zm8.492-4.759c0-1.118 1.792-1.64 4.619-.351l.977-2.371c-3.804-1.15-8.998-1.252-9.033 2.722-.016 1.905 1.208 2.93 2.969 3.585 1.22.453 2.98.687 2.975 1.657-.006 1.268-2.736 1.463-5.221-.243l-1.004 2.572c3.39 1.686 9.692 1.733 9.66-2.49-.034-4.176-5.94-3.46-5.94-5.08h-.002zM10.638 0L5.783 13.471 3.46 6.196H0l3.872 9.935c.33.846.33 1.784 0 2.63-.433 1.11-1.153 2.057-2.908 2.294V24c3.418 0 5.265-2.1 6.913-6.699L14.337 0h-3.7z" fill="currentColor"/></svg>