<svg width="256" height="60" viewBox="0 0 256 60" fill="none" xmlns="http://www.w3.org/2000/svg">
<path fill-rule="evenodd" clip-rule="evenodd" d="M36.8579 29.6426C36.8579 26.2228 38.6886 23.1523 43.2629 23.1523C47.6656 23.1523 49.6383 25.9528 49.649 29.851C49.6573 33.0517 47.8645 36.2667 43.2629 36.2667C38.6614 36.2667 36.8579 33.195 36.8579 29.6426ZM45.29 26.9033C44.1166 25.2633 40.602 25.2633 40.4907 29.8352C40.5357 32.4167 41.7353 33.4492 43.2628 33.4658C46.5796 33.5037 46.3558 28.3977 45.29 26.9033Z" fill="url(#paint0_linear_3364_5070)"/>
<path d="M80.3712 33.0943V26.4631H82.7395V23.5892H80.3712V20.1138H76.7122V23.5892H74.8555V26.4655H76.7122V32.7237C76.7122 36.2761 79.1894 38.3886 81.804 38.8255L82.8958 35.877C81.3718 35.684 80.3854 34.5449 80.3712 33.0943Z" fill="url(#paint1_linear_3364_5070)"/>
<path fill-rule="evenodd" clip-rule="evenodd" d="M61.9035 27.0617V32.0434C61.9035 32.7435 62.0997 33.7126 62.3292 34.8457C62.4176 35.2822 62.5109 35.7431 62.5998 36.2222H59.0758L58.4648 34.7503C54.3475 37.7438 50.4126 35.7237 50.4126 32.5822C50.4126 28.4507 54.4221 27.9498 58.1889 27.9498C58.1889 27.8697 58.1905 27.7864 58.1923 27.7013C58.2018 27.2356 58.2123 26.7159 57.952 26.3654C57.9517 26.3631 57.9517 26.3607 57.952 26.3583C57.9412 26.344 57.9298 26.331 57.9182 26.3178C57.9145 26.3136 57.9107 26.3093 57.907 26.305C57.3055 25.6301 55.5802 25.2772 52.6968 26.6461L51.4144 24.0706C55.8419 22.5253 61.5577 22.5158 61.8751 26.5419C61.8932 26.7146 61.9027 26.8881 61.9035 27.0617ZM55.3829 30.8711C52.6653 32.2033 55.319 35.256 58.2178 32.0126V30.5869C57.2693 30.5869 56.1834 30.5988 55.3829 30.8711Z" fill="url(#paint2_linear_3364_5070)"/>
<path d="M67.5321 26.7937C67.5321 25.5669 69.4977 24.9926 72.5966 26.4076L73.6683 23.8025C69.4977 22.5402 63.802 22.4313 63.7641 26.7937C63.7476 28.8849 65.088 30.0098 67.0193 30.7274C68.3562 31.2247 70.2876 31.4817 70.2816 32.5474C70.2745 33.9388 67.281 34.1519 64.5563 32.2798L63.4551 35.1028C67.1709 36.9524 74.0827 37.0045 74.046 32.3686C74.0152 27.786 67.5321 28.5711 67.5321 26.7937Z" fill="url(#paint3_linear_3364_5070)"/>
<path d="M35.311 16.875L30.0061 31.6092L27.4661 23.653H23.6875L27.9173 34.5187C28.2784 35.4438 28.2784 36.471 27.9173 37.3961C27.4436 38.6087 26.6573 39.646 24.7402 39.9041V43.125C28.4738 43.125 30.4928 40.8301 32.2938 35.7987L39.3537 16.875H35.311Z" fill="url(#paint4_linear_3364_5070)"/>
<g clip-path="url(#clip0_3364_5070)">
<path d="M123.582 32.6671C123.583 32.6753 123.583 32.6835 123.582 32.6917L123.228 32.605V32.5944C123.139 32.9624 124.362 34.9757 124.912 35.4914L125.156 35.2218C124.594 34.7086 123.598 32.9214 123.582 32.6683V32.6671ZM128.647 31.7495C128.647 31.7495 127.653 34.064 127.309 34.8445L127.643 34.9886C127.987 34.2093 128.981 31.8983 128.981 31.8983L128.645 31.7542V31.7495H128.647Z" fill="#F4F1F4"/>
<path d="M112.029 24.0263C113.11 23.5154 114.163 22.9247 115.313 22.5673C115.808 22.4044 116.287 22.2005 116.747 21.9591C116.996 22.1431 117.315 22.2462 117.519 22.4794C117.434 22.954 117.175 23.4298 117.297 23.9267C117.408 24.3678 117.616 24.7786 117.905 25.1291C118.203 25.4654 118.682 25.4795 119.095 25.5451C119.239 25.9635 119.383 26.4158 119.748 26.7006C120.232 27.1319 120.91 27.1319 121.518 27.1319C121.787 27.4963 122.034 27.9463 122.51 28.0682C123.022 28.2405 123.548 28.0424 124.004 27.8104C124.344 28.1209 124.689 28.503 125.194 28.4713C125.662 28.5288 126.046 28.2311 126.399 27.9686C126.845 28.1936 127.344 28.4936 127.858 28.3225C128.347 28.2217 128.687 27.8362 129.015 27.4916C129.465 27.5631 129.922 27.7576 130.379 27.6358C130.9 27.4213 131.204 26.9057 131.447 26.4193C131.749 26.342 132.113 26.3525 132.336 26.0982C132.609 25.8299 132.686 25.4431 132.776 25.0857C133.187 24.9287 133.646 24.7658 133.889 24.3697C134.074 23.9314 133.888 23.4626 133.85 23.015C134.08 22.8357 134.366 22.6587 134.41 22.3435C134.532 21.8536 134.37 21.3649 134.167 20.9231C134.668 20.5141 134.653 19.8262 134.417 19.2766C136.657 19.4278 138.908 19.504 141.124 19.8989C143.746 20.3805 145.995 20.7626 151.947 22.756C151.956 22.7595 151.967 22.7642 151.976 22.7665C148.199 13.1324 138.818 6.30957 127.844 6.30957C113.981 6.30957 102.66 17.1977 101.966 30.8878C104.532 28.9448 108.755 25.7455 108.767 25.7385C109.781 25.0353 110.934 24.5877 112.028 24.0228L112.029 24.0263Z" fill="#F0ECF0"/>
<path d="M129.53 44.7773L129.215 44.9602C129.864 46.0817 131.528 48.1032 131.599 48.1887L131.88 47.9602L131.789 47.8454C131.426 47.4001 130.08 45.7242 129.53 44.7773ZM122.738 48.6305L123.043 48.8309V48.8356C123.507 48.1208 124.914 46.0641 124.928 46.0383L124.627 45.8332C124.614 45.859 123.204 47.9192 122.737 48.6305H122.738ZM127.579 46.0278H127.215C127.216 46.4461 127.218 46.8938 127.237 47.3379C127.256 47.8114 127.344 49.8985 127.344 49.8985L127.708 49.8833C127.708 49.8833 127.619 47.7962 127.601 47.3239C127.579 46.8856 127.579 46.4426 127.579 46.0289V46.0278Z" fill="#F4F1F4"/>
<path d="M143.78 40.6616C142.532 40.6475 141.286 40.6628 140.043 40.5749C140.067 40.378 140.069 40.1788 140.051 39.9819C140.079 39.3268 140.02 38.6553 139.738 38.0541C139.403 37.3791 139.032 36.7146 138.515 36.1627C138.088 35.7127 137.546 35.4009 137.04 35.0529C136.484 34.7001 135.791 34.7541 135.169 34.8384C133.905 35.0423 132.698 35.4924 131.505 35.9388C130.653 36.0103 129.871 35.4947 129.031 35.4595C128.485 35.5381 128.241 36.1767 128.462 36.6478C128.532 36.9853 128.807 37.1693 129.096 37.3135C128.759 37.2959 128.421 37.29 128.086 37.29C128.096 37.4494 128.096 37.6076 128.096 37.767C128.085 37.6768 128.076 37.5854 128.064 37.4951C127.019 37.4893 125.973 37.4717 124.929 37.4506C124.746 37.2139 124.568 36.9771 124.382 36.7451C124.022 36.2938 123.581 35.9141 123.081 35.6259C122.308 35.4338 121.538 35.7361 120.827 36.0162C119.125 36.5389 117.641 37.5467 116.085 38.3834C115.732 38.6096 115.309 38.8733 115.281 39.3397C115.238 39.9819 115.287 40.6264 115.429 41.2546C115.493 41.4543 115.571 41.6494 115.663 41.8382C115.077 41.871 114.492 41.9343 113.909 42.0093C112.261 42.2343 110.591 42.2366 108.942 42.4546V42.4605C107.367 42.6609 105.781 42.7394 104.198 42.8378C104.349 43.173 104.508 43.5034 104.672 43.8304C106.072 43.7449 107.473 43.664 108.867 43.4929C110.681 43.2691 112.515 43.2046 114.319 42.8917C114.913 42.7968 115.521 42.7323 116.129 42.6831C116.439 43.2058 116.83 43.7472 117.323 43.9242C117.916 44.1234 118.565 43.8609 119.179 43.6921C119.732 43.5374 119.541 44.3074 121.111 44.1339C121.449 44.0589 121.505 43.2644 121.833 43.1612C122.087 43.1894 122.788 43.9874 123.049 44.0062C123.577 44.0566 124.108 43.9324 124.609 43.7824C124.963 43.6031 125.009 43.1589 124.853 42.8331C125.956 42.8202 127.062 42.7722 128.157 42.6726V42.7241C128.889 42.7394 130.3 42.8085 131.169 42.8261C131.08 43.1155 130.942 43.4249 131.113 43.7062C131.314 43.9945 131.581 44.2886 131.946 44.3437C132.399 44.4832 132.851 44.2886 133.306 44.2687C133.858 44.9191 134.894 44.7128 135.482 44.216C136.059 44.5933 136.836 44.789 137.461 44.4152C138.051 44.0484 138.734 43.8234 139.252 43.3511C139.606 42.8296 139.728 42.2026 139.849 41.5839C141.391 41.7186 142.942 41.66 144.489 41.6929C145.681 41.7011 146.875 41.7069 148.074 41.7011L148.112 42.8812C148.187 44.5535 148.36 43.7859 148.446 45.4558C148.441 46.2164 148.566 46.9676 148.604 47.7258C150.517 45.1694 151.939 42.2802 152.798 39.2049C151.263 39.9303 149.787 40.4389 148.828 40.6768C147.145 40.6991 145.46 40.6628 143.777 40.6628L143.78 40.6616Z" fill="#F0ECF0"/>
<path d="M117.514 22.4842C117.43 22.9635 117.171 23.4346 117.293 23.9315C117.404 24.3726 117.611 24.7834 117.901 25.1339C118.199 25.4702 118.678 25.4843 119.091 25.5499C119.235 25.9682 119.379 26.4206 119.743 26.7054C120.23 27.1308 120.906 27.1308 121.514 27.1366C121.783 27.5011 122.03 27.957 122.506 28.073C123.018 28.2452 123.544 28.0472 124 27.8152C124.335 28.1257 124.685 28.5078 125.19 28.4761C125.658 28.5335 126.041 28.2324 126.395 27.9734C126.84 28.1984 127.34 28.4984 127.854 28.3273C128.34 28.2253 128.683 27.8409 129.011 27.4964C129.461 27.5679 129.918 27.7589 130.375 27.6405C130.896 27.4202 131.2 26.9023 131.442 26.4241C131.745 26.3515 132.109 26.3573 132.332 26.103C132.605 25.8347 132.682 25.4479 132.771 25.0905C133.183 24.9335 133.646 24.7706 133.885 24.3745C134.07 23.9362 133.885 23.4674 133.846 23.0198C134.076 22.8405 134.362 22.6635 134.406 22.3483C134.528 21.8619 134.364 21.3697 134.162 20.9279C134.664 20.5189 134.649 19.8334 134.413 19.2814C134.36 19.1513 134.332 19.013 134.328 18.8724C134.821 18.3673 135.453 17.922 135.665 17.2142C134.969 17.6489 133.948 17.4907 133.445 16.8345C133.357 16.6987 133.306 16.5418 133.298 16.3798C133.22 15.5946 133.2 14.7989 133.144 14.0149C133.032 13.3586 132.96 12.6953 132.932 12.0297C132.655 12.3789 132.394 12.7434 132.117 13.0914C132.314 14.3418 132.306 15.6098 132.251 16.8696C131.942 17.5833 131.232 17.9724 130.744 18.5431C130.368 18.9708 129.893 19.3587 129.731 19.9283C129.515 20.758 129.367 21.6053 129.141 22.4338C129.095 22.6096 128.897 22.6776 128.776 22.7795C127.95 23.2659 127.146 23.7956 126.294 24.2385C125.238 23.8073 124.126 23.5084 123.133 22.9459C122.81 22.8088 122.714 22.449 122.593 22.1525C122.349 21.4304 122.027 20.7371 121.631 20.0853C120.879 19.599 120.027 19.2673 119.265 18.7892C118.875 18.5033 118.465 18.1716 118.332 17.6841C118.01 16.5767 117.682 15.4563 117.628 14.2961C117.28 14.0196 116.924 13.743 116.665 13.3774C117.151 13.3106 117.483 13.7137 117.814 14.0032C118.069 13.6633 118.359 13.3528 118.68 13.0762C119.282 12.993 119.889 12.9262 120.47 12.7328C120.318 12.9625 120.072 13.1793 120.113 13.4817C120.076 13.7395 120.442 14.009 120.638 13.7864C121.071 13.341 121.539 12.884 122.147 12.6918C122.626 12.5699 123.12 12.6918 123.606 12.6262C123.887 12.5125 123.982 12.0918 123.742 11.8891C123.502 11.6863 123.162 11.6875 122.865 11.6219C123.208 11.3687 123.612 11.1754 123.853 10.8097C124.227 10.307 124.243 9.63668 124.62 9.13394C125.129 8.41673 125.447 7.56828 126.087 6.94483C126.532 6.44091 127.181 6.1831 127.824 6.0413C127.76 6.84756 128.084 7.60109 128.356 8.34056C128.929 9.76789 129.934 10.9805 131.23 11.8094C131.513 12.0203 132.012 12.0074 132.081 12.4176C132.352 11.9348 132.81 11.5855 133.348 11.4543L133.479 11.3324C133.854 10.968 134.264 10.5742 134.417 10.0633C134.556 9.44332 133.742 9.35425 133.566 8.84682C133.847 8.04407 133.766 7.16632 133.613 6.34716C133.321 5.15886 132.616 4.10063 131.745 3.25452C131.148 2.83178 130.428 2.61798 129.696 2.64631C128.914 2.63928 128.105 2.69318 127.385 3.03421C126.854 2.4506 126.272 1.85997 125.5 1.6127C124.456 1.29277 123.345 1.12987 122.267 1.31972C120.189 1.46621 118.452 2.80217 117.026 4.219C116.175 5.03698 115.664 6.13739 115.353 7.2589C115.148 8.26908 114.953 9.40816 115.553 10.3281C115.474 10.8215 115.048 11.1203 114.806 11.5246C114.701 12.1762 115.201 12.7094 115.689 13.0633C115.995 13.3071 116.539 13.2918 116.646 13.7383C116.845 14.6958 117.077 15.6497 117.17 16.6247C117.213 17.1239 117.224 17.6431 117.041 18.1177C116.832 18.8748 116.059 19.2802 115.312 19.2849C115.61 19.5662 115.884 19.8756 116.221 20.1146C115.977 20.7545 116.067 21.6205 116.742 21.9592C116.986 22.1443 117.305 22.2475 117.51 22.4807L117.514 22.4842ZM121.997 11.1637C122.221 10.8168 122.513 10.5226 122.734 10.1734C123.053 9.74918 123.238 9.23941 123.585 8.83627C123.516 9.81715 122.848 10.7055 121.997 11.1637ZM121.929 8.38392C122.497 7.74172 123.033 7.06905 123.734 6.56045C123.469 7.73 122.582 8.61479 121.795 9.46793C121.431 9.83239 121.065 10.2402 120.579 10.4406C120.984 9.73043 121.357 8.98159 121.929 8.38744V8.38392Z" fill="#F17523"/>
<path d="M120.789 15.3682C120.931 14.569 121.683 13.8753 122.521 13.969C123.171 13.9608 123.737 14.4553 123.909 15.0636C124.274 14.569 124.784 14.0909 125.428 14.0428C125.881 14.0018 126.222 14.337 126.523 14.6171C126.636 14.3628 126.796 14.1307 126.993 13.9338C127.783 13.3256 129.16 13.6081 129.461 14.6206C129.883 14.5292 130.299 14.4108 130.705 14.2643C131.137 13.6327 131.626 13.0479 132.074 12.4233C132.005 12.0096 131.505 12.0225 131.223 11.8151C129.927 10.9854 128.923 9.77134 128.351 8.34272C128.079 7.60325 127.756 6.84972 127.819 6.04346C127.177 6.18526 126.528 6.44307 126.082 6.94699C125.441 7.5681 125.124 8.41772 124.615 9.1361C124.239 9.63884 124.218 10.3127 123.852 10.8119C123.608 11.1764 123.206 11.3709 122.864 11.624C123.161 11.6897 123.488 11.7037 123.741 11.8912C123.994 12.0787 123.888 12.5135 123.612 12.6213C123.125 12.6834 122.627 12.5651 122.153 12.6869C121.545 12.8803 121.078 13.3373 120.643 13.7815C120.448 14.0042 120.082 13.7346 120.118 13.4768C120.077 13.1745 120.323 12.9577 120.476 12.728C119.895 12.9213 119.286 12.9881 118.686 13.0713C118.365 13.348 118.075 13.6588 117.82 13.9983C118.389 14.4928 118.963 14.9968 119.611 15.3858C119.993 15.4386 120.393 15.387 120.789 15.3706V15.3682ZM126.333 11.1002C127.259 10.5588 128.501 10.4275 129.415 11.0709C129.736 11.1928 129.873 11.6791 129.545 11.883C129.245 12.1268 128.956 11.7916 128.669 11.7119C127.837 11.4904 126.993 11.8338 126.278 12.2358C126.094 12.1373 125.837 12.0166 125.849 11.7705C125.803 11.4483 126.114 11.2666 126.335 11.1002H126.333ZM121.794 9.47595C122.581 8.62515 123.468 7.73802 123.733 6.56847C123.032 7.07473 122.496 7.74622 121.928 8.39194C121.356 8.99078 120.983 9.72908 120.575 10.4463C121.064 10.2482 121.426 9.83806 121.794 9.47595Z" fill="#FCCDA3"/>
<path d="M121.996 11.165C122.847 10.7033 123.515 9.81496 123.577 8.83643C123.23 9.2419 123.046 9.75051 122.726 10.1736C122.513 10.5275 122.22 10.8216 121.996 11.165ZM132.94 12.0263C132.968 12.692 133.039 13.3553 133.152 14.0115C133.209 14.799 133.227 15.5924 133.306 16.3764C133.313 16.5381 133.364 16.6952 133.453 16.8311L133.472 16.7737C134.305 16.5299 134.649 15.6791 134.873 14.9197C135.105 13.8686 134.923 12.7681 134.363 11.8482C134.201 11.5435 133.844 11.2306 133.483 11.3443L133.351 11.4662C133.22 11.6513 133.088 11.8447 132.941 12.0252L132.94 12.0263ZM117.17 16.6307C117.077 15.658 116.845 14.7006 116.646 13.7443C116.546 13.2978 115.996 13.3119 115.689 13.0693C115.501 12.9123 115.359 13.1478 115.242 13.2615C114.933 13.5744 114.872 14.0397 114.819 14.4557C114.716 15.6873 115.168 16.9881 116.136 17.7839C116.386 18.0065 116.72 18.0722 117.041 18.1249C117.224 17.6491 117.213 17.1311 117.17 16.6319V16.6307ZM130.874 14.6608C130.418 14.8248 129.953 14.9631 129.481 15.0744C129.481 15.4787 129.515 15.9041 129.333 16.278C128.98 17.2167 127.51 17.4159 126.901 16.6295C126.57 16.2311 126.401 15.7213 126.43 15.2033C126.143 14.874 125.822 14.3877 125.32 14.485C124.712 14.6233 124.378 15.1987 123.997 15.6405C123.939 16.2428 123.754 16.8874 123.258 17.2706C122.877 17.6128 122.31 17.5589 121.861 17.4053C121.211 17.1546 120.822 16.469 120.792 15.7916C120.387 15.7916 119.982 15.8315 119.576 15.8092C118.811 15.4694 118.289 14.7733 117.614 14.2986C117.668 15.4588 117.996 16.5792 118.318 17.6866C118.451 18.1729 118.861 18.5058 119.251 18.7917C120.014 19.2698 120.865 19.5968 121.617 20.0878C122.012 20.7399 122.335 21.4331 122.579 22.155C122.701 22.4504 122.796 22.8101 123.118 22.9484C124.117 23.5074 125.229 23.8098 126.28 24.241C127.131 23.7957 127.936 23.2683 128.762 22.782C128.895 22.6824 129.086 22.6133 129.127 22.4363C129.354 21.6078 129.502 20.7605 129.717 19.9308C129.877 19.3612 130.355 18.9733 130.73 18.5456C131.216 17.9749 131.928 17.5858 132.237 16.8721C132.292 15.6123 132.3 14.3443 132.103 13.0939C131.783 13.51 131.454 13.9201 131.159 14.3549C131.082 14.4615 131.017 14.6139 130.874 14.6596V14.6608ZM125.552 18.9769C126.07 18.7612 126.554 18.3921 127.133 18.3745C126.709 18.9466 126.112 19.3676 125.431 19.5757C124.831 19.4351 124.28 19.1339 123.838 18.705C124.425 18.5749 124.967 19.0565 125.552 18.9757V18.9769ZM128.929 19.8277C127.81 20.5706 126.281 21.0769 124.672 20.641C124.381 20.5706 124.101 20.3972 124.008 20.1546C125.993 20.8578 127.899 20.1816 129.135 19.1948C129.319 19.0577 129.514 18.9358 129.716 18.8304C129.632 19.2347 129.291 19.5605 128.928 19.823V19.8277H128.929Z" fill="#FCCDA3"/>
<path opacity="0.97" d="M132.078 12.4265C131.629 13.0452 131.141 13.6429 130.709 14.2675C130.303 14.4138 129.887 14.5328 129.465 14.6238C129.472 14.7738 129.477 14.9238 129.48 15.075C129.952 14.9636 130.418 14.8254 130.874 14.6613C131.015 14.6156 131.08 14.4632 131.172 14.3566C131.468 13.9218 131.797 13.5058 132.117 13.0956C132.396 12.7441 132.657 12.3796 132.934 12.028C133.08 11.8472 133.217 11.659 133.344 11.4644C132.806 11.5956 132.348 11.9448 132.077 12.4277L132.078 12.4265ZM120.796 15.7875C120.796 15.6832 120.796 15.4711 120.789 15.3656C120.393 15.3832 119.992 15.4336 119.598 15.389C118.949 15 118.374 14.4961 117.807 14.0015C117.476 13.7121 117.149 13.3089 116.657 13.3757C116.916 13.7402 117.272 14.0191 117.621 14.2945C118.296 14.7691 118.817 15.4652 119.582 15.8051C119.988 15.8332 120.392 15.798 120.798 15.7875H120.796ZM125.432 14.046C124.788 14.0906 124.278 14.5711 123.914 15.0668C123.949 15.2566 123.979 15.4488 124.006 15.641C124.387 15.1992 124.716 14.625 125.329 14.4855C125.836 14.3882 126.152 14.8746 126.439 15.2039C126.46 15.0082 126.492 14.8136 126.532 14.6203C126.221 14.3402 125.881 14.005 125.437 14.046H125.432Z" fill="#847972"/>
<path d="M126.997 13.9369C126.8 14.1344 126.641 14.3658 126.526 14.6201C126.486 14.8135 126.455 15.008 126.433 15.2037C126.404 15.7217 126.572 16.2315 126.905 16.6299C127.513 17.4163 128.98 17.217 129.336 16.2784C129.518 15.9033 129.478 15.4779 129.484 15.0748C129.484 14.9236 129.476 14.7736 129.469 14.6236C129.165 13.6111 127.788 13.3275 126.997 13.9369ZM128.668 15.86C128.669 15.9408 128.606 16.0065 128.526 16.01C128.294 16.2057 127.98 16.2772 127.697 16.0733C127.248 15.6221 127.439 14.7537 127.991 14.476C128.433 14.3295 128.989 14.6811 128.872 15.1826C128.898 15.4276 128.824 15.6713 128.668 15.8612V15.86Z" fill="white"/>
<path d="M128.285 14.8763C128.092 14.9138 128.152 15.3005 128.353 15.2736C128.668 15.3392 128.569 14.7439 128.285 14.8763ZM122.519 13.9704C121.681 13.8767 120.93 14.5716 120.787 15.3697C120.787 15.4751 120.787 15.6873 120.794 15.7916C120.823 16.4689 121.213 17.1545 121.863 17.4053C122.312 17.5588 122.879 17.6115 123.26 17.2705C123.759 16.8861 123.941 16.2416 123.999 15.6404C123.972 15.4482 123.942 15.256 123.907 15.0661C123.736 14.4497 123.168 13.9634 122.518 13.9704H122.519ZM123.204 16.2052C123.215 16.2732 123.182 16.3423 123.122 16.3752C123.093 16.415 123.049 16.4384 123 16.4396C122.863 16.5524 122.691 16.6137 122.513 16.6131C121.697 16.5533 121.654 15.2876 122.308 14.9677C122.451 14.8763 122.622 14.8371 122.79 14.8568C122.959 14.8764 123.116 14.9537 123.234 15.0755C123.33 15.2494 123.377 15.4456 123.372 15.6439C123.366 15.8422 123.308 16.0356 123.204 16.2041V16.2052Z" fill="white"/>
<path d="M122.714 15.3624C122.635 15.5242 122.826 15.8488 123.003 15.646C123.256 15.4937 122.878 15.073 122.714 15.3624ZM128.526 16.0082C128.607 16.0058 128.67 15.939 128.668 15.8582C128.625 15.9121 128.577 15.9625 128.526 16.0082ZM123 16.4394C123.048 16.4382 123.094 16.4148 123.122 16.375C123.183 16.3421 123.216 16.273 123.204 16.205C123.15 16.2941 123.081 16.3738 123.002 16.4394H123Z" fill="white"/>
<path d="M127.134 18.374C126.555 18.3916 126.071 18.7607 125.553 18.9764C124.968 19.0561 124.426 18.5756 123.839 18.7092C124.282 19.1369 124.833 19.4369 125.432 19.5764C126.113 19.3677 126.71 18.9468 127.135 18.3752H127.134V18.374ZM124.012 20.1483C124.104 20.392 124.384 20.5655 124.676 20.6346C126.28 21.0694 127.809 20.5643 128.932 19.8213C129.297 19.5612 129.638 19.233 129.726 18.8264C129.523 18.9318 129.329 19.0537 129.145 19.1908C127.899 20.1741 125.999 20.8502 124.013 20.1483H124.012Z" fill="#DBA378"/>
<path d="M159.567 28.9551C159.045 27.5523 158.812 26.4671 157.604 25.5601C156.562 24.7093 155.239 24.3589 154.047 23.7823C153.384 23.4554 152.673 23.0182 151.976 22.7721C151.967 22.7686 151.957 22.7639 151.947 22.7616C145.995 20.767 143.746 20.385 141.125 19.9045C138.909 19.5096 136.659 19.4322 134.418 19.2822C134.653 19.8318 134.669 20.5198 134.167 20.9287C134.37 21.3705 134.532 21.8592 134.411 22.3491C134.366 22.6643 134.08 22.8413 133.851 23.0206C133.888 23.4682 134.075 23.937 133.889 24.3753C133.646 24.7714 133.186 24.9343 132.776 25.0913C132.687 25.4488 132.611 25.8355 132.337 26.1038C132.114 26.3581 131.751 26.3476 131.447 26.4249C131.203 26.9113 130.901 27.4269 130.38 27.6414C129.923 27.7633 129.465 27.5687 129.015 27.4972C128.687 27.8418 128.347 28.2273 127.859 28.3281C127.344 28.4992 126.845 28.1992 126.4 27.9742C126.047 28.2355 125.663 28.5332 125.195 28.4769C124.69 28.5086 124.344 28.1254 124.004 27.816C123.549 28.048 123.022 28.2461 122.51 28.0738C122.034 27.9519 121.788 27.5019 121.519 27.1375C120.911 27.1375 120.232 27.1375 119.748 26.7062C119.384 26.4214 119.24 25.9691 119.095 25.5507C118.683 25.4851 118.204 25.4722 117.906 25.1347C117.616 24.7843 117.409 24.373 117.298 23.9323C117.176 23.4366 117.435 22.9596 117.519 22.485C117.315 22.2518 116.996 22.1487 116.748 21.9647C116.287 22.2058 115.807 22.4092 115.314 22.5729C114.164 22.9303 113.112 23.521 112.03 24.0319C110.935 24.598 109.782 25.0444 108.769 25.7476C108.757 25.7558 104.533 28.9539 101.968 30.8969L100.044 32.3547C99.4356 32.7884 98.9352 33.345 98.4536 33.9087C97.6028 34.7724 97.1656 35.5693 96.4812 36.5771C95.8543 37.5064 95.7594 38.5037 95.5414 39.617C95.409 40.2252 95.2179 40.8334 95.3246 41.4627C95.4678 42.1521 95.7089 42.8175 96.0406 43.4386C97.6215 43.3694 99.2118 43.2815 100.79 43.1397C101.922 42.9944 103.06 42.9135 104.202 42.8432C105.784 42.7448 107.371 42.6675 108.946 42.4659V42.46C110.594 42.242 112.264 42.2397 113.912 42.0147C114.496 41.9397 115.08 41.8764 115.666 41.8436C115.574 41.6549 115.496 41.4604 115.432 41.26C115.29 40.6322 115.241 39.9872 115.284 39.3451C115.312 38.8799 115.736 38.615 116.088 38.3888C117.645 37.5521 119.128 36.5443 120.831 36.0216C121.541 35.7415 122.311 35.4392 123.085 35.6314C123.585 35.9185 124.027 36.2982 124.385 36.7505C124.572 36.9826 124.75 37.2181 124.933 37.456C125.977 37.4783 127.022 37.5275 128.067 37.5345C128.079 37.6259 128.089 37.6834 128.099 37.7736C128.099 37.6142 128.099 37.456 128.09 37.2966C128.425 37.2966 128.762 37.3025 129.1 37.3201C128.81 37.1771 128.536 36.9931 128.466 36.6544C128.243 36.1833 128.488 35.5458 129.034 35.4661C129.874 35.5013 130.655 36.0169 131.508 35.9454C132.702 35.4989 133.908 35.0489 135.173 34.845C135.795 34.7595 136.488 34.7067 137.043 35.0595C137.549 35.4087 138.091 35.7193 138.518 36.1693C139.035 36.7201 139.406 37.3857 139.742 38.0607C140.023 38.6619 140.083 39.3322 140.055 39.9885C140.072 40.1865 140.07 40.3846 140.047 40.5815C141.289 40.6694 142.536 40.653 143.784 40.6682C145.467 40.6682 147.152 40.7045 148.835 40.6823C149.794 40.4444 151.27 39.9369 152.805 39.2104C153.765 38.7568 154.749 38.2178 155.645 37.606C156.562 37.006 157.515 36.433 158.307 35.6665C158.938 34.9935 159.356 34.1499 159.511 33.2407C159.862 31.8497 159.968 30.3531 159.568 28.9586L159.567 28.9551ZM124.911 35.4919C124.362 34.9763 123.138 32.9641 123.229 32.595V32.6055L123.581 32.6923C123.583 32.6841 123.583 32.6758 123.581 32.6676C123.597 32.9208 124.593 34.7079 125.155 35.2212L124.911 35.4907V35.4919ZM127.643 34.9892L127.309 34.845C127.654 34.0645 128.646 31.75 128.646 31.75V31.7547L128.98 31.8989C128.98 31.8989 127.985 34.2099 127.643 34.9892ZM148.117 42.8831L148.08 41.703C146.881 41.7088 145.687 41.703 144.495 41.6948C142.948 41.662 141.397 41.7206 139.854 41.5858C139.732 42.2045 139.611 42.8315 139.258 43.353C138.74 43.8253 138.057 44.0503 137.467 44.4171C136.841 44.7909 136.064 44.594 135.488 44.2179C134.9 44.7136 133.864 44.921 133.312 44.2706C132.857 44.2917 132.405 44.4862 131.952 44.3456C131.588 44.2905 131.319 43.9964 131.119 43.7081C130.948 43.4257 131.086 43.1175 131.175 42.828C130.306 42.8092 129.011 42.7413 128.28 42.726V42.4401C127.185 42.5397 125.962 42.8221 124.859 42.835C125.016 43.1608 124.969 43.6061 124.615 43.7843C124.112 43.9343 123.583 44.0573 123.055 44.0081C122.794 43.9882 122.093 43.1913 121.839 43.1632C121.511 43.2663 121.454 44.0608 121.117 44.1358C119.547 44.3093 119.738 43.5405 119.184 43.694C118.57 43.8628 117.922 44.1253 117.329 43.9261C116.836 43.7479 116.445 43.2077 116.135 42.685C115.527 42.7354 114.919 42.7999 114.325 42.8936C112.521 43.2065 110.687 43.271 108.873 43.4948C107.48 43.6659 106.078 43.7468 104.678 43.8323C103.482 43.905 102.288 43.9811 101.099 44.1183C101.099 44.1183 100.55 44.1382 100.382 44.1675C99.1567 44.3081 97.9274 44.3749 96.6957 44.4288C96.8246 44.5905 96.9606 44.7441 97.1047 44.8894C97.325 45.0405 99.711 47.6281 103.373 47.8543C104.832 47.9703 105.493 47.8566 106.911 47.4898C111.623 53.9435 119.245 58.1365 127.848 58.1365C127.934 58.1365 128.015 58.1353 128.093 58.133C136.49 58.0556 143.934 53.9856 148.613 47.7277C148.576 46.9707 148.45 46.2183 148.455 45.4577C148.368 43.7878 148.196 44.5554 148.121 42.8831H148.117ZM127.58 46.0285C127.58 46.4421 127.58 46.8863 127.602 47.3234C127.621 47.7968 127.709 49.8828 127.709 49.8828L127.344 49.8981C127.344 49.8981 127.255 47.8097 127.238 47.3375C127.219 46.8933 127.217 46.4456 127.215 46.0273H127.58V46.0285ZM124.629 45.8351L124.93 46.0402C124.916 46.066 123.509 48.1215 123.045 48.8375V48.8328L122.74 48.6324C123.206 47.9211 124.616 45.8609 124.63 45.8351H124.629ZM131.601 48.1894C131.53 48.1039 129.866 46.0824 129.217 44.9609L129.532 44.778C130.082 45.7249 131.428 47.4007 131.791 47.8461L131.882 47.9609L131.601 48.1894Z" fill="#1E9628"/>
<path d="M122.534 38.1933L122.656 38.1522C122.556 38.0573 122.453 37.9659 122.344 37.8804C122.408 37.9835 122.471 38.089 122.534 38.1944V38.1933Z" fill="#2BAD38"/>
<path d="M126.283 12.2367C126.998 11.8289 127.842 11.4913 128.674 11.7128C128.961 11.7925 129.25 12.1218 129.55 11.8839C129.878 11.6847 129.741 11.1984 129.42 11.0718C128.506 10.4284 127.263 10.5597 126.338 11.1011C126.119 11.2675 125.808 11.4492 125.852 11.7714C125.839 12.0175 126.096 12.1382 126.283 12.2367Z" fill="#F17523"/>
<path d="M127.984 14.4736C127.432 14.7525 127.241 15.6208 127.69 16.0709C127.974 16.2748 128.287 16.2033 128.52 16.0076C128.504 16.0087 128.487 16.0087 128.47 16.0076C128.269 16.0345 128.208 15.6431 128.402 15.6103C128.573 15.5306 128.678 15.7169 128.662 15.8634C128.739 15.7696 128.797 15.6613 128.832 15.5448C128.867 15.4282 128.879 15.3059 128.866 15.1849C128.988 14.6786 128.431 14.3341 127.984 14.4736ZM128.349 15.274C128.148 15.3009 128.088 14.9095 128.281 14.8767C128.568 14.7443 128.668 15.3396 128.349 15.274Z" fill="#3E2723"/>
<path d="M128.474 16.002C128.491 16.0032 128.507 16.0032 128.525 16.002C128.578 15.9575 128.624 15.9071 128.667 15.852C128.682 15.7114 128.578 15.5239 128.406 15.6083V15.6036C128.213 15.6411 128.274 16.0278 128.474 16.0009V16.002ZM122.999 16.438C123.079 16.3724 123.148 16.2927 123.201 16.2036V16.1989C123.412 15.8567 123.422 15.4278 123.228 15.0751C123.11 14.9549 122.955 14.8786 122.788 14.859C122.621 14.8394 122.452 14.8776 122.31 14.9673C121.657 15.2872 121.702 16.5481 122.515 16.6126C122.692 16.6126 122.865 16.5517 123.002 16.4392L122.999 16.438ZM122.713 15.361C122.877 15.0715 123.255 15.4923 122.999 15.6446H123.002C122.826 15.8485 122.637 15.5227 122.713 15.361ZM122.833 16.0911C122.853 16.0571 122.876 16.0337 122.9 16.0173C122.876 16.0337 122.855 16.0571 122.836 16.0911C122.774 16.2095 122.873 16.4239 122.991 16.4368C122.866 16.4263 122.772 16.2118 122.833 16.0911ZM159.821 40.2041C157.248 40.34 155.071 40.4478 153.56 40.5123C152.591 40.5545 151.897 40.5779 151.548 40.5791C150.643 40.6388 149.738 40.667 148.833 40.6775C148.576 40.7455 148.313 40.7947 148.05 40.824C148.313 40.7935 148.576 40.7443 148.833 40.6752C147.15 40.6974 145.465 40.6611 143.782 40.6611C142.534 40.647 141.288 40.6611 140.045 40.5744C140.03 40.7166 140.006 40.8575 139.972 40.9963C139.927 41.1885 139.889 41.3853 139.85 41.5834C141.392 41.7182 142.944 41.6596 144.491 41.6924C145.683 41.6924 146.877 41.7064 148.07 41.7064L148.049 40.824L148.077 41.7064H149.076C149.495 41.6912 151.043 41.6139 153.327 41.4978C155.169 41.4041 157.491 41.2846 160.084 41.1486C160.167 41.1439 159.973 40.1947 159.82 40.2029L159.821 40.2041ZM115.666 41.8377C115.08 41.8705 114.495 41.9338 113.911 42.0088C112.264 42.2338 110.594 42.2361 108.945 42.4541C106.234 42.7998 103.492 42.7764 100.782 43.1338C99.2015 43.2756 96.4839 43.3635 94.896 43.4326C95.0847 43.7842 95.2921 44.5999 95.2921 44.5999C96.5238 44.5459 99.1512 44.3069 100.377 44.1674C100.545 44.1393 101.093 44.1182 101.093 44.1182C103.677 43.8205 106.285 43.81 108.867 43.4948C110.681 43.2709 112.515 43.2065 114.319 42.8936C114.92 42.7987 115.524 42.7342 116.13 42.685C116.008 42.4764 115.896 42.2701 115.798 42.0932C115.751 42.0088 115.708 41.9244 115.666 41.8377Z" fill="#3E2723"/>
<path d="M128.102 37.7911V37.7665C128.092 37.6763 128.083 37.6189 128.071 37.5274C127.025 37.5274 125.98 37.4712 124.936 37.4489C125.518 38.2154 126.056 39.0134 126.547 39.8419C126.682 40.0752 126.873 40.3283 126.892 40.6013H126.89C126.897 40.6986 126.88 40.797 126.84 40.8873C126.752 41.1603 126.527 41.2974 126.274 41.3736L126.286 41.3771C126.284 41.3771 126.28 41.3771 126.278 41.376C126.115 41.424 125.95 41.4603 125.782 41.4861C125.368 41.574 125.052 41.2271 124.809 40.9482C124.079 40.033 123.516 38.9548 122.659 38.1509L122.537 38.1919C123.029 38.9841 123.476 39.8033 123.874 40.6459C124.109 41.151 124.663 42.3146 124.863 42.835C125.964 42.8221 127.18 42.5725 128.276 42.474V42.7248C129.006 42.74 130.302 42.8092 131.172 42.8268C131.186 42.7822 131.199 42.7365 131.209 42.6932C131.619 41.0654 131.971 39.4095 132.569 37.8439C131.489 37.8837 130.352 37.8626 129.346 37.429C129.263 37.3927 129.182 37.3517 129.102 37.3071C128.765 37.2896 128.427 37.2872 128.092 37.2837" fill="#3E2723"/>
<path d="M116.106 41.8193C115.959 41.8193 115.812 41.8299 115.665 41.8381C115.707 41.9248 115.75 42.0092 115.797 42.0936C115.895 42.2705 116.006 42.4768 116.129 42.6854L116.477 42.6561C116.325 42.3905 116.202 42.1101 116.108 41.8193H116.106ZM139.855 41.5791C139.891 41.381 139.929 41.1842 139.977 40.992C140.011 40.8537 140.035 40.7119 140.049 40.5701C140.072 40.3755 140.075 40.1798 140.056 39.9853C140.085 39.3302 140.025 38.6587 139.744 38.0575C139.408 37.3837 139.037 36.7204 138.52 36.1661C138.094 35.7161 137.547 35.4044 137.045 35.0563C136.489 34.7036 135.797 34.7575 135.174 34.8418C133.91 35.0458 132.703 35.4958 131.51 35.9423C130.659 36.0137 129.876 35.4981 129.036 35.463C128.49 35.5415 128.246 36.1802 128.468 36.6513C128.537 36.9888 128.812 37.1728 129.102 37.3169H129.11C129.189 37.3567 129.27 37.3942 129.344 37.4341C130.351 37.8677 131.486 37.89 132.567 37.8489C131.968 39.4205 131.618 41.0705 131.207 42.6959C131.197 42.7393 131.184 42.785 131.17 42.8295L131.173 42.833C131.084 43.1225 130.946 43.4319 131.117 43.7131C131.318 44.0014 131.584 44.2955 131.95 44.3506C132.403 44.4901 132.855 44.2955 133.31 44.2756C133.862 44.926 134.898 44.7198 135.486 44.2229C136.063 44.6002 136.84 44.7959 137.465 44.4221C138.055 44.0577 138.738 43.8303 139.256 43.358C139.62 42.8365 139.735 42.2096 139.853 41.5908" fill="#FCCDA3"/>
<path d="M126.891 40.6079V40.5938C126.87 40.3208 126.679 40.0677 126.542 39.8333C126.051 39.0047 125.513 38.2067 124.931 37.4403H124.925C124.748 37.2059 124.565 36.9739 124.385 36.7442C124.026 36.2918 123.584 35.9121 123.084 35.625C122.31 35.4328 121.541 35.7352 120.83 36.0152C119.128 36.5379 117.643 37.5457 116.088 38.3825C115.735 38.6075 115.312 38.8688 115.284 39.3387C115.24 39.9809 115.29 40.6255 115.431 41.2536C115.496 41.4534 115.574 41.6484 115.666 41.8372C115.813 41.8302 115.96 41.8232 116.108 41.8185C116.2 42.1091 116.323 42.3892 116.472 42.6552L116.124 42.6845C116.433 43.2072 116.825 43.7486 117.318 43.9256C117.911 44.1248 118.559 43.8623 119.173 43.6935C119.726 43.5388 119.538 44.3088 121.106 44.1353C121.443 44.0591 121.5 43.2646 121.828 43.1626C122.087 43.1908 122.787 43.9888 123.044 44.0076C123.571 44.058 124.102 43.9338 124.604 43.7837C124.954 43.6044 125 43.1603 124.848 42.8345H123.739V42.8322H124.854C124.654 42.3142 124.1 41.1505 123.864 40.6431C123.466 39.8028 123.021 38.9848 122.528 38.195H122.533C122.47 38.0907 122.411 37.984 122.342 37.8809C122.45 37.9676 122.554 38.059 122.654 38.1528H122.656C123.506 38.9602 124.072 40.036 124.803 40.9454C125.047 41.2243 125.366 41.57 125.776 41.4833C125.942 41.4575 126.106 41.4212 126.268 41.3732C126.27 41.3732 126.273 41.3755 126.276 41.3767C126.529 41.2946 126.754 41.1587 126.842 40.8903C126.881 40.8001 126.898 40.7028 126.891 40.6044V40.6079ZM123.073 39.6774C122.906 39.1782 122.723 38.6848 122.525 38.1973C122.723 38.6848 122.906 39.1794 123.072 39.6774H123.073Z" fill="#FCCDA3"/>
<path d="M124.913 35.4761L125.157 35.2066C124.595 34.6968 123.599 32.9097 123.583 32.653C123.584 32.6612 123.584 32.6694 123.583 32.6777L123.229 32.5909C123.138 32.9636 124.361 34.9757 124.913 35.4761ZM128.981 31.8937L128.646 31.7495C128.646 31.7495 127.652 34.0605 127.315 34.8398L127.649 34.9839L128.987 31.8937H128.981ZM131.786 47.8455C131.422 47.4002 130.083 45.7244 129.528 44.7775L129.213 44.9603C129.862 46.0818 131.524 48.1033 131.596 48.1889L131.879 47.9592L131.787 47.8444H131.786V47.8455ZM127.579 46.0291H127.215C127.215 46.4475 127.215 46.8951 127.237 47.3393C127.256 47.8127 127.344 49.8999 127.344 49.8999L127.708 49.8846C127.708 49.8846 127.619 47.7975 127.601 47.3252C127.583 46.8869 127.58 46.4439 127.579 46.0303V46.0291ZM122.738 48.633L123.043 48.8334C123.507 48.1233 124.914 46.0666 124.928 46.0467L124.627 45.8416C124.614 45.8627 123.204 47.9217 122.737 48.6389V48.6342L122.738 48.633Z" fill="#00FFFF"/>
</g>
<path d="M239.632 23.5645H241.899V23.6391L236.833 29.4826L242.238 37.1137V37.1883H240.087L235.65 30.8313L233.556 33.2496V37.1891H231.802V23.5645H233.556V30.5917H233.63L239.632 23.5645ZM245.524 24.649C245.524 24.9878 245.4 25.2857 245.16 25.526C244.92 25.7663 244.631 25.8902 244.283 25.8902C243.943 25.8902 243.645 25.7663 243.406 25.526C243.288 25.4125 243.195 25.2761 243.133 25.1253C243.07 24.9744 243.039 24.8123 243.041 24.649C243.041 24.3012 243.165 24.0116 243.406 23.7712C243.645 23.5309 243.936 23.407 244.283 23.407C244.622 23.407 244.92 23.5309 245.16 23.7712C245.408 24.0198 245.524 24.3086 245.524 24.649ZM245.169 27.8682V37.1965H243.414V27.8682H245.169ZM250.773 37.3458C250.011 37.3458 249.381 37.1144 248.877 36.642C248.372 36.1703 248.115 35.5164 248.107 34.6805V29.4654H246.468V27.8682H248.107V25.0117H249.861V27.8682H252.146V29.4654H249.862V34.1095C249.862 34.7297 249.986 35.1522 250.226 35.3754C250.466 35.5993 250.739 35.7068 251.045 35.7068C251.186 35.7068 251.318 35.6903 251.459 35.6567C251.6 35.6239 251.716 35.5821 251.832 35.5328L252.386 37.0973C251.915 37.263 251.385 37.3458 250.773 37.3458ZM195.284 36.4681C194.315 35.7642 193.653 34.7708 193.289 33.4959L195.44 32.6182C195.656 33.4213 196.037 34.0662 196.591 34.5797C197.138 35.085 197.8 35.341 198.569 35.341C199.29 35.341 199.893 35.1589 200.398 34.7872C200.903 34.414 201.152 33.9012 201.152 33.2556C201.152 32.66 200.928 32.1711 200.49 31.7822C200.051 31.3934 199.281 31.0045 198.18 30.6149L197.27 30.2924C196.293 29.9536 195.474 29.4654 194.811 28.828C194.149 28.1906 193.819 27.3547 193.819 26.3127C193.819 25.5917 194.017 24.9296 194.406 24.3176C194.795 23.7048 195.341 23.2249 196.045 22.8599C196.74 22.5046 197.527 22.3225 198.412 22.3225C199.687 22.3225 200.705 22.6285 201.458 23.2495C202.219 23.8705 202.724 24.5572 202.98 25.3357L200.929 26.2037C200.779 25.7402 200.499 25.3349 200.076 24.9871C199.655 24.6311 199.116 24.4572 198.454 24.4572C197.792 24.4572 197.23 24.6229 196.774 24.9617C196.319 25.3013 196.095 25.732 196.095 26.2619C196.095 26.7665 196.302 27.1725 196.707 27.5032C197.113 27.8256 197.75 28.1406 198.62 28.4384L199.531 28.7444C200.78 29.1751 201.74 29.7461 202.427 30.4417C203.114 31.1366 203.454 32.0718 203.454 33.2392C203.454 34.1908 203.213 34.9857 202.725 35.6224C202.243 36.2568 201.6 36.7512 200.863 37.0547C200.126 37.3629 199.336 37.5205 198.537 37.5182C197.328 37.5182 196.244 37.1704 195.284 36.4673L195.284 36.4681ZM205.208 24.8968C205.066 24.7582 204.953 24.592 204.878 24.4085C204.802 24.2249 204.765 24.0279 204.769 23.8295C204.769 23.407 204.918 23.051 205.208 22.7614C205.346 22.6193 205.512 22.5071 205.696 22.4316C205.88 22.3561 206.077 22.319 206.275 22.3225C206.697 22.3225 207.054 22.4718 207.342 22.7614C207.633 23.051 207.781 23.407 207.781 23.8287C207.781 24.2512 207.632 24.6072 207.343 24.896C207.205 25.0382 207.038 25.1506 206.855 25.2262C206.671 25.3018 206.474 25.339 206.276 25.3357C205.853 25.3267 205.497 25.1864 205.208 24.8968ZM205.158 26.8337H207.392V37.1958H205.158V26.8337ZM212.251 37.1383C211.845 36.9891 211.515 36.7905 211.258 36.5502C210.679 35.971 210.38 35.1768 210.38 34.1752V28.8034H208.568V26.8329H210.38V23.9123H212.615V26.8426H215.132V28.8124H212.615V33.687C212.615 34.2416 212.723 34.6394 212.938 34.8626C213.145 35.1358 213.493 35.2679 213.998 35.2679C214.229 35.2679 214.428 35.235 214.61 35.1768C214.784 35.1193 214.974 35.0201 215.181 34.879V37.0562C214.734 37.263 214.196 37.3622 213.559 37.3622C213.113 37.3662 212.67 37.2904 212.251 37.1383ZM218.384 36.8077C217.584 36.3432 216.93 35.6636 216.497 34.8462C216.042 34.0102 215.818 33.075 215.818 32.0323C215.818 31.0381 216.042 30.1282 216.48 29.2759C216.919 28.4309 217.532 27.7532 218.318 27.2561C219.104 26.759 219.998 26.5023 221 26.5023C222.043 26.5023 222.945 26.7344 223.714 27.1897C224.465 27.6386 225.071 28.2934 225.461 29.0766C225.858 29.8797 226.057 30.7739 226.057 31.7837C226.057 31.9741 226.04 32.2136 225.999 32.495H218.053C218.136 33.4556 218.476 34.2005 219.079 34.7215C219.659 35.2337 220.409 35.5113 221.182 35.5C221.819 35.5 222.374 35.3589 222.837 35.0611C223.31 34.7689 223.698 34.3579 223.963 33.8691L225.85 34.7633C225.362 35.6157 224.724 36.286 223.938 36.7741C223.152 37.263 222.208 37.5026 221.115 37.5026C220.097 37.519 219.188 37.2876 218.384 36.8077ZM223.781 30.7985C223.75 30.415 223.631 30.0437 223.433 29.714C223.226 29.358 222.92 29.0519 222.506 28.8124C222.093 28.572 221.588 28.4481 220.991 28.4481C220.271 28.4481 219.667 28.6631 219.17 29.0848C218.674 29.5072 218.334 30.0864 218.144 30.7985H223.781Z" fill="#5F6368"/>
<g clip-path="url(#clip1_3364_5070)">
<path fill-rule="evenodd" clip-rule="evenodd" d="M171.119 26.5605L173.695 28.5307C173.544 28.9904 173.468 29.4711 173.468 29.9549C173.468 30.4529 173.548 30.9317 173.695 31.3791L171.119 33.3493C170.6 32.293 170.332 31.1316 170.334 29.9549C170.334 28.7341 170.617 27.5822 171.119 26.5605Z" fill="#FBBC05"/>
<path fill-rule="evenodd" clip-rule="evenodd" d="M173.696 28.5305L171.119 26.5603C171.751 25.2765 172.73 24.1959 173.946 23.4416C175.162 22.6873 176.565 22.2897 177.996 22.294C179.946 22.294 181.687 23.0252 183.045 24.2092L180.816 26.4377C180.05 25.8109 179.075 25.4279 177.996 25.4279C175.986 25.4279 174.291 26.725 173.696 28.5305Z" fill="#EA4335"/>
<path fill-rule="evenodd" clip-rule="evenodd" d="M171.118 33.3467L173.694 31.3723C173.991 32.2781 174.567 33.0666 175.34 33.625C176.113 34.1834 177.042 34.4831 177.995 34.4812C180.119 34.4812 181.721 33.4017 182.104 31.5213H177.995V28.5615H185.134C185.238 29.0142 185.308 29.5017 185.308 29.9544C185.308 34.8294 181.826 37.6151 177.995 37.6151C176.564 37.6193 175.161 37.2214 173.945 36.4667C172.729 35.7121 171.75 34.631 171.118 33.3467Z" fill="#34A853"/>
<path fill-rule="evenodd" clip-rule="evenodd" d="M182.988 35.7069L180.542 33.8136C181.342 33.3087 181.899 32.5305 182.104 31.5213H177.995V28.5615H185.133C185.238 29.0142 185.308 29.5017 185.308 29.9544C185.308 32.4511 184.394 34.4 182.988 35.7069Z" fill="#4285F4"/>
</g>
<defs>
<linearGradient id="paint0_linear_3364_5070" x1="49.649" y1="36.2667" x2="49.649" y2="23.1523" gradientUnits="userSpaceOnUse">
<stop stop-color="#570732"/>
<stop offset="0.04" stop-color="#610B39"/>
<stop offset="0.15" stop-color="#79164B"/>
<stop offset="0.29" stop-color="#8C1E59"/>
<stop offset="0.44" stop-color="#9A2463"/>
<stop offset="0.63" stop-color="#A22768"/>
<stop offset="1" stop-color="#A4286A"/>
</linearGradient>
<linearGradient id="paint1_linear_3364_5070" x1="82.8945" y1="38.8196" x2="82.8945" y2="20.1138" gradientUnits="userSpaceOnUse">
<stop stop-color="#570732"/>
<stop offset="0.04" stop-color="#610B39"/>
<stop offset="0.15" stop-color="#79164B"/>
<stop offset="0.29" stop-color="#8C1E59"/>
<stop offset="0.44" stop-color="#9A2463"/>
<stop offset="0.63" stop-color="#A22768"/>
<stop offset="1" stop-color="#A4286A"/>
</linearGradient>
<linearGradient id="paint2_linear_3364_5070" x1="62.5968" y1="36.2222" x2="62.5968" y2="23.1126" gradientUnits="userSpaceOnUse">
<stop stop-color="#570732"/>
<stop offset="0.04" stop-color="#610B39"/>
<stop offset="0.15" stop-color="#79164B"/>
<stop offset="0.29" stop-color="#8C1E59"/>
<stop offset="0.44" stop-color="#9A2463"/>
<stop offset="0.63" stop-color="#A22768"/>
<stop offset="1" stop-color="#A4286A"/>
</linearGradient>
<linearGradient id="paint3_linear_3364_5070" x1="74.0447" y1="36.2751" x2="74.0447" y2="23.0459" gradientUnits="userSpaceOnUse">
<stop stop-color="#570732"/>
<stop offset="0.04" stop-color="#610B39"/>
<stop offset="0.15" stop-color="#79164B"/>
<stop offset="0.29" stop-color="#8C1E59"/>
<stop offset="0.44" stop-color="#9A2463"/>
<stop offset="0.63" stop-color="#A22768"/>
<stop offset="1" stop-color="#A4286A"/>
</linearGradient>
<linearGradient id="paint4_linear_3364_5070" x1="25.3302" y1="16.1693" x2="25.3302" y2="36.9142" gradientUnits="userSpaceOnUse">
<stop stop-color="#77B227"/>
<stop offset="0.47" stop-color="#75B027"/>
<stop offset="0.64" stop-color="#6EAB27"/>
<stop offset="0.75" stop-color="#63A027"/>
<stop offset="0.85" stop-color="#529228"/>
<stop offset="0.93" stop-color="#3C8028"/>
<stop offset="1" stop-color="#246B29"/>
</linearGradient>
<clipPath id="clip0_3364_5070">
<rect width="66.4384" height="60" fill="white" transform="translate(94.896)"/>
</clipPath>
<clipPath id="clip1_3364_5070">
<rect width="14.9732" height="15.909" fill="white" transform="translate(170.334 22)"/>
</clipPath>
</defs>
</svg>
