<svg width="100" height="auto" data-testid="ZapierLogo" viewBox="0 0 188 86" fill="#ff4f00" xmlns="http://www.w3.org/2000/svg" class="css-1washnc-ZapierLogo--zapier"><path fill-rule="evenodd" clip-rule="evenodd" d="M126.609 10.0039H119.624L124.563 5.07076C124.175 4.52609 123.742 4.01499 123.27 3.54368C122.798 3.07238 122.287 2.64086 121.742 2.25288L116.803 7.18604V0.209726C116.157 0.101538 115.492 0.0443344 114.816 0.0430908H114.802C114.125 0.0443344 113.461 0.101538 112.815 0.209726V7.18604L107.876 2.25288C107.331 2.64086 106.819 3.07238 106.348 3.54368L106.346 3.54617C105.874 4.01623 105.442 4.52609 105.055 5.07076L109.994 10.0039H103.009C103.009 10.0039 102.842 11.3134 102.842 11.9911V11.9998C102.842 12.6763 102.9 13.3416 103.009 13.9883H109.994L105.055 18.9202C105.832 20.0095 106.785 20.9633 107.876 21.738L112.815 16.8049V23.7812C113.461 23.8894 114.124 23.9466 114.8 23.9478H114.817C115.493 23.9466 116.158 23.8894 116.803 23.7812V16.8049L121.743 21.738C122.287 21.3513 122.798 20.9186 123.27 20.4472H123.271C123.742 19.9759 124.175 19.4648 124.563 18.9202L119.623 13.9883H126.609C126.717 13.3428 126.774 12.68 126.774 12.0035V11.9874C126.774 11.3109 126.717 10.6493 126.609 10.0039ZM117.341 14.5242C117.637 13.7383 117.8 12.889 117.8 12.0011V11.9899C117.8 11.102 117.637 10.2514 117.341 9.46671C116.555 9.17074 115.704 9.00784 114.815 9.00784H114.803C113.915 9.00784 113.063 9.17074 112.276 9.46671C111.981 10.2514 111.818 11.102 111.817 11.9899V12.0011C111.818 12.889 111.981 13.7395 112.277 14.5242C113.063 14.8202 113.915 14.9831 114.803 14.9831H114.815C115.704 14.9831 116.555 14.8202 117.341 14.5242Z"></path><path fill-rule="evenodd" clip-rule="evenodd" d="M138.294 60.8117C136.299 58.9402 135.255 55.988 135.158 51.9552H160.316C160.363 51.4279 160.412 50.7937 160.459 50.0476C160.508 49.3039 160.533 48.5963 160.533 47.9236C160.533 45.475 160.195 43.208 159.523 41.1201C158.85 39.0322 157.865 37.2328 156.569 35.7206C155.27 34.2085 153.66 33.0209 151.738 32.1566C149.816 31.2924 147.581 30.8596 145.035 30.8596C142.054 30.8596 139.471 31.3757 137.284 32.4078C135.098 33.4412 133.284 34.8327 131.842 36.5837C130.402 38.3371 129.331 40.4001 128.635 42.7753C127.938 45.153 127.589 47.7085 127.589 50.443C127.589 53.2286 127.95 55.7841 128.671 58.112C129.392 60.4399 130.534 62.4569 132.095 64.1606C133.656 65.8643 135.64 67.1837 138.043 68.1201C140.444 69.0565 143.328 69.524 146.693 69.524C148.999 69.524 151.1 69.3549 153 69.0204C154.897 68.6834 156.64 68.181 158.226 67.5082C158.177 66.4997 158.034 65.4813 157.794 64.4479C157.552 63.4157 157.241 62.5403 156.856 61.8202C153.78 63.0203 150.538 63.6209 147.125 63.6209C143.232 63.6209 140.289 62.6833 138.294 60.8117ZM153.469 46.6291C153.469 45.2848 153.288 44.0014 152.928 42.7753C152.567 41.5516 152.038 40.4847 151.342 39.5719C150.644 38.6604 149.756 37.9279 148.674 37.377C147.593 36.8249 146.307 36.5476 144.818 36.5476C141.886 36.5476 139.64 37.4367 138.077 39.2125C136.516 40.9883 135.567 43.4605 135.23 46.6291H153.469Z"></path><path fill-rule="evenodd" clip-rule="evenodd" d="M70.9322 31.7234C71.4115 31.6289 71.9045 31.5567 72.4088 31.5082C72.9142 31.461 73.4297 31.4361 73.9588 31.4361C74.4382 31.4361 74.9436 31.461 75.4728 31.5082C76.0007 31.5567 76.5062 31.6289 76.9867 31.7234C77.0341 31.8216 77.0951 32.1201 77.166 32.625C77.2383 33.1286 77.3105 33.6683 77.3827 34.244C77.4549 34.8198 77.5271 35.3732 77.5993 35.9005C77.6715 36.429 77.7064 36.7647 77.7064 36.909C78.187 36.1405 78.7634 35.3968 79.437 34.6768C80.1093 33.9568 80.9161 33.3077 81.8523 32.7331C82.7886 32.1561 83.8456 31.701 85.0247 31.3652C86.2 31.0295 87.5098 30.8604 88.9528 30.8604C91.1141 30.8604 93.1211 31.221 94.9725 31.941C96.8214 32.661 98.4063 33.7765 99.7285 35.2874C101.049 36.8008 102.083 38.7208 102.829 41.0475C103.573 43.3779 103.945 46.1237 103.945 49.2922C103.945 55.6281 102.227 60.5849 98.7923 64.1601C95.3547 67.7366 90.4904 69.5248 84.1942 69.5248C83.1372 69.5248 82.0565 69.4527 80.9509 69.3084C79.8441 69.1642 78.8842 68.9714 78.0674 68.7326V85.6524C77.491 85.7469 76.8784 85.819 76.2298 85.8675C75.5811 85.9148 74.991 85.9396 74.4631 85.9396C73.9339 85.9396 73.3463 85.9148 72.6976 85.8675C72.0489 85.819 71.46 85.7469 70.9322 85.6524V31.7234ZM80.8787 63.3319C79.9175 63.1889 78.9788 62.9489 78.0674 62.6119V47.6371C78.0674 45.8115 78.3314 44.2422 78.8618 42.9203C79.3897 41.6009 80.0856 40.5078 80.9509 39.6435C81.8162 38.7793 82.7998 38.1314 83.9066 37.7011C85.011 37.2684 86.1651 37.052 87.3666 37.052C90.585 37.052 92.9045 38.1811 94.3226 40.4357C95.7394 42.6927 96.4491 45.7407 96.4491 49.5807C96.4491 51.9808 96.1478 54.0563 95.5477 55.8072C94.9463 57.5606 94.1296 59.0118 93.0962 60.1633C92.0641 61.3161 90.8265 62.1704 89.3848 62.7201C87.943 63.2722 86.3581 63.5483 84.6275 63.5483C83.0886 63.5483 81.8399 63.4749 80.8787 63.3319Z"></path><path fill-rule="evenodd" clip-rule="evenodd" d="M56.1541 44.3244C56.1541 41.4916 55.4332 39.5243 53.9915 38.42C52.5497 37.317 50.4593 36.7649 47.7202 36.7649C46.037 36.7649 44.4645 36.8979 42.9991 37.1603C41.5324 37.4252 40.1019 37.7721 38.7099 38.2036C37.7961 36.6194 37.3404 34.7254 37.3404 32.5156C38.9726 31.9884 40.7742 31.5805 42.7463 31.292C44.716 31.0035 46.6134 30.8605 48.4411 30.8605C53.2457 30.8605 56.8986 31.9536 59.3974 34.136C61.8962 36.3209 63.1462 39.8128 63.1462 44.6116V67.7243C61.4642 68.1085 59.4223 68.504 57.0194 68.9118C54.6152 69.3185 52.1638 69.5237 49.6662 69.5237C47.3106 69.5237 45.1854 69.3085 43.2867 68.8758C41.388 68.443 39.7782 67.7491 38.4572 66.7866C37.135 65.8291 36.1141 64.6029 35.3932 63.1157C34.6723 61.6284 34.3125 59.829 34.3125 57.7149C34.3125 55.6531 34.7321 53.84 35.5737 52.2794C36.4141 50.7212 37.5558 49.4242 38.9975 48.392C40.4393 47.3611 42.0977 46.5914 43.9715 46.089C45.8465 45.5841 47.8161 45.3317 49.8829 45.3317C51.4205 45.3317 52.6817 45.369 53.6665 45.4398C54.6513 45.5132 55.4805 45.5965 56.1541 45.6923V44.3244ZM53.415 51.0209C54.5206 51.1179 55.4332 51.2124 56.1541 51.3082V63.0448C55.2403 63.2848 54.1957 63.4638 53.0179 63.5832C51.8413 63.7051 50.6996 63.7648 49.594 63.7648C48.73 63.7648 47.8161 63.7175 46.855 63.6205C45.8938 63.5235 45.0173 63.2599 44.2242 62.8284C43.4311 62.3956 42.77 61.7726 42.2421 60.9556C41.7117 60.1411 41.449 59.0119 41.449 57.5719C41.449 55.3174 42.2284 53.6373 43.7922 52.5318C45.3522 51.4288 47.6231 50.8754 50.6037 50.8754C51.3719 50.8754 52.3094 50.9251 53.415 51.0209Z"></path><path d="M0 67.6529L19.4636 37.4122H2.30705C2.16262 36.548 2.09041 35.5892 2.09041 34.5322C2.09041 33.5249 2.16262 32.5873 2.30705 31.723H30.0601L30.4199 32.6606L10.8131 62.9722H29.1948C29.338 63.9334 29.4114 64.9158 29.4114 65.9231C29.4114 66.8856 29.338 67.7959 29.1948 68.6614H0.36106L0 67.6529Z"></path><path d="M112.812 37.3401H108.126C108.03 36.9559 107.958 36.5119 107.911 36.0083C107.862 35.5046 107.838 35.0122 107.838 34.5322C107.838 34.0534 107.862 33.5597 107.911 33.0561C107.958 32.5524 108.03 32.1085 108.126 31.723H119.806V68.6614C119.275 68.7559 118.688 68.8268 118.039 68.8753C117.39 68.9225 116.8 68.9474 116.272 68.9474C115.792 68.9474 115.226 68.9225 114.579 68.8753C113.929 68.8268 113.34 68.7559 112.812 68.6614V37.3401Z"></path><path d="M169.907 31.5084C169.427 31.5569 168.921 31.629 168.393 31.7235V68.6606C168.97 68.7551 169.582 68.8273 170.232 68.8758C170.881 68.923 171.468 68.9479 171.999 68.9479C172.525 68.9479 173.116 68.923 173.763 68.8758C174.412 68.8273 175.001 68.7551 175.53 68.6606V50.2996C175.53 47.8051 175.806 45.7644 176.359 44.1814C176.91 42.5971 177.656 41.3486 178.593 40.4358C179.53 39.5243 180.586 38.8888 181.765 38.5282C182.943 38.1688 184.18 37.9885 185.478 37.9885H186.45C186.858 37.9885 187.254 38.037 187.64 38.1315C187.736 37.557 187.821 36.9564 187.893 36.3321C187.964 35.7091 188 35.1084 188 34.5327C188 34.0042 187.976 33.5005 187.928 33.0205C187.88 32.5418 187.807 32.0841 187.712 31.6514C187.425 31.6054 187.074 31.5693 186.667 31.5444C186.258 31.5196 185.861 31.5084 185.478 31.5084C182.882 31.5084 180.756 32.109 179.098 33.3078C177.441 34.5078 176.106 35.9254 175.098 37.557C175.098 36.74 175.024 35.7451 174.881 34.5675C174.737 33.3936 174.592 32.4435 174.449 31.7235C174.016 31.629 173.535 31.5569 173.007 31.5084C172.477 31.4611 171.949 31.4362 171.421 31.4362C170.892 31.4362 170.387 31.4611 169.907 31.5084Z"></path></svg>