<svg class="snippet-editor__edit-icon" version="1.1" xmlns="http://www.w3.org/2000/svg" xmlns:xlink="http://www.w3.org/1999/xlink" x="0px" y="0px"
             width="216px" height="146px" viewBox="0 0 216 146" enable-background="new 0 0 216 146" xml:space="preserve">
    <g>
        <path d="M46.284,100.823v33.893h33.893l67.786-67.786L114.07,33.037L46.284,100.823z M75.859,124.287L75.859,124.287l-8.718,0.001
            v-10.429H56.713v-8.719l7.414-7.414l19.146,19.146L75.859,124.287z M116.678,46.888c1.194,0,1.791,0.598,1.791,1.792
            c0,0.544-0.189,1.005-0.57,1.386L73.74,94.225c-0.38,0.379-0.842,0.569-1.385,0.569c-1.194,0-1.792-0.599-1.792-1.792
            c0-0.544,0.19-1.005,0.57-1.386l44.159-44.158C115.672,47.078,116.134,46.888,116.678,46.888z"/>
        <path d="M166.701,33.443l-19.146-19.064c-2.063-2.063-4.535-3.096-7.414-3.096c-2.934,0-5.377,1.033-7.332,3.096l-13.524,13.443
            l33.893,33.893l13.525-13.524c2.01-2.01,3.014-4.454,3.014-7.333C169.716,38.034,168.712,35.562,166.701,33.443z"/>
    </g>
</svg>
