<svg xmlns="http://www.w3.org/2000/svg" role="img" aria-hidden="true" focusable="false" viewBox="0 0 842 224" class="w-40" data-v-36f45bdc=""><g fill="#a61e69" data-v-36f45bdc=""><path d="M166.55 54.09c-38.69 0-54.17 25.97-54.17 54.88s15.25 56.02 54.17 56.02 54.07-27.19 54-54.26c-.09-32.97-16.77-56.65-54-56.65Zm-23.44 56.52c.94-38.69 30.66-38.65 40.59-24.79 9.05 12.63 10.9 55.81-17.14 55.5-12.92-.14-23.06-8.87-23.44-30.71ZM480.36 138.16V82.11h20.04V57.78h-20.04V28.39h-30.95v29.39h-15.7v24.33h15.7v52.87c0 30.05 20.95 47.91 43.06 51.61l9.24-24.88c-12.89-1.63-21.23-11.27-21.35-23.54ZM324.21 129.29V87.16c0-1.54-.1-2.98-.25-4.39-2.68-34.04-51.02-33.97-88.46-20.9l10.82 21.78c24.38-11.58 38.97-8.59 44.07-2.89.13.15.26.29.38.45.01.02.03.04.04.06 2.6 3.51 1.98 9.05 1.98 13.41-31.86 0-65.77 4.23-65.77 39.17 0 26.56 33.28 43.65 68.06 18.33l5.16 12.45h29.81c-2.66-14.62-5.85-27.14-5.85-35.34Zm-31.18-.23c-24.51 27.43-46.96 1.61-23.97-9.65 6.77-2.31 15.95-2.41 23.97-2.41v12.06ZM371.78 84.89c0-10.38 16.61-15.23 42.82-3.27l9.06-22.01c-35.27-10.66-83.44-11.62-83.75 25.28-.15 17.68 11.19 27.19 27.52 33.26 11.31 4.2 27.64 6.38 27.59 15.39-.06 11.77-25.38 13.57-48.42-2.26l-9.31 23.87c31.43 15.64 89.87 16.08 89.56-23.12-.31-38.76-55.08-32.11-55.08-47.14ZM99.3 1 54.44 125.61 32.95 58.32H1l35.78 91.89c3.05 7.82 3.05 16.51 0 24.33-4 10.25-10.65 19.03-26.87 21.21v27.24c31.58 0 48.65-19.41 63.88-61.96L133.48 1H99.3Z" data-v-36f45bdc=""></path></g> <g fill="#a61e69" data-v-36f45bdc=""><path d="M598.64 139.05c0 8.17-2.96 14.58-8.87 19.23-5.91 4.65-14.07 6.98-24.47 6.98s-18.92-1.61-25.54-4.84v-14.2c4.19 1.97 8.65 3.52 13.37 4.65 4.72 1.13 9.11 1.7 13.18 1.7 5.95 0 10.35-1.13 13.18-3.39 2.83-2.26 4.25-5.3 4.25-9.11 0-3.43-1.3-6.35-3.9-8.74-2.6-2.39-7.97-5.22-16.1-8.48-8.39-3.39-14.3-7.27-17.74-11.63-3.44-4.36-5.16-9.59-5.16-15.71 0-7.67 2.72-13.7 8.18-18.1 5.45-4.4 12.77-6.6 21.95-6.6s17.57 1.93 26.29 5.78l-4.78 12.26c-8.18-3.43-15.47-5.15-21.89-5.15-4.87 0-8.55 1.06-11.07 3.17-2.52 2.12-3.77 4.91-3.77 8.39 0 2.39.5 4.43 1.51 6.13s2.66 3.3 4.97 4.81c2.3 1.51 6.46 3.5 12.45 5.97 6.75 2.81 11.7 5.43 14.85 7.86 3.15 2.43 5.45 5.18 6.92 8.23 1.46 3.06 2.2 6.66 2.2 10.81ZM667.17 164.01h-52.02V72.12h52.02v12.7h-36.99v25.01h34.66v12.57h-34.66v28.85h36.99v12.76ZM767.41 117.94c0 14.96-3.74 26.59-11.23 34.88-7.49 8.3-18.08 12.44-31.8 12.44s-24.54-4.12-31.99-12.35c-7.44-8.23-11.17-19.93-11.17-35.1s3.74-26.82 11.23-34.95c7.49-8.13 18.17-12.19 32.05-12.19s24.24 4.13 31.7 12.38c7.47 8.26 11.2 19.88 11.2 34.88Zm-70.2 0c0 11.31 2.29 19.89 6.86 25.74 4.57 5.85 11.35 8.77 20.32 8.77s15.67-2.89 20.22-8.67c4.55-5.78 6.82-14.39 6.82-25.83s-2.25-19.82-6.76-25.64-11.23-8.74-20.16-8.74-15.82 2.91-20.41 8.74c-4.59 5.82-6.89 14.37-6.89 25.64Z" data-v-36f45bdc=""></path></g> <path fill="#77b227" d="m790.45 165.35 36.05-94.96H840l-36.02 94.96h-13.53z" data-v-36f45bdc=""></path></svg>