<svg viewBox="0 0 500 500" xmlns="http://www.w3.org/2000/svg" role="img" aria-hidden="true" focusable="false"><path d="M80 0h340a80 80 0 0 1 80 80v420H80a80 80 0 0 1-80-80V80A80 80 0 0 1 80 0z" fill="#1eb0a6"/><path d="M500 500V80a79.67 79.67 0 0 0-20.1-53L27.12 480A79.65 79.65 0 0 0 80 500z" fill="#009288"/><path d="M270 390.71a1.52 1.52 0 0 1-1.82.7L141.72 348l-5.95 17.3 126.44 43.43a1.53 1.53 0 0 1 1 1.67 57.92 57.92 0 1 0 6.79-19.69z" fill="#f2f2f2"/><circle cx="320.44" cy="419.04" fill="#1eb0a6" r="45.74"/><path d="M359.24 286.28a1.53 1.53 0 0 1-1.13 1.11l-179.42 41.66 10.56 44.51 179.42-41.67a1.51 1.51 0 0 1 1.5.49c11.07 12.76 28.63 19 49.27 14.11 17.19-4.07 30.89-14.57 38.41-27.66a1.52 1.52 0 0 0-1.68-2.24l-27.74 6.58a1.63 1.63 0 0 1-.79 0l-25.75-7.71a1.55 1.55 0 0 1-1.05-1.11l-6.09-25.69a1.52 1.52 0 0 1 .43-1.46l19.55-18.46a1.58 1.58 0 0 1 .7-.37l27.74-6.58a1.53 1.53 0 0 0 1.15-1.22 1.55 1.55 0 0 0-.66-1.54c-12.6-8.32-29.55-11.54-46.74-7.46-20.64 4.87-33.51 18.34-37.68 34.71z" fill="#f2f2f2"/><rect fill="#cacaca" height="21.35" rx="9.15" transform="rotate(-13.14 294.727 324.622)" width="121.98" x="233.85" y="314.03"/><path d="M385 114.49a1.54 1.54 0 0 1 .88.78 1.51 1.51 0 0 1 .06 1.16l-8.46 24.27a1.52 1.52 0 0 1-1.94.93c-50-17.44-139.89-48.88-146.91-51.23s-11.84-2.94-17.78-4.7c-5.41-1.59-50.95-17.7-59.65-20.78a1.53 1.53 0 0 1-.93-1.94l9.37-26.86a1.63 1.63 0 0 1 2.08-1c9 3.13 54.79 19 59.49 20.75 5.23 1.92 10 4.87 16.85 7.38 6.48 2.37 132.01 46.06 146.94 51.24z" fill="#cacaca"/><path d="M383.12 119.87l-5.72 16.41S223.66 82.49 213.59 79.14s-40-6.42-40-6.42l-22.38-7.81a1.52 1.52 0 0 1-.93-1.94l9.4-26.97a1.52 1.52 0 0 1 1.94-.93L184 42.89s25.13 16.3 35.32 19.84z" fill="#f2f2f2"/><path d="M30.87 170.68c38.87 36.49 245.13 3 378.31-31.73L397.6 81.38 30.32 168.62l.2.85c.1.41.23.81.35 1.21z" fill="#cacaca"/><path d="M30.87 170.68c13.06 43.7 112 47.9 256.78 17.49L413.22 159l-4-20.07C276 173.69 69.74 207.17 30.87 170.68z" fill="#f2f2f2"/><path d="M430.35 76.08a66 66 0 0 0-93.34 0L103 310.14a66 66 0 0 0 93.34 93.34l234.01-234.06a66 66 0 0 0 0-93.34z" fill="#a4286a"/><g fill="#f2f2f2"><circle cx="385.8" cy="120.63" r="20"/><circle cx="147.51" cy="358.93" r="20"/><path d="M221.51 245.14a12.38 12.38 0 0 1-.69-1.17 12.12 12.12 0 0 1-.56-1.22q-.13-.31-.24-.63c-.11-.32-.21-.66-.31-1.05s-.16-.62-.21-.88-.08-.44-.11-.66c-.06-.44-.1-.88-.13-1.32a15.12 15.12 0 0 1 .11-2.51c0-.3.09-.56.13-.79.08-.44.19-.88.31-1.3a13.9 13.9 0 0 1 3.46-5.82l28-28a13.79 13.79 0 0 1 5.82-3.46c.43-.12.86-.23 1.3-.31a11.48 11.48 0 0 1 1.31-.19 13.91 13.91 0 0 1 4 .19c.43.08.87.19 1.29.31a13.71 13.71 0 0 1 5.83 3.46L294.94 224l3.55-1.67-25.13-25.13a17.52 17.52 0 0 0-24.74 0l-28 28a17.5 17.5 0 0 0 0 24.73l1.62 1.62 2.61-2.61-1.62-1.62a13.51 13.51 0 0 1-1.72-2.18zm91.25-6.96l-.13-.28-3.36 1.54.12.27a12.67 12.67 0 0 1 .67 1.8c.13.43.23.86.32 1.3a14.21 14.21 0 0 1 .19 4c0 .44-.11.88-.19 1.32s-.19.87-.32 1.29a13.71 13.71 0 0 1-3.45 5.82l-37.72 37.72-24.69-24.73h-.17c-1.2.33-2.38.6-3.52.81l-.56.11 28.94 28.94 40.33-40.32a17.6 17.6 0 0 0 3.54-19.59z"/><path d="M312.18 220.25L260 244.78l14.47-28-8.3-8.29-16.26 37a14.92 14.92 0 0 1-7.66 7.66c-3.59 1.57-8.45 2.86-14.32-1.19l-.26-.18-7.07 7.07.29.27a20.13 20.13 0 0 0 14.41 5.81c5.62 0 12.4-2 21.34-6.22l64-29.21.51-.23z"/></g></svg>