<svg xmlns="http://www.w3.org/2000/svg" viewBox="0 0 500 500"><path d="M80 0h340a80 80 0 0 1 80 80v420H80a80 80 0 0 1-80-80V80A80 80 0 0 1 80 0z" fill="#7276a8"/><path d="M80 500h420V136.66L13.16 463.94A79.89 79.89 0 0 0 80 500z" fill="#494a7b"/><path fill="#77b227" d="M343.54 31.46L170.23 69.67l-48.86 309.62 260.38-174.51-38.21-173.32z"/><path d="M350.79 20L161.68 61.69l-52.93 338.05 283.61-191.19zm-7.32 11.46l38.2 173.31-260.38 174.52 48.87-309.62z" fill="#fff"/><path d="M268.77 164.12l-10 .22c-3.37 31.41-5 78.77 6 130.48l8.85-5.94c-9.83-49.54-8.06-94.88-4.85-124.76z" fill="#fff"/><path d="M273.58 288.88l-8.85 5.94c14.91 70 53 148 141.34 205.18h19.11C327.7 444.39 288 362 273.58 288.88zM240.34 481.5a4.8 4.8 0 0 1-4-7.49 20.77 20.77 0 0 0-5.68-28.78c-12.38-8.64-26.44-1.73-42.71 6.28-20.21 9.94-43.12 21.21-67.84 4a45.42 45.42 0 0 1-18.81-32.56 53.67 53.67 0 0 1 14.37-42 4.81 4.81 0 1 1 7 6.54 44 44 0 0 0-11.86 34.47c1.16 10.75 6.4 19.88 14.75 25.71 20.07 14 38.54 4.91 58.1-4.71 17.41-8.56 35.41-17.42 52.45-5.54a30.32 30.32 0 0 1 8.16 42 4.81 4.81 0 0 1-3.93 2.08z" fill="#fff"/></svg>