<svg xmlns="http://www.w3.org/2000/svg" viewBox="0 0 500 500"><title>Tekengebied 1</title><path d="M80,0H420a80,80,0,0,1,80,80V500a0,0,0,0,1,0,0H80A80,80,0,0,1,0,420V80A80,80,0,0,1,80,0Z" fill="#7276a8"/><path d="M80,500H500V136.66L13.16,463.94A79.89,79.89,0,0,0,80,500Z" fill="#494a7b"/><polygon points="343.54 31.46 170.23 69.67 121.37 379.29 381.75 204.78 343.54 31.46" fill="#77b227"/><path d="M350.79,20,161.68,61.69,108.75,399.74,392.36,208.55Zm-7.32,11.46,38.2,173.31L121.29,379.29,170.16,69.67Z" fill="#fff"/><path d="M268.77,164.12l-10,.22c-3.37,31.41-5,78.77,6,130.48l8.85-5.94C263.79,239.34,265.56,194,268.77,164.12Z" fill="#fff"/><path d="M273.58,288.88l-8.85,5.94c14.91,70,53,148,141.34,205.18h19.11C327.7,444.39,288,362,273.58,288.88Z" fill="#fff"/><path d="M240.34,481.5a4.8,4.8,0,0,1-4-7.49,20.77,20.77,0,0,0-5.68-28.78c-12.38-8.64-26.44-1.73-42.71,6.28-20.21,9.94-43.12,21.21-67.84,4a45.42,45.42,0,0,1-18.81-32.56,53.67,53.67,0,0,1,14.37-42,4.81,4.81,0,1,1,7,6.54,44,44,0,0,0-11.86,34.47c1.16,10.75,6.4,19.88,14.75,25.71,20.07,14,38.54,4.91,58.1-4.71,17.41-8.56,35.41-17.42,52.45-5.54a30.32,30.32,0,0,1,8.16,42A4.81,4.81,0,0,1,240.34,481.5Z" fill="#fff"/></svg>