<svg width="644" height="113" xmlns="http://www.w3.org/2000/svg" role="img" aria-hidden="true" focusable="false"><path d="M640.4 45.197c.012-2.347-1.656-2.597-3.58-2.698-1.319-.07-2.713-1.159-1.733-1.681 4.01-2.136.277-4.135.136-6.321l4.897-2.504c-3.063-.567-5.636-1.196-8.257-1.484-2.498-.276-3.758-1.62-4.064-3.524-.377-2.34 2.003-2.272 3.68-2.752 1.024-.292-4.16-6.713-3.68-8.424-3.026-.987 6.822-2.043 6.513-6.397-.083-1.16-13.477-3.269-14.853-3.432-13.549-1.617-43.856-3.582-57.646-4.596-20.786-1.527-47.43 0-71.293 0-23.864 0-44.238.667-65.788 0-25.228-.781-55.512-.68-80.755 0-29.127.788-38.853-.116-67.989 0-37.862.153-71.036 1.181-108.879 0-21.277-.664-46.585 1.358-67.85 0-19.86-1.27-29.992.901-49.991 2.234-6.335.421-34.245-2.213-38.147 2.362-4.267 5.003-4.74 3.756-7.48 9.83C-.102 24.095 2.243 33.711.726 42.5c-1.252 7.245-.637 12.912 0 20.275.114 1.325.458 8.643 0 9.776-.62 1.538 2.704 23.31 2.915 24.976.471 3.715 3.532 11.176 7.48 12.856 4.533 1.93 8.625-1.966 12.923.319 5.048 2.682 13.871-.718 19.49 0 17.718 2.263 25.58-.222 43.466 0 8.954.11 23.058-.125 32 0 8.021.124 22.98 1.732 31 2.051 17.854.693 31.68-2.273 49.543-2.051 8.627.124 17.338-.208 25.958-.222 12.47-.028 24.961.194 37.442 0 15.063-.25 31.538-2.112 45.184-.943 26.701 2.288 48.593.014 71.498.846 15.957.568 29.13-.721 45.107-.485 13.972.208 27.948.097 41.924.596 5.634.208 11.38-.305 17.054-.111 23.101.735 46.226.277 69.33 1.442 13.234.665 26.51 1.635 39.793.928 9.894-.513 36.747-1.121 45.63-4.948 4.34-1.873-5.96-7.044-2.814-10.278 1.943-1.997 3.819-4.047 5.752-6.055 3.007-3.124 3.722-4.782.445-7.187-3.55-2.605-1.914-4.094-.202-6.198 1.054-1.296 2.548-2.513 1.285-4.354-1.038-1.515-1.63-3.53-4.466-2.953-2.191.447-2.712-.06-2.257-2.247.514-2.459-3.405-6.19-6.191-5.758-3.691.573 7.556-1.063 7.409-3.52-.111-1.836-.147-3.552-1.103-5.321-2.327-4.299-1.45-5.614 3.697-6.343 1.125-.158 2.251-.312 3.483-.483-.936-.976-3.109-.345-3.101-1.911z" fill="#EEEFFF" fill-rule="evenodd"/></svg>