<svg role="img" aria-hidden="true" focusable="false" xmlns="http://www.w3.org/2000/svg" viewBox="0 0 24.12 19.5"><g fill="#444"><path d="M13.78.98a1.94 1.94 0 0 0-3.38 0L6.75 7.3h10.68L13.78.98ZM8.85 6.26l2.68-4.63c.12-.2.33-.33.56-.33s.45.12.56.33l2.68 4.63H8.85ZM6.55 7.95l-3.69 6.5h.01l-.02.04h8.49V7.95H6.55Zm-1.59 5.47 2.42-4.41h2.71v4.4H4.97ZM12.73 7.95v6.54l8.61-.04-3.69-6.5h-4.92Zm1.26 5.46v-4.4h2.84l2.42 4.41H14ZM2.44 15.33 0 19.5h24.12l-2.26-4.17H2.44Zm18.53 1.09 1.02 1.97-19.87.06 1.1-1.97 17.75-.06Z"/></g></svg>