<svg width="42" height="42" fill="none" xmlns="http://www.w3.org/2000/svg" role="img" aria-hidden="true" focusable="false"><g clip-path="url(#clip0_686_1291)"><g clip-path="url(#clip1_686_1291)"><mask id="a" style="mask-type:luminance" maskUnits="userSpaceOnUse" x="0" y="0" width="42" height="42"><path d="M42 0H0v42h42V0z" fill="#fff"/></mask><g mask="url(#a)"><mask id="b" style="mask-type:luminance" maskUnits="userSpaceOnUse" x="-3" y="-3" width="48" height="48"><path d="M44.1-2.1H-2.1v46.2h46.2V-2.1z" fill="#fff"/></mask><g mask="url(#b)"><path fill="url(#pattern0_686_1291)" d="M-2.1-2.15h46.368v46.368H-2.1z"/></g></g><path d="M34.13 31.597l-6.817-6.817a10.89 10.89 0 0 0 2.066-6.418c0-6.073-4.94-11.012-11.012-11.012-6.074 0-11.017 4.94-11.017 11.013 0 6.073 4.94 11.012 11.017 11.012 2.33 0 4.54-.714 6.417-2.067l6.817 6.817c.336.34.785.525 1.264.525s.928-.185 1.264-.525a1.79 1.79 0 0 0 0-2.528zM18.366 10.928c4.099 0 7.438 3.335 7.438 7.439a7.444 7.444 0 0 1-7.438 7.438 7.444 7.444 0 0 1-7.439-7.438 7.444 7.444 0 0 1 7.439-7.439z" fill="#fff"/></g></g><defs><clipPath id="clip0_686_1291"><rect width="42" height="42" rx="6" fill="#fff"/></clipPath><clipPath id="clip1_686_1291"><rect width="42" height="42" rx="6" fill="#fff"/></clipPath></defs></svg>