<svg width="42" height="42" viewBox="0 0 42 42" fill="none" xmlns="http://www.w3.org/2000/svg">
    <g clip-path="url(#clip0_86_83)">
        <path d="M42.42 -0.419983H-0.420044V42.42H42.42V-0.419983Z" fill="#0082A2"/>
        <path d="M30.3996 24.8262H30.156V23.5074C30.156 22.3188 29.19 21.357 28.0056 21.357H22.0332V20.1516H23.7678C24.9564 20.1516 25.9182 19.1856 25.9182 18.0012V12.4362C25.9182 11.2476 24.9522 10.2858 23.7678 10.2858H18.2028C17.0142 10.2858 16.0524 11.2518 16.0524 12.4362V18.0012C16.0524 19.1898 17.0184 20.1516 18.2028 20.1516H19.9374V21.357H14.007C12.8184 21.357 11.8566 22.323 11.8566 23.5074V24.8262H11.613C10.4244 24.8262 9.46265 25.7922 9.46265 26.9766V29.568C9.46265 30.7566 10.4286 31.7184 11.613 31.7184H14.2044C15.393 31.7184 16.3548 30.7524 16.3548 29.568V26.9766C16.3548 25.788 15.3888 24.8262 14.2044 24.8262H13.9608V23.5074C13.9608 23.478 13.986 23.457 14.0112 23.457H19.9416V24.8304H19.698C18.5094 24.8304 17.5476 25.7964 17.5476 26.9808V29.5722C17.5476 30.7608 18.5136 31.7226 19.698 31.7226H22.2894C23.478 31.7226 24.4398 30.7566 24.4398 29.5722V26.9808C24.4398 25.7922 23.4738 24.8304 22.2894 24.8304H22.0458V23.457H28.0182C28.0476 23.457 28.0686 23.4822 28.0686 23.5074V24.8262H27.825C26.6364 24.8262 25.6746 25.7922 25.6746 26.9766V29.568C25.6746 30.7566 26.6406 31.7184 27.825 31.7184H30.4164C31.605 31.7184 32.5668 30.7524 32.5668 29.568V26.9766C32.5668 25.788 31.6008 24.8262 30.4164 24.8262H30.3996ZM18.144 17.997V12.432C18.144 12.4026 18.1692 12.3816 18.1944 12.3816H23.7594C23.7888 12.3816 23.8098 12.4068 23.8098 12.432V17.997C23.8098 18.0264 23.7846 18.0474 23.7594 18.0474H18.1944C18.165 18.0474 18.144 18.0222 18.144 17.997ZM14.2464 26.9808V29.5722C14.2464 29.6016 14.2212 29.6226 14.196 29.6226H11.6046C11.5752 29.6226 11.5542 29.5974 11.5542 29.5722V26.9808C11.5542 26.9514 11.5794 26.9304 11.6046 26.9304H14.196C14.2254 26.9304 14.2464 26.9556 14.2464 26.9808ZM22.3272 26.9808V29.5722C22.3272 29.6016 22.302 29.6226 22.2768 29.6226H19.6854C19.656 29.6226 19.635 29.5974 19.635 29.5722V26.9808C19.635 26.9514 19.6602 26.9304 19.6854 26.9304H22.2768C22.3062 26.9304 22.3272 26.9556 22.3272 26.9808ZM30.45 29.5722C30.45 29.6016 30.4248 29.6226 30.3996 29.6226H27.8082C27.7788 29.6226 27.7578 29.5974 27.7578 29.5722V26.9808C27.7578 26.9514 27.783 26.9304 27.8082 26.9304H30.3996C30.429 26.9304 30.45 26.9556 30.45 26.9808V29.5722Z" fill="white"/>
    </g>
    <defs>
        <clipPath id="clip0_86_83">
            <rect width="42" height="42" rx="6" fill="white"/>
        </clipPath>
    </defs>
</svg>
