<svg width="42" height="42" fill="none" xmlns="http://www.w3.org/2000/svg" role="img" aria-hidden="true" focusable="false"><g clip-path="url(#clip0_686_118)"><mask id="a" style="mask-type:luminance" maskUnits="userSpaceOnUse" x="0" y="0" width="42" height="42"><path d="M42 0H0v42h42V0z" fill="#fff"/></mask><g mask="url(#a)"><mask id="b" style="mask-type:luminance" maskUnits="userSpaceOnUse" x="-3" y="-3" width="48" height="48"><path d="M44.1-2.1H-2.1v46.2h46.2V-2.1z" fill="#fff"/></mask><g mask="url(#b)"><path fill="url(#pattern0_686_118)" d="M-2.1-2.217h46.368v46.368H-2.1z"/></g></g><path d="M22.949 11.08a2.197 2.197 0 0 0-3.826 0l-4.133 7.152h12.087l-4.132-7.152h.004zm-5.582 5.976l3.032-5.241a.745.745 0 0 1 .635-.374.71.71 0 0 1 .634.374l3.032 5.241m-9.937 1.911l-4.175 7.359h.013l-.021.046h9.61v-7.4h-5.423l-.004-.005zm-1.798 6.191l2.739-4.99h3.066v4.982h-5.796l-.013.012.004-.004zm8.795-6.19v7.4l9.744-.046-4.175-7.359H21.76v.004zm1.424 6.177v-4.98h3.213l2.738 4.989h-5.943l-.012-.013.004.005zm-13.07 2.176l-2.764 4.72h27.3l-2.558-4.72H10.114zm20.97 1.235l1.155 2.23-22.49.067 1.242-2.23 20.089-.067h.004z" fill="#fff"/></g><defs><clipPath id="clip0_686_118"><rect width="42" height="42" rx="6" fill="#fff"/></clipPath></defs></svg>