<svg width="42" height="42" fill="none" xmlns="http://www.w3.org/2000/svg" role="img" aria-hidden="true" focusable="false"><g clip-path="url(#clip0_657_2290)"><mask id="a" style="mask-type:luminance" maskUnits="userSpaceOnUse" x="0" y="0" width="42" height="42"><path d="M42 0H0v42h42V0z" fill="#fff"/></mask><g mask="url(#a)"><mask id="b" style="mask-type:luminance" maskUnits="userSpaceOnUse" x="-3" y="-3" width="48" height="48"><path d="M44.1-2.1H-2.1v46.2h46.2V-2.1z" fill="#fff"/></mask><g mask="url(#b)"><path fill="url(#pattern0_657_2290)" d="M-2.234-2.217h46.368v46.368H-2.234z"/></g></g><path d="M25.41 7.35h-8.954a4.775 4.775 0 0 0-4.557 4.641v17.963a4.653 4.653 0 0 0 4.611 4.696h8.9a4.653 4.653 0 0 0 4.696-4.611V11.99a4.794 4.794 0 0 0-4.696-4.64zm2.591 21.95a3.233 3.233 0 0 1-3.208 3.233H17.16a3.236 3.236 0 0 1-3.209-3.234V12.617a3.233 3.233 0 0 1 3.21-3.234h7.63a3.236 3.236 0 0 1 3.21 3.234v16.682z" fill="#fff"/><path d="M20.975 23.906a2.936 2.936 0 1 0 0-5.871 2.936 2.936 0 0 0 0 5.871zm0-7.22a2.936 2.936 0 1 0 0-5.871 2.936 2.936 0 0 0 0 5.871zm0 14.499a2.936 2.936 0 1 0 0-5.871 2.936 2.936 0 0 0 0 5.871z" fill="#fff"/></g><defs><clipPath id="clip0_657_2290"><rect width="42" height="42" rx="6" fill="#fff"/></clipPath></defs></svg>