<svg height="1600" width="1600" xmlns="http://www.w3.org/2000/svg" role="img" aria-hidden="true" focusable="false"><g fill="none" fill-rule="evenodd"><path d="M1600 800c0-441.828-358.172-800-800-800S0 358.172 0 800c0 399.303 292.548 730.266 675 790.281V1031.25H471.875V800H675V623.75c0-200.5 119.434-311.25 302.172-311.25 87.526 0 179.078 15.625 179.078 15.625V525h-100.878C955.992 525 925 586.667 925 649.933V800h221.875l-35.469 231.25H925v559.031c382.452-60.015 675-390.978 675-790.281" fill="#1877f2"/><path d="M1146.875 800H925V649.933C925 586.667 955.992 525 1055.372 525h100.878V328.125S1064.698 312.5 977.172 312.5C794.434 312.5 675 423.25 675 623.75V800H471.875v231.25H675v559.031c40.73 6.39 82.475 9.719 125 9.719s84.27-3.328 125-9.719V1031.25h186.406z" fill="#fff"/></g></svg>