<svg width="42" height="42" fill="none" xmlns="http://www.w3.org/2000/svg" role="img" aria-hidden="true" focusable="false"><g clip-path="url(#clip0_686_2369)"><mask id="a" style="mask-type:luminance" maskUnits="userSpaceOnUse" x="0" y="0" width="42" height="42"><path d="M42 0H0v42h42V0z" fill="#fff"/></mask><g mask="url(#a)"><mask id="b" style="mask-type:luminance" maskUnits="userSpaceOnUse" x="-3" y="-3" width="48" height="48"><path d="M44.1-2.1H-2.1v46.2h46.2V-2.1z" fill="#fff"/></mask><g mask="url(#b)"><path fill="url(#pattern0_686_2369)" d="M-2.234-2.15h46.368v46.368H-2.234z"/></g></g><path d="M30.799 8.052H11.2a3.848 3.848 0 0 0-3.851 3.851v11.201a3.848 3.848 0 0 0 3.851 3.852h6.565l6.69 6.69a1.053 1.053 0 0 0 1.793-.743v-5.951h4.55A3.848 3.848 0 0 0 34.65 23.1V11.9a3.848 3.848 0 0 0-3.851-3.852v.005zm0 2.1c.966 0 1.751.785 1.751 1.751v11.201c0 .966-.785 1.752-1.751 1.752H25.2c-.575 0-1.05.474-1.05 1.05v4.464l-5.208-5.208a1.045 1.045 0 0 0-.743-.306h-7.002a1.753 1.753 0 0 1-1.751-1.752V11.903c0-.966.785-1.751 1.751-1.751" fill="#fff"/><path fill-rule="evenodd" clip-rule="evenodd" d="M15.805 15.889c0-1.428 1.218-2.592 2.7-2.592 1.122 0 2.07.643 2.49 1.584.408-.924 1.374-1.584 2.491-1.584 1.5 0 2.7 1.164 2.7 2.592 0 4.17-5.195 6.93-5.195 6.93s-5.195-2.76-5.195-6.93h.009z" fill="#fff"/></g><defs><clipPath id="clip0_686_2369"><rect width="42" height="42" rx="6" fill="#fff"/></clipPath></defs></svg>