<svg width="42" height="42" viewBox="0 0 42 42" fill="none" xmlns="http://www.w3.org/2000/svg" role="img" aria-hidden="true" focusable="false">
<g clip-path="url(#clip0_1741_2549)">
<path d="M42.4201 -0.419922H-0.419922V42.4201H42.4201V-0.419922Z" fill="#0068B8"/>
<g opacity="0.5">
<path d="M16.6928 10.5028H12.8613C12.0145 10.5028 11.3276 11.1896 11.3276 12.0365V29.9663C11.3276 30.8131 12.0145 31.5 12.8613 31.5H29.1058C29.9526 31.5 30.6395 30.8131 30.6395 29.9663V12.0337C30.6395 11.1869 29.9526 10.5 29.1058 10.5H16.6928V10.5028Z" stroke="white" stroke-width="0.995797" stroke-linecap="round" stroke-linejoin="round"/>
<path d="M11.6699 10.9082V12.8943H30.6287V10.9082H11.6699ZM12.8285 12.1054C12.5995 12.1054 12.4092 11.9178 12.4092 11.6861C12.4092 11.4544 12.5968 11.2668 12.8285 11.2668C13.0602 11.2668 13.2477 11.4544 13.2477 11.6861C13.2477 11.9178 13.0602 12.1054 12.8285 12.1054ZM13.9953 12.1054C13.7663 12.1054 13.576 11.9178 13.576 11.6861C13.576 11.4544 13.7636 11.2668 13.9953 11.2668C14.227 11.2668 14.4146 11.4544 14.4146 11.6861C14.4146 11.9178 14.227 12.1054 13.9953 12.1054ZM15.129 12.1054C14.9001 12.1054 14.7097 11.9178 14.7097 11.6861C14.7097 11.4544 14.8973 11.2668 15.129 11.2668C15.3607 11.2668 15.5483 11.4544 15.5483 11.6861C15.5483 11.9178 15.3607 12.1054 15.129 12.1054Z" fill="white"/>
</g>
<path opacity="0.5" d="M27.5222 14.105H14.3424C13.8092 14.105 13.377 14.5372 13.377 15.0704C13.377 15.6036 13.8092 16.0359 14.3424 16.0359H27.5222C28.0554 16.0359 28.4877 15.6036 28.4877 15.0704C28.4877 14.5372 28.0554 14.105 27.5222 14.105Z" fill="white"/>
<path opacity="0.5" d="M21.233 25.2051H14.3424C13.8092 25.2051 13.377 25.6373 13.377 26.1705C13.377 26.7037 13.8092 27.136 14.3424 27.136H21.233C21.7662 27.136 22.1984 26.7037 22.1984 26.1705C22.1984 25.6373 21.7662 25.2051 21.233 25.2051Z" fill="white"/>
<path opacity="0.5" d="M27.5222 28.1484H14.3424C13.8092 28.1484 13.377 28.5807 13.377 29.1139C13.377 29.6471 13.8092 30.0793 14.3424 30.0793H27.5222C28.0554 30.0793 28.4877 29.6471 28.4877 29.1139C28.4877 28.5807 28.0554 28.1484 27.5222 28.1484Z" fill="white"/>
<path d="M28.9266 17.3052H12.9856C11.1926 17.3052 9.7417 18.7589 9.7417 20.5491C9.7417 22.3421 11.1954 23.793 12.9856 23.793H24.5242V26.7225C24.5242 26.8521 24.6814 26.9156 24.7724 26.8245L27.804 23.793H28.9266C30.7196 23.793 32.1706 22.3393 32.1706 20.5491C32.1706 18.7561 30.7169 17.3052 28.9266 17.3052Z" fill="#0068B8" stroke="white" stroke-width="0.827532" stroke-miterlimit="10"/>
<path fill-rule="evenodd" clip-rule="evenodd" d="M13.3523 19.4431C12.7731 19.4431 12.3014 19.9121 12.3014 20.4941C12.3014 21.0761 12.7703 21.5451 13.3523 21.5451C13.9344 21.5451 14.4033 21.0761 14.4033 20.4941C14.4033 19.9121 13.9344 19.4431 13.3523 19.4431ZM12.0697 20.4941C12.0697 19.7852 12.6434 19.2114 13.3523 19.2114C14.0612 19.2114 14.635 19.7852 14.635 20.4941C14.635 20.7948 14.5302 21.0844 14.3371 21.3161L15.0681 22.0471C15.115 22.0912 15.1177 22.1657 15.0736 22.2126C15.0295 22.2595 14.955 22.2623 14.9081 22.2181C14.9081 22.2181 14.9053 22.2154 14.9026 22.2126L14.1716 21.4816C13.6254 21.9368 12.8172 21.8623 12.3648 21.3161C12.1717 21.0844 12.0669 20.7948 12.0669 20.4941H12.0697Z" stroke="white" stroke-width="0.413766" stroke-miterlimit="10"/>
</g>
<defs>
<clipPath id="clip0_1741_2549">
<rect width="42" height="42" rx="6" fill="white"/>
</clipPath>
</defs>
</svg>
