<svg width="42" height="42" viewBox="0 0 42 42" fill="none" xmlns="http://www.w3.org/2000/svg" xmlns:xlink="http://www.w3.org/1999/xlink">
<g clip-path="url(#clip0_686_278)">
<mask id="mask0_686_278" style="mask-type:luminance" maskUnits="userSpaceOnUse" x="0" y="0" width="42" height="42">
<path d="M42 0H0V42H42V0Z" fill="white"/>
</mask>
<g mask="url(#mask0_686_278)">
<mask id="mask1_686_278" style="mask-type:luminance" maskUnits="userSpaceOnUse" x="-3" y="-3" width="48" height="48">
<path d="M44.1 -2.1001H-2.10001V44.0999H44.1V-2.1001Z" fill="white"/>
</mask>
<g mask="url(#mask1_686_278)">
<rect x="-2.09991" y="-2.15039" width="46.368" height="46.368" fill="url(#pattern0_686_278)"/>
</g>
</g>
<path d="M31.416 12.0916L27.2076 7.8748C26.8716 7.5388 26.4264 7.354 25.9476 7.354H16.6068C15.4224 7.354 14.4564 8.32 14.4564 9.5044V12.058H12.2136C11.0292 12.058 10.0632 13.024 10.0632 14.2084V32.4994C10.0632 33.6838 11.0292 34.6498 12.2136 34.6498H25.389C26.5734 34.6498 27.5394 33.6838 27.5394 32.4994V29.9458H29.7822C30.9666 29.9458 31.9326 28.9798 31.9326 27.7954V13.3474C31.9326 12.8728 31.7478 12.4276 31.4118 12.0916H31.416ZM29.8284 13.4818V13.6246H25.809C25.6956 13.6246 25.6032 13.5322 25.6032 13.4188V9.454H25.8132L29.8284 13.4818ZM25.4352 32.4994C25.4352 32.5246 25.4142 32.5456 25.389 32.5456H12.2136C12.1884 32.5456 12.1674 32.5246 12.1674 32.4994V14.2084C12.1674 14.1832 12.1884 14.1622 12.2136 14.1622H14.4564V27.7954C14.4564 28.9798 15.4224 29.9458 16.6068 29.9458H25.431V32.4994H25.4352ZM29.7822 27.8374H16.6068C16.5816 27.8374 16.5606 27.8164 16.5606 27.7912V9.5002C16.5606 9.475 16.5816 9.454 16.6068 9.454H23.4948V13.4188C23.4948 14.6914 24.5322 15.7288 25.8048 15.7288H29.8242V27.7912C29.8242 27.8164 29.8032 27.8374 29.778 27.8374H29.7822Z" fill="white"/>
</g>
<defs>
<pattern id="pattern0_686_278" patternContentUnits="objectBoundingBox" width="1" height="1">
</pattern>
<clipPath id="clip0_686_278">
<rect width="42" height="42" rx="6" fill="white"/>
</clipPath>
</defs>
</svg>
