<svg width="42" height="42" viewBox="0 0 42 42" fill="none" xmlns="http://www.w3.org/2000/svg" xmlns:xlink="http://www.w3.org/1999/xlink">
<g clip-path="url(#clip0_686_118)">
<mask id="mask0_686_118" style="mask-type:luminance" maskUnits="userSpaceOnUse" x="0" y="0" width="42" height="42">
<path d="M42 0H0V42H42V0Z" fill="white"/>
</mask>
<g mask="url(#mask0_686_118)">
<mask id="mask1_686_118" style="mask-type:luminance" maskUnits="userSpaceOnUse" x="-3" y="-3" width="48" height="48">
<path d="M44.1 -2.1001H-2.10001V44.0999H44.1V-2.1001Z" fill="white"/>
</mask>
<g mask="url(#mask1_686_118)">
<rect x="-2.09991" y="-2.21729" width="46.368" height="46.368" fill="url(#pattern0_686_118)"/>
</g>
</g>
<path d="M22.9488 11.0797C22.3524 10.0213 21.0126 9.65172 19.9584 10.2439C19.6098 10.4413 19.32 10.7311 19.1226 11.0797L14.9898 18.2323H27.0774L22.9446 11.0797H22.9488ZM17.367 17.0563L20.3994 11.8147C20.5338 11.5879 20.7732 11.4409 21.0336 11.4409C21.294 11.4409 21.5418 11.5753 21.6678 11.8147L24.7002 17.0563M14.763 18.9673L10.5882 26.3257H10.6008L10.5798 26.3719H20.1894V18.9715H14.7672L14.763 18.9673ZM12.9654 25.1581L15.7038 20.1685H18.7698V25.1497H12.9738L12.9612 25.1623L12.9654 25.1581ZM21.7602 18.9673V26.3677L31.5042 26.3215L27.3294 18.9631H21.7602V18.9673ZM23.184 25.1455V20.1643H26.397L29.1354 25.1539H23.1924L23.1798 25.1413L23.184 25.1455ZM10.1136 27.3211L7.35001 32.0419H34.65L32.0922 27.3211H10.1136ZM31.0842 28.5559L32.2392 30.7861L9.74821 30.8533L10.9914 28.6231L31.08 28.5559H31.0842Z" fill="white"/>
</g>
<defs>
<pattern id="pattern0_686_118" patternContentUnits="objectBoundingBox" width="1" height="1">
</pattern>
<clipPath id="clip0_686_118">
<rect width="42" height="42" rx="6" fill="white"/>
</clipPath>
</defs>
</svg>
