<svg width="42" height="42" fill="none" xmlns="http://www.w3.org/2000/svg" role="img" aria-hidden="true" focusable="false"><g clip-path="url(#clip0_686_1029)"><mask id="a" style="mask-type:luminance" maskUnits="userSpaceOnUse" x="0" y="0" width="42" height="42"><path d="M42 0H0v42h42V0z" fill="#fff"/></mask><g mask="url(#a)"><mask id="b" style="mask-type:luminance" maskUnits="userSpaceOnUse" x="-3" y="-3" width="48" height="48"><path d="M44.1-2.1H-2.1v46.2h46.2V-2.1z" fill="#fff"/></mask><g mask="url(#b)"><path fill="url(#pattern0_686_1029)" d="M-2.1-2.217h46.368v46.368H-2.1z"/></g></g><path d="M21.038 24.641a3.641 3.641 0 1 0 0-7.283 3.641 3.641 0 0 0 0 7.283z" fill="#fff"/><path d="M21.038 14.427a3.515 3.515 0 1 0 0-7.031 3.515 3.515 0 0 0 0 7.03z" stroke="#fff" stroke-width="1.68" stroke-miterlimit="10"/><path d="M9.253 17.439a2.264 2.264 0 1 0 0-4.528 2.264 2.264 0 0 0 0 4.528zm23.852-.362a2.264 2.264 0 1 0 0-4.528 2.264 2.264 0 0 0 0 4.528zM21.038 34.96a2.264 2.264 0 1 0 0-4.527 2.264 2.264 0 0 0 0 4.528z" fill="#fff"/><path d="M21.038 14.427v16.8M9.252 15.174l18.863 9.366m4.633-9.366l-18.745 9.068" stroke="#fff" stroke-width="2.1" stroke-miterlimit="10"/><path d="M10.958 29.505a3.515 3.515 0 1 0 0-7.03 3.515 3.515 0 0 0 0 7.03zM31 29.266a3.515 3.515 0 1 0 0-7.031 3.515 3.515 0 0 0 0 7.03z" stroke="#fff" stroke-width="1.68" stroke-miterlimit="10"/></g><defs><clipPath id="clip0_686_1029"><rect width="42" height="42" rx="6" fill="#fff"/></clipPath></defs></svg>