<svg width="42" height="42" viewBox="0 0 42 42" fill="none" xmlns="http://www.w3.org/2000/svg" xmlns:xlink="http://www.w3.org/1999/xlink">
<g clip-path="url(#clip0_686_1291)">
<g clip-path="url(#clip1_686_1291)">
<mask id="mask0_686_1291" style="mask-type:luminance" maskUnits="userSpaceOnUse" x="0" y="0" width="42" height="42">
<path d="M42 0H0V42H42V0Z" fill="white"/>
</mask>
<g mask="url(#mask0_686_1291)">
<mask id="mask1_686_1291" style="mask-type:luminance" maskUnits="userSpaceOnUse" x="-3" y="-3" width="48" height="48">
<path d="M44.1 -2.1001H-2.10001V44.0999H44.1V-2.1001Z" fill="white"/>
</mask>
<g mask="url(#mask1_686_1291)">
<rect x="-2.09991" y="-2.15039" width="46.368" height="46.368" fill="url(#pattern0_686_1291)"/>
</g>
</g>
<path d="M34.1292 31.5967L27.3126 24.7801C28.665 22.9027 29.379 20.6935 29.379 18.3625C29.379 12.2893 24.4398 7.3501 18.3666 7.3501C12.2934 7.3501 7.35001 12.2893 7.35001 18.3625C7.35001 24.4357 12.2892 29.3749 18.3666 29.3749C20.6976 29.3749 22.9068 28.6609 24.7842 27.3085L31.6008 34.1251C31.9368 34.4653 32.3862 34.6501 32.865 34.6501C33.3438 34.6501 33.7932 34.4653 34.1292 34.1251C34.8264 33.4279 34.8264 32.2939 34.1292 31.5967ZM18.3666 10.9285C22.4658 10.9285 25.8048 14.2633 25.8048 18.3667C25.8048 22.4701 22.47 25.8049 18.3666 25.8049C14.2632 25.8049 10.9284 22.4701 10.9284 18.3667C10.9284 14.2633 14.2632 10.9285 18.3666 10.9285Z" fill="white"/>
</g>
</g>
<defs>
<pattern id="pattern0_686_1291" patternContentUnits="objectBoundingBox" width="1" height="1">
</pattern>
<clipPath id="clip0_686_1291">
<rect width="42" height="42" rx="6" fill="white"/>
</clipPath>
<clipPath id="clip1_686_1291">
<rect width="42" height="42" rx="6" fill="white"/>
</clipPath>
</defs>
</svg>
