<svg width="42" height="42" viewBox="0 0 42 42" fill="none" xmlns="http://www.w3.org/2000/svg">
    <g clip-path="url(#clip0_86_693)">
        <path d="M42.4201 -0.42H-0.419922V42.42H42.4201V-0.42Z" fill="#14AEAE"/>
        <path d="M21 31.5C19.3032 31.5 17.9256 30.1224 17.9256 28.4256V27.8628C17.9256 27.1698 17.6442 26.4936 17.157 26.0064L16.5774 25.4268C15.3972 24.2466 14.7462 22.6716 14.7462 21C14.7462 19.3284 15.3972 17.7576 16.5816 16.5774C17.7618 15.3972 19.3368 14.7462 21.0042 14.7462C22.6758 14.7462 24.2466 15.3972 25.4268 16.5774C27.867 19.0176 27.867 22.9866 25.4268 25.4268L24.8472 26.0064C24.6456 26.208 24.4818 26.4348 24.3558 26.6826C24.3474 26.7078 24.3348 26.733 24.3222 26.754C24.1626 27.0942 24.0786 27.4722 24.0786 27.8586V28.4214C24.0786 30.1182 22.701 31.4958 21.0042 31.4958L21 31.5ZM19.7904 27.258C19.8156 27.4554 19.8324 27.6612 19.8324 27.8628V28.4256C19.8324 29.0682 20.3574 29.5932 21 29.5932C21.6426 29.5932 22.1676 29.0682 22.1676 28.4256V27.8628C22.1676 27.6612 22.1802 27.4554 22.2054 27.258H19.7904ZM19.0722 25.347H22.9236C23.0874 25.0992 23.2806 24.8682 23.4948 24.654L24.0744 24.0744C25.767 22.3776 25.767 19.6224 24.0744 17.9256C23.2512 17.1024 22.1592 16.653 21 16.653C19.8366 16.653 18.7488 17.1066 17.9256 17.9256C17.1024 18.7488 16.653 19.8408 16.653 21C16.653 22.1592 17.1066 23.2512 17.9256 24.0744L18.5052 24.654C18.7194 24.8682 18.9084 25.0992 19.0722 25.347ZM30.5466 21.9534H29.4882C28.959 21.9534 28.5348 21.525 28.5348 21C28.5348 20.475 28.9632 20.0466 29.4882 20.0466H30.5466C31.0758 20.0466 31.5 20.475 31.5 21C31.5 21.525 31.0716 21.9534 30.5466 21.9534ZM12.516 21.9534H11.4534C10.9242 21.9534 10.5 21.525 10.5 21C10.5 20.475 10.9284 20.0466 11.4534 20.0466H12.516C13.0452 20.0466 13.4694 20.475 13.4694 21C13.4694 21.525 13.041 21.9534 12.516 21.9534ZM27.0018 15.9558C26.7582 15.9558 26.5146 15.8634 26.3256 15.6744C25.9518 15.3006 25.9518 14.6958 26.3256 14.3262L27.0774 13.5744C27.4512 13.2006 28.056 13.2006 28.4256 13.5744C28.7952 13.9482 28.7994 14.553 28.4256 14.9226L27.6738 15.6744C27.489 15.8592 27.2412 15.9558 26.9976 15.9558H27.0018ZM14.9982 15.9558C14.7546 15.9558 14.511 15.8634 14.322 15.6744L13.5702 14.9226C13.1964 14.5488 13.1964 13.944 13.5702 13.5744C13.944 13.2006 14.5488 13.2006 14.9184 13.5744L15.6702 14.3262C16.044 14.7 16.044 15.3048 15.6702 15.6744C15.4854 15.8592 15.2376 15.9558 14.994 15.9558H14.9982ZM21 13.4694C20.4708 13.4694 20.0466 13.041 20.0466 12.516V11.4576C20.0466 10.9284 20.475 10.5042 21 10.5042C21.525 10.5042 21.9534 10.9326 21.9534 11.4576V12.516C21.9534 13.0452 21.525 13.4694 21 13.4694Z" fill="white"/>
    </g>
    <defs>
        <clipPath id="clip0_86_693">
            <rect width="42" height="42" rx="6" fill="white"/>
        </clipPath>
    </defs>
</svg>
