<svg width="42" height="42" viewBox="0 0 42 42" fill="none" xmlns="http://www.w3.org/2000/svg" xmlns:xlink="http://www.w3.org/1999/xlink">
<g clip-path="url(#clip0_686_2369)">
<mask id="mask0_686_2369" style="mask-type:luminance" maskUnits="userSpaceOnUse" x="0" y="0" width="42" height="42">
<path d="M42 0H0V42H42V0Z" fill="white"/>
</mask>
<g mask="url(#mask0_686_2369)">
<mask id="mask1_686_2369" style="mask-type:luminance" maskUnits="userSpaceOnUse" x="-3" y="-3" width="48" height="48">
<path d="M44.1 -2.1001H-2.10001V44.0999H44.1V-2.1001Z" fill="white"/>
</mask>
<g mask="url(#mask1_686_2369)">
<rect x="-2.23422" y="-2.15039" width="46.368" height="46.368" fill="url(#pattern0_686_2369)"/>
</g>
</g>
<path d="M30.7986 8.05156H11.2014C9.07201 8.05156 7.35001 9.77356 7.35001 11.903V23.1044C7.35001 25.2338 9.07201 26.9558 11.2014 26.9558H17.766L24.4566 33.6464C24.654 33.8438 24.9312 33.953 25.2 33.953C25.7796 33.953 26.2458 33.4826 26.25 32.903V26.9516H30.7986C32.928 26.9516 34.65 25.2296 34.65 23.1002V11.8988C34.65 9.76936 32.928 8.04736 30.7986 8.04736V8.05156ZM30.7986 10.1516C31.7646 10.1516 32.55 10.937 32.55 11.903V23.1044C32.55 24.0704 31.7646 24.8558 30.7986 24.8558H25.2C24.6246 24.8558 24.15 25.3304 24.15 25.9058V30.3704L18.942 25.1624C18.7446 24.965 18.48 24.8558 18.1986 24.8558H11.1972C10.2312 24.8558 9.44581 24.0704 9.44581 23.1044V11.903C9.44581 10.937 10.2312 10.1516 11.1972 10.1516" fill="white"/>
<path fill-rule="evenodd" clip-rule="evenodd" d="M15.8045 15.8888C15.8045 14.4608 17.0225 13.2974 18.5051 13.2974C19.6265 13.2974 20.5757 13.94 20.9957 14.8808C21.4031 13.9568 22.3691 13.2974 23.4863 13.2974C24.9857 13.2974 26.1869 14.4608 26.1869 15.8888C26.1869 20.0594 20.9915 22.8188 20.9915 22.8188C20.9915 22.8188 15.7961 20.0594 15.7961 15.8888H15.8045Z" fill="white"/>
</g>
<defs>
<pattern id="pattern0_686_2369" patternContentUnits="objectBoundingBox" width="1" height="1">
</pattern>
<clipPath id="clip0_686_2369">
<rect width="42" height="42" rx="6" fill="white"/>
</clipPath>
</defs>
</svg>
