<svg width="42" height="42" viewBox="0 0 42 42" fill="none" xmlns="http://www.w3.org/2000/svg">
	<g clip-path="url(#clip0_251_208)">
		<path d="M42.42 -0.419922H-0.419983V42.4201H42.42V-0.419922Z" fill="#0068B8"/>
		<g opacity="0.5">
			<path d="M16.6928 10.5028H12.8613C12.0145 10.5028 11.3276 11.1896 11.3276 12.0365V29.9663C11.3276 30.8131 12.0145 31.5 12.8613 31.5H29.1058C29.9526 31.5 30.6395 30.8131 30.6395 29.9663V12.0337C30.6395 11.1869 29.9526 10.5 29.1058 10.5H16.6928V10.5028Z" stroke="white" stroke-width="0.995797" stroke-linecap="round" stroke-linejoin="round"/>
			<path d="M11.6698 10.9082V12.8943H30.6286V10.9082H11.6698ZM12.8283 12.1054C12.5994 12.1054 12.4091 11.9178 12.4091 11.6861C12.4091 11.4544 12.5966 11.2668 12.8283 11.2668C13.0601 11.2668 13.2476 11.4544 13.2476 11.6861C13.2476 11.9178 13.0601 12.1054 12.8283 12.1054ZM13.9952 12.1054C13.7662 12.1054 13.5759 11.9178 13.5759 11.6861C13.5759 11.4544 13.7635 11.2668 13.9952 11.2668C14.2269 11.2668 14.4144 11.4544 14.4144 11.6861C14.4144 11.9178 14.2269 12.1054 13.9952 12.1054ZM15.1289 12.1054C14.8999 12.1054 14.7096 11.9178 14.7096 11.6861C14.7096 11.4544 14.8972 11.2668 15.1289 11.2668C15.3606 11.2668 15.5482 11.4544 15.5482 11.6861C15.5482 11.9178 15.3606 12.1054 15.1289 12.1054Z" fill="white"/>
		</g>
		<path opacity="0.5" d="M27.5225 14.1052H14.3427C13.8094 14.1052 13.3772 14.5375 13.3772 15.0707C13.3772 15.6039 13.8094 16.0361 14.3427 16.0361H27.5225C28.0557 16.0361 28.4879 15.6039 28.4879 15.0707C28.4879 14.5375 28.0557 14.1052 27.5225 14.1052Z" fill="white"/>
		<path opacity="0.5" d="M21.2332 25.2051H14.3427C13.8094 25.2051 13.3772 25.6373 13.3772 26.1705C13.3772 26.7037 13.8094 27.136 14.3427 27.136H21.2332C21.7664 27.136 22.1987 26.7037 22.1987 26.1705C22.1987 25.6373 21.7664 25.2051 21.2332 25.2051Z" fill="white"/>
		<path opacity="0.5" d="M27.5225 28.1484H14.3427C13.8094 28.1484 13.3772 28.5807 13.3772 29.1139C13.3772 29.6471 13.8094 30.0793 14.3427 30.0793H27.5225C28.0557 30.0793 28.4879 29.6471 28.4879 29.1139C28.4879 28.5807 28.0557 28.1484 27.5225 28.1484Z" fill="white"/>
		<path d="M28.9265 17.3049H12.9854C11.1925 17.3049 9.74152 18.7586 9.74152 20.5489C9.74152 22.3418 11.1952 23.7928 12.9854 23.7928H24.524V26.7222C24.524 26.8519 24.6812 26.9153 24.7723 26.8243L27.8038 23.7928H28.9265C30.7194 23.7928 32.1704 22.3391 32.1704 20.5489C32.1704 18.7559 30.7167 17.3049 28.9265 17.3049Z" fill="#0068B8" stroke="white" stroke-width="0.827532" stroke-miterlimit="10"/>
		<path fill-rule="evenodd" clip-rule="evenodd" d="M13.3521 19.4426C12.7728 19.4426 12.3011 19.9116 12.3011 20.4936C12.3011 21.0756 12.7701 21.5446 13.3521 21.5446C13.9341 21.5446 14.403 21.0756 14.403 20.4936C14.403 19.9116 13.9341 19.4426 13.3521 19.4426ZM12.0694 20.4936C12.0694 19.7847 12.6432 19.2109 13.3521 19.2109C14.061 19.2109 14.6348 19.7847 14.6348 20.4936C14.6348 20.7943 14.5299 21.0839 14.3368 21.3156L15.0678 22.0466C15.1147 22.0907 15.1175 22.1652 15.0733 22.2121C15.0292 22.259 14.9547 22.2618 14.9078 22.2176C14.9078 22.2176 14.9051 22.2149 14.9023 22.2121L14.1713 21.4811C13.6252 21.9363 12.8169 21.8618 12.3646 21.3156C12.1715 21.0839 12.0667 20.7943 12.0667 20.4936H12.0694Z" stroke="white" stroke-width="0.413766" stroke-miterlimit="10"/>
	</g>
	<defs>
		<clipPath id="clip0_251_208">
			<rect width="42" height="42" rx="6" fill="white"/>
		</clipPath>
	</defs>
</svg>
