<svg width="42" height="42" viewBox="0 0 42 42" fill="none" xmlns="http://www.w3.org/2000/svg" xmlns:xlink="http://www.w3.org/1999/xlink">
<g clip-path="url(#clip0_686_2333)">
<mask id="mask0_686_2333" style="mask-type:luminance" maskUnits="userSpaceOnUse" x="0" y="0" width="42" height="42">
<path d="M42 0H0V42H42V0Z" fill="white"/>
</mask>
<g mask="url(#mask0_686_2333)">
<mask id="mask1_686_2333" style="mask-type:luminance" maskUnits="userSpaceOnUse" x="-3" y="-3" width="48" height="48">
<path d="M44.1 -2.1001H-2.10001V44.0999H44.1V-2.1001Z" fill="white"/>
</mask>
<g mask="url(#mask1_686_2333)">
<rect x="-2.23422" y="-2.28467" width="46.368" height="46.5696" fill="url(#pattern0_686_2333)"/>
</g>
</g>
<path d="M10.626 34.4021C10.5714 34.4651 10.5798 34.5617 10.6428 34.6121C10.7058 34.6667 10.8024 34.6583 10.8528 34.5953C10.8654 34.5785 10.878 34.5575 10.8822 34.5365C15.1704 27.1487 19.446 30.5633 25.305 26.6993C21.3192 26.6993 20.2231 24.5699 20.2231 24.5699C22.4574 25.6787 25.032 25.8677 27.405 25.1033C28.77 24.0113 31.2144 21.4997 31.4076 16.1027C30.3912 16.6319 29.2153 16.7747 28.1023 16.4975C29.4085 16.0859 30.555 15.2711 31.3782 14.1749C31.3992 11.4029 29.9839 8.8199 27.6361 7.3457C28.7155 21.4535 15.1116 15.3761 11.7012 32.3231C13.1922 28.5095 15.9936 25.3553 19.6098 23.4317C23.4738 21.3989 26.6406 19.4291 27.804 14.2673C26.9304 20.4959 24.1165 22.8017 20.2231 24.5489C16.5901 26.1869 12.8604 28.2071 10.6218 34.3937L10.626 34.4021Z" fill="white"/>
</g>
<defs>
<pattern id="pattern0_686_2333" patternContentUnits="objectBoundingBox" width="1" height="1">
</pattern>
<clipPath id="clip0_686_2333">
<rect width="42" height="42" rx="6" fill="white"/>
</clipPath>
</defs>
</svg>
