<svg width="42" height="42" viewBox="0 0 42 42" fill="none" xmlns="http://www.w3.org/2000/svg" xmlns:xlink="http://www.w3.org/1999/xlink">
<g clip-path="url(#clip0_657_2290)">
<mask id="mask0_657_2290" style="mask-type:luminance" maskUnits="userSpaceOnUse" x="0" y="0" width="42" height="42">
<path d="M42 0H0V42H42V0Z" fill="white"/>
</mask>
<g mask="url(#mask0_657_2290)">
<mask id="mask1_657_2290" style="mask-type:luminance" maskUnits="userSpaceOnUse" x="-3" y="-3" width="48" height="48">
<path d="M44.1 -2.1001H-2.10001V44.0999H44.1V-2.1001Z" fill="white"/>
</mask>
<g mask="url(#mask1_657_2290)">
<rect x="-2.23422" y="-2.21729" width="46.368" height="46.368" fill="url(#pattern0_657_2290)"/>
</g>
</g>
<path d="M25.41 7.3501H16.4556C13.9566 7.4635 11.9658 9.4879 11.8986 11.9911V29.9545C11.8776 32.5249 13.9398 34.6291 16.5102 34.6501C16.5186 34.6501 16.527 34.6501 16.5396 34.6501H25.41C27.9804 34.6711 30.0846 32.6089 30.1056 30.0385C30.1056 30.0091 30.1056 29.9839 30.1056 29.9545V11.9911C30.0258 9.4417 27.9594 7.4005 25.41 7.3501ZM28.0014 29.2993C28.0014 31.0759 26.5692 32.5207 24.7926 32.5333H17.1612C15.3846 32.5165 13.9524 31.0759 13.9524 29.2993V12.6169C13.9524 10.8403 15.3846 9.3955 17.1612 9.3829H24.7926C26.5692 9.3997 28.0014 10.8403 28.0014 12.6169V29.2951V29.2993Z" fill="white"/>
<path d="M20.9749 23.9063C22.5963 23.9063 23.9107 22.5919 23.9107 20.9705C23.9107 19.3491 22.5963 18.0347 20.9749 18.0347C19.3535 18.0347 18.0391 19.3491 18.0391 20.9705C18.0391 22.5919 19.3535 23.9063 20.9749 23.9063Z" fill="white"/>
<path d="M20.9749 16.6865C22.5963 16.6865 23.9107 15.3721 23.9107 13.7507C23.9107 12.1293 22.5963 10.8149 20.9749 10.8149C19.3535 10.8149 18.0391 12.1293 18.0391 13.7507C18.0391 15.3721 19.3535 16.6865 20.9749 16.6865Z" fill="white"/>
<path d="M20.9749 31.1851C22.5963 31.1851 23.9107 29.8707 23.9107 28.2493C23.9107 26.6279 22.5963 25.3135 20.9749 25.3135C19.3535 25.3135 18.0391 26.6279 18.0391 28.2493C18.0391 29.8707 19.3535 31.1851 20.9749 31.1851Z" fill="white"/>
</g>
<defs>
<pattern id="pattern0_657_2290" patternContentUnits="objectBoundingBox" width="1" height="1">
</pattern>
<clipPath id="clip0_657_2290">
<rect width="42" height="42" rx="6" fill="white"/>
</clipPath>
</defs>
</svg>
