<svg width="42" height="42" viewBox="0 0 42 42" fill="none" xmlns="http://www.w3.org/2000/svg">
    <g clip-path="url(#clip0_86_628)">
        <path d="M42.42 -0.42H-0.420044V42.42H42.42V-0.42Z" fill="#AA9A6B"/>
        <path d="M13.02 31.311C12.978 31.3614 12.9864 31.4328 13.0326 31.4748C13.083 31.5168 13.1544 31.5084 13.1964 31.4622C13.209 31.4496 13.2174 31.4328 13.2216 31.416C16.5186 25.7334 19.8072 28.3584 24.3138 25.3848C21.2478 25.3848 20.4078 23.7468 20.4078 23.7468C22.1256 24.5994 24.108 24.7464 25.935 24.1584C26.985 23.3184 28.8666 21.3864 29.0136 17.2368C28.2324 17.6442 27.3294 17.7534 26.4726 17.5434C27.4806 17.2242 28.3584 16.6026 28.9926 15.7584C29.0094 13.629 27.9216 11.6382 26.1156 10.5042C26.9472 21.357 16.4808 16.6824 13.8558 29.7192C15.0024 26.7876 17.157 24.36 19.9374 22.8816C22.911 21.315 25.347 19.803 26.2416 15.834C25.5696 20.6262 23.4066 22.3986 20.412 23.7426C17.619 25.0026 14.7504 26.5566 13.0284 31.3152L13.02 31.311Z" fill="white"/>
    </g>
    <defs>
        <clipPath id="clip0_86_628">
            <rect width="42" height="42" rx="6" fill="white"/>
        </clipPath>
    </defs>
</svg>
