<svg width="42" height="42" viewBox="0 0 42 42" fill="none" xmlns="http://www.w3.org/2000/svg">
  <g transform="translate(8,10.5)">
    <path fill-rule="evenodd" clip-rule="evenodd" d="M0 1.8018C0 0.8064 0.8064 0 1.8018 0H23.4024C24.3978 0 25.2042 0.8064 25.2042 1.8018C25.2042 2.7972 24.3978 3.6036 23.4024 3.6036H1.8018C0.8064 3.6036 0 2.7972 0 1.8018ZM0 10.3824C0 9.387 0.8064 8.5806 1.8018 8.5806H23.4024C24.3978 8.5806 25.2042 9.387 25.2042 10.3824C25.2042 11.3778 24.3978 12.1842 23.4024 12.1842H1.8018C0.8064 12.1842 0 11.3778 0 10.3824ZM0 18.963C0 17.9676 0.8064 17.1612 1.8018 17.1612H23.4024C24.3978 17.1612 25.2042 17.9676 25.2042 18.963C25.2042 19.9584 24.3978 20.7648 23.4024 20.7648H1.8018C0.8064 20.7648 0 19.9584 0 18.963Z" fill="white"/>
  </g>
</svg>