<svg width="42" height="42" fill="none" xmlns="http://www.w3.org/2000/svg" role="img" aria-hidden="true" focusable="false"><g clip-path="url(#clip0_686_1527)"><mask id="a" style="mask-type:luminance" maskUnits="userSpaceOnUse" x="0" y="0" width="42" height="42"><path d="M42 0H0v42h42V0z" fill="#fff"/></mask><g mask="url(#a)"><mask id="b" style="mask-type:luminance" maskUnits="userSpaceOnUse" x="-3" y="-3" width="48" height="48"><path d="M44.1-2.1H-2.1v46.2h46.2V-2.1z" fill="#fff"/></mask><g mask="url(#b)"><path fill="url(#pattern0_686_1527)" d="M-2.167-2.285h46.368v46.57H-2.167z"/></g></g><path d="M28.917 8.673H33.1l-9.19 10.462 10.736 14.192H26.22l-6.594-8.623-7.552 8.623H7.892l9.735-11.189L7.35 8.673h8.631l5.96 7.88 6.976-7.88zM27.455 30.87h2.319L14.763 11.038h-2.49L27.454 30.87z" fill="#fff"/></g><defs><clipPath id="clip0_686_1527"><rect width="42" height="42" rx="6" fill="#fff"/></clipPath></defs></svg>