<svg width="42" height="42" viewBox="0 0 42 42" fill="none" xmlns="http://www.w3.org/2000/svg">
    <g clip-path="url(#clip0_86_72)">
        <path d="M42.42 -0.419983H-0.420044V42.42H42.42V-0.419983Z" fill="#407D84"/>
        <path d="M31.5 32.55C31.2311 32.55 30.9624 32.4492 30.7566 32.2434L24.3936 25.8804C22.8186 27.132 20.8278 27.8838 18.6648 27.8838C13.5828 27.8838 9.44995 23.751 9.44995 18.669C9.44995 13.587 13.5828 9.45422 18.6648 9.45422C23.7467 9.45422 27.8795 13.587 27.8795 18.669C27.8795 20.832 27.132 22.8228 25.8762 24.3978L32.2392 30.7608C32.6508 31.1724 32.6508 31.836 32.2392 32.2476C32.0334 32.4534 31.7645 32.5542 31.4958 32.5542L31.5 32.55ZM18.6648 11.55C14.742 11.55 11.55 14.742 11.55 18.6648C11.55 22.5876 14.742 25.7796 18.6648 25.7796C22.5876 25.7796 25.7796 22.5876 25.7796 18.6648C25.7796 14.742 22.5876 11.55 18.6648 11.55Z" fill="white"/>
    </g>
    <defs>
        <clipPath id="clip0_86_72">
            <rect width="42" height="42" rx="6" fill="white"/>
        </clipPath>
    </defs>
</svg>
