<svg width="42" height="42" fill="none" xmlns="http://www.w3.org/2000/svg" role="img" aria-hidden="true" focusable="false"><g clip-path="url(#clip0_686_2408)"><mask id="a" style="mask-type:luminance" maskUnits="userSpaceOnUse" x="0" y="0" width="42" height="42"><path d="M42 0H0v42h42V0z" fill="#fff"/></mask><g mask="url(#a)"><mask id="b" style="mask-type:luminance" maskUnits="userSpaceOnUse" x="-3" y="-3" width="48" height="48"><path d="M44.1-2.1H-2.1v46.2h46.2V-2.1z" fill="#fff"/></mask><g mask="url(#b)"><path fill="url(#pattern0_686_2408)" d="M-2.234-2.217h46.368v46.368H-2.234z"/></g></g><path d="M21 34.65a4.003 4.003 0 0 1-3.998-3.999v-.73c0-.9-.366-1.777-1-2.411l-.756-.752a8.078 8.078 0 0 1-2.382-5.754c0-2.171.849-4.217 2.382-5.75a8.076 8.076 0 0 1 5.75-2.381c2.171 0 4.216.848 5.75 2.381 3.17 3.171 3.17 8.333 0 11.504l-.756.756a3.52 3.52 0 0 0-.639.878c-.012.033-.03.063-.046.096a3.42 3.42 0 0 0-.315 1.441v.73a4.003 4.003 0 0 1-3.998 4l.008-.01zm-1.57-5.515c.033.26.054.521.054.786v.73c0 .836.68 1.517 1.516 1.517s1.516-.68 1.516-1.517v-.73c0-.265.017-.525.05-.786H19.43zm-.938-2.482h5.011c.214-.32.462-.622.74-.899l.755-.756a5.663 5.663 0 0 0 0-7.992A5.616 5.616 0 0 0 21 15.35a5.63 5.63 0 0 0-3.998 1.655 5.616 5.616 0 0 0-1.655 3.998c0 1.512.588 2.927 1.655 3.998l.756.752c.277.277.52.58.735.903v-.004zm14.919-4.414h-1.378a1.239 1.239 0 1 1 0-2.478h1.378a1.239 1.239 0 1 1 0 2.478zm-23.44 0H8.593a1.239 1.239 0 1 1 0-2.478h1.378a1.239 1.239 0 1 1 0 2.478zm18.828-7.8a1.245 1.245 0 0 1-.878-2.121l.975-.974a1.24 1.24 0 1 1 1.756 1.756l-.975.974a1.234 1.234 0 0 1-.878.365zm-15.598 0a1.23 1.23 0 0 1-.878-.365l-.975-.974a1.245 1.245 0 0 1 0-1.756 1.245 1.245 0 0 1 1.756 0l.974.974a1.245 1.245 0 0 1-.877 2.121zM21 11.21a1.239 1.239 0 0 1-1.24-1.238V8.593a1.242 1.242 0 0 1 2.482 0v1.378A1.24 1.24 0 0 1 21 11.21z" fill="#fff"/></g><defs><clipPath id="clip0_686_2408"><rect width="42" height="42" rx="6" fill="#fff"/></clipPath></defs></svg>