<svg width="42" height="42" viewBox="0 0 42 42" fill="none" xmlns="http://www.w3.org/2000/svg">
    <g clip-path="url(#clip0_86_78)">
        <path d="M42.42 -0.419983H-0.420044V42.42H42.42V-0.419983Z" fill="#789E6F"/>
        <path d="M17.6862 22.8018H15.309V25.9896H12.9318L16.443 30.7272L19.9542 25.9896H17.6862V22.8018Z" fill="white"/>
        <path d="M22.0458 27.5394H24.3138V30.7272H26.691V27.5394H29.0682L25.557 22.8018L22.0458 27.5394Z" fill="white"/>
        <path d="M15.1327 14.7629H15.0907C14.9479 15.4433 14.7715 16.2497 14.6245 16.8881L14.5153 17.3501H15.7207L15.6115 16.8881C15.4687 16.2497 15.2713 15.4433 15.1285 14.7629H15.1327Z" fill="white"/>
        <path d="M21.3402 14.847H20.6808V16.6194H21.3402C22.0416 16.6194 22.3692 16.2666 22.3692 15.6702C22.3692 15.0738 21.9996 14.847 21.3402 14.847Z" fill="white"/>
        <path d="M30.3408 11.2728H11.6592C11.0208 11.2728 10.5 11.7936 10.5 12.432V21.0462C10.5 21.6846 11.0208 22.2054 11.6592 22.2054H30.3366C30.975 22.2054 31.4958 21.6846 31.4958 21.0462V12.432C31.4958 11.7936 30.975 11.2728 30.3366 11.2728H30.3408ZM16.3674 20.1432L16.0398 18.7194H14.2044L13.8768 20.1432H12.0624L14.0826 13.4442H16.2288L18.249 20.1432H16.3716H16.3674ZM21.4242 18.0222H20.6808V20.1474H18.9084V13.4484H21.4242C22.869 13.4484 24.1038 13.986 24.1038 15.6744C24.1038 17.3628 22.827 18.0264 21.4242 18.0264V18.0222ZM29.9418 14.9268H28.4172V18.6564H29.9418V20.139H25.1202V18.6564H26.6448V14.9268H25.1202V13.4442H29.9418V14.9268Z" fill="white"/>
    </g>
    <defs>
        <clipPath id="clip0_86_78">
            <rect width="42" height="42" rx="6" fill="white"/>
        </clipPath>
    </defs>
</svg>
