<svg width="42" height="42" viewBox="0 0 42 42" fill="none" xmlns="http://www.w3.org/2000/svg">
    <g clip-path="url(#clip0_86_65)">
        <path d="M42.42 -0.419983H-0.420044V42.42H42.42V-0.419983Z" fill="#EF9D48"/>
        <path fill-rule="evenodd" clip-rule="evenodd" d="M10.5 13.4989C10.5 12.6715 11.172 11.9995 11.9994 11.9995H30.0006C30.828 11.9995 31.5 12.6715 31.5 13.4989C31.5 14.3263 30.828 14.9983 30.0006 14.9983H11.9994C11.172 14.9983 10.5 14.3263 10.5 13.4989ZM10.5 21.0001C10.5 20.1727 11.172 19.5007 11.9994 19.5007H30.0006C30.828 19.5007 31.5 20.1727 31.5 21.0001C31.5 21.8275 30.828 22.4995 30.0006 22.4995H11.9994C11.172 22.4995 10.5 21.8275 10.5 21.0001ZM10.5 28.5013C10.5 27.6739 11.172 27.0019 11.9994 27.0019H30.0006C30.828 27.0019 31.5 27.6739 31.5 28.5013C31.5 29.3287 30.828 30.0007 30.0006 30.0007H11.9994C11.172 30.0007 10.5 29.3287 10.5 28.5013Z" fill="white"/>
    </g>
    <defs>
        <clipPath id="clip0_86_65">
            <rect width="42" height="42" rx="6" fill="white"/>
        </clipPath>
    </defs>
</svg>
