<svg width="42" height="42" viewBox="0 0 42 42" fill="none" xmlns="http://www.w3.org/2000/svg" xmlns:xlink="http://www.w3.org/1999/xlink">
<g clip-path="url(#clip0_686_1029)">
<mask id="mask0_686_1029" style="mask-type:luminance" maskUnits="userSpaceOnUse" x="0" y="0" width="42" height="42">
<path d="M42 0H0V42H42V0Z" fill="white"/>
</mask>
<g mask="url(#mask0_686_1029)">
<mask id="mask1_686_1029" style="mask-type:luminance" maskUnits="userSpaceOnUse" x="-3" y="-3" width="48" height="48">
<path d="M44.1 -2.1001H-2.10001V44.0999H44.1V-2.1001Z" fill="white"/>
</mask>
<g mask="url(#mask1_686_1029)">
<rect x="-2.09991" y="-2.21729" width="46.368" height="46.368" fill="url(#pattern0_686_1029)"/>
</g>
</g>
<path d="M21.0379 24.6412C23.049 24.6412 24.6793 23.0109 24.6793 20.9998C24.6793 18.9887 23.049 17.3584 21.0379 17.3584C19.0268 17.3584 17.3965 18.9887 17.3965 20.9998C17.3965 23.0109 19.0268 24.6412 21.0379 24.6412Z" fill="white"/>
<path d="M21.0379 14.4268C22.9794 14.4268 24.5533 12.8529 24.5533 10.9114C24.5533 8.96989 22.9794 7.396 21.0379 7.396C19.0964 7.396 17.5225 8.96989 17.5225 10.9114C17.5225 12.8529 19.0964 14.4268 21.0379 14.4268Z" stroke="white" stroke-width="1.68" stroke-miterlimit="10"/>
<path d="M9.25257 17.4387C10.5028 17.4387 11.5164 16.4252 11.5164 15.1749C11.5164 13.9247 10.5028 12.9111 9.25257 12.9111C8.00231 12.9111 6.98877 13.9247 6.98877 15.1749C6.98877 16.4252 8.00231 17.4387 9.25257 17.4387Z" fill="white"/>
<path d="M33.1046 17.0769C34.3549 17.0769 35.3684 16.0634 35.3684 14.8131C35.3684 13.5629 34.3549 12.5493 33.1046 12.5493C31.8544 12.5493 30.8408 13.5629 30.8408 14.8131C30.8408 16.0634 31.8544 17.0769 33.1046 17.0769Z" fill="white"/>
<path d="M21.0377 34.9607C22.288 34.9607 23.3015 33.9472 23.3015 32.6969C23.3015 31.4466 22.288 30.4331 21.0377 30.4331C19.7875 30.4331 18.7739 31.4466 18.7739 32.6969C18.7739 33.9472 19.7875 34.9607 21.0377 34.9607Z" fill="white"/>
<path d="M21.0376 14.4272V31.2272" stroke="white" stroke-width="2.1" stroke-miterlimit="10"/>
<path d="M9.25244 15.1743L28.1146 24.5403" stroke="white" stroke-width="2.1" stroke-miterlimit="10"/>
<path d="M32.7475 15.1743L14.0029 24.2421" stroke="white" stroke-width="2.1" stroke-miterlimit="10"/>
<path d="M10.9578 29.5049C12.8993 29.5049 14.4732 27.931 14.4732 25.9895C14.4732 24.048 12.8993 22.4741 10.9578 22.4741C9.01628 22.4741 7.44238 24.048 7.44238 25.9895C7.44238 27.931 9.01628 29.5049 10.9578 29.5049Z" stroke="white" stroke-width="1.68" stroke-miterlimit="10"/>
<path d="M31.0003 29.2657C32.9418 29.2657 34.5157 27.6918 34.5157 25.7503C34.5157 23.8088 32.9418 22.2349 31.0003 22.2349C29.0588 22.2349 27.4849 23.8088 27.4849 25.7503C27.4849 27.6918 29.0588 29.2657 31.0003 29.2657Z" stroke="white" stroke-width="1.68" stroke-miterlimit="10"/>
</g>
<defs>
<pattern id="pattern0_686_1029" patternContentUnits="objectBoundingBox" width="1" height="1">
</pattern>
<clipPath id="clip0_686_1029">
<rect width="42" height="42" rx="6" fill="white"/>
</clipPath>
</defs>
</svg>
