<svg width="42" height="42" fill="none" xmlns="http://www.w3.org/2000/svg" role="img" aria-hidden="true" focusable="false"><g clip-path="url(#clip0_251_208)"><path d="M42.42-.42H-.42v42.84h42.84V-.42z" fill="#0068B8"/><g opacity=".5"><path d="M16.693 10.503H12.86c-.847 0-1.533.687-1.533 1.534v17.93c0 .846.687 1.533 1.533 1.533h16.245c.847 0 1.534-.687 1.534-1.534V12.034c0-.847-.687-1.534-1.534-1.534H16.693v.003z" stroke="#fff" stroke-width=".996" stroke-linecap="round" stroke-linejoin="round"/><path d="M11.67 10.908v1.986h18.959v-1.986h-18.96zm1.158 1.197a.42.42 0 1 1 0-.84.42.42 0 0 1 0 .84zm1.167 0a.42.42 0 1 1 0-.839.42.42 0 0 1 0 .84zm1.134 0a.42.42 0 1 1 0-.839.42.42 0 0 1 0 .84z" fill="#fff"/></g><path opacity=".5" d="M27.523 14.105h-13.18a.965.965 0 1 0 0 1.931h13.18a.965.965 0 1 0 0-1.93zm-6.29 11.1h-6.89a.965.965 0 1 0 0 1.931h6.89a.966.966 0 0 0 0-1.93zm6.29 2.943h-13.18a.965.965 0 1 0 0 1.931h13.18a.965.965 0 1 0 0-1.93z" fill="#fff"/><path d="M28.927 17.305H12.985a3.244 3.244 0 0 0 0 6.488h11.539v2.93c0 .129.157.192.248.101l3.032-3.031h1.123a3.244 3.244 0 0 0 0-6.488z" fill="#0068B8" stroke="#fff" stroke-width=".828" stroke-miterlimit="10"/><path clip-rule="evenodd" d="M13.352 19.443a1.05 1.05 0 1 0 0 2.101 1.05 1.05 0 0 0 0-2.101zm-1.283 1.05a1.282 1.282 0 1 1 2.268.823l.73.73a.117.117 0 0 1-.16.172l-.005-.006-.73-.73a1.28 1.28 0 0 1-1.807-.166 1.281 1.281 0 0 1-.298-.822h.002z" stroke="#fff" stroke-width=".414" stroke-miterlimit="10"/></g><defs><clipPath id="clip0_251_208"><rect width="42" height="42" rx="6" fill="#fff"/></clipPath></defs></svg>