<svg width="42" height="42" viewBox="0 0 42 42" fill="none" xmlns="http://www.w3.org/2000/svg">
<g clip-path="url(#clip0_1717_2356)">
<path d="M42.4201 -0.419922H-0.419922V42.4201H42.4201V-0.419922Z" fill="#9A1660"/>
<path d="M21.0291 23.8009C22.5764 23.8009 23.8307 22.5466 23.8307 20.9993C23.8307 19.4521 22.5764 18.1978 21.0291 18.1978C19.4818 18.1978 18.2275 19.4521 18.2275 20.9993C18.2275 22.5466 19.4818 23.8009 21.0291 23.8009Z" fill="white"/>
<path d="M21.0292 14.8503C22.2202 14.8503 23.1858 13.8848 23.1858 12.6937C23.1858 11.5027 22.2202 10.5371 21.0292 10.5371C19.8381 10.5371 18.8726 11.5027 18.8726 12.6937C18.8726 13.8848 19.8381 14.8503 21.0292 14.8503Z" stroke="white" stroke-width="0.583658" stroke-miterlimit="10"/>
<path d="M29.2704 27.154C30.4614 27.154 31.427 26.1885 31.427 24.9974C31.427 23.8064 30.4614 22.8408 29.2704 22.8408C28.0793 22.8408 27.1138 23.8064 27.1138 24.9974C27.1138 26.1885 28.0793 27.154 29.2704 27.154Z" stroke="white" stroke-width="0.583658" stroke-miterlimit="10"/>
<path d="M11.965 17.9846C12.7741 17.9846 13.43 17.3288 13.43 16.5197C13.43 15.7106 12.7741 15.0547 11.965 15.0547C11.1559 15.0547 10.5 15.7106 10.5 16.5197C10.5 17.3288 11.1559 17.9846 11.965 17.9846Z" fill="white"/>
<path d="M30.0348 17.9846C30.8439 17.9846 31.4998 17.3288 31.4998 16.5197C31.4998 15.7106 30.8439 15.0547 30.0348 15.0547C29.2257 15.0547 28.5698 15.7106 28.5698 16.5197C28.5698 17.3288 29.2257 17.9846 30.0348 17.9846Z" fill="white"/>
<path d="M21.0294 31.4617C21.8385 31.4617 22.4944 30.8058 22.4944 29.9967C22.4944 29.1876 21.8385 28.5317 21.0294 28.5317C20.2203 28.5317 19.5645 29.1876 19.5645 29.9967C19.5645 30.8058 20.2203 31.4617 21.0294 31.4617Z" fill="white"/>
<path d="M12.6713 27.2297C13.8623 27.2297 14.8279 26.2642 14.8279 25.0731C14.8279 23.8821 13.8623 22.9165 12.6713 22.9165C11.4802 22.9165 10.5146 23.8821 10.5146 25.0731C10.5146 26.2642 11.4802 27.2297 12.6713 27.2297Z" stroke="white" stroke-width="0.583658" stroke-miterlimit="10"/>
<path d="M21.0293 14.8477V28.8642" stroke="white" stroke-width="1.16732" stroke-miterlimit="10"/>
<path d="M11.9648 16.52L27.2421 24.1397" stroke="white" stroke-width="1.16732" stroke-miterlimit="10"/>
<path d="M30.0349 16.52L14.606 24.1397" stroke="white" stroke-width="1.16732" stroke-miterlimit="10"/>
</g>
<defs>
<clipPath id="clip0_1717_2356">
<rect width="42" height="42" rx="6" fill="white"/>
</clipPath>
</defs>
</svg>
