<svg width="42" height="42" fill="none" xmlns="http://www.w3.org/2000/svg" role="img" aria-hidden="true" focusable="false"><g clip-path="url(#clip0_364_673)"><path d="M42 0H0v42h42V0z"/><g opacity=".5"><path d="M31.572 18v-7.592c0-.924-.752-1.676-1.676-1.676h-17.77c-.925 0-1.676.752-1.676 1.676V18m21.122 8.5v5.088c0 .924-.752 1.676-1.676 1.676h-17.77a1.678 1.678 0 0 1-1.676-1.676v-5.295" stroke="#fff" stroke-width="1.088" stroke-linecap="round" stroke-linejoin="round"/><path d="M10.82 9.177v2.172h20.743V9.177H10.82zm1.268 1.31a.459.459 0 0 1 0-.915.459.459 0 0 1 0 .916zm1.277 0a.459.459 0 0 1 0-.915.459.459 0 0 1 0 .916zm1.239 0a.459.459 0 0 1 0-.915.459.459 0 0 1 0 .916z" fill="#fff"/></g><path opacity=".5" d="M28.165 12.676H13.742c-.582 0-1.054.472-1.054 1.054v.004c0 .582.472 1.054 1.054 1.054h14.423c.582 0 1.054-.472 1.054-1.054v-.004c0-.582-.472-1.054-1.054-1.054zm-7.854 16.875h-6.569c-.582 0-1.054.472-1.054 1.055v.004c0 .582.472 1.054 1.054 1.054h6.569c.582 0 1.054-.472 1.054-1.054v-.005c0-.582-.472-1.054-1.054-1.054z" fill="#fff"/><path d="M24.196 32.218c-.189 0-.382-.038-.563-.118a1.406 1.406 0 0 1-.848-1.293v-2.381H13.58a6.234 6.234 0 0 1-6.229-6.23 6.234 6.234 0 0 1 6.229-6.228h14.843a6.234 6.234 0 0 1 6.228 6.229c0 3.436-2.579 6.01-5.83 6.216l-3.662 3.427a1.423 1.423 0 0 1-.962.382v-.004zM13.58 17.93a4.275 4.275 0 0 0-4.273 4.27 4.275 4.275 0 0 0 4.272 4.271H24.75v3.08l3.288-3.08h.387a4.275 4.275 0 0 0 4.271-4.27 4.275 4.275 0 0 0-4.271-4.272H13.579z" fill="#fff"/><path d="M15.804 24.818a.465.465 0 0 1-.323-.13l-.907-.907a2.198 2.198 0 0 1-2.865-.446 2.197 2.197 0 0 1-.508-1.402c0-.588.227-1.139.643-1.55a2.194 2.194 0 0 1 3.742 1.55c0 .42-.122.827-.344 1.176l.89.89a.474.474 0 0 1-.315.815H15.8l.004.004zm-2.41-4.124c-.685 0-1.24.558-1.24 1.239 0 .68.56 1.239 1.24 1.239.68 0 1.239-.559 1.239-1.24 0-.68-.559-1.238-1.24-1.238z" fill="#fff"/></g><defs><linearGradient id="paint0_linear_364_673" x1="-2.957" y1="16.775" x2="44.957" y2="25.225" gradientUnits="userSpaceOnUse"><stop stop-color="#A61E69"/><stop offset="1" stop-color="#6366F1"/></linearGradient><clipPath id="clip0_364_673"><rect width="42" height="42" rx="6" fill="#fff"/></clipPath></defs></svg>