<svg width="42" height="42" viewBox="0 0 42 42" fill="none" xmlns="http://www.w3.org/2000/svg" xmlns:xlink="http://www.w3.org/1999/xlink">
<g clip-path="url(#clip0_686_1604)">
<mask id="mask0_686_1604" style="mask-type:luminance" maskUnits="userSpaceOnUse" x="0" y="0" width="42" height="42">
<path d="M42 0H0V42H42V0Z" fill="white"/>
</mask>
<g mask="url(#mask0_686_1604)">
<mask id="mask1_686_1604" style="mask-type:luminance" maskUnits="userSpaceOnUse" x="-3" y="-3" width="48" height="48">
<path d="M44.1 -2.1001H-2.10001V44.0999H44.1V-2.1001Z" fill="white"/>
</mask>
<g mask="url(#mask1_686_1604)">
<rect x="-2.16718" y="-2.15039" width="46.368" height="46.368" fill="url(#pattern0_686_1604)"/>
</g>
</g>
<path d="M13.1042 24.6035C13.1042 26.1869 11.8232 27.4721 10.2356 27.4721C8.648 27.4721 7.367 26.1911 7.367 24.6035C7.367 23.0159 8.648 21.7349 10.2356 21.7349H13.1042V24.6035ZM14.5406 24.6035C14.5406 23.0201 15.8216 21.7349 17.4092 21.7349C18.9968 21.7349 20.2778 23.0159 20.2778 24.6035V31.7687C20.2778 33.3521 18.9968 34.6373 17.4092 34.6373C15.8216 34.6373 14.5406 33.3563 14.5406 31.7687V24.6035Z" fill="white"/>
<path d="M17.4049 13.0956C15.8215 13.0956 14.5363 11.8146 14.5363 10.227C14.5363 8.6394 15.8173 7.3584 17.4049 7.3584C18.9925 7.3584 20.2735 8.6394 20.2735 10.227V13.0956H17.4049ZM17.4049 14.5488C18.9883 14.5488 20.2735 15.8298 20.2735 17.4174C20.2735 19.005 18.9925 20.286 17.4049 20.286H10.2145C8.63109 20.286 7.34589 19.005 7.34589 17.4174C7.34589 15.8298 8.62689 14.5488 10.2145 14.5488H17.4049Z" fill="white"/>
<path d="M28.8963 17.4174C28.8963 15.834 30.1773 14.5488 31.7649 14.5488C33.3525 14.5488 34.6335 15.8298 34.6335 17.4174C34.6335 19.005 33.3525 20.286 31.7649 20.286H28.8963V17.4174ZM27.4599 17.4174C27.4599 19.0008 26.1789 20.286 24.5913 20.286C23.0037 20.286 21.7227 19.005 21.7227 17.4174V10.227C21.7227 8.6436 23.0037 7.3584 24.5913 7.3584C26.1789 7.3584 27.4599 8.6394 27.4599 10.227V17.4174Z" fill="white"/>
<path d="M24.5956 28.9043C26.179 28.9043 27.4642 30.1853 27.4642 31.7729C27.4642 33.3605 26.1832 34.6415 24.5956 34.6415C23.008 34.6415 21.727 33.3605 21.727 31.7729V28.9043H24.5956ZM24.5956 27.4721C23.0122 27.4721 21.727 26.1911 21.727 24.6035C21.727 23.0159 23.008 21.7349 24.5956 21.7349H31.786C33.3694 21.7349 34.6546 23.0159 34.6546 24.6035C34.6546 26.1911 33.3736 27.4721 31.786 27.4721H24.5956Z" fill="white"/>
</g>
<defs>
<pattern id="pattern0_686_1604" patternContentUnits="objectBoundingBox" width="1" height="1">
</pattern>
<clipPath id="clip0_686_1604">
<rect width="42" height="42" rx="6" fill="white"/>
</clipPath>
</defs>
</svg>
