<svg width="42" height="42" fill="none" xmlns="http://www.w3.org/2000/svg" role="img" aria-hidden="true" focusable="false"><g clip-path="url(#clip0_686_1210)"><mask id="a" style="mask-type:luminance" maskUnits="userSpaceOnUse" x="0" y="0" width="42" height="42"><path d="M42 0H0v42h42V0z" fill="#fff"/></mask><g mask="url(#a)"><mask id="b" style="mask-type:luminance" maskUnits="userSpaceOnUse" x="-3" y="-3" width="48" height="48"><path d="M44.1-2.1H-2.1v46.2h46.2V-2.1z" fill="#fff"/></mask><g mask="url(#b)"><path fill="url(#pattern0_686_1210)" d="M-2.1-2.217h46.368v46.368H-2.1z"/></g></g><path d="M16.69 24.604H13.6v4.14h-3.092l4.566 6.162 4.57-6.161H16.69v-4.142zm5.667 6.156h2.952v4.146H28.4v-4.145h3.091l-4.565-6.157-4.57 6.157zm-8.984-17.866h-.055a214.24 214.24 0 0 1-.605 2.76l-.138.604h1.566l-.138-.605c-.19-.831-.441-1.877-.63-2.759zm8.067.105h-.856v2.306h.857c.911 0 1.34-.458 1.34-1.235 0-.777-.483-1.071-1.34-1.071z" fill="#fff"/><path d="M33.142 8.354H8.858c-.832 0-1.508.68-1.508 1.508v11.201c0 .832.68 1.508 1.508 1.508h24.28c.832 0 1.508-.68 1.508-1.508V9.862c0-.832-.68-1.508-1.508-1.508h.004zm-18.16 11.533l-.429-1.848h-2.39l-.428 1.848h-2.36l2.624-8.71h2.79l2.624 8.71h-2.44.008zm6.568-2.76h-.966v2.76h-2.306v-8.71h3.268c1.877 0 3.482.697 3.482 2.893 0 2.197-1.66 3.054-3.482 3.054l.004.004zm11.071-4.019H30.64v4.851h1.982v1.928h-6.27V17.96h1.982v-4.85h-1.982v-1.933h6.27v1.932z" fill="#fff"/></g><defs><clipPath id="clip0_686_1210"><rect width="42" height="42" rx="6" fill="#fff"/></clipPath></defs></svg>