<svg width="42" height="42" fill="none" xmlns="http://www.w3.org/2000/svg" role="img" aria-hidden="true" focusable="false"><g clip-path="url(#clip0_686_2450)" fill="#fff"><path d="M13.76 31.68h1.725a1.03 1.03 0 0 0 1.03-1.028 1.03 1.03 0 0 0-1.03-1.03H13.76v-1.725a1.03 1.03 0 0 0-1.029-1.03 1.03 1.03 0 0 0-1.029 1.03v1.726H9.975a1.03 1.03 0 0 0-1.029 1.029 1.03 1.03 0 0 0 1.029 1.029h1.726v1.726a1.03 1.03 0 0 0 1.03 1.03 1.03 1.03 0 0 0 1.028-1.03v-1.726zM11.348 7.56a1.03 1.03 0 0 0-1.029 1.03v1.725H8.593a1.03 1.03 0 0 0-1.029 1.03 1.03 1.03 0 0 0 1.03 1.028h1.725V14.1a1.03 1.03 0 0 0 1.03 1.029 1.03 1.03 0 0 0 1.028-1.03v-1.726h1.726a1.03 1.03 0 0 0 1.03-1.029 1.03 1.03 0 0 0-1.03-1.029h-1.726V8.59a1.03 1.03 0 0 0-1.029-1.029zm7.056 17.187l2.995 8.987a1.03 1.03 0 0 0 1.957 0l2.995-8.988 7.417-2.78c.399-.151.668-.538.668-.966 0-.428-.269-.815-.668-.966l-7.417-2.78-.034-.097-2.965-8.891a1.03 1.03 0 0 0-1.957 0L18.4 17.254l-7.417 2.78a1.037 1.037 0 0 0-.668.966c0 .428.269.815.668.966l7.417 2.78h.004zm1.185-5.738c.294-.109.516-.344.617-.638l2.172-6.523 2.175 6.519c.101.298.324.529.618.638l5.304 1.99-5.304 1.992a1.034 1.034 0 0 0-.618.638l-2.175 6.518-2.172-6.518a1.013 1.013 0 0 0-.617-.638l-5.305-1.991 5.305-1.99v.003z"/></g><defs><clipPath id="clip0_686_2450"><rect width="42" height="42" rx="6" fill="#fff"/></clipPath></defs></svg>