<svg width="42" height="42" fill="none" xmlns="http://www.w3.org/2000/svg" role="img" aria-hidden="true" focusable="false"><g clip-path="url(#clip0_686_278)"><mask id="a" style="mask-type:luminance" maskUnits="userSpaceOnUse" x="0" y="0" width="42" height="42"><path d="M42 0H0v42h42V0z" fill="#fff"/></mask><g mask="url(#a)"><mask id="b" style="mask-type:luminance" maskUnits="userSpaceOnUse" x="-3" y="-3" width="48" height="48"><path d="M44.1-2.1H-2.1v46.2h46.2V-2.1z" fill="#fff"/></mask><g mask="url(#b)"><path fill="url(#pattern0_686_278)" d="M-2.1-2.15h46.368v46.368H-2.1z"/></g></g><path d="M31.416 12.092l-4.208-4.217a1.766 1.766 0 0 0-1.26-.521h-9.341c-1.185 0-2.15.966-2.15 2.15v2.554h-2.243c-1.185 0-2.15.966-2.15 2.15V32.5c0 1.185.965 2.15 2.15 2.15h13.175c1.184 0 2.15-.965 2.15-2.15v-2.553h2.243c1.185 0 2.15-.966 2.15-2.15V13.346c0-.474-.184-.92-.52-1.255h.004zm-1.588 1.39v.143H25.81a.206.206 0 0 1-.206-.206V9.454h.21l4.015 4.028zm-4.393 19.017a.047.047 0 0 1-.046.047H12.214a.047.047 0 0 1-.047-.047V14.21c0-.026.021-.047.047-.047h2.242v13.633c0 1.185.966 2.15 2.15 2.15h8.825V32.5h.004zm4.347-4.662H16.607a.047.047 0 0 1-.046-.046V9.501c0-.026.02-.047.046-.047h6.888v3.965a2.314 2.314 0 0 0 2.31 2.31h4.02V27.79a.047.047 0 0 1-.047.046h.004z" fill="#fff"/></g><defs><clipPath id="clip0_686_278"><rect width="42" height="42" rx="6" fill="#fff"/></clipPath></defs></svg>