<svg width="42" height="42" fill="none" xmlns="http://www.w3.org/2000/svg" role="img" aria-hidden="true" focusable="false"><g clip-path="url(#clip0_686_199)"><mask id="a" style="mask-type:luminance" maskUnits="userSpaceOnUse" x="0" y="0" width="42" height="42"><path d="M42 0H0v42h42V0z" fill="#fff"/></mask><g mask="url(#a)"><mask id="b" style="mask-type:luminance" maskUnits="userSpaceOnUse" x="-3" y="-3" width="48" height="48"><path d="M44.1-2.1H-2.1v46.2h46.2V-2.1z" fill="#fff"/></mask><g mask="url(#b)"><mask id="c" style="mask-type:luminance" maskUnits="userSpaceOnUse" x="-3" y="-3" width="48" height="48"><path d="M44.1-2.1H-2.1v46.2h46.2V-2.1z" fill="#fff"/></mask><g mask="url(#c)"><path fill="url(#pattern0_686_199)" d="M-2.1-2.285h46.368v46.57H-2.1z"/></g></g></g><path d="M10.122 26.57c5.242-3.503 7.95 1.457 8.938 2.465l-1.554 1.533a.504.504 0 0 0 .302.86h6.817a.505.505 0 0 0 .504-.503v-6.657c0-.277-.231-.5-.509-.5a.497.497 0 0 0-.348.147l-1.512 1.478c-3.88-3.88-8.404-5.014-13.02.803a.271.271 0 0 0 .004.382c.105.105.277.1.382-.004l-.004-.005z" fill="#fff"/><path d="M22.57 16.645c-5.24 3.502-7.95-1.458-8.937-2.466l1.554-1.533a.504.504 0 0 0-.302-.86H8.068a.505.505 0 0 0-.504.503v6.657c0 .277.231.5.508.5.13 0 .257-.055.349-.147l1.512-1.478c3.88 3.88 8.404 5.014 13.02-.803a.271.271 0 0 0-.004-.382.271.271 0 0 0-.382.004l.004.005z" fill="#fff"/><path d="M33.869 13.108l-5.174-5.187a1.915 1.915 0 0 0-1.374-.57H15.834a2.405 2.405 0 0 0-2.402 2.401v.845h1.508c.21.03.411.105.588.218V9.752a.3.3 0 0 1 .302-.302h8.723v5.103c0 1.432 1.168 2.6 2.6 2.6h5.179v15.095a.301.301 0 0 1-.303.302H15.826a.301.301 0 0 1-.303-.302v-4.67c-.575-.328-1.222-.55-1.957-.55a1.45 1.45 0 0 0-.143.008v5.212a2.405 2.405 0 0 0 2.403 2.402h16.203a2.405 2.405 0 0 0 2.403-2.402v-17.77a1.93 1.93 0 0 0-.567-1.37h.004zm-1.533 1.945h-5.179a.501.501 0 0 1-.5-.5V9.45h.597l5.082 5.095v.508z" fill="#fff"/></g><defs><clipPath id="clip0_686_199"><rect width="42" height="42" rx="6" fill="#fff"/></clipPath></defs></svg>