<svg width="42" height="42" viewBox="0 0 42 42" fill="none" xmlns="http://www.w3.org/2000/svg" xmlns:xlink="http://www.w3.org/1999/xlink">
<g clip-path="url(#clip0_686_1125)">
<mask id="mask0_686_1125" style="mask-type:luminance" maskUnits="userSpaceOnUse" x="0" y="0" width="42" height="42">
<path d="M42 0H0V42H42V0Z" fill="white"/>
</mask>
<g mask="url(#mask0_686_1125)">
<mask id="mask1_686_1125" style="mask-type:luminance" maskUnits="userSpaceOnUse" x="-3" y="-3" width="48" height="48">
<path d="M44.1 -2.1001H-2.10001V44.0999H44.1V-2.1001Z" fill="white"/>
</mask>
<g mask="url(#mask1_686_1125)">
<rect x="-2.09991" y="-2.28467" width="46.368" height="46.5696" fill="url(#pattern0_686_1125)"/>
</g>
</g>
<path d="M29.043 33.4613H32.1048C33.39 33.4613 34.44 32.4155 34.44 31.1261V28.0643C34.44 26.7791 33.3942 25.7291 32.1048 25.7291H31.605V23.9567C31.605 22.6715 30.5592 21.6215 29.2698 21.6215H22.0038V19.7735H24.2634C25.5486 19.7735 26.5986 18.7277 26.5986 17.4383V10.8611C26.5986 9.57588 25.5528 8.52588 24.2634 8.52588H17.6862C16.401 8.52588 15.351 9.57168 15.351 10.8611V17.4383C15.351 18.7235 16.3968 19.7735 17.6862 19.7735H19.9458V21.6215H12.7302C11.445 21.6215 10.395 22.6673 10.395 23.9567V25.7291H9.8952C8.61 25.7291 7.56 26.7749 7.56 28.0643V31.1261C7.56 32.4113 8.6058 33.4613 9.8952 33.4613H12.957C14.2422 33.4613 15.2922 32.4155 15.2922 31.1261V28.0643C15.2922 26.7791 14.2464 25.7291 12.957 25.7291H12.4572V23.9567C12.4572 23.8055 12.579 23.6837 12.7302 23.6837H19.9458V25.7249H19.446C18.1608 25.7249 17.1108 26.7707 17.1108 28.0601V31.1219C17.1108 32.4071 18.1566 33.4571 19.446 33.4571H22.5078C23.793 33.4571 24.843 32.4113 24.843 31.1219V28.0601C24.843 26.7749 23.7972 25.7249 22.5078 25.7249H22.008V23.6837H29.274C29.4252 23.6837 29.547 23.8055 29.547 23.9567V25.7291H29.0472C27.762 25.7291 26.712 26.7749 26.712 28.0643V31.1261C26.712 32.4113 27.7578 33.4613 29.0472 33.4613H29.043ZM12.957 27.7955C13.1082 27.7955 13.23 27.9173 13.23 28.0685V31.1303C13.23 31.2815 13.1082 31.4033 12.957 31.4033H9.8952C9.744 31.4033 9.6222 31.2815 9.6222 31.1303V28.0685C9.6222 27.9173 9.744 27.7955 9.8952 27.7955H12.957ZM22.5078 27.7955C22.659 27.7955 22.7808 27.9173 22.7808 28.0685V31.1303C22.7808 31.2815 22.659 31.4033 22.5078 31.4033H19.446C19.2948 31.4033 19.173 31.2815 19.173 31.1303V28.0685C19.173 27.9173 19.2948 27.7955 19.446 27.7955H22.5078ZM17.9844 17.7197C17.6694 17.7197 17.4132 17.4635 17.4132 17.1485V11.1677C17.4132 10.8527 17.6694 10.5965 17.9844 10.5965H23.9652C24.2802 10.5965 24.5364 10.8527 24.5364 11.1677V17.1485C24.5364 17.4635 24.2802 17.7197 23.9652 17.7197H17.9844ZM28.7742 28.0685C28.7742 27.9173 28.896 27.7955 29.0472 27.7955H32.109C32.2602 27.7955 32.382 27.9173 32.382 28.0685V31.1303C32.382 31.2815 32.2602 31.4033 32.109 31.4033H29.0472C28.896 31.4033 28.7742 31.2815 28.7742 31.1303V28.0685Z" fill="white"/>
</g>
<defs>
<pattern id="pattern0_686_1125" patternContentUnits="objectBoundingBox" width="1" height="1">
</pattern>
<clipPath id="clip0_686_1125">
<rect width="42" height="42" rx="6" fill="white"/>
</clipPath>
</defs>
</svg>
