<svg width="42" height="42" viewBox="0 0 42 42" fill="none" xmlns="http://www.w3.org/2000/svg" xmlns:xlink="http://www.w3.org/1999/xlink">
<g clip-path="url(#clip0_686_1527)">
<mask id="mask0_686_1527" style="mask-type:luminance" maskUnits="userSpaceOnUse" x="0" y="0" width="42" height="42">
<path d="M42 0H0V42H42V0Z" fill="white"/>
</mask>
<g mask="url(#mask0_686_1527)">
<mask id="mask1_686_1527" style="mask-type:luminance" maskUnits="userSpaceOnUse" x="-3" y="-3" width="48" height="48">
<path d="M44.1 -2.1001H-2.10001V44.0999H44.1V-2.1001Z" fill="white"/>
</mask>
<g mask="url(#mask1_686_1527)">
<rect x="-2.16718" y="-2.28467" width="46.368" height="46.5696" fill="url(#pattern0_686_1527)"/>
</g>
</g>
<path d="M28.917 8.67285H33.1002L23.9106 19.1351L34.6458 33.3269H26.2206L19.6266 24.7043L12.075 33.3269H7.89181L17.6274 22.1381L7.35001 8.67285H15.981L21.9408 16.5521L28.917 8.67285ZM27.4554 30.8699H29.7738L14.763 11.0375H12.2724L27.4554 30.8699Z" fill="white"/>
</g>
<defs>
<pattern id="pattern0_686_1527" patternContentUnits="objectBoundingBox" width="1" height="1">
</pattern>
<clipPath id="clip0_686_1527">
<rect width="42" height="42" rx="6" fill="white"/>
</clipPath>
</defs>
</svg>
