<svg width="42" height="42" viewBox="0 0 42 42" fill="none" xmlns="http://www.w3.org/2000/svg">
    <g clip-path="url(#clip0_86_70)">
        <path d="M42.42 -0.420044H-0.420044V42.42H42.42V-0.420044Z" fill="#957D3A"/>
        <path d="M22.4994 13.3687C22.0416 12.5581 21.0126 12.2683 20.1978 12.7261C19.929 12.8773 19.7064 13.0999 19.5552 13.3687L16.3758 18.8707H25.6746L22.4952 13.3687H22.4994ZM18.207 17.9635L20.5422 13.9315C20.6472 13.7593 20.8278 13.6459 21.0294 13.6459C21.231 13.6459 21.42 13.7509 21.5166 13.9315L23.8518 17.9635H18.2112H18.207ZM16.2036 19.4377L12.9906 25.0951H12.999L12.9822 25.1287H20.3742V19.4335H16.2036V19.4377ZM14.8176 24.2005L16.926 20.3617H19.2864V24.1921H14.8302L14.8218 24.2005H14.8176ZM21.5838 19.4377V25.1329L29.0808 25.0993L25.8678 19.4419H21.5838V19.4377ZM22.68 24.1921V20.3617H25.1538L27.2622 24.2005H22.6926L22.6842 24.1921H22.68ZM12.6252 25.8637L10.5 29.4925H31.5L29.5344 25.8637H12.6252ZM28.7574 26.8087L29.6436 28.5223L12.3438 28.5727L13.3014 26.8591L28.7574 26.8087Z" fill="white"/>
    </g>
    <defs>
        <clipPath id="clip0_86_70">
            <rect width="42" height="42" rx="6" fill="white"/>
        </clipPath>
    </defs>
</svg>
