<svg width="42" height="42" fill="none" xmlns="http://www.w3.org/2000/svg" role="img" aria-hidden="true" focusable="false"><g clip-path="url(#clip0_1717_2356)"><path d="M42.42-.42H-.42v42.84h42.84V-.42z" fill="#9A1660"/><path d="M21.03 23.8a2.802 2.802 0 1 0 0-5.602 2.802 2.802 0 0 0 0 5.603z" fill="#fff"/><path d="M21.03 14.85a2.157 2.157 0 1 0 0-4.313 2.157 2.157 0 0 0 0 4.313zm8.24 12.304a2.157 2.157 0 1 0 0-4.313 2.157 2.157 0 0 0 0 4.313z" stroke="#fff" stroke-width=".584" stroke-miterlimit="10"/><path d="M11.965 17.985a1.465 1.465 0 1 0 0-2.93 1.465 1.465 0 0 0 0 2.93zm18.07 0a1.465 1.465 0 1 0 0-2.93 1.465 1.465 0 0 0 0 2.93zM21.03 31.462a1.465 1.465 0 1 0 0-2.93 1.465 1.465 0 0 0 0 2.93z" fill="#fff"/><path d="M12.671 27.23a2.157 2.157 0 1 0 0-4.314 2.157 2.157 0 0 0 0 4.314z" stroke="#fff" stroke-width=".584" stroke-miterlimit="10"/><path d="M21.03 14.848v14.016M11.965 16.52l15.277 7.62m2.793-7.62l-15.429 7.62" stroke="#fff" stroke-width="1.167" stroke-miterlimit="10"/></g><defs><clipPath id="clip0_1717_2356"><rect width="42" height="42" rx="6" fill="#fff"/></clipPath></defs></svg>