<svg width="42" height="42" viewBox="0 0 42 42" fill="none" xmlns="http://www.w3.org/2000/svg" xmlns:xlink="http://www.w3.org/1999/xlink">
<g clip-path="url(#clip0_686_2408)">
<mask id="mask0_686_2408" style="mask-type:luminance" maskUnits="userSpaceOnUse" x="0" y="0" width="42" height="42">
<path d="M42 0H0V42H42V0Z" fill="white"/>
</mask>
<g mask="url(#mask0_686_2408)">
<mask id="mask1_686_2408" style="mask-type:luminance" maskUnits="userSpaceOnUse" x="-3" y="-3" width="48" height="48">
<path d="M44.1 -2.1001H-2.10001V44.0999H44.1V-2.1001Z" fill="white"/>
</mask>
<g mask="url(#mask1_686_2408)">
<rect x="-2.23422" y="-2.21729" width="46.368" height="46.368" fill="url(#pattern0_686_2408)"/>
</g>
</g>
<path d="M20.9999 34.6498C18.7949 34.6498 17.0015 32.8564 17.0015 30.6514V29.9206C17.0015 29.0218 16.6361 28.144 16.0019 27.5098L15.2459 26.758C13.7087 25.2208 12.8645 23.1796 12.8645 21.004C12.8645 18.8326 13.7129 16.7872 15.2459 15.2542C16.7831 13.717 18.8243 12.8728 20.9957 12.8728C23.1671 12.8728 25.2125 13.7212 26.7455 15.2542C29.9165 18.4252 29.9165 23.587 26.7455 26.758L25.9895 27.514C25.7291 27.7744 25.5149 28.0726 25.3511 28.3918C25.3385 28.4254 25.3217 28.4548 25.3049 28.4884C25.0991 28.9336 24.9899 29.4208 24.9899 29.929V30.6598C24.9899 32.8648 23.1965 34.6582 20.9915 34.6582L20.9999 34.6498ZM19.4291 29.1352C19.4627 29.3956 19.4837 29.656 19.4837 29.9206V30.6514C19.4837 31.4872 20.1641 32.1676 20.9999 32.1676C21.8357 32.1676 22.5161 31.4872 22.5161 30.6514V29.9206C22.5161 29.656 22.5329 29.3956 22.5665 29.1352H19.4291ZM18.4925 26.653H23.5031C23.7173 26.3338 23.9651 26.0314 24.2423 25.7542L24.9983 24.9982C27.1991 22.7932 27.1991 19.2106 24.9983 17.0056C23.9315 15.9388 22.5119 15.3508 20.9999 15.3508C19.4921 15.3508 18.0725 15.9388 17.0015 17.0056C15.9347 18.0724 15.3467 19.492 15.3467 21.004C15.3467 22.516 15.9347 23.9314 17.0015 25.0024L17.7575 25.7542C18.0347 26.0314 18.2783 26.3338 18.4925 26.6572V26.653ZM33.4109 22.2388H32.0333C31.3487 22.2388 30.7943 21.6844 30.7943 20.9998C30.7943 20.3152 31.3487 19.7608 32.0333 19.7608H33.4109C34.0955 19.7608 34.6499 20.3152 34.6499 20.9998C34.6499 21.6844 34.0955 22.2388 33.4109 22.2388ZM9.9707 22.2388H8.5931C7.9085 22.2388 7.3541 21.6844 7.3541 20.9998C7.3541 20.3152 7.9085 19.7608 8.5931 19.7608H9.9707C10.6553 19.7608 11.2097 20.3152 11.2097 20.9998C11.2097 21.6844 10.6553 22.2388 9.9707 22.2388ZM28.7993 14.4394C28.4801 14.4394 28.1651 14.3176 27.9215 14.074C27.4385 13.591 27.4385 12.8056 27.9215 12.3184L28.8959 11.344C29.3789 10.861 30.1643 10.861 30.6515 11.344C31.1387 11.827 31.1345 12.6124 30.6515 13.0996L29.6771 14.074C29.4335 14.3176 29.1185 14.4394 28.7993 14.4394ZM13.2005 14.4394C12.8813 14.4394 12.5663 14.3176 12.3227 14.074L11.3483 13.0996C10.8653 12.6166 10.8653 11.8312 11.3483 11.344C11.8313 10.861 12.6167 10.861 13.1039 11.344L14.0783 12.3184C14.5613 12.8014 14.5613 13.5868 14.0783 14.074C13.8347 14.3176 13.5197 14.4394 13.2005 14.4394ZM20.9999 11.2096C20.3153 11.2096 19.7609 10.6552 19.7609 9.9706V8.593C19.7609 7.9084 20.3153 7.354 20.9999 7.354C21.6845 7.354 22.2431 7.9084 22.2431 8.593V9.9706C22.2431 10.6552 21.6887 11.2096 20.9999 11.2096Z" fill="white"/>
</g>
<defs>
<pattern id="pattern0_686_2408" patternContentUnits="objectBoundingBox" width="1" height="1">
</pattern>
<clipPath id="clip0_686_2408">
<rect width="42" height="42" rx="6" fill="white"/>
</clipPath>
</defs>
</svg>
