<svg width="42" height="42" viewBox="0 0 42 42" fill="none" xmlns="http://www.w3.org/2000/svg">
    <g clip-path="url(#clip0_86_651)">
        <path d="M42.42 -0.42H-0.420044V42.42H42.42V-0.42Z" fill="#117671"/>
        <path d="M28.539 11.0376H13.461C11.823 11.0376 10.5 12.3606 10.5 13.9986V22.6128C10.5 24.2508 11.823 25.5738 13.461 25.5738H18.5136L23.6628 30.723C23.814 30.8742 24.0282 30.9582 24.234 30.9582C24.6792 30.9582 25.0404 30.597 25.0404 30.1518V25.5738H28.539C30.177 25.5738 31.5 24.2508 31.5 22.6128V13.9986C31.5 12.3606 30.177 11.0376 28.539 11.0376ZM28.539 12.6546C29.2824 12.6546 29.8872 13.2594 29.8872 14.0028V22.617C29.8872 23.3604 29.2824 23.9652 28.539 23.9652H24.2298C23.7888 23.9652 23.4234 24.3306 23.4234 24.7716V28.2072L19.4166 24.2004C19.2654 24.0492 19.0596 23.9652 18.8454 23.9652H13.461C12.7176 23.9652 12.1128 23.3604 12.1128 22.617V14.0028C12.1128 13.2594 12.7176 12.6546 13.461 12.6546" fill="white"/>
        <path fill-rule="evenodd" clip-rule="evenodd" d="M17.0057 17.0688C17.0057 15.9684 17.9423 15.078 19.0847 15.078C19.9457 15.078 20.6765 15.5736 20.9999 16.296C21.3107 15.5862 22.0541 15.078 22.9151 15.078C24.0659 15.078 24.9941 15.9726 24.9941 17.0688C24.9941 20.2776 20.9999 22.3986 20.9999 22.3986C20.9999 22.3986 17.0057 20.2776 17.0057 17.0688Z" fill="white"/>
    </g>
    <defs>
        <clipPath id="clip0_86_651">
            <rect width="42" height="42" rx="6" fill="white"/>
        </clipPath>
    </defs>
</svg>
