<svg width="42" height="42" fill="none" xmlns="http://www.w3.org/2000/svg" role="img" aria-hidden="true" focusable="false"><g clip-path="url(#clip0_446_2734)"><path d="M42.42-.42H-.42v42.84h42.84V-.42z" fill="#007973"/><path d="M17.502 12.835h-2.336a2.336 2.336 0 0 0-2.335 2.335v14a2.336 2.336 0 0 0 2.335 2.335h11.668a2.336 2.336 0 0 0 2.335-2.335v-14a2.336 2.336 0 0 0-2.335-2.335h-2.335m-6.997 0a2.336 2.336 0 0 0 2.335 2.335h2.335a2.336 2.336 0 0 0 0-4.67h-2.335a2.336 2.336 0 0 0-2.335 2.335zm0 10.5l2.335 2.335 4.666-4.666" stroke="#fff" stroke-width="2.335" stroke-linecap="round" stroke-linejoin="round"/></g><defs><clipPath id="clip0_446_2734"><rect width="42" height="42" rx="6" fill="#fff"/></clipPath></defs></svg>