<svg width="42" height="42" fill="none" xmlns="http://www.w3.org/2000/svg" role="img" aria-hidden="true" focusable="false"><g clip-path="url(#clip0_686_1455)"><mask id="a" style="mask-type:luminance" maskUnits="userSpaceOnUse" x="0" y="0" width="42" height="42"><path d="M42 0H0v42h42V0z" fill="#fff"/></mask><g mask="url(#a)"><mask id="b" style="mask-type:luminance" maskUnits="userSpaceOnUse" x="-3" y="-3" width="48" height="48"><path d="M44.1-2.1H-2.1v46.2h46.2V-2.1z" fill="#fff"/></mask><g mask="url(#b)"><path fill="url(#pattern0_686_1455)" d="M-2.167-2.217h46.368v46.368H-2.167z"/></g></g><path d="M29.53 17.585a5.121 5.121 0 0 0 5.12-5.12 5.121 5.121 0 0 0-5.12-5.12 5.121 5.121 0 0 0-5.082 5.75l-8.43 4.213a5.12 5.12 0 0 0-7.236.13 5.12 5.12 0 0 0 .13 7.237 5.121 5.121 0 0 0 7.107 0l8.43 4.212a5.12 5.12 0 1 0 1.524-3.053l-8.43-4.212c.05-.42.05-.845 0-1.265l8.43-4.212a5.103 5.103 0 0 0 3.553 1.432l.004.008z" fill="#fff"/></g><defs><clipPath id="clip0_686_1455"><rect width="42" height="42" rx="6" fill="#fff"/></clipPath></defs></svg>