<svg width="42" height="42" fill="none" xmlns="http://www.w3.org/2000/svg" role="img" aria-hidden="true" focusable="false"><g clip-path="url(#clip0_686_3245)"><mask id="a" style="mask-type:luminance" maskUnits="userSpaceOnUse" x="0" y="0" width="42" height="42"><path d="M42 0H0v42h42V0z" fill="#fff"/></mask><g mask="url(#a)"><mask id="b" style="mask-type:luminance" maskUnits="userSpaceOnUse" x="-3" y="-3" width="48" height="48"><path d="M44.1-2.1H-2.1v46.2h46.2V-2.1z" fill="#fff"/></mask><g mask="url(#b)"><path fill="url(#pattern0_686_3245)" d="M-2.234-2.284h46.368v46.57H-2.234z"/></g></g><path d="M27.825 34.65h-13.65a4.098 4.098 0 0 1-4.095-4.095v-16.38a4.098 4.098 0 0 1 4.095-4.095h1.6a4.105 4.105 0 0 1 3.86-2.73h2.73a4.1 4.1 0 0 1 3.86 2.73h1.6a4.098 4.098 0 0 1 4.095 4.095v16.38a4.098 4.098 0 0 1-4.095 4.095zm-13.65-21.84c-.752 0-1.365.613-1.365 1.365v16.38c0 .751.613 1.365 1.365 1.365h13.65c.752 0 1.365-.614 1.365-1.365v-16.38c0-.752-.613-1.365-1.365-1.365h-1.6a4.105 4.105 0 0 1-3.86 2.73h-2.73a4.1 4.1 0 0 1-3.86-2.73h-1.6zm4.095-1.365c0 .751.613 1.365 1.365 1.365h2.73c.752 0 1.365-.614 1.365-1.365 0-.752-.613-1.365-1.365-1.365h-2.73c-.752 0-1.365.613-1.365 1.365zm1.365 16.38c-.361 0-.71-.143-.966-.4l-2.73-2.73a1.366 1.366 0 0 1 1.932-1.931l1.764 1.764 4.494-4.494a1.366 1.366 0 0 1 1.932 1.932l-5.46 5.46a1.367 1.367 0 0 1-.966.399z" fill="#fff"/></g><defs><clipPath id="clip0_686_3245"><rect width="42" height="42" rx="6" fill="#fff"/></clipPath></defs></svg>