<svg width="42" height="42" viewBox="0 0 42 42" fill="none" xmlns="http://www.w3.org/2000/svg">
    <g clip-path="url(#clip0_86_81)">
        <path d="M42.42 -0.420044H-0.420044V42.42H42.42V-0.420044Z" fill="#6D478E"/>
        <path d="M20.7775 18.3667C17.1865 20.7691 15.33 17.3671 14.6538 16.6783L15.7164 15.6283C15.8508 15.4939 15.8508 15.2755 15.7164 15.1411C15.6618 15.0865 15.5862 15.0487 15.5107 15.0403H10.8402C10.6512 15.0403 10.4958 15.1957 10.4958 15.3847V19.9459C10.4958 20.1349 10.6554 20.2903 10.8444 20.2861C10.9326 20.2861 11.0208 20.2483 11.0838 20.1853L12.117 19.1731C14.7757 21.8317 17.871 22.6087 21.0379 18.6229C21.1093 18.5515 21.1093 18.4339 21.0379 18.3625C20.9664 18.2911 20.8489 18.2911 20.7775 18.3625V18.3667Z" fill="white"/>
        <path d="M13.4106 24.6918C17.0016 22.2894 18.858 25.6914 19.5342 26.3802L18.4716 27.4302C18.3372 27.5646 18.3372 27.783 18.4716 27.9174C18.5262 27.972 18.6018 28.0098 18.6774 28.0182H23.3478C23.5368 28.0182 23.6922 27.8628 23.6922 27.6738V23.1126C23.6922 22.9236 23.5326 22.7682 23.3436 22.7724C23.2554 22.7724 23.1672 22.8102 23.1042 22.8732L22.071 23.8854C19.4124 21.2268 16.317 20.4498 13.1502 24.4356C13.0788 24.507 13.0788 24.6246 13.1502 24.696C13.2216 24.7674 13.3392 24.7674 13.4106 24.696V24.6918Z" fill="white"/>
        <path d="M26.5356 11.9238H16.2708V17.1948V17.3082L17.6316 17.829V16.2708V13.314H25.1454V18.2784H30.0804V28.7154H17.6316V25.4268L16.2708 24.906V30.0762H31.5V16.8882L26.5356 11.9238ZM26.5356 16.9176V13.8768L29.5764 16.9176H26.5356Z" fill="white"/>
    </g>
    <defs>
        <clipPath id="clip0_86_81">
            <rect width="42" height="42" rx="6" fill="white"/>
        </clipPath>
    </defs>
</svg>
