<svg width="42" height="42" viewBox="0 0 42 42" fill="none" xmlns="http://www.w3.org/2000/svg">
    <g clip-path="url(#clip0_86_80)">
        <path d="M42.42 -0.419983H-0.420044V42.42H42.42V-0.419983Z" fill="#0074B3"/>
        <path d="M14.9268 23.772C14.9268 24.99 13.9398 25.977 12.7218 25.977C11.5038 25.977 10.5168 24.99 10.5168 23.772C10.5168 22.554 11.5038 21.567 12.7218 21.567H14.9268V23.772ZM16.0314 23.772C16.0314 22.554 17.0184 21.567 18.2364 21.567C19.4544 21.567 20.4414 22.554 20.4414 23.772V29.2866C20.4414 30.5046 19.4544 31.4916 18.2364 31.4916C17.0184 31.4916 16.0314 30.5046 16.0314 29.2866V23.772Z" fill="white"/>
        <path d="M18.2364 14.9184C17.0184 14.9184 16.0314 13.9314 16.0314 12.7134C16.0314 11.4954 17.0184 10.5084 18.2364 10.5084C19.4544 10.5084 20.4414 11.4954 20.4414 12.7134V14.9184H18.2364ZM18.2364 16.0398C19.4544 16.0398 20.4414 17.0268 20.4414 18.2448C20.4414 19.4628 19.4544 20.4498 18.2364 20.4498H12.705C11.487 20.4498 10.5 19.4628 10.5 18.2448C10.5 17.0268 11.487 16.0398 12.705 16.0398H18.2364Z" fill="white"/>
        <path d="M27.0732 18.2448C27.0732 17.0268 28.0602 16.0398 29.2782 16.0398C30.4962 16.0398 31.4832 17.0268 31.4832 18.2448C31.4832 19.4628 30.4962 20.4498 29.2782 20.4498H27.0732V18.2448ZM25.9686 18.2448C25.9686 19.4628 24.9816 20.4498 23.7636 20.4498C22.5456 20.4498 21.5586 19.4628 21.5586 18.2448V12.7134C21.5586 11.4954 22.5456 10.5084 23.7636 10.5084C24.9816 10.5084 25.9686 11.4954 25.9686 12.7134V18.2448Z" fill="white"/>
        <path d="M23.7636 27.0816C24.9816 27.0816 25.9686 28.0686 25.9686 29.2866C25.9686 30.5046 24.9816 31.4916 23.7636 31.4916C22.5456 31.4916 21.5586 30.5046 21.5586 29.2866V27.0816H23.7636ZM23.7636 25.977C22.5456 25.977 21.5586 24.99 21.5586 23.772C21.5586 22.554 22.5456 21.567 23.7636 21.567H29.295C30.513 21.567 31.5 22.554 31.5 23.772C31.5 24.99 30.513 25.977 29.295 25.977H23.7636Z" fill="white"/>
    </g>
    <defs>
        <clipPath id="clip0_86_80">
            <rect width="42" height="42" rx="6" fill="white"/>
        </clipPath>
    </defs>
</svg>
