<svg width="42" height="42" viewBox="0 0 42 42" fill="none" xmlns="http://www.w3.org/2000/svg">
    <g clip-path="url(#clip0_86_74)">
        <path d="M42.42 -0.420044H-0.420044V42.42H42.42V-0.420044Z" fill="#2F4A54"/>
        <path d="M29.61 13.2048L27.4806 11.0754C27.111 10.7058 26.6112 10.5 26.0904 10.5H19.0302C17.9424 10.5 17.0604 11.382 17.0604 12.4698V14.4396H13.7802C12.6924 14.4396 11.8104 15.3216 11.8104 16.4094V29.5344C11.8104 30.6222 12.6924 31.5042 13.7802 31.5042H22.9656C24.0534 31.5042 24.9354 30.6222 24.9354 29.5344V27.5646H28.2156C29.3034 27.5646 30.1854 26.6826 30.1854 25.5948V14.5992C30.1854 14.0784 29.9796 13.5744 29.61 13.209M22.722 29.5302H14.028C13.8936 29.5302 13.7802 29.421 13.7802 29.2824V16.6488C13.7802 16.5144 13.8894 16.401 14.028 16.401H17.0646V25.5906C17.0646 26.6784 17.9466 27.5604 19.0344 27.5604H22.9698V29.2824C22.9698 29.4168 22.8606 29.5302 22.722 29.5302ZM27.972 25.5948H19.278C19.1436 25.5948 19.0302 25.4856 19.0302 25.347V12.7134C19.0302 12.579 19.1394 12.4656 19.278 12.4656H23.625V16.0734C23.625 16.6152 24.066 17.0562 24.6078 17.0562H28.2156V25.3428C28.2156 25.4772 28.1064 25.5906 27.9678 25.5906M28.2198 15.0948H25.5948V12.4698H25.9896C26.0568 12.4698 26.1156 12.495 26.1618 12.5412L28.1442 14.5236C28.1904 14.5698 28.2156 14.6328 28.2156 14.6958V15.0906L28.2198 15.0948Z" fill="white"/>
    </g>
    <defs>
        <clipPath id="clip0_86_74">
            <rect width="42" height="42" rx="6" fill="white"/>
        </clipPath>
    </defs>
</svg>
