<svg width="42" height="42" viewBox="0 0 42 42" fill="none" xmlns="http://www.w3.org/2000/svg" xmlns:xlink="http://www.w3.org/1999/xlink">
<g clip-path="url(#clip0_686_199)">
<mask id="mask0_686_199" style="mask-type:luminance" maskUnits="userSpaceOnUse" x="0" y="0" width="42" height="42">
<path d="M42 0H0V42H42V0Z" fill="white"/>
</mask>
<g mask="url(#mask0_686_199)">
<mask id="mask1_686_199" style="mask-type:luminance" maskUnits="userSpaceOnUse" x="-3" y="-3" width="48" height="48">
<path d="M44.1 -2.1001H-2.10001V44.0999H44.1V-2.1001Z" fill="white"/>
</mask>
<g mask="url(#mask1_686_199)">
<mask id="mask2_686_199" style="mask-type:luminance" maskUnits="userSpaceOnUse" x="-3" y="-3" width="48" height="48">
<path d="M44.1 -2.1001H-2.10001V44.0999H44.1V-2.1001Z" fill="white"/>
</mask>
<g mask="url(#mask2_686_199)">
<rect x="-2.09991" y="-2.28467" width="46.368" height="46.5696" fill="url(#pattern0_686_199)"/>
</g>
</g>
</g>
<path d="M10.1221 26.5694C15.3637 23.0666 18.0727 28.0268 19.0597 29.0348L17.5057 30.5678C17.3083 30.7652 17.3083 31.0844 17.5057 31.2818C17.5855 31.3616 17.6947 31.4162 17.8081 31.4288H24.6247C24.9019 31.4288 25.1287 31.202 25.1287 30.9248V24.2678C25.1287 23.9906 24.8977 23.768 24.6205 23.768C24.4903 23.768 24.3643 23.8226 24.2719 23.915L22.7599 25.3934C18.8791 21.5126 14.3557 20.3786 9.73989 26.1956C9.63489 26.3006 9.63909 26.4728 9.74409 26.5778C9.84909 26.6828 10.0213 26.6786 10.1263 26.5736L10.1221 26.5694Z" fill="white"/>
<path d="M22.5708 16.6446C17.3292 20.1474 14.6202 15.1872 13.6332 14.1792L15.1872 12.6462C15.3846 12.4488 15.3846 12.1296 15.1872 11.9322C15.1074 11.8524 14.9982 11.7978 14.8848 11.7852H8.06821C7.79101 11.7852 7.56421 12.012 7.56421 12.2892V18.9462C7.56421 19.2234 7.79521 19.446 8.07241 19.446C8.20261 19.446 8.32861 19.3914 8.42101 19.299L9.93301 17.8206C13.8138 21.7014 18.3372 22.8354 22.953 17.0184C23.058 16.9134 23.0538 16.7412 22.9488 16.6362C22.8438 16.5312 22.6716 16.5354 22.5666 16.6404L22.5708 16.6446Z" fill="white"/>
<path d="M33.8689 13.1083L28.6945 7.9213C28.3291 7.5517 27.8419 7.3501 27.3211 7.3501H15.8341C14.5111 7.3501 13.4317 8.4253 13.4317 9.7525V10.5967H14.9395C15.1495 10.6261 15.3511 10.7017 15.5275 10.8151V9.7525C15.5275 9.5845 15.6619 9.4501 15.8299 9.4501H24.5533V14.5531C24.5533 15.9853 25.7209 17.1529 27.1531 17.1529H32.3317V32.2477C32.3317 32.4157 32.1973 32.5501 32.0293 32.5501H15.8257C15.6577 32.5501 15.5233 32.4157 15.5233 32.2477V27.5773C14.9479 27.2497 14.3011 27.0271 13.5661 27.0271C13.5199 27.0271 13.4737 27.0313 13.4233 27.0355V32.2477C13.4233 33.5707 14.4985 34.6501 15.8257 34.6501H32.0293C33.3523 34.6501 34.4317 33.5749 34.4317 32.2477V14.4775C34.4317 13.9609 34.2301 13.4737 33.8647 13.1083H33.8689ZM32.3359 15.0529H27.1573C26.8801 15.0529 26.6575 14.8261 26.6575 14.5531V9.4501H27.2539L32.3359 14.5447V15.0529Z" fill="white"/>
</g>
<defs>
<pattern id="pattern0_686_199" patternContentUnits="objectBoundingBox" width="1" height="1">
</pattern>
<clipPath id="clip0_686_199">
<rect width="42" height="42" rx="6" fill="white"/>
</clipPath>
</defs>
</svg>
