<svg width="42" height="42" fill="none" xmlns="http://www.w3.org/2000/svg" role="img" aria-hidden="true" focusable="false"><g clip-path="url(#clip0_765_871)"><path d="M42.42-.42H-.42v42.84h42.84V-.42z"/><path d="M29.346 22.121a.607.607 0 0 0-1.004.37l-.185 1.373a7.029 7.029 0 0 1-1.873-.29c-3.684-1.108-5.695-2.868-7.64-4.573-2.062-1.806-4.196-3.68-8.064-4.566a1.178 1.178 0 0 0-1.415.89 1.186 1.186 0 0 0 .89 1.42c3.284.756 5.107 2.352 7.035 4.04 2.033 1.782 4.338 3.806 8.518 5.058.726.218 1.474.34 2.234.382l-.172 1.272a.598.598 0 0 0 .247.572.599.599 0 0 0 .353.113.633.633 0 0 0 .273-.063l3.995-2.008a.601.601 0 0 0 .134-.987l-3.318-2.994-.008-.009zm-19.262 3.28c-.558.13-.907.69-.78 1.244.108.474.524.806 1.011.806.08 0 .156-.008.236-.025 3.8-.874 5.917-2.71 7.95-4.49a43.6 43.6 0 0 1-1.609-1.352c-1.84 1.604-3.65 3.09-6.803 3.817h-.005z" fill="#fff"/><path d="M26.246 18.291a7.192 7.192 0 0 1 1.894-.298l.206 1.516a.608.608 0 0 0 .6.525c.147 0 .29-.055.404-.155l3.318-2.995a.6.6 0 0 0 .193-.53.611.611 0 0 0-.328-.457l-3.994-2.008a.602.602 0 0 0-.87.618l.194 1.415a9.39 9.39 0 0 0-2.214.374 18.875 18.875 0 0 0-5.745 2.818c.542.466 1.096.92 1.692 1.348a16.883 16.883 0 0 1 4.654-2.175l-.004.004z" fill="#fff"/></g><defs><clipPath id="clip0_765_871"><rect width="42" height="42" rx="6" fill="#fff"/></clipPath></defs></svg>