<svg width="42" height="42" fill="none" xmlns="http://www.w3.org/2000/svg" role="img" aria-hidden="true" focusable="false"><g clip-path="url(#clip0_686_1604)"><mask id="a" style="mask-type:luminance" maskUnits="userSpaceOnUse" x="0" y="0" width="42" height="42"><path d="M42 0H0v42h42V0z" fill="#fff"/></mask><g mask="url(#a)"><mask id="b" style="mask-type:luminance" maskUnits="userSpaceOnUse" x="-3" y="-3" width="48" height="48"><path d="M44.1-2.1H-2.1v46.2h46.2V-2.1z" fill="#fff"/></mask><g mask="url(#b)"><path fill="url(#pattern0_686_1604)" d="M-2.167-2.15h46.368v46.368H-2.167z"/></g></g><path d="M13.104 24.604a2.867 2.867 0 0 1-2.868 2.868 2.864 2.864 0 0 1-2.869-2.869 2.864 2.864 0 0 1 2.869-2.868h2.868v2.869zm1.437 0a2.867 2.867 0 0 1 2.868-2.87 2.864 2.864 0 0 1 2.869 2.87v7.165a2.867 2.867 0 0 1-2.869 2.868 2.864 2.864 0 0 1-2.868-2.868v-7.165zm2.864-11.508a2.867 2.867 0 0 1-2.869-2.869 2.864 2.864 0 0 1 2.869-2.869 2.864 2.864 0 0 1 2.868 2.869v2.869h-2.868zm0 1.453a2.867 2.867 0 0 1 2.868 2.868 2.864 2.864 0 0 1-2.868 2.869h-7.19a2.867 2.867 0 0 1-2.87-2.869 2.864 2.864 0 0 1 2.87-2.868h7.19zm11.491 2.868a2.867 2.867 0 0 1 2.869-2.868 2.864 2.864 0 0 1 2.868 2.868 2.864 2.864 0 0 1-2.868 2.869h-2.869v-2.869zm-1.436 0a2.867 2.867 0 0 1-2.869 2.869 2.864 2.864 0 0 1-2.868-2.869v-7.19a2.867 2.867 0 0 1 2.868-2.869 2.864 2.864 0 0 1 2.869 2.869v7.19zm-2.864 11.487a2.867 2.867 0 0 1 2.868 2.869 2.864 2.864 0 0 1-2.868 2.869 2.864 2.864 0 0 1-2.869-2.87v-2.868h2.869zm0-1.432a2.867 2.867 0 0 1-2.869-2.869 2.864 2.864 0 0 1 2.869-2.868h7.19a2.867 2.867 0 0 1 2.869 2.869 2.864 2.864 0 0 1-2.869 2.868h-7.19z" fill="#fff"/></g><defs><clipPath id="clip0_686_1604"><rect width="42" height="42" rx="6" fill="#fff"/></clipPath></defs></svg>