<svg width="42" height="42" fill="none" xmlns="http://www.w3.org/2000/svg" role="img" aria-hidden="true" focusable="false"><g clip-path="url(#clip0_686_1125)"><mask id="a" style="mask-type:luminance" maskUnits="userSpaceOnUse" x="0" y="0" width="42" height="42"><path d="M42 0H0v42h42V0z" fill="#fff"/></mask><g mask="url(#a)"><mask id="b" style="mask-type:luminance" maskUnits="userSpaceOnUse" x="-3" y="-3" width="48" height="48"><path d="M44.1-2.1H-2.1v46.2h46.2V-2.1z" fill="#fff"/></mask><g mask="url(#b)"><path fill="url(#pattern0_686_1125)" d="M-2.1-2.285h46.368v46.57H-2.1z"/></g></g><path d="M29.043 33.461h3.062a2.338 2.338 0 0 0 2.335-2.335v-3.062a2.338 2.338 0 0 0-2.335-2.335h-.5v-1.772a2.338 2.338 0 0 0-2.335-2.335h-7.266v-1.849h2.26a2.338 2.338 0 0 0 2.335-2.335v-6.577a2.338 2.338 0 0 0-2.336-2.335h-6.577a2.338 2.338 0 0 0-2.335 2.335v6.577a2.338 2.338 0 0 0 2.335 2.335h2.26v1.849H12.73a2.338 2.338 0 0 0-2.335 2.335v1.772h-.5a2.338 2.338 0 0 0-2.335 2.335v3.062a2.338 2.338 0 0 0 2.335 2.335h3.062a2.338 2.338 0 0 0 2.335-2.335v-3.062a2.338 2.338 0 0 0-2.335-2.335h-.5v-1.772c0-.152.122-.273.273-.273h7.216v2.04h-.5a2.338 2.338 0 0 0-2.335 2.336v3.062a2.338 2.338 0 0 0 2.335 2.335h3.062a2.338 2.338 0 0 0 2.335-2.335V28.06a2.338 2.338 0 0 0-2.335-2.335h-.5v-2.041h7.266c.151 0 .273.121.273.273v1.772h-.5a2.338 2.338 0 0 0-2.335 2.335v3.062a2.338 2.338 0 0 0 2.335 2.335h-.004zm-16.086-5.665c.151 0 .273.121.273.273v3.061a.272.272 0 0 1-.273.273H9.895a.272.272 0 0 1-.273-.273v-3.06c0-.152.122-.273.273-.273h3.062zm9.55 0c.152 0 .274.121.274.273v3.061a.272.272 0 0 1-.273.273h-3.062a.272.272 0 0 1-.273-.273v-3.06c0-.152.122-.273.273-.273h3.062zM17.985 17.72a.572.572 0 0 1-.57-.572v-5.98a.57.57 0 0 1 .57-.571h5.981c.315 0 .571.256.571.57v5.981a.572.572 0 0 1-.57.572h-5.982zm10.79 10.349c0-.152.122-.273.273-.273h3.062c.151 0 .273.121.273.273v3.061a.272.272 0 0 1-.273.273h-3.062a.272.272 0 0 1-.273-.273v-3.06z" fill="#fff"/></g><defs><clipPath id="clip0_686_1125"><rect width="42" height="42" rx="6" fill="#fff"/></clipPath></defs></svg>