<svg width="42" height="42" fill="none" xmlns="http://www.w3.org/2000/svg" role="img" aria-hidden="true" focusable="false"><g clip-path="url(#clip0_686_2333)"><mask id="a" style="mask-type:luminance" maskUnits="userSpaceOnUse" x="0" y="0" width="42" height="42"><path d="M42 0H0v42h42V0z" fill="#fff"/></mask><g mask="url(#a)"><mask id="b" style="mask-type:luminance" maskUnits="userSpaceOnUse" x="-3" y="-3" width="48" height="48"><path d="M44.1-2.1H-2.1v46.2h46.2V-2.1z" fill="#fff"/></mask><g mask="url(#b)"><path fill="url(#pattern0_686_2333)" d="M-2.234-2.285h46.368v46.57H-2.234z"/></g></g><path d="M10.626 34.402a.147.147 0 0 0 .017.21.147.147 0 0 0 .24-.076c4.287-7.387 8.563-3.973 14.422-7.837-3.986 0-5.082-2.13-5.082-2.13a9.556 9.556 0 0 0 7.182.534c1.365-1.092 3.81-3.603 4.003-9a4.7 4.7 0 0 1-3.306.394 6.573 6.573 0 0 0 3.276-2.322 7.99 7.99 0 0 0-3.742-6.83c1.08 14.108-12.524 8.031-15.935 24.978a17.13 17.13 0 0 1 7.909-8.891c3.864-2.033 7.03-4.003 8.194-9.165-.874 6.229-3.688 8.535-7.58 10.282-3.634 1.638-7.364 3.658-9.602 9.845l.004.008z" fill="#fff"/></g><defs><clipPath id="clip0_686_2333"><rect width="42" height="42" rx="6" fill="#fff"/></clipPath></defs></svg>