<svg width="42" height="42" viewBox="0 0 42 42" fill="none" xmlns="http://www.w3.org/2000/svg">
<g clip-path="url(#clip0_686_2450)">
<path d="M13.7592 31.6809H15.4854C16.0524 31.6809 16.5144 31.2189 16.5144 30.6519C16.5144 30.0849 16.0524 29.6229 15.4854 29.6229H13.7592V27.8967C13.7592 27.3297 13.2972 26.8677 12.7302 26.8677C12.1632 26.8677 11.7012 27.3297 11.7012 27.8967V29.6229H9.97505C9.40805 29.6229 8.94604 30.0849 8.94604 30.6519C8.94604 31.2189 9.40805 31.6809 9.97505 31.6809H11.7012V33.4071C11.7012 33.9741 12.1632 34.4361 12.7302 34.4361C13.2972 34.4361 13.7592 33.9741 13.7592 33.4071V31.6809Z" fill="white"/>
<path d="M11.3483 7.56006C10.7813 7.56006 10.3193 8.02206 10.3193 8.58906V10.3153H8.59309C8.02609 10.3153 7.56409 10.7773 7.56409 11.3443C7.56409 11.9113 8.02609 12.3733 8.59309 12.3733H10.3193V14.0995C10.3193 14.6665 10.7813 15.1285 11.3483 15.1285C11.9153 15.1285 12.3773 14.6665 12.3773 14.0995V12.3733H14.1035C14.6705 12.3733 15.1325 11.9113 15.1325 11.3443C15.1325 10.7773 14.6705 10.3153 14.1035 10.3153H12.3773V8.58906C12.3773 8.02206 11.9153 7.56006 11.3483 7.56006Z" fill="white"/>
<path d="M18.4044 24.7465L21.399 33.7345C21.5376 34.1545 21.9324 34.4401 22.3776 34.4401C22.8228 34.4401 23.2134 34.1587 23.3562 33.7345L26.3508 24.7465L33.768 21.9661C34.167 21.8149 34.4358 21.4285 34.4358 21.0001C34.4358 20.5717 34.167 20.1853 33.768 20.0341L26.3508 17.2537L26.3172 17.1571L23.352 8.26566C23.2134 7.84566 22.8186 7.56006 22.3734 7.56006C21.9282 7.56006 21.5376 7.84146 21.3948 8.26566L18.4002 17.2537L10.983 20.0341C10.584 20.1853 10.3152 20.5717 10.3152 21.0001C10.3152 21.4285 10.584 21.8149 10.983 21.9661L18.4002 24.7465H18.4044ZM19.5888 19.0093C19.8828 18.9001 20.1054 18.6649 20.2062 18.3709L22.3776 11.8483L24.5532 18.3667C24.654 18.6649 24.8766 18.8959 25.1706 19.0051L30.4752 20.9959L25.1706 22.9867C24.8766 23.0959 24.654 23.3311 24.5532 23.6251L22.3776 30.1435L20.2062 23.6251C20.1096 23.3269 19.8828 23.0959 19.5888 22.9867L14.2842 20.9959L19.5888 19.0051V19.0093Z" fill="white"/>
</g>
<defs>
<clipPath id="clip0_686_2450">
<rect width="42" height="42" rx="6" fill="white"/>
</clipPath>
</defs>
</svg>
