<svg width="42" height="42" viewBox="0 0 42 42" fill="none" xmlns="http://www.w3.org/2000/svg" xmlns:xlink="http://www.w3.org/1999/xlink">
<g clip-path="url(#clip0_686_1455)">
<mask id="mask0_686_1455" style="mask-type:luminance" maskUnits="userSpaceOnUse" x="0" y="0" width="42" height="42">
<path d="M42 0H0V42H42V0Z" fill="white"/>
</mask>
<g mask="url(#mask0_686_1455)">
<mask id="mask1_686_1455" style="mask-type:luminance" maskUnits="userSpaceOnUse" x="-3" y="-3" width="48" height="48">
<path d="M44.1 -2.1001H-2.10001V44.0999H44.1V-2.1001Z" fill="white"/>
</mask>
<g mask="url(#mask1_686_1455)">
<rect x="-2.16718" y="-2.21729" width="46.368" height="46.368" fill="url(#pattern0_686_1455)"/>
</g>
</g>
<path d="M29.5301 17.5853C32.3567 17.5853 34.6499 15.2921 34.6499 12.4655C34.6499 9.6389 32.3567 7.3457 29.5301 7.3457C26.7035 7.3457 24.4103 9.6389 24.4103 12.4655C24.4103 12.6755 24.4229 12.8855 24.4481 13.0955L16.0187 17.3081C13.9817 15.3467 10.7435 15.4055 8.78214 17.4383C6.82074 19.4753 6.87953 22.7135 8.91234 24.6749C10.8947 26.5859 14.0363 26.5859 16.0187 24.6749L24.4481 28.8875C24.0995 31.6931 26.0903 34.2509 28.8959 34.5995C31.7015 34.9481 34.2593 32.9573 34.6079 30.1517C34.9565 27.3461 32.9657 24.7883 30.1601 24.4397C28.6271 24.2465 27.0857 24.7589 25.9727 25.8341L17.5433 21.6215C17.5937 21.2015 17.5937 20.7773 17.5433 20.3573L25.9727 16.1447C26.8925 17.0309 28.1441 17.5769 29.5259 17.5769L29.5301 17.5853Z" fill="white"/>
</g>
<defs>
<pattern id="pattern0_686_1455" patternContentUnits="objectBoundingBox" width="1" height="1">
</pattern>
<clipPath id="clip0_686_1455">
<rect width="42" height="42" rx="6" fill="white"/>
</clipPath>
</defs>
</svg>
