<svg width="42" height="42" viewBox="0 0 42 42" fill="none" xmlns="http://www.w3.org/2000/svg" xmlns:xlink="http://www.w3.org/1999/xlink">
<g clip-path="url(#clip0_686_1210)">
<mask id="mask0_686_1210" style="mask-type:luminance" maskUnits="userSpaceOnUse" x="0" y="0" width="42" height="42">
<path d="M42 0H0V42H42V0Z" fill="white"/>
</mask>
<g mask="url(#mask0_686_1210)">
<mask id="mask1_686_1210" style="mask-type:luminance" maskUnits="userSpaceOnUse" x="-3" y="-3" width="48" height="48">
<path d="M44.1 -2.1001H-2.10001V44.0999H44.1V-2.1001Z" fill="white"/>
</mask>
<g mask="url(#mask1_686_1210)">
<rect x="-2.09991" y="-2.21729" width="46.368" height="46.368" fill="url(#pattern0_686_1210)"/>
</g>
</g>
<path d="M16.6907 24.6035H13.5995V28.7447H10.5083L15.0737 34.9061L19.6433 28.7447H16.6907V24.6035Z" fill="white"/>
<path d="M22.3565 30.7607H25.3091V34.9061H28.4003V30.7607H31.4915L26.9261 24.6035L22.3565 30.7607Z" fill="white"/>
<path d="M13.3727 12.894H13.3181C13.1291 13.7802 12.9023 14.826 12.7133 15.6534L12.5747 16.2582H14.1413L14.0027 15.6534C13.8137 14.8218 13.5617 13.776 13.3727 12.894Z" fill="white"/>
<path d="M21.4408 12.999H20.584V15.3048H21.4408C22.3522 15.3048 22.7806 14.847 22.7806 14.07C22.7806 13.293 22.2976 12.999 21.4408 12.999Z" fill="white"/>
<path d="M33.1422 8.354H8.85781C8.02621 8.354 7.35001 9.0344 7.35001 9.8618V21.0632C7.35001 21.8948 8.03041 22.571 8.85781 22.571H33.138C33.9696 22.571 34.6458 21.8906 34.6458 21.0632V9.8618C34.6458 9.0302 33.9654 8.354 33.138 8.354H33.1422ZM14.9814 19.8872L14.553 18.0392H12.1632L11.7348 19.8872H9.37441L11.9994 11.1764H14.7882L17.4132 19.8872H14.973H14.9814ZM21.5502 17.1278H20.5842V19.8872H18.2784V11.1764H21.546C23.4234 11.1764 25.0278 11.8736 25.0278 14.0702C25.0278 16.2668 23.3688 17.1236 21.546 17.1236L21.5502 17.1278ZM32.6214 13.1084H30.639V17.9594H32.6214V19.8872H26.3508V17.9594H28.3332V13.1084H26.3508V11.1764H32.6214V13.1084Z" fill="white"/>
</g>
<defs>
<pattern id="pattern0_686_1210" patternContentUnits="objectBoundingBox" width="1" height="1">
</pattern>
<clipPath id="clip0_686_1210">
<rect width="42" height="42" rx="6" fill="white"/>
</clipPath>
</defs>
</svg>
