<svg height="1600" viewBox="0 0 1600 1600" width="1600" xmlns="http://www.w3.org/2000/svg"><g fill="none" fill-rule="evenodd"><path d="m1600 800c0-441.828125-358.17188-800-800-800-441.828125 0-800 358.171875-800 800 0 399.30313 292.548437 730.26563 675 790.28125v-559.03125h-203.125v-231.25h203.125v-176.25c0-200.5 119.434375-311.25 302.171875-311.25 87.526565 0 179.078125 15.625 179.078125 15.625v196.875h-100.87812c-99.379692 0-130.37188 61.667187-130.37188 124.932812v150.067188h221.875l-35.46875 231.25h-186.40625v559.03125c382.45156-60.01562 675-390.97812 675-790.28125" fill="#1877f2"/><path d="m1146.875 800h-221.875v-150.067188c0-63.265625 30.992188-124.932812 130.37187-124.932812h100.87813v-196.875s-91.55156-15.625-179.078125-15.625c-182.7375 0-302.171875 110.75-302.171875 311.25v176.25h-203.125v231.25h203.125v559.03125c40.729687 6.39063 82.475 9.71875 125 9.71875s84.270313-3.32812 125-9.71875v-559.03125h186.40625z" fill="#fff"/></g></svg>