<svg xmlns="http://www.w3.org/2000/svg" width="63.993" height="63.993" viewBox="0 0 328 328">
  <metadata><?xpacket begin="﻿" id="W5M0MpCehiHzreSzNTczkc9d"?>
<x:xmpmeta xmlns:x="adobe:ns:meta/" x:xmptk="Adobe XMP Core 5.6-c138 79.159824, 2016/09/14-01:09:01        ">
   <rdf:RDF xmlns:rdf="http://www.w3.org/1999/02/22-rdf-syntax-ns#">
      <rdf:Description rdf:about=""/>
   </rdf:RDF>
</x:xmpmeta>
                                                                                                    
                                                                                                    
                                                                                                    
                                                                                                    
                                                                                                    
                                                                                                    
                                                                                                    
                                                                                                    
                                                                                                    
                                                                                                    
                                                                                                    
                                                                                                    
                                                                                                    
                                                                                                    
                                                                                                    
                                                                                                    
                                                                                                    
                                                                                                    
                                                                                                    
                                                                                                    
                           
<?xpacket end="w"?></metadata>
<defs>
    <style>
      .cls-1 {
        fill: #444;
        fill-rule: evenodd;
      }
    </style>
  </defs>
  <path id="fa-arrow-up" class="cls-1" d="M309.539,113.523L309.331,28.3a11.513,11.513,0,0,0-3.555-8.387,11.013,11.013,0,0,0-8.322-3.49l-85.227-.208A11.666,11.666,0,0,0,200.408,28.03l0.024,9.819a11.051,11.051,0,0,0,3.424,8.387,11.05,11.05,0,0,0,8.387,3.424l38.425,0.159L204.7,95.789a9.822,9.822,0,0,0-3.057,7.979,12.425,12.425,0,0,0,3.816,8.06l8.4,8.4a12.432,12.432,0,0,0,8.061,3.816,9.822,9.822,0,0,0,7.979-3.057l45.97-45.971,0.159,38.425a11.048,11.048,0,0,0,3.425,8.387,11.546,11.546,0,0,0,8.452,3.49l9.819,0.024a11.887,11.887,0,0,0,11.819-11.819h0Z"/>
  <path id="fa-link" class="cls-1" d="M245.925,256.965l-24.563,24.414A16.085,16.085,0,0,1,210,285.727a15.394,15.394,0,0,1-11.362-4.515L164.215,246.6a15.48,15.48,0,0,1-4.679-11.371,16.232,16.232,0,0,1,5.514-12.207q0.5,0.5,3.091,3.177t3.593,3.6a39.15,39.15,0,0,0,3.175,2.508,13.355,13.355,0,0,0,4.261,2.174,16.916,16.916,0,0,0,4.595.585,15.979,15.979,0,0,0,16.041-16.053,17.085,17.085,0,0,0-.585-4.6,13.5,13.5,0,0,0-2.172-4.264q-1.59-2.171-2.506-3.177t-3.593-3.595q-2.674-2.59-3.175-3.094a15.914,15.914,0,0,1,12.031-5.351,15.479,15.479,0,0,1,11.363,4.682l34.756,34.782a15.5,15.5,0,0,1,4.679,11.371,15.3,15.3,0,0,1-4.679,11.2h0ZM127.62,140.078q-0.5-.5-3.091-3.177t-3.593-3.595a40.452,40.452,0,0,0-3.175-2.508,13.489,13.489,0,0,0-4.261-2.174,17.009,17.009,0,0,0-4.595-.586,15.982,15.982,0,0,0-16.041,16.054,16.959,16.959,0,0,0,.585,4.6,13.358,13.358,0,0,0,2.172,4.264,39.3,39.3,0,0,0,2.506,3.177q0.917,1,3.593,3.6t3.175,3.093A16.139,16.139,0,0,1,92.864,168,15.4,15.4,0,0,1,81.5,163.489L46.745,128.707a15.478,15.478,0,0,1-4.679-11.371,15.29,15.29,0,0,1,4.679-11.2L71.308,81.719A16.13,16.13,0,0,1,82.671,77.2a15.475,15.475,0,0,1,11.363,4.682L128.456,116.5a15.5,15.5,0,0,1,4.678,11.371,16.227,16.227,0,0,1-5.514,12.207h0Zm141.03,71.57-34.756-34.781a48.394,48.394,0,0,0-68.844.668L150.345,162.82a47.055,47.055,0,0,0,14.705-34.949q0-20.065-13.869-33.945L116.759,59.311Q102.887,45.1,82.671,45.1q-20.052,0-33.921,13.879L24.187,83.391a45.64,45.64,0,0,0-14.2,33.945A46.459,46.459,0,0,0,24.02,151.449l34.756,34.782a46.393,46.393,0,0,0,34.088,14.046,46.794,46.794,0,0,0,34.756-14.715l14.7,14.715a47.052,47.052,0,0,0-14.7,34.949q0,20.067,13.869,33.946l34.422,34.614Q189.78,318,210,318q20.052,0,33.921-13.879l24.563-24.414a45.647,45.647,0,0,0,14.2-33.946,46.461,46.461,0,0,0-14.037-34.113h0Z"/>
</svg>
