<svg xmlns="http://www.w3.org/2000/svg" viewBox="0 0 500 500" role="img" aria-hidden="true" focusable="false"><path fill="#7EADB9" d="M500 450H60c-33.1 0-60-26.9-60-60V60C0 26.9 26.9 0 60 0h380c33.1 0 60 26.9 60 60v390z"/><path fill="#7E9358" d="M390.5 218.1c-61.2 113.7-192.3 48.1-279.8-21.9C76.5 169.6 29 209.2 0 245.8V390c0 33.1 26.9 60 60 60h440V132.9c-44.1-5.3-93.2 56.6-109.5 85.2z"/><path fill="#F6A446" d="M390.5 218.1c1.3-2.2 2.6-4.5 3.9-6.8 2.5-10.3 3.9-19.7 3.9-27.6 0-81.9-66.4-148.3-148.3-148.3s-148.3 66.4-148.3 148.3c0 2.3.1 4.7.4 7.2 3 1.3 5.9 3.1 8.7 5.3 87.3 70 218.5 135.6 279.7 21.9z"/><path fill="#EB7D29" d="M390.5 218.1c-61.2 113.7-192.3 48.1-279.8-21.9-2.8-2.2-5.7-3.9-8.7-5.3 5.6 62.3 78.5 190.6 119.8 259 16.6 27.5 28.2 45.4 28.2 45.4s11.5-17.9 28.2-45.4c37.3-61.7 100.1-171.9 116.3-238.7-1.4 2.4-2.7 4.7-4 6.9z"/><path fill="#FFF" d="M287.5 91.9l-44.1 122.5-21-65.9h-32.2l35.5 91.2c3 7.7 3 16.1 0 23.8-3.3 8.5-8.8 17.6-24.1 20.4l-2.5.5v27.5l3.2-.1c14.3-.6 25.4-5.3 34.9-14.9 9.5-9.6 17.6-24.3 25.6-46.4l59.1-158.6h-34.4z"/></svg>