<svg xmlns="http://www.w3.org/2000/svg" role="img" aria-hidden="true" viewBox="0 0 500 500" focusable="false"><path d="M80 0h340a80 80 0 0 1 80 80v420H80a80 80 0 0 1-80-80V80A80 80 0 0 1 80 0z" fill="#7eadb9"/><path d="M406.1 242.34c-17.78 33-39 52.42-62.34 61.68-22.3 44.36-48.22 89-67.16 120.32-15.71 26-26.6 42.88-26.6 42.88s-10.89-16.87-26.6-42.88c-27.88-46.14-70.91-121-95.19-181.56-3.93-9.81-7.34-19.21-10.15-28.08C80.51 192.27 30.88 234.16 0 273.14V420a80 80 0 0 0 80 80h420V147.7c-49-5.97-75.75 62.88-93.9 94.64z" fill="#7e9358"/><path d="M343.76 304l1.12-2.24c18.66-37.31 34.61-74.28 41.53-102.85 2.37-9.78 3.69-18.57 3.69-26.05a140.1 140.1 0 0 0-280.2 0c0 2.17.12 4.46.33 6.84.91 10 3.69 21.92 7.83 35a49.64 49.64 0 0 1 5 3.35c71.7 57.39 154.76 112.11 220.7 85.95z" fill="#f6a446"/><path d="M223.4 424.34c15.71 26 26.6 42.88 26.6 42.88s10.89-16.87 26.6-42.88c18.94-31.34 44.86-76 67.16-120.32-65.94 26.14-149-28.58-220.74-86a49.64 49.64 0 0 0-5-3.35c2.81 8.87 6.22 18.27 10.15 28.08 24.32 60.54 67.35 135.45 95.23 181.59z" fill="#eb7d29"/><path d="M285.39 86.18l-41.65 115.7-19.87-62.21h-30.42L227 225.79a30.9 30.9 0 0 1 0 22.51c-3.14 8.05-8.29 16.63-22.73 19.28l-2.37.44V294l3-.11c13.51-.53 24-5 33-14s16.66-23 24.14-43.87l55.84-149.84z" fill="#fff"/></svg>