<svg xmlns="http://www.w3.org/2000/svg" viewBox="0 0 152 176" role="img" aria-hidden="true" focusable="false"><path fill="#af7e48" d="M137.57 99.31c.61 0 7 5.83 7 5.83l.4 6c-1.49 1.68-3 1.2-5.43 4.22s-6.43-2.82-6.43-2.82l5.23-4.82z"/><path fill="#c69b65" d="M142.49 96.4c1.12-.91 6.14 1.1 7.35 2.91s1.81 6 1.81 6a62.1 62.1 0 0 0-3.62 5.43c-.8 1.61-2.82 1-4-1.2s.6-4.43.6-4.43l-4.83-2.21zM140 82.62c-1.41 0-4 4.22-6.24 4.82s-9.65 3.22-9.65 3.22l3 5.43 11.07-1s3.41-5.23 3.82-7.65-.61-4.82-2-4.82z"/><path fill="#af7e48" d="M58.79 34.92c2.15 3.14 3.37 6 4.94 5s2.89-5.73.74-8.87-5.18-4.83-6.74-3.76-1.1 4.48 1.06 7.63z"/><path fill="#181716" d="M48.41 15.34s2.76-1 3.27-.26 6.78 6.28 8 11-.25 5.27-.5 4.52-9-12.55-9-12.55z"/><path fill="#c6d8ee" d="M53.43 156.44c-1.25-.5-31.13.76-31.13-.25s-6-64.27-6-64.27c8.81-14.18 23.25-19.64 49.9-22.58l22.16 14 8.29 72.81z"/><path fill="#738498" d="M33.08 136.37s6.58-.11 6.62-.13c-1.13 1.48-2.72 2-3.76 3.75 2 1.39 6.58-.71 9 .13-1.84-.13-8.68 3.43-10.51 3.41.93 5.09 9.86 4.65 13 2.89-1.42 1.77-2.11 6.05-2.78 8.26-2.84-2.13-19.16-3.16-25.55-7.78 2.28-4.75 4.72-9.84 6.63-14.8 2-5.12 7-5.34 9.68-10.06.46-.8-.42-11.17-.54-11.5 1.76 3.5 3.29 8.79 3 12.71.55-1.52 3-2.48 4.48-3 .83 3.56.56-7.25-9.27 16.12z"/><path fill="#c6d8ee" d="M67.38 69c.5.5 17 2.17 22.63 4.53 11.46 4.82 5.73 22.92 17.16 27.13 3.8 1.41 19.58-2.51 19.58-2.51l3.77 15.85c-14.13 9.14-27.5 12.4-40.18 10.29L69.25 88.9z"/><path fill="#c69b65" d="M60.46 56.51c.51 2 8.29 29.63 8.29 29.63L51.68 96.69 29.83 80.62 26.57 62z"/><path fill="#af7e48" d="M28.93 67.13c-.79 2.68 7.27 6.66 9.47 7.53A61.27 61.27 0 0 0 49 77.93c3.07.59 7.26 1.17 10.05-.5 4.16-2.5 4.07-9.45 2.71-13.53-3.21 2.21-7.61 1.82-11.44 2.16-7.17.63-14-.25-21.11-.14.08.69-.17 1.5-.08 2.19-.24-.05-.44-.18-.2-.98z"/><path fill="#c6d8ee" d="M62.47 64.05s-2.76 8.53-3.26 12.8 4 16.07 3.77 15.32 9.79-5.28 9.79-5.28z"/><path fill="#c6d8ee" d="M27.82 68.56c-2.26.51-1.5 1.76-2 5.28s.45 10.39.45 10.39l23.15 20L72 92.92l-14.51-4s-2.59-5.77-5.6-8.28-7.5 1.25-12.53-.76c-10.03-4.29-10.53-7.8-11.54-11.32z"/><path fill="#738498" d="M57.5 88.9a93.54 93.54 0 0 1 26.78 6.21l-1.61 1.18c-4.78-2.16-14.19-4.15-23.48-6.43-.33-.08-10.52 16.74-15.14 23.33-.43.61 10.26 10.25 22.53 29.56-15.09-21.12-24.22-27.93-24.34-27.95C41.36 114.6 58 89 57.5 88.9z"/><path fill="#565377" d="M18.53 88.9l4.77-5a74.39 74.39 0 0 1 30.39 26.36s24.15-16.67 24.6-17.32c1.82-2.63-13.89-25.12-15.57-23.6l4.52-.76c8.09 7.08 14 13.79 15.82 19.84C93.4 109.13 98.29 132 98.63 156.69L50.92 160H36.11c11.46-7 16.56-20.78 10.55-46.45C41 101.8 31.83 93.41 18.53 88.9z"/><path fill="#c69b65" d="M48.66 13.08c.76.5 17.83 24.1 19.84 31.38s-5.78 23.6-7.5 25.36-7.28 2.76-10.55 3-18.38-.75-23-6-12.85-33.9-12.85-33.9l2.26-8.79z"/><path fill="#181716" d="M29.53 54c-.75 2.14-2.27 2.27-4.26 1.83l-5.81-5.57-3.2-.58c-4.19-4.33-5.7-11.51-5-21 0 0 12.56-11.3 14.31-7.78s-3 13.56-3.26 17.07-.25 7.28-.25 7.28c-.16 1.38 5.09 5.49 7.47 8.75z"/><path fill="#c6d8ee" d="M39.8 25c4.05-2.29 12.09-6.14 10.59-11.2C49.94 12.28 45 1.45 43.22.2S24.06 4 20 6.55 5.23 17.09 5.23 19.85 10.22 31.23 11 32s25.06-4.87 28.8-7z"/><path fill="#786857" d="M98.88 168L45.4 154.69s55.74-63.78 56.49-63.53 48 .5 48 .5l1 3.27-44.69 69.3c-2.2 2.13-5.2 2.98-7.32 3.77z"/><path fill="#614d41" d="M45.15 154.18s49.12 9.58 49.46 10.3c3.77.5 6.78-.25 8.79-2l46.95-71.06.5 3.52-45.19 71.56c-.65 2.78-6.38 4.36-11.55 2.68s-48-12.23-48-12.23z"/><path fill="#181716" d="M43.64 69.57s6.7 6.76 11.47 6 6.09-.76 7.85-4c2.72-5.06.65-6.12-1.41-11.46L61 64.52l-2.47-2.62-.8 4.43-2.21-2.42-1 3.82-2.62-1.81v3.62l-4.22-1.81 1.41 3z"/><path fill="#edb059" d="M141.63 95.18c0 7.28-11 12.52-23 11.43-11.16-1-19.3-4.1-19.3-11.38s9.42-15.65 20.63-15.65c.57 0 1.15 0 1.73.06.78 1.39 2.66 1.31 4.72.83 8.43 2.34 15.22 8.86 15.22 14.71z"/><path fill="#af7e48" d="M120.15 85.22c-3.75 1.64-6 6.68-8 10.13.39-3.76.7-7.91 3.81-11.23a19.75 19.75 0 0 0-10.69.72c1.56-1.31 5.41-3.39 13.06-2.87a9.21 9.21 0 0 1 3.35-2.32c.88.75 3.32 1 4.92.76a4.46 4.46 0 0 0-3.11 2.26c4.17.66 9.54 4.09 11.19 7.9-3.46-2.86-8.68-5.71-14.53-5.35z"/><path fill="#edb059" d="M125.54 116.56c0 8-12 13.68-25.19 12.48-12.19-1.1-21.08-4.47-21.08-12.42s10.29-17.11 22.53-17.11c.64 0 1.27 0 1.89.07.86 1.52 2.91 1.43 5.16.91 9.27 2.51 16.69 9.67 16.69 16.07z"/><path fill="#cf8c33" d="M79.21 116.62a13.2 13.2 0 0 1 2.38-7.92 23.41 23.41 0 0 1 6-5.91 25.34 25.34 0 0 1 7.72-3.51 24.67 24.67 0 0 1 8.47-.83h.61l.29.52a1.15 1.15 0 0 0 .51.49 2.37 2.37 0 0 0 .93.21 9.72 9.72 0 0 0 2.49-.27l.28-.06.24.07a30.79 30.79 0 0 1 5.88 2.41 26.89 26.89 0 0 1 5.14 3.71 18.73 18.73 0 0 1 4 4.94 11.22 11.22 0 0 1 1.5 6h-.13a11.48 11.48 0 0 0-1.85-5.75 20 20 0 0 0-4-4.58 28.62 28.62 0 0 0-10.77-5.63h.06a10.68 10.68 0 0 1-2.82.34 3.61 3.61 0 0 1-1.4-.31 2.41 2.41 0 0 1-1.08-1l.1.07a25 25 0 0 0-8.08.72 25.69 25.69 0 0 0-7.45 3.22 22.49 22.49 0 0 0-6 5.46 13.41 13.41 0 0 0-2.81 7.51z"/><path fill="#af7e48" d="M102.07 105.68c-4.09 1.79-6.58 7.3-8.72 11.06.43-4.1.77-8.63 4.16-12.27a21.71 21.71 0 0 0-11.68.79c1.71-1.43 5.92-3.7 14.27-3.14.56-.91 2.57-2.05 3.66-2.53 1 .82 3.63 1.1 5.37.83-1.85.59-2.62 1.11-3.39 2.47 4.56.72 10.43 4.47 12.23 8.64-3.81-3.13-9.49-6.24-15.9-5.85z"/><path fill="#edb059" d="M106.78 143.09c0 8.75-13.24 15-27.7 13.73-13.41-1.21-23.18-4.92-23.18-13.66s11.31-18.81 24.78-18.81c.69 0 1.38 0 2.07.08.94 1.66 3.2 1.57 5.67 1 10.2 2.8 18.36 10.63 18.36 17.66z"/><path fill="#cf8c33" d="M55.84 143.16a14.64 14.64 0 0 1 2.65-8.67A25.69 25.69 0 0 1 65.1 128a27.89 27.89 0 0 1 8.46-3.83 27.12 27.12 0 0 1 9.28-.91l.61.06.29.52a1.35 1.35 0 0 0 .61.57 2.68 2.68 0 0 0 1.07.25 10.48 10.48 0 0 0 2.76-.31l.28-.06.25.07a33.88 33.88 0 0 1 6.45 2.64 30.09 30.09 0 0 1 5.64 4.05 21 21 0 0 1 4.36 5.39 12.34 12.34 0 0 1 1.68 6.62h-.12a12.55 12.55 0 0 0-2-6.32 22.19 22.19 0 0 0-4.43-5 31.83 31.83 0 0 0-11.86-6.2h.06a11.89 11.89 0 0 1-3.09.38 3.92 3.92 0 0 1-1.54-.34 2.68 2.68 0 0 1-1.18-1.08l.1.06a27.44 27.44 0 0 0-8.89.8 28.7 28.7 0 0 0-8.2 3.54 24.88 24.88 0 0 0-6.6 6 14.84 14.84 0 0 0-3.09 8.26z"/><path fill="#af7e48" d="M81 131.13c-4.5 2-7.24 8-9.59 12.16.47-4.51.85-9.49 4.57-13.48-3.52-.89-9.46-.61-12.84.86 1.88-1.57 6.51-4.07 15.7-3.45.61-1 2.82-2.25 4-2.78 1 .9 4 1.21 5.91.91-2 .65-2.88 1.21-3.73 2.72 5 .79 11.46 4.91 13.44 9.49-4.19-3.44-10.46-6.86-17.46-6.43z"/><path fill="#c6d8ee" d="M50.5 153.36c-1.76-.76-19.41-6.71-19.41-6.71a4.65 4.65 0 0 0 .5-3.77c-.75-1.75-3.26-1-3.26-1s7.5-11.47 7-21-19.06-28.96-19.06-28.96S6 108 4.47 114.26s.55 11.53.25 15.57c-1.5 20.34-9.29 25.16.43 32.69 9 7 39.75 10 39.75 10z"/><path fill="#c6d8ee" d="M57.7 154.51l-11.55-4.34c-3.37.48-11.35 20.51-8.28 23.67.52.54 12.84 3.82 14.38 1.08 3.06-5.42 5.45-20.41 5.45-20.41z"/><path fill="#738498" d="M50.74 173.92c1.79-2.79 2.4-6.58 3.21-9.78.54-2.11 1.58-6.19.21-8.24-3.03 1.45-5.83 17.9-3.42 18.02z"/><path fill="#c69b65" d="M53.86 155.16a43.75 43.75 0 0 0 5.85 1.28c1.26 0 4-2.83 5.8-3.59a15.89 15.89 0 0 1 6.15-1.43c2.26 0 5 2.43 6.71 2.91s4.68-.88 7.2-1.4c4.16-.86 2 6-2.08 7a23.14 23.14 0 0 1-6.35.5s5.92 3 4.42 5l9 2.69c-4 2.51-3.51 3.84-6 4.59S79 170 79 170s-1 2.51-3 2.51-4.27-1.25-5.52-.75-1.26 2.51-3.27 2.51-5.52-2.51-5.52-2.51l-6-6-5-.25c-.59-2.94.87-7.24 3.17-10.35z"/><path fill="#fff" d="M58.22 53.16a.57.57 0 0 0-.13-.63.57.57 0 0 0-.63-.11l-15.61 7a.34.34 0 0 0 .14.65c3.33 0 11-.17 12.72-1.42 1.5-1.06 2.82-3.83 3.51-5.49zM40.83 41.59a4.77 4.77 0 0 0-6-2c-4 1.61-3 6.23-3 6.23 3.97-.27 7.31-1.3 9-4.23z"/><path fill="#181716" d="M40.8 41.61a6 6 0 0 0-2.91-1.67 4.86 4.86 0 0 0-3 .46 4.47 4.47 0 0 0-2.21 2.06 9 9 0 0 0-.83 3.34h-.08a6.89 6.89 0 0 1 .29-3.6 4.57 4.57 0 0 1 2.48-2.6 4.94 4.94 0 0 1 3.58-.32 5.15 5.15 0 0 1 2.78 2.27z"/><path fill="#fff" d="M51.27 38.22s-1.19-4.48 2.23-5.48 5.29 2.18 5.29 2.18c-2.33 1.65-5.11 3.51-7.52 3.3z"/><path fill="#181716" d="M51.23 38.23a5.1 5.1 0 0 1-.56-3.33 3.75 3.75 0 0 1 .77-1.72 3.82 3.82 0 0 1 1.61-1.09 4.43 4.43 0 0 1 5.77 2.8h-.07a5.3 5.3 0 0 0-2.36-2 4.2 4.2 0 0 0-3.06 0 3 3 0 0 0-1.29.82 3.37 3.37 0 0 0-.72 1.36 6.5 6.5 0 0 0 0 3.13zm-14.97-6.86a1 1 0 0 1 .78 0 1 1 0 0 1 .55.56l.64 1.65a1 1 0 0 1 0 .78 1 1 0 0 1-.59.51 21.47 21.47 0 0 0-9.54 6.4.38.38 0 0 1-.3.11.34.34 0 0 1-.26-.17l-.62-1a1.12 1.12 0 0 1 0-1.17c1.84-2.98 4.89-5.53 9.34-7.67zM48 26.44a.75.75 0 0 0-.37.41.73.73 0 0 0 0 .56l.64 1.32a1.3 1.3 0 0 0 .82.68 1.32 1.32 0 0 0 1.06-.16 15.4 15.4 0 0 1 7.14-2.11.4.4 0 0 0 .35-.24.42.42 0 0 0-.05-.42l-.44-.58a2.31 2.31 0 0 0-1.46-.9A12.86 12.86 0 0 0 48 26.44z"/><circle cx="35.93" cy="42.52" r="1.81" fill="#181716"/><circle cx="53.63" cy="35.28" r="1.81" fill="#181716"/><circle cx="36.44" cy="41.52" r=".61" fill="#fff"/><circle cx="54.1" cy="34.31" r=".62" fill="#fff"/><path fill="#738498" d="M39.43 2.57c-.57 1.28-2.24 2-3.22 3.06A25.76 25.76 0 0 1 29 10.5a43.61 43.61 0 0 1-18.65 4.95 32.42 32.42 0 0 0 7-2.82c3-1.5 4.64-4.45 7.81-5.74 2.68-1.08 5.22.3 7.66-.55a25.48 25.48 0 0 0 6.61-3.77z"/><path fill="#af7e48" d="M46.06 49.83a2.21 2.21 0 0 0-.44 2.47c1.22 1.22 3.7-1 5.65-1.24.56-.07 6-.32 6.07-3.84.07-2.47-2.86-2.35-4.25-3.31-2.52-1.73-2.43-5.15-4.83-7.27 1.24 2.22 2.21 4.81 3.59 7 1.08 1.71 4 2.2 4 4.08s-3.71 2.89-5.93 2.16c-.84.95-4.38 2.5-3.86-.05z"/><path fill="#c69b65" d="M23.76 54.27c1.72 3.4 2.73 6.13.07 7.48S15.42 60 13.7 56.57s-.84-7.15 2.13-7.31c4.09-.26 6.17 1.6 7.93 5.01z"/><circle cx="60.49" cy="96.85" r="3.02" fill="#738498"/><circle cx="61.09" cy="96.16" r="2.34" fill="#c6d8ee"/></svg>