<svg role="img" aria-hidden="true" xmlns="http://www.w3.org/2000/svg" viewBox="0 0 520 272" focusable="false"><path fill="#899f60" d="M0 0h520v272H0z"/><path fill="#fff" d="M0 0v272h101.2L255.3 0H0z" opacity=".13"/><path fill="#fff" d="M60.46 180.19V199c11.62-.48 20.71-4.3 28.4-12.09s14.74-20.43 21.46-39.19l49.8-133.31H136L95.9 125.73 76 63.27H54l29.26 75.15a30.9 30.9 0 0 1 0 22.47c-3.01 7.63-8.33 16.61-22.8 19.3z" opacity=".3"/><circle cx="218.85" cy="65.05" r="52.5" fill="#fff" opacity=".3"/><circle cx="162.08" cy="164.5" r="34.25" fill="#fff" opacity=".3"/><circle cx="118.56" cy="239.22" r="20.65" fill="#fff" opacity=".3"/><path fill="#af7e48" d="M492.16 176.18c.94 0 10.95 9.07 10.95 9.07l.62 9.38c-2.32 2.62-4.69 1.88-8.44 6.57s-10-4.38-10-4.38l8.12-7.5z"/><path fill="#c69b65" d="M499.8 171.66c1.74-1.42 9.56 1.71 11.44 4.52s2.81 9.38 2.81 9.38a93.72 93.72 0 0 0-5.63 8.45c-1.25 2.5-4.38 1.56-6.25-1.88s.94-6.88.94-6.88l-7.51-3.44zm-3.88-21.43c-2.19 0-6.26 6.57-9.7 7.51s-15 5-15 5l4.69 8.44 17.19-1.56s5.32-8.13 5.94-11.88-.94-7.51-3.12-7.51z"/><path fill="#af7e48" d="M369.69 76.08c3.35 4.89 5.25 9.42 7.68 7.75s4.5-8.91 1.15-13.8-8-7.5-10.48-5.83-1.7 6.99 1.65 11.88z"/><path fill="#181716" d="M353.56 45.64s4.3-1.56 5.08-.39 10.53 9.75 12.49 17.18-.39 8.19-.78 7-14.06-19.51-14.06-19.51z"/><path fill="#c6d8ee" d="M361.37 265c-1.95-.78-48.4 1.17-48.4-.39s-9.37-99.92-9.37-99.92c13.69-22 36.13-30.52 77.57-35.09l34.45 21.82 12.88 113.19z"/><path fill="#738498" d="M329.72 233.8c.07 0 10.24-.17 10.3-.2-1.76 2.3-4.23 3.18-5.84 5.83 3.16 2.15 10.23-1.11 13.92.2-2.86-.21-13.49 5.33-16.34 5.29 1.45 7.92 15.33 7.24 20.19 4.51-2.2 2.73-3.27 9.4-4.32 12.83-4.42-3.32-29.77-4.92-39.71-12.1 3.55-7.38 7.34-15.3 10.3-23 3-8 10.81-8.3 15-15.63.71-1.25-.66-17.38-.83-17.88 2.73 5.43 5.11 13.65 4.72 19.74.85-2.35 4.64-3.85 7-4.65 1.32 5.53.89-11.3-14.39 25.06z"/><path fill="#c6d8ee" d="M383.05 129.13c.78.78 26.46 3.37 35.17 7 17.82 7.51 8.91 35.65 26.68 42.19 5.91 2.18 30.44-3.9 30.44-3.9L481.2 199c-22 14.2-42.75 19.28-62.46 16L386 160z"/><path fill="#c69b65" d="M372.3 109.66c.78 3.12 12.88 46.05 12.88 46.05l-26.54 16.4-34-25-5.08-28.89z"/><path fill="#af7e48" d="M323.28 126.16c-1.23 4.17 11.3 10.35 14.72 11.7a95 95 0 0 0 16.49 5.14c4.78.92 11.28 1.82 15.62-.78 6.47-3.88 6.33-14.69 4.21-21-5 3.44-11.83 2.84-17.77 3.37-11.16 1-21.84-.4-32.83-.23.13 1.08-.25 2.35-.11 3.42-.39-.18-.72-.37-.33-1.62z"/><path fill="#c6d8ee" d="M375.42 121.36s-4.29 13.28-5.07 19.91 6.24 25 5.85 23.81 15.22-8.2 15.22-8.2l-5.83-20.54-5.29-8z"/><path fill="#c6d8ee" d="M321.56 128.39c-3.52.78-2.35 2.73-3.13 8.2s.71 16.16.71 16.16l36 31.07 35.13-17.57-22.58-6.25s-4-9-8.71-12.88-11.66 2-19.47-1.18c-15.61-6.62-16.39-12.09-17.95-17.55z"/><path fill="#738498" d="M367.69 160a145.15 145.15 0 0 1 41.62 9.65l-2.5 1.83c-7.43-3.36-22.06-6.44-36.5-10-.51-.13-16.35 26-23.53 36.27-.67 1 16 15.94 35 46-23.45-32.83-37.64-43.42-37.83-43.46-1.36-.29 24.51-40.1 23.74-40.29z"/><path fill="#565377" d="M306.54 160s5.79-7.79 7.42-7.81c6.27-.09 37.23 25.23 47.8 41 0 0 37.55-25.91 38.25-26.93 2.82-4.08-21.59-39-24.2-36.69 0 0 3.86-.56 4.41-.56 1.63 0 3.08-.27 3.71.33 4.47 4.23 21 21.67 23.5 29.9 16.07 32.22 23.67 67.79 24.2 106.16l-74.16 5.08h-23c17.81-10.88 25.74-32.31 16.39-72.21-8.81-18.22-23.65-31.27-44.32-38.27z"/><path fill="#c69b65" d="M354 42.13c1.17.78 27.71 37.47 30.84 48.79s-9 36.69-11.71 39.42-11.32 4.3-16.4 4.69-28.57-1.18-35.83-9.37-20-52.69-20-52.69l3.51-13.67z"/><path fill="#181716" d="M324.21 105.75c-1.17 3.32-3.53 3.53-6.63 2.85l-9-8.66-5-.9c-6.51-6.73-8.86-17.89-7.78-32.71 0 0 19.51-17.56 22.24-12.1s-4.68 21.08-5.04 26.54-.39 11.32-.39 11.32c-.26 2.19 7.9 8.59 11.6 13.66z"/><path fill="#c6d8ee" d="M340.18 60.67c6.29-3.57 18.79-9.55 16.46-17.41-.7-2.37-8.43-19.2-11.16-21.15s-29.78 6-36 9.87-23 16.4-23 20.69 7.76 17.68 8.93 18.85 38.95-7.52 44.77-10.85z"/><path fill="#786857" d="M446.78 272l66-102.63-1.56-5.07s-73.38-.39-74.55-.78-87.82 98.75-87.82 98.75l36 9.73z"/><path fill="#614d41" d="M512.81 169.37l-.78-5.46L440.85 272h7.27l64.69-102.63zM397.29 272c-22-4.49-48.8-10.51-48.8-10.51l1.56 4.29s9.7 3.12 22.13 6.22h25.11z"/><path fill="#181716" d="M346.15 130s10.41 10.51 17.83 9.34 9.46-1.18 12.19-6.25c4.24-7.88 1-9.53-2.19-17.82l-.98 6.83-3.71-4.1-1.29 6.91-3.44-3.75-1.56 5.94-4-2.82v5.63l-6.56-2.81 2.19 4.65z"/><path fill="#edb059" d="M498.48 169.76c0 11.32-17.13 19.47-35.85 17.77-17.34-1.57-30-6.36-30-17.68s14.64-24.34 32.06-24.34c.9 0 1.8 0 2.69.1 1.22 2.16 4.14 2 7.34 1.29 13.2 3.63 23.76 13.77 23.76 22.86z"/><path fill="#af7e48" d="M465.09 154.28c-5.84 2.55-9.37 10.39-12.41 15.74.6-5.83 1.09-12.28 5.91-17.45-4.56-1.14-12.24-.79-16.61 1.12 2.43-2 8.42-5.26 20.3-4.46.79-1.3 3.65-2.92 5.21-3.6 1.36 1.16 5.16 1.56 7.64 1.18-2.63.84-3.73 1.57-4.82 3.51 6.48 1 14.83 6.36 17.39 12.29-5.41-4.46-13.5-8.88-22.61-8.33z"/><path fill="#edb059" d="M473.46 203c0 12.36-18.71 21.26-39.16 19.41-18.95-1.72-32.77-7-32.77-19.32s16-26.59 35-26.59c1 0 2 0 2.94.11 1.33 2.36 4.52 2.22 8 1.4 14.45 3.99 25.99 15.05 25.99 24.99z"/><path fill="#cf8c33" d="M401.43 203.09a16.62 16.62 0 0 1 .86-6.4 23.65 23.65 0 0 1 1.22-3.05c.49-1 1.06-1.92 1.62-2.86a36.75 36.75 0 0 1 9.34-9.19 39.4 39.4 0 0 1 25.16-6.76l.94.08.48.82a1.75 1.75 0 0 0 .78.74 3.8 3.8 0 0 0 1.45.32 15.29 15.29 0 0 0 3.84-.45l.46-.11.39.12a48.1 48.1 0 0 1 9.13 3.81 42.51 42.51 0 0 1 8 5.78 29.18 29.18 0 0 1 6.15 7.66 17.41 17.41 0 0 1 2.33 9.4h-.2a17.63 17.63 0 0 0-2.88-8.93 30.81 30.81 0 0 0-6.26-7.12 44.76 44.76 0 0 0-16.75-8.77h.08a17.27 17.27 0 0 1-4.37.54 6 6 0 0 1-2.19-.49 3.73 3.73 0 0 1-1.66-1.53l.15.09c-1.05 0-2.11-.09-3.16-.09l-3.17.14-3.14.41c-1 .17-2.06.45-3.09.67a40.18 40.18 0 0 0-11.59 5 35.47 35.47 0 0 0-9.33 8.49 20.86 20.86 0 0 0-4.37 11.67z"/><path fill="#af7e48" d="M437 186.08c-6.37 2.79-10.24 11.36-13.56 17.2.66-6.38 1.2-13.42 6.46-19.07-5-1.25-13.37-.86-18.15 1.22 2.65-2.21 9.2-5.74 22.19-4.87.86-1.42 4-3.19 5.69-3.93 1.48 1.27 5.63 1.7 8.35 1.29-2.88.91-4.08 1.71-5.27 3.84 7.08 1.11 16.2 7 19 13.42-5.94-4.87-14.77-9.7-24.71-9.1z"/><path fill="#edb059" d="M444.3 244.25c0 13.59-20.58 23.39-43.07 21.34-20.84-1.89-36-7.64-36-21.24s17.59-29.24 38.52-29.24c1.08 0 2.15 0 3.22.12 1.47 2.59 5 2.45 8.82 1.55 15.82 4.36 28.51 16.54 28.51 27.47z"/><path fill="#cf8c33" d="M365.1 244.35a17.78 17.78 0 0 1 1-7 27.42 27.42 0 0 1 3.17-6.45 39.89 39.89 0 0 1 10.26-10.06 43.89 43.89 0 0 1 13.14-6 43.17 43.17 0 0 1 14.45-1.34l.94.07.47.83a2.06 2.06 0 0 0 .95.87 4.22 4.22 0 0 0 1.65.38 16.91 16.91 0 0 0 4.28-.51l.45-.1.4.11a52.24 52.24 0 0 1 10 4.17 46.6 46.6 0 0 1 8.78 6.3 32.44 32.44 0 0 1 6.77 8.38 19.25 19.25 0 0 1 2.62 10.29h-.2a19.66 19.66 0 0 0-3.17-9.83 33.87 33.87 0 0 0-6.89-7.83 49.11 49.11 0 0 0-18.46-9.63h.09a18.41 18.41 0 0 1-4.8.59 6.3 6.3 0 0 1-2.4-.54 4.11 4.11 0 0 1-1.83-1.67l.16.1a43 43 0 0 0-13.83 1.22 44.29 44.29 0 0 0-12.75 5.5 38.61 38.61 0 0 0-10.25 9.36c-2.74 3.72-4.76 8.16-4.8 12.84z"/><path fill="#af7e48" d="M404.18 225.65c-7 3.06-11.26 12.48-14.91 18.91.73-7 1.31-14.76 7.11-21-5.49-1.37-14.71-1-20 1.34 2.91-2.43 10.11-6.31 24.39-5.35.95-1.57 4.38-3.51 6.26-4.33 1.63 1.4 6.2 1.87 9.18 1.42-3.17 1-4.48 1.88-5.8 4.22 7.79 1.23 17.82 7.64 20.9 14.76-6.47-5.32-16.18-10.62-27.13-9.97z"/><path fill="#c6d8ee" d="M326.63 249.78s1.95-3.12.78-5.86-5.07-1.56-5.07-1.56 11.66-17.84 10.88-32.67-29.62-45-29.62-45-16 25-18.34 34.74.85 17.92.39 24.2c-2.18 29.33-12.73 37.93-2.18 48.37h70.06l3.27-11.8c-2.73-1.2-30.17-10.42-30.17-10.42z"/><path fill="#c6d8ee" d="M350.05 255.24c-2.56.37-6.84 8.48-10 16.76 8.73-.08 17.47.06 26.2 0 1.09-5.3 1.73-10 1.73-10z"/><path fill="#738498" d="M362.5 264.16c-1.44.69-2.85 4.19-4 7.84h4.85c.35-2.66.33-6.07-.85-7.84z"/><path fill="#c69b65" d="M402.93 272c1.59-.1 3.41-1.1 5.16-1.53 6.35-1.59 9.71-12.27 3.24-10.93-3.92.81-8.55 2.94-11.2 2.18s-6.91-4.53-10.43-4.53a24.56 24.56 0 0 0-9.55 2.23c-2.74 1.17-7.07 5.58-9 5.58s-9.1-2-9.1-2c-1.83 2.48-4.22 9-4.22 9z"/><path fill="#fff" d="M368.81 104.45a.9.9 0 0 0-1.19-1.16l-24.26 10.93a.53.53 0 0 0-.3.59.52.52 0 0 0 .51.42c5.19 0 17.11-.26 19.78-2.2 2.34-1.7 4.39-6.03 5.46-8.58zm-27.03-18s-3.13-5.62-9.38-3.12-4.69 9.67-4.69 9.67c6.29-.39 11.44-2 14.07-6.55z"/><path fill="#181716" d="M341.72 86.49a9.22 9.22 0 0 0-4.52-2.59 7.49 7.49 0 0 0-4.7.71 6.88 6.88 0 0 0-3.44 3.21 13.86 13.86 0 0 0-1.29 5.18h-.13a10.68 10.68 0 0 1 .45-5.6 7.64 7.64 0 0 1 1.52-2.4 6.81 6.81 0 0 1 1.09-.92c.2-.13.39-.28.6-.4l.64-.31a9.34 9.34 0 0 1 2.74-.78 7.31 7.31 0 0 1 2.83.28 8 8 0 0 1 4.33 3.52z"/><path fill="#fff" d="M358 81.22s-1.84-7 3.48-8.52 8.21 3.38 8.21 3.38c-3.61 2.57-7.94 5.46-11.69 5.14z"/><path fill="#181716" d="M357.93 81.23a8 8 0 0 1-.86-5.17 5.74 5.74 0 0 1 1.2-2.67 5.91 5.91 0 0 1 2.49-1.7 6.9 6.9 0 0 1 9 4.36l-.12.06A8.19 8.19 0 0 0 366 73a6.54 6.54 0 0 0-4.75 0 4.85 4.85 0 0 0-2 1.28 5.36 5.36 0 0 0-1.12 2.12 10.11 10.11 0 0 0 0 4.86zm-23.27-10.66a1.52 1.52 0 0 1 1.22 0 1.55 1.55 0 0 1 .86.86l1 2.57a1.54 1.54 0 0 1-1 2A33.5 33.5 0 0 0 322 85.91a.54.54 0 0 1-.46.17.5.5 0 0 1-.41-.26l-1-1.6a1.73 1.73 0 0 1 0-1.82c2.87-4.53 7.62-8.5 14.53-11.83zm18.19-7.67a1.13 1.13 0 0 0-.53 1.51l1 2a2.05 2.05 0 0 0 2.93.82 23.79 23.79 0 0 1 11.1-3.23.65.65 0 0 0 .47-1l-.7-.91a3.57 3.57 0 0 0-2.25-1.36c-3.82-.68-7.87.15-12.02 2.17z"/><circle cx="334.16" cy="87.9" r="2.81" fill="#181716"/><circle cx="361.67" cy="76.64" r="2.81" fill="#181716"/><circle cx="334.95" cy="86.35" r=".94" fill="#fff"/><circle cx="362.41" cy="75.14" r=".96" fill="#fff"/><path fill="#738498" d="M339.59 25.8c-.89 2-3.48 3.17-5 4.76-3.17 3.3-7.14 5.5-11.24 7.56-9.07 4.55-18.8 7.5-29 7.7a50.07 50.07 0 0 0 10.84-4.38c4.62-2.34 7.22-6.92 12.14-8.92 4.17-1.69 8.12.46 11.91-.86a39.23 39.23 0 0 0 10.35-5.86z"/><path fill="#af7e48" d="M349.91 99.27c-1.18 1.18-1.21 3.32-.69 3.84 1.9 1.9 5.75-1.52 8.78-1.93.87-.11 9.27-.51 9.43-6 .12-3.84-4.43-3.66-6.6-5.15-3.91-2.69-3.78-8-7.51-11.3 1.93 3.45 3.44 7.48 5.58 10.85 1.69 2.66 6.23 3.42 6.23 6.35s-5.77 4.49-9.22 3.36c-1.31 1.53-6.81 3.94-6-.02z"/><path fill="#c69b65" d="M315.24 106.16c2.68 5.29 4.24 9.55.11 11.64s-13.08-2.76-15.75-8-1.31-11.12 3.31-11.37c6.35-.43 9.66 2.44 12.33 7.73z"/><circle cx="372.34" cy="172.35" r="4.69" fill="#738498"/><circle cx="373.28" cy="171.3" r="3.63" fill="#c6d8ee"/></svg>