<svg role="img" aria-hidden="true" xmlns="http://www.w3.org/2000/svg" viewBox="0 0 500 500" focusable="false"><path fill="#899f60" d="M80 0h340a80 80 0 0 1 80 80v420H80a80 80 0 0 1-80-80V80A80 80 0 0 1 80 0z"/><path fill="#fff" d="M420 0H80A80 80 0 0 0 0 80v340a80 80 0 0 0 80 80h75.89L437.61 2" opacity=".13"/><path fill="#fff" d="M46.1 337.3v34.9c21.6-.9 38.5-8 52.8-22.5s27.4-38 39.9-72.9l92.6-248h-44.8L112 236 75 119.8H34l54.4 139.8a57.54 57.54 0 0 1 0 41.8c-5.5 14.2-15.4 30.9-42.3 35.9z" opacity=".3"/><path fill="#c69b65" d="M489 283.23c-3.89 0-11.13 11.69-17.25 13.36s-26.71 8.9-26.71 8.9l8.35 15 30.61-2.75s9.46-14.47 10.57-21.15-1.63-13.36-5.57-13.36z"/><path fill="#af7e48" d="M264.36 151.24c6 8.7 9.34 16.76 13.68 13.79s8-15.85 2-24.55-14.32-13.36-18.66-10.39-2.98 12.44 2.98 21.15z"/><path fill="#181716" d="M235.65 97.06s7.65-2.78 9-.7 18.75 17.37 22.23 30.57-.7 14.59-1.39 12.51-25-34.74-25-34.74z"/><path fill="#c6d8ee" d="M249.55 487.52c-3.47-1.39-86.15 2.08-86.15-.7S146.72 309 146.72 309c24.38-39.27 64.28-54.37 138.08-62.5l61.32 38.84 22.93 201.48z"/><path fill="#738498" d="M193.22 432c.12.06 18.22-.3 18.33-.36-3.13 4.1-7.53 5.66-10.4 10.38 5.63 3.83 18.21-2 24.78.36-5.09-.38-24 9.48-29.09 9.41 2.59 14.09 27.3 12.89 35.94 8-3.91 4.88-5.81 16.74-7.69 22.84-7.86-5.9-53-8.75-70.68-21.53 6.31-13.14 13.06-27.23 18.33-40.94 5.44-14.17 19.25-14.77 26.79-27.83 1.28-2.21-1.17-30.92-1.48-31.82 4.87 9.67 9.1 24.31 8.41 35.15 1.51-4.19 8.26-6.86 12.39-8.3 2.33 9.86 1.59-20.11-25.63 44.64z"/><path fill="#c6d8ee" d="M288.14 245.67c1.39 1.39 47.11 6 62.61 12.52 31.72 13.35 15.86 63.44 47.48 75.09 10.53 3.88 54.19-6.95 54.19-6.95l10.42 43.77c-39.09 25.29-76.09 34.33-111.16 28.49l-58.36-98z"/><path fill="#c69b65" d="M269 211c1.39 5.56 22.93 82 22.93 82l-47.24 29.18-60.45-44.48-9-51.41z"/><path fill="#af7e48" d="M181.74 240.39c-2.18 7.42 20.12 18.42 26.21 20.82a169.23 169.23 0 0 0 29.36 9.05c8.5 1.64 20.08 3.24 27.8-1.39 11.52-6.91 11.27-26.14 7.49-37.44-8.86 6.12-21.06 5-31.63 6-19.86 1.75-38.88-.7-58.44-.4.23 1.91-.45 4.18-.2 6.08-.69-.17-1.26-.5-.59-2.72z"/><path fill="#c6d8ee" d="M274.56 231.84s-7.64 23.63-9 35.44 11.12 44.46 10.42 42.38 27.1-14.59 27.1-14.59l-10.42-36.57-9.42-14.15z"/><path fill="#c6d8ee" d="M178.68 244.35c-6.25 1.39-4.17 4.86-5.55 14.59s1.25 28.77 1.25 28.77L238.43 343 301 311.74l-40.2-11.12s-7.16-16-15.49-22.92-20.77 3.47-34.67-2.09c-27.79-11.81-29.18-21.53-31.96-31.26z"/><path fill="#738498" d="M260.8 300.62c.13 0 34.07 1.56 74.09 17.18l-4.45 3.27c-13.23-6-39.27-11.47-65-17.8-.9-.23-29.1 46.32-41.88 64.55-1.19 1.71 28.39 28.38 62.33 81.81-41.73-58.43-67-77.28-67.33-77.36-2.43-.53 43.6-71.27 42.24-71.65z"/><path fill="#565377" d="M152 300.62s10.31-13.85 13.2-13.89c11.16-.16 66.27 44.92 85.08 72.95 0 0 66.84-46.13 68.09-47.94 5-7.27-38.43-69.51-43.07-65.31 0 0 6.86-1 7.84-1 2.91 0 5.48-.48 6.62.59 7.94 7.53 37.38 38.58 41.81 53.22 28.61 57.35 42.14 120.68 43.08 189l-132 9h-41c31.71-19.35 45.82-57.5 29.18-128.53-15.67-32.41-42.08-55.61-78.83-68.09z"/><path fill="#c69b65" d="M236.35 90.81c2.08 1.39 49.33 66.69 54.89 86.84s-16 65.31-20.85 70.17-20.15 7.65-29.18 8.34-50.86-2.08-63.78-16.67-35.57-93.8-35.57-93.8l6.25-24.31z"/><path fill="#181716" d="M183.41 204.05c-2.08 5.92-6.28 6.28-11.81 5.07l-16-15.41-8.87-1.6c-11.58-12-15.77-31.85-13.85-58.23 0 0 34.74-31.26 39.6-21.54s-8.34 37.52-9 47.25-.7 20.15-.7 20.15c-.48 3.9 14.05 15.26 20.63 24.31z"/><path fill="#c6d8ee" d="M211.83 123.82c11.2-6.36 33.46-17 29.31-31-1.25-4.22-15-34.18-19.87-37.65s-53 10.62-64.12 17.57-41 29.18-41 36.82S130 141 132.06 143.12s69.41-13.43 79.77-19.3z"/><path fill="#af7e48" d="M482 376.17a5.58 5.58 0 0 0 5.92-2.23c5.11-6.38 8.78-7.12 12.07-9.19v-17.12z"/><path fill="#786857" d="M470.12 366.15l14.47-13.35-2.22-23.38c1 0 8.36 6.28 13.72 11l3.91-5.94v-26.31c-35.11-.21-114.74-.75-116.36-1.29-2.09-.7-156.32 175.77-156.32 175.77L291.38 500H391l84.24-127.91a41.67 41.67 0 0 1-5.12-5.94z"/><path fill="#786857" d="M482.37 329.42l2.22 23.38-14.47 13.35a41.67 41.67 0 0 0 5.14 5.91l20.83-31.63c-5.36-4.73-12.68-11.01-13.72-11.01z"/><path fill="#614d41" d="M401.57 500H404l78-123.8a5.33 5.33 0 0 1-.66-.17zM500 347l-18.65 29a5.33 5.33 0 0 0 .66.17l18-28.54zm0-12.51l-3.91 5.94c1.53 1.34 2.89 2.56 3.91 3.47zm-24.74 37.57L391 500h10.55l79.78-124a16.8 16.8 0 0 1-6.07-3.94z"/><path fill="#614d41" d="M496.09 340.43l-20.83 31.63a16.8 16.8 0 0 0 6.09 3.94L500 347v-3.1c-1-.9-2.38-2.13-3.91-3.47zM313.5 500c-39.1-8-86.88-18.71-86.88-18.71l2.78 7.65s17.26 5.54 39.39 11.06c14.9-.11 29.8 0 44.71 0z"/><path fill="#181716" d="M222.45 247.13s18.54 18.71 31.74 16.62 16.84-2.1 21.71-11.13c7.54-14 1.8-17-3.9-31.72l-1.67 12.24-6.68-7.23-2.22 12.24-6.12-6.68-2.79 10.58-7.23-5v10l-11.69-5 3.9 8.28z"/><path fill="#edb059" d="M493.61 318c0 20.15-30.49 34.65-63.81 31.63-30.88-2.8-53.38-11.33-53.38-31.48s26.06-43.32 57.06-43.32c1.6 0 3.2.06 4.79.18 2.17 3.84 7.36 3.62 13.06 2.29 23.48 6.45 42.28 24.5 42.28 40.7z"/><path fill="#af7e48" d="M434.17 290.43c-10.38 4.55-16.68 18.5-22.09 28 1.08-10.39 1.94-21.87 10.53-31.07-8.13-2-21.79-1.41-29.58 2 4.33-3.6 15-9.35 36.15-7.93 1.4-2.32 6.49-5.2 9.27-6.41 2.42 2.08 9.18 2.78 13.6 2.1-4.69 1.49-6.64 2.79-8.58 6.26 11.53 1.81 26.39 11.32 30.95 21.86-9.63-7.91-24.03-15.79-40.25-14.81z"/><path fill="#edb059" d="M449.08 377.15c0 22-33.31 37.86-69.71 34.55-33.74-3.06-58.37-12.38-58.37-34.39S349.51 330 383.39 330c1.75 0 3.49.07 5.23.2 2.37 4.19 8 4 14.27 2.5 25.65 7.04 46.19 26.76 46.19 44.45z"/><path fill="#cf8c33" d="M320.87 377.31a28.5 28.5 0 0 1 .15-5.76c.1-1 .35-1.89.53-2.85s.47-1.89.8-2.8a45.08 45.08 0 0 1 5.09-10.5 60.3 60.3 0 0 1 7.5-9A67.46 67.46 0 0 1 344 339a66.48 66.48 0 0 1 10.25-5.76 71.16 71.16 0 0 1 11.08-4 70.12 70.12 0 0 1 23.48-2.2l1.68.14.84 1.46a3.17 3.17 0 0 0 1.4 1.31 6.69 6.69 0 0 0 2.57.57 26.54 26.54 0 0 0 6.85-.81l.8-.18.71.21a83.37 83.37 0 0 1 16.34 6.74 76.12 76.12 0 0 1 14.25 10.23 53.72 53.72 0 0 1 10.9 13.71 38.79 38.79 0 0 1 3.3 8.11 25.45 25.45 0 0 1 .83 8.62h-.35a27.31 27.31 0 0 0-1.44-8.3 37.76 37.76 0 0 0-3.67-7.6 55.28 55.28 0 0 0-11.16-12.67A78.39 78.39 0 0 0 402.8 333h.2a29.89 29.89 0 0 1-7.78 1 10.21 10.21 0 0 1-3.9-.88 6.57 6.57 0 0 1-3-2.72l.28.17c-1.88 0-3.76-.15-5.64-.18l-2.81.07-2.82.19a69.61 69.61 0 0 0-11.1 1.9 71.83 71.83 0 0 0-20.65 8.9A62.34 62.34 0 0 0 329 356.54a44 44 0 0 0-5.52 9.8 30.62 30.62 0 0 0-2.25 11z"/><path fill="#af7e48" d="M384.14 347c-11.34 5-18.23 20.21-24.14 30.62 1.18-11.36 2.13-23.89 11.51-34-8.88-2.22-23.81-1.53-32.31 2.17 4.72-3.94 16.37-10.22 39.49-8.67 1.53-2.53 7.09-5.67 10.13-7 2.64 2.27 10 3 14.85 2.3-5.12 1.63-7.25 3.05-9.37 6.83 12.6 2 28.83 12.37 33.82 23.89-10.53-8.57-26.26-17.14-43.98-16.14z"/><path fill="#edb059" d="M397.16 450.57c0 24.21-36.63 41.63-76.65 38-37.1-3.37-64.14-13.61-64.14-37.82s31.3-52 68.56-52c1.92 0 3.84.07 5.74.22 2.61 4.61 8.85 4.35 15.7 2.74 28.2 7.73 50.79 29.41 50.79 48.86z"/><path fill="#cf8c33" d="M256.19 450.75a33.36 33.36 0 0 1 .21-6.31c.12-1.06.4-2.08.6-3.13s.53-2.07.9-3.07a48.78 48.78 0 0 1 5.64-11.48 65.69 65.69 0 0 1 8.26-9.83 75.42 75.42 0 0 1 21.2-14.38 78.93 78.93 0 0 1 12.15-4.38 76.89 76.89 0 0 1 25.72-2.4l1.68.13.84 1.47a3.74 3.74 0 0 0 1.68 1.56 7.65 7.65 0 0 0 2.95.66 29.74 29.74 0 0 0 7.61-.9l.8-.18.71.21a91.84 91.84 0 0 1 17.86 7.37 83.27 83.27 0 0 1 15.66 11.19 58.85 58.85 0 0 1 12 15 42.2 42.2 0 0 1 3.67 8.88 28.25 28.25 0 0 1 1 9.44H397a30.13 30.13 0 0 0-1.58-9.12 41.63 41.63 0 0 0-4-8.37 60.93 60.93 0 0 0-12.28-13.94A86.22 86.22 0 0 0 346.28 402h.16a32.74 32.74 0 0 1-8.55 1.06 11.34 11.34 0 0 1-4.27-1 7.22 7.22 0 0 1-3.25-3l.28.17c-2.07-.06-4.14-.17-6.2-.2l-3.1.07-3.1.21a76.72 76.72 0 0 0-12.22 2.1 78.63 78.63 0 0 0-22.7 9.8 68.48 68.48 0 0 0-18.24 16.65 48.08 48.08 0 0 0-6.09 10.82 33.62 33.62 0 0 0-2.47 12.07z"/><path fill="#af7e48" d="M325.75 417.47c-12.47 5.46-20 22.22-26.54 33.66 1.3-12.48 2.34-26.27 12.65-37.32-9.76-2.45-26.17-1.69-35.53 2.38 5.19-4.33 18-11.24 43.43-9.53 1.68-2.78 7.8-6.24 11.13-7.7 2.91 2.5 11 3.34 16.34 2.53-5.63 1.79-8 3.35-10.31 7.51 13.86 2.18 31.71 13.6 37.19 26.27-11.57-9.52-28.87-18.99-48.36-17.8z"/><path fill="#c6d8ee" d="M187.72 460.42s3.47-5.56 1.38-10.42-9-2.78-9-2.78 20.77-31.75 19.38-58.15S146.72 309 146.72 309s-28.48 44.47-32.65 61.84 1.52 31.9.7 43.07c-3.87 52.21-22.66 67.53-3.89 86.1h124.71l5.83-21c-4.86-2.12-53.7-18.59-53.7-18.59z"/><path fill="#c6d8ee" d="M229.4 470.15c-4.56.65-12.17 15.08-17.77 29.82 15.55-.14 31.1.11 46.65 0 1.94-9.43 3.08-17.81 3.08-17.81z"/><path fill="#738498" d="M251.56 486c-2.57 1.23-5.07 7.46-7.12 14h8.63c.64-4.76.6-10.84-1.51-14z"/><path fill="#c69b65" d="M323.53 500c2.84-.18 6.07-2 9.18-2.73 11.31-2.82 17.29-21.84 5.77-19.45-7 1.45-15.21 5.23-19.94 3.89s-12.3-8.06-18.55-8.06a43.86 43.86 0 0 0-17 4c-4.86 2.09-12.58 9.94-16.05 9.94S250.73 484 250.73 484c-3.26 4.41-7.51 16-7.51 16z"/><path fill="#fff" d="M262.8 201.73a1.58 1.58 0 0 0-2.12-2l-43.19 19.45a.94.94 0 0 0 .39 1.79c9.22 0 30.44-.46 35.2-3.91 4.16-3.06 7.81-10.73 9.72-15.33zm-48.12-32.03s-5.57-10-16.7-5.56-8.34 17.25-8.34 17.25c11.11-.72 20.36-3.58 25.04-11.69z"/><path fill="#181716" d="M214.58 169.76a16.84 16.84 0 0 0-8.05-4.61 13.44 13.44 0 0 0-8.37 1.26l-1 .45c-.31.17-.59.38-.89.56a12 12 0 0 0-4.25 4.71 25.27 25.27 0 0 0-2.28 9.23h-.23a19 19 0 0 1 .79-10 14.1 14.1 0 0 1 2.7-4.28 13.7 13.7 0 0 1 2-1.63c.36-.23.7-.49 1.07-.71l1.14-.55a16.18 16.18 0 0 1 4.87-1.39 12.81 12.81 0 0 1 5 .49 14.29 14.29 0 0 1 7.7 6.27z"/><path fill="#fff" d="M243.55 160.38s-3.27-12.38 6.19-15.17 14.62 6 14.62 6c-6.43 4.6-14.13 9.79-20.81 9.17z"/><path fill="#181716" d="M243.44 160.41a14 14 0 0 1-1.53-4.37 20.62 20.62 0 0 1-.24-2.38 13.69 13.69 0 0 1 .22-2.45 7.69 7.69 0 0 1 .29-1.24 6 6 0 0 1 .46-1.22 13.34 13.34 0 0 1 .61-1.19l.78-1.11a9 9 0 0 1 1-1l.51-.46.57-.37c.39-.24.77-.5 1.17-.71l1.23-.51.62-.22c.21-.06.42-.09.62-.14l1.25-.25c.41-.08.85-.08 1.27-.12a5.06 5.06 0 0 1 1.29 0l1.29.12 1.25.29a7.57 7.57 0 0 1 1.22.4 6.61 6.61 0 0 1 1.14.54 12.25 12.25 0 0 1 6 7.15l-.2.12a14.62 14.62 0 0 0-6.54-5.56 11.57 11.57 0 0 0-8.45-.09l-1 .38c-.31.17-.61.36-.92.54l-.46.28-.4.35a9.11 9.11 0 0 0-.79.73 9.58 9.58 0 0 0-2 3.78 14.45 14.45 0 0 0-.53 4.3 21.08 21.08 0 0 0 .5 4.34zM202 141.43a2.73 2.73 0 0 1 3.7 1.46l1.78 4.58a2.71 2.71 0 0 1-1.71 3.57c-11.66 3.76-19.6 10.29-26.39 17.69a1 1 0 0 1-.82.31 1 1 0 0 1-.74-.47l-1.71-2.85a3.1 3.1 0 0 1 0-3.24c5.17-8.06 13.6-15.13 25.89-21.05zm32.38-13.65a2 2 0 0 0-1 1.15 2 2 0 0 0 .09 1.54l1.78 3.64a3.61 3.61 0 0 0 5.2 1.46c5.08-3.24 11.64-5.21 19.77-5.84a1.14 1.14 0 0 0 1-.67 1.16 1.16 0 0 0-.13-1.16l-1.24-1.61a6.37 6.37 0 0 0-4-2.43c-6.85-1.15-14.02.33-21.47 3.92z"/><circle cx="201.11" cy="172.27" r="5.01" fill="#181716"/><circle cx="250.09" cy="152.24" r="5.01" fill="#181716"/><circle cx="202.52" cy="169.51" r="1.68" fill="#fff"/><circle cx="251.4" cy="149.57" r="1.7" fill="#fff"/><path fill="#738498" d="M210.78 61.74c-1.57 3.53-6.19 5.65-8.9 8.47-5.64 5.87-12.7 9.8-20 13.46-16.14 8.1-33.46 13.35-51.58 13.71 6.86-1.72 12.72-4.46 19.31-7.8 8.2-4.16 12.84-12.32 21.6-15.88 7.42-3 14.44.83 21.19-1.53 5.36-1.88 14.23-6.78 18.38-10.43z"/><path fill="#af7e48" d="M229.15 192.52c-2.1 2.09-2.15 5.9-1.23 6.83 3.38 3.37 10.24-2.7 15.64-3.43 1.54-.2 16.49-.9 16.78-10.64.21-6.82-7.89-6.5-11.74-9.15-7-4.8-6.73-14.26-13.38-20.13 3.43 6.14 6.12 13.32 9.93 19.32 3 4.74 11.09 6.09 11.09 11.29 0 5-10.27 8-16.4 6-2.33 2.67-12.13 6.95-10.69-.09z"/><path fill="#c69b65" d="M167.45 204.79c4.76 9.41 7.54 17 .18 20.7s-23.27-4.91-28-14.33-2.34-19.78 5.9-20.24c11.27-.63 17.16 4.45 21.92 13.87z"/><circle cx="269.08" cy="322.6" r="8.35" fill="#738498"/><circle cx="270.74" cy="320.72" r="6.46" fill="#c6d8ee"/></svg>