<?xml version="1.0" encoding="UTF-8"?>
<svg viewBox="0 0 299 322" version="1.1" xmlns="http://www.w3.org/2000/svg" xmlns:xlink="http://www.w3.org/1999/xlink">
    <title>fit_bubble_woman_2_optim</title>
    <g id="Page-1" stroke="none" stroke-width="1" fill="none" fill-rule="evenodd">
        <g id="fit_bubble_woman_2_optim" transform="translate(149.205864, 160.614624) scale(-1, 1) translate(-149.205864, -160.614624) " fill-rule="nonzero">
            <circle id="Oval" fill="#F0ECF0" cx="131.2" cy="190.029249" r="131.2"></circle>
            <path d="M262.5,92.2292488 C261.5,93.4292488 259.5,95.1292488 255,97.2292488 C251.615351,98.8633031 247.811472,99.4216706 244.1,98.8292488 C243.6,97.8292488 243.1,96.6292488 242.4,95.5292488 L242.8,95.3292488 L243.1,95.1292488 C244.204038,95.1931527 245.31176,95.1260181 246.4,94.9292488 C248.8,95.1292488 251.1,94.3292488 253.3,91.7292488 C256.4,87.8292488 255,81.0292488 252,77.1292488 C254.6,79.6292488 256,82.8292488 258.4,85.7292488 C259.514931,87.0501932 260.615001,88.3836105 261.7,89.7292488 C261.8,90.1292488 263.2,91.5292488 262.5,92.2292488 L262.5,92.2292488 Z M171.6,190.429249 C175.041331,194.338113 176.513794,199.602168 175.6,204.729249 C164.6,196.829249 153.6,185.829249 143.8,166.929249 C170.3,167.929249 183.2,175.729249 183.3,175.629249 C226.3,158.429249 235,177.129249 250.1,169.329249 C252.4,174.029249 255.4,175.629249 258.5,178.729249 C245,164.829249 264.2,156.729249 253.4,121.029249 C260.7,121.029249 274.2,116.229249 276.3,111.329249 C291.1,137.629249 286.8,151.229249 294.1,165.929249 C294.7,167.129249 296.4,172.629249 297.6,174.129249 C299.6,176.929249 297.6,181.829249 294.9,184.729249 C265.2,217.529249 226,218.329249 201.4,221.529249 C195,216.929249 187.6,213.029249 179.9,207.829249 C178.9,202.729249 178.7,196.629249 171.6,190.429249 Z" id="Shape" fill="#F9BF8C"></path>
            <path d="M253.4,121.029249 C264.2,156.829249 245,164.829249 258.5,178.829249 C255.5,175.629249 252.5,174.029249 250.1,169.329249 C249.984648,168.598091 249.884626,167.864597 249.8,167.129249 C249.583431,165.470289 249.449931,163.80154 249.4,162.129249 L249.4,160.129249 L249.5,156.529249 L249.6,154.729249 L249.9,151.029249 L250.3,147.329249 L250.9,141.729249 C251.198226,138.569551 251.398322,135.40136 251.5,132.229249 L251.5,130.229249 C251.547263,127.625671 251.447103,125.021505 251.2,122.429249 L251,120.829249 C251.785773,121.021363 252.591115,121.12203 253.4,121.129249 L253.4,121.029249 Z M242.4,95.4292488 L244.1,98.8292488 L244,98.8292488 C242.1,98.7292488 241.7,96.5292488 241.3,96.2292488 L241.2,96.0292488 L242.4,95.4292488 L242.4,95.4292488 Z" id="Shape" fill="#DB7A53"></path>
            <path d="M219.7,95.5292488 C219,93.9292488 216.7,92.5292488 214.2,91.9292488 C214.299711,91.9185036 214.400289,91.9185036 214.5,91.9292488 C216.295366,92.0534279 218.083152,91.5977179 219.6,90.6292488 L219.3,90.4292488 C219.366601,90.4334195 219.433399,90.4334195 219.5,90.4292488 C220.444438,90.6342563 221.431277,90.4149589 222.2,89.8292488 C224.474369,88.7361092 226.620769,87.3946096 228.6,85.8292488 C229.576939,85.1619295 230.285597,84.1698078 230.6,83.0292488 L231,83.3292488 C230.3,89.8292488 236.4,94.8292488 243.1,95.2292488 L242.8,95.3292488 L242.4,95.5292488 L241.2,96.1292488 C237.4,98.0292488 230.2,101.829249 227.6,101.729249 C224.7,101.729249 220.7,99.5292488 217.8,97.8292488 C219.2,97.3292488 220.1,96.6292488 219.7,95.5292488 L219.7,95.5292488 Z" id="Path" fill="#DB7A53"></path>
            <path d="M223.7,76.2292488 L223.7,76.5292488 C223.711508,76.971049 223.643772,77.4113377 223.5,77.8292488 C222.2,77.1292488 221.1,76.3292488 220.9,75.2292488 C220.842379,74.6457996 220.946156,74.0577335 221.2,73.5292488 C222.256125,74.1939151 223.118418,75.1251915 223.7,76.2292488 Z" id="Path" fill="#F9BF8C"></path>
            <path d="M253.3,91.7292488 C251.2,94.3292488 248.8,95.1292488 246.4,94.9292488 C248.281815,94.5556818 250.057619,93.77023 251.6,92.6292488 C245.6,95.3292488 241.1,93.7292488 237.8,91.1292488 C236.066991,89.5173966 234.493073,87.7425538 233.1,85.8292488 C232,84.2292488 231.3,83.0292488 231,82.9292488 C230.994997,83.0291862 230.994997,83.1293114 231,83.2292488 L230.7,82.9292488 C230.739961,82.1564764 230.404877,81.4118443 229.8,80.9292488 C228.858875,80.1050366 227.774157,79.4609853 226.6,79.0292488 C227.603342,78.9603467 228.606371,79.1678698 229.5,79.6292488 C231.1,80.5292488 230.5,81.7292488 231.3,82.7292488 C232.118146,81.6532712 232.197396,80.1871475 231.5,79.0292488 C230.7,77.7292488 227.5,77.9292488 225.4,77.7292488 C225.4029,77.6626136 225.4029,77.5958839 225.4,77.5292488 L226.2,76.5292488 C225.86332,76.374526 225.608662,76.0834878 225.5,75.7292488 C224.7,74.5292488 223.1,73.7292488 221.3,73.1292488 L221.4,72.9292488 C221.982766,71.6744555 222.721971,70.4984481 223.6,69.4292488 C224.3,68.6292488 229.1,69.1292488 229.7,68.8292488 C230.518099,69.113919 231.353027,69.347699 232.2,69.5292488 L249,74.6292488 C250.195805,75.1947231 251.228159,76.0550182 252,77.1292488 C255,81.0292488 256.4,87.8292488 253.3,91.7292488 L253.3,91.7292488 Z" id="Path" fill="#F9BF8C"></path>
            <path d="M228.6,85.7292488 C226.620769,87.2946096 224.474369,88.6361092 222.2,89.7292488 C221.456441,90.2863414 220.512487,90.5041768 219.6,90.3292488 C221.1,89.7292488 221.7,88.0292488 220.3,87.5292488 L219.5,83.7292488 C220.189576,83.5674053 220.860006,83.332755 221.5,83.0292488 L221.5,83.1292488 C222,83.9292488 221.9,87.1292488 221.1,87.7292488 C222.1,87.5292488 223.3,84.6292488 223.6,83.7292488 C223.772668,83.1505805 223.524117,82.5292032 223,82.2292488 C223.294969,81.9924716 223.563223,81.7242176 223.8,81.4292488 C224.349475,80.8457088 224.789786,80.1683085 225.1,79.4292488 C225.581597,79.2345859 226.085422,79.1002328 226.6,79.0292488 C227.774157,79.4609853 228.858875,80.1050366 229.8,80.9292488 C230.404877,81.4118443 230.739961,82.1564764 230.7,82.9292488 C230.360196,84.0851025 229.614474,85.0793974 228.6,85.7292488 L228.6,85.7292488 Z M223.6,69.4292488 C222.721971,70.4984481 221.982766,71.6744555 221.4,72.9292488 L221.3,73.1292488 C220.506546,72.9039198 219.706144,72.7038191 218.9,72.5292488 C219.709581,72.7536032 220.483763,73.0902039 221.2,73.5292488 C220.946156,74.0577335 220.842379,74.6457996 220.9,75.2292488 C221.2,76.3292488 222.2,77.2292488 223.5,77.8292488 C223.254132,78.4548219 222.952937,79.0572102 222.6,79.6292488 C221.967708,80.923502 221.043418,82.0531895 219.9,82.9292488 L219.4,83.2292488 L216,67.8292488 L213.9,67.5292488 C214.604976,66.7564789 215.562199,66.2601409 216.6,66.1292488 C221.064308,66.2060522 225.474327,67.1219791 229.6,68.8292488 C229.1,69.1292488 224.3,68.6292488 223.6,69.4292488 Z" id="Shape" fill="#F9BF8C"></path>
            <path d="M219.4,83.2292488 C218.537525,83.6869304 217.576387,83.9272152 216.6,83.9292488 C216.0947,83.9113567 215.592336,83.8443749 215.1,83.7292488 C215.58272,83.8907494 216.091829,83.9586306 216.6,83.9292488 C217.604334,84.0172932 218.616241,83.9498328 219.6,83.7292488 L220.3,87.5292488 C221.7,88.0292488 221.1,89.7292488 219.6,90.3292488 L219.5,90.3292488 C219.433399,90.3334195 219.366601,90.3334195 219.3,90.3292488 C217.070126,89.1032757 214.725618,88.0984862 212.3,87.3292488 C212,83.9292488 211.7,80.6292488 210.3,77.6292488 C212,74.8292488 213.5,72.0292488 212,71.0292488 C212,72.3292488 210.9,74.4292488 209.6,76.4292488 C209.245011,75.8321125 208.843783,75.2637066 208.4,74.7292488 C206.989449,73.1194798 205.203258,71.8828859 203.2,71.1292488 C204,69.4292488 204.6,67.6292488 206.9,67.3292488 C209.197799,67.067231 211.521236,67.134577 213.8,67.5292488 L215.9,67.8292488 L219.4,83.2292488 Z" id="Path" fill="#F9BF8C"></path>
            <path d="M223.7,76.2292488 C224.297355,77.2553911 224.510043,78.4606243 224.3,79.6292488 C224.560309,79.5130526 224.827474,79.412866 225.1,79.3292488 C224.800546,80.1037603 224.359724,80.8158569 223.8,81.4292488 C223.563223,81.7242176 223.294969,81.9924716 223,82.2292488 C222.638365,82.0168407 222.210976,81.9456092 221.8,82.0292488 L221.6,83.0292488 C220.960006,83.332755 220.289576,83.5674053 219.6,83.7292488 C218.616241,83.9498328 217.604334,84.0172932 216.6,83.9292488 C217.576387,83.9272152 218.537525,83.6869304 219.4,83.2292488 L219.9,82.9292488 C221.043418,82.0531895 221.967708,80.923502 222.6,79.6292488 C222.992883,79.0290908 223.327728,78.3928863 223.6,77.7292488 C223.710024,77.3052513 223.743882,76.8650852 223.7,76.4292488 L223.7,76.2292488 Z M225.3,77.5292488 C225.306529,77.6291422 225.306529,77.7293553 225.3,77.8292488 L225.3,77.5292488 Z" id="Shape" fill="#DB7A53"></path>
            <path d="M223,82.2292488 C223.524117,82.5292032 223.772668,83.1505805 223.6,83.7292488 C223.3,84.6292488 222.2,87.5292488 221.1,87.7292488 C221.9,87.0292488 222.1,83.9292488 221.6,83.1292488 L221.6,83.0292488 L221.9,82.0292488 C222.278729,81.9699879 222.66637,82.040468 223,82.2292488 L223,82.2292488 Z" id="Path" fill="#DB7A53"></path>
            <path d="M201.4,91.7292488 C201.095018,91.9147795 200.824373,92.1515938 200.6,92.4292488 C198.6,91.5292488 196.7,89.7292488 194.9,89.0292488 C194.4,88.9292488 192.2,88.2292488 192,87.6292488 C193.57805,88.6450445 195.347976,89.3257852 197.2,89.6292488 C198.562887,90.3712109 199.964938,91.0388543 201.4,91.6292488 L201.4,91.7292488 Z M201.5,89.5292488 L201.6,89.5292488 C203.384455,89.8234727 205.19167,89.9573404 207,89.9292488 C208.163648,90.540882 209.36624,91.0753675 210.6,91.5292488 C208,91.2292488 204.9,90.5292488 202.6,91.1292488 L200.4,89.8292488 C200.783841,89.8086909 201.158869,89.7064107 201.5,89.5292488 L201.5,89.5292488 Z M214.5,92.0292488 C214.400289,92.0185036 214.299711,92.0185036 214.2,92.0292488 C213.547741,91.8319377 212.877974,91.6979844 212.2,91.6292488 L211.8,91.6292488 C210.761583,91.0957328 209.759416,90.4944325 208.8,89.8292488 L210.5,89.7292488 C210.95699,89.6906133 211.400337,89.5541989 211.8,89.3292488 C212.121254,89.0986606 212.308282,88.7246047 212.3,88.3292488 L219,91.0292488 L212.3,87.4292488 C214.725618,88.1984862 217.070126,89.2032757 219.3,90.4292488 C219.4,90.6292488 219.6,90.6292488 219.7,90.7292488 C218.15514,91.7188133 216.328789,92.1754012 214.5,92.0292488 L214.5,92.0292488 Z" id="Shape" fill="#F9BF8C"></path>
            <path d="M225,79.3292488 C224.761396,79.4164723 224.527717,79.5166205 224.3,79.6292488 C224.510043,78.4606243 224.297355,77.2553911 223.7,76.2292488 C223.118418,75.1251915 222.256125,74.1939151 221.2,73.5292488 C220.514957,73.098529 219.774954,72.7621642 219,72.5292488 L221.3,73.2292488 C223.1,73.7292488 224.7,74.5292488 225.5,75.8292488 C225.627262,76.0907279 225.838521,76.3019868 226.1,76.4292488 C226.3,76.4292488 225.6,77.1292488 225.3,77.5292488 L225.3,77.8292488 C227.5,77.8292488 230.7,77.7292488 231.5,79.0292488 C232.243874,80.2106944 232.163784,81.7324168 231.3,82.8292488 C230.5,81.8292488 231.1,80.5292488 229.5,79.6292488 C228.57687,79.1495481 227.53662,78.9414981 226.5,79.0292488 C226.023449,79.0757226 225.55375,79.1763724 225.1,79.3292488 L225,79.3292488 Z M231,83.2292488 C230.994997,83.1293114 230.994997,83.0291862 231,82.9292488 C231.3,82.9292488 232,84.2292488 233,85.9292488 C234.331924,87.892099 235.949805,89.6448029 237.8,91.1292488 C241.1,93.7292488 245.6,95.3292488 251.6,92.7292488 C250.048775,93.8346877 248.273577,94.5857331 246.4,94.9292488 C245.31176,95.1260181 244.204038,95.1931527 243.1,95.1292488 C236.4,94.7292488 230.3,89.7292488 231,83.2292488 L231,83.2292488 Z" id="Shape" fill="#DB7A53"></path>
            <path d="M208.4,74.7292488 C208.878295,75.2600752 209.313035,75.8285818 209.7,76.4292488 C208.3,78.6292488 206.7,80.7292488 206.2,81.7292488 C205.7,82.7292488 204.9,84.3292488 205.9,85.3292488 C207.937615,86.5218865 210.079835,87.5260521 212.3,88.3292488 C212.286307,88.7438878 212.059414,89.1220423 211.7,89.3292488 C211.330599,89.5410984 210.92263,89.677088 210.5,89.7292488 L208.7,89.8292488 C207.596022,89.0286454 206.383914,88.3889219 205.1,87.9292488 C204.055259,87.6517177 203.047938,87.2487893 202.1,86.7292488 C202.1,85.8292488 201.8,84.3292488 201.6,82.7292488 C203.2,79.7292488 206.6,74.5292488 204.3,72.6292488 C205.2,74.2292488 202.9,78.1292488 201.3,80.6292488 L200.5,76.6292488 C200.678586,75.974542 200.678586,75.2839556 200.5,74.6292488 C200.482513,74.9705589 200.415132,75.3074677 200.3,75.6292488 C199.9,74.0292488 199.6,73.0292488 199.3,72.9292488 C198.4,72.6292488 197.3,73.5292488 196.3,74.9292488 C197.3,72.7292488 197.8,70.8292488 201,70.8292488 C201.749524,70.8488105 202.49156,70.9837263 203.2,71.2292488 C205.192862,71.9543188 206.978087,73.1559122 208.4,74.7292488 L208.4,74.7292488 Z M202.3,87.7292488 C203.913083,88.3590304 205.48312,89.0939413 207,89.9292488 C205.222085,89.918402 203.448576,89.7510897 201.7,89.4292488 C202.208734,89.0240162 202.441669,88.3640354 202.3,87.7292488 L202.3,87.7292488 Z" id="Shape" fill="#F9BF8C"></path>
            <path d="M207,84.5292488 C206.8,83.2292488 208.6,80.4292488 210.3,77.6292488 C211.559056,80.7116057 212.237129,84.0002558 212.3,87.3292488 L207,84.5292488 Z M199.4,72.8292488 C199.7,72.8292488 200,74.0292488 200.4,75.5292488 C199.2,78.2292488 194.9,82.0292488 193.7,84.4292488 C193.295171,85.0164789 193.08527,85.7161511 193.1,86.4292488 C193.3,87.1292488 195.1,88.4292488 197.2,89.6292488 C195.347976,89.3257852 193.57805,88.6450445 192,87.6292488 L191.6,87.3292488 C191.40013,87.1994696 191.229779,87.0291184 191.1,86.8292488 C190.93303,86.4466731 190.93303,86.0118245 191.1,85.6292488 C191.6,84.4292488 193.9,78.1292488 196.3,74.7292488 C197.3,73.4292488 198.4,72.5292488 199.3,72.8292488 L199.4,72.8292488 Z" id="Shape" fill="#F9BF8C"></path>
            <path d="M199.4,86.6292488 C200.000625,87.0380582 200.683127,87.3110594 201.4,87.4292488 L202.3,87.7292488 C202.419633,88.3840927 202.146049,89.0485092 201.6,89.4292488 L201.6,89.5292488 C201.228604,89.7207605 200.817826,89.8234551 200.4,89.8292488 C198.6,88.8292488 197,87.7292488 196.3,87.2292488 C195.9,86.9292488 195.5,86.6292488 195.4,86.2292488 C195.421427,85.8613726 195.561808,85.5104192 195.8,85.2292488 C197,83.2292488 199.8,79.3292488 200.5,76.5292488 L201.2,80.5292488 L200.2,82.0292488 C199.2,83.5292488 198,85.5292488 199.4,86.6292488 L199.4,86.6292488 Z" id="Path" fill="#F9BF8C"></path>
            <path d="M201.2,86.0292488 C200.7,85.3292488 200.6,85.2292488 200.8,84.3292488 C201.017837,83.7728666 201.285596,83.2373476 201.6,82.7292488 L202.1,86.7292488 C201.758011,86.5555938 201.452494,86.3179697 201.2,86.0292488 Z" id="Path" fill="#F9BF8C"></path>
            <path d="M211.8,91.6292488 L210.6,91.6292488 C209.363682,91.1429192 208.161034,90.5750023 207,89.9292488 C205.48312,89.0939413 203.913083,88.3590304 202.3,87.7292488 L201.5,87.4292488 C200.783127,87.3110594 200.100625,87.0380582 199.5,86.6292488 C198,85.5292488 199.2,83.6292488 200.3,82.0292488 L201.3,80.6292488 C202.9,78.1292488 205.3,74.1292488 204.4,72.6292488 C206.6,74.6292488 203.2,79.6292488 201.6,82.7292488 C201.319989,83.2409198 201.085744,83.7763359 200.9,84.3292488 C200.6,85.2292488 200.7,85.3292488 201.3,86.0292488 C201.552494,86.3179697 201.858011,86.5555938 202.2,86.7292488 C203.143187,87.2834133 204.150685,87.7199957 205.2,88.0292488 C206.483914,88.4889219 207.696022,89.1286454 208.8,89.9292488 C209.76218,90.5602028 210.764285,91.1280623 211.8,91.6292488 L211.8,91.6292488 Z" id="Path" fill="#DB7A53"></path>
            <path d="M195.8,85.3292488 C195.561808,85.6104192 195.421427,85.9613726 195.4,86.3292488 C195.4,86.7292488 195.9,87.0292488 196.3,87.2292488 L200.3,89.8292488 C201.1,90.3292488 201.9,90.8292488 202.7,91.1292488 C202.235519,91.2533684 201.795798,91.4563167 201.4,91.7292488 C199.964938,91.1388543 198.562887,90.4712109 197.2,89.7292488 C195.1,88.4292488 193.2,87.1292488 193.2,86.4292488 C193.155667,85.726902 193.330366,85.0281037 193.7,84.4292488 C194.9,82.1292488 199.2,78.3292488 200.3,75.6292488 C200.449433,75.3127887 200.550558,74.9757061 200.6,74.6292488 C200.778586,75.2839556 200.778586,75.974542 200.6,76.6292488 C199.8,79.4292488 197,83.2292488 195.8,85.3292488 L195.8,85.3292488 Z M207,84.5292488 L212.3,87.3292488 L219,91.0292488 L212.3,88.4292488 C210.079835,87.6260521 207.937615,86.6218865 205.9,85.4292488 C204.9,84.4292488 205.5,83.0292488 206.2,81.9292488 L209.7,76.5292488 C211,74.3292488 212.1,72.5292488 212.1,71.2292488 C213.6,72.2292488 212.1,74.9292488 210.3,77.7292488 C208.5,80.5292488 206.7,83.3292488 207.1,84.7292488 L207,84.5292488 Z" id="Shape" fill="#DB7A53"></path>
            <path d="M201.4,91.7292488 C201.795798,91.4563167 202.235519,91.2533684 202.7,91.1292488 C204.9,90.6292488 208,91.2292488 210.6,91.5292488 L211.8,91.6292488 L212.2,91.6292488 C212.874704,91.6652782 213.544418,91.7657353 214.2,91.9292488 C216.6,92.5292488 219,93.9292488 219.6,95.5292488 C220.1,96.5292488 219.1,97.3292488 217.8,97.7292488 C217.147022,97.9236788 216.47753,98.0575773 215.8,98.1292488 C211.6,98.7292488 210.3,100.129249 204.3,100.929249 C201.7,101.329249 199.9,96.9292488 199.9,95.0292488 C199.841676,94.1092466 200.087655,93.1956094 200.6,92.4292488 C200.824373,92.1515938 201.095018,91.9147795 201.4,91.7292488 L201.4,91.7292488 Z" id="Path" fill="#F9BF8C"></path>
            <path d="M253.4,121.029249 C252.594977,121.054852 251.789681,120.987744 251,120.829249 C250.762358,120.778705 250.528473,120.711881 250.3,120.629249 C247.9,119.729249 241.7,103.029249 241,99.6292488 C240.7,98.4292488 240.7,96.1292488 241.3,96.2292488 C241.6,96.5292488 242.1,98.7292488 244,98.7292488 L244.1,98.7292488 C247.801281,99.3526994 251.604704,98.8292926 255,97.2292488 C259.6,95.1292488 261.6,93.4292488 262.6,92.2292488 C263.2,91.4292488 261.9,90.0292488 261.7,89.7292488 C262.1,89.3292488 263,89.8292488 263.4,90.0292488 C269.3,92.8292488 273.6,102.729249 276.5,109.429249 C276.681285,110.055806 276.646055,110.725183 276.4,111.329249 C274.3,116.329249 260.8,121.129249 253.4,121.129249 L253.4,121.029249 Z" id="Path" fill="#A52A6A"></path>
            <path d="M171.6,190.429249 C178.6,196.629249 178.9,202.729249 179.9,207.829249 L175.5,204.829249 C176.488115,199.684739 175.049241,194.371975 171.6,190.429249 Z" id="Path" fill="#DB7A53"></path>
            <path d="M41.3,265.929249 L40.8,266.129249 C47.3,274.729249 54.9,283.629249 61.8,296.629249 C63.095524,299.049359 64.0383964,301.642258 64.6,304.329249 C110.313722,330.122098 167.022689,326.065831 208.6,294.029249 C207.8,290.529249 206.9,286.929249 205.8,283.029249 C218.470246,275.718696 224.305895,260.54601 219.8,246.629249 C217.015754,236.25866 210.452146,227.305042 201.4,221.529249 C195,216.929249 187.6,213.029249 179.9,207.829249 L175.5,204.829249 C164.7,196.829249 153.5,185.829249 143.8,166.929249 L143.7,166.729249 C137.208703,165.025943 130.508697,164.25157 123.8,164.429249 C135.8,170.229249 164.8,201.429249 128,207.429249 C99,210.529249 80.7,179.529249 44,178.729249 C38.990598,181.058889 34.4229721,184.23931 30.5,188.129249 L29.5,189.129249 C31.0187246,188.35511 32.5891324,187.686851 34.2,187.129249 C50.6,188.129249 61.2,202.429249 67.1,217.429249 C77.4,243.629249 73.3,262.129249 64.5,268.029249 C59.2,271.629249 51.2,270.729249 44.5,264.329249 L43,265.029249 L42,265.629249 L41.3,265.929249 Z" id="Path" fill="#009288"></path>
            <path d="M29.5,189.229249 C30.9485822,188.395107 32.4520265,187.66009 34,187.029249 C50.4,188.029249 61,202.329249 67,217.329249 C77.3,243.529249 73.2,262.029249 64.4,267.929249 C59.1,271.529249 51,270.629249 44.4,264.229249 L42.9,264.929249 C49.8,259.229249 47.8,258.129249 60.9,260.529249 C50.1,254.129249 44.8,251.429249 22.2,266.629249 C10.9040416,250.756715 3.56674324,232.413469 0.8,213.129249 C9.18122825,203.781581 18.8437979,195.667716 29.5,189.029249 L29.5,189.229249 Z" id="Path" fill="#F9BF8C"></path>
            <path d="M61,260.629249 C47.8,258.229249 49.9,259.329249 43,265.029249 L42,265.629249 L41.4,265.829249 L40.8,266.129249 L40.3,266.429249 L39.7,266.729249 L38.6,267.329249 L37.9,267.629249 L36.9,268.229249 L36.2,268.629249 L35,269.229249 L34.4,269.529249 L33.1,270.229249 L32.5,270.529249 L31.2,271.229249 L30.7,271.529249 L29.3,272.329249 L29,272.429249 L27.4,273.429249 L26.8,272.529249 L22.3,266.729249 C44.9,251.529249 50.2,254.329249 61,260.729249 L61,260.629249 Z" id="Path" fill="#DB7A53"></path>
            <path d="M128,207.429249 C98.8,210.529249 80.5,179.229249 43.5,178.729249 C57.7,173.529249 66.5,167.429249 66.5,151.629249 C66.5,142.829249 63.8,125.829249 62.9,113.429249 C62.9,113.429249 119.9,134.829249 120.7,149.529249 L122.7,163.829249 C133.9,168.129249 166,201.229249 128,207.429249 L128,207.429249 Z" id="Path" fill="#F9BF8C"></path>
            <path d="M87.3,151.729249 C79.7549542,145.706011 73.869695,137.858999 70.2,128.929249 C80.9988879,141.737576 96.4945402,149.665585 113.2,150.929249 C115.7,150.829249 118.2,150.729249 120.5,150.429249 L120.5,150.929249 L120.7,152.129249 C116,164.029249 113.4,171.629249 87.3,151.729249 L87.3,151.729249 Z" id="Path" fill="#DB7A53"></path>
            <path d="M162,280.429249 C162.5,287.829249 145.8,296.629249 131.2,297.729249 C111.4,299.129249 76.4,288.529249 83.2,257.029249 C101.4,292.029249 152,288.329249 162,280.429249 Z" id="Path" fill="#216D64"></path>
            <path d="M122.5,72.3292488 C121.832991,71.9829409 121.12836,71.7145099 120.4,71.5292488 L123,71.5292488 L122.5,72.3292488 Z M112.6,73.1292488 C112.509164,72.5297731 112.305574,71.9529346 112,71.4292488 C119.3,71.4292488 116,70.8292488 112.6,73.1292488 L112.6,73.1292488 Z M125.2,87.1292488 L126,87.9292488 C125.1,86.4292488 124.5,83.3292488 123.1,75.3292488 L122.7,75.0292488 C121.879583,79.2346242 122.780147,83.5933506 125.2,87.1292488 L125.2,87.1292488 Z" id="Shape" fill="#F9BF8C"></path>
            <path d="M154.7,95.8292488 C154.424999,93.0517876 153.889305,90.3063579 153.1,87.6292488 C151.1,81.6292488 148.3,81.0292488 145.8,78.0292488 C147.381624,70.0971589 147.038709,61.901492 144.8,54.1292488 C144.8,54.2292488 136.1,18.3292488 90.6,32.1292488 C87.0238209,33.6517749 83.6620073,35.6352449 80.6,38.0292488 C70,46.2292488 73,51.4292488 70.6,63.4292488 C69.4725368,67.51322 68.0005907,71.494165 66.2,75.3292488 C61.4,79.1292488 58.6,81.8292488 58.1,85.2292488 C59.1,89.9292488 63.5,103.529249 63.1,113.329249 C69.1,140.529249 99.7,151.629249 113.1,150.929249 C115.7,150.829249 118.1,150.729249 120.5,150.429249 C127,149.729249 132.4,147.629249 137.5,139.129249 C143.9,128.329249 143.1,122.629249 146.9,116.629249 C149.4,112.529249 155.9,106.929249 154.7,95.8292488 L154.7,95.8292488 Z M112.5,76.3292488 C111.5,83.9292488 110,86.8292488 107.2,87.7292488 C107.739161,86.673936 108.174539,85.5687465 108.5,84.4292488 C103.9,86.9292488 91.5,87.2292488 87.3,81.4292488 C86.4,81.8292488 85.3,81.8292488 83.3,80.8292488 L83.5,80.7292488 C87.7,80.6292488 86.1,79.7292488 87.6,76.9292488 C87.7814983,76.5851579 87.9818013,76.2513194 88.2,75.9292488 L105.3,75.9292488 C107.332755,77.6316169 108.682215,80.0109276 109.1,82.6292488 C109.633999,80.3882818 110.034702,78.1176335 110.3,75.8292488 L113.3,75.6292488 L112.5,76.3292488 L112.5,76.3292488 Z" id="Shape" fill="#F9BF8C"></path>
            <path d="M112.6,124.229249 C108.6,122.229249 107,117.929249 101,113.429249 C111,118.629249 120.3,119.729249 127.5,117.229249 C125.8,118.929249 128.7,123.529249 124,125.629249 C120,127.329249 116.7,126.129249 112.6,124.229249 Z" id="Path" fill="#D86060"></path>
            <path d="M101,113.429249 L99.4,112.629249 C107.3,112.329249 112.3,111.929249 116.6,112.329249 C118.8,112.629249 118.8,114.329249 120.4,114.329249 C122,114.329249 123.1,112.729249 124.8,112.929249 C126,113.129249 127.8,114.029249 130.4,115.929249 C129.465749,116.403487 128.496185,116.804686 127.5,117.129249 C120.3,119.729249 110.9,118.629249 101,113.429249 L101,113.429249 Z" id="Path" fill="#BC3939"></path>
            <path d="M108.5,84.4292488 L108.7,83.9292488 C108.123545,82.5567912 107.348606,81.2764571 106.4,80.1292488 C101.4,74.3292488 92.8,75.0292488 89.9,78.5292488 C89,79.8292488 88.4,80.9292488 87.3,81.5292488 C91.4,87.2292488 103.9,86.9292488 108.5,84.5292488 L108.5,84.4292488 Z M97,85.6292488 C94.3525119,85.5166345 92.2971268,83.2799238 92.4082089,80.632371 C92.519291,77.9848182 94.7548119,75.928139 97.4024285,76.0376889 C100.050045,76.1472389 102.108018,78.3815692 102,81.0292488 C101.948048,82.3026725 101.391793,83.5031571 100.453861,84.3660542 C99.5159293,85.2289512 98.2733316,85.6834115 97,85.6292488 L97,85.6292488 Z" id="Shape" fill="#FFFFFF"></path>
            <path d="M89.9,78.5292488 C89,79.8292488 88.4,80.9292488 87.3,81.5292488 C86.2,82.1292488 85.3,81.7292488 83.3,80.8292488 L83.5,80.6292488 C87.7,80.6292488 86.1,79.6292488 87.6,76.9292488 C90.4,71.7292488 96.6,72.1292488 102.2,73.9292488 C102.3,73.9292488 108.1,76.3292488 109,82.6292488 L108.7,83.8292488 C108.125417,82.4864073 107.349877,81.2387991 106.4,80.1292488 C101.4,74.3292488 92.8,75.0292488 89.9,78.5292488 L89.9,78.5292488 Z" id="Path" fill="#000000"></path>
            <path d="M127.5,83.0292488 L127.4,83.0292488 C131.177345,84.0684579 135.135596,84.273195 139,83.6292488 C141.7,82.6292488 143.8,79.6292488 144,76.8292488 C142.2,75.6292488 141.2,72.2292488 135.8,73.9292488 C130.8,75.5292488 128.8,78.1292488 127.5,82.9292488 L127.5,83.0292488 Z M130.3,79.3292488 C130.259349,77.5410756 131.305217,75.906241 132.945747,75.1935851 C134.586277,74.4809292 136.494959,74.8322891 137.774168,76.0824252 C139.053377,77.3325613 139.448517,79.2326637 138.773757,80.8891407 C138.098998,82.5456176 136.488635,83.6287868 134.7,83.6292489 C132.30847,83.6298665 130.354353,81.7201613 130.3,79.3292488 Z" id="Shape" fill="#FFFFFF"></path>
            <path d="M145.1,75.3292488 C145.1,75.8292488 145.6,76.0292488 146.1,76.2292488 C146.49692,76.2926815 146.898056,76.3261095 147.3,76.3292488 L147.4,76.5292488 C146.966714,76.7995728 146.49457,77.0019201 146,77.1292488 C145.30702,77.2999171 144.574032,77.1533194 144,76.7292488 C142.2,75.5292488 141.2,72.1292488 135.8,73.9292488 C130.9,75.5292488 128.8,78.1292488 127.5,82.9292488 L127.3,82.9292488 C126.1,76.2292488 131.3,71.6292488 136.3,70.4292488 L139.4,70.2292488 C142.2,70.4292488 144.6,72.0292488 145.1,75.3292488 L145.1,75.3292488 Z" id="Path" fill="#000000"></path>
            <path d="M106.7,61.5292488 C102.7,61.5292488 98.5,61.1292488 95,61.2292488 C91.4,61.3292488 86.7,62.9292488 82.2,65.8292488 C84.1,61.8292488 90.7,58.6292488 94.7,58.1292488 C97.6,57.8292488 101.5,57.4292488 104.4,57.9292488 C108.1,58.6292488 110,61.0292488 106.7,61.5292488 L106.7,61.5292488 Z M131.4,67.1292488 C133.7,64.5292488 138.2,60.9292488 140.8,61.3292488 C143.8,61.7292488 144.3,62.5292488 146.2,64.9292488 C146.255787,65.8283843 146.255787,66.7301133 146.2,67.6292488 L145,67.6292488 C143.739979,66.3671887 142.076263,65.5884283 140.3,65.4292488 C138.4,65.3292488 133.3,66.6292488 131.5,67.1292488 L131.4,67.1292488 Z" id="Shape" fill="#B2512B"></path>
            <circle id="Oval" fill="#000000" transform="translate(97.100000, 80.829249) rotate(-78.100000) translate(-97.100000, -80.829249) " cx="97.1" cy="80.8292488" r="4.8"></circle>
            <circle id="Oval" fill="#000000" cx="134.7" cy="79.3292488" r="4.4"></circle>
            <path d="M106.3,109.729249 C102.824771,109.745196 99.3622824,109.308183 96,108.429249 C94.1,110.429249 95.9,115.029249 95.3,117.629249 C94.3,114.229249 91.3,109.629249 93.1,105.229249 C97.5178092,105.92908 102.038041,105.586638 106.3,104.229249 C115.3,101.429249 112.9,98.0292488 118.9,97.7292488 C113.7,98.7292488 114.5,109.129249 106.3,109.729249 Z" id="Path" fill="#DB7A53"></path>
            <path d="M54,29.0292488 C57,25.4292488 67.5,23.2292488 74,23.0292488 C73.5,24.3292488 78.5,25.7292488 78,27.0292488 C80.7985958,27.2791724 83.6164698,27.2120801 86.4,26.8292488 C86.1624464,27.7462944 86.3067683,28.7204676 86.8,29.5292488 L90.6,32.1292488 C86.9889202,33.643994 83.5930558,35.6277168 80.5,38.0292488 C70,46.2292488 73,51.4292488 70.6,63.4292488 C69.4725368,67.51322 68.0005907,71.494165 66.2,75.3292488 L53.8,82.3292488 C52.1257339,81.6335134 50.2974843,81.3920464 48.5,81.6292488 L48.2,81.2292488 C46,77.2292488 41.4,67.0292488 41,62.4292488 C39.6,51.0292488 42.2,37.4292488 51,30.0292488 C51.9324948,29.2664926 52.9372655,28.5966454 54,28.0292488 C54.0162085,28.364073 54.0495857,28.6978451 54.1,29.0292488 L54,29.0292488 Z M56.7,84.0292488 L58.1,84.7292488 L61.6,83.1292488 C60.9959108,83.9769288 60.1636749,84.6357823 59.2,85.0292488 C58.8042452,85.1192736 58.4035599,85.1860545 58,85.2292488 L56.8,84.0292488 L56.7,84.0292488 Z" id="Shape" fill="#838BC5"></path>
            <path d="M127,22.2292488 C119.5,17.5292488 120,20.2292488 111.4,18.2292488 L116.6,17.8292488 C103.3,16.8292488 88,21.2292488 86.5,26.8292488 C83.7164698,27.2120801 80.8985958,27.2791724 78.1,27.0292488 C78.6,25.7292488 73.5,24.4292488 74.1,23.0292488 C67.5,23.2292488 57.1,25.4292488 54,29.0292488 C53.9829821,28.6961327 53.9829821,28.3623649 54,28.0292488 C54,19.8292488 64.8,10.2292488 84.3,12.2292488 C97.7,-2.07075122 126.7,-8.77075122 145.3,20.3292488 C132.3,13.0292488 129.1,20.1292488 126,21.1292488 C133.8,19.5292488 153.3,24.1292488 154.9,45.4292488 C153.2,37.6292488 146.5,36.8292488 141.3,37.4292488 C139.6,35.1292488 137.8,33.1292488 136.4,31.5292488 C131.9,26.3292488 132.9,25.8292488 127,22.2292488 Z" id="Path" fill="#0071BC"></path>
            <path d="M137.4,46.7292488 C140.8,61.2292488 134.3,66.0292488 115,65.5292488 C127.5,56.6292488 126.5,46.2292488 117,39.4292488 C108.8,33.4292488 103,39.6292488 90.6,32.1292488 C89.290726,31.3265584 88.022471,30.458805 86.8,29.5292488 C86.3405535,28.706349 86.232396,27.732932 86.5,26.8292488 C88,21.2292488 103.3,16.8292488 116.5,17.8292488 L111.5,18.1292488 C120.1,20.3292488 119.5,17.5292488 127,22.1292488 C132.9,25.8292488 131.9,26.3292488 136.4,31.6292488 C137.8,33.2292488 139.6,35.1292488 141.2,37.4292488 C144.2,41.6292488 146.7,47.0292488 144.7,54.1292488 C144.105312,56.2997297 143.23134,58.3838154 142.1,60.3292488 C143.031159,55.285043 141.246941,50.1221992 137.4,46.7292488 L137.4,46.7292488 Z" id="Path" fill="#0071BC"></path>
            <path d="M126.1,69.3292488 L125.4,69.3292488 C126.391936,68.6319005 127.466879,68.0608368 128.6,67.6292488 C127.710822,68.1090929 126.873119,68.6787308 126.1,69.3292488 L126.1,69.3292488 Z M125.2,87.1292488 L126,87.9292488 C127.2,89.7292488 128.7,89.4292488 132.3,92.7292488 L132.9,92.9292488 C134.7,94.6292488 135.7,96.6292488 134.9,99.3292488 C134.7,102.529249 129.6,107.529249 122.9,105.129249 C128.2,104.129249 129.8,104.329249 130.5,99.5292488 C130.3,92.8292488 122.2,95.5292488 120.5,83.0292488 C120.032317,80.0674873 120.342455,77.035021 121.4,74.2292488 C121.855206,74.4586205 122.290103,74.7262495 122.7,75.0292488 C121.879583,79.2346242 122.780147,83.5933506 125.2,87.1292488 L125.2,87.1292488 Z M123.1,72.6292488 C122.90547,72.5186642 122.705186,72.4185223 122.5,72.3292488 L123,71.4292488 C124,71.4292488 123.4,71.6292488 123.1,72.6292488 L123.1,72.6292488 Z" id="Shape" fill="#DB7A53"></path>
            <path d="M56.7,84.0292488 C55.7819362,83.3288306 54.7726355,82.7568935 53.7,82.3292488 L66.1,75.3292488 L75.3,70.1292488 C74,71.8292488 73.7,74.3292488 74.2,77.1292488 L61.6,83.1292488 L58.1,84.8292488 L56.7,84.0292488 Z" id="Path" fill="#93278F"></path>
            <path d="M151,92.0292488 C156.5,90.2292488 165.3,71.6292488 156.8,68.5292488 C151.4,66.5292488 132.2,67.9292488 126.9,69.3292488 C97.2,68.9292488 84.7,66.0292488 77.6,68.6292488 C76.6965182,68.9324902 75.8985175,69.4876212 75.3,70.2292488 C71,75.7292488 78.4,90.4292488 83.3,92.0292488 C87.3742728,93.1297836 91.5798856,93.668102 95.8,93.6292488 C107.4,93.6292488 110.6,91.4292488 112.4,76.3292488 C113.4,75.7292488 116.8,72.0292488 121.4,74.3292488 C122.031031,74.603377 122.633875,74.9382901 123.2,75.3292488 C126.1,92.9292488 125.7,86.6292488 132.3,92.8292488 L132.9,92.9292488 C138.7,94.3292488 146.8,93.4292488 151,92.0292488 L151,92.0292488 Z M110.5,74.1292488 C110.1,77.7292488 108.8,87.5292488 105.7,89.5292488 C101.5,92.3292488 88.7,91.5292488 84,89.9292488 C80,88.5292488 72.5,72.7292488 78.3,70.6292488 C83.9,68.6292488 102.1,70.6292488 107.9,71.2292488 C107.9,71.4292488 110.7,71.5292488 110.5,74.2292488 L110.5,74.1292488 Z M112.6,73.1292488 C112.521759,72.4953032 112.317774,71.8833499 112,71.3292488 C119.3,71.5292488 116,70.8292488 112.6,73.1292488 L112.6,73.1292488 Z M123.1,72.6292488 C122.264384,72.0977624 121.354454,71.6933491 120.4,71.4292488 C124.6,71.5292488 123.5,71.1292488 123.1,72.6292488 Z M150.3,90.0292488 C145.6,91.6292488 134,92.5292488 129.7,89.6292488 C128.7,88.9292488 126.9,84.5292488 125.2,74.3292488 C124.8,71.5292488 127.8,71.8292488 127.8,71.5292488 C128.7,71.3292488 132.1,70.8292488 136.3,70.5292488 C140.5,70.2292488 151.9,69.3292488 156,70.7292488 C161.8,72.8292488 154.4,88.7292488 150.3,90.0292488 Z" id="Shape" fill="#5D237A"></path>
            <path d="M45.5,82.3292488 C41.3,84.0292488 41.1,92.3292488 42.5,97.1292488 C45.3,106.329249 54.5,114.729249 64.2,113.229249 C69.4,112.529249 65.7,107.529249 63.2,96.8292488 L62.2,91.2292488 C58.9,84.2292488 52.8,79.5292488 45.5,82.3292488 L45.5,82.3292488 Z M58.7,95.3292488 C58.3,95.7292488 54.3,98.4292488 57.5,100.329249 C59.7,101.829249 61.5,100.829249 61.1,102.929249 C60.8,104.329249 61.1,106.229249 59.1,105.929249 C61.1,102.929249 58,101.929249 56.1,103.029249 C54.2,104.129249 50.4,97.7292488 57,94.8292488 C53,90.0292488 49.5,82.0292488 47,94.3292488 C44,84.6292488 50.6,77.0292488 58.7,95.3292488 L58.7,95.3292488 Z" id="Shape" fill="#F9BF8C"></path>
            <path d="M58.7,95.3292488 C58.3,95.7292488 54.3,98.4292488 57.5,100.329249 C59.7,101.829249 61.5,100.829249 61.1,102.929249 C60.8,104.329249 61.1,106.229249 59.1,105.929249 C61.1,102.929249 58,101.929249 56.1,103.029249 C54.2,104.129249 50.4,97.7292488 57,94.8292488 C53,90.0292488 49.5,82.0292488 47,94.3292488 C44,84.6292488 50.6,77.0292488 58.7,95.3292488 L58.7,95.3292488 Z" id="Path" fill="#CE6D42"></path>
        </g>
    </g>
</svg>
