<?xml version="1.0" encoding="UTF-8"?>
<svg viewBox="0 0 296 317" version="1.1" xmlns="http://www.w3.org/2000/svg" xmlns:xlink="http://www.w3.org/1999/xlink">
    <title>fit_bubble_man_1_optim</title>
    <g id="Page-1" stroke="none" stroke-width="1" fill="none" fill-rule="evenodd">
        <g id="fit_bubble_man_1_optim" transform="translate(147.636847, 158.679628) scale(-1, 1) translate(-147.636847, -158.679628) translate(0.000000, 0.959256)" fill-rule="nonzero">
            <circle id="Oval" fill="#F0ECF0" cx="131.18" cy="184.260744" r="131.18"></circle>
            <g id="Group" transform="translate(196.330000, 45.924141)" fill="#EAB881">
                <path d="M40.09,50.6366034 C39.94,50.2066034 39.8,49.7666034 39.65,49.3366034 C39.8,49.7666034 39.94,50.2066034 40.09,50.6366034 Z M8.11,110.596603 C7.38033823,110.796646 6.67326168,111.071434 6,111.416603 C6.67,111.116603 7.4,110.856603 8.11,110.596603 L8.11,110.596603 Z M6,111.416603 C3.94865003,112.239466 1.94545464,113.17763 0,114.226603 C2.67,113.116603 4.56,112.116603 6,111.416603 Z" id="Shape"></path>
                <path d="M97.16,118.346603 C88.58,107.836603 96.11,90.5966034 62.64,32.0366034 C59.64,26.8166034 57.38,17.5166034 49.79,14.4566034 C40.68,10.7866034 37.02,5.29660345 27.9,1.62660345 C21.05,-1.13339655 23.9,0.266603447 24.69,1.13660345 C26.18,2.80660345 22.69,-0.173396553 18.97,8.26660345 C18.59,9.11660345 21.83,9.89660345 22.97,13.2666034 C23.33,14.3366034 23.46,14.4066034 24.2,14.5966034 C28.91,15.7966034 30.72,21.4866034 28.4,24.6566034 C27.7,23.2266034 28.58,18.6566034 23.72,18.2966034 C25.72,19.7366034 27.78,21.7166034 27.72,24.1766034 C37.12,40.8166034 45.28,38.1766034 47.72,39.1766034 C60.15,44.0966034 30.44,103.746603 70.72,125.306603 C63.38,123.366603 56.41,119.846603 46.8,123.976603 C54.08,118.446603 49.26,116.406603 47.66,113.086603 C45.49,110.166603 45.37,101.376603 45.06,90.4666034 C44.7530247,97.2593057 45.1181325,104.065719 46.15,110.786603 C33.9030786,106.215564 20.4255466,106.173003 8.15,110.666603 C13.34,109.456603 23.6,159.006603 28.3,164.566603 C32.1,163.166603 51.3,155.996603 63.47,150.456603 C84.99,140.646603 98.41,124.696603 98.91,122.146603 C99.15,120.676603 98.06,119.436603 97.16,118.346603 L97.16,118.346603 Z M55.54,19.2166034 C55.6,19.3166034 64.41,38.8066034 56.1,20.4266034 C55.9,19.9866034 55.72,19.5866034 55.54,19.2166034 Z" id="Shape"></path>
                <path d="M18.84,10.1166034 C19.3,10.2866034 20.84,11.6066034 18.61,9.18660345 C17.73,11.5766034 18.01,13.6066034 20.61,15.9266034 C21.67,12.9266034 20.61,12.4166034 18.84,10.1166034 Z M14.51,33.9366034 C14.79,33.8666034 14.87,33.9866034 14.16,33.5566034 L14.51,33.9366034 Z" id="Shape"></path>
            </g>
            <path d="M203.74,73.7707441 C203.74,74.1707441 203.41,73.7107441 206.68,76.1507441 L203.74,73.7707441 Z M209,78.0407441 C211.3,80.0407441 212.13,80.5707441 211.19,79.8107441 L209,78.0407441 Z M215.17,56.0407441 C215.22,56.1007441 216.96,58.3507441 217,58.4207441 C216.51,57.1507441 216.17,56.4107441 215.17,56.0407441 Z M214.65,67.7707441 C216.03,67.6907441 215.38,69.1107441 216.81,67.2707441 C217.33,66.6007441 218.72,64.0607441 217.52,64.6707441 C218.08,62.3407441 217.43,57.9607441 217.33,59.9207441 C217.2,62.3807441 213.63,70.6907441 208.66,69.7907441 C209.7147,70.0981081 210.823499,70.1731652 211.91,70.0107441 C214.65,69.6207441 214.27,69.0407441 214.65,67.7707441 Z M208.66,69.7907441 C208.164252,69.6530838 207.687333,69.4549273 207.24,69.2007441 C207.659131,69.5085099 208.14618,69.7108754 208.66,69.7907441 L208.66,69.7907441 Z" id="Shape" fill="#D38053"></path>
            <path d="M214.2,69.3307441 C214.544316,70.6382565 214.226819,72.0315065 213.35,73.0607441 C216.73,71.7907441 217.01,69.5507441 215.83,68.2807441 C214.65,67.0107441 214.49,68.3107441 214.2,69.3307441 L214.2,69.3307441 Z M181.89,71.1807441 C182,72.0207441 184.5,73.5107441 185.19,73.9607441 C183.946324,73.2194426 182.831725,72.2804772 181.89,71.1807441 Z M191.89,75.5707441 C191.68,75.7007441 191.44,75.6707441 192.2,75.5707441 C191.92,75.4507441 192.07,75.4707441 191.89,75.5707441 Z M185.38,74.0407441 C186.81604,74.9271148 188.324801,75.6898586 189.89,76.3207441 C192.43,74.8007441 190.69,77.1407441 185.38,74.0407441 L185.38,74.0407441 Z" id="Shape" fill="#D38053"></path>
            <path d="M202.61,77.1307441 C201.7,77.4807441 196.94,77.3907441 192.2,75.5607441 C185.46,76.5607441 185.79,87.6407441 191.2,87.9607441 C199.38,88.4407441 201.31,90.9607441 204.68,89.8807441 C211.5,87.6007441 207.08,78.2607441 202.61,77.1307441 L202.61,77.1307441 Z" id="Path" fill="#EAB881"></path>
            <path d="M217.52,64.6707441 C218.308749,64.28721 219.185684,64.12149 220.06,64.1907441 C224.93,64.5507441 224.06,69.1907441 224.74,70.5507441 C227.05,67.3907441 225.26,61.6907441 220.54,60.4907441 C218.29,59.9207441 221.1,57.5807441 212.68,53.2207441 C216.550675,55.6312829 218.488159,60.2147941 217.52,64.6707441 L217.52,64.6707441 Z M232.75,177.180744 C225.96,178.960744 214.85,178.830744 211.75,171.980744 C215.46,183.080744 220.75,198.840744 224.61,209.660744 C227.49,208.770744 232.02,207.800744 233.5,206.260744 C229.98,202.100744 224.83,195.850744 224.76,190.370744 C224.69,184.890744 227.68,179.210744 232.75,177.180744 Z M206.44,156.820744 C206.3,156.990744 206.29,156.820744 206.97,158.090744 C206.79,157.630744 206.62,157.200744 206.44,156.820744 Z" id="Shape" fill="#D38053"></path>
            <path d="M246.11,86.5507441 C243.85,82.9107441 241.9,87.1307441 248.34,83.2507441 C237.85,87.8107441 229.84,80.3507441 224,70.0407441 C223.95,71.8607441 222.77,73.1707441 221.39,74.4007441 C211.75,83.0407441 210.5,79.3507441 209,78.0407441 C201,71.0407441 205.14,75.6007441 202.91,77.0407441 C202.2,77.5007441 206.99,78.0407441 208.22,84.1507441 C208.541977,86.3258682 207.477012,88.4717539 205.55,89.5307441 C212.96,95.3307441 220.25,91.9907441 231.23,85.4407441 C245.9,107.610744 238.61,151.710744 244.01,158.980744 C245.61,162.300744 250.43,164.340744 243.15,169.870744 C252.76,165.740744 259.73,169.260744 267.07,171.200744 C229.44,151.040744 252.78,97.2907441 246.11,86.5507441 L246.11,86.5507441 Z" id="Path" fill="#D38053"></path>
            <path d="M190.92,211.520744 C188.221,207.192551 185.120665,203.127964 181.66,199.380744 C188.07,207.320744 198.84,224.220744 190.92,211.520744 L190.92,211.520744 Z" id="Path" fill="#A52A6A"></path>
            <path d="M205.85,156.040744 C174.49,169.640744 179.4,169.250744 163.85,164.380744 C144.98,158.470744 126.71,163.620744 131.75,163.310744 C143.57,162.590744 160.82,212.620744 167.19,230.190744 L229.36,219.840744 C230,227.480744 208.46,160.500744 205.85,156.040744 L205.85,156.040744 Z" id="Path" fill="#A52A6A"></path>
            <path d="M214.23,180.310744 C205.5,194.210744 182.14,191.540744 178.52,175.530744 C186.52,208.070744 186.75,195.600744 169.02,185.220744 C194.38,211.020744 191.49,226.960744 197.29,229.720744 C200.78,231.370744 210.94,225.950744 223.59,222.030744 C226.89,221.030744 228.47,220.420744 228.35,219.840744 L214.23,180.310744 Z" id="Path" fill="#7C2050"></path>
            <path d="M192.93,72.9007441 C193.056752,73.8587232 192.71429,74.8191056 192.01,75.4807441 C195.039141,76.6836211 198.270795,77.294648 201.53,77.2807441 C204,77.2607441 202.13,77.5507441 192.93,72.9007441 Z" id="Path" fill="#EAB881"></path>
            <path d="M220.06,64.1907441 C216.7,63.9407441 219.06,65.5607441 215.83,68.2807441 C217.01,69.5507441 216.73,71.7907441 213.35,73.0607441 C214.236431,72.0363497 214.555077,70.6380558 214.2,69.3307441 C211.53,70.5907441 208.42,70.0707441 207.2,69.2007441 C211.58,71.6607441 215.27,66.5607441 216.89,61.8307441 C214.31,59.5207441 214.02,57.4907441 214.89,55.0907441 C213.7,53.7807441 210.49,51.7407441 215.08,54.6007441 C215.850077,52.7630887 216.83708,51.0240833 218.02,49.4207441 C219.29,47.7107441 223.24,48.5907441 219.67,45.9607441 C217.91,44.6607441 211.59,43.3307441 210.86,43.3707441 C209.66612,43.4118092 208.54918,43.9702793 207.8,44.9007441 C203.47,43.3107441 198.51,43.0407441 196.02,46.9007441 C191.78,43.3207441 186.64,49.0507441 188.25,53.5907441 C189.69,57.5907441 186.39,53.7407441 181.19,68.2107441 C179.92,71.7507441 186.26,75.2107441 189.96,75.7907441 C197.66,77.0407441 171.21,66.8607441 192.2,75.3407441 C195.6,78.0007441 197.48,76.8307441 202.64,77.1407441 C203.72,76.6707441 203.64,75.2207441 203.69,74.0507441 C203.69,72.2107441 210.5,82.5707441 214.01,79.4907441 C222.72,75.0407441 228,69.9107441 220.06,64.1907441 L220.06,64.1907441 Z" id="Path" fill="#EAB881"></path>
            <path d="M192.51,69.9507441 C192.89,70.8907441 192.79,70.4007441 192.51,67.3807441 C192.240112,68.2161541 192.240112,69.1153341 192.51,69.9507441 L192.51,69.9507441 Z" id="Path" fill="#EAB881"></path>
            <path d="M194.68,57.1907441 C194.833505,56.608057 194.9537,56.0171001 195.04,55.4207441 C194.9,56.0407441 194.79,56.6007441 194.68,57.1907441 Z" id="Path" fill="#D38053"></path>
            <path d="M59,167.040744 C51.25,170.830744 53.91,170.290744 55.54,170.630744 C56.7733333,169.430744 57.9266667,168.234077 59,167.040744 Z M128,163.710744 L127.23,163.540744 C127.471567,163.651791 127.734133,163.709761 128,163.710744 Z" id="Shape" fill="#A52A6A"></path>
            <path d="M200.06,262.440744 C201.29,245.270744 210.06,226.970744 169.06,185.220744 C160.17,176.220744 155.22,171.360744 137.37,166.090744 C143.72,173.540744 136.87,206.290744 133.94,204.450744 C108.1,188.280744 63.63,184.630744 54.55,171.610744 C61.25,165.370744 26.09,177.090744 14.85,187.850744 C11.28,191.270744 6.72,200.620744 2.63,210.280744 C11.16,252.710744 43.86,284.940744 45.13,282.280744 C48.77,274.580744 52.3,266.620744 51.77,267.810744 C63.61,280.040744 71.06,287.290744 75.55,303.040744 C115.96324,321.984643 163.240888,319.048868 201,295.250744 C200.94,279.040744 199.7,267.460744 200.06,262.440744 Z M54.28,262.040744 C54.38,262.040744 54.28,261.960744 53.22,264.420744 C53.58,263.630744 53.93,262.830744 54.28,262.040744 Z" id="Shape" fill="#A52A6A"></path>
            <path d="M53.29,267.840744 C58.94,275.370744 86.35,284.840744 97.59,294.840744 C84.8182044,283.706705 73.0833942,271.436364 62.53,258.180744 C78.5721058,263.490961 95.2138761,266.779676 112.07,267.970744 L64.92,254.850744 C65.5866667,249.150744 66.2533333,243.457411 66.92,237.770744 C63.57,242.260744 55.18,259.840744 53.29,267.840744 L53.29,267.840744 Z M178.41,249.670744 C165.99,248.530744 132.5,256.110744 127.62,266.670744 C145.94,254.450744 178.7,249.860744 182.17,267.230744 C182,266.210744 195,251.200744 178.41,249.670744 L178.41,249.670744 Z" id="Shape" fill="#7C2050"></path>
            <path d="M124.39,155.750744 C124.39,155.960744 124.49,156.180744 124.55,156.390744 C124.49,156.180744 124.44,155.960744 124.39,155.750744 Z M67.34,116.410744 C66.75,116.410744 66.82,116.160744 67.34,117.970744 C68.87,120.340744 68.08,119.480744 67.34,116.410744 Z M124.14,154.740744 L124.26,155.200744 L124.14,154.740744 Z M54.51,171.610744 C63.6,184.610744 108.04,188.260744 133.9,204.450744 C136.06,205.800744 142.65,182.700744 138.59,168.370744 C136.69,161.650744 128.4,163.720744 127.97,163.710744 C126.97,163.710744 126.51,163.070744 126.14,162.050744 C125.46,160.140744 124.62,156.690744 124.66,156.840744 C123.43,160.910744 122.98,163.430744 121.17,164.340744 C114.69,167.580744 83.32,154.940744 68.92,123.340744 C69.54,125.870744 69.98,128.600744 67.92,126.980744 C71.72,143.520744 73.84,153.620744 54.51,171.610744 Z" id="Shape" fill="#EAB881"></path>
            <path d="M107.65,148.640744 C87,143.040744 73.93,135.700744 69.93,115.770744 C66.67,117.250744 66.71,114.220744 68.93,123.370744 C83.33,154.930744 114.7,167.580744 121.18,164.370744 C123.33,163.300744 124.72,157.060744 124.56,156.370744 C122.35,147.520744 126.76,153.840744 107.65,148.640744 Z" id="Path" fill="#D38053"></path>
            <path d="M140.75,66.3107441 C137.75,56.8707441 133.1,46.7507441 129.01,41.1007441 C125.816191,40.9648389 122.739592,39.8590772 120.19,37.9307441 C112.71,46.1907441 104.74,42.7607441 103.54,37.9307441 C101.86,43.8407441 93.92,46.9307441 88.71,43.6707441 C90.6752683,43.4838901 92.4418478,42.393637 93.49,40.7207441 C88.3531338,42.262022 82.7996138,41.4879613 78.28,38.6007441 C72.28,37.8007441 73.62,37.6707441 76.97,42.8807441 C84.26,54.2307441 81.21,57.8807441 72.83,66.6007441 C62.7,77.1207441 70.69,82.0407441 74,85.1407441 C80.7,91.3107441 75.74,98.1407441 68.35,97.4907441 C73.23,106.140744 73.6,106.690744 73.76,108.190744 C74.1,111.440744 72.76,114.470744 69.9,115.770744 C73.9,135.500744 86.67,142.940744 107.62,148.640744 C114.1,150.400744 121.05,151.970744 127.62,150.520744 C134.19,149.070744 140.49,143.780744 140.86,137.010744 C141.08,132.900744 139.17,127.010744 139.6,123.010744 C140.28,116.370744 145.54,118.010744 145.84,102.010744 C146.050499,89.9971406 144.328535,78.0278012 140.74,66.5607441" id="Path" fill="#EAB881"></path>
            <path d="M121.63,67.0407441 C121.49,68.9307441 121.96,78.5407441 123.06,81.9807441 C125.35,89.0907441 130.19,88.5807441 133.73,90.1107441 C138.09,92.0107441 139.37,96.7707441 132.15,98.8607441 C128.3,99.9807441 124.23,101.110744 120.33,100.190744 C121.73,101.820744 124.14,102.030744 126.33,102.030744 C141.06,102.030744 141.83,93.0307441 139.47,89.7807441 C135.8,84.7207441 127.09,88.4707441 123.89,76.9707441 C123.08,74.2307441 124,68.4607441 121.63,67.0407441 L121.63,67.0407441 Z" id="Path" fill="#D38053"></path>
            <path d="M110.39,112.300744 C99.73,109.300744 96.53,104.980744 95.62,106.440744 C94.47,108.270744 113.82,119.060744 125.1,113.280744 C120.07,113.340744 115.41,113.720744 110.39,112.300744 L110.39,112.300744 Z M86.23,73.6107441 C87.98,73.6107441 93.23,67.6107441 95.05,66.4607441 C98.68,64.2607441 102.68,65.3807441 106.83,64.4607441 C106.32,63.1207441 103.32,59.0307441 102.65,59.1707441 C99.48,59.8507441 93.45,59.4707441 93.45,59.4707441 C93.45,59.4707441 80.27,73.7407441 86.23,73.6107441 L86.23,73.6107441 Z M125.6,57.7607441 C120.51,58.1907441 122.37,59.3707441 123.31,63.2607441 C129.376125,61.3421248 136.000394,62.6008487 140.94,66.6107441 C135.63,58.1407441 131.3,57.2707441 125.6,57.7607441 Z" id="Shape" fill="#000000"></path>
            <path d="M91.39,85.5007441 C95.95,92.0207441 106.69,89.7307441 109.84,83.7307441 C108.92,78.0407441 92.85,74.4007441 91.39,85.5007441 Z M101.26,87.1907441 C95.17,90.2507441 93.08,80.0407441 99.41,80.0407441 C103.48,80.0407441 105.15,85.2307441 101.26,87.1907441 Z M126.84,82.6107441 C129.22,86.2607441 140.84,85.1407441 141.12,79.2607441 C136.93,69.8407441 125.12,74.5707441 126.84,82.6107441 Z M135.31,80.9807441 C134.843886,81.9272951 133.981918,82.6183267 132.956646,82.8674039 C131.931375,83.1164811 130.848437,82.8979411 130,82.2707441 C127.71,80.4007441 129,75.8207441 132.58,76.2707441 C133.6117,76.4567633 134.509495,77.0868486 135.035204,77.9938422 C135.560914,78.9008358 135.661399,79.9930563 135.31,80.9807441 L135.31,80.9807441 Z" id="Shape" fill="#FFFFFF"></path>
            <path d="M126.72,79.5307441 C128.48,73.4607441 137.52,71.1707441 141.12,79.2607441 C142.19,81.6407441 142.07,72.4707441 135.82,72.0307441 C131.9,71.7507441 125.65,72.1207441 126.33,82.0307441 C126.366831,81.1855209 126.497637,80.3470243 126.72,79.5307441 Z M99.41,80.0407441 C93.07,80.0407441 95.17,90.2407441 101.26,87.1907441 C105.15,85.2407441 103.49,80.0407441 99.41,80.0407441 Z" id="Shape" fill="#000000"></path>
            <path d="M132.6,76.2607441 C128.99,75.8207441 127.73,80.4007441 130.02,82.2607441 C131.137056,83.1793411 132.71297,83.2907484 133.948149,82.5384397 C135.183327,81.786131 135.807411,80.3347746 135.503749,78.9207645 C135.200087,77.5067544 134.035147,76.4395946 132.6,76.2607441 Z M68.92,123.370744 C66.38,112.850744 68.6,118.710744 59.15,114.370744 C64.27,123.370744 71.34,133.350744 68.92,123.370744 Z M129,41.1007441 C134.48,48.6707441 135.11,54.5207441 134.52,50.6607441 C134.02377,47.3525506 133.20658,44.1005387 132.08,40.9507441 C131.060157,41.0956268 130.029096,41.1458408 129,41.1007441 L129,41.1007441 Z" id="Shape" fill="#000000"></path>
            <path d="M137.16,26.2307441 C140.58,13.6507441 131.9,12.6907441 129.59,15.0507441 C130.092837,10.9672195 128.16666,6.96579995 124.661222,4.81175231 C121.155784,2.65770467 116.715794,2.74719515 113.3,5.04074411 C110.19,-0.309255895 100.82,-3.73925589 89.05,7.18074411 C88,-0.499255895 72.44,1.90074411 70.12,17.6807441 C64.32,18.7707441 61.45,21.9407441 60.12,24.4807441 C54.38,25.0407441 35.82,48.6707441 35,56.5407441 C34.49,61.2307441 37,65.6507441 38.31,70.1907441 C39.15,73.0807441 39.53,76.1907441 41.06,78.7807441 C45.06,85.5507441 41.06,82.3407441 46.06,81.4907441 C50.5,80.7407441 62.35,86.6407441 68.46,97.4907441 C72.12,97.8107441 75.84,96.5907441 77.13,92.3207441 C78.85,86.6307441 70.54,83.7207441 68.59,79.1407441 C64.51,69.5707441 79.36,64.1407441 80.96,55.3007441 C81.96,49.5207441 77.55,43.3707441 73.9,38.2107441 C75.14,38.2107441 76.6,38.3607441 78.36,38.5907441 C78.2,38.4907441 78.06,38.3807441 77.91,38.2707441 C82.4471051,41.5228898 88.2585489,42.4283766 93.57,40.7107441 C92.5218478,42.383637 90.7552683,43.4738901 88.79,43.6607441 C94,46.9007441 101.94,43.8307441 103.62,37.9207441 C104.82,42.7607441 112.76,46.2307441 120.27,37.9207441 C125.568461,41.8581871 132.732122,42.1672389 138.35,38.7007441 C136.065746,37.8880335 134.100423,36.3676229 132.74,34.3607441 C135.93,34.9707441 139.11,32.7207441 140.62,29.8607441 C142.13,27.0007441 142.36,23.6407441 142.52,20.4007441 C141.646389,23.0194714 139.696247,25.1406151 137.16,26.2307441 L137.16,26.2307441 Z M59.72,30.0407441 L59.64,29.9307441 L59.72,30.0407441 Z M59.22,26.5307441 L59.22,26.6207441 C59.22,26.2507441 59.28,25.8007441 59.31,25.2607441 C59.26,25.7407441 59.24,26.1507441 59.22,26.5007441 L59.22,26.5307441 Z M73.75,34.2507441 C74.8834719,35.7902313 76.2538089,37.1403169 77.81,38.2507441 C76.2355913,37.1501569 74.8622335,35.7869471 73.75,34.2207441 L73.75,34.2507441 Z M73.16,33.3907441 L73.4,33.7407441 L73.16,33.3907441 Z" id="Shape" fill="#000000"></path>
            <path d="M97.49,76.0407441 C93.76,76.6407441 90.11,80.5707441 90.91,85.0407441 C91.91,82.7507441 92.75,80.1007441 95.97,78.9207441 C100.25,77.3607441 107.26,78.5307441 109.72,83.2807441 C111.1,85.9307441 109.74,74.0407441 97.49,76.0407441 Z" id="Path" fill="#000000"></path>
            <path d="M73.79,108.190744 C73.63,106.690744 73.26,106.140744 68.38,97.4907441 C62.27,86.6507441 50.43,80.7407441 46,81.4907441 C38.52,82.7607441 30.18,103.040744 61.3,115.310744 C69.63,118.590744 74.42,114.180744 73.79,108.190744 Z" id="Path" fill="#EAB881"></path>
            <path d="M96,105.920744 C98.11,103.020744 106.26,107.970744 112.39,100.200744 C113.18,99.2007441 113.8,96.2007441 115.7,96.4907441 C110.64,95.6107441 109.09,104.770744 101.47,102.810744 C98.35,102.000744 92.47,97.6607441 91.47,114.480744 C92.7410605,111.507228 94.2562408,108.644106 96,105.920744 L96,105.920744 Z M62.45,100.370744 C66.75,90.0307441 41.53,79.1307441 42.85,93.3707441 C43.15,96.5807441 45.14,102.200744 48.16,103.180744 C45.71,97.8107441 48.43,90.7407441 49.73,89.6807441 C51.73,88.0707441 54.24,90.4407441 57.13,92.5807441 C57,94.2607441 54.62,95.0407441 54.48,96.6707441 C54.36,97.9807441 55.55,99.6107441 59.53,98.6707441 C59.4386589,100.545816 58.667206,102.323357 57.36,103.670744 C59.588986,103.776844 61.6371644,102.448949 62.45,100.370744 L62.45,100.370744 Z M192.77,70.4407441 C192.240824,69.5080635 192.142319,68.3916768 192.5,67.3807441 C196.95,49.6907441 194.45,59.4707441 191.43,64.2607441 C189.05,68.0407441 188.19,70.5607441 192.1,72.4807441 C215.1,83.7607441 194,72.2307441 192.77,70.4407441 L192.77,70.4407441 Z" id="Shape" fill="#D38053"></path>
            <path d="M192.25,75.2907441 C189.84,74.2907441 185.78,71.3907441 185.75,69.6807441 C185.75,68.5307441 190.64,61.5907441 189.65,55.3207441 C188.58,57.0307441 183.14,67.5107441 183.26,69.5207441 C183.49,73.3807441 192.35,75.3307441 192.25,75.2907441 L192.25,75.2907441 Z M205.46,49.9507441 C205.3,51.8107441 198.7,64.0707441 198.7,68.7807441 C199.06,69.8707441 203.19,70.9407441 203.41,72.0707441 C196.59,66.9007441 206.91,51.6407441 205.46,49.9507441 L205.46,49.9507441 Z" id="Shape" fill="#D38053"></path>
        </g>
    </g>
</svg>
