<?xml version="1.0" encoding="UTF-8" ?>
<!DOCTYPE svg PUBLIC "-//W3C//DTD SVG 1.1//EN" "http://www.w3.org/Graphics/SVG/1.1/DTD/svg11.dtd">
<svg width="512pt" height="512pt" viewBox="0 0 512 512" version="1.1" xmlns="http://www.w3.org/2000/svg">
<g id="#ff6d00ff">
<path fill="#ff6d00" opacity="1.00" d=" M 272.40 13.35 C 275.91 10.34 280.64 10.28 284.98 9.77 C 292.38 9.16 299.78 10.72 306.58 13.59 C 313.66 15.87 319.32 21.04 326.36 23.39 C 334.38 26.34 343.08 26.33 351.16 29.06 C 359.89 30.55 365.99 38.07 369.28 45.83 C 373.27 56.82 375.86 68.25 378.83 79.54 C 381.58 90.32 384.25 101.10 386.77 111.93 C 390.00 125.57 395.32 139.78 391.53 153.86 C 389.33 158.84 385.50 163.01 381.10 166.16 C 371.79 173.08 362.31 179.81 352.30 185.69 C 355.91 177.56 358.74 169.14 361.31 160.64 C 364.81 160.02 368.82 160.21 371.63 157.66 C 376.04 153.96 379.12 148.98 381.73 143.91 C 376.30 141.29 370.97 138.45 365.56 135.77 C 364.36 139.30 363.11 142.82 361.64 146.25 C 360.02 141.73 359.72 136.89 358.33 132.32 C 357.84 130.15 355.80 129.00 354.05 127.93 C 350.45 125.81 346.67 123.96 343.34 121.40 C 340.27 117.23 335.42 115.24 330.43 114.53 C 321.21 109.70 312.46 103.99 303.81 98.21 C 297.45 94.06 292.18 88.53 286.90 83.13 C 278.97 75.04 271.56 66.42 265.00 57.18 C 258.35 61.62 252.64 67.56 248.78 74.58 C 244.67 83.47 243.76 93.37 242.37 102.94 C 240.63 114.85 240.57 126.91 240.52 138.92 C 237.68 131.86 234.72 124.82 232.72 117.46 C 229.92 109.51 228.18 101.26 226.70 92.98 C 224.31 83.19 226.73 72.96 230.33 63.78 C 233.92 56.07 239.55 49.41 246.41 44.40 C 250.94 40.32 256.71 37.30 259.99 32.02 C 261.55 24.48 265.83 17.52 272.40 13.35 Z" />
<path fill="#ff6d00" opacity="1.00" d=" M 256.98 84.03 C 264.10 77.20 277.78 78.16 282.85 87.02 C 283.70 88.36 283.68 92.62 281.28 91.52 C 276.37 89.53 271.49 86.90 266.07 86.80 C 262.40 86.86 258.19 87.68 256.05 91.00 C 254.97 93.05 254.07 95.20 252.83 97.17 C 251.64 92.47 254.19 87.66 256.98 84.03 Z" />
<path fill="#ff6d00" opacity="1.00" d=" M 298.93 135.27 C 300.55 134.75 301.09 135.31 300.55 136.96 C 298.94 137.47 298.40 136.91 298.93 135.27 Z" />
<path fill="#ff6d00" opacity="1.00" d=" M 313.23 142.47 C 313.87 142.50 315.15 142.58 315.79 142.62 C 315.60 143.96 314.90 145.08 313.87 145.96 C 313.66 144.79 313.44 143.63 313.23 142.47 Z" />
<path fill="#ff6d00" opacity="1.00" d=" M 280.66 144.05 C 282.02 142.41 284.27 144.95 282.63 146.20 C 281.24 147.68 279.19 145.32 280.66 144.05 Z" />
<path fill="#ff6d00" opacity="1.00" d=" M 299.36 143.90 C 300.51 142.31 302.61 144.54 301.39 145.82 C 300.23 147.42 298.14 145.18 299.36 143.90 Z" />
<path fill="#ff6d00" opacity="1.00" d=" M 330.29 145.54 C 331.66 144.40 333.66 146.68 332.11 147.75 C 330.74 148.87 328.72 146.60 330.29 145.54 Z" />
<path fill="#ff6d00" opacity="1.00" d=" M 268.07 147.39 C 269.49 146.26 271.36 148.67 269.73 149.65 C 268.30 150.78 266.45 148.37 268.07 147.39 Z" />
<path fill="#ff6d00" opacity="1.00" d=" M 273.14 152.22 C 273.73 152.25 274.92 152.32 275.51 152.35 C 275.53 152.95 275.58 154.14 275.61 154.74 C 275.01 154.77 273.83 154.83 273.23 154.85 C 273.21 154.20 273.16 152.88 273.14 152.22 Z" />
<path fill="#ff6d00" opacity="1.00" d=" M 325.05 152.28 C 326.42 151.13 328.44 153.41 326.81 154.46 C 325.43 155.61 323.42 153.32 325.05 152.28 Z" />
<path fill="#ff6d00" opacity="1.00" d=" M 336.19 152.20 C 336.82 152.17 338.09 152.11 338.73 152.09 C 338.71 152.69 338.68 153.89 338.66 154.49 C 338.15 154.48 337.13 154.45 336.63 154.43 C 336.52 153.87 336.30 152.76 336.19 152.20 Z" />
<path fill="#ff6d00" opacity="1.00" d=" M 260.50 153.19 C 261.48 151.54 263.87 153.43 262.75 154.86 C 261.77 156.50 259.38 154.61 260.50 153.19 Z" />
<path fill="#ff6d00" opacity="1.00" d=" M 329.45 173.92 C 331.02 174.82 332.52 175.82 333.95 176.93 C 332.35 176.69 330.77 176.43 329.19 176.15 C 324.89 181.48 322.13 188.65 315.45 191.53 C 308.59 194.55 300.59 195.39 293.30 193.58 C 286.99 190.78 283.04 184.80 278.40 179.97 C 281.73 181.77 284.98 184.36 288.97 184.24 C 298.08 184.06 307.11 182.60 316.05 180.96 C 321.14 180.04 325.32 176.81 329.45 173.92 Z" />
<path fill="#ff6d00" opacity="1.00" d=" M 215.78 202.82 C 223.32 192.30 232.39 182.50 243.70 176.00 C 243.97 176.07 244.51 176.22 244.78 176.30 C 247.55 185.13 250.98 193.94 256.70 201.31 C 260.39 205.43 265.46 207.94 269.60 211.55 C 269.43 217.04 269.58 222.54 269.68 228.03 C 269.84 233.82 267.35 239.19 266.10 244.75 C 263.95 250.77 260.49 256.26 258.67 262.40 C 257.92 267.88 258.49 273.44 258.36 278.95 C 258.17 291.44 260.91 303.70 262.53 316.02 C 257.77 313.74 254.40 309.63 250.88 305.85 C 252.26 310.55 254.10 315.09 255.79 319.69 C 252.25 319.97 248.68 319.41 245.62 317.53 C 235.58 312.73 228.86 303.57 221.72 295.41 C 224.71 303.92 230.66 310.89 234.34 319.04 C 227.78 314.42 223.37 307.47 219.36 300.68 C 212.90 288.74 206.97 276.33 203.95 263.03 C 202.52 256.75 200.81 250.40 201.27 243.89 C 202.14 229.21 207.04 214.70 215.78 202.82 Z" />
</g>
<g id="#fccda3ff">
<path fill="#fccda3" opacity="1.00" d=" M 248.78 74.58 C 252.64 67.56 258.35 61.62 265.00 57.18 C 271.56 66.42 278.97 75.04 286.90 83.13 C 292.18 88.53 297.45 94.06 303.81 98.21 C 312.46 103.99 321.21 109.70 330.43 114.53 C 327.31 114.99 324.00 115.51 321.47 117.54 C 319.26 119.15 318.34 121.83 317.43 124.29 C 317.45 127.55 317.15 131.65 320.21 133.74 C 325.40 137.45 333.03 138.03 338.45 134.49 C 341.49 132.47 342.21 128.61 341.41 125.24 C 342.42 126.25 343.47 127.22 344.53 128.19 C 344.18 125.92 343.79 123.65 343.34 121.40 C 346.67 123.96 350.45 125.81 354.05 127.93 C 355.80 129.00 357.84 130.15 358.33 132.32 C 359.72 136.89 360.02 141.73 361.64 146.25 C 363.11 142.82 364.36 139.30 365.56 135.77 C 370.97 138.45 376.30 141.29 381.73 143.91 C 379.12 148.98 376.04 153.96 371.63 157.66 C 368.82 160.21 364.81 160.02 361.31 160.64 C 358.74 169.14 355.91 177.56 352.30 185.69 C 349.62 193.50 344.33 200.00 338.30 205.50 C 328.08 214.80 315.21 222.78 300.94 222.54 C 289.53 222.99 278.73 217.96 269.60 211.55 C 265.46 207.94 260.39 205.43 256.70 201.31 C 250.98 193.94 247.55 185.13 244.78 176.30 C 244.51 176.22 243.97 176.07 243.70 176.00 C 244.08 171.08 242.93 166.26 241.63 161.56 C 237.13 160.28 231.98 158.94 229.60 154.45 C 223.69 144.55 218.77 131.70 224.52 120.62 C 225.85 117.25 229.78 117.75 232.72 117.46 C 234.72 124.82 237.68 131.86 240.52 138.92 C 240.57 126.91 240.63 114.85 242.37 102.94 C 243.76 93.37 244.67 83.47 248.78 74.58 M 256.98 84.03 C 254.19 87.66 251.64 92.47 252.83 97.17 C 254.07 95.20 254.97 93.05 256.05 91.00 C 258.19 87.68 262.40 86.86 266.07 86.80 C 271.49 86.90 276.37 89.53 281.28 91.52 C 283.68 92.62 283.70 88.36 282.85 87.02 C 277.78 78.16 264.10 77.20 256.98 84.03 M 259.52 116.50 C 256.19 119.01 255.17 123.32 254.96 127.26 C 255.39 126.83 256.26 125.95 256.69 125.51 C 258.32 133.41 267.65 136.80 274.79 134.75 C 279.22 133.33 282.50 128.72 281.87 124.01 C 281.63 121.89 281.67 119.50 280.04 117.88 C 274.96 112.15 265.45 112.06 259.52 116.50 M 292.66 147.12 C 292.03 153.11 290.25 158.96 290.05 164.99 C 291.23 168.56 295.34 170.84 299.05 170.26 C 303.69 169.61 308.20 167.47 311.45 164.05 C 307.48 164.29 303.71 165.63 299.85 166.43 C 298.57 166.71 296.29 166.83 296.39 164.93 C 295.26 153.26 296.70 141.47 295.46 129.81 C 293.32 135.33 293.68 141.36 292.66 147.12 M 298.93 135.27 C 298.40 136.91 298.94 137.47 300.55 136.96 C 301.09 135.31 300.55 134.75 298.93 135.27 M 313.23 142.47 C 313.44 143.63 313.66 144.79 313.87 145.96 C 314.90 145.08 315.60 143.96 315.79 142.62 C 315.15 142.58 313.87 142.50 313.23 142.47 M 280.66 144.05 C 279.19 145.32 281.24 147.68 282.63 146.20 C 284.27 144.95 282.02 142.41 280.66 144.05 M 299.36 143.90 C 298.14 145.18 300.23 147.42 301.39 145.82 C 302.61 144.54 300.51 142.31 299.36 143.90 M 330.29 145.54 C 328.72 146.60 330.74 148.87 332.11 147.75 C 333.66 146.68 331.66 144.40 330.29 145.54 M 268.07 147.39 C 266.45 148.37 268.30 150.78 269.73 149.65 C 271.36 148.67 269.49 146.26 268.07 147.39 M 273.14 152.22 C 273.16 152.88 273.21 154.20 273.23 154.85 C 273.83 154.83 275.01 154.77 275.61 154.74 C 275.58 154.14 275.53 152.95 275.51 152.35 C 274.92 152.32 273.73 152.25 273.14 152.22 M 325.05 152.28 C 323.42 153.32 325.43 155.61 326.81 154.46 C 328.44 153.41 326.42 151.13 325.05 152.28 M 336.19 152.20 C 336.30 152.76 336.52 153.87 336.63 154.43 C 337.13 154.45 338.15 154.48 338.66 154.49 C 338.68 153.89 338.71 152.69 338.73 152.09 C 338.09 152.11 336.82 152.17 336.19 152.20 M 260.50 153.19 C 259.38 154.61 261.77 156.50 262.75 154.86 C 263.87 153.43 261.48 151.54 260.50 153.19 M 329.45 173.92 C 325.32 176.81 321.14 180.04 316.05 180.96 C 307.11 182.60 298.08 184.06 288.97 184.24 C 284.98 184.36 281.73 181.77 278.40 179.97 C 283.04 184.80 286.99 190.78 293.30 193.58 C 300.59 195.39 308.59 194.55 315.45 191.53 C 322.13 188.65 324.89 181.48 329.19 176.15 C 330.77 176.43 332.35 176.69 333.95 176.93 C 332.52 175.82 331.02 174.82 329.45 173.92 Z" />
<path fill="#fccda3" opacity="1.00" d=" M 62.60 121.03 C 63.27 117.79 66.27 116.48 69.13 115.63 C 75.07 117.03 75.59 123.95 75.36 128.96 C 76.34 146.30 72.31 163.40 72.39 180.72 C 72.80 180.63 73.60 180.45 74.01 180.37 C 74.78 174.79 77.21 169.61 77.79 164.00 C 78.87 155.25 80.92 146.66 82.68 138.04 C 83.86 133.65 85.20 128.85 88.89 125.86 C 90.37 124.42 92.60 124.18 94.54 124.52 C 98.95 126.90 98.38 132.65 98.61 136.91 C 97.74 145.50 96.05 153.98 94.26 162.42 C 89.96 176.98 88.84 192.27 89.85 207.38 C 94.93 205.99 97.27 200.95 98.17 196.17 C 99.39 189.98 102.49 183.30 108.68 180.77 C 111.48 179.83 115.44 178.56 117.53 181.45 C 117.19 186.78 115.02 191.79 113.91 196.98 C 111.89 203.85 110.87 210.97 108.90 217.85 C 106.87 223.86 101.66 227.94 97.27 232.22 C 92.56 236.34 88.31 240.96 83.56 245.03 C 78.89 249.01 73.91 253.01 67.82 254.46 C 54.89 258.00 40.97 251.10 33.34 240.68 C 29.18 234.14 26.15 226.90 23.72 219.56 C 19.82 204.88 18.48 189.70 15.26 174.87 C 13.26 167.11 13.06 158.99 13.57 151.03 C 13.54 147.30 17.12 143.51 20.99 144.75 C 25.48 147.17 25.76 152.79 26.83 157.19 C 28.83 167.91 31.03 178.59 33.88 189.12 C 34.16 190.95 35.61 191.81 37.34 191.84 C 39.21 184.97 37.49 177.99 37.30 171.05 C 36.51 160.03 35.13 149.03 35.36 137.96 C 35.64 134.29 35.77 129.55 39.57 127.67 C 42.23 126.73 46.01 126.71 47.26 129.77 C 51.44 137.05 51.04 145.80 52.21 153.88 C 52.60 163.31 53.09 172.74 53.89 182.16 C 54.24 182.22 54.94 182.35 55.29 182.42 C 57.19 172.76 56.57 162.82 58.15 153.10 C 58.40 142.30 59.93 131.49 62.60 121.03 Z" />
</g>
<g id="#f1f1f1ff">
<path fill="#f1f1f1" opacity="1.00" d=" M 101.30 151.35 C 131.87 107.86 178.59 76.07 230.33 63.78 C 226.73 72.96 224.31 83.19 226.70 92.98 C 228.18 101.26 229.92 109.51 232.72 117.46 C 229.78 117.75 225.85 117.25 224.52 120.62 C 218.77 131.70 223.69 144.55 229.60 154.45 C 231.98 158.94 237.13 160.28 241.63 161.56 C 242.93 166.26 244.08 171.08 243.70 176.00 C 232.39 182.50 223.32 192.30 215.78 202.82 C 207.04 214.70 202.14 229.21 201.27 243.89 C 189.86 249.11 179.94 257.40 172.52 267.48 C 167.69 273.66 162.93 279.90 157.80 285.83 C 150.58 293.94 144.48 303.01 136.70 310.64 C 131.92 315.23 127.80 320.50 122.64 324.71 C 114.95 330.97 107.26 337.25 99.76 343.75 C 93.82 330.82 90.76 316.84 87.83 302.99 C 85.94 292.06 83.79 281.10 83.67 269.98 C 83.57 261.66 83.43 253.34 83.56 245.03 C 88.31 240.96 92.56 236.34 97.27 232.22 C 101.66 227.94 106.87 223.86 108.90 217.85 C 110.87 210.97 111.89 203.85 113.91 196.98 C 115.02 191.79 117.19 186.78 117.53 181.45 C 115.44 178.56 111.48 179.83 108.68 180.77 C 102.49 183.30 99.39 189.98 98.17 196.17 C 97.27 200.95 94.93 205.99 89.85 207.38 C 88.84 192.27 89.96 176.98 94.26 162.42 C 96.07 158.42 98.88 154.98 101.30 151.35 Z" />
<path fill="#f1f1f1" opacity="1.00" d=" M 378.83 79.54 C 426.11 102.31 464.87 142.32 485.70 190.52 C 503.43 230.89 508.37 276.66 500.09 319.94 C 493.87 352.91 479.83 384.30 459.67 411.10 C 459.07 396.73 458.18 382.37 456.89 368.05 C 456.13 359.60 455.47 351.08 453.35 342.83 C 448.49 323.64 443.64 304.34 435.99 286.03 C 433.28 279.43 429.18 273.55 425.30 267.62 C 420.90 260.95 414.33 255.95 407.16 252.57 C 400.02 249.18 392.89 245.74 385.59 242.68 C 376.78 238.89 367.58 236.10 358.79 232.26 C 352.58 229.53 345.97 227.93 339.46 226.10 C 338.83 219.25 338.43 212.38 338.30 205.50 C 344.33 200.00 349.62 193.50 352.30 185.69 C 362.31 179.81 371.79 173.08 381.10 166.16 C 385.50 163.01 389.33 158.84 391.53 153.86 C 395.32 139.78 390.00 125.57 386.77 111.93 C 384.25 101.10 381.58 90.32 378.83 79.54 Z" />
<path fill="#f1f1f1" opacity="1.00" d=" M 256.69 125.51 C 259.83 121.85 263.83 118.43 268.89 118.16 C 274.02 116.98 278.95 119.96 281.87 124.01 C 282.50 128.72 279.22 133.33 274.79 134.75 C 267.65 136.80 258.32 133.41 256.69 125.51 M 266.40 120.43 C 262.32 122.50 262.19 128.65 265.59 131.40 C 269.65 134.43 277.22 132.87 277.55 127.03 C 278.40 121.05 271.16 117.69 266.40 120.43 Z" />
<path fill="#f1f1f1" opacity="1.00" d=" M 317.43 124.29 C 323.59 117.30 335.73 117.98 341.41 125.24 C 342.21 128.61 341.49 132.47 338.45 134.49 C 333.03 138.03 325.40 137.45 320.21 133.74 C 317.15 131.65 317.45 127.55 317.43 124.29 M 326.54 121.66 C 322.95 123.51 321.07 128.80 324.06 132.00 C 327.68 136.63 336.75 134.23 336.72 128.06 C 337.75 122.56 330.84 119.99 326.54 121.66 Z" />
<path fill="#f1f1f1" opacity="1.00" d=" M 271.35 122.57 C 274.11 121.17 277.17 125.50 274.59 127.51 C 271.64 128.91 268.95 124.65 271.35 122.57 Z" />
<path fill="#f1f1f1" opacity="1.00" d=" M 330.19 124.26 C 331.67 124.32 333.84 123.62 334.47 125.50 C 335.53 127.23 333.82 130.37 331.71 129.17 C 329.75 128.30 330.34 125.95 330.19 124.26 Z" />
<path fill="#f1f1f1" opacity="1.00" d=" M 134.53 400.60 C 150.18 391.43 164.66 380.42 180.48 371.53 C 179.88 381.75 179.89 392.43 184.16 401.94 C 186.86 407.31 190.39 412.21 194.32 416.74 C 196.57 419.28 197.03 422.77 197.39 426.02 C 197.87 431.34 198.33 436.66 198.64 441.99 C 199.00 455.85 200.20 469.66 199.88 483.53 C 163.90 469.13 131.90 445.08 107.96 414.63 C 117.14 410.59 125.84 405.58 134.53 400.60 Z" />
</g>
<g id="#3e2623fd">
<path fill="#3e2623" opacity="1.00" d=" M 259.52 116.50 C 265.45 112.06 274.96 112.15 280.04 117.88 C 281.67 119.50 281.63 121.89 281.87 124.01 C 278.95 119.96 274.02 116.98 268.89 118.16 C 263.83 118.43 259.83 121.85 256.69 125.51 C 256.26 125.95 255.39 126.83 254.96 127.26 C 255.17 123.32 256.19 119.01 259.52 116.50 Z" />
<path fill="#3e2623" opacity="1.00" d=" M 321.47 117.54 C 324.00 115.51 327.31 114.99 330.43 114.53 C 335.42 115.24 340.27 117.23 343.34 121.40 C 343.79 123.65 344.18 125.92 344.53 128.19 C 343.47 127.22 342.42 126.25 341.41 125.24 C 335.73 117.98 323.59 117.30 317.43 124.29 C 318.34 121.83 319.26 119.15 321.47 117.54 Z" />
<path fill="#3e2623" opacity="1.00" d=" M 266.40 120.43 C 271.16 117.69 278.40 121.05 277.55 127.03 C 277.22 132.87 269.65 134.43 265.59 131.40 C 262.19 128.65 262.32 122.50 266.40 120.43 M 271.35 122.57 C 268.95 124.65 271.64 128.91 274.59 127.51 C 277.17 125.50 274.11 121.17 271.35 122.57 Z" />
<path fill="#3e2623" opacity="1.00" d=" M 326.54 121.66 C 330.84 119.99 337.75 122.56 336.72 128.06 C 336.75 134.23 327.68 136.63 324.06 132.00 C 321.07 128.80 322.95 123.51 326.54 121.66 M 330.19 124.26 C 330.34 125.95 329.75 128.30 331.71 129.17 C 333.82 130.37 335.53 127.23 334.47 125.50 C 333.84 123.62 331.67 124.32 330.19 124.26 Z" />
</g>
<g id="#e0ba89ff">
<path fill="#e0ba89" opacity="1.00" d=" M 292.66 147.12 C 293.68 141.36 293.32 135.33 295.46 129.81 C 296.70 141.47 295.26 153.26 296.39 164.93 C 296.29 166.83 298.57 166.71 299.85 166.43 C 303.71 165.63 307.48 164.29 311.45 164.05 C 308.20 167.47 303.69 169.61 299.05 170.26 C 295.34 170.84 291.23 168.56 290.05 164.99 C 290.25 158.96 292.03 153.11 292.66 147.12 Z" />
<path fill="#e0ba89" opacity="1.00" d=" M 300.94 222.54 C 315.21 222.78 328.08 214.80 338.30 205.50 C 338.43 212.38 338.83 219.25 339.46 226.10 C 339.97 231.60 342.62 236.57 343.64 241.95 C 346.60 255.23 342.11 269.88 332.39 279.35 C 323.88 287.72 311.69 291.11 299.97 290.57 C 292.22 290.40 285.08 286.61 279.27 281.71 C 268.24 273.27 263.70 258.14 266.10 244.75 C 267.35 239.19 269.84 233.82 269.68 228.03 C 269.58 222.54 269.43 217.04 269.60 211.55 C 278.73 217.96 289.53 222.99 300.94 222.54 Z" />
</g>
<g id="#a4286aff">
<path fill="#a4286a" opacity="1.00" d=" M 339.46 226.10 C 345.97 227.93 352.58 229.53 358.79 232.26 C 367.58 236.10 376.78 238.89 385.59 242.68 C 392.89 245.74 400.02 249.18 407.16 252.57 C 414.33 255.95 420.90 260.95 425.30 267.62 C 429.18 273.55 433.28 279.43 435.99 286.03 C 443.64 304.34 448.49 323.64 453.35 342.83 C 455.47 351.08 456.13 359.60 456.89 368.05 C 458.18 382.37 459.07 396.73 459.67 411.10 C 437.33 440.66 407.56 464.58 373.76 479.79 C 319.48 504.52 255.18 505.83 199.88 483.53 C 200.20 469.66 199.00 455.85 198.64 441.99 C 198.33 436.66 197.87 431.34 197.39 426.02 C 197.03 422.77 196.57 419.28 194.32 416.74 C 190.39 412.21 186.86 407.31 184.16 401.94 C 179.89 392.43 179.88 381.75 180.48 371.53 C 164.66 380.42 150.18 391.43 134.53 400.60 C 125.84 405.58 117.14 410.59 107.96 414.63 C 100.03 417.88 91.64 420.92 82.94 420.42 C 77.27 420.14 71.33 419.67 66.38 416.63 C 56.83 411.15 50.57 401.47 46.55 391.47 C 40.69 378.57 39.17 364.34 36.61 350.56 C 34.82 339.40 34.05 328.12 32.98 316.88 C 32.22 310.61 32.40 304.28 32.34 297.98 C 32.33 286.99 32.35 275.99 32.81 265.01 C 33.14 261.32 33.37 257.62 33.03 253.93 C 32.59 249.50 33.58 245.10 33.34 240.68 C 40.97 251.10 54.89 258.00 67.82 254.46 C 73.91 253.01 78.89 249.01 83.56 245.03 C 83.43 253.34 83.57 261.66 83.67 269.98 C 83.79 281.10 85.94 292.06 87.83 302.99 C 90.76 316.84 93.82 330.82 99.76 343.75 C 107.26 337.25 114.95 330.97 122.64 324.71 C 127.80 320.50 131.92 315.23 136.70 310.64 C 144.48 303.01 150.58 293.94 157.80 285.83 C 162.93 279.90 167.69 273.66 172.52 267.48 C 179.94 257.40 189.86 249.11 201.27 243.89 C 200.81 250.40 202.52 256.75 203.95 263.03 C 206.97 276.33 212.90 288.74 219.36 300.68 C 223.37 307.47 227.78 314.42 234.34 319.04 C 230.66 310.89 224.71 303.92 221.72 295.41 C 228.86 303.57 235.58 312.73 245.62 317.53 C 248.68 319.41 252.25 319.97 255.79 319.69 C 254.10 315.09 252.26 310.55 250.88 305.85 C 254.40 309.63 257.77 313.74 262.53 316.02 C 260.91 303.70 258.17 291.44 258.36 278.95 C 258.49 273.44 257.92 267.88 258.67 262.40 C 260.49 256.26 263.95 250.77 266.10 244.75 C 263.70 258.14 268.24 273.27 279.27 281.71 C 285.08 286.61 292.22 290.40 299.97 290.57 C 311.69 291.11 323.88 287.72 332.39 279.35 C 342.11 269.88 346.60 255.23 343.64 241.95 C 342.62 236.57 339.97 231.60 339.46 226.10 Z" />
</g>
</svg>
