<svg xmlns="http://www.w3.org/2000/svg" role="img" aria-hidden="true" viewBox="0 0 500 500" focusable="false"><path d="M80 0h340a80 80 0 0 1 80 80v420H80a80 80 0 0 1-80-80V80A80 80 0 0 1 80 0z" fill="#835069"/><path fill="#5b2942" d="M415.18 27.51l41.64 415H205.48l209.7-415z"/><path fill="#d1d0bd" d="M93.7 114.72l-8.69 60.87 7.24 56.52-5.8 56.52 8.7 66.67-8.7 86.95 31.89 27.54 30.43-8.7 53.63 10.15 30.43 5.8 60.87-5.8 59.42 7.25 61.87-9.9V27.51H87.54l-1.09 40.83 7.25 46.38z"/><path fill="#7172a3" d="M122.7 254.51h96.7v17.03h-96.7z"/><path fill="#9595ba" d="M309.13 284.51h78.23v17.03h-78.23zm-186.43 0h159.42v17.03H122.7zm0 28h56.13v17.03H122.7zm83.15 0h181.52v17.03H205.85zm-83.15 28h127.65v17.03H122.7zm154.67 0h110v17.03h-110zm-70.84 28h104.25v17.03H206.53zm-83.83 0h56.82v17.03H122.7zm215.1 0h49.56v17.03H337.8zm-86.58 28h136.15v17.03H251.22zm-128.52 0h101.5v17.03H122.7zm0 28h239.59v17.03H122.7zm-.01-363v162.63h99.55l92.24-162.63H122.69z"/><path fill="#7172a3" d="M387.36 61.51h-72.88l-92.24 162.63h165.12V61.51zM184.43 187v11.91c7.37-.31 13.14-2.73 18-7.68s9.35-13 13.62-24.88l31.6-84.64h-15.27l-25.46 70.71-12.63-39.65h-14l18.57 47.71a19.63 19.63 0 0 1 0 14.27c-1.86 4.86-5.25 10.56-14.43 12.25z"/><path d="M301.09 84.87l-32.7 57.85a33.23 33.23 0 0 0 32.7-57.85z" fill="#494a7b"/><path d="M255.8 97.46a33.2 33.2 0 0 0 12.58 45.25l32.7-57.85a33.21 33.21 0 0 0-45.26 12.54z" fill="#7172a3"/><path d="M259.55 158.11l-21.37 37.82a21.72 21.72 0 1 0 21.37-37.82z" fill="#494a7b"/><path d="M259.62 158.18a21.71 21.71 0 0 0-21.4 37.82z" fill="#7172a3"/><path d="M228.29 213.47l-12.84 22.7a13 13 0 0 0 12.8-22.7z" fill="#494a7b"/><path d="M228.29 213.5a13 13 0 0 0-14 22c.37.23.74.44 1.12.64z" fill="#7172a3"/></svg>