<?xml version="1.0" encoding="utf-8"?>
<!-- Generator: Adobe Illustrator 18.1.1, SVG Export Plug-In . SVG Version: 6.00 Build 0)  -->
<!DOCTYPE svg PUBLIC "-//W3C//DTD SVG 1.1//EN" "http://www.w3.org/Graphics/SVG/1.1/DTD/svg11.dtd" [
	<!ENTITY ns_flows "http://ns.adobe.com/Flows/1.0/">
	<!ENTITY ns_extend "http://ns.adobe.com/Extensibility/1.0/">
	<!ENTITY ns_ai "http://ns.adobe.com/AdobeIllustrator/10.0/">
	<!ENTITY ns_graphs "http://ns.adobe.com/Graphs/1.0/">
]>
<svg version="1.1" xmlns:x="&ns_extend;" xmlns:i="&ns_ai;" xmlns:graph="&ns_graphs;"
	 xmlns="http://www.w3.org/2000/svg" xmlns:xlink="http://www.w3.org/1999/xlink" xmlns:a="http://ns.adobe.com/AdobeSVGViewerExtensions/3.0/"
	 x="0px" y="0px" viewBox="0 0 500 500" enable-background="new 0 0 500 500" xml:space="preserve">
<g id="BG">
	<path fill="#835069" d="M500,450H60c-33.1,0-60-26.9-60-60V60C0,26.9,26.9,0,60,0h380c33.1,0,60,26.9,60,60V450z"/>
</g>
<g id="BG_dark">
</g>
<g id="Layer_4">
	<polygon fill="#5B2942" points="415.2,35 456.8,450 205.5,450 	"/>
</g>
<g id="Yoast">
	<g>
		<polygon fill="#D1D0BD" points="93.7,122.2 85,183.1 92.3,239.6 86.5,296.1 95.2,362.8 86.5,449.7 118.3,477.3 148.8,468.6 
			202.4,478.7 232.8,484.5 293.7,478.7 353.1,486 415,476.1 415,35 87.5,35 86.5,75.8 		"/>
		<rect x="122.7" y="262" fill="#7172A3" width="96.7" height="17"/>
		<g>
			<rect x="309.1" y="292" fill="#9595BA" width="78.2" height="17"/>
			<rect x="122.7" y="292" fill="#9595BA" width="159.4" height="17"/>
		</g>
		<g>
			<rect x="122.7" y="320" fill="#9595BA" width="56.1" height="17"/>
			<rect x="205.8" y="320" fill="#9595BA" width="181.5" height="17"/>
		</g>
		<g>
			<rect x="122.7" y="348" fill="#9595BA" width="127.7" height="17"/>
			<rect x="277.4" y="348" fill="#9595BA" width="110" height="17"/>
		</g>
		<g>
			<rect x="206.5" y="376" fill="#9595BA" width="104.3" height="17"/>
			<rect x="122.7" y="376" fill="#9595BA" width="56.8" height="17"/>
			<rect x="337.8" y="376" fill="#9595BA" width="49.6" height="17"/>
		</g>
		<g>
			<rect x="251.2" y="404" fill="#9595BA" width="136.1" height="17"/>
			<rect x="122.7" y="404" fill="#9595BA" width="101.5" height="17"/>
		</g>
		<g>
			<rect x="122.7" y="432" fill="#9595BA" width="239.6" height="17"/>
		</g>
	</g>
</g>
<g id="news_bg" display="none">
	<rect x="122.7" y="69" display="inline" fill="#9595BA" width="264.7" height="162.6"/>
	<path display="inline" fill="#7172A3" d="M387.4,231.6H122.7C287.4,190,239.7,100.9,387.4,69V231.6z"/>
</g>
<g id="news_bg_light">
	<rect x="122.7" y="69" fill="#9595BA" width="264.7" height="162.6"/>
	<path fill="#7172A3" d="M387.4,231.6h-87.9l-13.6,9.6l-62.7,1.1l-10.7-10.7h-89.7C287.4,190,239.7,100.9,387.4,69V231.6z"/>
</g>
<g id="traffic_light">
	<g>
		<g>
			<g>
				<path fill="#FFFFFF" d="M278.8,82h-47.5c-15.1,0-27.3,12.3-27.3,27.4v107.2c0,15.1,12.2,27.4,27.3,27.4h47.5
					c15.1,0,27.3-12.3,27.3-27.4V109.4C306.1,94.3,293.9,82,278.8,82z M298.6,216.9c0,11-9.1,20-20.2,20h-46.8
					c-11.1,0-20.2-9-20.2-20V109.3c0-5.4,2.1-10.4,5.9-14.1c3.8-3.7,8.8-5.7,14.2-5.7h46.8c5.4,0,10.4,2,14.2,5.7
					c3.8,3.7,6,8.7,6,14.1V216.9z"/>
			</g>
			<g>
				<circle fill="#FFFFFF" cx="255" cy="163" r="19.4"/>
				<circle fill="#FFFFFF" cx="255" cy="119.6" r="19.4"/>
				<circle fill="#FFFFFF" cx="255" cy="206.4" r="19.4"/>
			</g>
		</g>
	</g>
</g>
<g id="traffic_light_kopie">
	<g>
		<circle fill="#494A7B" cx="255" cy="163" r="19.4"/>
		<path fill="#7172A3" d="M262.7,145.2c-2.3-1-4.9-1.6-7.7-1.6c-10.7,0-19.4,8.7-19.4,19.4c0,3.3,0.8,6.4,2.3,9.2
			C247.1,163.3,255,154.2,262.7,145.2z"/>
		<circle fill="#7172A3" cx="255" cy="119.6" r="19.4"/>
		<circle fill="#494A7B" cx="255" cy="206.4" r="19.4"/>
	</g>
</g>
<g id="traffic_light_border">
	<g>
		<path fill="none" d="M231.6,235.4h46.8c4.2,0,8.1-1.4,11.3-3.8h-69.4C223.5,234,227.4,235.4,231.6,235.4z"/>
		<path fill="none" d="M291.6,96.3c-3.5-3.4-8.2-5.3-13.2-5.3h-46.8c-5,0-9.7,1.9-13.2,5.3c-3.5,3.4-5.5,8.1-5.5,13V193
			c38.1-26.7,53.4-57.8,84.2-83.5v-0.2C297.1,104.4,295.2,99.7,291.6,96.3z"/>
		<path fill="#7172A3" d="M212.9,109.3c0-5,1.9-9.6,5.5-13c3.5-3.4,8.2-5.3,13.2-5.3h46.8c5,0,9.7,1.9,13.2,5.3
			c3.5,3.4,5.5,8.1,5.5,13v0.2c3-2.5,6.2-5,9.6-7.4c-3.2-12.4-14.5-21.7-27.9-21.7h-47.5c-15.9,0-28.8,13-28.8,28.9v90.5
			c3.7-2.3,7.2-4.5,10.5-6.9V109.3z"/>
		<path fill="#494A7B" d="M306.7,102.2c-3.4,2.4-6.5,4.9-9.6,7.4v107.4c0,6-2.9,11.3-7.4,14.7c-3.1,2.4-7,3.8-11.3,3.8h-46.8
			c-4.2,0-8.1-1.4-11.3-3.8c-4.5-3.4-7.4-8.7-7.4-14.7V193c-3.3,2.3-6.8,4.6-10.5,6.9v16.7c0,5.5,1.5,10.6,4.2,15
			c5.1,8.3,14.2,13.9,24.6,13.9h47.5c10.4,0,19.5-5.6,24.6-13.9c2.7-4.4,4.2-9.5,4.2-15V109.4C307.6,106.9,307.3,104.5,306.7,102.2z
			"/>
	</g>
</g>
</svg>
