<svg xmlns="http://www.w3.org/2000/svg" viewBox="0 0 500 500"><path fill="#835069" d="M500 450H60c-33.1 0-60-26.9-60-60V60C0 26.9 26.9 0 60 0h380c33.1 0 60 26.9 60 60v390z"/><path fill="#5B2942" d="M415.2 35l41.6 415H205.5z"/><path fill="#D1D0BD" d="M93.7 122.2L85 183.1l7.3 56.5-5.8 56.5 8.7 66.7-8.7 86.9 31.8 27.6 30.5-8.7 53.6 10.1 30.4 5.8 60.9-5.8 59.4 7.3 61.9-9.9V35H87.5l-1 40.8z"/><path fill="#7172A3" d="M122.7 262h96.7v17h-96.7z"/><path d="M309.1 292h78.2v17h-78.2zm-186.4 0h159.4v17H122.7zm0 28h56.1v17h-56.1zm83.1 0h181.5v17H205.8zm-83.1 28h127.7v17H122.7zm154.7 0h110v17h-110zm-70.9 28h104.3v17H206.5zm-83.8 0h56.8v17h-56.8zm215.1 0h49.6v17h-49.6zm-86.6 28h136.1v17H251.2zm-128.5 0h101.5v17H122.7zm0 28h239.6v17H122.7zm0-363h264.7v162.6H122.7z" fill="#9595BA"/><path fill="#7172A3" d="M387.4 231.6h-87.9l-13.6 9.6-62.7 1.1-10.7-10.7h-89.7C287.4 190 239.7 100.9 387.4 69v162.6z"/><g fill="#FFF"><path d="M278.8 82h-47.5c-15.1 0-27.3 12.3-27.3 27.4v107.2c0 15.1 12.2 27.4 27.3 27.4h47.5c15.1 0 27.3-12.3 27.3-27.4V109.4c0-15.1-12.2-27.4-27.3-27.4zm19.8 134.9c0 11-9.1 20-20.2 20h-46.8c-11.1 0-20.2-9-20.2-20V109.3c0-5.4 2.1-10.4 5.9-14.1 3.8-3.7 8.8-5.7 14.2-5.7h46.8c5.4 0 10.4 2 14.2 5.7 3.8 3.7 6 8.7 6 14.1v107.6z"/><circle cx="255" cy="163" r="19.4"/><circle cx="255" cy="119.6" r="19.4"/><circle cx="255" cy="206.4" r="19.4"/></g><circle fill="#494A7B" cx="255" cy="163" r="19.4"/><path fill="#7172A3" d="M262.7 145.2c-2.3-1-4.9-1.6-7.7-1.6-10.7 0-19.4 8.7-19.4 19.4 0 3.3.8 6.4 2.3 9.2 9.2-8.9 17.1-18 24.8-27z"/><circle fill="#7172A3" cx="255" cy="119.6" r="19.4"/><circle fill="#494A7B" cx="255" cy="206.4" r="19.4"/><path fill="none" d="M231.6 235.4h46.8c4.2 0 8.1-1.4 11.3-3.8h-69.4c3.2 2.4 7.1 3.8 11.3 3.8zm60-139.1c-3.5-3.4-8.2-5.3-13.2-5.3h-46.8c-5 0-9.7 1.9-13.2 5.3s-5.5 8.1-5.5 13V193c38.1-26.7 53.4-57.8 84.2-83.5v-.2c0-4.9-1.9-9.6-5.5-13z"/><path fill="#7172A3" d="M212.9 109.3c0-5 1.9-9.6 5.5-13 3.5-3.4 8.2-5.3 13.2-5.3h46.8c5 0 9.7 1.9 13.2 5.3s5.5 8.1 5.5 13v.2c3-2.5 6.2-5 9.6-7.4-3.2-12.4-14.5-21.7-27.9-21.7h-47.5c-15.9 0-28.8 13-28.8 28.9v90.5c3.7-2.3 7.2-4.5 10.5-6.9v-83.6z"/><path fill="#494A7B" d="M306.7 102.2c-3.4 2.4-6.5 4.9-9.6 7.4V217c0 6-2.9 11.3-7.4 14.7-3.1 2.4-7 3.8-11.3 3.8h-46.8c-4.2 0-8.1-1.4-11.3-3.8-4.5-3.4-7.4-8.7-7.4-14.7v-24c-3.3 2.3-6.8 4.6-10.5 6.9v16.7c0 5.5 1.5 10.6 4.2 15 5.1 8.3 14.2 13.9 24.6 13.9h47.5c10.4 0 19.5-5.6 24.6-13.9 2.7-4.4 4.2-9.5 4.2-15V109.4c.1-2.5-.2-4.9-.8-7.2z"/></svg>