<svg role="img" aria-hidden="true" xmlns="http://www.w3.org/2000/svg" viewBox="0 0 520 272" focusable="false"><path fill="#7577aa" d="M0 0h520v272H0z"/><path fill="#fff" d="M0 0v272h101.2L255.3 0H0z" opacity=".13"/><path fill="#7e9358" d="M426.28 239.26c-.13-.91 1.87-6.25 4.47-11.92-4.15 5-13.86 13-13.86 13s10.87 10.16 11.11 12.93c.2 2.34-8.13 14.84-10.76 18.73h13.67c-.72-5.15-4.35-30.93-4.63-32.74z"/><path fill="#7e9358" d="M431.74 191.32l-2.9 4.36a4.54 4.54 0 0 1 2.77 5.25l-1.61 6.91c1.32 7.43 2.31 13.6 2.52 15.71 2.72-5.47 5.68-10.39 7.43-10.94 3.95-1.22 5.86-2.16 2.32 2.63s-13.1 23.25-12.79 22.79 6.32-3.23 9.55-7.1 3.7 1.09.61 4.19a60.05 60.05 0 0 1-9.85 7l3.98 29.88H464c-.55-4.24-9.21-69.66-22.17-83-4.65-4.79-11.74-10.47-19-15.85 1 3.27 2.44 9.75 3.9 17zm-110.31 42.15c2.35-2.71 1.3-7.27 1.63-10.78-2-2.54-3.54-4.82-3.69-6.1-.44-3.86 3.73-39.83 5.27-46.78-6.36 3.77-12.43 7.39-15.89 9.52-1.11.68-2.22 2.45-3.33 5-4.5 8.87-34.83 69.25-32.26 79.31a35.27 35.27 0 0 0 3.35 8.33h22.92a79.91 79.91 0 0 1-7.91-20.71c-.35-1.87-.42-3.29-.1-4a4.9 4.9 0 0 1 .85-1.18 25.3 25.3 0 0 1 5.05-3.8 61.7 61.7 0 0 1 5.71-3.05c-1.49-1-3.13-2.18-4.79-3.24a73.31 73.31 0 0 0-4-2.38c-2.39-1.27-4.51-2.08-5.78-1.88-4.63.69-3-3.71.46-4.4 1.1-.21 3.34 1.09 5.86 3 1.26.94 2.58 2 3.88 3.11 2.17 1.84 4.26 3.75 5.8 5.19.53-.23 1-.45 1.55-.65-1.27-4-3.61-11.08-5.7-15.8a31.17 31.17 0 0 0-1.45-2.9c-2.2-3.77.41-3.48 2.3-2.9a14.92 14.92 0 0 1 1.62.6c2.91 1.55 3.66 9.81 5.09 20.3 2.24-.77 4.1-1.17 5.07-.92.66.16 1.36 1.25 2.05 2.93a54.84 54.84 0 0 0 6.44-5.82zm9 35.33a97.15 97.15 0 0 1-10.65-2.89 14.37 14.37 0 0 1-.41 4.69 10 10 0 0 1-.67 1.4h13.44c-.46-.86-1.05-1.95-1.71-3.2z"/><path fill="#260101" d="M415.55 82.29l-7.93.13c.21 12.68.16 29.41-1.37 36.15-1.62 7.18-5.18 15.47-11.84 21.38l.12 5.65.17 8.33s1.63.92 4.09 2.34c43.52-8.8 40.28-40.5 40.28-40.5-2.43 6.34-4.39 7-8.37 5.57 0 0-9.76-49-13.39-55.22-2.62-4.49-5-16.43-18.83-23.09 18.67 12.33 17.07 39.26 17.07 39.26zM352.16 146l-.55-9.31c-5-5.86-7.89-12.63-8.66-16.49-.59-2.93-1.2-23.1-1.56-36.63l-7 .12s-.63-14.25 6.17-27a59.54 59.54 0 0 0-8 17.3c-2.32 8.32-6.71 43-6.71 43-2.94.81-5.58-.7-9-4.39-.26 4.8.67 8.8 4.19 11.15-2.54 2.12-7.46-6.77-10-10 .77 7.94.26 34 36.94 42.27l.48-.19v.3l1.19.25 1-.64 2-1.29z"/><path fill="#ddbf94" d="M394.85 157l-.15-3-.17-8.33a74.77 74.77 0 0 1-5.63 8.56c-.93 1.23-1.9 2.43-2.88 3.57-.1.12-.22.22-.32.33-6.23 6.79-17.9 6.84-24.24 1.84a15.32 15.32 0 0 1-2.08-2.1c-.59-.71-1.2-1.52-1.81-2.39a81.69 81.69 0 0 1-5.41-9.42l.49 8.4-2 1.29-1 .64-1.18.77.34 21.13a60.76 60.76 0 0 0 6.6 6.81 21.92 21.92 0 0 1 25.16 7.9c7-1.92 12-7.41 15.35-13z"/><path fill="#c79367" d="M394.41 140a31.25 31.25 0 0 1-19.11 7.73c-10.34.73-18.26-4.6-23.69-11l.55 9.31a81.69 81.69 0 0 0 5.41 9.42c.61.87 1.22 1.68 1.81 2.39a15.32 15.32 0 0 0 2.08 2.1c6.34 5 18 4.95 24.24-1.84.1-.11.22-.21.32-.33 1-1.14 2-2.34 2.88-3.57a74.77 74.77 0 0 0 5.63-8.56z"/><path fill="#7e9358" d="M396.41 190.36l-.49-10.45c-3.39 5.63-8.37 11.12-15.35 13a22.26 22.26 0 0 1 4.23 13.12 22.31 22.31 0 0 1-12.58 20.14l-1.87 8.72c1.58 2.07 3.44 4.55 3.57 6.31.25 3.46-1.84 7.37-2.54 9.93s-7.85 1.85-7.85 1.85a9.75 9.75 0 0 1-1.16 11.15l-6.25.46s-1.48 5.15-5.84 5.57v1.8h49.92zm-47.57-12.14l.16 10.41a21.78 21.78 0 0 1 6.44-3.6 60.76 60.76 0 0 1-6.6-6.81z"/><path fill="#ddbf94" d="M407.62 82.42l-14.71.25c1.22-3.85.23-10.54.23-10.54l-1.39 10.59-4.18.07-1.82-10.43-1.52 10.49-29.39.49-1-16.53-2.59 16.58-9.9.17c.36 13.53 1 33.7 1.56 36.63.77 3.86 3.68 10.63 8.66 16.49 5.43 6.4 13.35 11.73 23.69 11a31.25 31.25 0 0 0 19.15-7.68c6.66-5.91 10.22-14.2 11.84-21.38 1.53-6.79 1.58-23.52 1.37-36.2zM365 109c.16-.72 1.27-2.48 2.3-2.41 1.51 0-.43 1.63-.61 2.29a1.56 1.56 0 0 0 1.06 1.75 4.29 4.29 0 0 0 2.25 0 4.72 4.72 0 0 1 2.24.07c1.27.52 2.2 2 3.47 1.91s2-1.61 3.17-2a8.82 8.82 0 0 1 2-.16 1.66 1.66 0 0 0 1.58-1 3.41 3.41 0 0 0-.09-1.19c0-.39.07-.88.44-1a1 1 0 0 1 .85.23 2.66 2.66 0 0 1-.41 4.28c-1.17.58-2.48.14-3.82.69s-2.12 2.11-3.51 2.51a4.47 4.47 0 0 1-3.73-1.11 7.12 7.12 0 0 0-3.55-1.77 9.24 9.24 0 0 1-2.23 0A2.47 2.47 0 0 1 365 109zm-17.65-15.19h-.12c-.29-.63 1.83-4 4.4-4.45 3.91-.66 10.33 5.27 13.12 8.06-.42-.22-.82-.46-1.23-.71l.52.48c-5.04 2.22-10.29 3.59-16.69-3.38zm4 38.32c.05.21.07.36 0 .34zm22.26-2.94a57.57 57.57 0 0 1-7.53-.76 12.89 12.89 0 0 1-2.89-7.21 28.6 28.6 0 0 1-3.05-.68c3.8-.55 9.56-2.58 13.86-2.43s10.56 2.12 13.59 2.73c-1.05.17-1.95.09-3 .25a10.63 10.63 0 0 1-3.37 7.94c-3.12.02-5.98.15-7.62.16zM400.1 94c-3.18 6.37-9.12 7.36-17.51 3.61 2.79-2.79 9.2-8.71 13.12-8.06 2.58.45 4.7 3.82 4.39 4.45z"/><path fill="#3f622e" d="M430.75 227.34c.58-1.26 1.19-2.54 1.81-3.79-.21-2.11-1.2-8.28-2.52-15.71l-2.26 9.92-12.1-2.76a17.4 17.4 0 0 1-2.19 1.92 7.37 7.37 0 0 1-5.83.81l-.37-.1 1-4.32h.05l-1-.23a4.56 4.56 0 0 1-3.4-5.46l2.87-12.43a4.57 4.57 0 0 1 5.41-3.37l11.3 2.62 2.81-4.31.33.08c-1.46-7.28-2.89-13.76-3.9-17A8.18 8.18 0 0 0 422 171c-1.69-2.19-16-10.6-23.17-14.75-2.46-1.42-4.09-2.34-4.09-2.34l.15 3 1.07 22.93.49 10.45 3.78 81.71h17c2.63-3.89 11-16.39 10.76-18.73-.24-2.77-11.11-12.94-11.11-12.94s9.72-8 13.87-12.99zm-80.47 42.86a6.06 6.06 0 0 1-1.13 0c-1.66-.14-3.92-.29-6.23-.42-5-.28-10.16-.5-10.16-.5s-.92-.18-2.33-.49c.66 1.25 1.25 2.34 1.71 3.2h18.17zm-1.78-113.11l1.18-.77-1.19-.25v-.3l-.49.23c-8.74 3.54-21.89 10.52-23.05 12.79a5.1 5.1 0 0 0-.31 1.06c-1.54 6.95-5.71 42.92-5.27 46.78.15 1.28 1.66 3.56 3.69 6.1a6.75 6.75 0 0 1 .68-2.62c1.85-3.45 12-8.78 12-8.78l5.63.44c-.13-.52-.24-1-.34-1.57v-.09l-.12-.73a21.21 21.21 0 0 1-.25-2.54v-.73a22.33 22.33 0 0 1 7.79-17l.55-.45-.16-10.41z"/><path fill="#341644" d="M398.48 43c-5.66-3.74-13.18-6.13-23.18-6-19.12.21-29.33 9.46-34.77 19.68-6.8 12.75-6.17 27-6.17 27l7-.12 9.9-.17 2.59-16.58 1 16.53 29.39-.49 1.52-10.49 1.82 10.43 4.18-.07 1.39-10.59s1 6.69-.23 10.54l14.71-.25 7.93-.13s1.59-26.93-17.08-39.29zm5 14.75a41 41 0 0 1-1 5.88c-1.47 5.42-3.46.67-6.15-3.43a19.82 19.82 0 0 0-2-2.58c-.25.41-.47.84-.69 1.28-3.02 6.35-3.64 14.51-11.76-1.9l-.09.07c-1 2-4.25 22-13.31 1.09-1.44 19.22-4.63 11.82-11.6.18-4.74 7.8-7.67 12.5-9.77 5.46a33.08 33.08 0 0 1-.87-3.83c-1.81 1.9-5.7 8.55-5.23 5.91 1.79-9.56 7.14-16.35 9.76-7.15 2.62-7.19 7.21-8 10.32-4a13.16 13.16 0 0 1 2 3.69 31.75 31.75 0 0 1 .55-4.4c1.09-5.15 3.43-4.72 6.77-.91a70.58 70.58 0 0 1 5.47 7.55c-1-1.75-.05-4.86 1.77-7.06 2.6-3.14 7-4.43 10 2.66q.24.54.45 1.14c.19-.27.38-.51.57-.77 5-6.75 7.93-6.24 11.74-.33 2.36-7.52 6.54-.07 11.14 7.95 2.93 5.25-4.03-1.95-8.02-6.47z"/><path fill="#ae5d9e" d="M411.46 64.32c-4.6-8-8.78-15.47-11.14-7.95-3.81-5.91-6.76-6.42-11.74.33-.19.26-.38.5-.57.77q-.21-.6-.45-1.14c-3-7.09-7.36-5.8-10-2.66-1.82 2.2-2.78 5.31-1.77 7.06a70.58 70.58 0 0 0-5.47-7.55c-3.34-3.81-5.68-4.24-6.77.91a31.75 31.75 0 0 0-.55 4.4 13.16 13.16 0 0 0-2-3.69c-3.11-4-7.7-3.22-10.32 4-2.62-9.2-8-2.41-9.76 7.15-.47 2.64 3.42-4 5.23-5.91a33.08 33.08 0 0 0 .87 3.83c2.1 7 5 2.34 9.77-5.46 7 11.64 10.16 19 11.6-.18 9.06 20.91 12.28.94 13.31-1.09l.09-.07c8.11 16.37 8.74 8.21 11.86 1.89.22-.44.44-.87.69-1.28a19.82 19.82 0 0 1 2 2.58c2.69 4.1 4.68 8.85 6.15 3.43a41 41 0 0 0 1-5.88c4.03 4.49 10.99 11.69 7.97 6.51z"/><path fill="#3f622e" d="M319.78 265.91c-2.34-.82-4.29-1.72-5-2.63-2.54-3-3.93-20.79-3.93-20.79s1.88-1.37 4.15-3.17c-.69-1.68-1.39-2.77-2.05-2.93-1-.25-2.83.15-5.07.92-1.43-10.49-2.18-18.75-5.09-20.3a14.92 14.92 0 0 0-1.62-.6c-1.89-.58-4.5-.87-2.3 2.9a31.17 31.17 0 0 1 1.45 2.9c2.09 4.72 4.43 11.8 5.7 15.8-.51.2-1 .42-1.55.65a164.67 164.67 0 0 0-5.8-5.19 82.55 82.55 0 0 0-3.88-3.11c-2.52-1.88-4.76-3.18-5.86-3-3.47.69-5.09 5.09-.46 4.4 1.27-.2 3.39.61 5.78 1.88 1.3.69 2.67 1.51 4 2.38 1.66 1.06 3.3 2.19 4.79 3.24a61.7 61.7 0 0 0-5.71 3.05 25.3 25.3 0 0 0-5.05 3.8 4.9 4.9 0 0 0-.85 1.18c-.32.68-.25 2.1.1 4a79.91 79.91 0 0 0 7.9 20.71h19.27a10 10 0 0 0 .67-1.4 14.37 14.37 0 0 0 .41-4.69zM440 212.61c-1.75.55-4.71 5.47-7.43 10.94-.62 1.25-1.23 2.53-1.81 3.79-2.6 5.67-4.6 11-4.47 11.92.28 1.81 3.91 27.59 4.63 32.74h2.86l-3.94-29.91a60.05 60.05 0 0 0 9.85-7c3.09-3.1 2.63-8.05-.61-4.19s-9.24 6.64-9.55 7.1 9.24-18 12.79-22.79 1.62-3.82-2.32-2.6z"/><path fill="#c79367" d="M366.43 112a9.24 9.24 0 0 0 2.23 0 7.12 7.12 0 0 1 3.55 1.77 4.47 4.47 0 0 0 3.73 1.11c1.39-.4 2.17-2 3.51-2.51s2.65-.11 3.82-.69a2.66 2.66 0 0 0 .41-4.28 1 1 0 0 0-.85-.23c-.37.14-.48.63-.44 1a3.41 3.41 0 0 1 .09 1.19 1.66 1.66 0 0 1-1.58 1 8.82 8.82 0 0 0-2 .16c-1.2.42-1.9 1.94-3.17 2s-2.2-1.39-3.47-1.91a4.72 4.72 0 0 0-2.24-.07 4.29 4.29 0 0 1-2.25 0 1.56 1.56 0 0 1-1.06-1.75c.18-.66 2.12-2.25.61-2.29-1-.07-2.14 1.69-2.3 2.41a2.47 2.47 0 0 0 1.41 3.09z"/><path fill="#bf764c" d="M374 118.11c-4.3-.15-10.06 1.88-13.86 2.43a28.6 28.6 0 0 0 3.05.68c.42 3.8 1.92 7.28 5.38 9.28a10.2 10.2 0 0 0 2.21.94 10.47 10.47 0 0 0 3.3.49 10.82 10.82 0 0 0 2.36-.3 10.67 10.67 0 0 0 8.15-10.54c1.05-.16 1.95-.08 3-.25-3.04-.61-9.31-2.58-13.59-2.73zm-.24 8.73a9 9 0 0 1-8.86-5.76 51 51 0 0 1 18 .18 10.69 10.69 0 0 1-9.15 5.58z"/><path fill="#fff" d="M382.92 121.26a51 51 0 0 0-18-.18 9 9 0 0 0 8.86 5.76 10.69 10.69 0 0 0 9.14-5.58zm-19.35-24.55c-1.38-.85-2.69-1.82-4.07-2.7a3.34 3.34 0 0 1 .11.84 3.7 3.7 0 1 1-7.39 0v-.43a1.2 1.2 0 0 0 2.23-.63 1.21 1.21 0 0 0-1.21-1.21 1.07 1.07 0 0 0-.31.06 3.66 3.66 0 0 1 1-.93c-3.71-.52-5.58 1.67-6.6 2.05 6.4 7 11.63 5.6 16.74 3.38zm28.16-4.42a3.69 3.69 0 1 1-4.14 4.71 1.45 1.45 0 0 0 .3.06 1.22 1.22 0 0 0 0-2.43.79.79 0 0 0-.22.05 3.3 3.3 0 0 1 .19-.43c-1.76 1.14-3.41 2.42-5.27 3.39 8.39 3.75 14.33 2.76 17.51-3.61-1.1-.32-3.41-3.34-8.37-1.74z"/><path fill="#ddbf94" d="M370.35 234.93l-.37 1.71-6.47 16.41-12.76-5.66a10.24 10.24 0 0 1 3-6l-23.05-2.91.82-6.35 1.27-9.82 8.87-9.61c-.09-.33-.19-.65-.27-1l-5.63-.44s-10.16 5.33-12 8.78a6.75 6.75 0 0 0-.68 2.62c-.33 3.51.72 8.07-1.63 10.78a54.84 54.84 0 0 1-6.48 5.85c-2.27 1.8-4.15 3.17-4.15 3.17s1.39 17.79 3.93 20.79c.76.91 2.71 1.81 5 2.63a97.15 97.15 0 0 0 10.65 2.89 73.27 73.27 0 0 0 12.87 1c2.17.13 4.28.26 5.85.4a6.06 6.06 0 0 0 1.13 0c4.36-.42 5.84-5.57 5.84-5.57l6.25-.46a9.75 9.75 0 0 0 1.19-11.14s7.15.7 7.85-1.85 2.79-6.47 2.54-9.93c-.13-1.74-1.99-4.22-3.57-6.29z"/><path fill="#d13585" d="M362.73 228.37h-.75a21.81 21.81 0 0 1-12.42-4.37 22.39 22.39 0 0 1-7.39-9.78c-.18-.48-.36-1-.52-1.47l-8.87 9.61 9.55 3.67 7.3 2.81 20.37 7.8.37-1.71 1.87-8.72a21.88 21.88 0 0 1-9.51 2.16z"/><path fill="#bf1f6a" d="M349.63 228.8l-7.3-2.81-9.55-3.67-1.27 9.82-.82 6.35.22.1 11.66 5.17 7.35 3.26 13.59 6.03 6.47-16.41-20.35-7.84z"/><path fill="#959599" d="M372.49 189.3c-1.4.2-2.81.41-4.25.6a21.22 21.22 0 0 1 2.36 3.29c.15.25.29.5.43.75 1.07-.16 2-.25 2.73-.32l1.66-.14a34.24 34.24 0 0 0-2.9-4.18z"/><path fill="#959599" d="M362.73 183.78a21.84 21.84 0 0 0-13.73 4.85l-.55.45a22.33 22.33 0 0 0-7.79 17v.79a23.19 23.19 0 0 0 1.43 2.48c.37.55.76 1.09 1.17 1.6.28.34.56.68.85 1a22.78 22.78 0 0 0 2.8 2.58 6 6 0 0 1 .56-.57 4 4 0 0 1 .45-.37c-.18-.41-.35-.83-.5-1.23a29.34 29.34 0 0 1-1.31-4.5c0-.12-.06-.24-.09-.37-.61.62-1.21 1.26-1.79 1.91a20 20 0 0 1 1.67-2.52 27.27 27.27 0 0 1-.41-6.44l-2.32 1.6c.76-.88 1.54-1.71 2.37-2.52a21.61 21.61 0 0 1 .75-4.07v3.34c.9-.86 1.84-1.67 2.81-2.45s1.82-1.4 2.77-2a34 34 0 0 1-.06-3.64c0-.48 0-1 .06-1.45.08.54.17 1.07.26 1.6.17 1 .35 2 .56 3 .87-.55 1.77-1 2.68-1.51a33.44 33.44 0 0 1 3.47-1.52 51.94 51.94 0 0 0-2.47-4.36 27.17 27.17 0 0 1 3.22 4.1c.79-.27 1.59-.5 2.39-.71a34.24 34.24 0 0 1 4.15-.83 19.14 19.14 0 0 0-5.58-4.29 16 16 0 0 1 6.85 4.18 41 41 0 0 1 4.7-.19 34.71 34.71 0 0 0-2-2.28.19.19 0 0 1-.12.13c-.06 0-.13 0-.19-.35v-.13c-.09-.09-.17-.19-.26-.29l.27.21c0-.13.13-.13.18-.14s.11.06.16.35a28.26 28.26 0 0 1 3 2.5c.77 0 1.55.08 2.32.17l-1.91.23a26.42 26.42 0 0 1 3.33 4.19l.1.15h2.2l-2 .4a23.12 23.12 0 0 1 2.59 6 22.83 22.83 0 0 1 .51 2.32 5.15 5.15 0 0 1 1.51.21 21.52 21.52 0 0 0 .61-4v-2.28a23.7 23.7 0 0 0-1.91-3.18 22 22 0 0 0-17.76-9.15z"/><path fill="#959599" d="M367 190.19c-1 .2-2 .44-3 .7-1.21.32-2.42.68-3.6 1.09a39.32 39.32 0 0 1 1.85 3.52l.21.45.45-.14a52.72 52.72 0 0 1 6.3-1.57h.31c-.25-.52-.54-1-.82-1.51a25.18 25.18 0 0 0-1.66-2.54zm-14.28 10.36c-.3-1.54-.54-3-.72-4.58-1 .6-1.94 1.19-2.86 1.81s-1.85 1.29-2.87 2h.05a36.55 36.55 0 0 0 .76 5.61v-.07c.68-.74 1.4-1.43 2.15-2.1a31.53 31.53 0 0 1 3.49-2.67zm20.4 13.21a57.23 57.23 0 0 0-.65-9.15c-2.14.66-4.26 1.36-6.38 2.1a62.72 62.72 0 0 1 1.27 8.07c0 .32.06.64.09 1l1.33-.45c1.45-.46 2.9-.93 4.34-1.44zm11.49-10.46a2.51 2.51 0 0 0 0-.27 2.51 2.51 0 0 1 0 .27zm-.3-1.83l-.06-.28zm.26 1.53c-.07-.53-.15-1.05-.26-1.56.11.56.19 1.07.26 1.56z"/><path fill="#959599" d="M384.61 203.3c.07.58.12 1.16.15 1.75A22.08 22.08 0 0 1 363.58 228a24.72 24.72 0 0 1-2.59 0 22.08 22.08 0 0 1-18.82-14c-.17-.45-.34-.9-.48-1.36-.1-.31-.19-.62-.28-.94-.14-.52-.27-1-.37-1.57.1.53.21 1.05.34 1.57.08.33.18.65.27 1 .16.5.34 1 .52 1.47a22.39 22.39 0 0 0 7.39 9.78 21.81 21.81 0 0 0 12.44 4.4h.75a21.88 21.88 0 0 0 9.49-2.16 22.31 22.31 0 0 0 12.58-20.14 21.12 21.12 0 0 0-.21-2.75z"/><path fill="#959599" d="M380.37 202.51a23.74 23.74 0 0 1 .21 3.58 22.17 22.17 0 0 0 1.24-3.6 5 5 0 0 0-1.45.02zm-25.93-1.26c.78 2.86 1.45 5 2.22 7.31 2.23-1 4.78-2 7.57-3-.7-2.62-1.42-5-2.39-7.7a53.73 53.73 0 0 0-7.4 3.39zm17.83 2.01h.18c-.2-1.14-.47-2.27-.78-3.38a35.67 35.67 0 0 0-1.55-4.5c-1.58.37-3.37.88-5.08 1.41l-1.89.63c3.98 9.58-.07 7.97 9.12 5.84zm6.02-2.47a25.84 25.84 0 0 0-2.58-6.66c-1.39.29-2.78.58-4.18.9a32.84 32.84 0 0 1 2 5.7c.18.72.34 1.46.47 2.19a40.75 40.75 0 0 1 4.67-.69c-.14-.49-.26-.96-.38-1.44zm-3.84 12.53l1.51-.54a22 22 0 0 0 3-3.68 27.61 27.61 0 0 0-.28-6.16c-1.8.37-3.29.83-4.59 1.22.09 1 .31 9.25.31 9.25zm8.03-17.19a.31.31 0 0 0 0 .1.37.37 0 0 1 0-.11zm.05.1c.27.56.51 1.12.74 1.7a23.08 23.08 0 0 1 1 3.26 23.72 23.72 0 0 0-1-3.27c-.22-.57-.47-1.14-.74-1.69zm-25.21-3.03a44.18 44.18 0 0 0-4.4 2.22c.53 2.41.85 3.63 1 4.35a40.09 40.09 0 0 1 7.21-3.37c-.22-.6-.45-1.17-.68-1.72-.34-.83-.69-1.61-1-2.35-.72.27-1.45.56-2.13.87zm-7.85 20.08a38.41 38.41 0 0 0 2 4 22.17 22.17 0 0 0 4.61 1.49c.88-.18 1.76-.37 2.63-.59a75 75 0 0 1-3.17-7.59c-1.87.75-3.94 1.65-5.77 2.59zm17.2 4.45v-.1q-2.91.92-5.9 1.54a21.78 21.78 0 0 0 6-.92c-.05-.17-.08-.35-.1-.52zm-6.84.13c2.42-.6 4.4-1.2 6.51-1.86 0-.17-.12-.75-.29-1.69-.27-1.48-.75-3.88-1.55-7.12-2.5.91-4.88 1.81-7.5 2.81l.41 1.2c.74 2.19 1.58 4.58 2.38 6.7zm7.9.07a22 22 0 0 0 3.69-1.68c.46-.27.91-.55 1.35-.85-.58.25-1.16.48-1.75.7-1.1.43-2.21.83-3.32 1.2.02.21.02.42.03.63zm-18.87-6.17h.06a7.55 7.55 0 0 1 .26.81l.15-.11h.05a41.48 41.48 0 0 1 4.44-2.55c.41-.21.82-.44 1.24-.64-.85-2.55-1.51-5-2-7.23a35.91 35.91 0 0 0-3.78 2.57c-.7.55-1.39 1.11-2.05 1.71.1.45.24.89.35 1.33a39.61 39.61 0 0 0 1.28 4.11zm-1.22 2.65a4.87 4.87 0 0 0-.43.33l.69.5c.41.28.83.55 1.25.81-.35-.65-.68-1.3-1-2l-.43.26z"/><path fill="#666" d="M384.76 205.05a22.19 22.19 0 0 0-1.49-7.12c-.24-.62-.5-1.22-.79-1.81v2.29a21.52 21.52 0 0 1-.61 4 1.66 1.66 0 0 1 .21.06 1.5 1.5 0 0 0-.22 0 22.17 22.17 0 0 1-1.24 3.6 24.26 24.26 0 0 1-.54 5 17.19 17.19 0 0 0 1.92-1 12 12 0 0 1-2.08 1.67 22.75 22.75 0 0 1-3.12 7.35 33.1 33.1 0 0 0 1.83-6.56 43.44 43.44 0 0 1-4.19 2.14h-.09a22 22 0 0 1-.32 2.42 19.79 19.79 0 0 1-2.08 5.76 25.71 25.71 0 0 0 1.2-6.07c0-.54.07-1.08.08-1.62l-.42.16c-.44.3-.89.58-1.35.85a22 22 0 0 1-3.69 1.68 32.44 32.44 0 0 1-.33 7.43 56.6 56.6 0 0 0-.66-7.11 21.78 21.78 0 0 1-6 .92c-.14 0-.27.07-.41.09a34.83 34.83 0 0 0 2.43 5.39c-.84-.44-2.93-4.34-3.39-5.23a34.19 34.19 0 0 1-6.14.63 26 26 0 0 0 4.81 5.28 18.42 18.42 0 0 1-6.38-5.25 6.71 6.71 0 0 1-2.21-.5l-.27-.12c-.16-.08-.33-.15-.49-.24l.45.11.3.07a7.16 7.16 0 0 0 1.79.11 30.9 30.9 0 0 1-1.83-2.82l-.29-.52c-.42-.26-.84-.53-1.25-.81l-.69-.5A5.83 5.83 0 0 0 346 216a6.13 6.13 0 0 1 1-1.45 22.78 22.78 0 0 1-2.8-2.58c-.29-.32-.57-.66-.85-1-.41-.51-.8-1.05-1.17-1.6a23.19 23.19 0 0 1-1.43-2.48v-.06a21.21 21.21 0 0 0 .25 2.54l.12.73v.09c.1.53.23 1.05.37 1.57.09.32.18.63.28.94.14.46.31.91.48 1.36A22.08 22.08 0 0 0 361 227.93a24.72 24.72 0 0 0 2.59 0A22.08 22.08 0 0 0 384.77 205z"/><path fill="#666" d="M379 209.1a22 22 0 0 1-3 3.68c.91-.33 1.74-.64 2.71-1 .1-.87.19-1.78.29-2.68zm-26.32 10.18h.06c1.11-.14 2.21-.33 3.31-.55a22.17 22.17 0 0 1-4.61-1.49c.35.63.72 1.25 1.12 1.86z"/><path fill="#280415" d="M351.68 89.36c-2.57.43-4.69 3.82-4.4 4.45h.12c1-.38 2.89-2.57 6.6-2.05a3.75 3.75 0 0 1 1.56-.52h.36A3.68 3.68 0 0 1 359.1 93a3.49 3.49 0 0 1 .4 1c1.38.88 2.69 1.85 4.07 2.7.41.25.81.49 1.23.71-2.8-2.78-9.21-8.71-13.12-8.05z"/><path fill="#280415" d="M359.5 94a3.49 3.49 0 0 0-.4-1 3.68 3.68 0 0 0-3.18-1.85h-.36a3.75 3.75 0 0 0-1.56.52 3.66 3.66 0 0 0-1 .93 1.07 1.07 0 0 1 .31-.06 1.22 1.22 0 0 1 0 2.43 1.22 1.22 0 0 1-1-.59v.43a3.7 3.7 0 1 0 7.39 0 3.34 3.34 0 0 0-.2-.81zm36.21-4.45c-3.92-.65-10.33 5.27-13.12 8.06 1.86-1 3.51-2.25 5.27-3.39a3.63 3.63 0 0 1 1.13-1.3 3.09 3.09 0 0 1 .71-.4 3.57 3.57 0 0 1 1.42-.29 4.07 4.07 0 0 1 .61.06c5-1.6 7.24 1.42 8.37 1.71.31-.63-1.81-4-4.39-4.45z"/><path fill="#280415" d="M391.73 92.29a4.07 4.07 0 0 0-.61-.06 3.57 3.57 0 0 0-1.42.29c-.24.12-.47.26-.71.4a3.63 3.63 0 0 0-1.13 1.3 3.3 3.3 0 0 0-.19.43.79.79 0 0 1 .22-.05 1.22 1.22 0 0 1 0 2.43 1.45 1.45 0 0 1-.3-.06 3.69 3.69 0 1 0 4.14-4.68z"/><path fill="#393a3c" d="M370.19 186.19c-.05-.29-.09-.36-.16-.35s-.15 0-.18.14l.34.25zm-.35 0c.06.35.13.36.19.35a.19.19 0 0 0 .12-.13l-.31-.35zm-.26-.42c.09.1.17.2.26.29a.19.19 0 0 1 0-.08z"/><path fill="#393a3c" d="M380.58 206.09a23.74 23.74 0 0 0-.21-3.58 5 5 0 0 1 1.45 0 1.5 1.5 0 0 1 .22 0 1.66 1.66 0 0 0-.21-.06 5.15 5.15 0 0 0-1.51-.21 22.83 22.83 0 0 0-.51-2.32 23.12 23.12 0 0 0-2.59-6l2-.4H377l-.1-.15a26.42 26.42 0 0 0-3.33-4.19l1.91-.23c-.77-.09-1.55-.14-2.32-.17a28.26 28.26 0 0 0-3-2.5.6.6 0 0 1 0 .18c.69.75 1.35 1.51 2 2.28a41 41 0 0 0-4.7.19 16 16 0 0 0-6.85-4.18 19.14 19.14 0 0 1 5.58 4.29 34.24 34.24 0 0 0-4.15.83c-.8.21-1.6.44-2.39.71a27.17 27.17 0 0 0-3.22-4.1 51.94 51.94 0 0 1 2.47 4.36 33.44 33.44 0 0 0-3.47 1.52c-.91.46-1.81 1-2.68 1.51-.21-1-.39-2-.56-3-.09-.53-.18-1.06-.26-1.6 0 .49 0 1-.06 1.45a34 34 0 0 0 .06 3.64c-.95.64-1.87 1.32-2.77 2s-1.91 1.59-2.81 2.45v-3.34a21.61 21.61 0 0 0-.75 4.07c-.83.81-1.61 1.64-2.37 2.52l2.32-1.6a27.27 27.27 0 0 0 .41 6.44 20 20 0 0 0-1.67 2.52c.58-.65 1.18-1.29 1.79-1.91 0 .13.07.25.09.37a29.34 29.34 0 0 0 1.31 4.5c.15.4.32.82.5 1.23a4 4 0 0 0-.45.37 6 6 0 0 0-.56.57 6.13 6.13 0 0 0-1 1.45 5.83 5.83 0 0 1 1.25-1.23 4.87 4.87 0 0 1 .43-.33l.09-.07.43-.26c.31.67.64 1.32 1 2l.29.52a30.9 30.9 0 0 0 1.83 2.82 7.16 7.16 0 0 1-1.79-.11l-.3-.07-.45-.11c.16.09.33.16.49.24l.27.12a6.71 6.71 0 0 0 2.21.5 18.42 18.42 0 0 0 6.36 5.37 26 26 0 0 1-4.81-5.28 34.19 34.19 0 0 0 6.14-.63c.46.89 2.55 4.79 3.39 5.23a34.83 34.83 0 0 1-2.43-5.39c.14 0 .27-.06.41-.09q3-.63 5.9-1.54v.1c0 .17.05.35.07.52a56.6 56.6 0 0 1 .66 7.11 32.44 32.44 0 0 0 .33-7.43v-.63c1.11-.37 2.22-.77 3.32-1.2.59-.22 1.17-.45 1.75-.7l.42-.16c0 .54 0 1.08-.08 1.62a25.71 25.71 0 0 1-1.2 6.07 19.79 19.79 0 0 0 2.08-5.76 22 22 0 0 0 .32-2.42h.09a43.44 43.44 0 0 0 4.19-2.14 33.1 33.1 0 0 1-1.83 6.56 22.75 22.75 0 0 0 3.12-7.35 12 12 0 0 0 2.08-1.67 17.19 17.19 0 0 1-1.92 1 24.26 24.26 0 0 0 .5-5.12zm-2.29-5.3c.12.48.24 1 .32 1.44a40.75 40.75 0 0 0-4.67.69c-.13-.73-.29-1.47-.47-2.19a32.84 32.84 0 0 0-2-5.7c1.4-.32 2.79-.61 4.18-.9a25.84 25.84 0 0 1 2.64 6.66zm-5.84 2.47h-.18c-9.19 2.13-5.14 3.73-9.15-5.84l1.89-.63c1.71-.53 3.5-1 5.08-1.41a35.67 35.67 0 0 1 1.55 4.5c.36 1.12.61 2.24.81 3.38zm-8.25 2.34c-2.79 1-5.34 2-7.57 3-.77-2.29-1.44-4.45-2.22-7.31a53.73 53.73 0 0 1 7.37-3.35c1 2.61 1.72 5.06 2.42 7.66zm8.29-16.3a34.24 34.24 0 0 1 2.9 4.18l-1.66.14c-.75.07-1.66.16-2.73.32-.14-.25-.28-.5-.43-.75a21.22 21.22 0 0 0-2.36-3.29c1.47-.19 2.88-.4 4.28-.6zm-8.49 1.59c1-.26 2-.5 3-.7a25.18 25.18 0 0 1 1.66 2.54c.28.5.57 1 .82 1.51h-.31a52.72 52.72 0 0 0-6.3 1.57l-.45.14-.21-.45a39.32 39.32 0 0 0-1.85-3.52c1.24-.41 2.45-.77 3.64-1.09zm-6.7 2.31c.7-.31 1.41-.6 2.14-.87.34.74.69 1.52 1 2.35.23.55.46 1.12.68 1.72a40.09 40.09 0 0 0-7.21 3.37c-.19-.72-.51-1.94-1-4.35a44.18 44.18 0 0 1 4.41-2.22zm-8.18 4.58c.92-.62 1.84-1.21 2.86-1.81.18 1.59.42 3 .72 4.58a31.53 31.53 0 0 0-3.49 2.7c-.75.67-1.47 1.36-2.15 2.1v.07a36.55 36.55 0 0 1-.76-5.61h-.05c1.04-.74 1.97-1.4 2.89-2.03zm-.22 14h-.06a39.61 39.61 0 0 1-1.31-4.13c-.11-.44-.25-.88-.35-1.33.66-.6 1.35-1.16 2.05-1.71A35.91 35.91 0 0 1 353 202c.52 2.27 1.18 4.68 2 7.23-.42.2-.83.43-1.24.64a41.48 41.48 0 0 0-4.44 2.55h-.05l-.15.11a7.55 7.55 0 0 0-.2-.77zm3.82 7.52h-.06l-.12-.18c-.4-.61-.77-1.23-1.12-1.86a38.41 38.41 0 0 1-2-4l.27-.14c1.83-.94 3.9-1.84 5.77-2.59a75 75 0 0 0 3.17 7.59c-.87.22-1.75.41-2.63.59-1 .29-2.15.43-3.26.57zm7.09-1.42h-.05c-.8-2.12-1.64-4.51-2.38-6.7L357 210c2.63-1 5-1.88 7.51-2.79.8 3.24 1.28 5.64 1.55 7.12.17.94.26 1.52.29 1.69-2.12.64-4.1 1.24-6.52 1.84zm8.95-2.57l-1.33.45c0-.32-.07-.64-.09-1a62.72 62.72 0 0 0-1.27-8.07c2.12-.74 4.24-1.44 6.38-2.1a57.23 57.23 0 0 1 .65 9.15v.09c-1.42.53-2.87 1-4.32 1.46zm9.89-3.48c-1 .33-1.8.64-2.71 1l-1.51.54-.06.09s-.22-8.21-.31-9.25c1.3-.39 2.79-.85 4.59-1.22a27.61 27.61 0 0 1 .28 6.16c-.03.85-.12 1.76-.26 2.66z"/><path fill="#a4286a" d="M412.51 211.41a4.17 4.17 0 0 0 .68-2.95l-2-13.94 5.06 1.18.71 8.77 6.6-10.08-11.3-2.62a4.57 4.57 0 0 0-5.41 3.37L404 207.57a4.56 4.56 0 0 0 3.4 5.46l1 .23h.28a3.81 3.81 0 0 0 3.83-1.85zm16.33-15.73l-.81 1.24-9.54 14.37a17.3 17.3 0 0 1-2.81 3.66l12.1 2.81 2.26-9.92 1.57-6.91a4.54 4.54 0 0 0-2.77-5.25z"/><path fill="#77b227" d="M426.87 191h-.18l-2.34 3.62-4.74 7.33-3.21 5-.85-10.47-3.44-.8 1.89 12.71a5 5 0 0 1-.31 2.52 5.37 5.37 0 0 1-.51 1 4.52 4.52 0 0 1-4.26 2.19l-.62 2.93a6.48 6.48 0 0 0 4.86-.85 18.85 18.85 0 0 0 1.67-1.41 17.31 17.31 0 0 0 1.53-1.68 16.49 16.49 0 0 0 1.57-2.25l9.88-15v-.06l.24-.36 2.39-3.62z"/><path fill="#fff" d="M426.71 190.16l-.33-.08-2.81 4.31-6.57 10.08-.71-8.77-5.06-1.18 2 13.94a4.17 4.17 0 0 1-.68 2.95 3.81 3.81 0 0 1-3.88 1.85h-.33l-1 4.32.37.1a7.37 7.37 0 0 0 5.83-.81 19.21 19.21 0 0 0 5-5.58l9.46-14.37.81-1.24 2.9-4.36zm-13.59 26a6.48 6.48 0 0 1-4.86.85l.62-2.93a4.52 4.52 0 0 0 4.26-2.19 5.37 5.37 0 0 0 .51-1 5 5 0 0 0 .31-2.52l-1.85-12.79 3.44.8.85 10.47 3.21-5 4.74-7.33 2.34-3.62h.18l3.57.82-2.39 3.62-.24.36v.06l-9.88 15a16.49 16.49 0 0 1-1.57 2.25 17.31 17.31 0 0 1-1.53 1.68 18.85 18.85 0 0 1-1.71 1.47z"/><path fill="#fff" d="M60.46 180.19V199c11.62-.48 20.71-4.3 28.4-12.09s14.74-20.43 21.46-39.19l49.8-133.31H136L95.9 125.73 76 63.27H54l29.26 75.15a30.9 30.9 0 0 1 0 22.47c-3.01 7.63-8.33 16.61-22.8 19.3z" opacity=".3"/><circle cx="218.85" cy="65.05" r="52.5" fill="#fff" opacity=".3"/><circle cx="162.08" cy="164.5" r="34.25" fill="#fff" opacity=".3"/><circle cx="118.56" cy="239.22" r="20.65" fill="#fff" opacity=".3"/></svg>