<svg xmlns="http://www.w3.org/2000/svg" viewBox="0 0 500 500"><title>Intro_basic_SEO</title><path d="M419.62.4h-333a87,87,0,0,0-87,87V420.81A79.59,79.59,0,0,0,79.21,500.4H499.62V80.4A80,80,0,0,0,419.62.4Z" fill="#54b9dd"/><path d="M86.65.4a87,87,0,0,0-87,87V420.81A79.59,79.59,0,0,0,79.21,500.4H249.62V.4Z" fill="#98d5eb"/><polygon points="196.56 249.37 152.36 249.37 152.36 459.26 196.56 470.38 196.56 249.37" fill="#7b1e50"/><rect x="195.69" y="249.37" width="221.01" height="221.01" fill="#a4286a"/><path d="M403.86,457.54H208.53V262.21H403.86ZM216,450.07H396.39V269.68H216Z" fill="#c87ea6"/><g opacity="0.8"><path d="M278.58,413.15v13.59c8.42-.33,15-3.13,20.56-8.73,5.75-5.78,10.69-14.79,15.54-28.35l36-96.53H333.28l-29,80.6-14.43-45.2H273.88l21.18,54.4a22.32,22.32,0,0,1,0,16.28C292.91,404.73,289.08,411.22,278.58,413.15Z" fill="#fff"/></g><rect x="79.97" y="29" width="221.01" height="221.01" fill="#77b227"/><path d="M92.8,237.21V43L288.16,41.8V236Zm7.5-186.78V229.67l180.36-1.09V49.35Z" fill="#a1d968"/><polygon points="344.64 42.34 300.44 29 300.44 250.01 344.64 250.01 344.64 42.34" fill="#4f8a0a"/><path d="M209.57,170.62c-.52,0-1,0-1.54,0a52.29,52.29,0,1,1,53.79-50.75h0A52.36,52.36,0,0,1,209.57,170.62Zm0-92.43a40.14,40.14,0,0,0-1.15,80.26l1.18,0a40.14,40.14,0,0,0,1.15-80.26Z" fill="#fff"/><path d="M124.81,209.61a8.32,8.32,0,0,1-5.69-14.4l42.06-39.36A8.33,8.33,0,0,1,172.56,168L130.5,207.37A8.31,8.31,0,0,1,124.81,209.61Z" fill="#fff"/></svg>