<svg id="Layer_1" data-name="Layer 1" xmlns="http://www.w3.org/2000/svg" viewBox="0 0 295.25 315.4" role="img" aria-hidden="true" focusable="false"><defs><style>.cls-2{fill:#eab882}.cls-3{fill:#d38053}.cls-4{fill:#a62a6b}.cls-5{fill:#7d2051}.cls-6{fill:#010101}</style></defs><circle cx="164.06" cy="184.22" r="131.18" fill="#f0ecef"/><path class="cls-2" d="M193.33 346.14c.14-.44.28-.87.43-1.3-.14.43-.29.86-.43 1.3zm31.97 59.95a12.55 12.55 0 0 1 2.12.82c-.7-.28-1.42-.56-2.12-.82zm2.12.82a63.24 63.24 0 0 1 6 2.82c-2.66-1.14-4.56-2.14-6-2.82z" transform="translate(-134.5 -249.62)"/><path class="cls-2" d="M136.25 413.84c8.59-10.5 1.06-27.74 34.52-86.3 3-5.22 5.26-14.53 12.86-17.59 9.11-3.67 12.77-9.16 21.88-12.83 6.85-2.76 4-1.35 3.22-.49-1.49 1.68 2-1.3 5.72 7.14.37.85-2.87 1.62-4 5-.36 1.06-.5 1.14-1.23 1.33-4.71 1.2-6.52 6.88-4.2 10.05.69-1.43-.18-6 4.67-6.35-2 1.44-4.05 3.42-4 5.88-9.39 16.64-17.55 14-20 15-12.43 4.92 17.28 64.56-23 86.13 7.34-1.94 14.31-5.46 23.91-1.33-7.27-5.53-2.46-7.58-.85-10.89 2.16-2.92 2.29-11.71 2.6-22.62a104.66 104.66 0 0 1-1.09 20.31 54.89 54.89 0 0 1 38-.12c-5.19-1.21-15.44 48.34-20.14 53.91-3.8-1.41-23-8.58-35.17-14.12-21.52-9.8-35-25.75-35.45-28.31-.23-1.46.86-2.7 1.75-3.8zm41.62-99.12c-.05.1-8.86 19.59-.55 1.2.19-.43.37-.83.55-1.2z" transform="translate(-134.5 -249.62)"/><path class="cls-2" d="M214.57 305.59c-.45.18-2 1.5.24-.93.87 2.4.59 4.43-2 6.75-1.02-2.98 0-3.49 1.76-5.82zm4.34 23.84c-.29-.06-.36.05.35-.38-.12.13-.26.25-.35.38z" transform="translate(-134.5 -249.62)"/><path class="cls-3" d="M226 323.35c0 .39.34-.06-2.94 2.38zm-5.23 4.24c-2.3 2-3.12 2.52-2.18 1.77zm-6.2-22l-1.83 2.41c.5-1.27.83-2 1.83-2.41zm.53 11.75c-1.38-.07-.74 1.35-2.17-.5-.51-.67-1.9-3.2-.71-2.6-.55-2.32.1-6.7.2-4.74.12 2.46 3.69 10.77 8.66 9.87a7.74 7.74 0 0 1-3.25.22c-2.74-.4-2.36-.95-2.73-2.25zm5.98 2.03a7.17 7.17 0 0 0 1.43-.59 3.45 3.45 0 0 1-1.43.59z" transform="translate(-134.5 -249.62)"/><path class="cls-3" d="M215.55 318.91a4.09 4.09 0 0 0 .84 3.72c-3.37-1.27-3.66-3.5-2.47-4.77s1.34.03 1.63 1.05zm32.31 1.85c-.11.84-2.61 2.33-3.31 2.78a14 14 0 0 0 3.31-2.78zm-10 4.39c.21.12.44.1-.32 0 .29-.15.13-.15.32 0zm6.51-1.5a30.27 30.27 0 0 1-4.51 2.28c-2.55-1.55-.8.79 4.51-2.28z" transform="translate(-134.5 -249.62)"/><path class="cls-2" d="M227.14 326.71c.91.34 5.66.25 10.4-1.57 6.74 1 6.42 12.08 1 12.39-8.18.48-10.1 3.05-13.47 1.93-6.82-2.28-2.41-11.63 2.07-12.75z" transform="translate(-134.5 -249.62)"/><path class="cls-3" d="M212.22 314.24a5 5 0 0 0-2.54-.47c-4.86.36-4 5-4.67 6.35-2.32-3.16-.52-8.85 4.2-10.05 2.24-.57-.56-2.92 7.85-7.27a10.81 10.81 0 0 0-4.84 11.44zM197 426.76c6.79 1.78 17.91 1.65 21-5.2-3.7 11.09-9 26.86-12.86 37.68-2.87-.89-7.4-1.87-8.88-3.41 3.52-4.15 8.66-10.41 8.74-15.88s-2.93-11.16-8-13.19zm26.31-20.37c.13.18.15 0-.54 1.27.23-.45.36-.88.54-1.27z" transform="translate(-134.5 -249.62)"/><path class="cls-3" d="M183.64 336.13c2.26-3.64 4.21.57-2.24-3.3 10.5 4.56 18.51-2.9 24.31-13.18.06 1.81 1.24 3.12 2.62 4.36 9.66 8.63 10.92 4.91 12.44 3.58 8-7 3.87-2.44 6.1-1 .71.45-4.09 1-5.31 7.1a5.27 5.27 0 0 0 2.66 5.39c-7.4 5.79-14.69 2.46-25.68-4.1-14.67 22.18-7.38 66.28-12.77 73.55-1.61 3.31-6.42 5.36.85 10.89-9.6-4.13-16.57-.61-23.91 1.33 37.59-20.14 14.29-73.88 20.93-84.62z" transform="translate(-134.5 -249.62)"/><path class="cls-4" d="M238.82 461.1a82.23 82.23 0 0 1 9.26-12.1c-6.41 7.89-17.17 24.8-9.26 12.1z" transform="translate(-134.5 -249.62)"/><path class="cls-4" d="M223.9 405.62c31.36 13.6 26.45 13.2 42 8.33 18.87-5.9 37.14-.75 32.11-1.06-11.83-.73-29.07 49.31-35.44 66.87l-62.18-10.35c-.63 7.65 20.89-59.33 23.51-63.79z" transform="translate(-134.5 -249.62)"/><path class="cls-5" d="M215.51 429.88c8.74 13.91 32.1 11.24 35.71-4.77-8 32.53-8.23 20.07 9.51 9.68-25.37 25.81-22.47 41.75-28.28 44.5-3.48 1.66-13.64-3.76-26.29-7.68-3.3-1-4.89-1.61-4.77-2.2z" transform="translate(-134.5 -249.62)"/><path class="cls-2" d="M236.81 322.47a3 3 0 0 0 .92 2.59 25.48 25.48 0 0 1-9.51 1.8c-2.47-.02-.61.26 8.59-4.39z" transform="translate(-134.5 -249.62)"/><path class="cls-2" d="M209.68 313.77c3.36-.25 1 1.37 4.24 4.09-1.19 1.27-.9 3.5 2.47 4.77a4 4 0 0 1-.84-3.72c2.66 1.25 5.77.74 7-.13-4.38 2.46-8.08-2.64-9.7-7.37 2.59-2.32 2.87-4.35 2-6.75 1.19-1.31 4.4-3.34-.2-.49a24.18 24.18 0 0 0-2.93-5.17c-1.27-1.71-5.22-.83-1.66-3.47 1.76-1.3 8.08-2.63 8.81-2.58a4.08 4.08 0 0 1 3.07 1.53c4.32-1.59 9.29-1.86 11.78 1.95 4.24-3.59 9.38 2.15 7.77 6.68-1.44 4.05 1.85.16 7.05 14.62 1.28 3.55-5.07 7-8.77 7.59-7.69 1.25 18.76-8.93-2.23-.46-3.4 2.67-5.28 1.49-10.44 1.81-1.08-.48-1-1.92-1.05-3.09-.06-1.85-6.82 8.51-10.32 5.44-8.73-4.37-13.94-9.54-6.05-15.25z" transform="translate(-134.5 -249.62)"/><path class="cls-2" d="M237.23 319.53c-.38.94-.27.44 0-2.58a4.14 4.14 0 0 1 0 2.58z" transform="translate(-134.5 -249.62)"/><path class="cls-3" d="M235.07 306.76a16.17 16.17 0 0 1-.36-1.76c.13.59.29 1.17.36 1.76z" transform="translate(-134.5 -249.62)"/><path class="cls-4" d="M370.75 416.61c7.76 3.8 5.1 3.25 3.47 3.59q-1.86-1.8-3.47-3.59zm-68.98-3.32l.78-.17a1.9 1.9 0 0 1-.78.17z" transform="translate(-134.5 -249.62)"/><path class="cls-4" d="M229.68 512c-1.23-17.16-10-35.46 31.05-77.22 8.88-9 13.84-13.86 31.69-19.12-6.35 7.45.49 40.2 3.42 38.36 25.85-16.18 70.31-19.83 79.4-32.84-6.71-6.25 28.46 5.47 39.7 16.24 3.57 3.42 8.13 12.76 12.22 22.43-8.54 42.42-41.23 74.65-42.5 72-3.64-7.7-7.17-15.66-6.64-14.48-11.88 12.28-19.34 19.52-23.82 35.31a131.08 131.08 0 0 1-125.42-7.83c.03-16.25 1.22-27.85.9-32.85zm145.79-.38c-.1 0 0-.08 1.06 2.38-.36-.8-.72-1.59-1.06-2.37z" transform="translate(-134.5 -249.62)"/><path class="cls-5" d="M376.45 517.41c-5.64 7.53-33.05 17.05-44.29 27a280.65 280.65 0 0 0 35.06-36.66 203.76 203.76 0 0 1-49.55 9.78l47.16-13.12q-1-8.54-2.05-17.08c3.39 4.5 11.79 22.08 13.67 30.08zm-125.11-18.16c12.41-1.15 45.9 6.44 50.79 17-18.32-12.22-51.08-16.82-54.56.56.21-1.03-12.8-16.04 3.77-17.56z" transform="translate(-134.5 -249.62)"/><path class="cls-2" d="M305.36 405.32zM362.41 366c.59 0 .52-.25-.05 1.56-1.48 2.35-.69 1.5.05-1.56zm-56.81 38.31c0 .16-.07.31-.11.46.04-.15.08-.3.11-.46zm69.64 16.88c-9.1 13-53.53 16.65-79.4 32.84-2.15 1.35-8.74-21.75-4.69-36.09 1.9-6.71 10.2-4.64 10.62-4.65 1 0 1.47-.65 1.83-1.66.69-1.92 1.53-5.37 1.49-5.22 1.23 4.08 1.67 6.6 3.48 7.5 6.49 3.24 37.86-9.4 52.25-41-.61 2.53-1.05 5.26 1 3.65-3.82 16.54-5.91 26.63 13.42 44.63z" transform="translate(-134.5 -249.62)"/><path class="cls-3" d="M322.1 398.22c20.6-5.61 33.72-13 37.72-32.87 3.26 1.48 3.21-1.56 1 7.59-14.39 31.57-45.76 44.21-52.25 41-2.14-1.07-3.53-7.31-3.37-8 2.2-8.84-2.2-2.53 16.9-7.72z" transform="translate(-134.5 -249.62)"/><path class="cls-2" d="M289 315.88c3-9.43 7.64-19.55 11.73-25.21a15.61 15.61 0 0 0 8.82-3.17c7.48 8.26 15.46 4.84 16.66 0 1.67 5.91 9.61 9 14.83 5.74a6.31 6.31 0 0 1-4.78-2.94 18.5 18.5 0 0 0 15.21-2.12c6-.81 4.65-.94 1.31 4.27-7.29 11.36-4.24 15 4.14 23.72 10.13 10.53 2.13 15.48-1.2 18.55-6.71 6.18-1.75 13 5.64 12.35-4.87 8.66-5.24 9.2-5.4 10.7-.35 3.25 1 6.29 3.86 7.59-4 19.73-16.77 27.17-37.72 32.87-6.48 1.76-13.44 3.32-20 1.88s-12.87-6.75-13.24-13.51c-.22-4.11 1.68-10 1.26-14.06-.69-6.63-5.95-5-6.25-21a112.48 112.48 0 0 1 5.11-35.46" transform="translate(-134.5 -249.62)"/><path class="cls-3" d="M308.12 316.63c.14 1.9-.33 11.51-1.44 14.95-2.28 7.1-7.12 6.59-10.66 8.13-4.36 1.89-5.65 6.65 1.58 8.75 3.85 1.12 7.91 2.24 11.82 1.32-1.4 1.63-3.82 1.84-6 1.85-14.72 0-15.5-9-13.13-12.26 3.67-5.05 12.38-1.3 15.58-12.8.79-2.76-.13-8.57 2.25-9.94z" transform="translate(-134.5 -249.62)"/><path class="cls-6" d="M319.36 361.87c10.66-3 13.85-7.31 14.77-5.85 1.15 1.83-18.21 12.61-29.48 6.84 5.03.06 9.69.44 14.71-.99zm24.15-38.69c-1.74 0-7-6-8.82-7.15-3.63-2.19-7.62-1.07-11.77-2 .5-1.33 3.51-5.42 4.17-5.28 3.18.68 9.21.3 9.21.3s13.17 14.26 7.21 14.13zm-39.36-15.85c5.09.44 3.23 1.61 2.29 5.51a18.92 18.92 0 0 0-17.64 3.35c5.32-8.48 9.64-9.35 15.35-8.86z" transform="translate(-134.5 -249.62)"/><path d="M338.36 335.07c-4.57 6.52-15.3 4.24-18.45-1.76.91-5.75 16.98-9.31 18.45 1.76zm-9.88 1.69c6.1 3.06 8.19-7.14 1.86-7.14-4.07 0-5.75 5.19-1.86 7.14zm-25.57-4.57c-2.38 3.65-14 2.53-14.29-3.35 4.2-9.42 16-4.7 14.29 3.35zm-8.48-1.63a3.58 3.58 0 0 0 5.3 1.29c2.29-1.88 1-6.46-2.58-6a3.57 3.57 0 0 0-2.72 4.71z" transform="translate(-134.5 -249.62)" fill="#fff"/><path class="cls-6" d="M303 329.11c-1.76-6.07-10.8-8.36-14.41-.27-1.06 2.38-.95-6.79 5.31-7.24 3.92-.28 10.16.1 9.48 10a10.35 10.35 0 0 0-.38-2.49zm27.34.51c6.33 0 4.23 10.2-1.86 7.14-3.88-1.95-2.22-7.14 1.86-7.14z" transform="translate(-134.5 -249.62)"/><path class="cls-6" d="M297.15 325.84c3.6-.45 4.86 4.13 2.58 6a3.41 3.41 0 1 1-2.58-6zm63.67 47.1c2.55-10.52.33-4.65 9.77-9-5.12 9-12.18 18.99-9.77 9zm-60.09-82.27c-5.47 7.58-6.11 13.42-5.51 9.56a51.62 51.62 0 0 1 2.44-9.7 16.62 16.62 0 0 0 3.07.14z" transform="translate(-134.5 -249.62)"/><path class="cls-6" d="M292.58 275.81c-3.42-12.58 5.27-13.54 7.57-11.19a10.52 10.52 0 0 1 16.3-10c3.1-5.34 12.47-8.78 24.25 2.14 1.07-7.72 16.61-5.31 18.93 10.47 5.8 1.09 8.67 4.25 10 6.79 5.7.55 24.27 24.22 25.12 32.09.51 4.69-2 9.11-3.3 13.64-.84 2.9-1.23 6-2.75 8.59-4 6.78 0 3.56-5 2.72-4.44-.76-16.29 5.15-22.41 16-3.65.32-7.37-.89-8.66-5.16-1.72-5.69 6.59-8.61 8.54-13.18 4.08-9.57-10.78-15-12.37-23.84-1-5.79 3.41-11.93 7.06-17.09a42.73 42.73 0 0 0-4.46.38l.45-.32a17.63 17.63 0 0 1-15.66 2.44 6.31 6.31 0 0 0 4.78 2.94c-5.22 3.24-13.16.17-14.83-5.74-1.21 4.85-9.14 8.31-16.66 0a16.1 16.1 0 0 1-18.07.79 11.32 11.32 0 0 0 5.6-4.35c-3.18.61-6.36-1.63-7.88-4.5s-1.74-6.21-1.89-9.45a9.69 9.69 0 0 0 5.34 5.83zm77.42 3.78l.07-.11zm.49-3.51v.08c0-.37-.07-.81-.09-1.35.08.51.1.91.12 1.27zM356 283.79a18.3 18.3 0 0 1-4.06 4 16.58 16.58 0 0 0 4.06-4zm.58-.85c-.07.12-.15.23-.23.35.08-.12.16-.23.23-.35z" transform="translate(-134.5 -249.62)"/><path class="cls-6" d="M332.26 325.61c3.72.6 7.37 4.53 6.58 9-1-2.29-1.84-4.94-5.07-6.11-4.27-1.56-11.28-.4-13.74 4.35-1.39 2.66-.03-9.21 12.23-7.24z" transform="translate(-134.5 -249.62)"/><path class="cls-2" d="M356 357.76c.16-1.5.53-2 5.4-10.7 6.11-10.84 18-16.75 22.41-16 7.46 1.27 15.8 21.58-15.33 33.82-8.36 3.29-13.16-1.12-12.48-7.12z" transform="translate(-134.5 -249.62)"/><path class="cls-3" d="M333.78 355.5c-2.11-2.9-10.27 2-16.4-5.73-.79-1-1.4-4-3.31-3.7 5.06-.89 6.62 8.27 14.24 6.31 3.12-.8 9-5.14 10 11.68a58.26 58.26 0 0 0-4.53-8.56zm33.52-5.5c-4.31-10.34 20.92-21.24 19.59-7-.3 3.22-2.28 8.84-5.3 9.81 2.45-5.37-.28-12.43-1.58-13.5-2-1.6-4.5.76-7.39 2.91.16 1.64 2.51 2.4 2.65 4.05.12 1.32-1.07 2.95-5.06 2a7.87 7.87 0 0 0 2.17 5 5.21 5.21 0 0 1-5.08-3.27zM237 320a3.62 3.62 0 0 0 .27-3.06c-4.44-17.68-1.94-7.91 1.07-3.12 2.39 3.79 3.24 6.31-.66 8.22-23.04 11.3-1.88-.23-.68-2.04z" transform="translate(-134.5 -249.62)"/><path class="cls-3" d="M237.5 324.86c2.4-1 6.47-3.9 6.49-5.61 0-1.15-4.89-8.09-3.9-14.36 1.08 1.71 6.52 12.19 6.39 14.21-.23 3.9-9.08 5.8-8.98 5.76zm-13.21-25.34c.15 1.87 6.75 14.13 6.75 18.83-.36 1.09-4.49 2.17-4.7 3.3 6.82-5.18-3.51-20.43-2.05-22.13z" transform="translate(-134.5 -249.62)"/></svg>