<svg id="Layer_1" data-name="Layer 1" xmlns="http://www.w3.org/2000/svg" viewBox="0 0 262.37 295.62" role="img" aria-hidden="true" focusable="false"><defs><style>.cls-2{fill:#d6a57c}.cls-3{fill:#a62a6b}.cls-4{fill:#78385b}.cls-5{fill:#efd4b9}.cls-7{fill:#010101}</style></defs><circle cx="131.18" cy="164.43" r="131.18" fill="#f0ecef"/><path class="cls-2" d="M229.58 574a131.56 131.56 0 0 1-24.74-3.2c-1.91-16-3.3-33-4.21-48.2l32.12 1.49c-.75 16.19-1.75 33.33-3.17 49.91z" transform="translate(-102.97 -278.43)"/><path class="cls-3" d="M228.17 444.86c3.37-2.11 8.68-29.69 45.28-45.18-4.8-1.37-12.76-3.91-20.57-6.8 13.62-2.21 27.92-.28 33.28 9.63 26.12 7.76 36.3 11.21 52.94 43.05 9.15 17.52 10.39 30.84 12 56.75A130.61 130.61 0 0 1 334.77 527c-63.47-7.4-121.55 6.09-106.6-82.14zm-29.04 12.78q.06 1 .21 2-.15-.95-.21-2zm.48-7.92zm-.54 5.28v2.16c0-.75-.02-1.47 0-2.16zm14-35.92c.1 0-.45.48-2.68 4.07q1.29-2.07 2.68-4.07zm-13.93 34.85s-.06.8-.07 1c.14-4.71.13-.55.07-1zM210 423.72a82.752 82.752 0 0 0-3 5.32c1-1.79 2-3.57 3-5.32zm-6.1 11.88zm2.81-5.97q-1.38 2.67-2.55 5.36 1.17-2.69 2.55-5.36zm-3.89 8.64c-.33.88-.64 1.76-.94 2.63.3-.9.61-1.75.94-2.63zm-1.14 3.25zm-.8 2.6c-.24.85-.45 1.69-.65 2.52.2-.83.41-1.64.65-2.52zm-.78 3.13z" transform="translate(-102.97 -278.43)"/><path class="cls-4" d="M207.61 479.18a38.84 38.84 0 0 1-8.54-24.18c.14-4.76-.84 7.58 8.54 24.18zm109.86 54.37c.25-17.68-4.19-14.07 8.79-14.07h3.93c2.41-41.5-11.14-56.79-8-56.27 13.51 21.39 13.27 52.21 12.61 63.82a131.09 131.09 0 0 1-17.87 17.62c.29-3.76.49-7.48.54-11.1z" transform="translate(-102.97 -278.43)"/><path class="cls-4" d="M198.26 522.45c-1.28-17-3.16-58.53 3.25-86.77 2.78-12.23 7.94-11.38 11.57-16.6 3.55 1.09 6.38 2.06 7.28 2.92 3.58 3.44 3.51 25.54 7.81 22.86 0 .1-8.55 25.12 14.93 47.29 6.43 6.07 13 8.46 19.61 8.43-4.72-19.1-6.48-40.31.07-58.95a54.69 54.69 0 0 0 .82 20.94 52.42 52.42 0 0 1 9.22-19.49c-.54 80.2-.56 76.4-.46 76.4 13.37 0 8.34-.86 8.43 2 .4 13.23.43 30.76.46 43.83A130.72 130.72 0 0 1 238 574c1.72-18.43 2.21-33.81-.92-49.75z" transform="translate(-102.97 -278.43)"/><path class="cls-3" d="M199.14 453.93a28.16 28.16 0 0 0 9 16.72 77.79 77.79 0 0 1-.84-23.64c-.24 11.87 3.79 28.45 10.07 41.06 8.71 17.5 16.49 16.79 12.34 16.79-15.29-11.63-28.88-32.13-30.57-50.93z" transform="translate(-102.97 -278.43)"/><path class="cls-5" d="M218.13 377.39c7.85-4.58.15-3 9.44 1.82 0-.13 5.24 8.86 45.88 20.47-36.91 15.62-41.8 43.14-45.31 45.2-4.28 2.51-4.2-19.44-7.78-22.88-1.38-1.32-9.51-3.6-9.41-3.57 15.79-19.05 10.2-33.17 7.18-41.04z" transform="translate(-102.97 -278.43)"/><path class="cls-2" d="M208.78 378.94c2.49 1.47 5.88.48 9.35-1.55 3 7.87 8.61 22-7.18 41-4.85-1.48-9.85-2.85-13.45-4.56 11.79-12.16 11.07-21.75 11.28-34.89z" transform="translate(-102.97 -278.43)"/><path class="cls-5" d="M316.76 519.48c.1 0 0 0 .18 1.39-.05-.47-.12-.93-.18-1.39zm.72 13.41c0-2.66 0-5.27-.19-7.8.16 2.53.21 5.14.19 7.8z" transform="translate(-102.97 -278.43)"/><path class="cls-5" d="M317.48 532.89c0 3.89-.24 7.76-.58 11.76a130.67 130.67 0 0 1-35.65 20.68c0-14.22-.06-28.5-.38-40.81 1.2 1.48 7.55 2.15 36.61 8.37zm-.48-11.21c.1 1 .18 2 .25 3-.05-.99-.13-2-.25-3z" transform="translate(-102.97 -278.43)"/><path class="cls-2" d="M316.94 520.87a105.2 105.2 0 0 1 .54 12c0 .1-35.5-7-36.61-8.37v-4.84z" transform="translate(-102.97 -278.43)"/><path d="M169.26 241.05h.13" fill="none" stroke="#a62a6b" stroke-linecap="round" stroke-linejoin="round" stroke-width="0"/><path class="cls-3" d="M321.38 463.2c6.32 13.91 9.91 34.42 8.55 57.89-18.92 0-35-1.61-57.57-1.61 0-.1.49-83 .51-83.12 8.92-41.73 40.34 8.89 48.51 26.84z" transform="translate(-102.97 -278.43)"/><path class="cls-5" d="M161.69 359.63c-.18-.33-.2-.26 0-.26a1.09 1.09 0 0 0 0 .26z" transform="translate(-102.97 -278.43)"/><path class="cls-5" d="M125.62 363.05c-.43-6.63-1.17-17.78-.16-24.07 1.07-6.71 7.43-17 10.44-20.12 4.74 3.07 11 3.05 16.11.63 12.61 1.83 36-15.62 40.18-9.71 2.8 4-12.57 16.12-1.86 23.56 21 14.58 4.93 7.64 4.77 31.75 0 4.87 6.45 2.53 11.08 2.17-.77 4.27-1.17 9.45 2.6 11.68-.26 16.55.8 27.29-22.31 44.39-28.26 20.92-31.27-4.58-36.21-11.77-5.75-8.36-21.77-4.26-24.64-48.51z" transform="translate(-102.97 -278.43)"/><path class="cls-5" d="M164 364c-.17-.32-.19-.28 0-.23a.32.32 0 0 1 0 .23zm-34.65-4.12c.25-.06 0 0 1.1-.07.01.06.12.03-1.1.07z" transform="translate(-102.97 -278.43)"/><path class="cls-5" d="M162.63 363.39c-.67-.24.89-.32 1.27.38a13 13 0 0 1-1.27-.38zm-34.23-3.3c0 1.32.38 1.19-1 .06a5.27 5.27 0 0 0 1-.06zm35.45 3.44c-.15-.11-.07 0-.19-.22zm.31.3h-.1c-.06-.15-.15-.24.1 0z" transform="translate(-102.97 -278.43)"/><path class="cls-2" d="M166.51 351.51c-4.45 7.33 1.51 3.61-5.42 6.8.28-2.66 1.91-5.16 5.42-6.8zM164 363.68c.11.16 0 .13-.11.09-.12-.24-.3-.51.11-.09z" transform="translate(-102.97 -278.43)"/><path class="cls-2" d="M161.05 359.37c.59 0 .46-.07.64.26 0 1.59 1.91 3.58 2.05 3.83-.66-.33-2.61-.4.16.31.55 1 8.81 7.74 15.39-3.42 2.35-1.3 2.07-.76-2.54 7.21-4.75 8.23-15.52-.29-15.7-8.19zm-28.77-6.75a7.42 7.42 0 0 0-2 4.83 13.34 13.34 0 0 0-3.87 2.47c-2.01-1 5.51-8.32 5.87-7.3z" transform="translate(-102.97 -278.43)"/><path class="cls-2" d="M127.2 360.13c-.1 0-1.5-.19-.15-.23a1.14 1.14 0 0 1 .15.23z" transform="translate(-102.97 -278.43)"/><path class="cls-2" d="M128.4 359.92c.26.53-3.41 0 1.13-.09-.23.07-.04.05-1.13.09z" transform="translate(-102.97 -278.43)"/><path class="cls-7" d="M169.22 344.62c-2.52.14-8.09-.78-10.59-.47-3.76.47-7.07-2.19-7.23-4.7-.07-1.08 1.2-4.92 2.06-5.41-1 4.3 3.46 4.58 15.34 4.39 3.82-.07 11.08 4.82 8.57 10.23-3.91-3.11-2.86-4.31-8.15-4.04zm-37.65 2.12c2.39.13 7.06-.35 9.18-2.47 1.65 9-7.77 7.9-15.71 8.19.64-1.64-4.66-6.34 6.53-5.72zm90.57 27.93c8.72-6.68 4-6.6 5.43 4.54a17 17 0 0 1-5.43-4.54z" transform="translate(-102.97 -278.43)"/><path class="cls-7" d="M128.88 289.86a13 13 0 0 1 22.17-6.72c4.43-5.79 14.19-6.34 19.25-1.08 4.21-4.56 12.5-3.85 16.4 1 2.74 3.4 3.15 7.58 2.06 11.8 13 1.89 26 7.71 35.5 18.72 6.19 7.16 6.92 18.22 6.13 29.65-4.87-2.18-13.78 1.22-17.64 4.74-.75.69-5.08 11-6.57 19.31-4.63.36-11.11 2.7-11.08-2.17.16-24.11 16.24-17.17-4.77-31.75-10.71-7.44 4.66-19.57 1.86-23.56-3.82-5.43-23.54 8.77-37.14 9.81-6.47.5-12.15 3.8-19.15-.73-1-.67-7.08 10.71-9.57 16 0 .1-.06-10.37 4.53-18.83-18.61-5.98-12.35-30.39-1.98-26.19z" transform="translate(-102.97 -278.43)"/><path class="cls-2" d="M128.44 361.06c.65 7.32 12.51 7.33 13.36-1.56 1.32 0-.48 8.77-5.81 9.87-7.57 1.57-7-6.18-8.79-9.24-.42-.71.64.37 1.24.93z" transform="translate(-102.97 -278.43)"/><path d="M161.69 359.63c0-.38-.38-.26 3.89-.3.43 4.76 7.62 4.74 8-.06h6.34c-7.63 14.41-18.24 4.03-18.23.36zm-33.29.46c0-.24-.35-.16 2.06-.24.85 4.15 7.27 4.06 7.9-.26l3.44-.09c-.8 8.93-13.51 9.23-13.4.59z" transform="translate(-102.97 -278.43)" fill="#fff"/><path class="cls-5" d="M222.14 374.67c-12.14 9.29-18.15 4.73-16-7.41 1.49-8.33 5.82-18.62 6.57-19.31 3.51-3.2 11.78-6.65 17-5 3.7 1.18 7.2 6.36 7.44 10.24.37 5.81-.79 10.59-15.01 21.48z" transform="translate(-102.97 -278.43)"/><path class="cls-2" d="M134.09 378.12c2.42-4.79 17.72-11.14 7.37-30.91 5.77.26 7.1 19 4.18 24-2.69 4.59-8.86 4.69-8 8.74 1.76 8.57 12.87 2.73 18 .51-12.02 11.89-23.46 5.06-21.55-2.34z" transform="translate(-102.97 -278.43)"/><path class="cls-7" d="M158.87 359.39c8.51-4.36 11.64-4 22.11-.18zm-20.51.2c.14-1 1.2-.69-8-.69 0 1.22 1.07.88-4 1 5.3-4.72 11.21-3.93 17.41-.47z" transform="translate(-102.97 -278.43)"/><path class="cls-7" d="M173.6 358.9c0 5.13-7.57 5.34-8 .43-.07-.6-1.26-.43 8-.43zm-43.24 0c9.22 0 8.14-.28 8 .69-.68 4.64-8 4.41-8-.69z" transform="translate(-102.97 -278.43)"/><path class="cls-2" d="M148.51 391.63c11.65 1.75 16.24 8.05 16.24 8.05-26.57-7.23-13.28 3-21.88-.47.07-2.8-.24-8.47 5.64-7.58zm12.88 17.45c-6.51-1.61-7.92-2.34-9.1-.68 0-1.53-1.77-3.13-.77-4.65 1.3-1.98 5.92-.99 9.87 5.33zM217.47 355c6.07 4.17 5.12 7.72 2.75 7.51-3.14-.28-3.49-.36-4-.14-2.21.93 1.69 3 3.79 3.8a5.94 5.94 0 0 1-5.95 0c-5.91-4 1-14.85 4.53-15.3 24.07-10.67 13.09 10.2 9.67 12.54 7.79-17.36-6.36-12.84-10.79-8.41z" transform="translate(-102.97 -278.43)"/></svg>