<svg xmlns="http://www.w3.org/2000/svg" viewBox="0 0 177.33 176.07"><defs><style>.cls-1{fill:#f7cb6b;}.cls-2{fill:#6c2548;}.cls-3{fill:#603813;}.cls-4{fill:#fff;}.cls-5{fill:#a67c52;}.cls-6{fill:#f2f2f2;}.cls-7{fill:#f90321;}</style></defs><g id="Layer_8" data-name="Layer 8"><path class="cls-1" d="M110.08,135.57s23.71,21.13,30,23c11.76,3.47,10.47-12.78,7.5-16s-25-23.5-25-23.5Z"/><path class="cls-2" d="M106.67,175.39l-4.59-40.32,10.5,3.5,13-19c-1.34-.86-41-64.23-93.86-27.71C16.45,102.41,3.48,136.43,3.48,136.43c4.31,5.75,9.32,12.69,19.17,18l5-6.12,1.49,27.72Z"/><path class="cls-1" d="M62,110.34s30.76-11.59,10.3-23C45.37,72.27,18.42,108,62,110.34Z"/><polygon class="cls-1" points="44.92 64.56 47.77 96.65 70.64 95.04 69.16 60.7 44.92 64.56"/><path class="cls-1" d="M33.17,12.14l4.78,47L49.11,79.54,70,78.92l9.18-22.05S78.1,23.74,78.1,21.56,33.17,12.14,33.17,12.14Z"/><path class="cls-1" d="M77.67,44.63s4.45-7.7,8-4.72,3.32,7.71,1.53,10.7-2.33,7.77-5.38,7.77a4.74,4.74,0,0,1-4.19-3Z"/><path class="cls-1" d="M34.91,48.67s-.57-4.57-5.14-5.14-5.14,5.14-5.14,5.14-.57,2.29,2.28,4.57S29.28,60.89,33,61.4s5.1-3.59,5.1-3.59Z"/><path class="cls-3" d="M75.86,2a24.38,24.38,0,0,0-9.49,1c3.33-1.53,7.46-.41,10.28,1.83s4.62,5.41,6.35,8.5a9.79,9.79,0,0,0-5.74-4.2C84,11.93,89.51,14.9,91,21.74c.3,3.91-4.47,7.78-4.48,12.32-1.31-.86-1.8-.22-2.65,1.07s-.76,4.72-.81,6.24c-.09,3-3.24,7-3.33,10.08-2.1-1.19-.42-2.88-2.52-1.66,2.71-5.79-.12-13.2-.67-19.5-2,2.31-4.48,3.36-7.48,2.58S58.58,25.13,56.67,19.75c2.09,2.93,1,6.33-2.38,7.9-4,1.9-6.95,4.66-6.89,8.21-7-6.37-.74-8.42-1.11-12.64-5.63,1.32-2.63,6.11-6.58,9.11.15-.9,0-1.51-.78-1.34s-1.17,1-1.41,1.71a22.18,22.18,0,0,0-.87,10.38c.55-2,2.59,14.44-.28,10.27-2.89-3.56-6.4-9-6.17-13.5.18-3.49,2.16-7.51-.26-10.1-1.61-1.72-4.42-1.79-6.45-3-2.95-1.83-3.59-5.95-2.18-9.06s4.37-5.33,7.46-7A40,40,0,0,1,42.37,6.2c-1.51-1-.1-3.34,1.53-4.21,5.79-3.08,9.82,1.24,15.25.81C65.43,2.3,69.24-2.72,75.86,2Z"/><path class="cls-3" d="M36.11,53.66a84.44,84.44,0,0,0,4.34,18.82l.07-1c6.69,15,19.13,13.52,19.84,13.67,2.54.54,9.85-4.39,9.9-4.44a31.28,31.28,0,0,0,7-11.16,45.9,45.9,0,0,0,2.35-12.89,50.55,50.55,0,0,0-.16-9.29L74.29,66.51a1.26,1.26,0,0,1-.38.71c-.22.16-.62.09-.66-.18l-.73,2.28a1.18,1.18,0,0,1-.46.73c-.25.15-.68,0-.64-.32l-1,2.85a2,2,0,0,1-.6,1,4.3,4.3,0,0,1-.94.38,3.36,3.36,0,0,0-1.43,1.69A3.61,3.61,0,0,1,66,77.35c-.68.34-1.71,0-1.77-.74-.46.78-.45,1.56-.91,2.35a1.54,1.54,0,0,0-1.67-1.57l-.49-3.2L61,75c-.07-.73-.76-1.43-1.11-2.07a1.54,1.54,0,0,1-2.12-.27c-.1.76.28,1.52.17,2.28-.16-.39-.74-.07-1,.27l-1.78,2.44a4.57,4.57,0,0,1-4.09-1.24c-.86-1.06-1.24-2.71-2.55-3.1l-.59,1.25c0-1.45-1.29-2.53-2.25-3.61a21,21,0,0,1-3.32-5.78A128,128,0,0,1,36.67,49a36.81,36.81,0,0,0,.29,12"/><path class="cls-3" d="M58.29,60.56c4.13.36,8.07-.2,9.29.25,1,.34,2.87.77,3.57,1.5a2.75,2.75,0,0,1,.73,2.78c-1.27-1.86-3.47-2-5.69-2.34s-4.51.44-6.73.07C50.75,61.38,48,63,43.17,65.92a2,2,0,0,1,.47-2.25C46.89,60.38,51,59.93,58.29,60.56Z"/><path class="cls-4" d="M46.91,43.59c-3.16.4-6.06,2.33-4.55,4.53.26.38,4.77,2.87,7.29.25C51.77,46.16,49.4,43.28,46.91,43.59Z"/><path class="cls-4" d="M72,44.46c1.18,1.79-3,3.38-4,3.47-2,.18-4,.16-4.12-2.33C63.56,40.72,70,41.41,72,44.46Z"/><path class="cls-5" d="M57.87,39q1.18,10.13,2.89,20.14a18.93,18.93,0,0,1-6.58.35c2,1.63,4.72,1.45,7.15,1a1.22,1.22,0,0,0,.91-.48,2,2,0,0,0,.09-1.23C62.27,58,57.87,39,57.87,39Z"/><path class="cls-3" d="M49.67,39.32a3.48,3.48,0,0,1,2,.82c.48.5.46,1.35-.2,1.54-1.27.38-4.52-.55-6.09-.46-1.88.1-3.62.64-5.39.87C41.66,39.58,46.32,38.77,49.67,39.32Z"/><path class="cls-3" d="M69.68,34.2c1.33.76,2.66,2,2.6,3.49a29.72,29.72,0,0,0-7.61-2.82,4,4,0,0,0-1.47,0c-2.5.47-3.64-.83-.76-1.75A9,9,0,0,1,69.68,34.2Z"/><circle cx="46.65" cy="46.56" r="2.17"/><circle cx="67.74" cy="44.95" r="2.17"/><path class="cls-6" d="M167.05,151.4a55.83,55.83,0,1,0-50.73,23.3A55.8,55.8,0,0,0,167.05,151.4Zm-48.14-4.49a27.9,27.9,0,1,1,25.37-11.65A27.91,27.91,0,0,1,118.91,146.91Z"/><path class="cls-7" d="M172.23,95.81a55.83,55.83,0,0,1-5.18,55.59l-22.77-16.14a28,28,0,0,0,2.59-27.8Z"/><path class="cls-7" d="M116.17,174.69a55.83,55.83,0,0,1-45.3-32.05l25.32-11.76a27.89,27.89,0,0,0,22.65,16Z"/><path class="cls-7" d="M75.39,87.65l.57-.82a55.83,55.83,0,0,1,50.73-23.3L124.1,91.32A28,28,0,0,0,98.73,103l-.28.41Z"/><path class="cls-1" d="M4.92,137.73C-1,150.46-.39,156.72.75,163.57s9.67,11.16,19,6.88,27.64-15.22,38-22.25c8.1-5.51,8.83-11.47,9.1-12.43,4.8-3.51,6.82,1.37,12.09-.45s5.73-9.66,2.11-13.55-8.27-4.88-13.35-5.27c3-3.46,6-3.74,10.5-4.18,2.93-.29,5.17-3.49,1.3-4.31s-5.86.37-9.5.14c-4.26,4-6.19,2.36-10.06,8.72-3,4.95-5.36,21.53-7.69,22.7-15.25,7.62-20.28,6-29.88,10.17-.05-1,0-2.49,0-2.49C18.58,141.4,7.82,131.5,4.92,137.73Z"/><path class="cls-5" d="M74.54,120.54c1.18.42,7.44,4.38,8.34,5.51-.49-.61-7.3-4-8.8-4.48a51,51,0,0,0-5.47-1.4c-.32-.07-2.3-.28-2.33-.55-.06-.45,1.9,0,2.2.1C70.55,120.13,72.56,119.83,74.54,120.54Z"/><path class="cls-5" d="M77.36,125.88c16.17,7.11-5.52-1.08-5.57-1.09-1.85-.6-3.72-.83-5.58-1.29,1.13-.78,3.82.12,5,.38A31.88,31.88,0,0,1,77.36,125.88Z"/><path class="cls-5" d="M76.36,130.71c15.39,6.19-5.52-1.07-5.57-1.09-1.85-.6-3.72-.83-5.58-1.28,1.13-.79,3.82.11,5,.38A38.58,38.58,0,0,1,76.36,130.71Z"/><path class="cls-1" d="M169.06,152.71c-5.66-3.94-6.65-4.4-6.9-5.77s.83-2.27,2.06-2.72c2.07.72,7.91,2.39,8.84,4.09.6,1.09-.41,2.69-1.06,3.67C171,153.56,170.23,153.52,169.06,152.71Z"/><path class="cls-1" d="M162.65,147.61l7,5.5c.74.59.74.93.34,1.53-1.61,2.41-2,3.08-2.74,3.45-2.7,1.28-6.69-4-8.16-6.73a2.34,2.34,0,0,1-.4-1.57,4.56,4.56,0,0,1,2.67-2.45c.89-.14,2,.66,1.76,1.53"/><path class="cls-1" d="M158.71,160.19a3.65,3.65,0,0,1-1.08-3c0-1.42.64-3.3,2.05-3.1s2.63,2.11,3.78,3c1,.76,2,1.66,2.14,2.86C165.59,161.73,164.23,165.65,158.71,160.19Z"/><path class="cls-1" d="M153.93,163a3.05,3.05,0,0,1-.25-1.77,2.78,2.78,0,0,1,2.57-1.63c1.74.16,2.46.61,4.36,2.36a3.54,3.54,0,0,1-2,4.46C157.61,166.78,154.82,165.51,153.93,163Z"/><circle class="cls-4" cx="47.22" cy="46.15" r="0.87"/><circle class="cls-4" cx="68.39" cy="44.4" r="0.87"/><path d="M63.9,43.69s3.74-4,8.1.77C66.83,37.22,63.9,43.69,63.9,43.69Z"/><path d="M41.88,46.67s4-6.06,8.33-1.34C46.94,37.61,41.88,46.67,41.88,46.67Z"/><path class="cls-5" d="M56.92,68.8c-3.14-.08-7-.5-9.25-3-.66-.73-2,.27-1.39,1.07,2.29,3,7.27,2.89,10.64,2.59a.34.34,0,0,0,0-.68Z"/></g></svg>