<?xml version="1.0" encoding="utf-8"?>
<!-- Generator: Adobe Illustrator 18.1.1, SVG Export Plug-In . SVG Version: 6.00 Build 0)  -->
<!DOCTYPE svg PUBLIC "-//W3C//DTD SVG 1.1//EN" "http://www.w3.org/Graphics/SVG/1.1/DTD/svg11.dtd" [
	<!ENTITY ns_flows "http://ns.adobe.com/Flows/1.0/">
	<!ENTITY ns_extend "http://ns.adobe.com/Extensibility/1.0/">
	<!ENTITY ns_ai "http://ns.adobe.com/AdobeIllustrator/10.0/">
	<!ENTITY ns_graphs "http://ns.adobe.com/Graphs/1.0/">
]>
<svg version="1.1" xmlns:x="&ns_extend;" xmlns:i="&ns_ai;" xmlns:graph="&ns_graphs;"
	 xmlns="http://www.w3.org/2000/svg" xmlns:xlink="http://www.w3.org/1999/xlink" xmlns:a="http://ns.adobe.com/AdobeSVGViewerExtensions/3.0/"
	 x="0px" y="0px" viewBox="0 0 500 450" enable-background="new 0 0 500 450" xml:space="preserve">
<g id="BG" display="none">
	<path display="inline" fill="#442B3B" d="M500,500H60c-33.1,0-60-26.9-60-60V110c0-33.1,26.9-60,60-60h380c33.1,0,60,26.9,60,60
		V500z"/>
</g>
<g id="BG_kopie_5" display="none">
	<g display="inline">
		<path fill="#BE8A5D" d="M440,50h-38.8L0,238.9V440c0,33.1,26.9,60,60,60h1.1L500,293.4V110C500,76.9,473.1,50,440,50z"/>
	</g>
</g>
<g id="BG_kopie_6">
	<g id="filmrol_kopie">
		<g>
			<path fill="#5B2942" d="M382,0H60C26.9,0,0,26.9,0,60v128.9L382,9.1V0z"/>
			<path fill="#C88A57" d="M452,1.2V29c0,3.3-2.7,6-6,6h-0.4H388c-3.3,0-6-2.7-6-6V9.1L0,188.9V390c0,33.1,26.9,60,60,60h1.1
				L500,243.4V60C500,31,479.4,6.8,452,1.2z M452,250c0,3.3-2.7,6-6,6h-0.4H388c-3.3,0-6-2.7-6-6v-49.7V200c0-3.3,2.7-6,6-6h58
				c3.3,0,6,2.7,6,6V250z M452,139.5c0,3.3-2.7,6-6,6h-0.4H388c-3.3,0-6-2.7-6-6V89.8v-0.3c0-3.3,2.7-6,6-6h58c3.3,0,6,2.7,6,6
				V139.5z"/>
			<path fill="#5B2942" d="M445.6,35h0.4c3.3,0,6-2.7,6-6V1.2c-2.1-0.4-4.2-0.7-6.4-0.9V35z"/>
			<path fill="#5B2942" d="M446,83.5h-58c-3.3,0-6,2.7-6,6v0.3h57.6c3.3,0,6,2.7,6,6v49.7h0.4c3.3,0,6-2.7,6-6v-50
				C452,86.2,449.3,83.5,446,83.5z"/>
			<path fill="#5B2942" d="M446,194h-58c-3.3,0-6,2.7-6,6v0.3h57.6c3.3,0,6,2.7,6,6V256h0.4c3.3,0,6-2.7,6-6v-50
				C452,196.7,449.3,194,446,194z"/>
			<path fill="#5B2942" d="M61.1,450H382v-28.7h57.6c3.3,0,6,2.7,6,6V450h6.4h48V243.4L61.1,450z M382,310.8h57.6c3.3,0,6,2.7,6,6
				v49.7H388c-3.3,0-6-2.7-6-6V310.8z"/>
		</g>
	</g>
</g>
<g id="BG_kopie_3">
	<g>
		<path fill="#F7E2CA" d="M15,247.5V375c0,33.1,26.9,60,60,60h255V247.5H15z"/>
		<path fill="#F7E2CA" d="M75,15c-33.1,0-60,26.9-60,60v127.5h315V15H75z"/>
	</g>
</g>
<g id="Y_1_">
	<path display="none" fill="#54385A" d="M218.2,307.5l-53.6,148.8l-25.5-80H100L143.1,487c3.6,9.3,3.6,19.6,0,28.9
		c-4,10.3-10.7,21.4-29.2,24.8l-3,0.6v33.4l3.9-0.2c17.4-0.7,30.9-6.4,42.4-18.1c11.6-11.6,21.4-29.6,31-56.4L260,307.5H218.2z"/>
	<path display="none" fill="#54385A" d="M218.2-34.7l-53.6,148.8l-25.5-80H100l43.1,110.8c3.6,9.3,3.6,19.6,0,28.9
		c-4,10.3-10.7,21.4-29.2,24.8l-3,0.6v33.4l3.9-0.2c17.4-0.7,30.9-6.4,42.4-18.1c11.6-11.6,21.4-29.6,31-56.4L260-34.7H218.2z"/>
	<g>
		<polygon fill="#77B227" points="218.2,257.5 164.7,406.3 139.1,326.3 100,326.3 142.3,435 193.8,435 260,257.5 		"/>
	</g>
	<g>
		<path fill="#77B227" d="M173.1,123.8c-4,10.3-10.7,21.4-29.2,24.8l-3,0.6v33.4l3.9-0.2c17.4-0.7,30.9-6.4,42.4-18.1
			c11.6-11.6,21.4-29.6,31-56.4L252.8,15h-40.5l-17.7,49.1L179,15h-37l31.1,79.9C176.8,104.2,176.7,114.5,173.1,123.8z"/>
	</g>
</g>
<g id="filmrol" display="none">
	<path display="inline" fill="#442B3B" d="M446,85h-58c-3.3,0-6-2.7-6-6V29c0-3.3,2.7-6,6-6h58c3.3,0,6,2.7,6,6v50
		C452,82.3,449.3,85,446,85z"/>
	<path display="inline" fill="#FFFFFF" d="M445.6,85H388c-3.3,0-6-2.7-6-6V29.3h57.6c3.3,0,6,2.7,6,6V85z"/>
	<path display="inline" fill="#442B3B" d="M446,195.5h-58c-3.3,0-6-2.7-6-6v-50c0-3.3,2.7-6,6-6h58c3.3,0,6,2.7,6,6v50
		C452,192.8,449.3,195.5,446,195.5z"/>
	<path display="inline" fill="#FFFFFF" d="M445.6,195.5H388c-3.3,0-6-2.7-6-6v-49.7h57.6c3.3,0,6,2.7,6,6V195.5z"/>
	<path display="inline" fill="#442B3B" d="M446,306h-58c-3.3,0-6-2.7-6-6v-50c0-3.3,2.7-6,6-6h58c3.3,0,6,2.7,6,6v50
		C452,303.3,449.3,306,446,306z"/>
	<path display="inline" fill="#FFFFFF" d="M445.6,306H388c-3.3,0-6-2.7-6-6v-49.7h57.6c3.3,0,6,2.7,6,6V306z"/>
	<path display="inline" fill="#442B3B" d="M446,416.5h-58c-3.3,0-6-2.7-6-6v-50c0-3.3,2.7-6,6-6h58c3.3,0,6,2.7,6,6v50
		C452,413.8,449.3,416.5,446,416.5z"/>
	<path display="inline" fill="#FFFFFF" d="M445.6,416.5H388c-3.3,0-6-2.7-6-6v-49.7h57.6c3.3,0,6,2.7,6,6V416.5z"/>
	<path display="inline" fill="#442B3B" d="M446,527h-58c-3.3,0-6-2.7-6-6v-50c0-3.3,2.7-6,6-6h58c3.3,0,6,2.7,6,6v50
		C452,524.3,449.3,527,446,527z"/>
	<path display="inline" fill="#FFFFFF" d="M445.6,527H388c-3.3,0-6-2.7-6-6v-49.7h57.6c3.3,0,6,2.7,6,6V527z"/>
</g>
</svg>
