<svg role="img" aria-hidden="true" xmlns="http://www.w3.org/2000/svg" viewBox="0 0 520 272" focusable="false"><path fill="#682b4b" d="M0 0h520v272H0z"/><path fill="#fff" d="M0 0v272h101.2L255.3 0H0z" opacity=".13"/><path fill="#fff" d="M60.46 180.19V199c11.62-.48 20.71-4.3 28.4-12.09s14.74-20.43 21.46-39.19l49.8-133.31H136L95.9 125.73 76 63.27H54l29.26 75.15a30.9 30.9 0 0 1 0 22.47c-3.01 7.63-8.33 16.61-22.8 19.3z" opacity=".3"/><circle cx="218.85" cy="65.05" r="52.5" fill="#fff" opacity=".3"/><circle cx="162.08" cy="164.5" r="34.25" fill="#fff" opacity=".3"/><circle cx="118.56" cy="239.22" r="20.65" fill="#fff" opacity=".3"/><path fill="#fed8b5" d="M403.13 146.34c.62 2.58 1.1 5.24.13 7.07-2.51-2.33-2.82-11-4-14.93-21.29 45.38-43.59.35-44 0-1.2 5.3.7 11.59-3 15.72-.07-.51 0-.95-.06-.47a67.27 67.27 0 0 0 .78-9.28 1.66 1.66 0 0 1-.19.4c-1.46 1.81-11.9 5.64-11.9 9.82s17.52 16.43 37.95 18.3c18.06 1.36 30.64-6.25 41.57-16.32 1.36-1.58-14.75-9.22-17.28-10.31z"/><path fill="#eca96b" d="M352.28 154.2c3.71-4.13 1.81-10.42 3-15.72.41.35 22.71 45.38 44 0 1.15 3.9 1.46 12.6 4 14.93 1-1.83.49-4.49-.13-7.07l-.11-.05c-2.19-.89-2.17-20.12-2.17-20.12l-2.87-.07c-9 6.67-16.21 12.83-28.76 11.08-7-1-13.09-3.57-16.81-9.39.51 4.74 1.39 14.29.61 16.66a67.27 67.27 0 0 1-.78 9.28c.06-.48-.05-.04.02.47z"/><path fill="#fed8b5" d="M372 31c-25.56 1.1-33.57 24.81-35 36.81s5.55 49 7.6 53.29c2.18 4.53 13 24.33 32.65 24.67 17.32.3 28.72-22.43 29.36-24.67 1.81-6.35 4.7-41.69 4.16-48C408.28 43.49 390.14 30.26 372 31zm94.82 179.54l-.64-1.7-.18.16c.24.48.53 1 .82 1.54zm-7.19 19.17c.4 3.12-2.92 4.86 3.5 6.11 4.64.9 10.55 2.19 15.09 4.85l-8-21.13c.12.62.25 1.21.32 1.86-5.23 3.07-9.03 4.82-10.91 8.31z"/><path fill="#eca96b" d="M463.13 235.82c-6.42-1.25-3.1-3-3.5-6.11 1.88-3.49 5.68-5.24 10.92-8.31-.07-.65-.2-1.24-.32-1.86l-3.41-9c-.29-.54-.58-1.06-.86-1.57a34.84 34.84 0 0 1-6.44 3.49l-12.74 8.2a120.57 120.57 0 0 1 3.63 12.23c1 4.58.35 5.55 4.93 7.08 6 2 12.92 2.45 19.09 3.82 1.72.38 3.7 1.25 5.61 1.67l-1.82-4.79c-4.54-2.67-10.45-3.95-15.09-4.85z"/><path fill="#fed8b5" d="M304.57 232.31c-1.18-3.65-6.91-4.16-9.93-5.84-4.13-2.29-4.5-1.65-6.18-5.93a.28.28 0 0 1-.1.06l-8.69 22.6.5-.33a109.76 109.76 0 0 1 24.4-10.56z"/><path fill="#eca96b" d="M293.8 206.42l-5.44 14.18a.28.28 0 0 0 .1-.06c1.68 4.28 2.05 3.64 6.18 5.93 3 1.68 8.75 2.19 9.93 5.84a109.76 109.76 0 0 0-24.4 10.56l-.5.33-3 7.87a122.58 122.58 0 0 1 13.65-7.25c5.39-2.28 11-4.73 16.51-6.67 3.05-1.06 6.74-1.46 9.45-3.27.75-.51 2.83-2.15 5-4l3.26-6.33z"/><path fill="#fff" d="M360.18 98.06a3.48 3.48 0 0 1 3.48 3.49 3.65 3.65 0 0 1-.08.74 20 20 0 0 0 3.6-1.56c-3.18-7.3-12.24-9.51-15.41 0a14.21 14.21 0 0 0 5.16 2.07 3.47 3.47 0 0 1 3.25-4.74z"/><path fill="#280415" d="M363.58 102.29a3.65 3.65 0 0 0 .08-.74 3.49 3.49 0 1 0-6.73 1.25 13.61 13.61 0 0 0 6.65-.51z"/><path fill="#fff" d="M388.75 99a1.69 1.69 0 0 1-.15-.68 1.5 1.5 0 0 1 1.4-1.63 1.28 1.28 0 0 1 1.05.59 3.87 3.87 0 0 1 1-.15 3.92 3.92 0 0 1 3.93 3.92v.06a14.66 14.66 0 0 0 3.51-1.65c-3.18-9.51-12.24-7.3-15.41 0a19.75 19.75 0 0 0 4.07 1.69v-.1a3.93 3.93 0 0 1 .6-2.05z"/><path fill="#280415" d="M396 101.11v-.06a3.92 3.92 0 0 0-3.93-3.92 3.87 3.87 0 0 0-1 .15 1.67 1.67 0 0 1 .34 1 1.5 1.5 0 0 1-1.41 1.59 1.39 1.39 0 0 1-1.24-.91 3.93 3.93 0 0 0-.61 2.09v.1a13.23 13.23 0 0 0 7.85-.04z"/><path fill="#fff" d="M390 96.69a1.5 1.5 0 0 0-1.39 1.59 1.69 1.69 0 0 0 .15.68 3.91 3.91 0 0 1 2.24-1.68 1.28 1.28 0 0 0-1-.59z"/><path fill="#fff" d="M388.75 99a1.39 1.39 0 0 0 1.24.91 1.5 1.5 0 0 0 1.39-1.59 1.67 1.67 0 0 0-.34-1 3.91 3.91 0 0 0-2.29 1.68z"/><path fill="#77b227" d="M437.92 272h-115l-.27-49.54c-10.88 4.37-34.53-13.33-35.63-16.86s3.81-6.26 3.81-6.26 13.87-28.82 21.48-34.25 32.64-16.6 32.64-16.6 7.66 20.13 32.9 19.59S406.92 148 406.92 148s36.15 9.24 45.95 21 17.95 39.4 17.95 39.4c-11.26 9.57-22.59 18.5-35 16.32z"/><path fill="#fed8b5" d="M328.89 79.44c-5.11 2.64-1.11 12.5-1.11 12.5a90.53 90.53 0 0 1 6 10.88c1.64 4.08 1.64 6.52 4.09 7.61 2.1.94 5.43-1.35 5.43-1.35l-4.06-20.94s-4.44-11.75-10.35-8.7zm91.43-3.36c5.32 2.12 1.89 12.42 1.89 12.42A89.74 89.74 0 0 0 417 99.74c-1.36 4.17-1.2 6.62-3.58 7.86-2 1.07-5.52-1-5.52-1l2.72-21.16s3.45-11.82 9.7-9.36z"/><path fill="#eca96b" d="M378.67 90.63c2.94 23.56 3.1 23.22 2.67 24.59a2.46 2.46 0 0 1-2.08 1.88c-2 .11-2.91-2.83-4.93-2.91-.74 0-1.53.32-2.25 0a1.87 1.87 0 0 1-1.08-2 5.53 5.53 0 0 1 .85-2.21c-2.09-.18-3.65 3.5.26 5.63 1.16.63 1.54-.63 2.73 0 1.46.73 3.26 5.25 7.3 3.12 1.88-1 1.72-3.72 1.37-5.84q-1.83-10.59-3.65-21.2c-.13-1.82-1.38-2.4-1.19-1.06z"/><path fill="#aa6d2a" d="M367 80.52c-8.15-.24-15 6.26-17.14 8.16s-3.25-2.46-1.62-4.38 13.33-7.62 16.06-7.3 2.7 3.52 2.7 3.52zm16.23-3.81c-4.62.55-5.7 6.26 0 5.17s17.95 1.91 19 3.54 4.37-.82.55-3.54-14.89-5.64-19.55-5.17z"/><path fill="#eca96b" d="M362.26 121.61a1.56 1.56 0 0 0-.65 2.09.86.86 0 0 0 .1.16c1 1.55 13.05 6.32 14 3.93.88-2.03-2.44 3.46-13.45-6.18z"/><path fill="#280415" d="M367 99.78c-.94-2.92-3.56-6-6.67-6-4.61-.08-8.44 2.09-8.53 7 1-4.63 4.29-5.65 8.44-5.71 3.09 0 6 2.78 7 5.71a5.21 5.21 0 0 0-.24-1zm17.84-1.17a5.4 5.4 0 0 0-.15 1c1-2.92 3.62-5.75 6.72-5.7 4.13 0 6.7 1.27 8 5.53-.17-4.63-3.44-6.89-8.05-6.8-3.24-.01-5.59 2.98-6.52 5.97z"/><path fill="#eca96b" d="M411.82 211.58s-3.27 1.9-1.63 6.53 15.22 11.15 16.82 15.74 17.68-3.81 9.24-7.29-17.12-14.69-20.66-16.06-3.77 1.08-3.77 1.08zM331.46 84.21a4.5 4.5 0 0 1 4.48 1.58 6.79 6.79 0 0 1 1.46 4.71c-.11 1.81-.75 3.63-.35 5.4a13.83 13.83 0 0 0 1.66 3.44 5 5 0 0 1 .73 3.67 1.76 1.76 0 0 1-1.12 1.27 1 1 0 0 1-1.24-.67.68.68 0 0 1 0-.19c0-.6.65-1 1-1.46a2.3 2.3 0 0 0-.66-2.57 14.62 14.62 0 0 1-2-2c-1.81-2.76 1.46-6.82-.25-9.62a3.09 3.09 0 1 0-5.29 3.2 2.91 2.91 0 0 0 .64.76c-2.41-1.93-2.38-6.66.94-7.52zm88.67-3.84a3.09 3.09 0 0 0-2.92-.38 7.07 7.07 0 0 0-2.53 1.72c-2.68 2.57-4.78 6.37-3.69 9.91a9.64 9.64 0 0 1 .94 3.4 7.07 7.07 0 0 1-1 2.59 3.34 3.34 0 0 0-.36 2.67c.36.86 1.68 1.3 2.24.55.79-1-.71-2.43-.4-3.69.21-.88 1.24-1.3 1.63-2.12s-.17-2.2-.79-3.16-1.21-2.21-.61-3.17a6.12 6.12 0 0 0 2.55 2.15 6 6 0 0 1-.57-7.3 3.46 3.46 0 0 1 3.1-1.72 3.28 3.28 0 0 1 2.57 3.18 9.69 9.69 0 0 1-1.21 4.27c1.31-1.88 3.38-6.99 1.05-8.9z"/><rect width="50.58" height="35.62" x="380.27" y="181.94" fill="#393a3c" rx="3.27"/><path fill="#959599" d="M380.32 189.56c-1.23-8.75 1.91-7.62 4.93-7.89H426c3 0 6-.54 4.94 7.89-1.91-5.72-1.75-5.94-4.94-5.72h-40.8c-3.07-.19-3.57-.26-4.88 5.72z"/><rect width="31.54" height="61.72" x="345.47" y="173.79" fill="#393a3c" rx="3.27"/><path fill="#393a3c" d="M375.11 190.64h7.34v10.33h-7.34z"/><circle cx="360.96" cy="191.74" r="11.88" fill="#959599"/><circle cx="360.96" cy="191.74" r="10.42" fill="#393a3c"/><path fill="#04adbf" d="M360.83 200.65a6.76 6.76 0 0 0 6.35-4.07c-1.87 1.34-10 1.72-13.06-.47 1.01 3.23 4.47 4.47 6.71 4.54z"/><ellipse cx="356.38" cy="187.43" fill="#fff" rx="3.53" ry="2.31" transform="rotate(-49.71 356.374 187.423)"/><ellipse cx="362.85" cy="190" fill="#fff" rx="1.84" ry="1.49"/><circle cx="371.5" cy="229.05" r="2.92" fill="#959599"/><circle cx="371.5" cy="229.05" r="2.07" fill="#c94337"/><ellipse cx="358.38" cy="99.42" fill="#fff" rx="1.23" ry="1.49"/><path fill="#fed8b5" d="M350.91 166.17c-2.7.82-2.18 1.91-3.81 3.27 3.53-4.89 1.36-7.88 1.36-7.88s-1.91-3.83-4.63-.56-4.49 3.66-6.52 6.26c-3.81 4.89-7.07 6.34-7.88 10.33s0 10.61-1.64 17.14c-1.18 4.74-1.89 9-1.89 9s.54 13.59-.28 18.22-26.37 14.14-26.37 14.14c-11.69 2.17-21.48 9.79-23.12 10.59-6.36 3.26-6.36 20.67-6.14 24.2 0 .11 0 1 .06 1.15h36.09c10.85-7.91 18.72-22.09 18.72-22.09a103.74 103.74 0 0 1 9.73-8.42c4.13-.27 11.43-8.43 11.43-8.43s1.9-15.22.54-19.3-.28-14.14-.28-14.14 0-14.41-.26-18.49c1.08 0 3.25-2.73 5.71-6s1.89-9.81-.82-8.99z"/><path fill="#eca96b" d="M348.66 165.57c-3.53 4.89-12.05 7.72-12.62 13.92-.34 3.72.7 6.38-.85 10.07-.64 1.46-1.84 2.26-2.19 3.91s.47 3.71.43 5.53c3.29-5.83 3.06-12.44 3.94-18.41.8-5.46 11.03-9.49 11.29-15.02zm-21.38 43.96c2.26 3.72 0 9.93-3 15.92 1.64-4.63 1.62-13.59 2.22-17.52a5.17 5.17 0 0 1 1.24 4.24"/><path fill="#393a3c" d="M346.56 197.16s-22.58-4.37-23.93-1.08-1.08 12 .27 13.87 23.66 1.36 23.66 1.36z"/><path fill="#fed8b5" d="M482.57 272c.13-.42 3.26-4 3.35-4.48.05 0 3.12-11.89-1.51-21.41s-22.56-3.81-26.37-8.42-5.44-24.47-10.05-28-4.99-11.27-8.76-11.69c-3.17-.37-8.76-2.44-12.23-2.44s-10.61 7.06-15.5 7.6c0 3 .54 3.81 4.63 4.63s8.42-3.27 8.42-3.27a87.71 87.71 0 0 0 9.79 2.73l2.45 5.16s-17.41 8.43-18.22 10.88c-.74 2.21-1 5.3 2.54 7.49a136.91 136.91 0 0 1 18.63-11.73c-1 3.54-7.19 5.61-10.21 7.65a59.2 59.2 0 0 1-7.37 4.64l.21.1c-1.82 1.31-2.82 6.83.41 8.75.13-.22.18-.28 0 0l.08.05c5.19-6.1 12.22-9.9 19.34-13.17-.37 3.34-5.46 4.38-8 6.13-3.19 2.19-7.87 7.1-11.53 8.13-1.22 2.26-1.47 4.83 1.65 7 3.54 2.44 5.38 5.84 8.15 4.63 2-.88 4.53-2.2 5.77-2.86-.51-4.33-6.31-4-9.09-3 3.39-3.78 7-1.28 8-6.45a11.26 11.26 0 0 1 .24-2.08 15.16 15.16 0 0 1-.24 2.08c-.06 4.17 3.17 4.76 8 4.78-2.28.61-4.88.26-7.3 1a3.82 3.82 0 0 1 1.22 3.38 16 16 0 0 0 3.2 4.51c1.91 1.64 3.24.66 4.9 1.1 3.71 1 7.62 11.95 11.94 16.62z"/><path fill="#eca96b" d="M439.74 219.05a136.91 136.91 0 0 0-18.63 11.73c.32.19.67.38 1.05.56a59.2 59.2 0 0 0 7.37-4.64c3.02-2.04 9.2-4.11 10.21-7.65zm-16.96 21.14v.05-.05zm19.43-13.12c-7.12 3.27-14.15 7.07-19.34 13.17a3.3 3.3 0 0 0 .32.18c-.2.3-.38.6-.55.91 3.66-1 8.34-5.94 11.53-8.13 2.58-1.76 7.67-2.79 8.04-6.13zm-5.09 13.58a15.16 15.16 0 0 0 .24-2.08 11.26 11.26 0 0 0-.24 2.08z"/><path fill="#eca96b" d="M437.8 246.39c2.42-.7 5-.35 7.3-1-4.81 0-8-.61-8-4.78-1 5.17-4.61 2.67-8 6.45 2.78-1 8.58-1.36 9.09 3l.76-.41v.11a3.82 3.82 0 0 0-1.15-3.37z"/></svg>