<svg xmlns="http://www.w3.org/2000/svg" viewBox="0 0 500 450" role="img" aria-hidden="true" focusable="false"><path fill="#5B2942" d="M382 0H60C26.9 0 0 26.9 0 60v128.9L382 9.1V0z"/><path fill="#C88A57" d="M452 1.2V29c0 3.3-2.7 6-6 6h-58c-3.3 0-6-2.7-6-6V9.1L0 188.9V390c0 33.1 26.9 60 60 60h1.1L500 243.4V60c0-29-20.6-53.2-48-58.8zm0 248.8c0 3.3-2.7 6-6 6h-58c-3.3 0-6-2.7-6-6v-50c0-3.3 2.7-6 6-6h58c3.3 0 6 2.7 6 6v50zm0-110.5c0 3.3-2.7 6-6 6h-58c-3.3 0-6-2.7-6-6v-50c0-3.3 2.7-6 6-6h58c3.3 0 6 2.7 6 6v50z"/><path fill="#5B2942" d="M445.6 35h.4c3.3 0 6-2.7 6-6V1.2c-2.1-.4-4.2-.7-6.4-.9V35zm.4 48.5h-58c-3.3 0-6 2.7-6 6v.3h57.6c3.3 0 6 2.7 6 6v49.7h.4c3.3 0 6-2.7 6-6v-50c0-3.3-2.7-6-6-6zm0 110.5h-58c-3.3 0-6 2.7-6 6v.3h57.6c3.3 0 6 2.7 6 6V256h.4c3.3 0 6-2.7 6-6v-50c0-3.3-2.7-6-6-6zM61.1 450H382v-28.7h57.6c3.3 0 6 2.7 6 6V450H500V243.4L61.1 450zM382 310.8h57.6c3.3 0 6 2.7 6 6v49.7H388c-3.3 0-6-2.7-6-6v-49.7z"/><path d="M15 247.5V375c0 33.1 26.9 60 60 60h255V247.5H15zM75 15c-33.1 0-60 26.9-60 60v127.5h315V15H75z" fill="#F7E2CA"/><path fill="#77B227" d="M218.2 257.5l-53.5 148.8-25.6-80H100L142.3 435h51.5L260 257.5zm-45.1-133.7c-4 10.3-10.7 21.4-29.2 24.8l-3 .6v33.4l3.9-.2c17.4-.7 30.9-6.4 42.4-18.1 11.6-11.6 21.4-29.6 31-56.4L252.8 15h-40.5l-17.7 49.1L179 15h-37l31.1 79.9c3.7 9.3 3.6 19.6 0 28.9z"/></svg>