<svg xmlns="http://www.w3.org/2000/svg" role="img" aria-hidden="true" viewBox="0 0 500 500" focusable="false"><path d="M369 0H80A80 80 0 0 0 0 80v129.72L369 10.19zm-.48 468.06h63.89a6.33 6.33 0 0 1 6.48 6.48V500H500V270.37L69.49 499.29A80.89 80.89 0 0 0 80 500h288.52v-31.94zm.48-122.19h63.89a6.33 6.33 0 0 1 6.48 6.48v55.1h-63.93A6.48 6.48 0 0 1 369 401z" fill="#5b2942"/><path d="M2.78 440.92zm1.08 3.66zm29.08 40.1zm-17.86-17.96a78.81 78.81 0 0 1-4.67-7.27 81 81 0 0 0 4.67 7.27zM1.13 433.35c-.09-.55-.19-1.09-.27-1.64.08.55.14 1.09.27 1.64zm.74 3.83c-.12-.56-.25-1.12-.36-1.68.11.56.24 1.12.36 1.68zM30 482.44c-.75-.6-1.48-1.21-2.21-1.84.75.63 1.48 1.24 2.21 1.84zm-2.79-2.36zM6.52 451.65c-.24-.56-.47-1.13-.7-1.7.23.57.46 1.14.7 1.7zm1.56 3.41c-.28-.57-.54-1.15-.8-1.73.26.58.52 1.16.8 1.73zm-2.97-6.91c-.21-.56-.41-1.12-.61-1.69.2.54.4 1.13.61 1.69zm19.4 29.45c-.63-.61-1.26-1.23-1.87-1.86.61.63 1.24 1.26 1.87 1.86zM.57 429.41c-.06-.52-.13-1-.18-1.55.05.52.12 1.03.18 1.55zm498.95-358.1c0 .37.08.74.11 1.11-.03-.37-.07-.74-.11-1.11zm.32 3.81c0 .37.05.75.07 1.12-.02-.37-.05-.75-.07-1.12zM69.28 499.26zM19.49 472.3q-.84-1-1.65-1.95.81.99 1.65 1.95zM62 497.94a79.75 79.75 0 0 1-28.9-13.14A79.59 79.59 0 0 0 62 497.94zm-44.81-28.43c-.54-.67-1.07-1.35-1.58-2 .51.65 1.04 1.33 1.58 2zM499.06 67.7c0 .16 0 .33.07.49-.03-.19-.05-.33-.07-.49zM21.94 475zM.19 425.27c0-.44-.07-.87-.09-1.32.02.45.06.88.09 1.32zm65.41 73.41zm-55.8-40.3c-.33-.59-.63-1.2-.94-1.8.31.6.61 1.21.94 1.8z" fill="#835069"/><path d="M22.64 475.74l-.7-.74zm10.46 9.06l-.16-.12zm-7.92-6.56l-.67-.64zM65.7 498.7h-.1zm3.58.56zM62.1 498h-.09zm-34.29-17.4l-.6-.52zm2.66 2.2l-.45-.36zm-10.28-9.7c-.24-.26-.47-.53-.7-.8.23.27.51.54.7.8zM1.51 435.5c-.14-.71-.26-1.43-.38-2.15.12.72.24 1.44.38 2.15zM499.13 68.19q.22 1.55.39 3.12-.16-1.57-.39-3.12zM.39 427.86c-.09-.86-.14-1.72-.2-2.59.06.87.11 1.73.2 2.59zM.1 424c-.1-1.36-.1-2.67-.1-4 0 1.33 0 2.64.1 4zm.76 7.71c-.11-.76-.2-1.53-.29-2.3.09.77.18 1.59.29 2.3zM499.91 76.24c0 1.25.09 2.5.09 3.76 0-1.26 0-2.51-.09-3.76zM17.84 470.35l-.65-.84zM499.63 72.42c.09.9.15 1.8.21 2.7-.06-.9-.12-1.8-.21-2.7zM2.34 439.23c-.17-.68-.32-1.37-.47-2.05.13.68.3 1.37.47 2.05zm6.52 17.35c-.26-.5-.53-1-.78-1.52.25.51.52 1.02.78 1.52zm1.55 2.87c-.2-.36-.42-.71-.61-1.07.2.36.41.71.61 1.07zm5.2 8.02l-.53-.75zM5.82 450c-.24-.6-.48-1.19-.71-1.8.23.56.47 1.15.71 1.8zm-1.32-3.54zm-1.16-3.58c-.2-.65-.38-1.31-.56-2 .22.69.36 1.35.56 2zm3.94 10.45c-.26-.56-.52-1.11-.76-1.68.24.57.48 1.12.76 1.68z" fill="#c88a57"/><path d="M499.91 76.24c0-.37-.05-.75-.07-1.12-.06-.9-.12-1.8-.21-2.7 0-.37-.07-.74-.11-1.11q-.16-1.57-.39-3.12c0-.16-.05-.33-.07-.49A80.11 80.11 0 0 0 446.3 4.44v28a6.33 6.33 0 0 1-6.48 6.48h-64.38a6.48 6.48 0 0 1-6.44-6.49V10.19L0 209.72V420c0 1.33 0 2.64.1 3.95 0 .45.06.88.09 1.32.06.87.11 1.73.2 2.59 0 .52.12 1 .18 1.55.09.77.18 1.54.29 2.3.08.55.18 1.09.27 1.64.12.72.24 1.44.38 2.15s.24 1.12.36 1.68.3 1.37.47 2.05.29 1.13.44 1.69.36 1.31.56 2 .34 1.13.52 1.7.42 1.25.64 1.88.4 1.13.61 1.69.47 1.2.71 1.8.46 1.14.7 1.7.5 1.12.76 1.68.52 1.16.8 1.73.52 1 .78 1.52.61 1.21.94 1.8c.19.36.41.71.61 1.07a78.81 78.81 0 0 0 4.67 7.27l.53.75c.51.69 1 1.37 1.58 2l.65.84q.81 1 1.65 1.95c.23.27.46.54.7.8.57.65 1.16 1.28 1.75 1.9l.7.74c.61.63 1.24 1.25 1.87 1.86l.67.64c.67.63 1.34 1.24 2 1.84l.6.52c.73.63 1.46 1.24 2.21 1.84l.45.36c.81.64 1.63 1.27 2.47 1.88l.16.12A79.75 79.75 0 0 0 62 497.94h.09c1.16.26 2.32.5 3.5.71h.1c1.19.21 2.38.4 3.58.56L500 270.37V80c0-1.26 0-2.51-.09-3.76zM369 99.07a6.33 6.33 0 0 1 6.48-6.48h64.35c3.71 0 6.95 3.24 6.49 6.48v55.56a6.33 6.33 0 0 1-6.49 6.48h-64.39a6.48 6.48 0 0 1-6.46-6.46V99.54zm77.3 123.15v55.56a6.33 6.33 0 0 1-6.48 6.48h-64.38a6.48 6.48 0 0 1-6.44-6.46v-55.58a6.33 6.33 0 0 1 6.48-6.48h64.36c3.68 0 6.92 3.26 6.46 6.48z" fill="#c88a57"/><path d="M439.81 92.59h-64.35a6.33 6.33 0 0 0-6.46 6.48v.47h63.89a6.33 6.33 0 0 1 6.48 6.48v55.09h.46a6.33 6.33 0 0 0 6.49-6.48V99.07c.44-3.24-2.8-6.48-6.51-6.48zm.01 123.15h-64.36a6.33 6.33 0 0 0-6.48 6.48v.47h63.89a6.33 6.33 0 0 1 6.48 6.48v55.09h.47a6.33 6.33 0 0 0 6.48-6.48v-55.56c.46-3.22-2.78-6.48-6.48-6.48zm-.47-213.37c1.95.48 3.87 1 5.76 1.67" fill="#5b2942"/><path d="M439.54 38.89h.28a6.33 6.33 0 0 0 6.48-6.48v-28q-3.41-1.19-6.95-2.07v36.55z" fill="#5b2942"/><path d="M325 272H17v131a80 80 0 0 0 80 80h228z" fill="#f7e2ca"/><path fill="#77b227" d="M214.81 285.78l-59.72 165.28-28.24-88.89H83.33L130.56 483h56.94l73.61-197.22h-46.3z"/><path d="M325 227l-308 1V97a80 80 0 0 1 80-80h228z" fill="#f7e2ca"/><path d="M164.35 137.83c-4.63 11.58-12 23.61-32.41 27.78l-3.24.46v37h4.17c19.45-.92 34.26-6.94 47.22-19.91s23.61-32.87 34.26-62.5l38.43-103.2h-44.45l-19.44 54.63L171.3 17h-41.21l34.73 88.89a44.7 44.7 0 0 1-.47 31.94z" fill="#77b227"/><path d="M439.81 338.89h-64.35a6.33 6.33 0 0 0-6.48 6.48v.46a6.48 6.48 0 0 1 6.46-6.42h64.08a6.48 6.48 0 0 1 6.46 6.46V401a6.49 6.49 0 0 1-6.44 6.46h.27a6.34 6.34 0 0 0 6.49-6.49v-55.6c.46-3.24-2.78-6.48-6.49-6.48z" fill="#5b2942"/></svg>