<?xml version="1.0" encoding="utf-8"?>
<!-- Generator: Adobe Illustrator 18.1.1, SVG Export Plug-In . SVG Version: 6.00 Build 0)  -->
<!DOCTYPE svg PUBLIC "-//W3C//DTD SVG 1.1//EN" "http://www.w3.org/Graphics/SVG/1.1/DTD/svg11.dtd" [
	<!ENTITY ns_flows "http://ns.adobe.com/Flows/1.0/">
	<!ENTITY ns_extend "http://ns.adobe.com/Extensibility/1.0/">
	<!ENTITY ns_ai "http://ns.adobe.com/AdobeIllustrator/10.0/">
	<!ENTITY ns_graphs "http://ns.adobe.com/Graphs/1.0/">
]>
<svg version="1.1" xmlns:x="&ns_extend;" xmlns:i="&ns_ai;" xmlns:graph="&ns_graphs;"
	 xmlns="http://www.w3.org/2000/svg" xmlns:xlink="http://www.w3.org/1999/xlink" xmlns:a="http://ns.adobe.com/AdobeSVGViewerExtensions/3.0/"
	 x="0px" y="0px" viewBox="0 0 500 500" enable-background="new 0 0 500 500" xml:space="preserve">
<g id="BG">
	<path fill="#B5DCF3" d="M500,450H60c-33.1,0-60-26.9-60-60V60C0,26.9,26.9,0,60,0h380c33.1,0,60,26.9,60,60V450z"/>
</g>
<g id="BG_dark">
	<g>
		<path fill="#97BED1" d="M500,60c0-33.1-26.9-60-60-60H246.8v450H500V60z"/>
	</g>
</g>
<g id="bullets">
	<g>
		<circle fill="#F49A00" cx="346.9" cy="227.8" r="73.7"/>
		<circle fill="#ED261F" cx="204.3" cy="225.1" r="73.7"/>
	</g>
	<g>
		<path fill="#FEC228" d="M310,291.7c-35.3-20.4-47.4-65.5-27-100.7s65.5-47.4,100.7-27"/>
		<path fill="#FF4E47" d="M167.4,288.9c-35.3-20.4-47.4-65.5-27-100.7s65.5-47.4,100.7-27L167.4,288.9z"/>
		<circle fill="#77B227" cx="278.8" cy="123.3" r="85.3"/>
		<path fill="#9FDA4F" d="M236.1,197.1c-40.8-23.5-54.7-75.7-31.2-116.5s75.7-54.7,116.5-31.2"/>
	</g>
</g>
<g id="cart">
	<g id="Wagentje">
		<g>
			<path fill="#5B2942" d="M346.8,419.8c-16.7,0-30.2,13.6-30.2,30.2s13.6,30.2,30.2,30.2S377,466.7,377,450
				S363.4,419.8,346.8,419.8z"/>
			<path fill="#5B2942" d="M192.8,419.8c-16.7,0-30.2,13.6-30.2,30.2s13.6,30.2,30.2,30.2S223,466.7,223,450
				S209.5,419.8,192.8,419.8z"/>
		</g>
		<polygon fill="#5B2942" points="482.4,159.7 435.3,159.7 389.2,285.3 164.6,285.3 102.1,100.3 19,100.3 19,138.3 67.6,138.3 
			158.1,402.3 373,402.3 373,367.3 192.6,367.3 180.3,331.3 420.6,331.3 		"/>
	</g>
</g>
</svg>
