<svg xmlns="http://www.w3.org/2000/svg" role="img" aria-hidden="true" viewBox="0 0 500 500" focusable="false"><path d="M80 0h340a80 80 0 0 1 80 80v420H80a80 80 0 0 1-80-80V80A80 80 0 0 1 80 0z" fill="#b5dcf3"/><path d="M420 0H246.44v500H500V80a80 80 0 0 0-80-80z" fill="#97bed1"/><circle cx="344.23" cy="226.47" r="72.21" fill="#f49a00"/><circle cx="204.56" cy="223.81" r="72.21" fill="#ed261f"/><path d="M308.12 289a72.21 72.21 0 0 1 72.21-125.07" fill="#fec228"/><path d="M168.46 286.35a72.21 72.21 0 1 1 72.21-125.08z" fill="#ff4e47"/><circle cx="277.5" cy="124.13" r="83.48" fill="#77b227"/><path d="M235.76 196.42a83.47 83.47 0 1 1 83.48-144.58" fill="#9fda4f"/><circle cx="344.1" cy="438.01" r="29.58" fill="#5b2942"/><circle cx="193.34" cy="438.01" r="29.58" fill="#5b2942"/><path fill="#5b2942" d="M476.85 155.8h-46.11l-45.15 122.96H165.72L104.51 97.61H23.15v37.2h47.54l88.68 258.5h210.39v-34.27H193.15l-12.11-35.25h235.32l60.49-167.99z"/></svg>