<svg xmlns="http://www.w3.org/2000/svg" viewBox="0 0 500 500"><path fill="#B5DCF3" d="M500 450H60c-33.1 0-60-26.9-60-60V60C0 26.9 26.9 0 60 0h380c33.1 0 60 26.9 60 60v390z"/><path fill="#97BED1" d="M500 60c0-33.1-26.9-60-60-60H246.8v450H500V60z"/><circle fill="#F49A00" cx="346.9" cy="227.8" r="73.7"/><circle fill="#ED261F" cx="204.3" cy="225.1" r="73.7"/><path fill="#FEC228" d="M310 291.7c-35.3-20.4-47.4-65.5-27-100.7s65.5-47.4 100.7-27"/><path fill="#FF4E47" d="M167.4 288.9c-35.3-20.4-47.4-65.5-27-100.7s65.5-47.4 100.7-27l-73.7 127.7z"/><circle fill="#77B227" cx="278.8" cy="123.3" r="85.3"/><path fill="#9FDA4F" d="M236.1 197.1c-40.8-23.5-54.7-75.7-31.2-116.5s75.7-54.7 116.5-31.2"/><path d="M346.8 419.8c-16.7 0-30.2 13.6-30.2 30.2s13.6 30.2 30.2 30.2S377 466.7 377 450s-13.6-30.2-30.2-30.2zm-154 0c-16.7 0-30.2 13.6-30.2 30.2s13.6 30.2 30.2 30.2S223 466.7 223 450s-13.5-30.2-30.2-30.2zm289.6-260.1h-47.1l-46.1 125.6H164.6l-62.5-185H19v38h48.6l90.5 264H373v-35H192.6l-12.3-36h240.3z" fill="#5B2942"/></svg>