<svg role="img" aria-hidden="true" xmlns="http://www.w3.org/2000/svg" viewBox="0 0 500 500" focusable="false"><path fill="#63aec9" d="M80 0h340a80 80 0 0 1 80 80v420H80a80 80 0 0 1-80-80V80A80 80 0 0 1 80 0z"/><path fill="#fff" d="M420 0H80A80 80 0 0 0 0 80v340a80 80 0 0 0 80 80h75.89L437.61 2" opacity=".13"/><path fill="#fff" d="M46.1 337.3v34.9c21.6-.9 38.5-8 52.8-22.5s27.4-38 39.9-72.9l92.6-248h-44.8L112 236 75 119.8H34l54.4 139.8a57.54 57.54 0 0 1 0 41.8c-5.5 14.2-15.4 30.9-42.3 35.9z" opacity=".3"/><path fill="#f29000" d="M328.88 117.37c12.09 12.63 8.72 24.41 5.06 40.69-.25-4.33-3.58-7.82-6.11-11.67-4.21-6.43-.91-7.32-5-13.86-1.57-2.54-4.41-5.55-5-8.46 2.29-.77 4.37-2.65 6.57-3.73 1.6-.77 4.6-1.52 4.48-2.97z"/><path fill="#fcf8df" d="M344.55 500H201.21s-8.76-114.19-7.88-226.65l110.14 2.76C350.87 373.13 344.55 500 344.55 500z"/><path fill="#bf272d" d="M143.94 500H221c-.86-14.5 10.81-79.9-12.67-180.65-3.51-26.6-12.21-24.82-11.6-38.3l86.09 4.73c18.67 13.27 17.47 48.22 17.47 48.22 10.36 57.22 18.47 104.68 17.57 166h51.07s-.49-87.52-43.63-228.59l-81.65-22.09L137.94 313l2.87 31.55c18.64 81.8.98 136.8 3.13 155.45z"/><path fill="#72151d" d="M173.16 335.82c-8.36-11.16-18.75-85.21 55.14-94.5 79.65-10 100.25 46 94.67 64.55-13.94-22.31-11.27-3-15.77 0-2.79 1.85-6.31 29.22-6.31 29.22-2.37-16 .6-42.65-32.42-57.91l-44.51.08c-16.83 11.42-22.27 42.54-16.83 65-4.62-8.12-12.15-18.27-18.79-27.86 0 .04-4.95-3.68-15.18 21.42z"/><path fill="#facf9f" d="M267.85 334c12.67-1.58 25.14-10.47 28.38-23.43 2.71-10.81-15.77-27-15.77-27l.72-11.67s-60-56.65-59.15-53.32-4.2 58.23-4.2 58.23-13.33 13.11-11.26 30.19c3.6 29.74 46.86 28.84 61.28 27z"/><path fill="#f0a962" d="M262 296.07c14.71 1.41 19-13.49 19.8-20.15-11.78-3.55-23.09-20.27-32.35-28.71-8.26-7.52-13.56-17.29-21.72-24.46-1.92 29.58 16.79 71.66 34.27 73.32z"/><path fill="#facf9f" d="M317.84 112c1.66 5.83 26.55 40.55 24.05 69.71 12.46 40.78-15 57.15-20 80.73-3.61 17.12-24.87 19.73-45.06 13.07-43.71-14.42-49.56-52.72-49.56-52.72l-24.43-82.47L242 98.63z"/><path fill="#fabe00" d="M332.83 81.13S364.49 127 318.67 132c-33.29 3.63-47.49-24.16-83.31-5 15 15.83 9.16 21.66 9.16 21.66s-5.75-5.41-18.35-3c13.33 5 15.85 12.16 13.35 21.32-15 3.33-.51 44.36-.51 44.36s-8.48 10.17-10.32-3.54c-6.16-19.24-28.7-22.4-28.7-22.4s-14.34-22-12.67-39.52 9.44-20 9.44-20-16.66-3.61-16.66-11.11c9.16 2.5 17.77-6.11 17.77-6.11s1.67-11.1-11.66-16.1c10.55-3.89 24.43 2.77 24.43 2.77s36.38-29.15 84.7 0c15.28-5 7-16.66 3.34-22.49C308 73.65 319 92 317 103.63c17.5 5.83 15.83-22.5 15.83-22.5z"/><path fill="#facf9f" d="M226.11 200.77c4.07 12.46 6.24 22.93-2.07 25.65s-23.95-3.36-28-15.82-.63-24.77 7.68-27.49 18.28 5.19 22.39 17.66z"/><path fill="#f0a962" d="M311 209.48c4.27-.55 11.32-2.56 13.11-7.84 2.09-6.15-12-13.4-10.91-15.35 7-10.61-2.73-15.53-7-17.72 7.3-.11 15.36 9.52 10.78 17.7 6.06 1.61 15.07 8.95 11.4 16.55-3.01 6.18-9.63 6.92-17.38 6.66z"/><path fill="#fff" d="M293.08 180.28s2.13-13.61-10.37-13.61-18.53 13.61-18.53 13.61c6.94 4.45 21.36 7.54 28.9 0z"/><path fill="#000001" d="M293.13 180.26c-1.18-3.82-2.17-7.2-4-9.34a7.08 7.08 0 0 0-3.45-2.23 14.36 14.36 0 0 0-4.72-.35 18.12 18.12 0 0 0-9.22 3.93 38 38 0 0 0-4 3.66 41.78 41.78 0 0 0-3.49 4.37l-.12-.05a30.19 30.19 0 0 1 6.59-9.08 18.37 18.37 0 0 1 9.95-5 14.73 14.73 0 0 1 5.61.27 8.74 8.74 0 0 1 4.68 3 11.65 11.65 0 0 1 2.17 5.16 19 19 0 0 1 .14 5.63z"/><ellipse cx="276.85" cy="176.94" fill="#000001" rx="4.98" ry="4.92"/><path fill="#fabe00" d="M292.08 144.17c3.88 1.45 5.63 7.71.73 9.45-17-8.24-26.16 2.32-31.26 4.6-3.88 1.74.24-7 .24-7 3.21-6.38 14.54-10.93 30.29-7.05zM319 154.59c-6.89 1.25-4.6-8-1.34-9.06 8.71-1.61 18.36-1.33 20.49 6.63s.73 6.06.73 6.06c-7.34-8.15-14.51-4.61-19.88-3.63z"/><path fill="#f0a962" d="M211.77 191.26c3.74 1.47 6.7 5.41 9 8.56 2.6 3.59.73 7.52 2.36 11.19-.46-1.91-1.86-8-4.06-7.92-8.42.44-2.14 9-2.06 9.34-10.94-15.52 1.45-16.29-6.25-18.81-5.26-1.72-13.18 2.73-9.43 9-2.97-13.33 6.82-12.78 10.44-11.36z"/><circle cx="278.84" cy="175.45" r="1.81" fill="#fff"/><path fill="#c9660d" d="M304.57 234.24c-28.16-2.48-44.13-10-47.56-12.24 1.8-.79 2.7-2.63 4.2-3.83-6.95.07-10.48 4.13-7.78 10.89 2.74-2.25.28-2.94 3.16-5.09 5.28 5.93 19.82 10.95 47.74 11.2.67-.03 1.25-.76.24-.93z"/><path fill="#bf272d" d="M140.19 312.14c-33.36 13.86-72.81 167.29-77.37 186A80.39 80.39 0 0 0 80 500h51.78c67.33-112.67 30.22-196.91 8.41-187.86z"/><path fill="#fff" d="M321.17 181.31c0-.83.42-13.95 10.21-13.12s10 12.29 10 12.29c-6.26 4.52-13.12 3.72-20.21.83z"/><path fill="#0b0d0d" d="M321.05 181.31a15.36 15.36 0 0 1 .82-9.53 9.55 9.55 0 0 1 3.43-4.19 9.4 9.4 0 0 1 5.4-1.52 11.82 11.82 0 0 1 5.22 1.3 9.91 9.91 0 0 1 3.92 3.64 13 13 0 0 1 1.65 9.47h-.24a15.49 15.49 0 0 0-2.88-8.35 9.51 9.51 0 0 0-7.7-3.7 7.67 7.67 0 0 0-7.17 4.26 19.65 19.65 0 0 0-2.21 8.62z"/><circle cx="326.42" cy="176.94" r="4.58" fill="#000001"/><circle cx="327.91" cy="175.57" r="1.81" fill="#fff"/><path fill="#bf272d" d="M323.94 270.74c33.57 9.23 46 33.66 54.14 36.39s45.47 10.27 58.27 15.36c15.19 6 42.68 47.76 26.74 55.26-20.42 9.61-55.87-11.87-114.14-9.47L335.43 316z"/><path fill="#bf272d" d="M408.58 295.59c24.63-22.68 94.16 5.7 79.6 60.23-5.86 21.93-49.12 36.34-62.18 9.91-13-26.26-33.64-49.41-17.42-70.14z"/><path fill="#d2d700" d="M427.83 438.65h55.68v57.47h-55.68z"/><path fill="#fab900" d="M344.58 406.78h88.88v89.33h-88.88z"/><path fill="#ffec00" d="M274.09 431.75h88.88v64.36h-88.88z"/><path fill="#6e6e6d" d="M368 392.91a2.55 2.55 0 0 1-2.44-1.8l-25-82h20.27a2.56 2.56 0 0 1 0 5.11h-13.39l23 75.4a2.55 2.55 0 0 1-1.7 3.18 2.43 2.43 0 0 1-.74.11z"/><path fill="#c9660d" d="M387.1 328.78c1.8 3.91 1.55 8.63-.6 9-5.11.91-6.17-2-12-3.6-4.16-1.12-3.6.9-11.41-2.1-3.67-1.41-7.95-1.45-9.61-5.41-.73-1.73-.13-2.49-1.21-4.2-.75-1.21-3.1-7.81-3.75-9.17-1-2.08 6.76-14.41 9.16-13.66 5.73 1.79.23 5.54 7.15 4.17 2.73-.54 6.06.28 8.7.85 2.85.62 9 1.14 11.09 3.31 4 4.11-8.62 6.79-5 11.79 1.52 2.17 7.18 5.72 7.48 9.02z"/><path fill="#6e6e6d" d="M311.85 393.52a2.62 2.62 0 0 1-.82-.14 2.54 2.54 0 0 1-1.59-3.24l27-79.3a2.54 2.54 0 0 1 2.42-1.73h21.93a2.56 2.56 0 0 1 0 5.11h-20.08l-26.44 77.57a2.55 2.55 0 0 1-2.42 1.73z"/><path fill="#72151d" d="M414.73 290.94c7.21-3 25.24-2.41 30 7.2s1.8 26.44-2.4 32.45-28.78 2.25-32.41-5.49-2.4-31.16 4.81-34.16z"/><path fill="#facf9f" d="M429.15 296.34s-42.64-14.07-52.26-16.22c-11.61 4-7.9 0-12.17-.45-2.94-.31-6.18 1.85-8.11 4.06-2.95 3.36-7.42 6.23-11.47 9-3.29 2.25-2.45 11.49-3.87 20.38-.36 2.27 6.27 11.25 6.27 11.25a5.8 5.8 0 0 0 7.2 2.81c5-1.68-2.16-13.38-2.16-13.38l2.42-10.37 2.57-4.42s-2 19.54-.35 22.95 8.15 6.57 8.15 6.57l5.33-2.54s2.16 4.55 6.85 3.71a29.6 29.6 0 0 0 9.15-3.65s5.95 6.28 10.31 6.29 12.1-5.1 14.53-7.65.9-10.77.9-10.77c-.9 5.86 7.33 7 18.47-.45 7.09-5.59 4.6-14.35-1.76-17.12z"/><path fill="#c9660d" d="M416.74 311.3c.69.06-.13 1.05-.82 1.09-3.87.22-5.4-.1-9.26.12 2-.58 1.79 1.62 2.4 3.58s.13 4.1-.34 6.13a48.28 48.28 0 0 0-1.59-5.52c-.29-.81-.71-1.71-1.57-1.92s-.67-1.25-1.3-.77a16.62 16.62 0 0 0-5.57 9.58c.61-3.88 1-7.79 1.3-11.7.18-2.79 0-6.15-2.51-7.46 6.84 8.62 9.35 5.83 16.09 7.21m-27.46 15.26c.65-7.19.65-19.55-1.22-26.45-1.31 7.5-1.2 20.19 1.2 27.32m-16.4-34.18c-.48 2.09-2.91 27.4.35 33.71 1-6.91.74-27.46.35-35.57-.01 0-.68 1.77-.7 1.86z"/><path fill="#b0b1b2" d="M500 387.49H240.45L267.21 500H492.9l7.16-39zM262.87 456.7h15.06l3.4 18.56h-14.05zm37.24-21.45h17.31l3.4 18.55H303.5zm.45 18.55h-20.22L277 435.25h20.21zM500 410.9h-25.59v-17.62H500zm-28.49 0H455v-17.62h16.52zm-130.88 24.35h14.42v18.55H344zm.45 18.55h-17.32l-3.39-18.55h17.32zM358 435.25h16.51v18.55H358zm19.41 0h16.51v18.55h-16.56zm35.92 18.55h-16.57v-18.55h16.52zm2.89-18.55h16.52v18.55h-16.57zm-2.89 21.45v18.56h-16.57V456.7zm2.89 0h16.52v18.56h-16.57zm19.41 0h16.47v18.56h-16.52zm0-2.9v-18.55h16.47v18.55zm0-21.45v-18.56h16.47v18.56zm-2.89 0h-16.57v-18.56h16.52zm-19.41 0h-16.57v-18.56h16.52zm-19.41 0h-16.56v-18.56h16.51zm0 24.35v18.56h-16.56V456.7zm0 21.45v16h-16.56v-16zm2.89 0h16.52v16h-16.57zm19.41 0h16.52v16h-16.57zm19.41 0h16.47v16h-16.52zm19.41 0h16.52v16H455zm0-2.89V456.7h16.52v18.56zm0-21.46v-18.55h16.52v18.55zm0-21.45v-18.56h16.52v18.56zm-2.94-21.45h-16.52v-17.62h16.52zm-19.41 0h-16.52v-17.62h16.52zm-19.41 0h-16.52v-17.62h16.52zm-19.41 0h-16.51v-17.62h16.51zm-19.41 0H358v-17.62h16.51zm0 2.89v18.56H358v-18.56zm-19.41 18.56H340.1l-3.39-18.56h18.34zm-17.89 0h-17.32l-3.4-18.56h17.32zm-20.27 0h-17.31l-3.4-18.56h17.32zm4.46 24.35l3.39 18.56h-17.32L304 456.7zm2.94 0h17.32l3.39 18.56h-17.32zm20.26 0h10.5v18.56H348zm13.4 0h16.51v18.56H358zm16.51 21.45v16H358v-16zm100 16v-16H491l-2.94 16zm17.15-18.93h-17.2V456.7H495zm-17.2-21.42v-18.55h24.49l-3.41 18.55zm0-21.45v-18.56H500v15.47l-.57 3.09zm-119.36-39.07v17.62h-18.87L333 393.28zm-21.82 17.62h-17.32l-3.22-17.62H330zm-20.26 0h-17.32l-3.22-17.62h17.32zm-20.26 0H272.5l-3.23-17.62h20.22zm.53 2.89l3.39 18.56h-20.21L273 413.79zm-19.76 18.56h-16.41l-4.41-18.56h17.42zm.53 2.9l3.39 18.55h-15.22l-4.42-18.55zm6.86 21.45h20.22l3.39 18.56h-20.21zM305 478.15l2.93 16h-20.2l-2.93-16zm2.94 0h17.32l2.93 16h-17.3zm20.26 0h17.32l2.94 16h-17.31zm20.27 0h6.57v16h-3.64zm-82.15-84.87l3.22 17.62H252l-4.19-17.62zm1.68 84.87h13.88l2.94 16h-13z"/><path fill="#6e6e6d" d="M454.83 393.52a2.56 2.56 0 0 1-2.39-1.67l-29-77.63h-20.12a2.56 2.56 0 1 1 0-5.11h21.93a2.55 2.55 0 0 1 2.39 1.66l29.59 79.3a2.55 2.55 0 0 1-1.5 3.28 2.61 2.61 0 0 1-.9.17z"/><path fill="#9b9b9b" d="M393.56 392.91a2.54 2.54 0 0 1-2.42-3.37l25.44-75.32h-10.71a2.56 2.56 0 0 1 0-5.11h14.27a2.56 2.56 0 0 1 2.42 3.37L396 391.18a2.56 2.56 0 0 1-2.44 1.73z"/></svg>