<svg xmlns="http://www.w3.org/2000/svg" viewBox="0 0 500 500"><path fill="#7EADB9" d="M500 452.3H60c-33.1 0-60-26.9-60-60v-330c0-33.1 26.9-60 60-60h380c33.1 0 60 26.9 60 60v390z"/><path fill="#568591" d="M500 452.3H265V2.3h175c33.1 0 60 26.9 60 60v390z"/><path fill="#5B2942" d="M325 497.7H175c-38.5 0-70-31.5-70-70v-320c0-38.5 31.5-70 70-70h150c38.5 0 70 31.5 70 70v320c0 38.5-31.5 70-70 70z"/><path fill="none" stroke="#7EADB9" stroke-width="13" stroke-miterlimit="10" d="M317 471.2H183c-27.5 0-50-22.5-50-50v-307c0-27.5 22.5-50 50-50h134c27.5 0 50 22.5 50 50v307c0 27.5-22.5 50-50 50z"/><circle fill="#F49A00" cx="250" cy="267.7" r="55"/><circle fill="#ED261F" cx="250" cy="144.4" r="55"/><circle fill="#77B227" cx="250" cy="391" r="55"/><path fill="#FEC228" d="M222.5 315.3c-26.3-15.2-35.3-48.8-20.1-75.1 15.2-26.3 48.8-35.3 75.1-20.1"/><path fill="#FF4E47" d="M222.5 192c-26.3-15.2-35.3-48.8-20.1-75.1 15.2-26.3 48.8-35.3 75.1-20.1l-55 95.2z"/><path fill="#9FDA4F" d="M222.5 438.7c-26.3-15.2-35.3-48.8-20.1-75.1 15.2-26.3 48.8-35.3 75.1-20.1"/></svg>