<svg width="235" height="123" xmlns="http://www.w3.org/2000/svg" role="img" aria-hidden="true" focusable="false"><g fill="none"><path fill="#A4286A" d="M0 0h146.468v122.923H0z"/><path fill="#6C2548" d="M142.537 0L72.85 122.923H235V0z"/><path d="M54.457 81.437v8.496c5.242-.226 9.355-1.944 12.834-5.469 3.48-3.525 6.644-9.219 9.717-17.715L99.513 6.508H88.577L70.455 56.807l-8.993-28.2h-9.943l13.242 33.94c1.265 3.253 1.265 6.868 0 10.167-1.401 3.435-3.797 7.502-10.304 8.723z" fill="#FFF"/><path d="M137.52 8.722l-23.274 41.17c11.208 6.689 25.76 3.028 32.448-8.18 6.689-11.207 3.028-25.76-8.18-32.448-.09-.045-.226-.135-.316-.18l-.678-.362z" fill="#77B227"/><path d="M105.253 17.67c-6.417 11.343-2.395 25.76 8.948 32.177l23.274-41.17c-11.343-6.417-25.76-2.44-32.177 8.903l-.045.09z" fill="#9FDA4F"/><path d="M107.92 60.829L92.69 87.763c7.366 4.294 16.856 1.853 21.15-5.513 4.293-7.366 1.852-16.857-5.514-21.15-.09-.045-.136-.09-.226-.136l-.18-.135z" fill="#F49A00"/><path d="M107.964 60.92c-7.411-4.249-16.856-1.673-21.104 5.739-4.248 7.411-1.672 16.856 5.739 21.104l.09.046 15.275-26.89z" fill="#FEC228"/><path d="M85.685 100.237l-9.13 16.178c4.565 2.35 10.169.543 12.474-4.022 2.214-4.293.723-9.58-3.344-12.156z" fill="#ED261F"/><path d="M85.685 100.282C81.39 97.48 75.652 98.7 72.85 103.038a9.234 9.234 0 0 0 2.757 12.835l.18.09c.272.181.543.317.814.452l9.084-16.133z" fill="#FF4E47"/></g></svg>