<svg xmlns="http://www.w3.org/2000/svg" viewBox="0 0 500 522" role="img" aria-hidden="true" focusable="false"><defs><clipPath id="a" transform="translate(0 15.84)"><path d="M214.89 403.32l-7.17-4.05L196 411.76l-6.81-.73-8.19-14.71-8 2.35.3 17.05-5.45 4.33-16.33-4.47-4.1 7.28 12.25 11.59-.86 6.87-14.81 8.56 2.15 8 16.92-.61 4.2 5.38-4.73 16.35 7.17 4.05 11.73-12.49 6.81.73 8.24 14.71 8-2.35-.3-17 5.46-4.33 16.28 4.32 4.1-7.28-12.24-11.59.85-6.87 14.79-8.55-2.16-8-16.92.62-4.2-5.39zM203 449.12a16.59 16.59 0 0 1-22.46 6.52 16.35 16.35 0 0 1-6.06-22.44 16.65 16.65 0 0 1 22.45-6.52 16.35 16.35 0 0 1 6.07 22.44z" fill="none"/></clipPath><clipPath id="b" transform="translate(0 15.84)"><path d="M338.15 291.36l-3.69-12.66-27.46 1.08-6.86-8.44 7.23-26.12-11.71-6.35-18.82 19.89-11-1.19-13.68-23.29-12.91 3.79.9 27-8.68 6.83-26.53-6.79-6.58 11.55 20 18.23-1.36 10.82-23.88 13.6 3.72 12.69 27.47-1.08 6.86 8.44-7.23 26.12 11.71 6.35 18.82-19.89 11 1.19 13.68 23.28 12.91-3.78-.9-27 8.68-6.83 26.53 6.79 6.58-11.55-20-18.23 1.3-10.86zM273 330.53c-14.16 4.11-28.94-3.82-33-17.73s4.23-28.41 18.4-32.52 28.94 3.81 33 17.72-4.25 28.41-18.4 32.53z" fill="none"/></clipPath><clipPath id="c" transform="translate(0 15.84)"><path d="M450.3 180.81l8.7-15.31-26.85-25.08 1.59-14.56 31.71-17.65-4.93-17.15-36.59.66-9.28-11.66 9.47-34.81-15.66-8.78-25 26-14.8-1.85-18.31-31.7-17.23 4.62 1.39 36.23L323 78.68l-35.45-10L278.8 84l26.85 25.08-1.59 14.57-31.71 17.65 4.93 17.14 36.59-.65 9.28 11.65-9.32 34.77L329.5 213l25-26 14.81 1.86 18.3 31.69 17.2-4.55-1.38-36.23L415 170.8zm-98.51-25.51c-17.23-9.69-23.52-31.3-13.86-48 9.46-16.85 31.19-22.67 48.27-12.94 17.24 9.69 23.53 31.3 13.87 48-9.46 16.85-31.07 22.64-48.28 12.94z" fill="none"/></clipPath></defs><path d="M436.82 19.9A90 90 0 0 0 410 15.84H90a90 90 0 0 0-90 90v270a90 90 0 0 0 90 90h410v-360a90 90 0 0 0-63.18-85.94z" fill="#008578"/><path d="M436.8 19.94l-252.7 445.9H500v-360a90 90 0 0 0-63.2-85.9z" fill="#005d50"/><path d="M74.4 355.14v34.9c21.6-.9 38.5-8 52.8-22.5s27.4-38 39.9-72.9l92.6-248h-44.8l-74.6 207.2-37-116.2h-41l54.4 139.8a57.54 57.54 0 0 1 0 41.8c-5.5 14.2-15.4 30.9-42.3 35.9z" fill="#fff"/><g fill="#008578"><circle cx="367.46" cy="144.56" r="47.35"/><circle cx="267.18" cy="319.33" r="31.23"/><ellipse cx="192.45" cy="458.04" rx="20.2" ry="20.84"/></g><path d="M214.89 419.16l-7.17-4.05L196 427.6l-6.81-.73-8.19-14.71-8 2.35.3 17.05-5.45 4.33-16.33-4.47-4.1 7.28 12.25 11.59-.86 6.87-14.81 8.56 2.15 8 16.92-.61 4.2 5.38-4.73 16.35 7.17 4.05 11.73-12.49 6.81.73 8.24 14.71 8-2.35-.3-17 5.46-4.33 16.28 4.32 4.1-7.28-12.24-11.59.85-6.87 14.79-8.55-2.16-8-16.92.62-4.2-5.39zM203 464.96a16.59 16.59 0 0 1-22.46 6.52 16.35 16.35 0 0 1-6.06-22.44 16.65 16.65 0 0 1 22.45-6.52 16.35 16.35 0 0 1 6.07 22.44z" fill="#ed261f"/><g clip-path="url(#a)"><path fill="#ff4e47" d="M227.89 389.09L150.95 522l-27.92-106.44 105.18-25.4-.32-1.07z"/></g><path d="M338.15 307.2l-3.69-12.66-27.46 1.08-6.86-8.44 7.23-26.12-11.71-6.35-18.82 19.89-11-1.19-13.68-23.29-12.91 3.79.9 27-8.68 6.83-26.53-6.79-6.58 11.55 20 18.23-1.36 10.82-23.88 13.6 3.72 12.69 27.47-1.08 6.86 8.44-7.23 26.12 11.71 6.35 18.82-19.89 11 1.19 13.68 23.28 12.91-3.78-.9-27 8.68-6.83 26.53 6.79 6.58-11.55-20-18.23 1.3-10.86zM273 346.37c-14.16 4.11-28.94-3.82-33-17.73s4.23-28.41 18.4-32.52 28.94 3.81 33 17.72-4.25 28.41-18.4 32.53z" fill="#f49a00"/><g clip-path="url(#b)"><path fill="#fec228" d="M320.6 224.05L209.78 419.88l-56.16-171.22 166.98-24.61z"/></g><path d="M450.3 196.65l8.7-15.31-26.85-25.08 1.59-14.56 31.71-17.65-4.93-17.15-36.59.66-9.28-11.66 9.47-34.81-15.66-8.78-25 26-14.8-1.85-18.31-31.7-17.23 4.62 1.39 36.23L323 94.52l-35.45-10-8.75 15.32 26.85 25.08-1.59 14.57-31.71 17.65 4.93 17.14 36.59-.65 9.28 11.65-9.32 34.77 15.67 8.79 25-26 14.81 1.86 18.3 31.69 17.2-4.55-1.38-36.23 11.57-8.97zm-98.51-25.51c-17.23-9.69-23.52-31.3-13.86-48 9.46-16.85 31.19-22.67 48.27-12.94 17.24 9.69 23.53 31.3 13.87 48-9.46 16.85-31.07 22.64-48.28 12.94z" fill="#77b227"/><g clip-path="url(#c)"><path fill="#9fda4f" d="M447.85 0L280.9 294.61l-51.19-251.3L447.85 0z"/></g></svg>