<svg xmlns="http://www.w3.org/2000/svg" xmlns:xlink="http://www.w3.org/1999/xlink" viewBox="0 0 500 522"><defs><clipPath id="c0bc5256-0cf9-4d68-80b0-8188b8b0a6b7" transform="translate(0 15.84)"><path d="M214.89,403.32l-7.17-4.05L196,411.76l-6.81-.73L181,396.32l-8,2.35.3,17.05-5.45,4.33-16.33-4.47-4.1,7.28,12.25,11.59-.86,6.87L144,449.88l2.15,8,16.92-.61,4.2,5.38L162.54,479l7.17,4.05,11.73-12.49,6.81.73L196.49,486l8-2.35-.3-17,5.46-4.33,16.28,4.32,4.1-7.28-12.24-11.59.85-6.87,14.79-8.55-2.16-8-16.92.62-4.2-5.39ZM203,449.12a16.59,16.59,0,0,1-22.46,6.52,16.35,16.35,0,0,1-6.06-22.44,16.65,16.65,0,0,1,22.45-6.52A16.35,16.35,0,0,1,203,449.12Z" fill="none"/></clipPath><clipPath id="a95ee452-e671-4e3f-99a1-4c894426f31e" transform="translate(0 15.84)"><path d="M338.15,291.36l-3.69-12.66L307,279.78l-6.86-8.44,7.23-26.12-11.71-6.35-18.82,19.89-11-1.19-13.68-23.29-12.91,3.79.9,27-8.68,6.83-26.53-6.79-6.58,11.55,20,18.23L217,305.71l-23.88,13.6L196.84,332l27.47-1.08,6.86,8.44-7.23,26.12,11.71,6.35,18.82-19.89,11,1.19,13.68,23.28,12.91-3.78-.9-27,8.68-6.83,26.53,6.79,6.58-11.55-20-18.23,1.3-10.86ZM273,330.53c-14.16,4.11-28.94-3.82-33-17.73s4.23-28.41,18.4-32.52,28.94,3.81,33,17.72S287.15,326.41,273,330.53Z" fill="none"/></clipPath><clipPath id="c8a6f55b-e0e1-4ca6-9791-5199e5e77387" transform="translate(0 15.84)"><path d="M450.3,180.81,459,165.5l-26.85-25.08,1.59-14.56,31.71-17.65-4.93-17.15-36.59.66-9.28-11.66,9.47-34.81-15.66-8.78-25,26-14.8-1.85-18.31-31.7-17.23,4.62,1.39,36.23L323,78.68l-35.45-10L278.8,84l26.85,25.08-1.59,14.57-31.71,17.65,4.93,17.14,36.59-.65,9.28,11.65-9.32,34.77L329.5,213l25-26,14.81,1.86,18.3,31.69L404.81,216l-1.38-36.23L415,170.8ZM351.79,155.3c-17.23-9.69-23.52-31.3-13.86-48,9.46-16.85,31.19-22.67,48.27-12.94,17.24,9.69,23.53,31.3,13.87,48C390.61,159.21,369,165,351.79,155.3Z" fill="none"/></clipPath></defs><title>Config_service_Yoast_SEO</title><g id="a209c797-da4a-454c-b3f5-d612b185ab8d" data-name="Laag 1"><path d="M436.82,4.06A90,90,0,0,0,410,0H90A90,90,0,0,0,0,90V360a90,90,0,0,0,90,90H500V90A90,90,0,0,0,436.82,4.06Z" transform="translate(0 15.84)" fill="#008578"/><path d="M436.8,4.1,184.1,450H500V90A90,90,0,0,0,436.8,4.1Z" transform="translate(0 15.84)" fill="#005d50"/><path id="d2d4d9f2-4d94-4dec-90f4-bad7694583a7" data-name="Y" d="M74.4,339.3v34.9c21.6-.9,38.5-8,52.8-22.5s27.4-38,39.9-72.9l92.6-248H214.9L140.3,238l-37-116.2h-41l54.4,139.8a57.54,57.54,0,0,1,0,41.8C111.2,317.6,101.3,334.3,74.4,339.3Z" transform="translate(0 15.84)" fill="#fff"/></g><g id="b0b7a4df-b2cf-43f3-b8f5-8f6bdcd45184" data-name="radars"><g id="ad11b60d-df59-4cd3-af61-0aa3a9aca13a" data-name="BG radars kopie 2"><circle cx="367.46" cy="144.56" r="47.35" fill="#008578"/><circle cx="267.18" cy="319.33" r="31.23" fill="#008578"/><ellipse cx="192.45" cy="458.04" rx="20.2" ry="20.84" fill="#008578"/></g><g id="d99db9a0-0a73-4bd8-9dc6-da5d0124390e" data-name="red"><g id="2e95b6a1-01d9-481c-b0a4-3023b54241ed" data-name="Layer 2"><path id="dc5adb59-c3f1-4da8-8398-1729071950c8" data-name="&lt;Samengesteld pad&gt;" d="M214.89,403.32l-7.17-4.05L196,411.76l-6.81-.73L181,396.32l-8,2.35.3,17.05-5.45,4.33-16.33-4.47-4.1,7.28,12.25,11.59-.86,6.87L144,449.88l2.15,8,16.92-.61,4.2,5.38L162.54,479l7.17,4.05,11.73-12.49,6.81.73L196.49,486l8-2.35-.3-17,5.46-4.33,16.28,4.32,4.1-7.28-12.24-11.59.85-6.87,14.79-8.55-2.16-8-16.92.62-4.2-5.39ZM203,449.12a16.59,16.59,0,0,1-22.46,6.52,16.35,16.35,0,0,1-6.06-22.44,16.65,16.65,0,0,1,22.45-6.52A16.35,16.35,0,0,1,203,449.12Z" transform="translate(0 15.84)" fill="#ed261f"/><g clip-path="url(#c0bc5256-0cf9-4d68-80b0-8188b8b0a6b7)"><polygon points="227.89 389.09 150.95 522 123.03 415.56 228.21 390.16 227.89 389.09" fill="#ff4e47"/></g></g></g><g id="e23c101d-e09e-45ce-b579-f3542e981574" data-name="yellow"><g id="d2b646cb-7d4b-4f50-a670-ea1fc0fdac8c" data-name="Layer 2"><path id="831aea06-c40b-467c-924c-ef56cd3c1445" data-name="&lt;Samengesteld pad&gt;" d="M338.15,291.36l-3.69-12.66L307,279.78l-6.86-8.44,7.23-26.12-11.71-6.35-18.82,19.89-11-1.19-13.68-23.29-12.91,3.79.9,27-8.68,6.83-26.53-6.79-6.58,11.55,20,18.23L217,305.71l-23.88,13.6L196.84,332l27.47-1.08,6.86,8.44-7.23,26.12,11.71,6.35,18.82-19.89,11,1.19,13.68,23.28,12.91-3.78-.9-27,8.68-6.83,26.53,6.79,6.58-11.55-20-18.23,1.3-10.86ZM273,330.53c-14.16,4.11-28.94-3.82-33-17.73s4.23-28.41,18.4-32.52,28.94,3.81,33,17.72S287.15,326.41,273,330.53Z" transform="translate(0 15.84)" fill="#f49a00"/><g clip-path="url(#a95ee452-e671-4e3f-99a1-4c894426f31e)"><polygon points="320.6 224.05 209.78 419.88 153.62 248.66 320.6 224.05" fill="#fec228"/></g></g></g><g id="1b2f3b13-f5fa-42bc-b7c2-22121c1d915e" data-name="green"><g id="248d8672-c7db-4cac-be84-c4eeddf08c56" data-name="Layer 2"><path id="27e10ab0-ad3c-413a-9441-8c1504aa062f" data-name="&lt;Samengesteld pad&gt;" d="M450.3,180.81,459,165.5l-26.85-25.08,1.59-14.56,31.71-17.65-4.93-17.15-36.59.66-9.28-11.66,9.47-34.81-15.66-8.78-25,26-14.8-1.85-18.31-31.7-17.23,4.62,1.39,36.23L323,78.68l-35.45-10L278.8,84l26.85,25.08-1.59,14.57-31.71,17.65,4.93,17.14,36.59-.65,9.28,11.65-9.32,34.77L329.5,213l25-26,14.81,1.86,18.3,31.69L404.81,216l-1.38-36.23L415,170.8ZM351.79,155.3c-17.23-9.69-23.52-31.3-13.86-48,9.46-16.85,31.19-22.67,48.27-12.94,17.24,9.69,23.53,31.3,13.87,48C390.61,159.21,369,165,351.79,155.3Z" transform="translate(0 15.84)" fill="#77b227"/><g clip-path="url(#c8a6f55b-e0e1-4ca6-9791-5199e5e77387)"><polygon points="447.85 0 280.9 294.61 229.71 43.31 447.85 0" fill="#9fda4f"/></g></g></g></g></svg>