<svg xmlns="http://www.w3.org/2000/svg" viewBox="0 0 425 456.27" fill="#000"><title>Yoast_icon_kader</title><path d="M73,405.26a66.79,66.79,0,0,1-6.54-1.7,64.75,64.75,0,0,1-6.28-2.31c-1-.42-2-.89-3-1.37-1.49-.72-3-1.56-4.77-2.56-1.5-.88-2.71-1.64-3.83-2.39-.9-.61-1.8-1.26-2.68-1.92-1.75-1.31-3.46-2.72-5.08-4.19a69.21,69.21,0,0,1-8.4-9.17c-.92-1.2-1.68-2.25-2.35-3.24-1.23-1.82-2.39-3.72-3.44-5.64a68.29,68.29,0,0,1-8.29-32.55V142.13a68.26,68.26,0,0,1,8.29-32.55c1-1.92,2.21-3.82,3.44-5.64s2.55-3.58,4-5.27A69.26,69.26,0,0,1,48.56,85.42C50.37,84.19,52.27,83,54.2,82A67.59,67.59,0,0,1,73,75.09,68.75,68.75,0,0,1,86.75,73.7H256.41L263,55.39H86.75A86.84,86.84,0,0,0,0,142.13V338.22A86.84,86.84,0,0,0,86.75,425H98.07V406.65H86.75A68.75,68.75,0,0,1,73,405.26Z"/><path d="M368.55,60.85l-1.41-.53L360.73,77.5l1.41.53a68.06,68.06,0,0,1,8.66,4c1.93,1,3.82,2.2,5.65,3.43A69.19,69.19,0,0,1,391,98.67c1.4,1.68,2.72,3.46,3.95,5.27s2.39,3.72,3.44,5.64a68.29,68.29,0,0,1,8.29,32.55V406.65H233.55l-.44.76c-3.07,5.37-6.26,10.48-9.49,15.19L222,425H425V142.13A87.2,87.2,0,0,0,368.55,60.85Z" /><path d="M119.8,408.28v46c28.49-1.12,50.73-10.6,69.61-29.58,19.45-19.55,36.17-50,52.61-96L363.94,1.9H305L206.75,274.79l-48.86-153h-54l71.7,184.18a75.67,75.67,0,0,1,0,55.12C168.29,379.77,155.34,401.75,119.8,408.28Z" stroke="#000" stroke-miterlimit="10" stroke-width="3.81"/></svg>