<?xml version="1.0" encoding="UTF-8"?>
<svg width="235px" height="123px" viewBox="0 0 235 123" version="1.1" xmlns="http://www.w3.org/2000/svg" xmlns:xlink="http://www.w3.org/1999/xlink">
    <title>Product Images/Yoast_SEO</title>
    <g id="Page-1" stroke="none" stroke-width="1" fill="none" fill-rule="evenodd">
        <g id="Product-Images/Yoast_SEO" fill-rule="nonzero">
            <g id="WordPress-plugins-by-Yoast-0" transform="translate(0.000000, -0.000000)">
                <polygon id="Path" fill="#A4286A" points="0 0 146.468269 0 146.468269 122.923077 0 122.923077"></polygon>
                <polygon id="Path" fill="#6C2548" points="142.536538 0 72.85 122.923077 235 122.923077 235 0"></polygon>
                <path d="M54.4567308,81.4365385 L54.4567308,89.9326923 C59.6990385,89.7067308 63.8115385,87.9894231 67.2913462,84.4644231 C70.7711538,80.9394231 73.9346154,75.2451923 77.0076923,66.7490385 L99.5134615,6.50769231 L88.5769231,6.50769231 L70.4548077,56.8067308 L61.4615385,28.6067308 L51.5192308,28.6067308 L64.7605769,62.5461538 C66.0259615,65.8 66.0259615,69.4153846 64.7605769,72.7144231 C63.3596154,76.1490385 60.9644231,80.2163462 54.4567308,81.4365385 Z" id="Path" fill="#FFFFFF"></path>
                <path d="M137.520192,8.72211538 L114.246154,49.8923077 C125.453846,56.5807692 140.005769,52.9201923 146.694231,41.7125 C153.382692,30.5048077 149.722115,15.9528846 138.514423,9.26442308 C138.424038,9.21923077 138.288462,9.12884615 138.198077,9.08365385 L137.520192,8.72211538 Z" id="Path" fill="#77B227"></path>
                <path d="M105.252885,17.6701923 C98.8355769,29.0134615 102.857692,43.4298077 114.200962,49.8471154 L137.475,8.67692308 C126.131731,2.25961538 111.715385,6.23653846 105.298077,17.5798077 L105.252885,17.6701923 L105.252885,17.6701923 Z" id="Path" fill="#9FDA4F"></path>
                <path d="M107.919231,60.8288462 L92.6894231,87.7634615 C100.055769,92.0567308 109.546154,89.6163462 113.839423,82.25 C118.132692,74.8836538 115.692308,65.3932692 108.325962,61.1 C108.235577,61.0548077 108.190385,61.0096154 108.1,60.9644231 L107.919231,60.8288462 L107.919231,60.8288462 Z" id="Path" fill="#F49A00"></path>
                <path d="M107.964423,60.9192308 C100.552885,56.6711538 91.1076923,59.2471154 86.8596154,66.6586538 C82.6115385,74.0701923 85.1875,83.5153846 92.5990385,87.7634615 L92.6894231,87.8086538 L107.964423,60.9192308 L107.964423,60.9192308 Z" id="Path" fill="#FEC228"></path>
                <path d="M85.6846154,100.236538 L76.5557692,116.415385 C81.1201923,118.765385 86.7240385,116.957692 89.0288462,112.393269 C91.2432692,108.1 89.7519231,102.8125 85.6846154,100.236538 Z" id="Path" fill="#ED261F"></path>
                <path d="M85.6846154,100.281731 C81.3913462,97.4798077 75.6519231,98.7 72.85,103.038462 C70.0480769,107.376923 71.2682692,113.071154 75.6067308,115.873077 L75.7875,115.963462 C76.0586538,116.144231 76.3298077,116.279808 76.6009615,116.415385 L85.6846154,100.281731 L85.6846154,100.281731 Z" id="Path" fill="#FF4E47"></path>
            </g>
        </g>
    </g>
</svg>