<svg xmlns="http://www.w3.org/2000/svg" viewBox="0 0 20 20"><defs><style>.cls-1{fill:#444;}</style></defs><title>Artboard 1</title><g id="bg_light" data-name="bg light"><path class="cls-1" d="M13.56,0H7A3.5,3.5,0,0,0,3.66,3.4V16.56A3.41,3.41,0,0,0,7.06,20h6.5A3.41,3.41,0,0,0,17,16.56V3.4A3.51,3.51,0,0,0,13.56,0Zm1.9,16.08a2.37,2.37,0,0,1-2.35,2.37H7.52a2.37,2.37,0,0,1-2.35-2.37V3.86A2.37,2.37,0,0,1,7.52,1.49h5.59a2.37,2.37,0,0,1,2.35,2.37Z"/></g><g id="Laag_5" data-name="Laag 5"><circle class="cls-1" cx="10.31" cy="9.98" r="2.15"/><circle class="cls-1" cx="10.31" cy="4.69" r="2.15"/><circle class="cls-1" cx="10.31" cy="15.31" r="2.15"/></g></svg>