<svg xmlns="http://www.w3.org/2000/svg" xmlns:xlink="http://www.w3.org/1999/xlink" viewBox="0 0 500 500"><style>.st0{fill:#a0c8be}.st1{fill:#009288}.st2{fill:#5b2942}.st3{fill:none;stroke:#a0c8be;stroke-width:13;stroke-miterlimit:10}.st4{clip-path:url(#XMLID_5_);fill:#ff4e47}.st5{clip-path:url(#XMLID_6_);fill:#fec228}.st6{clip-path:url(#XMLID_7_);fill:#9fda4f}</style><path class="st0" d="M500 450H90c-49.7 0-90-40.3-90-90V90C0 40.3 40.3 0 90 0h320c49.7 0 90 40.3 90 90v360z" id="BG"/><path class="st1" d="M410 0H265v450h235V90c0-49.7-40.3-90-90-90z" id="BG_dark_1_"/><g id="bg_light"><path class="st2" d="M325 495.4H175c-38.5 0-70-31.5-70-70v-320c0-38.5 31.5-70 70-70h150c38.5 0 70 31.5 70 70v320c0 38.5-31.5 70-70 70z"/><path class="st3" d="M317 468.9H183c-27.5 0-50-22.5-50-50v-307c0-27.5 22.5-50 50-50h134c27.5 0 50 22.5 50 50v307c0 27.5-22.5 50-50 50z"/></g><g id="Layer_2"><defs><path id="XMLID_1_" d="M279.5 118.5l-7.6-7.9-19.7 11.6-8.4-3.5-4.9-22h-11.1l-6.1 22-8.6 3.5-19.1-11.9-8 7.8 11.2 19.5-3.7 8.5-22.1 5.4-.3 11.1 21.8 5.6 3.3 8.5-12.2 19.2 7.6 7.9 19.7-11.6 8.4 3.5 4.9 22h11.1l6.1-22 8.6-3.5 19.1 11.7 8-7.8-11.2-19.5 3.7-8.5 22.1-5.4.3-11.1-21.8-5.6-3.3-8.5 12.2-19zm-32.6 54.3c-8.8 8.6-22.8 8.5-31.1-.1-8.4-8.6-8-22.6.8-31.1s22.8-8.5 31.1.1c8.4 8.6 8 22.6-.8 31.1z"/></defs><use xlink:href="#XMLID_1_" overflow="visible" fill="#ED261F"/><clipPath id="XMLID_5_"><use xlink:href="#XMLID_1_" overflow="visible"/></clipPath><path class="st4" d="M307.5 84.8L158.9 226.4l4.9-147.2 143.7 7.1z"/><defs><path id="XMLID_2_" d="M333.7 245.7l-4.3-10.1-22.6 3.6-6.5-6.3 3.4-22.3-10.3-4.1-13.6 18.3-9.2.1L257 207l-10.3 4.4 3.4 22.2-6.5 6.5-22.6-3-4.3 10.2 18.3 13.1v9.1l-18.4 13.6 4.3 10.1 22.6-3.6 6.5 6.3-3.4 22.3 10.3 4.1 13.6-18.3 9.2-.1 13.6 17.9 10.3-4.4-3.4-22.2 6.5-6.5 22.6 3 4.3-10.2-18.3-13.1v-9.1l18.4-13.6zm-50 38.8c-11.3 4.8-24.3-.3-29-11.4-4.7-11.1.7-23.9 12-28.7 11.3-4.8 24.3.3 29 11.4 4.7 11.1-.7 23.9-12 28.7z"/></defs><use xlink:href="#XMLID_2_" overflow="visible" fill="#F49A00"/><clipPath id="XMLID_6_"><use xlink:href="#XMLID_2_" overflow="visible"/></clipPath><path class="st5" d="M311 178.7l-72.3 172.8-63.3-136z"/><defs><path id="XMLID_3_" d="M270.8 420.4l7.7-7.8-12.1-19.4 3.3-8.5 21.9-5.5-.2-11.1-22.1-5.5-3.7-8.5 11.3-19.4-8-7.8-19.2 11.6-8.6-3.5-5.9-22h-11.1l-5 22-8.4 3.5-19.7-11.7-7.7 7.8 12.1 19.4-3.3 8.5-21.9 5.5.2 11.1 22.1 5.5 3.7 8.5-11.2 19.4 8 7.8 19.2-11.6 8.6 3.5 5.9 22h11.1l5-22 8.4-3.5 19.6 11.7zm-55.1-31.2c-8.8-8.6-9.1-22.6-.6-31.1 8.4-8.6 22.4-8.6 31.1 0 8.8 8.6 9.1 22.6.6 31.1-8.4 8.6-22.3 8.6-31.1 0z"/></defs><use xlink:href="#XMLID_3_" overflow="visible" fill="#77B227"/><clipPath id="XMLID_7_"><use xlink:href="#XMLID_3_" overflow="visible"/></clipPath><path class="st6" d="M301 301.8L153.2 452l9.7-159.3z"/></g></svg>