<svg xmlns="http://www.w3.org/2000/svg" viewBox="0 0 500 500"><path d="M80 0h340a80 80 0 0 1 80 80v420H80a80 80 0 0 1-80-80V80A80 80 0 0 1 80 0z" fill="#0075b3"/><path d="M500 80a80 80 0 0 0-62.68-78.1l-.52.2L154.86 500H500z" fill="#084a67"/><circle cx="368.28" cy="122.74" r="97.35" fill="#9fda4f"/><path d="M441.11 94l-67.51 77.68-12.68 14.59a9.7 9.7 0 0 1-13.63.95l-14.59-12.68-38.82-33.75a9.69 9.69 0 0 1-1-13.63l12.68-14.59a9.72 9.72 0 0 1 13.64-.95l31.54 27.51 61.15-70.46a9.7 9.7 0 0 1 13.64-1l14.58 12.68a9.7 9.7 0 0 1 1 13.64z" fill="#fff"/><circle cx="263.28" cy="308.08" r="63.55" fill="#9fda4f"/><path d="M310.82 292l-44.06 50.69-8.28 9.52a6.34 6.34 0 0 1-8.9.62l-9.52-8.27-25.35-22a6.34 6.34 0 0 1-.62-8.9l8.28-9.52a6.34 6.34 0 0 1 8.9-.62l20.59 18 39.92-46a6.34 6.34 0 0 1 8.9-.62l9.52 8.28a6.34 6.34 0 0 1 .62 8.9z" fill="#fff"/><circle cx="182.62" cy="447.26" r="38.35" fill="#9fda4f"/><path d="M211.31 437.16l-26.59 30.59-5 5.74a3.81 3.81 0 0 1-5.37.38l-5.75-5-15.29-13.29a3.84 3.84 0 0 1-.38-5.37l5-5.75a3.82 3.82 0 0 1 5.37-.37l12.42 10.83 24.1-27.75a3.81 3.81 0 0 1 5.37-.38l5.74 5a3.81 3.81 0 0 1 .38 5.37zM74.4 337.3v34.9c21.6-.9 38.5-8 52.8-22.5s27.4-38 39.9-72.9l92.6-248h-44.8L140.3 236l-37-116.2h-41l54.4 139.8a57.54 57.54 0 0 1 0 41.8c-5.5 14.2-15.4 30.9-42.3 35.9z" fill="#fff"/></svg>