<svg xmlns="http://www.w3.org/2000/svg" viewBox="0 0 500 488.22"><title>YoastSEO_02</title><path d="M436.82,4.06A90,90,0,0,0,410,0H90A90,90,0,0,0,0,90V360a90,90,0,0,0,90,90H500V90A90,90,0,0,0,436.82,4.06Z" fill="#a4286a"/><path d="M436.82,4.06,184.15,450H500V90A90,90,0,0,0,436.82,4.06Z" fill="#6c2548"/><path d="M74.4,339.22v34.93c21.63-.85,38.51-8,52.84-22.46,14.76-14.83,27.45-38,39.93-72.85l92.53-248H215L140.4,237.91,103.31,121.76h-41l54.42,139.79a57.49,57.49,0,0,1,0,41.84C111.21,317.59,101.38,334.27,74.4,339.22Z" fill="#fff"/><circle cx="368.33" cy="124.68" r="97.34" transform="translate(19.72 296.97) rotate(-45)" fill="#9fda4f"/><path d="M416.2,39.93,320.46,209.44A97.34,97.34,0,1,0,416.2,39.93Z" fill="#77b227"/><path d="M294.78,254.75h0l-.15-.08-.13-.07h0a63.6,63.6,0,0,0-62.56,110.76h0l.07,0,.06,0h0a63.6,63.6,0,0,0,62.71-110.67Z" fill="#fec228"/><path d="M294.5,254.59,231.94,365.35A63.6,63.6,0,1,0,294.5,254.59Z" fill="#f49a00"/><path d="M222.31,450.07A38.16,38.16,0,0,0,203,416.83h0l0,0h0a38.18,38.18,0,1,0,19.41,33.27Z" fill="#ff4e47"/><path d="M202.9,416.8l-37.54,66.48A38.17,38.17,0,0,0,202.9,416.8Z" fill="#ed261f"/></svg>